<?xml version="1.0" encoding="UTF-8"?>
<svg version="1.1" xmlns="http://www.w3.org/2000/svg" width="165" height="172">
<path d="M0 0 C11.57575216 8.94798846 16.90314175 24.65675835 18.87109375 38.66796875 C20.65266954 58.21626826 18.73196371 78.19207737 6.8359375 94.44921875 C1.22638462 101.17672485 -4.51239258 105.91684463 -13.37109375 107.1015625 C-20.23484525 107.36311423 -25.48760006 106.65816093 -31.12890625 102.66796875 C-31.72058594 102.26707031 -32.31226562 101.86617188 -32.921875 101.453125 C-45.02197481 92.2378172 -49.91484337 76.37089545 -51.88574219 61.91113281 C-54.07310054 41.73297159 -50.86924944 21.5095873 -38.30859375 5.0859375 C-27.53015708 -6.87078705 -13.40818333 -8.38934039 0 0 Z M-31.6796875 15.55078125 C-39.09015003 26.3768478 -40.49030028 37.58626396 -40.50390625 50.35546875 C-40.52839844 51.54591797 -40.55289063 52.73636719 -40.578125 53.96289062 C-40.62223803 67.48353369 -37.04874976 80.7413315 -27.50390625 90.66796875 C-24.0679192 94.02621854 -21.13749716 94.85085173 -16.37890625 95.04296875 C-11.94391129 94.9592896 -9.18852879 94.33063354 -5.78515625 91.45703125 C5.98678279 78.74111597 8.61753655 61.4751894 7.99853516 44.74316406 C7.24550203 32.48113037 2.96243189 18.73343364 -6.44140625 10.35546875 C-15.87571277 2.99708036 -24.62821208 6.92614202 -31.6796875 15.55078125 Z " fill="#72564A" transform="translate(101.12890625,24.33203125)"/>
<path d="M0 0 C6.51789117 0.53207275 11.46952138 2.08595409 15.85546875 7.13671875 C25.28792408 19.94796405 28.11727708 34.65656499 28.69140625 50.33203125 C28.84416016 51.65267578 28.84416016 51.65267578 29 53 C29.99 53.495 29.99 53.495 31 54 C31.0825 53.38125 31.165 52.7625 31.25 52.125 C32 50 32 50 34.0625 48.75 C34.701875 48.5025 35.34125 48.255 36 48 C39.597904 58.793712 34.27273111 72.31017158 29.8125 82.1875 C25.46293912 90.3296658 19.30142424 97.46275096 10.74609375 101.2265625 C2.9235893 103.42977144 -4.90640939 102.95921336 -12 99 C-11 97 -11 97 -8 96 C-8.99 95.67 -9.98 95.34 -11 95 C-10.690625 94.030625 -10.38125 93.06125 -10.0625 92.0625 C-9.66483481 89.33876585 -9.80762587 88.29912179 -11.31640625 85.953125 C-12.56842323 84.47125609 -13.82386436 82.99227596 -15.08203125 81.515625 C-25.78319355 67.47988463 -25.52767495 47.04078888 -23.5703125 30.33203125 C-21.46324317 20.69414006 -16.84142697 8.92524688 -8.7109375 2.91015625 C-6.19293964 1.57067337 -3.8271235 1.13790846 -1 1 C-1.515625 1.37125 -2.03125 1.7425 -2.5625 2.125 C-3.366875 2.74375 -4.17125 3.3625 -5 4 C-5.52078125 4.34417969 -6.0415625 4.68835937 -6.578125 5.04296875 C-14.15245473 10.58724164 -18.58399617 20.64721831 -20.64038086 29.61621094 C-21.44395462 34.94281936 -21.36927236 40.31211289 -21.375 45.6875 C-21.39949219 46.87794922 -21.42398438 48.06839844 -21.44921875 49.29492188 C-21.49197826 62.40071033 -18.14694538 75.79199779 -8.875 85.5 C-4.55735149 89.25447697 -0.99970349 89.3695592 4.5078125 89.2578125 C8.44720242 88.8502894 10.1284741 87.74390253 13 85 C23.70235899 71.61617085 26.02326854 54.66241881 25 38 C23.71173257 26.91380873 19.94157168 14.14971975 11.5625 6.25 C7.97959427 3.59539257 4.35067581 2.76327646 0 2 C0 1.34 0 0.68 0 0 Z " fill="#6E5246" transform="translate(83,29)"/>
<path d="M0 0 C-0.50789063 0.268125 -1.01578125 0.53625 -1.5390625 0.8125 C-11.30008054 6.36933424 -15.39535997 14.58819115 -19 25 C-20.45592671 31.10799639 -20.26359132 37.25273155 -20.3125 43.5 C-20.34150391 44.70398438 -20.37050781 45.90796875 -20.40039062 47.1484375 C-20.50969584 62.78749075 -15.47943862 75.54572988 -5 87 C-8.73533799 86.45236839 -10.14296621 85.12853061 -12.4375 82.1875 C-23.95444716 66.61737831 -24.75009187 46.93942059 -22.5703125 28.33203125 C-20.22834261 17.61968748 -15.26352084 6.2350621 -6 0 C-3 -1 -3 -1 0 0 Z " fill="#50352C" transform="translate(82,31)"/>
<path d="M0 0 C0 1.32 0 2.64 0 4 C-0.86882812 4.02578125 -1.73765625 4.0515625 -2.6328125 4.078125 C-11.50954105 4.49167599 -11.50954105 4.49167599 -19 9 C-20.66026356 10.01059521 -22.32470102 11.01453001 -24 12 C-23.64010575 9.27424356 -23.24183438 8.21281425 -21.14453125 6.3671875 C-13.88741951 1.72360847 -8.6312065 -0.29762781 0 0 Z " fill="#756159" transform="translate(88,19)"/>
<path d="M0 0 C6.51789117 0.53207275 11.46952138 2.08595409 15.85546875 7.13671875 C22.55629515 16.23784118 25.57159835 24.73303669 26 36 C24.19793006 32.72782037 23.23748141 29.46977883 22.25 25.875 C19.59127428 17.11105225 15.90178746 9.05714397 8 4 C5.32450812 3.08393484 2.79216316 2.52954819 0 2 C0 1.34 0 0.68 0 0 Z " fill="#57392D" transform="translate(83,29)"/>
<path d="M0 0 C0.66 0.33 1.32 0.66 2 1 C1.67 2.98 1.34 4.96 1 7 C0.34 7 -0.32 7 -1 7 C-0.67 8.65 -0.34 10.3 0 12 C-1.32 12 -2.64 12 -4 12 C-6.25 9 -6.25 9 -8 6 C-7.34 6 -6.68 6 -6 6 C-5.67 5.01 -5.34 4.02 -5 3 C-3.68 3.33 -2.36 3.66 -1 4 C-0.67 2.68 -0.34 1.36 0 0 Z " fill="#705146" transform="translate(105,29)"/>
<path d="M0 0 C6.55327899 0.27305329 10.06930548 2.81211141 15 7 C14.67 7.99 14.34 8.98 14 10 C13.195625 9.195625 12.39125 8.39125 11.5625 7.5625 C7.73336737 4.31186942 3.8788744 4.11926137 -1 4 C-0.34 3.34 0.32 2.68 1 2 C0.67 1.34 0.34 0.68 0 0 Z " fill="#776358" transform="translate(90,21)"/>
<path d="M0 0 C1.32 0.33 2.64 0.66 4 1 C2.68 2.65 1.36 4.3 0 6 C-2.97 5.505 -2.97 5.505 -6 5 C-6 5.99 -6 6.98 -6 8 C-6.66 8 -7.32 8 -8 8 C-8.33 6.68 -8.66 5.36 -9 4 C-5.94736336 3.01879536 -4.05263664 3.01879536 -1 4 C-0.67 2.68 -0.34 1.36 0 0 Z " fill="#705951" transform="translate(101,120)"/>
<path d="M0 0 C1.95216435 1.95216435 2.84826645 3.53199953 4 6 C4.33 5.34 4.66 4.68 5 4 C5.66 4 6.32 4 7 4 C6.34 5.65 5.68 7.3 5 9 C5.99 9.99 6.98 10.98 8 12 C7.34 12.66 6.68 13.32 6 14 C4.8000962 12.23754778 3.61540483 10.46473019 2.4375 8.6875 C1.77621094 7.70136719 1.11492188 6.71523437 0.43359375 5.69921875 C-0.27603516 4.36310547 -0.27603516 4.36310547 -1 3 C-0.67 2.01 -0.34 1.02 0 0 Z " fill="#645043" transform="translate(57,107)"/>
<path d="M0 0 C0.33 0.99 0.66 1.98 1 3 C-2.0497062 8.51293044 -5.3936845 12.01648472 -11.3125 14.25 C-12.199375 14.4975 -13.08625 14.745 -14 15 C-14 14.34 -14 13.68 -14 13 C-12.80375 12.525625 -11.6075 12.05125 -10.375 11.5625 C-5.16223593 9.01177025 -2.78329402 4.93402123 0 0 Z " fill="#5E4431" transform="translate(101,106)"/>
<path d="M0 0 C1.7245052 2.24185676 3.32881099 4.50417685 4.875 6.875 C7.0814638 10.11979971 9.44877048 13.02356556 12 16 C8.0946199 15.47410996 6.67740544 13.87507819 4.3125 10.8125 C1.64816872 7.24867226 0.11714057 4.56848232 0 0 Z " fill="#4F3731" transform="translate(65,102)"/>
<path d="M0 0 C4.42857143 5.14285714 4.42857143 5.14285714 5 9 C3.35 9.66 1.7 10.32 0 11 C-0.33 9.35 -0.66 7.7 -1 6 C-0.34 6 0.32 6 1 6 C0.34 4.35 -0.32 2.7 -1 1 C-0.67 0.67 -0.34 0.34 0 0 Z " fill="#786058" transform="translate(108,33)"/>
<path d="M0 0 C0.66 0.33 1.32 0.66 2 1 C0.98823563 4.40320742 0.35156418 5.75725331 -2.625 7.8125 C-3.40875 8.204375 -4.1925 8.59625 -5 9 C-5.33 8.34 -5.66 7.68 -6 7 C-5.34 7 -4.68 7 -4 7 C-4 6.34 -4 5.68 -4 5 C-4.66 4.67 -5.32 4.34 -6 4 C-4.02 2.68 -2.04 1.36 0 0 Z " fill="#735D53" transform="translate(64,32)"/>
<path d="M0 0 C0.66 0 1.32 0 2 0 C3.31626692 3.61973402 4 6.09567131 4 10 C3.34 10 2.68 10 2 10 C2 9.01 2 8.02 2 7 C1.34 7 0.68 7 0 7 C0 4.69 0 2.38 0 0 Z " fill="#664F45" transform="translate(113,44)"/>
<path d="M0 0 C1.98 0 3.96 0 6 0 C6 1.32 6 2.64 6 4 C4.02 4 2.04 4 0 4 C0 2.68 0 1.36 0 0 Z " fill="#7C6A58" transform="translate(82,19)"/>
<path d="M0 0 C1.65 0.33 3.3 0.66 5 1 C4.34 1.66 3.68 2.32 3 3 C3.33 3.66 3.66 4.32 4 5 C2.02 5.33 0.04 5.66 -2 6 C-1.34 4.02 -0.68 2.04 0 0 Z " fill="#6A5049" transform="translate(88,19)"/>
<path d="M0 0 C0.66 0.33 1.32 0.66 2 1 C2.99 0.67 3.98 0.34 5 0 C4.67 0.99 4.34 1.98 4 3 C3.01 3 2.02 3 1 3 C0.67 3.66 0.34 4.32 0 5 C-0.99 4.67 -1.98 4.34 -3 4 C-2.01 2.68 -1.02 1.36 0 0 Z " fill="#604B44" transform="translate(63,29)"/>
</svg>
