<?xml version="1.0" encoding="UTF-8"?>
<svg version="1.1" xmlns="http://www.w3.org/2000/svg" width="162" height="169">
<path d="M0 0 C5.78741326 4.75526312 10.52540133 10.48919368 12 18 C13.25263029 31.26556013 9.54864279 43.16793902 2 54 C1.62536621 54.54156738 1.25073242 55.08313477 0.86474609 55.64111328 C-6.15051429 65.74699335 -13.47226284 75.4036084 -21.77734375 84.4921875 C-25.04730147 88.18166528 -28.02733619 92.07054872 -31 96 C-23.28249938 96.07502836 -15.60256467 96.03425857 -7.89453125 95.640625 C-6.54883376 95.57670411 -5.20313062 95.51290217 -3.85742188 95.44921875 C-1.81158605 95.35150275 0.23303294 95.24728749 2.27758789 95.12548828 C4.30252749 95.00733715 6.32904664 94.91730739 8.35546875 94.828125 C9.53778076 94.7652832 10.72009277 94.70244141 11.93823242 94.63769531 C15 95 15 95 17.41918945 96.84667969 C19 99 19 99 18.9375 101.625 C18 104 18 104 15 106 C12.5223999 106.35440063 12.5223999 106.35440063 9.53808594 106.50244141 C7.8605423 106.5923082 7.8605423 106.5923082 6.14910889 106.68399048 C4.9397467 106.73928925 3.73038452 106.79458801 2.484375 106.8515625 C1.240047 106.91532074 -0.00428101 106.97907898 -1.28631592 107.04476929 C-4.59762666 107.2125051 -7.90913444 107.37208361 -11.2210083 107.52801514 C-14.57090742 107.68813876 -17.92015407 107.86056019 -21.26953125 108.03125 C-28.17892861 108.3773198 -35.08765738 108.71847946 -42 109 C-43.13520081 109.06994171 -43.13520081 109.06994171 -44.29333496 109.14129639 C-46.19042969 109.22412109 -46.19042969 109.22412109 -49 109 C-51 106 -51 106 -50.8203125 103.546875 C-49.91386221 100.73256267 -48.90244808 99.37745673 -46.875 97.25 C-44.3804655 94.53876856 -42.03535813 91.81332353 -39.8125 88.875 C-36.22773484 84.19781205 -32.40040206 79.75002151 -28.52661133 75.31201172 C-7.23339177 51.40378323 -7.23339177 51.40378323 0.46484375 21.55078125 C-0.47325598 16.4030575 -3.36883428 12.63116572 -7 9 C-14.52012774 6.82751865 -22.8416007 8.81714524 -29.6640625 12.3984375 C-32.91975273 14.54349093 -35.83192303 16.85102269 -38.75 19.4375 C-41 21 -41 21 -43.75 20.8125 C-46 20 -46 20 -47 19 C-47.49287384 16.04275698 -47.51759445 13.91243923 -46.01171875 11.2578125 C-36.22897855 -1.14284409 -14.2637458 -8.50338692 0 0 Z " fill="#6C4F42" transform="translate(95,23)"/>
<path d="M0 0 C6.44265586 5.74615252 13.5802795 13.7730807 14.29296875 22.6484375 C14.25816406 23.87820312 14.22335938 25.10796875 14.1875 26.375 C14.14689453 28.24285156 14.14689453 28.24285156 14.10546875 30.1484375 C14.07066406 31.08945312 14.03585938 32.03046875 14 33 C8.125 35 8.125 35 7 35 C7.06960937 34.17757812 7.13921875 33.35515625 7.2109375 32.5078125 C7.61219776 24.234208 6.62600241 18.32162527 1 12 C-4.01330585 8.39138855 -8.00463266 8.2344625 -14 9 C-17.49467573 9.90908794 -20.89373577 10.96391026 -24.3125 12.125 C-27 13 -27 13 -29 13 C-29 13.66 -29 14.32 -29 15 C-30.609375 16.54296875 -30.609375 16.54296875 -32.75 18.1875 C-33.44609375 18.73792969 -34.1421875 19.28835937 -34.859375 19.85546875 C-37 21 -37 21 -39.203125 20.86328125 C-39.79609375 20.57839844 -40.3890625 20.29351562 -41 20 C-41.33 19.01 -41.66 18.02 -42 17 C-40.6875 14.5625 -40.6875 14.5625 -39 12 C-38.72414062 11.3503125 -38.44828125 10.700625 -38.1640625 10.03125 C-35.31851787 5.0658701 -29.05087294 2.68109237 -23.8359375 0.94921875 C-16.14309067 -0.98776297 -7.69659375 -2.56553125 0 0 Z " fill="#715347" transform="translate(91,21)"/>
<path d="M0 0 C2.83456607 4.00174034 1.66737309 7.40772644 1 12 C1.68400879 11.96970703 2.36801758 11.93941406 3.07275391 11.90820312 C28.19388222 10.80991939 28.19388222 10.80991939 40 11 C40.33 10.34 40.66 9.68 41 9 C41 9.66 41 10.32 41 11 C42.918125 10.938125 42.918125 10.938125 44.875 10.875 C47.0546875 10.8046875 47.0546875 10.8046875 49 11 C49.99 11.99 49.99 11.99 51 13 C50.46428571 16.53571429 50.46428571 16.53571429 49 18 C36.23594971 19.75120748 23.04392287 19.57125817 10.1875 20.0625 C7.83788189 20.15407303 5.48827242 20.24586801 3.13867188 20.33789062 C-2.57412159 20.56115454 -8.28701589 20.78167154 -14 21 C-14.64453125 19.19921875 -14.64453125 19.19921875 -15 17 C-11.01538462 11.50769231 -11.01538462 11.50769231 -8 10 C-7.02410986 8.24339775 -6.04919638 6.48621667 -5.0859375 4.72265625 C-3.73079786 2.57295631 -2.16084149 1.31193948 0 0 Z " fill="#745549" transform="translate(61,109)"/>
<path d="M0 0 C3.9903102 3.53427475 7.1248971 8.01386727 9.1875 12.9375 C8.72345667 27.55486485 2.52291078 38.45707461 -5.8125 49.9375 C-6.5446875 50.96488281 -7.276875 51.99226563 -8.03125 53.05078125 C-9.93506876 55.69782156 -11.86693962 58.32105672 -13.8125 60.9375 C-14.369375 61.700625 -14.92625 62.46375 -15.5 63.25 C-18.07318568 66.74953252 -20.63036465 69.96066371 -23.8125 72.9375 C-29.06913235 77.91746749 -33.71775477 83.35199948 -36.8125 89.9375 C-37.4725 89.9375 -38.1325 89.9375 -38.8125 89.9375 C-39.4725 91.2575 -40.1325 92.5775 -40.8125 93.9375 C-41.4725 93.9375 -42.1325 93.9375 -42.8125 93.9375 C-42.8125 95.5875 -42.8125 97.2375 -42.8125 98.9375 C-35.92963143 98.67446302 -29.04692283 98.40749861 -22.16430664 98.13793945 C-19.82807783 98.04688825 -17.49181515 97.95670119 -15.15551758 97.86743164 C2.53534017 97.22754266 2.53534017 97.22754266 20.1875 95.9375 C20.77820014 93.99146726 20.77820014 93.99146726 21.1875 91.9375 C19.69006881 90.44006881 18.19925761 90.60547307 16.125 90.375 C14.825625 90.230625 13.52625 90.08625 12.1875 89.9375 C12.1875 89.2775 12.1875 88.6175 12.1875 87.9375 C19.45207399 87.45319507 19.45207399 87.45319507 22.75 89.625 C24.1875 91.9375 24.1875 91.9375 24.125 94.5625 C23.1875 96.9375 23.1875 96.9375 20.1875 98.9375 C17.7098999 99.29190063 17.7098999 99.29190063 14.72558594 99.43994141 C13.0480423 99.5298082 13.0480423 99.5298082 11.33660889 99.62149048 C10.1272467 99.67678925 8.91788452 99.73208801 7.671875 99.7890625 C6.427547 99.85282074 5.18321899 99.91657898 3.90118408 99.98226929 C0.58987334 100.1500051 -2.72163444 100.30958361 -6.0335083 100.46551514 C-9.38340742 100.62563876 -12.73265407 100.79806019 -16.08203125 100.96875 C-22.99142861 101.3148198 -29.90015738 101.65597946 -36.8125 101.9375 C-37.94770081 102.00744171 -37.94770081 102.00744171 -39.10583496 102.07879639 C-41.00292969 102.16162109 -41.00292969 102.16162109 -43.8125 101.9375 C-45.8125 98.9375 -45.8125 98.9375 -45.6328125 96.484375 C-44.72636221 93.67006267 -43.71494808 92.31495673 -41.6875 90.1875 C-39.1929655 87.47626856 -36.84785813 84.75082353 -34.625 81.8125 C-31.04023484 77.13531205 -27.21290206 72.68752151 -23.33911133 68.24951172 C-2.04589177 44.34128323 -2.04589177 44.34128323 5.65234375 14.48828125 C4.71424402 9.3405575 1.81866572 5.56866572 -1.8125 1.9375 C-9.33262774 -0.23498135 -17.6541007 1.75464524 -24.4765625 5.3359375 C-27.73225273 7.48099093 -30.64442303 9.78852269 -33.5625 12.375 C-35.8125 13.9375 -35.8125 13.9375 -38.5625 13.75 C-40.8125 12.9375 -40.8125 12.9375 -41.8125 11.9375 C-42.125 9.125 -42.125 9.125 -41.8125 5.9375 C-39.8125 3.5625 -39.8125 3.5625 -37.8125 1.9375 C-37.8125 5.14145416 -38.55585022 7.03149739 -39.8125 9.9375 C-38.13421592 10.90374167 -38.13421592 10.90374167 -35.8125 10.9375 C-33.75970004 9.33631603 -31.75598501 7.66973664 -29.8125 5.9375 C-29.1525 5.9375 -28.4925 5.9375 -27.8125 5.9375 C-27.8125 5.2775 -27.8125 4.6175 -27.8125 3.9375 C-26.06343469 3.28913958 -24.31320781 2.64391216 -22.5625 2 C-21.58796875 1.64035156 -20.6134375 1.28070312 -19.609375 0.91015625 C-13.22942899 -1.30856799 -6.48229179 -2.44886579 0 0 Z " fill="#51342B" transform="translate(89.8125,30.0625)"/>
<path d="M0 0 C0.66 0 1.32 0 2 0 C-1.13259631 8.89405485 -8.5605869 15.67845978 -14.8125 22.52734375 C-18.06663992 26.20568406 -21.05139412 30.07484619 -24 34 C-11.63991137 34.17327227 0.65822514 33.63594729 13 33 C13 33.66 13 34.32 13 35 C0.01485466 36.30083746 -12.96587502 36.09207781 -26 36 C-26 32.7 -26 29.4 -26 26 C-26.99 26 -27.98 26 -29 26 C-27.54540242 22.60593897 -25.6345604 20.55472523 -23 18 C-22.46375 17.2575 -21.9275 16.515 -21.375 15.75 C-20.92125 15.1725 -20.4675 14.595 -20 14 C-19.34 14 -18.68 14 -18 14 C-17.71125 13.360625 -17.4225 12.72125 -17.125 12.0625 C-16 10 -16 10 -14 9 C-14 9.99 -14 10.98 -14 12 C-13.34 12 -12.68 12 -12 12 C-11.67 10.68 -11.34 9.36 -11 8 C-10.67 9.32 -10.34 10.64 -10 12 C-9.34 11.01 -8.68 10.02 -8 9 C-7.34 9 -6.68 9 -6 9 C-4.48355056 6.97656841 -4.48355056 6.97656841 -3 4.5 C-1.4375 1.96875 -1.4375 1.96875 0 0 Z " fill="#725447" transform="translate(88,85)"/>
<path d="M0 0 C-1.61577983 6.92477069 -2.92599396 10.92599396 -8 16 C-8.70125 17.051875 -9.4025 18.10375 -10.125 19.1875 C-12.10738762 22.16108143 -12.96854935 22.48427467 -16 24 C-16.33 23.01 -16.66 22.02 -17 21 C-17.33 21.99 -17.66 22.98 -18 24 C-18.66 24 -19.32 24 -20 24 C-20.26365861 20.16376718 -19.95325662 18.33717688 -17.5 15.375 C-14.07169159 11.10593977 -10.90315095 6.68719136 -7.734375 2.22265625 C-5.10246422 -1.1502204 -3.91525148 -1.17457544 0 0 Z " fill="#755548" transform="translate(94,73)"/>
<path d="M0 0 C0.66 0.33 1.32 0.66 2 1 C1.03900391 2.03447266 1.03900391 2.03447266 0.05859375 3.08984375 C-5.25468804 8.8623958 -10.30458719 14.70317156 -15 21 C-2.63991137 21.17327227 9.65822514 20.63594729 22 20 C22 20.66 22 21.32 22 22 C9.01671093 23.3006515 -3.96774084 23.09977584 -17 23 C-16.47308657 19.44152986 -15.80047503 17.28952957 -13.41796875 14.58984375 C-12.89783203 13.99236328 -12.37769531 13.39488281 -11.84179688 12.77929688 C-11.29587891 12.17150391 -10.74996094 11.56371094 -10.1875 10.9375 C-9.65318359 10.32583984 -9.11886719 9.71417969 -8.56835938 9.08398438 C-5.81222625 5.94816256 -2.99688003 2.90980362 0 0 Z " fill="#55362D" transform="translate(79,98)"/>
<path d="M0 0 C6.96147252 3.84457629 13.2054296 10.01198534 15.60546875 17.76953125 C16.95217522 25.38308959 16.25762949 32.66270417 14 40 C13.34 40 12.68 40 12 40 C12.165 39.13375 12.33 38.2675 12.5 37.375 C13.48253285 30.53937862 14.47463384 21.56247835 12 15 C11.34 14.67 10.68 14.34 10 14 C9.4225 12.9275 8.845 11.855 8.25 10.75 C6.73854551 7.96182448 5.23853089 6.15367417 2.75 4.1875 C1.8425 3.465625 0.935 2.74375 0 2 C0 1.34 0 0.68 0 0 Z " fill="#5A4137" transform="translate(91,21)"/>
<path d="M0 0 C0.66 0.33 1.32 0.66 2 1 C0.92027262 2.4194169 -0.16395863 3.8354083 -1.25 5.25 C-2.15492187 6.43335937 -2.15492187 6.43335937 -3.078125 7.640625 C-4.93235221 9.91695272 -6.92624224 11.92624224 -9 14 C-9.99 15.485 -9.99 15.485 -11 17 C-11.66 16.67 -12.32 16.34 -13 16 C-11.3383196 11.87582937 -8.37661982 8.93445961 -5.375 5.75 C-4.859375 5.19570312 -4.34375 4.64140625 -3.8125 4.0703125 C-2.54574965 2.7097288 -1.27342185 1.35434163 0 0 Z " fill="#5B4030" transform="translate(75,89)"/>
<path d="M0 0 C0.99 0.33 1.98 0.66 3 1 C2.21625 1.185625 1.4325 1.37125 0.625 1.5625 C-0.674375 2.2740625 -0.674375 2.2740625 -2 3 C-2.4640625 4.670625 -2.4640625 4.670625 -2.9375 6.375 C-4 10 -4 10 -7.125 12.4375 C-8.07375 12.953125 -9.0225 13.46875 -10 14 C-9.33333333 12.33333333 -8.66666667 10.66666667 -8 9 C-7.7525 8.154375 -7.505 7.30875 -7.25 6.4375 C-5.50881954 3.04219811 -3.32722129 1.76546436 0 0 Z " fill="#634A3E" transform="translate(59,26)"/>
<path d="M0 0 C3.72024288 2.03866713 6.38380142 4.1971134 9.1875 7.375 C9.86167969 8.12523437 10.53585938 8.87546875 11.23046875 9.6484375 C13.02327943 12.03093646 14.03282365 14.19270865 15 17 C14.01 17 13.02 17 12 17 C12 16.34 12 15.68 12 15 C11.34 14.67 10.68 14.34 10 14 C9.4225 12.9275 8.845 11.855 8.25 10.75 C6.73854551 7.96182448 5.23853089 6.15367417 2.75 4.1875 C1.8425 3.465625 0.935 2.74375 0 2 C0 1.34 0 0.68 0 0 Z " fill="#523A2F" transform="translate(91,21)"/>
<path d="M0 0 C3.70100803 3.30447145 5.89047053 6.5465489 8 11 C7.75 13.9375 7.75 13.9375 7 16 C6.34 16 5.68 16 5 16 C4.62875 14.2365625 4.62875 14.2365625 4.25 12.4375 C3.18103871 8.09193997 1.36422459 4.78275934 -1 1 C-0.67 0.67 -0.34 0.34 0 0 Z " fill="#593C33" transform="translate(91,32)"/>
<path d="M0 0 C7.26457399 -0.48430493 7.26457399 -0.48430493 10.5625 1.6875 C12 4 12 4 11.75 6.75 C11.5025 7.4925 11.255 8.235 11 9 C10.01 9.33 9.02 9.66 8 10 C8.2784375 8.5459375 8.2784375 8.5459375 8.5625 7.0625 C8.706875 6.051875 8.85125 5.04125 9 4 C7.50256881 2.50256881 6.01175761 2.66797307 3.9375 2.4375 C2.638125 2.293125 1.33875 2.14875 0 2 C0 1.34 0 0.68 0 0 Z " fill="#583D34" transform="translate(102,118)"/>
<path d="M0 0 C0.66 0 1.32 0 2 0 C0.50328459 4.49014624 -1.83368341 8.47848764 -5 12 C-5.66 12 -6.32 12 -7 12 C-5.50328459 7.50985376 -3.16631659 3.52151236 0 0 Z " fill="#4B342D" transform="translate(88,85)"/>
<path d="M0 0 C0 0.66 0 1.32 0 2 C-0.99 2.495 -0.99 2.495 -2 3 C-1.67 3.99 -1.34 4.98 -1 6 C-2.65 6.33 -4.3 6.66 -6 7 C-6 5.68 -6 4.36 -6 3 C-2.78571429 0 -2.78571429 0 0 0 Z " fill="#76574D" transform="translate(57,35)"/>
<path d="M0 0 C0.66 0.66 1.32 1.32 2 2 C1.01 3.32 0.02 4.64 -1 6 C-0.690625 6.61875 -0.38125 7.2375 -0.0625 7.875 C0.625 9.25 1.3125 10.625 2 12 C-0.475 11.01 -0.475 11.01 -3 10 C-3.36923077 4.58461538 -3.36923077 4.58461538 -1.5 1.625 C-1.005 1.08875 -0.51 0.5525 0 0 Z " fill="#543C31" transform="translate(51,32)"/>
<path d="M0 0 C0.33 0.99 0.66 1.98 1 3 C0.34 3 -0.32 3 -1 3 C-1 5.64 -1 8.28 -1 11 C-2.5625 9.8125 -2.5625 9.8125 -4 8 C-3.84946418 4.98928361 -3.41319987 3.47931185 -1.4375 1.1875 C-0.963125 0.795625 -0.48875 0.40375 0 0 Z " fill="#502F23" transform="translate(48,121)"/>
</svg>
