<?xml version="1.0" encoding="UTF-8"?>
<svg version="1.1" xmlns="http://www.w3.org/2000/svg" width="159" height="178">
<path d="M0 0 C3.47806593 0.84601604 4.74694693 1.59010422 6.6496582 4.67211914 C9.03011807 10.69126139 8.36667014 17.32122913 8.29296875 23.68359375 C8.28736582 25.10848034 8.28309902 26.53337275 8.28010559 27.95826721 C8.26871153 31.68855047 8.23929225 35.41847716 8.20599365 39.14862061 C8.17517458 42.96296365 8.1615751 46.77736492 8.14648438 50.59179688 C8.11441644 58.06135957 8.06328718 65.53062961 8 73 C8.59014893 72.98428955 9.18029785 72.9685791 9.78833008 72.95239258 C12.46295586 72.89002061 15.13742864 72.85100343 17.8125 72.8125 C18.74126953 72.78736328 19.67003906 72.76222656 20.62695312 72.73632812 C21.51962891 72.72666016 22.41230469 72.71699219 23.33203125 72.70703125 C24.15421143 72.6913208 24.9763916 72.67561035 25.82348633 72.65942383 C28.51849123 73.08113239 29.38324499 73.83800409 31 76 C31.3125 78.5625 31.3125 78.5625 31 81 C28.56085508 83.43914492 27.78553569 83.28662523 24.4296875 83.4140625 C23.53378906 83.45273438 22.63789062 83.49140625 21.71484375 83.53125 C20.77769531 83.5621875 19.84054688 83.593125 18.875 83.625 C17.93011719 83.66367188 16.98523438 83.70234375 16.01171875 83.7421875 C13.67467625 83.83661346 11.33764499 83.92218394 9 84 C8.98541748 84.68102783 8.97083496 85.36205566 8.95581055 86.0637207 C8.88137304 89.14722215 8.78469917 92.22963567 8.6875 95.3125 C8.66494141 96.38435547 8.64238281 97.45621094 8.61914062 98.56054688 C8.58369141 99.58857422 8.54824219 100.61660156 8.51171875 101.67578125 C8.48553467 102.62364502 8.45935059 103.57150879 8.43237305 104.5480957 C7.93149424 107.38848296 7.30565012 108.31389179 5 110 C2.4375 110.375 2.4375 110.375 0 110 C-4.83929782 102.74105327 -2.62104635 92.71593399 -3 84 C-19.17 84 -35.34 84 -52 84 C-53.09212457 77.44725256 -52.2224211 75.74760113 -48.7578125 70.671875 C-48.077686 69.63229645 -48.077686 69.63229645 -47.38381958 68.57171631 C-45.93824573 66.37029555 -44.46979015 64.18530591 -43 62 C-42.07748541 60.60197657 -41.15656009 59.202903 -40.23730469 57.80273438 C-37.4727136 53.60307804 -34.67582333 49.42554382 -31.875 45.25 C-30.92816214 43.83478477 -29.98154718 42.41942039 -29.03515625 41.00390625 C-27.20616943 38.26893501 -25.37618686 35.53463528 -23.54516602 32.80102539 C-17.04463957 23.12312538 -17.04463957 23.12312538 -10.64453125 13.37890625 C-10.03996094 12.44949219 -9.43539062 11.52007812 -8.8125 10.5625 C-8.20019531 9.61503906 -7.58789062 8.66757812 -6.95703125 7.69140625 C-4.87163647 4.82346812 -2.56531162 2.4412551 0 0 Z M-3 20 C-3.93701289 21.24556208 -4.82601355 22.5272392 -5.69628906 23.8203125 C-6.26067688 24.6553833 -6.8250647 25.4904541 -7.40655518 26.35083008 C-8.02004822 27.26630615 -8.63354126 28.18178223 -9.265625 29.125 C-9.89603699 30.06045654 -10.52644897 30.99591309 -11.17596436 31.9597168 C-12.51589303 33.94943702 -13.8541589 35.94027785 -15.19091797 37.93212891 C-17.22390538 40.96112106 -19.26186063 43.98671816 -21.30078125 47.01171875 C-22.60186012 48.94511225 -23.90265032 50.87870005 -25.203125 52.8125 C-25.80852112 53.71178223 -26.41391724 54.61106445 -27.03765869 55.53759766 C-29.70011872 59.50726263 -32.34530173 63.48754023 -34.92480469 67.51171875 C-35.32753601 68.13908936 -35.73026733 68.76645996 -36.14520264 69.4128418 C-37.15805818 70.99302592 -37.15805818 70.99302592 -37 73 C-25.45 73 -13.9 73 -2 73 C-2 55.51 -2 38.02 -2 20 C-2.33 20 -2.66 20 -3 20 Z " fill="#745549" transform="translate(88,24)"/>
<path d="M0 0 C2.475 0.99 2.475 0.99 5 2 C5 2.99 5 3.98 5 5 C4.4225 4.814375 3.845 4.62875 3.25 4.4375 C0.79307475 3.95976454 -0.64397534 4.24270636 -3 5 C-3 5.99 -3 6.98 -3 8 C-4.31200404 9.35432675 -5.64631404 10.68733482 -7 12 C-7.33 12.99 -7.66 13.98 -8 15 C-7.34 15 -6.68 15 -6 15 C-4.50343318 21.66652491 -5.93859633 25.5980639 -9.34942627 31.22695923 C-10.99561781 33.77406083 -12.68145209 36.29020204 -14.3828125 38.80078125 C-14.99768524 39.71836716 -15.61255798 40.63595306 -16.24606323 41.5813446 C-18.20026702 44.4954284 -20.16232748 47.40411491 -22.125 50.3125 C-24.09318163 53.23980405 -26.05974128 56.16818831 -28.02536011 59.09721375 C-29.24659776 60.9158476 -30.46963026 62.7332777 -31.6946106 64.5493927 C-32.24543304 65.36751938 -32.79625549 66.18564606 -33.36376953 67.02856445 C-33.8499173 67.74913528 -34.33606506 68.46970612 -34.83694458 69.21211243 C-36.04424262 70.99444216 -36.04424262 70.99444216 -37 73 C-25.45 73 -13.9 73 -2 73 C-2 55.51 -2 38.02 -2 20 C-1.67 20 -1.34 20 -1 20 C-1 37.82 -1 55.64 -1 74 C-13.54 74 -26.08 74 -39 74 C-39 74.66 -39 75.32 -39 76 C-40.485 76.495 -40.485 76.495 -42 77 C-42.66 76.67 -43.32 76.34 -44 76 C-44.33 77.65 -44.66 79.3 -45 81 C-43.05395874 81.03758423 -43.05395874 81.03758423 -41.06860352 81.07592773 C-36.27341144 81.16981752 -31.4783705 81.27008249 -26.68334961 81.37231445 C-24.60460943 81.41573334 -22.52583197 81.45740312 -20.44702148 81.49731445 C-17.46586855 81.55484921 -14.48490451 81.61859119 -11.50390625 81.68359375 C-10.56849503 81.70030624 -9.6330838 81.71701874 -8.66932678 81.73423767 C-7.80850998 81.75418289 -6.94769318 81.77412811 -6.06079102 81.79467773 C-5.29912125 81.81022202 -4.53745148 81.8257663 -3.75270081 81.84178162 C-2 82 -2 82 -1 83 C-0.84213692 84.85174706 -0.74892644 86.7090911 -0.68359375 88.56640625 C-0.64169922 89.69111328 -0.59980469 90.81582031 -0.55664062 91.97460938 C-0.51732422 93.15861328 -0.47800781 94.34261719 -0.4375 95.5625 C-0.39431641 96.75037109 -0.35113281 97.93824219 -0.30664062 99.16210938 C-0.20016454 102.10794784 -0.09815159 105.0538743 0 108 C3.0745356 107.2236068 3.0745356 107.2236068 5 105 C5.99 105.66 6.98 106.32 8 107 C6.19873295 109.27528469 5.3633843 109.94682181 2.4375 110.375 C1.2309375 110.189375 1.2309375 110.189375 0 110 C-4.83929782 102.74105327 -2.62104635 92.71593399 -3 84 C-19.17 84 -35.34 84 -52 84 C-53.09212457 77.44725256 -52.2224211 75.74760113 -48.7578125 70.671875 C-48.077686 69.63229645 -48.077686 69.63229645 -47.38381958 68.57171631 C-45.93824573 66.37029555 -44.46979015 64.18530591 -43 62 C-42.07748541 60.60197657 -41.15656009 59.202903 -40.23730469 57.80273438 C-37.4727136 53.60307804 -34.67582333 49.42554382 -31.875 45.25 C-30.92816214 43.83478477 -29.98154718 42.41942039 -29.03515625 41.00390625 C-27.20616943 38.26893501 -25.37618686 35.53463528 -23.54516602 32.80102539 C-17.04463957 23.12312538 -17.04463957 23.12312538 -10.64453125 13.37890625 C-10.03996094 12.44949219 -9.43539062 11.52007812 -8.8125 10.5625 C-8.20019531 9.61503906 -7.58789062 8.66757812 -6.95703125 7.69140625 C-4.87163647 4.82346812 -2.56531162 2.4412551 0 0 Z " fill="#6F5144" transform="translate(88,24)"/>
<path d="M0 0 C0.33 0.66 0.66 1.32 1 2 C-0.03125 3.76953125 -0.03125 3.76953125 -1.5 5.8125 C-3.6606496 9.01446245 -3.6606496 9.01446245 -3.875 12.8125 C-3.58625 13.534375 -3.2975 14.25625 -3 15 C-2.67 15.99 -2.34 16.98 -2 18 C-2.33 18.66 -2.66 19.32 -3 20 C-1.05395874 20.03758423 -1.05395874 20.03758423 0.93139648 20.07592773 C5.72658856 20.16981752 10.5216295 20.27008249 15.31665039 20.37231445 C17.39539057 20.41573334 19.47416803 20.45740312 21.55297852 20.49731445 C24.53413145 20.55484921 27.51509549 20.61859119 30.49609375 20.68359375 C31.43150497 20.70030624 32.3669162 20.71701874 33.33067322 20.73423767 C34.62189842 20.7641555 34.62189842 20.7641555 35.93920898 20.79467773 C36.70087875 20.81022202 37.46254852 20.8257663 38.24729919 20.84178162 C40 21 40 21 41 22 C41.15786308 23.85174706 41.25107356 25.7090911 41.31640625 27.56640625 C41.35830078 28.69111328 41.40019531 29.81582031 41.44335938 30.97460938 C41.48267578 32.15861328 41.52199219 33.34261719 41.5625 34.5625 C41.60568359 35.75037109 41.64886719 36.93824219 41.69335938 38.16210938 C41.79983546 41.10794784 41.90184841 44.0538743 42 47 C45.0745356 46.2236068 45.0745356 46.2236068 47 44 C47.99 44.66 48.98 45.32 50 46 C48.19873295 48.27528469 47.3633843 48.94682181 44.4375 49.375 C43.2309375 49.189375 43.2309375 49.189375 42 49 C37.16070218 41.74105327 39.37895365 31.71593399 39 23 C22.83 23 6.66 23 -10 23 C-11.12513152 16.24921087 -11.12513152 16.24921087 -8.9453125 12.94921875 C-8.49542969 12.25119141 -8.04554687 11.55316406 -7.58203125 10.83398438 C-7.10121094 10.12564453 -6.62039062 9.41730469 -6.125 8.6875 C-5.65191406 7.95982422 -5.17882813 7.23214844 -4.69140625 6.48242188 C-1.30247642 1.30247642 -1.30247642 1.30247642 0 0 Z " fill="#644B3F" transform="translate(46,85)"/>
<path d="M0 0 C5.96313166 -0.02464574 11.92623395 -0.042834 17.8894043 -0.05493164 C19.91968298 -0.05997278 21.94995802 -0.06680557 23.98022461 -0.07543945 C26.89177347 -0.08751467 29.8032745 -0.09323034 32.71484375 -0.09765625 C33.6283812 -0.10281754 34.54191864 -0.10797882 35.48313904 -0.11329651 C37.65575427 -0.11349168 39.82827296 -0.06211805 42 0 C43.74506615 1.74506615 43.23282784 4.19039143 43.31640625 6.56640625 C43.35830078 7.69111328 43.40019531 8.81582031 43.44335938 9.97460938 C43.48267578 11.15861328 43.52199219 12.34261719 43.5625 13.5625 C43.60568359 14.75037109 43.64886719 15.93824219 43.69335938 17.16210938 C43.79983546 20.10794784 43.90184841 23.0538743 44 26 C47.0745356 25.2236068 47.0745356 25.2236068 49 23 C49.99 23.66 50.98 24.32 52 25 C50.19873295 27.27528469 49.3633843 27.94682181 46.4375 28.375 C45.633125 28.25125 44.82875 28.1275 44 28 C41.80835056 24.71252584 41.71320614 23.51505175 41.5859375 19.67578125 C41.55032715 18.74934814 41.5147168 17.82291504 41.47802734 16.8684082 C41.44402832 15.6949585 41.4100293 14.52150879 41.375 13.3125 C41.25125 9.579375 41.1275 5.84625 41 2 C20.705 1.505 20.705 1.505 0 1 C0 0.67 0 0.34 0 0 Z " fill="#5B4238" transform="translate(44,106)"/>
<path d="M0 0 C3.43734063 -0.08703823 6.87439837 -0.14040272 10.3125 -0.1875 C11.28896484 -0.21263672 12.26542969 -0.23777344 13.27148438 -0.26367188 C14.20927734 -0.27333984 15.14707031 -0.28300781 16.11328125 -0.29296875 C16.97735596 -0.3086792 17.84143066 -0.32438965 18.73168945 -0.34057617 C21.49092026 0.07370937 22.35796056 0.77946607 24 3 C24.3125 5.5625 24.3125 5.5625 24 8 C21.47871644 10.52128356 20.48760987 10.29353069 16.9921875 10.4140625 C15.51298828 10.47207031 15.51298828 10.47207031 14.00390625 10.53125 C12.45509766 10.57765625 12.45509766 10.57765625 10.875 10.625 C9.83472656 10.66367188 8.79445313 10.70234375 7.72265625 10.7421875 C5.14861689 10.83664766 2.57458845 10.92221214 0 11 C0 10.34 0 9.68 0 9 C6.27 8.67 12.54 8.34 19 8 C19 5.69 19 3.38 19 1 C12.73 1 6.46 1 0 1 C0 0.67 0 0.34 0 0 Z " fill="#5F483D" transform="translate(95,97)"/>
<path d="M0 0 C0.66 0 1.32 0 2 0 C3.16552734 2.2097168 3.16552734 2.2097168 4 5 C3.03369141 7.31176758 3.03369141 7.31176758 1.3515625 9.64453125 C0.75859375 10.48564453 0.165625 11.32675781 -0.4453125 12.19335938 C-1.08210938 13.05767578 -1.71890625 13.92199219 -2.375 14.8125 C-3.0040625 15.69615234 -3.633125 16.57980469 -4.28125 17.49023438 C-5.83824738 19.67238979 -7.41119064 21.84095436 -9 24 C-9.33 22.68 -9.66 21.36 -10 20 C-9.01 19.67 -8.02 19.34 -7 19 C-7 18.34 -7 17.68 -7 17 C-7.66 16.67 -8.32 16.34 -9 16 C-8.34 16 -7.68 16 -7 16 C-7 15.34 -7 14.68 -7 14 C-5.625 12.375 -5.625 12.375 -4 11 C-3.34 11 -2.68 11 -2 11 C-1.24758891 7.34543185 -0.59950296 3.68266103 0 0 Z " fill="#6D4F3F" transform="translate(70,57)"/>
<path d="M0 0 C2.625 0.9375 2.625 0.9375 5 2 C5 2.99 5 3.98 5 5 C4.4225 4.814375 3.845 4.62875 3.25 4.4375 C0.79307475 3.95976454 -0.64397534 4.24270636 -3 5 C-3 5.99 -3 6.98 -3 8 C-4.75 9.9375 -4.75 9.9375 -7 12 C-8.11375 13.11375 -8.11375 13.11375 -9.25 14.25 C-9.8275 14.8275 -10.405 15.405 -11 16 C-9.62152612 12.16784261 -7.84768058 9.07256489 -5.5 5.75 C-4.8915625 4.87859375 -4.283125 4.0071875 -3.65625 3.109375 C-2 1 -2 1 0 0 Z " fill="#5A443B" transform="translate(88,24)"/>
<path d="M0 0 C1 2 1 2 0.5 3.9375 C-0.23602403 6.17665424 -0.23602403 6.17665424 1 9 C0.01 9.66 -0.98 10.32 -2 11 C-2 11.66 -2 12.32 -2 13 C-3.65 12.67 -5.3 12.34 -7 12 C-5.44298069 7.32894208 -2.91552627 3.91294315 0 0 Z " fill="#6A4E41" transform="translate(60,64)"/>
<path d="M0 0 C1.32 0.66 2.64 1.32 4 2 C2.8125 3.5 2.8125 3.5 1 5 C-1.6875 5.1875 -1.6875 5.1875 -4 5 C-4 4.34 -4 3.68 -4 3 C-3.01 2.67 -2.02 2.34 -1 2 C-0.67 1.34 -0.34 0.68 0 0 Z " fill="#5C4841" transform="translate(92,129)"/>
</svg>
