<?xml version="1.0" encoding="UTF-8"?>
<svg version="1.1" xmlns="http://www.w3.org/2000/svg" width="162" height="183">
<path d="M0 0 C6.60769002 5.17621471 10.37476862 11.12430586 13 19 C13.81533135 28.65031538 13.08789519 35.90573366 6.953125 43.55078125 C5.01874176 45.75611533 3.04649655 47.89886398 1 50 C1.58007812 50.76183594 1.58007812 50.76183594 2.171875 51.5390625 C10.05184107 61.95466121 14.08399954 69.62484443 13 83 C11.51650631 91.48288666 6.40755234 98.52975365 -0.25 103.875 C-7.97261998 108.87911923 -17.54357168 110.13575839 -26.46484375 108.56640625 C-35.832151 106.24262125 -42.78355543 100.65237409 -47.77734375 92.4453125 C-51.73896623 84.52206755 -53.03250926 76.66953023 -51 68 C-48.47620568 60.87705983 -44.57432785 55.979909 -39 51 C-37.99427604 50.00575691 -36.99245315 49.00749032 -36 48 C-36.47050781 47.5153125 -36.94101562 47.030625 -37.42578125 46.53125 C-44.59184078 38.81623767 -46.62127066 32.83382178 -46.3515625 22.25390625 C-45.53429691 14.68965918 -42.51441498 8.27465781 -37 3 C-25.7013094 -4.80803822 -12.43466187 -7.56707628 0 0 Z M-28.765625 11.5859375 C-32.24989556 15.45922856 -34.96398443 18.94382124 -35.02734375 24.3203125 C-34.62358992 31.25659617 -32.69148568 35.23161473 -27.8125 40.25 C-23.31780994 43.04669604 -18.9807754 44.34393562 -13.6640625 43.73046875 C-7.34278526 42.05845856 -3.47866141 38.4482697 0 33 C2.19621544 28.55506995 2.29673156 25.05802521 0.9375 20.3125 C-1.33803055 14.48834471 -5.34776738 10.62894541 -11 8 C-17.75966564 6.44860133 -23.41087372 6.77613878 -28.765625 11.5859375 Z M-34.7109375 62.94140625 C-39.32454501 68.82213131 -40.8373874 73.53632972 -40 81 C-38.09668147 87.58281506 -33.6036642 92.22409346 -28 96 C-22.45678773 97.89147085 -16.73407961 97.57802654 -11.25 95.75 C-4.93816757 92.351321 -1.1657325 88.90039237 1 82 C2.04406389 75.35859359 1.46935497 70.22457513 -2.49609375 64.72265625 C-5.97322754 60.73975755 -9.56472024 57.19267453 -15.01171875 56.76171875 C-26.15159253 56.47649217 -26.15159253 56.47649217 -34.7109375 62.94140625 Z " fill="#725448" transform="translate(100,33)"/>
<path d="M0 0 C5.24027559 4.10503391 10.46886935 9.3357263 12 16 C12.01515799 20.39076334 11.60938199 24.65484147 11 29 C10.34 29 9.68 29 9 29 C9 28.34 9 27.68 9 27 C8.34 27 7.68 27 7 27 C6.67 27.99 6.34 28.98 6 30 C6.33 28.02 6.66 26.04 7 24 C5.68 24.33 4.36 24.66 3 25 C2.60888729 23.08655626 2.23768833 21.16903447 1.875 19.25 C1.66617188 18.18265625 1.45734375 17.1153125 1.2421875 16.015625 C0.98248839 12.78195227 1.40480835 11.71773392 3 9 C3 8.01 3 7.02 3 6 C2.01 6.33 1.02 6.66 0 7 C0 7.66 0 8.32 0 9 C-6.535766 9.25137562 -6.535766 9.25137562 -8.7890625 8.03125 C-11.8856277 6.5869157 -14.72731222 6.56651894 -18.125 6.375 C-19.36507812 6.30023438 -20.60515625 6.22546875 -21.8828125 6.1484375 C-26.22759636 5.79316498 -26.22759636 5.79316498 -30 8 C-30 5 -30 5 -28 3 C-29.32 3.33 -30.64 3.66 -32 4 C-32 4.66 -32 5.32 -32 6 C-33.32 6 -34.64 6 -36 6 C-35.62925496 3.40478472 -35.32506306 2.27596886 -33.29296875 0.55078125 C-32.59816406 0.14214844 -31.90335937 -0.26648437 -31.1875 -0.6875 C-30.50042969 -1.10386719 -29.81335938 -1.52023438 -29.10546875 -1.94921875 C-20.22848983 -6.37947354 -8.30255403 -5.05249442 0 0 Z " fill="#75574C" transform="translate(100,33)"/>
<path d="M0 0 C3.87266703 2.46670688 6.88680009 4.90549616 9.41015625 8.78515625 C9.41015625 9.44515625 9.41015625 10.10515625 9.41015625 10.78515625 C8.75015625 10.78515625 8.09015625 10.78515625 7.41015625 10.78515625 C6.82234375 9.67140625 6.82234375 9.67140625 6.22265625 8.53515625 C3.52889631 4.44807221 0.0459212 2.56007114 -4.54296875 1.2109375 C-9.73091295 0.26117606 -14.04842397 1.09142332 -18.58984375 3.78515625 C-21.97319985 6.77450126 -24.58616099 10.36895213 -25.58984375 14.78515625 C-25.67550869 21.15648581 -24.83600328 25.81108366 -20.58984375 30.78515625 C-17.84167135 33.26737648 -15.0605623 34.53184122 -11.58984375 35.78515625 C-11.91984375 36.44515625 -12.24984375 37.10515625 -12.58984375 37.78515625 C-19.01988333 35.68555149 -22.66831046 32.27973397 -26.58984375 26.78515625 C-28.61983735 20.69517544 -28.37412144 13.95207879 -26.21484375 7.91015625 C-23.94041191 3.46503858 -20.91072095 1.51478254 -16.37109375 -0.39453125 C-10.65720255 -2.07980815 -5.5000416 -2.57995918 0 0 Z " fill="#583A2F" transform="translate(91.58984375,40.21484375)"/>
<path d="M0 0 C0 0.66 0 1.32 0 2 C-0.84691406 1.67773438 -1.69382813 1.35546875 -2.56640625 1.0234375 C-9.11594113 -0.92875606 -17.79314494 -1.65503244 -24.0625 1.5625 C-28.68356196 5.39699823 -32.49669306 9.81677676 -33.23828125 15.98046875 C-33.41757406 21.3120706 -32.56539783 24.71116718 -29.77734375 29.2734375 C-29 31 -29 31 -30 34 C-33.97751591 28.22618658 -35.16482282 24.48503363 -35.125 17.5625 C-35.12757812 16.24378906 -35.13015625 14.92507812 -35.1328125 13.56640625 C-34.93958207 8.37760098 -34.93958207 8.37760098 -34 6 C-32.35666496 4.96210419 -30.68756133 3.96432076 -29 3 C-28.525625 2.319375 -28.05125 1.63875 -27.5625 0.9375 C-21.69120752 -6.34290267 -7.20514668 -4.02147722 0 0 Z " fill="#5E4333" transform="translate(94,91)"/>
<path d="M0 0 C0.33 0 0.66 0 1 0 C1.536021 9.63348855 1.29995652 16.86302905 -5.046875 24.4453125 C-6.46501842 26.00929336 -7.91133907 27.5484073 -9.390625 29.0546875 C-11.31872052 30.96445902 -11.31872052 30.96445902 -11 34 C-11.99 33.67 -12.98 33.34 -14 33 C-14 31.68 -14 30.36 -14 29 C-12.5459375 28.1028125 -12.5459375 28.1028125 -11.0625 27.1875 C-7.61467096 25.25013504 -7.61467096 25.25013504 -7.25 21.3125 C-7.1675 20.219375 -7.085 19.12625 -7 18 C-6.34 17.67 -5.68 17.34 -5 17 C-5.2784375 15.6078125 -5.2784375 15.6078125 -5.5625 14.1875 C-6 11 -6 11 -5 8 C-4.34 8 -3.68 8 -3 8 C-3 8.66 -3 9.32 -3 10 C-2.34 10 -1.68 10 -1 10 C-1.01160156 9.36191406 -1.02320312 8.72382812 -1.03515625 8.06640625 C-1.04417969 7.24011719 -1.05320312 6.41382813 -1.0625 5.5625 C-1.07410156 4.73878906 -1.08570312 3.91507813 -1.09765625 3.06640625 C-1 1 -1 1 0 0 Z " fill="#685246" transform="translate(112,52)"/>
<path d="M0 0 C1.875 0.6875 1.875 0.6875 4 2 C4.68132451 3.66072849 5.34742127 5.327767 6 7 C6.721875 7.4125 7.44375 7.825 8.1875 8.25 C8.785625 8.8275 9.38375 9.405 10 10 C10.04943414 13.07040919 9.58037714 15.99087072 9 19 C8.01 19 7.02 19 6 19 C5.67 19.66 5.34 20.32 5 21 C4.34 21 3.68 21 3 21 C3 20.01 3 19.02 3 18 C2.34 18 1.68 18 1 18 C-0.00016187 20.00032373 -0.49396008 21.83125748 -1 24 C-2.65 24 -4.3 24 -6 24 C-3.91093035 20.13961564 -1.64201183 17.53447389 1.6875 14.6875 C2.49574219 13.99011719 3.30398437 13.29273437 4.13671875 12.57421875 C4.75160156 12.05472656 5.36648437 11.53523438 6 11 C5.566875 10.45730469 5.13375 9.91460937 4.6875 9.35546875 C3.8521875 8.28232422 3.8521875 8.28232422 3 7.1875 C2.443125 6.47980469 1.88625 5.77210937 1.3125 5.04296875 C0 3 0 3 0 0 Z " fill="#6A5044" transform="translate(58,71)"/>
<path d="M0 0 C0.99 0.33 1.98 0.66 3 1 C3.625 3.25 3.625 3.25 4 6 C3.48179688 6.90105469 3.48179688 6.90105469 2.953125 7.8203125 C1.64657284 10.80824736 2.34040343 12.49487264 3.125 15.625 C4.62623912 23.38773647 2.27283783 28.59074325 -2 35 C-3.32 34.67 -4.64 34.34 -6 34 C-5.21625 33.175 -4.4325 32.35 -3.625 31.5 C0.41132968 26.60365689 1.28998795 21.55806871 0.875 15.3125 C0.29347943 11.24886227 -1.0595774 8.9404226 -4 6 C-4.66 5.34 -5.32 4.68 -6 4 C-2.25 2.875 -2.25 2.875 0 4 C-0.33 3.01 -0.66 2.02 -1 1 C-0.67 0.67 -0.34 0.34 0 0 Z " fill="#725246" transform="translate(100,38)"/>
<path d="M0 0 C0.66 0 1.32 0 2 0 C1.580437 5.2254665 0.09266989 7.49800927 -3.5625 11.1875 C-7.19725605 14.48242929 -7.19725605 14.48242929 -8 19 C-8.99 18.67 -9.98 18.34 -11 18 C-11 16.68 -11 15.36 -11 14 C-9.5459375 13.1028125 -9.5459375 13.1028125 -8.0625 12.1875 C-4.62028572 10.23781277 -4.62028572 10.23781277 -4.125 6.25 C-4.08375 5.1775 -4.0425 4.105 -4 3 C-2.68 3 -1.36 3 0 3 C0 2.01 0 1.02 0 0 Z " fill="#5B4233" transform="translate(109,67)"/>
<path d="M0 0 C0.99 0.33 1.98 0.66 3 1 C2.814375 1.7425 2.62875 2.485 2.4375 3.25 C1.98743847 6.07895817 2.28468353 7.29769334 3 10 C3.34146341 16.48780488 3.34146341 16.48780488 1 20 C-0.96290189 12.95664616 -0.99939172 7.22533204 0 0 Z " fill="#664E45" transform="translate(49,101)"/>
<path d="M0 0 C3.4009835 1.3789702 4.73029136 2.60258381 6.25 5.9375 C8.47460406 11.2730738 8.38308135 16.30698542 8 22 C7.34 22.33 6.68 22.66 6 23 C5.98582031 22.2265625 5.97164063 21.453125 5.95703125 20.65625 C5.66168095 14.20643795 5.00201373 9.81568381 1.05859375 4.62109375 C0 3 0 3 0 0 Z " fill="#603F37" transform="translate(95,93)"/>
<path d="M0 0 C0.66 0 1.32 0 2 0 C3.56882011 7.05969048 2.2224168 11.5893263 -1 18 C-1.66 18.99 -2.32 19.98 -3 21 C-4.32 20.67 -5.64 20.34 -7 20 C-5.824375 18.7625 -5.824375 18.7625 -4.625 17.5 C-0.35009785 12.36527334 0.32727467 6.54549339 0 0 Z " fill="#644636" transform="translate(101,52)"/>
<path d="M0 0 C6.45892714 -0.40368295 11.06108578 0.4084738 17 3 C16.67 3.66 16.34 4.32 16 5 C10.72 4.34 5.44 3.68 0 3 C0 2.01 0 1.02 0 0 Z " fill="#755C54" transform="translate(81,29)"/>
<path d="M0 0 C1.875 0.6875 1.875 0.6875 4 2 C4.68132451 3.66072849 5.34742127 5.327767 6 7 C7.30518475 8.03647024 8.63461347 9.04422943 10 10 C10 10.66 10 11.32 10 12 C9.01 12.66 8.02 13.32 7 14 C6.01 13.67 5.02 13.34 4 13 C4.66 12.01 5.32 11.02 6 10 C5.566875 9.52949219 5.13375 9.05898437 4.6875 8.57421875 C3.8521875 7.64029297 3.8521875 7.64029297 3 6.6875 C2.1646875 5.76517578 2.1646875 5.76517578 1.3125 4.82421875 C0 3 0 3 0 0 Z " fill="#5D4436" transform="translate(58,71)"/>
<path d="M0 0 C0.33 0.99 0.66 1.98 1 3 C-2.1832675 8.04441111 -6.363442 11.95034254 -12 14 C-12.99 14 -13.98 14 -15 14 C-15 13.34 -15 12.68 -15 12 C-13.948125 11.608125 -12.89625 11.21625 -11.8125 10.8125 C-6.54414662 8.55615472 -3.25212038 4.62143422 0 0 Z " fill="#5D4135" transform="translate(100,117)"/>
<path d="M0 0 C2.31 0 4.62 0 7 0 C6.01 0.495 6.01 0.495 5 1 C4.34444881 3.52733235 4.34444881 3.52733235 4 6 C2.35 6 0.7 6 -1 6 C-1.33 5.34 -1.66 4.68 -2 4 C-1.0625 1.875 -1.0625 1.875 0 0 Z " fill="#75594C" transform="translate(86,135)"/>
<path d="M0 0 C3.8665284 3.222107 4.88059018 6.14922412 6 11 C5.01 10.67 4.02 10.34 3 10 C2.67 10.99 2.34 11.98 2 13 C1.67 11.68 1.34 10.36 1 9 C1.66 9 2.32 9 3 9 C3 8.01 3 7.02 3 6 C2.34 6 1.68 6 1 6 C-0.0625 4.125 -0.0625 4.125 -1 2 C-0.67 1.34 -0.34 0.68 0 0 Z " fill="#685147" transform="translate(106,40)"/>
<path d="M0 0 C1.4540625 0.0309375 1.4540625 0.0309375 2.9375 0.0625 C-0.23570782 3.59836014 -2.22993695 5.64828031 -7.0625 6.0625 C-7.0625 4.7425 -7.0625 3.4225 -7.0625 2.0625 C-6.0725 1.7325 -5.0825 1.4025 -4.0625 1.0625 C-3.0625 0.0625 -3.0625 0.0625 0 0 Z " fill="#634A3F" transform="translate(98.0625,133.9375)"/>
<path d="M0 0 C-0.99 0.66 -1.98 1.32 -3 2 C-3.969375 2.680625 -4.93875 3.36125 -5.9375 4.0625 C-8.47981024 5.67090036 -10.08981165 6.55227872 -13 7 C-11.78081617 3.3424485 -10.15928702 2.57671131 -6.85546875 0.78515625 C-4.48526307 -0.217815 -2.54101354 -0.30800164 0 0 Z " fill="#583F34" transform="translate(80,40)"/>
<path d="M0 0 C2 2 2 2 2.125 4.625 C2.08375 5.40875 2.0425 6.1925 2 7 C2.66 7 3.32 7 4 7 C3.67 9.31 3.34 11.62 3 14 C1.20724134 10.88089144 0.65709282 8.32317572 0.375 4.75 C0.30023438 3.85796875 0.22546875 2.9659375 0.1484375 2.046875 C0.09945312 1.37140625 0.05046875 0.6959375 0 0 Z " fill="#4F3E30" transform="translate(48,107)"/>
<path d="M0 0 C0.66 0 1.32 0 2 0 C1.75 2.875 1.75 2.875 1 6 C-1.0625 7.375 -1.0625 7.375 -3 8 C-3.33 6.35 -3.66 4.7 -4 3 C-2.68 3 -1.36 3 0 3 C0 2.01 0 1.02 0 0 Z " fill="#624B3E" transform="translate(109,67)"/>
<path d="M0 0 C0.66 0.99 1.32 1.98 2 3 C0.71211992 3.53012738 -0.58046678 4.0488329 -1.875 4.5625 C-2.95394531 4.99755859 -2.95394531 4.99755859 -4.0546875 5.44140625 C-6 6 -6 6 -8 5 C-5.47211993 2.20127563 -3.79588866 0.54226981 0 0 Z " fill="#7A645B" transform="translate(77,29)"/>
<path d="M0 0 C1.875 0.5625 1.875 0.5625 4 2 C5.25 5.625 5.25 5.625 6 9 C5.34 9 4.68 9 4 9 C0 3.70588235 0 3.70588235 0 0 Z " fill="#4E372B" transform="translate(95,93)"/>
<path d="M0 0 C0.33 0.66 0.66 1.32 1 2 C1.99 2.33 2.98 2.66 4 3 C3.67 4.98 3.34 6.96 3 9 C2.34 9 1.68 9 1 9 C0.67 6.03 0.34 3.06 0 0 Z " fill="#614B3F" transform="translate(55,62)"/>
<path d="M0 0 C2.5 1.8125 2.5 1.8125 5 4 C5 4.99 5 5.98 5 7 C4.01 7 3.02 7 2 7 C2 6.01 2 5.02 2 4 C1.01 3.67 0.02 3.34 -1 3 C-0.67 2.01 -0.34 1.02 0 0 Z " fill="#7A6257" transform="translate(101,35)"/>
<path d="M0 0 C0.66 0 1.32 0 2 0 C2.66 0.66 3.32 1.32 4 2 C4.99 2.33 5.98 2.66 7 3 C6.67 3.66 6.34 4.32 6 5 C1.25 4.25 1.25 4.25 -1 2 C-0.67 1.34 -0.34 0.68 0 0 Z " fill="#705A53" transform="translate(80,76)"/>
<path d="M0 0 C5.75 0.75 5.75 0.75 8 3 C5.6875 3.625 5.6875 3.625 3 4 C2.01 3.34 1.02 2.68 0 2 C0 1.34 0 0.68 0 0 Z " fill="#7D6A5B" transform="translate(90,30)"/>
<path d="M0 0 C0.33 1.32 0.66 2.64 1 4 C-1.62834278 4 -4.08186701 3.80210238 -6.6875 3.5 C-7.49574219 3.4071875 -8.30398437 3.314375 -9.13671875 3.21875 C-9.75160156 3.1465625 -10.36648437 3.074375 -11 3 C-11 2.67 -11 2.34 -11 2 C-10.06027344 1.90912109 -10.06027344 1.90912109 -9.1015625 1.81640625 C-7.87566406 1.69072266 -7.87566406 1.69072266 -6.625 1.5625 C-5.81289062 1.48128906 -5.00078125 1.40007813 -4.1640625 1.31640625 C-1.95727195 1.10909886 -1.95727195 1.10909886 0 0 Z " fill="#6C4E43" transform="translate(91,36)"/>
</svg>
