<?xml version="1.0" encoding="UTF-8"?>
<svg version="1.1" xmlns="http://www.w3.org/2000/svg" width="148" height="178">
<path d="M0 0 C4.56769076 3.66520347 7.14137081 8.20404865 9.75 13.375 C10.16507812 14.13554688 10.58015625 14.89609375 11.0078125 15.6796875 C15.59622053 25.20945802 15.08471732 36.34890027 11.9375 46.25 C7.03117709 58.39766635 -0.1581304 69.9522106 -9.2890625 79.35546875 C-11.00552555 81.12322053 -12.45206263 82.91692346 -13.9375 84.875 C-21.93382542 94.33132866 -36.07599933 103.51370894 -48.46484375 104.5625 C-50.625 104.625 -50.625 104.625 -54.25 104.375 C-56.25 102.375 -56.25 102.375 -56.5625 98.875 C-56.459375 97.72 -56.35625 96.565 -56.25 95.375 C-53.145219 93.305146 -50.89515015 92.67931773 -47.3125 91.75 C-36.18023952 88.34266723 -28.45287574 81.89522626 -20.3125 73.875 C-19.37204834 72.95013794 -19.37204834 72.95013794 -18.41259766 72.0065918 C-14.31107968 67.82507381 -11.14454577 63.46364991 -8.25 58.375 C-9.13171875 58.60582275 -9.13171875 58.60582275 -10.03125 58.84130859 C-21.1677191 61.67996548 -30.40785882 60.83106986 -40.51171875 55.08984375 C-48.61567314 49.54828256 -52.81451878 41.98609071 -54.84375 32.4921875 C-56.12568343 22.65581368 -54.34783776 14.02111583 -48.5234375 5.99609375 C-35.90298506 -9.26409476 -16.26490918 -10.80235478 0 0 Z M-38.6875 11.5625 C-43.30392126 17.72647157 -45.04682517 24.2506874 -43.953125 31.8828125 C-42.30374605 37.72894454 -38.90756594 42.02822767 -34.25 45.8125 C-28.05835511 49.03731505 -22.76226305 50.52489929 -15.828125 48.7578125 C-9.21556472 46.49351156 -5.12877155 43.17619477 -1.25 37.375 C1.68789498 31.37147547 1.57641302 25.03788639 -0.375 18.75 C-4.31936824 11.65013717 -8.41252141 7.44636337 -16.1875 4.6875 C-24.55415038 3.4198257 -32.75964337 5.22175783 -38.6875 11.5625 Z " fill="#735549" transform="translate(99.25,24.625)"/>
<path d="M0 0 C5.4609548 5.33071056 7.93289748 10.78195847 8.13671875 18.3984375 C7.7092453 26.53264661 4.70364116 32.29635884 -1 38 C-1 38.99 -1 39.98 -1 41 C-1.31088368 42.67099977 -1.64080332 44.33871537 -2 46 C-1.01 46.495 -1.01 46.495 0 47 C0.28571429 55.57142857 0.28571429 55.57142857 -2 59 C-0.68 58.34 0.64 57.68 2 57 C2 58.32 2 59.64 2 61 C1.67 61.33 1.34 61.66 1 62 C1.99 62.495 1.99 62.495 3 63 C2.41992188 63.64066406 1.83984375 64.28132813 1.2421875 64.94140625 C0.46101563 65.80636719 -0.32015625 66.67132813 -1.125 67.5625 C-1.95902344 68.48160156 -2.79304688 69.40070313 -3.65234375 70.34765625 C-5.43020451 72.35625434 -7.06148531 74.37445729 -8.6875 76.5 C-16.68382542 85.95632866 -30.82599933 95.13870894 -43.21484375 96.1875 C-45.375 96.25 -45.375 96.25 -49 96 C-51 94 -51 94 -51.3125 90.5 C-51.209375 89.345 -51.10625 88.19 -51 87 C-47.895219 84.930146 -45.64515015 84.30431773 -42.0625 83.375 C-30.93023952 79.96766723 -23.20287574 73.52022626 -15.0625 65.5 C-14.12204834 64.57513794 -14.12204834 64.57513794 -13.16259766 63.6315918 C-9.06107968 59.45007381 -5.89454577 55.08864991 -3 50 C-3.5878125 50.15388184 -4.175625 50.30776367 -4.78125 50.46630859 C-15.9177191 53.30496548 -25.15785882 52.45606986 -35.26171875 46.71484375 C-43.37333216 41.16804525 -47.51161384 33.62885781 -49.609375 24.15234375 C-50.24545014 19.01921739 -49.75011862 14.09719161 -49 9 C-48.34 9 -47.68 9 -47 9 C-47.01160156 9.86882813 -47.02320313 10.73765625 -47.03515625 11.6328125 C-47.04417969 12.78523438 -47.05320313 13.93765625 -47.0625 15.125 C-47.07410156 16.26195313 -47.08570313 17.39890625 -47.09765625 18.5703125 C-47.00465199 21.83662223 -46.75026984 24.81961087 -46 28 C-45.34 28.33 -44.68 28.66 -44 29 C-44 29.66 -44 30.32 -44 31 C-42.515 30.505 -42.515 30.505 -41 30 C-40.10502975 26.21036037 -39.92205303 22.76260535 -40 18.875 C-40.06745856 15.4936398 -40.0746699 13.2240097 -39 10 C-38.34 10.33 -37.68 10.66 -37 11 C-37.10699219 11.70125 -37.21398438 12.4025 -37.32421875 13.125 C-38.33259734 21.10528649 -37.48565717 25.94929943 -33.3125 32.75 C-28.9290168 37.01501068 -23.0221786 39.69161443 -16.9375 40.3125 C-10.15559306 39.77425342 -4.1549666 37.75798273 0.5 32.625 C4.81102339 26.87696881 5.78790992 21.04194491 5 14 C2.94062533 7.60509969 -0.20959954 2.6514615 -6.0625 -0.8125 C-13.71928187 -3.9077948 -20.00471145 -3.57644264 -27.62109375 -0.35546875 C-31.28385708 1.73152448 -33.62677036 4.56557012 -36 8 C-36.33 7.01 -36.66 6.02 -37 5 C-34.04845077 -0.09813049 -29.2601954 -2.69367487 -24 -5 C-14.59539367 -7.22367951 -7.97507281 -5.40664611 0 0 Z " fill="#735549" transform="translate(94,33)"/>
<path d="M0 0 C2.66666667 1.33333333 5.33333333 2.66666667 8 4 C6.88200014 5.33920838 5.75538103 6.67122556 4.625 8 C3.99851563 8.7425 3.37203125 9.485 2.7265625 10.25 C2.15679687 10.8275 1.58703125 11.405 1 12 C0.34 12 -0.32 12 -1 12 C-1.0721875 12.57878906 -1.144375 13.15757813 -1.21875 13.75390625 C-3.47810984 20.24956578 -12.97502171 24.9698268 -18.84765625 28.03515625 C-24.76687762 30.68860031 -30.5612976 31.44404844 -37 31 C-39 29 -39 29 -39.3125 25.5 C-39.209375 24.345 -39.10625 23.19 -39 22 C-35.86768478 19.91178985 -33.56941553 19.24877798 -29.9375 18.375 C-28.87402344 18.11460938 -27.81054688 17.85421875 -26.71484375 17.5859375 C-24 17 -24 17 -22 17 C-13.25578176 13.06328764 -6.59658736 6.80273071 0 0 Z " fill="#715549" transform="translate(82,98)"/>
<path d="M0 0 C2.66666667 1.33333333 5.33333333 2.66666667 8 4 C6.88200014 5.33920838 5.75538103 6.67122556 4.625 8 C3.68527344 9.11375 3.68527344 9.11375 2.7265625 10.25 C2.15679687 10.8275 1.58703125 11.405 1 12 C0.34 12 -0.32 12 -1 12 C-1.12375 12.61875 -1.2475 13.2375 -1.375 13.875 C-2 16 -2 16 -4 18 C-6.12890625 18.4140625 -6.12890625 18.4140625 -8.5625 18.625 C-9.36816406 18.69976562 -10.17382812 18.77453125 -11.00390625 18.8515625 C-12.00107573 18.925716 -13.00007714 19 -14 19 C-15.66821323 19.32550502 -17.33499557 19.65846063 -19 20 C-19.33 19.34 -19.66 18.68 -20 18 C-16.22817041 14.07101084 -12.11098191 10.56383683 -8 7 C-6.4993678 5.68822287 -4.99934109 4.37575266 -3.5 3.0625 C-2.33333333 2.04166667 -1.16666667 1.02083333 0 0 Z " fill="#73554A" transform="translate(82,98)"/>
<path d="M0 0 C5.4609548 5.33071056 7.93289748 10.78195847 8.13671875 18.3984375 C7.76493505 25.47295023 5.58515343 30.62571037 1 36 C0.55914062 36.5259375 0.11828125 37.051875 -0.3359375 37.59375 C-2.49179356 39.41560019 -4.47530297 39.9478099 -7.1875 40.6875 C-8.08855469 40.93886719 -8.98960938 41.19023438 -9.91796875 41.44921875 C-10.60503906 41.63097656 -11.29210937 41.81273437 -12 42 C-12 41.34 -12 40.68 -12 40 C-11.34773438 39.731875 -10.69546875 39.46375 -10.0234375 39.1875 C-3.61102726 36.31231901 0.62479929 33.26467144 4 27 C5.79793305 21.41868636 5.59469678 15.84669 3.8125 10.3125 C0.10552458 3.53768285 -3.66443836 -0.10673619 -10.9375 -2.6875 C-18.05021449 -3.76518401 -23.78223609 -2.54279815 -30 1 C-32.31438377 3.14023212 -34.21003655 5.40964638 -36 8 C-36.33 7.01 -36.66 6.02 -37 5 C-34.04845077 -0.09813049 -29.2601954 -2.69367487 -24 -5 C-14.59539367 -7.22367951 -7.97507281 -5.40664611 0 0 Z " fill="#54372D" transform="translate(94,33)"/>
<path d="M0 0 C-0.34249239 5.47987829 -3.65450222 8.93336159 -7 13 C-7.62132813 13.75667969 -8.24265625 14.51335937 -8.8828125 15.29296875 C-12.39610554 19.44571052 -12.39610554 19.44571052 -14 21 C-14.66 21 -15.32 21 -16 21 C-16.33 21.99 -16.66 22.98 -17 24 C-22.31357948 29.86766932 -29.00542165 33.48985314 -36 37 C-34.70964938 33.12894814 -33.34529386 32.80441397 -29.875 30.75 C-24.34650393 27.17468518 -19.7213726 23.14620323 -15.0625 18.5 C-14.43649902 17.88350586 -13.81049805 17.26701172 -13.16552734 16.63183594 C-9.06024319 12.45267211 -5.89486209 8.08920601 -3 3 C-3.58837646 3.1537207 -4.17675293 3.30744141 -4.78295898 3.46582031 C-11.80138952 5.25789944 -19.45932348 6.77174024 -26 3 C-25.07058594 2.95101562 -24.14117187 2.90203125 -23.18359375 2.8515625 C-15.55557937 2.39022274 -7.46257387 -0.4522772 0 0 Z " fill="#5E4132" transform="translate(94,80)"/>
<path d="M0 0 C0.66 0 1.32 0 2 0 C1.97679687 0.845625 1.95359375 1.69125 1.9296875 2.5625 C1.76897686 12.6643117 2.36068482 23.0645564 9.7109375 30.80078125 C12.46052188 33.23132103 14.48446356 34.82815452 18 36 C18.33 36.66 18.66 37.32 19 38 C21.02463255 38.65213292 21.02463255 38.65213292 23 39 C23 39.66 23 40.32 23 41 C15.76766881 39.89417783 10.1271335 35.81722365 5.625 30.125 C0.053035 21.95998758 -1.93619711 12.64737499 -0.5625 2.8125 C-0.376875 1.884375 -0.19125 0.95625 0 0 Z " fill="#5D4137" transform="translate(45,42)"/>
<path d="M0 0 C-0.33 2.64 -0.66 5.28 -1 8 C-3.9154476 8 -6.34154481 7.59136731 -9.1875 7 C-10.08855469 6.814375 -10.98960938 6.62875 -11.91796875 6.4375 C-12.60503906 6.293125 -13.29210938 6.14875 -14 6 C-13.6640625 4.11328125 -13.6640625 4.11328125 -13 2 C-8.4035393 -1.17374667 -5.36874801 -1.18112456 0 0 Z " fill="#74554A" transform="translate(59,119)"/>
<path d="M0 0 C0.66 0.33 1.32 0.66 2 1 C1.89300781 1.70125 1.78601562 2.4025 1.67578125 3.125 C0.66740266 11.10528649 1.51434283 15.94929943 5.6875 22.75 C11.39656478 28.30476573 18.32056195 29.80402194 26 31 C26 31.33 26 31.66 26 32 C18.24102102 32.74288097 12.42462879 31.5531561 6 27 C0.96937448 21.82799859 -1.28675458 16.07546871 -1.1875 8.875 C-1.18105469 7.84117188 -1.17460938 6.80734375 -1.16796875 5.7421875 C-1 3 -1 3 0 0 Z " fill="#593D2E" transform="translate(55,43)"/>
<path d="M0 0 C-2.33214148 1.20628008 -4.49642139 2.1654738 -7 3 C-9.16343011 5.03268602 -9.16343011 5.03268602 -11 8 C-10.28972656 8.04898438 -9.57945313 8.09796875 -8.84765625 8.1484375 C-7.46900391 8.26058594 -7.46900391 8.26058594 -6.0625 8.375 C-5.14597656 8.44460937 -4.22945312 8.51421875 -3.28515625 8.5859375 C-2.15400391 8.79089844 -2.15400391 8.79089844 -1 9 C-0.67 9.66 -0.34 10.32 0 11 C-3.92296433 12.30765478 -6.86002433 12.1971417 -11 12 C-13 10 -13 10 -13.3125 6.5 C-13.209375 5.345 -13.10625 4.19 -13 3 C-8.72352613 0.14901742 -5.0682068 -0.14480591 0 0 Z " fill="#5E493A" transform="translate(56,117)"/>
<path d="M0 0 C0.33 1.32 0.66 2.64 1 4 C0.01 4.495 0.01 4.495 -1 5 C-1.66 4.67 -2.32 4.34 -3 4 C-3.28875 4.928125 -3.5775 5.85625 -3.875 6.8125 C-5 10 -5 10 -7 13 C-7.99 13.33 -8.98 13.66 -10 14 C-11.21869929 16.50447516 -11.21869929 16.50447516 -12 19 C-12.33 19 -12.66 19 -13 19 C-13.48256228 13.51809244 -11.30647523 11.24634147 -7.95703125 7.16015625 C-5.48902814 4.43599314 -2.92930421 2.21483977 0 0 Z " fill="#654A43" transform="translate(60,22)"/>
<path d="M0 0 C0.99 0 1.98 0 3 0 C4.4296875 1.4609375 4.4296875 1.4609375 5.875 3.375 C8.34949606 6.44189412 10.18099448 7.79974112 14 9 C14.33 9.66 14.66 10.32 15 11 C17.02463255 11.65213292 17.02463255 11.65213292 19 12 C19 12.66 19 13.32 19 14 C12.7005527 13.04621044 7.48522524 9.8697751 3.30859375 5.046875 C2.14033693 3.40931843 1.05997625 1.70963911 0 0 Z " fill="#5C3C31" transform="translate(49,69)"/>
<path d="M0 0 C0.33 0 0.66 0 1 0 C1 3.96 1 7.92 1 12 C0.34 12 -0.32 12 -1 12 C-2.62514468 13.45833358 -2.62514468 13.45833358 -4 15 C-5.10102197 11.69693408 -4.95067299 10.28414305 -4 7 C-3.34 6.67 -2.68 6.34 -2 6 C-1.27306096 4.02111039 -0.60183749 2.02045442 0 0 Z " fill="#684F45" transform="translate(112,48)"/>
<path d="M0 0 C1.98 0 3.96 0 6 0 C2.96453199 3.3061001 -0.18625465 5.50206589 -4.0625 7.75 C-5.62677734 8.67039062 -5.62677734 8.67039062 -7.22265625 9.609375 C-10 11 -10 11 -13 11 C-13 10.34 -13 9.68 -13 9 C-12.14535156 8.60167969 -11.29070313 8.20335938 -10.41015625 7.79296875 C-9.30542969 7.26316406 -8.20070313 6.73335938 -7.0625 6.1875 C-5.96035156 5.66542969 -4.85820313 5.14335938 -3.72265625 4.60546875 C-0.71259223 3.23205279 -0.71259223 3.23205279 0 0 Z " fill="#62493A" transform="translate(71,116)"/>
<path d="M0 0 C0.66 0.33 1.32 0.66 2 1 C1.41992188 1.64066406 0.83984375 2.28132813 0.2421875 2.94140625 C-4.24094975 7.90540806 -8.67445028 12.89806956 -13 18 C-13.33 17.01 -13.66 16.02 -14 15 C-13.34 15 -12.68 15 -12 15 C-11.79375 14.46375 -11.5875 13.9275 -11.375 13.375 C-9.74129455 10.55314513 -7.72413902 8.66259269 -5.33984375 6.46484375 C-3.74891301 4.92498332 -3.74891301 4.92498332 -3 2 C-2.01 1.34 -1.02 0.68 0 0 Z " fill="#5B4337" transform="translate(95,95)"/>
<path d="M0 0 C-2.33214148 1.20628008 -4.49642139 2.1654738 -7 3 C-9.16343011 5.03268602 -9.16343011 5.03268602 -11 8 C-11.66 8.66 -12.32 9.32 -13 10 C-13.1875 6.625 -13.1875 6.625 -13 3 C-8.72352613 0.14901742 -5.0682068 -0.14480591 0 0 Z " fill="#553B30" transform="translate(56,117)"/>
<path d="M0 0 C0.66 0.33 1.32 0.66 2 1 C1.55090939 2.48199902 1.09043436 3.96055236 0.625 5.4375 C0.36976562 6.26121094 0.11453125 7.08492188 -0.1484375 7.93359375 C-1 10 -1 10 -3 11 C-3 10.01 -3 9.02 -3 8 C-3.66 8 -4.32 8 -5 8 C-4.67 7.01 -4.34 6.02 -4 5 C-3.01 5 -2.02 5 -1 5 C-0.67 3.35 -0.34 1.7 0 0 Z " fill="#604840" transform="translate(111,63)"/>
<path d="M0 0 C0.33 1.32 0.66 2.64 1 4 C1.66 4 2.32 4 3 4 C3 4.99 3 5.98 3 7 C2.01 7.495 2.01 7.495 1 8 C0.34786708 10.02463255 0.34786708 10.02463255 0 12 C-0.99 12 -1.98 12 -3 12 C-2.01 8.04 -1.02 4.08 0 0 Z " fill="#705A53" transform="translate(110,56)"/>
<path d="M0 0 C0 0.99 0 1.98 0 3 C-4.455 3.495 -4.455 3.495 -9 4 C-9 3.01 -9 2.02 -9 1 C-5.8035914 -0.06546953 -3.34252724 -0.07427838 0 0 Z " fill="#7B5E54" transform="translate(77,18)"/>
<path d="M0 0 C0.99 0 1.98 0 3 0 C4.60546875 1.75 4.60546875 1.75 6.1875 4 C6.71730469 4.7425 7.24710938 5.485 7.79296875 6.25 C8.19128906 6.8275 8.58960938 7.405 9 8 C8.01 8 7.02 8 6 8 C4.39453125 6.25 4.39453125 6.25 2.8125 4 C2.28269531 3.2575 1.75289062 2.515 1.20703125 1.75 C0.80871094 1.1725 0.41039062 0.595 0 0 Z " fill="#573326" transform="translate(49,69)"/>
<path d="M0 0 C1.65 0.33 3.3 0.66 5 1 C5.33 1.99 5.66 2.98 6 4 C5.01 4.33 4.02 4.66 3 5 C3 4.34 3 3.68 3 3 C1.35 3.66 -0.3 4.32 -2 5 C-1.34 3.35 -0.68 1.7 0 0 Z " fill="#795D55" transform="translate(90,21)"/>
<path d="M0 0 C0.66 0.33 1.32 0.66 2 1 C-0.97 4.96 -0.97 4.96 -4 9 C-4.66 8.67 -5.32 8.34 -6 8 C-4.02 5.36 -2.04 2.72 0 0 Z " fill="#573F34" transform="translate(91,84)"/>
<path d="M0 0 C-1.22934015 3.68802044 -2.93859378 4.72356973 -6 7 C-5.6875 4.625 -5.6875 4.625 -5 2 C-2 0 -2 0 0 0 Z " fill="#6F5750" transform="translate(107,78)"/>
</svg>
