<?xml version="1.0" encoding="UTF-8"?>
<svg version="1.1" xmlns="http://www.w3.org/2000/svg" width="234" height="255">
<path d="M0 0 C2.97672584 1.77280561 5.42804007 3.85608015 7 7 C7.26919004 10.51456146 7.23168315 14.03879565 7.25 17.5625 C7.270625 18.52736328 7.29125 19.49222656 7.3125 20.48632812 C7.34718103 26.9066529 6.42645428 32.06450777 4 38 C3.67257813 38.86109375 3.34515625 39.7221875 3.0078125 40.609375 C2.71648437 41.31578125 2.42515625 42.0221875 2.125 42.75 C0.94336451 45.62290767 -0.17701708 48.49328008 -1.2265625 51.41796875 C-1.64679688 52.57941406 -2.06703125 53.74085937 -2.5 54.9375 C-2.8815625 56.01902344 -3.263125 57.10054687 -3.65625 58.21484375 C-5.09490292 61.19670285 -6.14167848 62.38944576 -9 64 C-12.32985822 64.41623228 -14.22664896 64.44994969 -17.1484375 62.75 C-19 61 -19 61 -19.6015625 58.9765625 C-19.67000198 52.10980145 -17.5590102 47.20645912 -14.53515625 41.1015625 C-11.01839367 33.9964493 -8.65663434 27.01777187 -10 19 C-11.93897879 16.32601524 -11.93897879 16.32601524 -14 14 C-14.55747889 10.59318457 -14.77411846 8.27686698 -12.94140625 5.25390625 C-8.91675162 0.27384399 -6.34480965 -0.63448097 0 0 Z " fill="#775447" transform="translate(121,38)"/>
<path d="M0 0 C0.66 0.33 1.32 0.66 2 1 C2 1.66 2 2.32 2 3 C1.38511719 2.96519531 0.77023438 2.93039063 0.13671875 2.89453125 C-1.07564453 2.85392578 -1.07564453 2.85392578 -2.3125 2.8125 C-3.11300781 2.77769531 -3.91351563 2.74289063 -4.73828125 2.70703125 C-7.51627459 3.06687495 -8.29427215 3.83241353 -10 6 C-11.42041821 8.84083641 -11.31452272 10.85477278 -11 14 C-10.33226563 14.58394531 -9.66453125 15.16789062 -8.9765625 15.76953125 C-7 18 -7 18 -6.72265625 21.20703125 C-7.85917496 33.26458037 -7.85917496 33.26458037 -11 39 C-11.66 38.67 -12.32 38.34 -13 38 C-12.7834375 37.46632812 -12.566875 36.93265625 -12.34375 36.3828125 C-10.18725088 30.6121806 -8.96780115 25.16059732 -10 19 C-11.93897879 16.32601524 -11.93897879 16.32601524 -14 14 C-14.55747889 10.59318457 -14.77411846 8.27686698 -12.94140625 5.25390625 C-8.80614173 0.13697656 -6.42048257 -0.22930295 0 0 Z " fill="#684B3E" transform="translate(121,38)"/>
<path d="M0 0 C0.33 0 0.66 0 1 0 C1.66 2.97 2.32 5.94 3 9 C7.48133574 9.72256829 7.48133574 9.72256829 12 10 C12.33 9.34 12.66 8.68 13 8 C13 8.99 13 9.98 13 11 C9.51131349 13.32579101 8.10281481 13.41865457 4 13 C1.82421875 11.8046875 1.82421875 11.8046875 0 10 C-0.390625 7.51953125 -0.390625 7.51953125 -0.25 4.8125 C-0.21390625 3.91144531 -0.1778125 3.01039062 -0.140625 2.08203125 C-0.07101563 1.05142578 -0.07101563 1.05142578 0 0 Z " fill="#5D3E33" transform="translate(102,89)"/>
<path d="M0 0 C0.99 0.33 1.98 0.66 3 1 C2.01 4.3 1.02 7.6 0 11 C-0.33 11 -0.66 11 -1 11 C-1.14285714 3.57142857 -1.14285714 3.57142857 0 0 Z " fill="#5B3E33" transform="translate(118,84)"/>
<path d="M0 0 C0.66 0.99 1.32 1.98 2 3 C0.625 6.6875 0.625 6.6875 -1 10 C-1.66 9.67 -2.32 9.34 -3 9 C-2.01 6.03 -1.02 3.06 0 0 Z " fill="#684C2E" transform="translate(111,67)"/>
</svg>
