<?xml version="1.0" encoding="UTF-8"?>
<svg version="1.1" xmlns="http://www.w3.org/2000/svg" width="210" height="241">
<path d="M0 0 C2.5 1.1875 2.5 1.1875 4.5 3.1875 C4.77576987 5.5329654 4.94971306 7.89107311 5.0625 10.25 C4.88816898 14.53976365 4.88816898 14.53976365 6.5 18.1875 C6.5825 19.425 6.665 20.6625 6.75 21.9375 C7.25118803 26.49669437 9.1905063 28.03560124 12.5 31.1875 C13.78012617 33.77377117 14.68635694 36.42221311 15.5 39.1875 C15.67273438 39.74969238 15.84546875 40.31188477 16.0234375 40.89111328 C17.04300239 45.80403712 16.72602026 50.92289728 16.74023438 55.92211914 C16.7499201 57.98299842 16.78096078 60.04287087 16.8125 62.10351562 C16.82023437 64.07288086 16.82023437 64.07288086 16.828125 66.08203125 C16.8374707 67.27675049 16.84681641 68.47146973 16.85644531 69.70239258 C16.5 73.1875 16.5 73.1875 15.01416016 76.640625 C13.34865785 80.54201447 13.02019273 83.87618122 12.9453125 88.04296875 C12.89103623 89.55846051 12.83591036 91.07392203 12.7800293 92.58935547 C12.75548676 93.37163513 12.73094421 94.15391479 12.70565796 94.9598999 C12.22929534 109.22338262 11.10577156 122.5825552 6.5 136.1875 C6.17612305 137.1784668 6.17612305 137.1784668 5.84570312 138.18945312 C4.51287136 142.23656234 3.04311872 146.21654116 1.5 150.1875 C1.19578125 151.01765625 0.8915625 151.8478125 0.578125 152.703125 C-6.44693341 171.31336745 -16.04314278 190.32806435 -34.17578125 199.90234375 C-36.57519669 201.22907934 -38.80297731 202.6982796 -41.0625 204.25 C-58.10110851 215.77698906 -82.02503738 217.8553098 -102.13867188 214.78466797 C-112.44671825 212.74543336 -125.79610073 209.92169678 -132.67578125 201.53515625 C-134.4428836 198.80950149 -135.99635188 196.06495476 -137.5 193.1875 C-138.17869141 192.06021484 -138.17869141 192.06021484 -138.87109375 190.91015625 C-139.40863281 190.01167969 -139.94617188 189.11320313 -140.5 188.1875 C-141.12986816 187.24293945 -141.12986816 187.24293945 -141.77246094 186.27929688 C-145.64796711 180.08181599 -146.39484772 174.86696007 -146.3125 167.625 C-146.30621582 166.57376953 -146.29993164 165.52253906 -146.29345703 164.43945312 C-145.94995349 154.45495026 -142.95251468 147.40116013 -137.5 139.1875 C-137.01144531 138.3728125 -136.52289063 137.558125 -136.01953125 136.71875 C-131.2208939 129.40117984 -123.0693966 124.32204436 -115.5 120.1875 C-113.83333333 120.1875 -112.16666667 120.1875 -110.5 120.1875 C-108.87485532 118.72916642 -108.87485532 118.72916642 -107.5 117.1875 C-106.51 117.1875 -105.52 117.1875 -104.5 117.1875 C-104.09136719 116.58292969 -103.68273437 115.97835937 -103.26171875 115.35546875 C-100.82066088 112.35150619 -97.87522957 111.64818429 -94.3125 110.5 C-85.41327955 107.41552384 -77.55861555 103.01164272 -69.5 98.1875 C-68.62601562 97.66542969 -67.75203125 97.14335938 -66.8515625 96.60546875 C-66.07554688 96.13753906 -65.29953125 95.66960937 -64.5 95.1875 C-63.68660156 94.713125 -62.87320313 94.23875 -62.03515625 93.75 C-55.00695547 89.30879887 -52.03391447 84.57760415 -48.5 77.1875 C-45.16298343 71.51899171 -45.16298343 71.51899171 -42.5 70.1875 C-41.73843793 68.37363251 -41.73843793 68.37363251 -41.25 66.25 C-41.05921875 65.53972656 -40.8684375 64.82945313 -40.671875 64.09765625 C-40.61515625 63.46730469 -40.5584375 62.83695313 -40.5 62.1875 C-41.16 61.5275 -41.82 60.8675 -42.5 60.1875 C-42.5625 57.875 -42.5625 57.875 -41.5 55.1875 C-40.41589844 54.46304688 -39.33179687 53.73859375 -38.21484375 52.9921875 C-34.11892587 50.17215876 -32.22720851 46.99220862 -30 42.625 C-29.619646 41.92479736 -29.23929199 41.22459473 -28.84741211 40.50317383 C-27.06909836 37.22745051 -25.36466747 33.92396875 -23.72265625 30.578125 C-19.70304302 22.82263595 -19.70304302 22.82263595 -15.84375 20.78515625 C-13.37933616 20.03406383 -11.05459328 19.4959016 -8.5 19.1875 C-8.58378906 18.35605469 -8.66757813 17.52460937 -8.75390625 16.66796875 C-8.90666016 15.03794922 -8.90666016 15.03794922 -9.0625 13.375 C-9.16691406 12.29605469 -9.27132812 11.21710937 -9.37890625 10.10546875 C-9.5 7.1875 -9.5 7.1875 -8.5 4.1875 C-7.84 4.1875 -7.18 4.1875 -6.5 4.1875 C-6.21125 3.548125 -5.9225 2.90875 -5.625 2.25 C-3.99170407 -0.74437587 -3.26278387 -1.06040476 0 0 Z " fill="#5200A2" transform="translate(163.5,14.8125)"/>
<path d="M0 0 C2.5 1.1875 2.5 1.1875 4.5 3.1875 C4.77576987 5.5329654 4.94971306 7.89107311 5.0625 10.25 C4.88816898 14.53976365 4.88816898 14.53976365 6.5 18.1875 C6.73788858 21.4952841 6.89540297 24.79574645 7.01757812 28.109375 C7.26662266 34.67900012 7.26662266 34.67900012 10.5 40.1875 C10.58851529 42.78109322 10.61525945 45.34789691 10.59765625 47.94140625 C10.5962413 48.71685287 10.59482635 49.4922995 10.59336853 50.29124451 C10.58775345 52.77753494 10.57519846 55.2637366 10.5625 57.75 C10.55748694 59.43163933 10.5529237 61.11328006 10.54882812 62.79492188 C10.53777913 66.92581566 10.52050445 71.05664276 10.5 75.1875 C9.51 75.1875 8.52 75.1875 7.5 75.1875 C7.231875 74.48625 6.96375 73.785 6.6875 73.0625 C5.54706129 70.14507369 5.54706129 70.14507369 3.9375 67.375 C2.19733685 63.51637736 1.86221498 60.38919375 1.5 56.1875 C-0.81 56.8475 -3.12 57.5075 -5.5 58.1875 C-5.83 60.8275 -6.16 63.4675 -6.5 66.1875 C-7.49 66.1875 -8.48 66.1875 -9.5 66.1875 C-9.4175 67.095 -9.335 68.0025 -9.25 68.9375 C-9.5 72.1875 -9.5 72.1875 -11.375 74.5625 C-13.5 76.1875 -13.5 76.1875 -15.5 76.1875 C-15.5 70.5775 -15.5 64.9675 -15.5 59.1875 C-16.49 59.1875 -17.48 59.1875 -18.5 59.1875 C-18.83 57.8675 -19.16 56.5475 -19.5 55.1875 C-20.82 54.8575 -22.14 54.5275 -23.5 54.1875 C-23.809375 54.80625 -24.11875 55.425 -24.4375 56.0625 C-25.125 57.4375 -25.8125 58.8125 -26.5 60.1875 C-27.16 60.1875 -27.82 60.1875 -28.5 60.1875 C-28.83 61.5075 -29.16 62.8275 -29.5 64.1875 C-34.945 64.6825 -34.945 64.6825 -40.5 65.1875 C-41.24955438 62.1892825 -41.91070989 59.21813487 -42.5 56.1875 C-41.365625 55.5275 -40.23125 54.8675 -39.0625 54.1875 C-31.54505976 48.58262406 -27.76986585 38.81847529 -23.7265625 30.58203125 C-19.69936425 22.82069377 -19.69936425 22.82069377 -15.84375 20.78515625 C-13.37933616 20.03406383 -11.05459328 19.4959016 -8.5 19.1875 C-8.58378906 18.35605469 -8.66757813 17.52460937 -8.75390625 16.66796875 C-8.90666016 15.03794922 -8.90666016 15.03794922 -9.0625 13.375 C-9.21912109 11.75658203 -9.21912109 11.75658203 -9.37890625 10.10546875 C-9.5 7.1875 -9.5 7.1875 -8.5 4.1875 C-7.84 4.1875 -7.18 4.1875 -6.5 4.1875 C-6.21125 3.548125 -5.9225 2.90875 -5.625 2.25 C-3.99170407 -0.74437587 -3.26278387 -1.06040476 0 0 Z " fill="#CBDA39" transform="translate(163.5,14.8125)"/>
<path d="M0 0 C1.75 0.0625 1.75 0.0625 4 1 C10.08140837 9.76438266 10.34981561 18.62060319 10.31567383 29.03637695 C10.31250094 31.0619023 10.33608176 33.0859811 10.36132812 35.11132812 C10.36197266 36.40619141 10.36261719 37.70105469 10.36328125 39.03515625 C10.36626221 40.2044165 10.36924316 41.37367676 10.37231445 42.57836914 C10 46 10 46 8.51196289 49.44433594 C6.85148352 53.34926433 6.52022305 56.68699434 6.4453125 60.85546875 C6.39103623 62.37096051 6.33591036 63.88642203 6.2800293 65.40185547 C6.25548676 66.18413513 6.23094421 66.96641479 6.20565796 67.7723999 C5.72929534 82.03588262 4.60577156 95.3950552 0 109 C-0.21591797 109.66064453 -0.43183594 110.32128906 -0.65429688 111.00195312 C-1.98712864 115.04906234 -3.45688128 119.02904116 -5 123 C-5.30421875 123.83015625 -5.6084375 124.6603125 -5.921875 125.515625 C-11.77383367 141.01818217 -20.06789754 159.24752828 -34 169 C-36.1953125 169.63671875 -36.1953125 169.63671875 -38 170 C-38.3125 166.6875 -38.3125 166.6875 -38 163 C-35.6875 161.375 -35.6875 161.375 -33 160 C-31.96642853 158.35394174 -30.95939668 156.69036558 -30 155 C-29.34 155 -28.68 155 -28 155 C-27.731875 154.030625 -27.46375 153.06125 -27.1875 152.0625 C-26.5996875 150.5465625 -26.5996875 150.5465625 -26 149 C-25.01 148.67 -24.02 148.34 -23 148 C-23 147.01 -23 146.02 -23 145 C-22.34 145 -21.68 145 -21 145 C-21 143.02 -21 141.04 -21 139 C-20.34 138.67 -19.68 138.34 -19 138 C-15.15411575 132.52470684 -13.3625596 127.64692597 -13 121 C-12.34 121 -11.68 121 -11 121 C-11 119.68 -11 118.36 -11 117 C-10.01 116.505 -10.01 116.505 -9 116 C-6.16979643 110.29896793 -5.61285904 104.36559335 -5.40625 98.08984375 C-5 95 -5 95 -3.51171875 91.53515625 C-1.09087064 85.45264877 -1.42734073 78.9573302 -1.3125 72.5 C-1.27833984 71.200625 -1.24417969 69.90125 -1.20898438 68.5625 C-1.12695535 65.37508629 -1.05765545 62.18793217 -1 59 C-0.360625 58.71125 0.27875 58.4225 0.9375 58.125 C3.15206079 57.17176549 3.15206079 57.17176549 4 55 C1.69 55 -0.62 55 -3 55 C-3 54.34 -3 53.68 -3 53 C-3.99 52.67 -4.98 52.34 -6 52 C-6.94921875 49.27734375 -6.94921875 49.27734375 -7.6875 45.9375 C-7.93886719 44.83277344 -8.19023437 43.72804687 -8.44921875 42.58984375 C-8.63097656 41.73519531 -8.81273437 40.88054687 -9 40 C-9.33 41.65 -9.66 43.3 -10 45 C-11.65 45 -13.3 45 -15 45 C-15.103125 45.86625 -15.20625 46.7325 -15.3125 47.625 C-16.34629429 52.69999017 -17.63413991 56.08942661 -22 59 C-24.33199388 59.07905064 -26.66832622 59.08798769 -29 59 C-29.97955604 54.68995342 -30.0306307 52.83563577 -28 49 C-26.96175148 42.97815856 -26.88750439 37.09976187 -27 31 C-28.98 31.33 -30.96 31.66 -33 32 C-32.01 30.35 -31.02 28.7 -30 27 C-28.35 27.33 -26.7 27.66 -25 28 C-25 29.32 -25 30.64 -25 32 C-24.01 32 -23.02 32 -22 32 C-22 37.61 -22 43.22 -22 49 C-21.34 49 -20.68 49 -20 49 C-19.67 48.01 -19.34 47.02 -19 46 C-18.01 45.505 -18.01 45.505 -17 45 C-16.34227572 41.97065509 -16.34227572 41.97065509 -16 39 C-15.01 39 -14.02 39 -13 39 C-13.04125 37.72125 -13.0825 36.4425 -13.125 35.125 C-13.1953125 32.9453125 -13.1953125 32.9453125 -13 31 C-11 29 -11 29 -7.875 28.875 C-6.451875 28.936875 -6.451875 28.936875 -5 29 C-4.60167969 30.37285156 -4.60167969 30.37285156 -4.1953125 31.7734375 C-3.84210938 32.96195313 -3.48890625 34.15046875 -3.125 35.375 C-2.60292969 37.15003906 -2.60292969 37.15003906 -2.0703125 38.9609375 C-1.22312581 42.06491558 -1.22312581 42.06491558 1 44 C1 45.32 1 46.64 1 48 C1.99 48 2.98 48 4 48 C3.90657935 43.05174384 3.8005124 38.10398366 3.68261719 33.15625 C3.64428896 31.47240671 3.60944288 29.78848045 3.578125 28.10449219 C3.53255713 25.68654694 3.47455077 23.26917472 3.4140625 20.8515625 C3.40251129 20.0963028 3.39096008 19.34104309 3.37905884 18.56289673 C3.39669934 14.32174802 3.39669934 14.32174802 1 11 C-0.33034463 7.4080695 -0.07279423 3.78529987 0 0 Z " fill="#6E405C" transform="translate(170,42)"/>
<path d="M0 0 C0.99 0 1.98 0 3 0 C2.34826117 8.25535853 -1.81375166 15.62773171 -8 21 C-8.556875 21.598125 -9.11375 22.19625 -9.6875 22.8125 C-11 24 -11 24 -13 24 C-13 24.66 -13 25.32 -13 26 C-20.79115719 31.45381004 -29.58819858 35.56142924 -38.2421875 39.4609375 C-41.07023156 40.7717787 -41.07023156 40.7717787 -42.43359375 43.0859375 C-44.82431909 46.00727271 -47.42088369 45.99986214 -51.0625 46.625 C-56.05905088 47.2694571 -56.05905088 47.2694571 -60 50 C-61.32 50 -62.64 50 -64 50 C-64.22816406 50.61488281 -64.45632812 51.22976562 -64.69140625 51.86328125 C-66.39985974 54.6529053 -67.89213368 55.09188363 -70.9375 56.1875 C-71.81277344 56.51105469 -72.68804687 56.83460938 -73.58984375 57.16796875 C-75.38959433 57.78927649 -77.19372956 58.39790985 -79 59 C-79.33 59.66 -79.66 60.32 -80 61 C-80.99 61 -81.98 61 -83 61 C-83.2475 61.886875 -83.495 62.77375 -83.75 63.6875 C-85 67 -85 67 -86.875 69.3125 C-93.77747372 78.04209911 -94.16280729 87.7200515 -94.0625 98.4375 C-94.05798828 99.35982422 -94.05347656 100.28214844 -94.04882812 101.23242188 C-94.03713938 103.48835048 -94.02075455 105.74413967 -94 108 C-93.34 108 -92.68 108 -92 108 C-90.64560332 110.70879335 -90.93498549 113.00933268 -91 116 C-90.01 116.33 -89.02 116.66 -88 117 C-88.33 118.98 -88.66 120.96 -89 123 C-92.33555652 120.77629565 -93.08268798 119.4659102 -95 116 C-95.40387939 115.38979004 -95.80775879 114.77958008 -96.22387695 114.15087891 C-100.13309315 107.92921928 -100.89521072 102.71138403 -100.8125 95.4375 C-100.80621582 94.38626953 -100.79993164 93.33503906 -100.79345703 92.25195312 C-100.44995349 82.26745026 -97.45251468 75.21366013 -92 67 C-91.51144531 66.1853125 -91.02289063 65.370625 -90.51953125 64.53125 C-85.7208939 57.21367984 -77.5693966 52.13454436 -70 48 C-68.33333333 48 -66.66666667 48 -65 48 C-63.37485532 46.54166642 -63.37485532 46.54166642 -62 45 C-61.01 45 -60.02 45 -59 45 C-58.59136719 44.39542969 -58.18273438 43.79085937 -57.76171875 43.16796875 C-55.32066088 40.16400619 -52.37522957 39.46068429 -48.8125 38.3125 C-39.91327955 35.22802384 -32.05861555 30.82414272 -24 26 C-23.12601562 25.47792969 -22.25203125 24.95585938 -21.3515625 24.41796875 C-20.57554688 23.95003906 -19.79953125 23.48210937 -19 23 C-18.18660156 22.525625 -17.37320313 22.05125 -16.53515625 21.5625 C-9.5164836 17.12731981 -6.50091463 12.39445519 -3 5 C-1.52734375 2.1640625 -1.52734375 2.1640625 0 0 Z " fill="#673E44" transform="translate(118,87)"/>
<path d="M0 0 C1.75 0.0625 1.75 0.0625 4 1 C10.0549057 9.72618763 10.37313219 18.60674719 10.37060547 28.98144531 C10.37499193 30.99629514 10.41144138 33.00897154 10.44921875 35.0234375 C10.47158598 42.49409354 10.08648562 47.6683701 6 54 C3.36 54 0.72 54 -2 54 C-3.36736512 50.99179673 -4.0591255 48.55655872 -4.5 45.25 C-4.665 44.1775 -4.83 43.105 -5 42 C-5.66 41.67 -6.32 41.34 -7 41 C-7 40.01 -7 39.02 -7 38 C-8.485 38.495 -8.485 38.495 -10 39 C-10.70211894 40.65204456 -11.36971413 42.31923769 -12 44 C-12.99 44.495 -12.99 44.495 -14 45 C-15.06353442 47.74374006 -15.9233007 50.52883164 -16.8046875 53.3359375 C-18.14404626 56.32104428 -19.15629784 57.43014955 -22 59 C-25.75 59.1875 -25.75 59.1875 -29 59 C-29.97955604 54.68995342 -30.0306307 52.83563577 -28 49 C-26.96175148 42.97815856 -26.88750439 37.09976187 -27 31 C-28.98 31.33 -30.96 31.66 -33 32 C-32.01 30.35 -31.02 28.7 -30 27 C-28.35 27.33 -26.7 27.66 -25 28 C-25 29.32 -25 30.64 -25 32 C-24.01 32 -23.02 32 -22 32 C-22 37.61 -22 43.22 -22 49 C-21.34 49 -20.68 49 -20 49 C-19.67 48.01 -19.34 47.02 -19 46 C-18.01 45.505 -18.01 45.505 -17 45 C-16.34227572 41.97065509 -16.34227572 41.97065509 -16 39 C-15.01 39 -14.02 39 -13 39 C-13.04125 37.72125 -13.0825 36.4425 -13.125 35.125 C-13.1953125 32.9453125 -13.1953125 32.9453125 -13 31 C-11 29 -11 29 -7.875 28.875 C-6.451875 28.936875 -6.451875 28.936875 -5 29 C-4.73445313 29.91523437 -4.46890625 30.83046875 -4.1953125 31.7734375 C-3.84210938 32.96195313 -3.48890625 34.15046875 -3.125 35.375 C-2.77695313 36.55835938 -2.42890625 37.74171875 -2.0703125 38.9609375 C-1.22312581 42.06491558 -1.22312581 42.06491558 1 44 C1 45.32 1 46.64 1 48 C1.99 48 2.98 48 4 48 C3.90657935 43.05174384 3.8005124 38.10398366 3.68261719 33.15625 C3.64428896 31.47240671 3.60944288 29.78848045 3.578125 28.10449219 C3.53255713 25.68654694 3.47455077 23.26917472 3.4140625 20.8515625 C3.40251129 20.0963028 3.39096008 19.34104309 3.37905884 18.56289673 C3.39669934 14.32174802 3.39669934 14.32174802 1 11 C-0.33034463 7.4080695 -0.07279423 3.78529987 0 0 Z " fill="#8B734A" transform="translate(170,42)"/>
<path d="M0 0 C0.99 0 1.98 0 3 0 C3 0.99 3 1.98 3 3 C3.99 3.33 4.98 3.66 6 4 C6.66 7.96 7.32 11.92 8 16 C10.64 16 13.28 16 16 16 C16.14603077 33.67646325 15.67078058 49.67372243 11.25390625 66.8515625 C11.06127197 67.60260254 10.8686377 68.35364258 10.67016602 69.12744141 C10 71 10 71 8 73 C7.505 70.525 7.505 70.525 7 68 C6.01 69.98 5.02 71.96 4 74 C3.4375 72.0625 3.4375 72.0625 3 70 C3.495 69.505 3.495 69.505 4 69 C4.24832471 66.12587146 4.38395928 63.25242017 4.5234375 60.37109375 C5 57 5 57 6.49609375 53.50390625 C8.91680763 47.43686494 8.57292759 40.9422428 8.6875 34.5 C8.72166016 33.200625 8.75582031 31.90125 8.79101562 30.5625 C8.87304465 27.37508629 8.94234455 24.18793217 9 21 C9.639375 20.71125 10.27875 20.4225 10.9375 20.125 C13.15206079 19.17176549 13.15206079 19.17176549 14 17 C11.69 17 9.38 17 7 17 C7 16.34 7 15.68 7 15 C6.01 14.67 5.02 14.34 4 14 C3.05078125 11.27734375 3.05078125 11.27734375 2.3125 7.9375 C1.93544922 6.28041016 1.93544922 6.28041016 1.55078125 4.58984375 C1.36902344 3.73519531 1.18726563 2.88054687 1 2 C0.67 3.65 0.34 5.3 0 7 C-1.32 6.67 -2.64 6.34 -4 6 C-3.34 6 -2.68 6 -2 6 C-1.855625 5.195625 -1.71125 4.39125 -1.5625 3.5625 C-1 1 -1 1 0 0 Z " fill="#704359" transform="translate(160,80)"/>
<path d="M0 0 C0.66 0 1.32 0 2 0 C4.755618 5.48898765 5.41505678 9.68076358 5.29296875 15.77734375 C5.28872391 16.58869278 5.28447906 17.40004181 5.28010559 18.23597717 C5.26343867 20.80350256 5.22581048 23.37021564 5.1875 25.9375 C5.1724376 27.68813963 5.15875193 29.43879168 5.14648438 31.18945312 C5.11357468 35.45994392 5.06187726 39.72983469 5 44 C3.35 44 1.7 44 0 44 C-0.12375 43.360625 -0.2475 42.72125 -0.375 42.0625 C-0.58125 41.381875 -0.7875 40.70125 -1 40 C-1.66 39.67 -2.32 39.34 -3 39 C-3.73519522 37.02416285 -4.39072482 35.01822402 -5 33 C-5.37125 31.9275 -5.7425 30.855 -6.125 29.75 C-7 27 -7 27 -7 25 C-9.07935207 25.4100567 -9.07935207 25.4100567 -11 27 C-11.68790422 29.69658452 -11.81946464 32.2017019 -12 35 C-12.66 35 -13.32 35 -14 35 C-14.02578125 35.556875 -14.0515625 36.11375 -14.078125 36.6875 C-14.50394801 42.416755 -15.68085202 47.22729412 -19 52 C-22.6441774 54.4294516 -24.71241272 54.16179575 -29 54 C-29.97955604 49.68995342 -30.0306307 47.83563577 -28 44 C-26.96175148 37.97815856 -26.88750439 32.09976187 -27 26 C-28.98 26.33 -30.96 26.66 -33 27 C-32.01 25.35 -31.02 23.7 -30 22 C-28.35 22.33 -26.7 22.66 -25 23 C-25 24.32 -25 25.64 -25 27 C-24.01 27 -23.02 27 -22 27 C-22 32.61 -22 38.22 -22 44 C-21.34 44 -20.68 44 -20 44 C-19.67 43.01 -19.34 42.02 -19 41 C-18.01 40.505 -18.01 40.505 -17 40 C-16.34227572 36.97065509 -16.34227572 36.97065509 -16 34 C-15.01 34 -14.02 34 -13 34 C-13.04125 32.72125 -13.0825 31.4425 -13.125 30.125 C-13.1953125 27.9453125 -13.1953125 27.9453125 -13 26 C-11 24 -11 24 -7.875 23.875 C-6.451875 23.936875 -6.451875 23.936875 -5 24 C-4.73445313 24.91523437 -4.46890625 25.83046875 -4.1953125 26.7734375 C-3.84210938 27.96195313 -3.48890625 29.15046875 -3.125 30.375 C-2.77695313 31.55835937 -2.42890625 32.74171875 -2.0703125 33.9609375 C-1.22312581 37.06491558 -1.22312581 37.06491558 1 39 C1 40.32 1 41.64 1 43 C1.99 43 2.98 43 4 43 C3.90657935 38.05174384 3.8005124 33.10398366 3.68261719 28.15625 C3.64428896 26.47240671 3.60944288 24.78848045 3.578125 23.10449219 C3.53255713 20.68654694 3.47455077 18.26917472 3.4140625 15.8515625 C3.40251129 15.0963028 3.39096008 14.34104309 3.37905884 13.56289673 C3.39669934 9.32174802 3.39669934 9.32174802 1 6 C0.60235737 4.01178687 0.26224651 2.01055661 0 0 Z " fill="#B2B23D" transform="translate(170,47)"/>
<path d="M0 0 C0 0.66 0 1.32 0 2 C-0.99 2.495 -0.99 2.495 -2 3 C-2.65555119 5.52733235 -2.65555119 5.52733235 -3 8 C-3.66 8 -4.32 8 -5 8 C-4.9175 8.721875 -4.835 9.44375 -4.75 10.1875 C-5.07735797 13.87027713 -6.63671593 15.21966579 -9 18 C-10.24016669 20.6794645 -10.24016669 20.6794645 -11 23 C-11.66 23 -12.32 23 -13 23 C-13.3403125 24.5778125 -13.3403125 24.5778125 -13.6875 26.1875 C-14.82150268 30.17270941 -16.75034524 32.38442421 -20 35 C-20.99 35 -21.98 35 -23 35 C-23 35.99 -23 36.98 -23 38 C-19.7 38 -16.4 38 -13 38 C-13.99 38.495 -13.99 38.495 -15 39 C-15.33 40.32 -15.66 41.64 -16 43 C-21.445 43.495 -21.445 43.495 -27 44 C-27.74955438 41.0017825 -28.41070989 38.03063487 -29 35 C-27.865625 34.34 -26.73125 33.68 -25.5625 33 C-19.44685351 28.44027771 -16.53442953 21.64987314 -13.07275391 15.03759766 C-11.47976099 12.01185371 -9.81586668 9.03486564 -8.125 6.0625 C-7.59132812 5.10472656 -7.05765625 4.14695312 -6.5078125 3.16015625 C-4.64866434 0.49666161 -3.23105698 0 0 0 Z " fill="#7C5E3A" transform="translate(150,36)"/>
<path d="M0 0 C0.99 0.33 1.98 0.66 3 1 C3 1.66 3 2.32 3 3 C3.969375 2.979375 4.93875 2.95875 5.9375 2.9375 C9 3 9 3 10 4 C11.155 4.165 12.31 4.33 13.5 4.5 C17 5 17 5 18 6 C19.32781878 6.20604085 20.66295895 6.3662959 22 6.5 C25.88888889 6.88888889 25.88888889 6.88888889 27 8 C29.14558827 8.08775605 31.29404421 8.10695219 33.44140625 8.09765625 C34.74658203 8.09443359 36.05175781 8.09121094 37.39648438 8.08789062 C38.7851569 8.07953401 40.17382877 8.07106905 41.5625 8.0625 C42.95507656 8.05748666 44.34765481 8.05292347 45.74023438 8.04882812 C49.1601987 8.03699434 52.58007844 8.0205088 56 8 C55.67 9.65 55.34 11.3 55 13 C38.9359947 18.35466843 18.48037032 12.90992503 3.8125 5.6875 C2.19789432 4.81062113 0.58878976 3.92282998 -1 3 C-0.67 2.01 -0.34 1.02 0 0 Z " fill="#6E4257" transform="translate(34,216)"/>
<path d="M0 0 C2.5 1.1875 2.5 1.1875 4.5 3.1875 C4.77576987 5.5329654 4.94971306 7.89107311 5.0625 10.25 C4.88816898 14.53976365 4.88816898 14.53976365 6.5 18.1875 C6.54092937 20.52047433 6.54241723 22.85455225 6.5 25.1875 C4.85 25.1875 3.2 25.1875 1.5 25.1875 C1.45101562 24.53523438 1.40203125 23.88296875 1.3515625 23.2109375 C0.92511699 18.2259365 0.22933228 13.91434156 -1.5 9.1875 C-1.5 8.1975 -1.5 7.2075 -1.5 6.1875 C-2.16 6.1875 -2.82 6.1875 -3.5 6.1875 C-3.5 10.4775 -3.5 14.7675 -3.5 19.1875 C-4.49 19.1875 -5.48 19.1875 -6.5 19.1875 C-6.5 20.1775 -6.5 21.1675 -6.5 22.1875 C-8.48 22.1875 -10.46 22.1875 -12.5 22.1875 C-11.51 20.7025 -11.51 20.7025 -10.5 19.1875 C-9.84 19.1875 -9.18 19.1875 -8.5 19.1875 C-8.58378906 18.35605469 -8.66757813 17.52460937 -8.75390625 16.66796875 C-8.85574219 15.58128906 -8.95757812 14.49460937 -9.0625 13.375 C-9.16691406 12.29605469 -9.27132812 11.21710937 -9.37890625 10.10546875 C-9.5 7.1875 -9.5 7.1875 -8.5 4.1875 C-7.84 4.1875 -7.18 4.1875 -6.5 4.1875 C-6.066875 3.2284375 -6.066875 3.2284375 -5.625 2.25 C-3.99170407 -0.74437587 -3.26278387 -1.06040476 0 0 Z " fill="#A8A042" transform="translate(163.5,14.8125)"/>
<path d="M0 0 C0.99 0 1.98 0 3 0 C2.34826117 8.25535853 -1.81375166 15.62773171 -8 21 C-8.556875 21.598125 -9.11375 22.19625 -9.6875 22.8125 C-11 24 -11 24 -13 24 C-13 24.66 -13 25.32 -13 26 C-17.12322617 29.2650928 -21.86697952 31.83340444 -27 33 C-29.375 32.625 -29.375 32.625 -31 32 C-30.01 31.67 -29.02 31.34 -28 31 C-28 30.01 -28 29.02 -28 28 C-26.906875 27.505 -25.81375 27.01 -24.6875 26.5 C-14.21973043 21.16385459 -7.97740175 15.67269797 -3 5 C-1.53125 2.16796875 -1.53125 2.16796875 0 0 Z " fill="#6A4249" transform="translate(118,87)"/>
<path d="M0 0 C0.33 0.99 0.66 1.98 1 3 C-18.04859599 15.30097421 -18.04859599 15.30097421 -29 16 C-30 15 -30 15 -30.0625 12.4375 C-30.041875 11.633125 -30.02125 10.82875 -30 10 C-27.69 10 -25.38 10 -23 10 C-23 9.34 -23 8.68 -23 8 C-22.33613281 7.80664062 -21.67226562 7.61328125 -20.98828125 7.4140625 C-14.40210691 5.47248648 -14.40210691 5.47248648 -8 3 C-8 2.01 -8 1.02 -8 0 C-4.71023192 -1.09658936 -3.28696233 -0.79953138 0 0 Z " fill="#6C3E61" transform="translate(128,212)"/>
<path d="M0 0 C2.375 0.1875 2.375 0.1875 5 1 C8.57203605 7.70667993 7.79775402 16.62148393 6 23.8125 C5.67 24.864375 5.34 25.91625 5 27 C5.99 27 6.98 27 8 27 C8 26.34 8 25.68 8 25 C8.66 24.67 9.32 24.34 10 24 C10.33 23.01 10.66 22.02 11 21 C13.0625 19.8125 13.0625 19.8125 15 19 C14.3920502 23.13405862 13.09037553 26.38204235 11 30 C7.3558226 32.4294516 5.28758728 32.16179575 1 32 C0.02044396 27.68995342 -0.0306307 25.83563577 2 22 C3.03824852 15.97815856 3.11249561 10.09976187 3 4 C1.02 4.33 -0.96 4.66 -3 5 C-2.01 3.35 -1.02 1.7 0 0 Z " fill="#724657" transform="translate(140,69)"/>
<path d="M0 0 C2.33944729 2.33944729 2.31880066 2.87599739 2.375 6.0625 C2.28155539 10.55502944 1.0496425 13.76365706 -0.9296875 17.75 C-1.98826082 19.97532202 -2.725703 22.1437065 -3.4375 24.5 C-4.98374123 29.37065988 -7.3854017 33.62855699 -10 38 C-10.66 38 -11.32 38 -12 38 C-7.86611272 16.62858272 -7.86611272 16.62858272 -2.875 8.25 C-1.18836741 5.3265035 -0.40087086 3.30718459 0 0 Z " fill="#744D54" transform="translate(166,146)"/>
<path d="M0 0 C0.99 0 1.98 0 3 0 C3 0.99 3 1.98 3 3 C3.99 3.33 4.98 3.66 6 4 C6.66 7.96 7.32 11.92 8 16 C10.64 16 13.28 16 16 16 C16 17.65 16 19.3 16 21 C15.34 21 14.68 21 14 21 C13.67 25.95 13.34 30.9 13 36 C12.34 36 11.68 36 11 36 C10.67 39.3 10.34 42.6 10 46 C9.67 46 9.34 46 9 46 C9 37.75 9 29.5 9 21 C10.32 20.34 11.64 19.68 13 19 C13.33 18.34 13.66 17.68 14 17 C11.69 17 9.38 17 7 17 C7 16.34 7 15.68 7 15 C6.01 14.67 5.02 14.34 4 14 C3.05078125 11.27734375 3.05078125 11.27734375 2.3125 7.9375 C1.93544922 6.28041016 1.93544922 6.28041016 1.55078125 4.58984375 C1.36902344 3.73519531 1.18726563 2.88054687 1 2 C0.67 3.65 0.34 5.3 0 7 C-1.32 6.67 -2.64 6.34 -4 6 C-3.34 6 -2.68 6 -2 6 C-1.855625 5.195625 -1.71125 4.39125 -1.5625 3.5625 C-1 1 -1 1 0 0 Z " fill="#63257C" transform="translate(160,80)"/>
<path d="M0 0 C2.8125 0.1875 2.8125 0.1875 5 1 C5 1.66 5 2.32 5 3 C4.01 3 3.02 3 2 3 C1.67 3.99 1.34 4.98 1 6 C-1.25 7.31640625 -1.25 7.31640625 -4 8.5625 C-7.70967628 10.02364577 -7.70967628 10.02364577 -10 13 C-10.99 13 -11.98 13 -13 13 C-13.185625 13.825 -13.37125 14.65 -13.5625 15.5 C-14.93179358 18.8339322 -16.03522053 20.31054132 -18.4375 22.875 C-20.97927503 25.61148658 -22.55013842 27.83316261 -23.75 31.375 C-25 35 -25 35 -28 37 C-27.18400682 30.38462674 -24.36364008 25.65289882 -21 20 C-20.63003906 19.34515625 -20.26007812 18.6903125 -19.87890625 18.015625 C-16.77126784 13.05251017 -12.36054084 10.15443358 -7.5859375 6.87109375 C-5.45071487 5.32612148 -3.83850522 3.90748531 -2.125 1.9375 C-1.42375 1.298125 -0.7225 0.65875 0 0 Z " fill="#764E54" transform="translate(48,135)"/>
<path d="M0 0 C0.26480203 7.60570279 -0.41352004 14.56554647 -2 22 C-2.75121564 25.47427834 -2.75121564 25.47427834 -3 29 C-1.02 29 0.96 29 3 29 C3 29.33 3 29.66 3 30 C0.69 30 -1.62 30 -4 30 C-5.5635348 26.87293041 -5.39958487 23.42017557 -5 20 C-4.34 19.01 -3.68 18.02 -3 17 C-2.70547416 14.61322924 -2.5071783 12.21373906 -2.375 9.8125 C-2.30023438 8.54019531 -2.22546875 7.26789063 -2.1484375 5.95703125 C-2.09945312 4.98121094 -2.05046875 4.00539063 -2 3 C-3.98 3.33 -5.96 3.66 -8 4 C-8.33 5.32 -8.66 6.64 -9 8 C-11.31 8 -13.62 8 -16 8 C-16.103125 8.639375 -16.20625 9.27875 -16.3125 9.9375 C-16.539375 10.618125 -16.76625 11.29875 -17 12 C-17.99 12.33 -18.98 12.66 -20 13 C-20.33 15.31 -20.66 17.62 -21 20 C-21.66 20 -22.32 20 -23 20 C-23 21.32 -23 22.64 -23 24 C-23.66 24 -24.32 24 -25 24 C-24.34 21.03 -23.68 18.06 -23 15 C-23.66 14.67 -24.32 14.34 -25 14 C-24.34 13.67 -23.68 13.34 -23 13 C-22.74476562 12.18144531 -22.48953125 11.36289063 -22.2265625 10.51953125 C-21 8 -21 8 -18.3984375 7.07421875 C-17.40070313 6.94660156 -16.40296875 6.81898437 -15.375 6.6875 C-13.87066406 6.47673828 -13.87066406 6.47673828 -12.3359375 6.26171875 C-11.17964844 6.13216797 -11.17964844 6.13216797 -10 6 C-9.67 5.01 -9.34 4.02 -9 3 C-7.1875 2.05078125 -7.1875 2.05078125 -5 1.3125 C-3.9171875 0.93544922 -3.9171875 0.93544922 -2.8125 0.55078125 C-1 0 -1 0 0 0 Z " fill="#612083" transform="translate(144,72)"/>
<path d="M0 0 C0 2.83967231 -0.40267181 5.23735711 -1 8 C-1.66 8 -2.32 8 -3 8 C-2.67 8.99 -2.34 9.98 -2 11 C-2.33 11.66 -2.66 12.32 -3 13 C-0.69 13.66 1.62 14.32 4 15 C4 17.31 4 19.62 4 22 C3.7525 21.360625 3.505 20.72125 3.25 20.0625 C2.18437567 17.81258459 2.18437567 17.81258459 -0.125 17.25 C-0.74375 17.1675 -1.3625 17.085 -2 17 C-2.309375 17.639375 -2.61875 18.27875 -2.9375 18.9375 C-4 21 -4 21 -5 22 C-6.68608966 22.07205511 -8.37500659 22.08386068 -10.0625 22.0625 C-10.98160156 22.05347656 -11.90070313 22.04445313 -12.84765625 22.03515625 C-13.55792969 22.02355469 -14.26820312 22.01195313 -15 22 C-15 21.01 -15 20.02 -15 19 C-12.625 17.4375 -12.625 17.4375 -10 16 C-7.72738871 13.97891997 -7.72738871 13.97891997 -6.5 10.4375 C-5 7 -5 7 -3 6 C-2.29788106 4.34795544 -1.63028587 2.68076231 -1 1 C-0.67 0.67 -0.34 0.34 0 0 Z " fill="#BABF3B" transform="translate(142,52)"/>
<path d="M0 0 C1.1875 1.625 1.1875 1.625 2 4 C0.44599482 8.14401383 -1.55856373 11.20383303 -5 14 C-5.99 14 -6.98 14 -8 14 C-8 14.99 -8 15.98 -8 17 C-4.7 17 -1.4 17 2 17 C1.34 17.33 0.68 17.66 0 18 C-0.33 19.32 -0.66 20.64 -1 22 C-4.63 22.33 -8.26 22.66 -12 23 C-12.33 20.36 -12.66 17.72 -13 15 C-11.71283353 13.99421411 -10.42011342 12.99553202 -9.125 12 C-8.40570313 11.443125 -7.68640625 10.88625 -6.9453125 10.3125 C-5 9 -5 9 -3 9 C-2.87625 8.2575 -2.7525 7.515 -2.625 6.75 C-2.04513299 4.19858515 -1.26291261 2.2732427 0 0 Z " fill="#815F4E" transform="translate(135,57)"/>
<path d="M0 0 C0.66 0 1.32 0 2 0 C3 3 3 3 2.03125 4.9453125 C0.37011192 7.30989171 -1.29263011 9.66843037 -3 12 C-3.58910156 12.80824219 -4.17820313 13.61648437 -4.78515625 14.44921875 C-10.78101105 22.42172897 -10.78101105 22.42172897 -15 25 C-15.99 24.67 -16.98 24.34 -18 24 C-18 22.68 -18 21.36 -18 20 C-16.36935236 18.94228261 -14.69719127 17.94726954 -13 17 C-11.98199424 15.68036291 -10.97751635 14.34990354 -10 13 C-9.34 13 -8.68 13 -8 13 C-8 12.01 -8 11.02 -8 10 C-7.01 10 -6.02 10 -5 10 C-4.87625 9.401875 -4.7525 8.80375 -4.625 8.1875 C-4 6 -4 6 -2 3 C-1.34 3 -0.68 3 0 3 C0 2.01 0 1.02 0 0 Z " fill="#704C51" transform="translate(151,186)"/>
<path d="M0 0 C0.33 0 0.66 0 1 0 C1.09973852 3.98340305 1.17187198 7.96631108 1.21972656 11.95068359 C1.24946045 13.96347627 1.30031729 15.97592134 1.3515625 17.98828125 C1.42699887 25.49420029 1.12054466 30.64073423 -3 37 C-5.64 37 -8.28 37 -11 37 C-13.125 32.375 -13.125 32.375 -12 29 C-12 29.66 -12 30.32 -12 31 C-11.34 31 -10.68 31 -10 31 C-10 32.32 -10 33.64 -10 35 C-8.68 35 -7.36 35 -6 35 C-6 34.34 -6 33.68 -6 33 C-4.68 33 -3.36 33 -2 33 C-2.495 31.515 -2.495 31.515 -3 30 C-3.46810576 23.39144807 -2.94658288 16.54427671 -2 10 C-1.67 9.67 -1.34 9.34 -1 9 C-0.76807135 7.48530552 -0.58784762 5.96245438 -0.4375 4.4375 C-0.35371094 3.61121094 -0.26992187 2.78492188 -0.18359375 1.93359375 C-0.12300781 1.29550781 -0.06242188 0.65742187 0 0 Z " fill="#795844" transform="translate(179,59)"/>
<path d="M0 0 C4.96570333 -0.49657033 7.82506854 0.71585574 12.07421875 2.98046875 C18.13100978 6.18700518 24.2803484 6.54564633 31 7 C31 7.66 31 8.32 31 9 C33.64624284 8.85978195 36.29184578 8.71310224 38.9375 8.5625 C39.69224609 8.52318359 40.44699219 8.48386719 41.22460938 8.44335938 C44.91944187 8.55961976 44.91944187 8.55961976 48 7 C49.85287502 6.92773498 51.70833878 6.9161878 53.5625 6.9375 C54.57441406 6.94652344 55.58632812 6.95554688 56.62890625 6.96484375 C57.41136719 6.97644531 58.19382813 6.98804688 59 7 C59 8.98 59 10.96 59 13 C58.01 13 57.02 13 56 13 C56.33 11.68 56.66 10.36 57 9 C56.01 9.33 55.02 9.66 54 10 C52.01998809 10.09449003 50.03695165 10.1307174 48.0546875 10.1328125 C46.89582031 10.13410156 45.73695312 10.13539063 44.54296875 10.13671875 C42.72732422 10.13091797 42.72732422 10.13091797 40.875 10.125 C39.65683594 10.12886719 38.43867187 10.13273438 37.18359375 10.13671875 C36.02730469 10.13542969 34.87101562 10.13414062 33.6796875 10.1328125 C32.61476074 10.13168457 31.54983398 10.13055664 30.45263672 10.12939453 C28 10 28 10 27 9 C25.67218122 8.79395915 24.33704105 8.6337041 23 8.5 C19.11111111 8.11111111 19.11111111 8.11111111 18 7 C16.96875 6.855625 15.9375 6.71125 14.875 6.5625 C11.05654608 6.0082083 7.67780895 5.12585988 4 4 C4 3.34 4 2.68 4 2 C2.68 2.33 1.36 2.66 0 3 C0 2.01 0 1.02 0 0 Z " fill="#5E1887" transform="translate(33,215)"/>
<path d="M0 0 C0.66 0.33 1.32 0.66 2 1 C2.19148936 20.34042553 2.19148936 20.34042553 1 30 C0.34 29.34 -0.32 28.68 -1 28 C-1.33 29.65 -1.66 31.3 -2 33 C-2.33 33 -2.66 33 -3 33 C-3 27.39 -3 21.78 -3 16 C-2.34 16 -1.68 16 -1 16 C-1.01160156 14.92878906 -1.02320313 13.85757813 -1.03515625 12.75390625 C-1.04453299 11.35677257 -1.05363331 9.95963701 -1.0625 8.5625 C-1.07506836 7.50192383 -1.07506836 7.50192383 -1.08789062 6.41992188 C-1.09653588 4.61306441 -1.05220011 2.80612397 -1 1 C-0.67 0.67 -0.34 0.34 0 0 Z " fill="#744C54" transform="translate(174,100)"/>
<path d="M0 0 C0.99 0.33 1.98 0.66 3 1 C3 1.66 3 2.32 3 3 C4.2684375 2.938125 4.2684375 2.938125 5.5625 2.875 C9.35359184 3.01285789 12.42854861 3.73948774 16 5 C16.33 5.66 16.66 6.32 17 7 C19.32156597 7.40729228 21.6568787 7.74438677 24 8 C24.33 9.32 24.66 10.64 25 12 C19.25674136 11.47614326 14.49925146 10.33598284 9.1875 8.125 C8.53330078 7.86847656 7.87910156 7.61195313 7.20507812 7.34765625 C3.90773444 6.00716311 1.26010483 4.80622681 -1 2 C-0.67 1.34 -0.34 0.68 0 0 Z " fill="#755250" transform="translate(34,216)"/>
<path d="M0 0 C3.13759973 0.82175231 4.70255875 1.70255875 7 4 C7.1953125 6.6015625 7.1953125 6.6015625 7.125 9.625 C7.10695312 10.62789062 7.08890625 11.63078125 7.0703125 12.6640625 C7.03550781 13.82035156 7.03550781 13.82035156 7 15 C5.68 14.67 4.36 14.34 3 14 C2.67 11.36 2.34 8.72 2 6 C0.68 6 -0.64 6 -2 6 C-2 5.34 -2 4.68 -2 4 C-2.66 3.67 -3.32 3.34 -4 3 C-2.3125 1.375 -2.3125 1.375 0 0 Z " fill="#8F7451" transform="translate(161,14)"/>
<path d="M0 0 C9.24 0 18.48 0 28 0 C27.67 0.66 27.34 1.32 27 2 C22.38519783 3.53826739 17.77112314 3.22544826 12.9375 3.25 C11.91849609 3.270625 10.89949219 3.29125 9.84960938 3.3125 C8.87701172 3.31765625 7.90441406 3.3228125 6.90234375 3.328125 C6.01023193 3.3374707 5.11812012 3.34681641 4.19897461 3.35644531 C3.47331299 3.23881836 2.74765137 3.12119141 2 3 C1.34 2.01 0.68 1.02 0 0 Z " fill="#785158" transform="translate(62,227)"/>
<path d="M0 0 C0.66 0 1.32 0 2 0 C2.33 6.6 2.66 13.2 3 20 C3.66 20 4.32 20 5 20 C6.35439668 22.70879335 6.06501451 25.00933268 6 28 C6.99 28.33 7.98 28.66 9 29 C8.67 30.98 8.34 32.96 8 35 C4.67098753 32.78065836 4.24976756 31.65316671 3 28 C3.66 28 4.32 28 5 28 C4.505 26.96875 4.01 25.9375 3.5 24.875 C2.02526098 21.47548422 1.72708894 18.72978451 2 15 C1.34 15 0.68 15 0 15 C0 10.05 0 5.1 0 0 Z " fill="#643269" transform="translate(21,175)"/>
<path d="M0 0 C0.33 0 0.66 0 1 0 C1 1.65 1 3.3 1 5 C0.01 5.33 -0.98 5.66 -2 6 C-2.04125 6.721875 -2.0825 7.44375 -2.125 8.1875 C-3.40732361 12.30925447 -5.48110713 13.53677499 -9 16 C-9.99 16 -10.98 16 -12 16 C-12 16.66 -12 17.32 -12 18 C-14.5614657 20.29648649 -15.47967572 21 -19 21 C-19 21.66 -19 22.32 -19 23 C-22.3171411 24.4216319 -25.44219804 25.39009109 -29 26 C-24.21794362 21.81570067 -19.00705741 19.00235247 -13 17 C-13 16.34 -13 15.68 -13 15 C-12.34 15 -11.68 15 -11 15 C-10.67 14.01 -10.34 13.02 -10 12 C-9.195625 11.71125 -8.39125 11.4225 -7.5625 11.125 C-4.81159727 10.24713476 -4.81159727 10.24713476 -3.875 7.6875 C-3.58625 6.800625 -3.2975 5.91375 -3 5 C-1.4375 2.1875 -1.4375 2.1875 0 0 Z " fill="#5D1985" transform="translate(118,96)"/>
<path d="M0 0 C0.33 0.99 0.66 1.98 1 3 C0.34 3 -0.32 3 -1 3 C-1 3.66 -1 4.32 -1 5 C-5.12322617 8.2650928 -9.86697952 10.83340444 -15 12 C-17.375 11.625 -17.375 11.625 -19 11 C-18.01 10.67 -17.02 10.34 -16 10 C-16 9.01 -16 8.02 -16 7 C-15.11248047 6.74476562 -15.11248047 6.74476562 -14.20703125 6.484375 C-9.67174264 5.09345451 -4.04967659 0 0 0 Z " fill="#734858" transform="translate(106,108)"/>
<path d="M0 0 C0.66 0.33 1.32 0.66 2 1 C2.20177072 8.35342179 2.21211746 14.94887561 0 22 C0.99 22 1.98 22 3 22 C3 21.34 3 20.68 3 20 C3.66 19.67 4.32 19.34 5 19 C5.33 18.01 5.66 17.02 6 16 C8.0625 14.8125 8.0625 14.8125 10 14 C9.49930857 18.38104998 8.21775827 20.95617461 5 24 C1.75 24.3125 1.75 24.3125 -1 24 C-2.3028771 21.39424579 -1.75525315 20.42317938 -1.0625 17.625 C0.2230878 11.72337548 0.18598844 6.01362638 0 0 Z M-4 23 C-2 24 -2 24 -2 24 Z " fill="#7E5D49" transform="translate(145,74)"/>
<path d="M0 0 C0.33 0 0.66 0 1 0 C1 4.95 1 9.9 1 15 C1.99 15 2.98 15 4 15 C5.29925791 19.33085971 6.343621 23.51474352 7 28 C5.1875 27.875 5.1875 27.875 3 27 C-0.70763958 21.58114215 -0.3538932 16.4223427 -0.1875 10.125 C-0.17396484 9.15046875 -0.16042969 8.1759375 -0.14648438 7.171875 C-0.11131962 4.78067137 -0.0621067 2.39063025 0 0 Z " fill="#775152" transform="translate(19,175)"/>
<path d="M0 0 C0.66 0.33 1.32 0.66 2 1 C1.67 1.66 1.34 2.32 1 3 C-1.29375229 3.57996265 -3.61179317 4.06555324 -5.9375 4.5 C-10.99510019 5.22274056 -10.99510019 5.22274056 -15 8 C-16.32 8 -17.64 8 -19 8 C-19.185625 8.61875 -19.37125 9.2375 -19.5625 9.875 C-21.71437233 13.05602866 -24.37533763 13.19451947 -28 14 C-27 12 -27 12 -24 11 C-23.67 10.34 -23.34 9.68 -23 9 C-22.01 9 -21.02 9 -20 9 C-19.87625 8.38125 -19.7525 7.7625 -19.625 7.125 C-19 5 -19 5 -17 3 C-14.86328125 2.91015625 -14.86328125 2.91015625 -12.3125 3.0625 C-7.35516845 3.19163454 -4.42065798 2.11823195 0 0 Z " fill="#632676" transform="translate(73,129)"/>
<path d="M0 0 C0.99 0 1.98 0 3 0 C3.33730842 1.43657245 3.66969591 2.87430093 4 4.3125 C4.185625 5.11300781 4.37125 5.91351563 4.5625 6.73828125 C5 9 5 9 5 12 C4.34 11.67 3.68 11.34 3 11 C3 10.01 3 9.02 3 8 C2.01 8.33 1.02 8.66 0 9 C-1.21869929 11.50447516 -1.21869929 11.50447516 -2 14 C-2.66 14 -3.32 14 -4 14 C-4 12.68 -4 11.36 -4 10 C-3.34 10 -2.68 10 -2 10 C-2.04125 8.72125 -2.0825 7.4425 -2.125 6.125 C-2.1953125 3.9453125 -2.1953125 3.9453125 -2 2 C-1.34 1.34 -0.68 0.68 0 0 Z " fill="#886B52" transform="translate(160,72)"/>
<path d="M0 0 C0.99 0 1.98 0 3 0 C3.02699725 2.27076842 3.04639453 4.54162821 3.0625 6.8125 C3.07410156 8.07707031 3.08570313 9.34164063 3.09765625 10.64453125 C3 14 3 14 2 17 C0.02 17 -1.96 17 -4 17 C-3.01 15.515 -3.01 15.515 -2 14 C-1.34 14 -0.68 14 0 14 C-0.08378906 13.15695313 -0.16757813 12.31390625 -0.25390625 11.4453125 C-0.35574219 10.34960938 -0.45757812 9.25390625 -0.5625 8.125 C-0.66691406 7.03445312 -0.77132812 5.94390625 -0.87890625 4.8203125 C-1 2 -1 2 0 0 Z " fill="#927F40" transform="translate(155,20)"/>
<path d="M0 0 C0.66 0 1.32 0 2 0 C2 5.61 2 11.22 2 17 C2.66 17 3.32 17 4 17 C4.33 16.01 4.66 15.02 5 14 C5.99 13.34 6.98 12.68 8 12 C9.19232613 9.94996045 9.19232613 9.94996045 10 8 C10.36625971 12.51720311 10.36625971 12.51720311 8.625 14.8125 C7 16 7 16 5 16 C4.67 17.32 4.34 18.64 4 20 C3.34 20 2.68 20 2 20 C2 20.66 2 21.32 2 22 C1.01 22 0.02 22 -1 22 C-1.125 16.25 -1.125 16.25 0 14 C0.07116382 11.62597499 0.08409085 9.24999323 0.0625 6.875 C0.05347656 5.59367187 0.04445312 4.31234375 0.03515625 2.9921875 C0.02355469 2.00476563 0.01195312 1.01734375 0 0 Z " fill="#9A8A43" transform="translate(146,74)"/>
<path d="M0 0 C0.66 0 1.32 0 2 0 C3 3 3 3 1.9609375 5.0859375 C-1.07495705 9.46779515 -4.0559691 13.40397183 -8 17 C-8.33 16.01 -8.66 15.02 -9 14 C-8.34 14 -7.68 14 -7 14 C-7 12.68 -7 11.36 -7 10 C-6.34 10 -5.68 10 -5 10 C-4.814375 9.1028125 -4.814375 9.1028125 -4.625 8.1875 C-4 6 -4 6 -2 3 C-1.34 3 -0.68 3 0 3 C0 2.01 0 1.02 0 0 Z " fill="#7A5552" transform="translate(151,186)"/>
<path d="M0 0 C1 3 1 3 0.3125 5.4375 C-1 8 -1 8 -2.9375 9.8125 C-5.41073662 12.43562975 -6.15739921 14.79143841 -7.19140625 18.1953125 C-8 20 -8 20 -11 22 C-9.98107238 13.66443545 -5.57472061 6.2179576 0 0 Z " fill="#795255" transform="translate(31,150)"/>
<path d="M0 0 C0.94875 0.04125 1.8975 0.0825 2.875 0.125 C4.780247 5.22834017 6.30089023 9.58842706 5.875 15.125 C5.545 15.125 5.215 15.125 4.875 15.125 C3.875 12.125 3.875 12.125 2.875 9.125 C2.50375 8.0525 2.1325 6.98 1.75 5.875 C0.875 3.125 0.875 3.125 0.875 1.125 C-1.20435207 1.5350567 -1.20435207 1.5350567 -3.125 3.125 C-3.81290422 5.82158452 -3.94446464 8.3267019 -4.125 11.125 C-5.115 11.125 -6.105 11.125 -7.125 11.125 C-7.455 12.445 -7.785 13.765 -8.125 15.125 C-8.125 13.475 -8.125 11.825 -8.125 10.125 C-7.135 10.125 -6.145 10.125 -5.125 10.125 C-5.186875 8.206875 -5.186875 8.206875 -5.25 6.25 C-5.3203125 4.0703125 -5.3203125 4.0703125 -5.125 2.125 C-3.125 0.125 -3.125 0.125 0 0 Z " fill="#AAA43F" transform="translate(162.125,70.875)"/>
<path d="M0 0 C1.4500578 4.54419521 0.32826388 7.49866131 -1 12 C-2 13 -2 13 -3.84765625 13.09765625 C-5.8984375 13.06510417 -7.94921875 13.03255208 -10 13 C-12.125 8.375 -12.125 8.375 -11 5 C-11 5.66 -11 6.32 -11 7 C-10.34 7 -9.68 7 -9 7 C-9 8.32 -9 9.64 -9 11 C-7.68 11 -6.36 11 -5 11 C-5 10.34 -5 9.68 -5 9 C-3.68 9 -2.36 9 -1 9 C-1.20625 8.443125 -1.4125 7.88625 -1.625 7.3125 C-2.10695211 4.340462 -1.26565028 2.68020059 0 0 Z " fill="#7D5A5B" transform="translate(178,83)"/>
<path d="M0 0 C0.33 0 0.66 0 1 0 C1.80235476 7.42178149 -1.26658148 15.00186115 -5.6875 20.875 C-7.86567117 23.81847456 -8.67454888 25.42003769 -9 29 C-9.99 29.33 -10.98 29.66 -12 30 C-12 29.34 -12 28.68 -12 28 C-11.34 28 -10.68 28 -10 28 C-10 26.02 -10 24.04 -10 22 C-9.34 21.67 -8.68 21.34 -8 21 C-4.15411575 15.52470684 -2.3625596 10.64692597 -2 4 C-1.34 4 -0.68 4 0 4 C0 2.68 0 1.36 0 0 Z " fill="#5F1F7F" transform="translate(159,159)"/>
<path d="M0 0 C0 3 0 3 -0.9375 5.25 C-2.18659491 8.48295152 -2.59626047 11.56821396 -3 15 C-3.99 15 -4.98 15 -6 15 C-6 19.95 -6 24.9 -6 30 C-6.33 30 -6.66 30 -7 30 C-7.10852923 27.12397545 -7.1875515 24.25209168 -7.25 21.375 C-7.28351562 20.56675781 -7.31703125 19.75851563 -7.3515625 18.92578125 C-7.44186344 13.37227366 -6.56215725 10.48142364 -3 6 C-2.30177383 4.34630643 -1.62501395 2.68272986 -1 1 C-0.67 0.67 -0.34 0.34 0 0 Z " fill="#6E3D5F" transform="translate(27,160)"/>
<path d="M0 0 C0.33 0 0.66 0 1 0 C1.05389087 1.95803507 1.09274217 3.91648909 1.125 5.875 C1.14820313 6.96554688 1.17140625 8.05609375 1.1953125 9.1796875 C1 12 1 12 -1 14 C-1.59834554 15.52056618 -2.13506656 17.06612088 -2.625 18.625 C-2.88539063 19.44226563 -3.14578125 20.25953125 -3.4140625 21.1015625 C-3.60742188 21.72804687 -3.80078125 22.35453125 -4 23 C-4.33 23 -4.66 23 -5 23 C-5.34360296 18.41862721 -4.49338005 15.31523689 -2.80078125 11.16796875 C-1.46185735 7.5430772 -0.74462602 3.78445225 0 0 Z " fill="#6C3B61" transform="translate(170,120)"/>
<path d="M0 0 C1.875 0.3125 1.875 0.3125 4 1 C6.78637633 5.1795645 5.79562512 7.14668677 5 12 C4.34 11.67 3.68 11.34 3 11 C2.375 7.9375 2.375 7.9375 2 5 C1.34 5 0.68 5 0 5 C0 3.35 0 1.7 0 0 Z " fill="#907754" transform="translate(170,42)"/>
<path d="M0 0 C0.66 0.33 1.32 0.66 2 1 C0.68 3.64 -0.64 6.28 -2 9 C-2.66 9 -3.32 9 -4 9 C-4.268125 9.598125 -4.53625 10.19625 -4.8125 10.8125 C-6.00987475 13.01819033 -7.04478984 14.43583187 -9 16 C-9.99 16 -10.98 16 -12 16 C-11.67 17.65 -11.34 19.3 -11 21 C-11.66 21.33 -12.32 21.66 -13 22 C-13.3125 18.6875 -13.3125 18.6875 -13 15 C-10.6875 13.375 -10.6875 13.375 -8 12 C-6.96642853 10.35394174 -5.95939668 8.69036558 -5 7 C-4.34 7 -3.68 7 -3 7 C-2.690625 6.030625 -2.38125 5.06125 -2.0625 4.0625 C-1 1 -1 1 0 0 Z " fill="#62237D" transform="translate(145,190)"/>
<path d="M0 0 C0.33 0.66 0.66 1.32 1 2 C5.455 1.505 5.455 1.505 10 1 C5.10342479 5.14325595 0.34561631 6.30217221 -6 6 C-5.8125 4.125 -5.8125 4.125 -5 2 C-2.4375 0.75 -2.4375 0.75 0 0 Z " fill="#673C52" transform="translate(66,127)"/>
<path d="M0 0 C0.33 1.32 0.66 2.64 1 4 C-3.75 5.125 -3.75 5.125 -6 4 C-6.33 5.65 -6.66 7.3 -7 9 C-7.66 9 -8.32 9 -9 9 C-9 9.66 -9 10.32 -9 11 C-9.66 11 -10.32 11 -11 11 C-11.33 11.99 -11.66 12.98 -12 14 C-12 12.68 -12 11.36 -12 10 C-11.34 10 -10.68 10 -10 10 C-10 8.02 -10 6.04 -10 4 C-9.01 4 -8.02 4 -7 4 C-6.67 3.34 -6.34 2.68 -6 2 C-3.03 2.495 -3.03 2.495 0 3 C0 2.01 0 1.02 0 0 Z " fill="#AAA544" transform="translate(157,34)"/>
<path d="M0 0 C0.625 1.8125 0.625 1.8125 1 4 C0.34 4.99 -0.32 5.98 -1 7 C-0.01 6.67 0.98 6.34 2 6 C4 6 6 6 8 6 C8.66 5.67 9.32 5.34 10 5 C9 8 9 8 6 10 C3.66800612 10.07905064 1.33167378 10.08798769 -1 10 C-2.23076923 4.58461538 -2.23076923 4.58461538 -1.0625 1.625 C-0.5365625 0.820625 -0.5365625 0.820625 0 0 Z " fill="#6A3666" transform="translate(142,91)"/>
<path d="M0 0 C0.66 0.33 1.32 0.66 2 1 C-1.03196864 4.49842535 -3.49925243 5.91982058 -8 7 C-11.375 7.125 -11.375 7.125 -14 7 C-13.34 6.67 -12.68 6.34 -12 6 C-12 5.34 -12 4.68 -12 4 C-8 2.66666667 -4 1.33333333 0 0 Z " fill="#785252" transform="translate(79,123)"/>
<path d="M0 0 C1.1875 1.625 1.1875 1.625 2 4 C0.33774494 8.69342606 -1.9639873 11.16388297 -6 14 C-5.67 12.35 -5.34 10.7 -5 9 C-4.34 9 -3.68 9 -3 9 C-2.87625 8.2575 -2.7525 7.515 -2.625 6.75 C-2.04513299 4.19858515 -1.26291261 2.2732427 0 0 Z " fill="#826545" transform="translate(135,57)"/>
<path d="M0 0 C-1.32 0.33 -2.64 0.66 -4 1 C-4 1.66 -4 2.32 -4 3 C-7.37097383 4.49821059 -9.20442119 5 -13 5 C-13 3.68 -13 2.36 -13 1 C-11.39796533 0.63631108 -9.79325797 0.28438048 -8.1875 -0.0625 C-7.29417969 -0.25972656 -6.40085937 -0.45695313 -5.48046875 -0.66015625 C-3 -1 -3 -1 0 0 Z " fill="#775152" transform="translate(112,223)"/>
<path d="M0 0 C6.10642479 -0.78287497 10.00459579 1.89174849 15 5 C10.84228506 6.31538327 8.1120703 5.34433068 4 4 C4 3.34 4 2.68 4 2 C2.68 2.33 1.36 2.66 0 3 C0 2.01 0 1.02 0 0 Z " fill="#69346A" transform="translate(33,215)"/>
<path d="M0 0 C0.66 0 1.32 0 2 0 C1.41632611 6.30367803 -0.04071619 11.98660063 -2 18 C-2.33 18 -2.66 18 -3 18 C-2.855625 16.865625 -2.71125 15.73125 -2.5625 14.5625 C-2.06555056 10.6428988 -1.65901067 6.71791464 -1.28125 2.78515625 C-1 1 -1 1 0 0 Z " fill="#612F67" transform="translate(171,135)"/>
<path d="M0 0 C-0.804375 0.45375 -1.60875 0.9075 -2.4375 1.375 C-5.08856572 2.74725665 -5.08856572 2.74725665 -6 5 C-8.64 5 -11.28 5 -14 5 C-14.33 5.99 -14.66 6.98 -15 8 C-15 6.35 -15 4.7 -15 3 C-12.69 3 -10.38 3 -8 3 C-8 2.34 -8 1.68 -8 1 C-2.25 -1.125 -2.25 -1.125 0 0 Z " fill="#662D71" transform="translate(113,219)"/>
<path d="M0 0 C0.66 0 1.32 0 2 0 C2.33 5.61 2.66 11.22 3 17 C2.67 16.34 2.34 15.68 2 15 C1.34 15 0.68 15 0 15 C0 10.05 0 5.1 0 0 Z " fill="#632579" transform="translate(21,175)"/>
<path d="M0 0 C0.66 0.33 1.32 0.66 2 1 C-0.25 3.5 -0.25 3.5 -3 6 C-4.32 6 -5.64 6 -7 6 C-7.268125 6.94875 -7.53625 7.8975 -7.8125 8.875 C-9 12 -9 12 -12 14 C-10.94124926 10.59687262 -9.99097846 7.98646769 -8 5 C-7.01 5 -6.02 5 -5 5 C-4.67 4.01 -4.34 3.02 -4 2 C-2.0625 0.75 -2.0625 0.75 0 0 Z " fill="#61227C" transform="translate(43,143)"/>
<path d="M0 0 C1.125 1.6875 1.125 1.6875 2 4 C1.25 6.6875 1.25 6.6875 0 9 C-0.99 9.495 -0.99 9.495 -2 10 C-2.46523063 11.89533342 -2.46523063 11.89533342 -2.625 14.0625 C-2.74875 15.361875 -2.8725 16.66125 -3 18 C-3.33 18 -3.66 18 -4 18 C-4.33 14.7 -4.66 11.4 -5 8 C-4.01 7.34 -3.02 6.68 -2 6 C-0.78715124 2.94570927 -0.78715124 2.94570927 0 0 Z " fill="#75476B" transform="translate(173,126)"/>
<path d="M0 0 C1.32 0 2.64 0 4 0 C4 0.66 4 1.32 4 2 C4.99 2 5.98 2 7 2 C7 4.97 7 7.94 7 11 C6.01 11 5.02 11 4 11 C3.67 7.7 3.34 4.4 3 1 C2.01 0.67 1.02 0.34 0 0 Z " fill="#7F604A" transform="translate(161,18)"/>
<path d="M0 0 C1 1 1 1 1.0625 4.5625 C1.041875 5.696875 1.02125 6.83125 1 8 C0.7525 7.360625 0.505 6.72125 0.25 6.0625 C-0.81562433 3.81258459 -0.81562433 3.81258459 -3.125 3.25 C-4.053125 3.12625 -4.053125 3.12625 -5 3 C-5.66 4.32 -6.32 5.64 -7 7 C-7.6875 5.1875 -7.6875 5.1875 -8 3 C-5.87310235 -0.30850745 -3.74830593 -0.39455852 0 0 Z " fill="#B1AE42" transform="translate(145,66)"/>
<path d="M0 0 C0.66 0 1.32 0 2 0 C2.02578125 0.69867188 2.0515625 1.39734375 2.078125 2.1171875 C2.13484375 3.02726563 2.1915625 3.93734375 2.25 4.875 C2.29640625 5.77992188 2.3428125 6.68484375 2.390625 7.6171875 C2.75611148 10.17110544 2.75611148 10.17110544 5.046875 11.3203125 C5.69140625 11.54460937 6.3359375 11.76890625 7 12 C5.35 12.33 3.7 12.66 2 13 C-0.91360308 8.22169095 -1.19876651 5.44893869 0 0 Z " fill="#5817A0" transform="translate(29,203)"/>
<path d="M0 0 C0.66 0 1.32 0 2 0 C2.66 2.97 3.32 5.94 4 9 C3.01 9 2.02 9 1 9 C0.67 10.32 0.34 11.64 0 13 C0 8.71 0 4.42 0 0 Z M-2 13 C-1.01 13.495 -1.01 13.495 0 14 C-0.99 14.495 -0.99 14.495 -2 15 C-2 14.34 -2 13.68 -2 13 Z " fill="#C1C93A" transform="translate(160,21)"/>
<path d="M0 0 C0.5625 1.9375 0.5625 1.9375 1 4 C0.67 4.33 0.34 4.66 0 5 C-0.04080783 6.99958364 -0.04254356 9.00045254 0 11 C0.33 11 0.66 11 1 11 C1 12.65 1 14.3 1 16 C0.34 16 -0.32 16 -1 16 C-1 15.34 -1 14.68 -1 14 C-1.99 14 -2.98 14 -4 14 C-3.71572583 12.41532272 -3.42225182 10.8322943 -3.125 9.25 C-2.96257812 8.36828125 -2.80015625 7.4865625 -2.6328125 6.578125 C-2.03203736 4.13052256 -1.22002883 2.19400143 0 0 Z " fill="#6A3D56" transform="translate(162,155)"/>
<path d="M0 0 C0.33 0.66 0.66 1.32 1 2 C-0.23944276 2.86941494 -1.49207059 3.72005457 -2.75 4.5625 C-3.44609375 5.03816406 -4.1421875 5.51382813 -4.859375 6.00390625 C-7 7 -7 7 -9.265625 6.65234375 C-9.83796875 6.43707031 -10.4103125 6.22179687 -11 6 C-10.01 5.67 -9.02 5.34 -8 5 C-8 4.01 -8 3.02 -8 2 C-5.36 1.34 -2.72 0.68 0 0 Z " fill="#795452" transform="translate(98,113)"/>
<path d="M0 0 C0.33 0 0.66 0 1 0 C1 3.96 1 7.92 1 12 C2.65 12 4.3 12 6 12 C4.71937515 13.7074998 3.38232443 15.37373596 2 17 C1.34 17 0.68 17 0 17 C0 11.39 0 5.78 0 0 Z " fill="#BDC33A" transform="translate(148,74)"/>
<path d="M0 0 C-2.36292656 2.52588702 -3.66462511 3.88820837 -7 5 C-7 4.34 -7 3.68 -7 3 C-7.99 2.67 -8.98 2.34 -10 2 C-9.34 2 -8.68 2 -8 2 C-8 1.34 -8 0.68 -8 0 C-5.13822943 -1.43088528 -3.06624227 -0.59991697 0 0 Z " fill="#6F474F" transform="translate(129,214)"/>
<path d="M0 0 C1.485 0.99 1.485 0.99 3 2 C3.1875 4.625 3.1875 4.625 3 7 C3.99 7.33 4.98 7.66 6 8 C6 9.98 6 11.96 6 14 C6.99 14.33 7.98 14.66 9 15 C7.68 15 6.36 15 5 15 C5 13.68 5 12.36 5 11 C4.34 11 3.68 11 3 11 C2.01 7.37 1.02 3.74 0 0 Z " fill="#8A7045" transform="translate(164,79)"/>
<path d="M0 0 C0.763125 0.20625 1.52625 0.4125 2.3125 0.625 C2.3125 1.285 2.3125 1.945 2.3125 2.625 C1.3225 2.625 0.3325 2.625 -0.6875 2.625 C-1.0175 3.615 -1.3475 4.605 -1.6875 5.625 C-3.75 6.3125 -3.75 6.3125 -5.6875 6.625 C-5.6875 5.965 -5.6875 5.305 -5.6875 4.625 C-4.6975 4.625 -3.7075 4.625 -2.6875 4.625 C-2.6875 3.965 -2.6875 3.305 -2.6875 2.625 C-3.6775 2.295 -4.6675 1.965 -5.6875 1.625 C-2.6875 -0.375 -2.6875 -0.375 0 0 Z " fill="#663E4F" transform="translate(50.6875,135.375)"/>
<path d="M0 0 C0.33 0 0.66 0 1 0 C1.10000385 3.50013461 0.73880926 6.58300716 0 10 C0 10.66 0 11.32 0 12 C1.98 12 3.96 12 6 12 C6 12.33 6 12.66 6 13 C3.69 13 1.38 13 -1 13 C-2.5635348 9.87293041 -2.39958487 6.42017557 -2 3 C-1.34 2.01 -0.68 1.02 0 0 Z " fill="#5A128C" transform="translate(141,89)"/>
<path d="M0 0 C0.66 0.33 1.32 0.66 2 1 C1.195625 1.886875 0.39125 2.77375 -0.4375 3.6875 C-2.7039159 6.38287032 -3.68417366 8.42063478 -4 12 C-4.12375 11.360625 -4.2475 10.72125 -4.375 10.0625 C-4.58125 9.381875 -4.7875 8.70125 -5 8 C-5.66 7.67 -6.32 7.34 -7 7 C-6.34 6.67 -5.68 6.34 -5 6 C-4.5359375 4.7625 -4.5359375 4.7625 -4.0625 3.5 C-3.711875 2.675 -3.36125 1.85 -3 1 C-2.01 0.67 -1.02 0.34 0 0 Z " fill="#5F296D" transform="translate(126,79)"/>
<path d="M0 0 C0.66 0 1.32 0 2 0 C2 3.63 2 7.26 2 11 C1.34 11 0.68 11 0 11 C-0.19406478 9.35492782 -0.38007935 7.70890406 -0.5625 6.0625 C-0.66691406 5.14597656 -0.77132812 4.22945312 -0.87890625 3.28515625 C-0.91886719 2.53105469 -0.95882812 1.77695312 -1 1 C-0.67 0.67 -0.34 0.34 0 0 Z " fill="#714C31" transform="translate(155,21)"/>
<path d="M0 0 C2.64 0 5.28 0 8 0 C8.33 1.32 8.66 2.64 9 4 C3.46153846 3.38461538 3.46153846 3.38461538 1.125 1.4375 C0.75375 0.963125 0.3825 0.48875 0 0 Z " fill="#7E5955" transform="translate(50,224)"/>
<path d="M0 0 C1.65 0.33 3.3 0.66 5 1 C4.38125 1.0825 3.7625 1.165 3.125 1.25 C2.42375 1.4975 1.7225 1.745 1 2 C0.731875 2.639375 0.46375 3.27875 0.1875 3.9375 C-1 6 -1 6 -4.625 7.25 C-5.73875 7.4975 -6.8525 7.745 -8 8 C-7 6 -7 6 -4 5 C-3.67 4.34 -3.34 3.68 -3 3 C-2.01 3 -1.02 3 0 3 C0 2.01 0 1.02 0 0 Z " fill="#652786" transform="translate(53,135)"/>
<path d="M0 0 C0 0.66 0 1.32 0 2 C-5.75 5 -5.75 5 -8 5 C-8 3 -8 3 -7 2 C-7.66 1.67 -8.32 1.34 -9 1 C-3.375 -1.125 -3.375 -1.125 0 0 Z " fill="#623F41" transform="translate(116,221)"/>
<path d="M0 0 C0.33 0.66 0.66 1.32 1 2 C-2.732388 5.57011026 -7.0949989 6.10913442 -12 7 C-9.7219796 3.58296941 -8.61627835 3.20348811 -4.875 1.8125 C-3.96492188 1.46832031 -3.05484375 1.12414062 -2.1171875 0.76953125 C-1.41851562 0.51558594 -0.71984375 0.26164062 0 0 Z " fill="#5E1C82" transform="translate(88,122)"/>
<path d="M0 0 C1.65 0.33 3.3 0.66 5 1 C4.67 2.32 4.34 3.64 4 5 C3.67 4.67 3.34 4.34 3 4 C0.99279077 4.28674418 -1.0085944 4.61866701 -3 5 C-2.01 3.35 -1.02 1.7 0 0 Z " fill="#826056" transform="translate(140,69)"/>
<path d="M0 0 C0.66 0.33 1.32 0.66 2 1 C0.1875 3.5 0.1875 3.5 -2 6 C-2.99 6 -3.98 6 -5 6 C-5 6.66 -5 7.32 -5 8 C-5.99 7.67 -6.98 7.34 -8 7 C-7.34 7 -6.68 7 -6 7 C-6 6.34 -6 5.68 -6 5 C-5.34 5 -4.68 5 -4 5 C-3.67 4.01 -3.34 3.02 -3 2 C-2.01 1.34 -1.02 0.68 0 0 Z " fill="#61237B" transform="translate(111,106)"/>
<path d="M0 0 C0.95465783 2.16967689 1.14401212 3.56328793 0.3984375 5.82421875 C-0.35870385 7.5684743 -1.17609198 9.28627131 -2 11 C-2.33 11 -2.66 11 -3 11 C-3.36923077 4.6 -3.36923077 4.6 -1.5 1.5625 C-1.005 1.046875 -0.51 0.53125 0 0 Z " fill="#72465B" transform="translate(120,87)"/>
<path d="M0 0 C0.639375 0.144375 1.27875 0.28875 1.9375 0.4375 C5.93844788 1.17236798 9.95504896 1.58581111 14 2 C14.33 2.99 14.66 3.98 15 5 C13.24788218 4.74322411 11.49832064 4.46897047 9.75 4.1875 C8.77546875 4.03667969 7.8009375 3.88585937 6.796875 3.73046875 C3.87677662 2.96781736 2.25794185 1.96225899 0 0 Z " fill="#60217D" transform="translate(48,220)"/>
<path d="M0 0 C0.99 0.33 1.98 0.66 3 1 C4.1875 4.5625 4.1875 4.5625 5 8 C4.01 7.67 3.02 7.34 2 7 C2 6.01 2 5.02 2 4 C0.68 4.33 -0.64 4.66 -2 5 C-1.34 3.35 -0.68 1.7 0 0 Z " fill="#754C55" transform="translate(161,76)"/>
<path d="M0 0 C0.66 0.33 1.32 0.66 2 1 C1.67 2.65 1.34 4.3 1 6 C0.34 6 -0.32 6 -1 6 C-1 7.65 -1 9.3 -1 11 C-1.33 11 -1.66 11 -2 11 C-2.25 3.375 -2.25 3.375 0 0 Z " fill="#866B48" transform="translate(146,38)"/>
<path d="M0 0 C0.33 0 0.66 0 1 0 C1.36923077 7.38461538 1.36923077 7.38461538 -0.5 10.5 C-0.995 10.995 -1.49 11.49 -2 12 C-2.21278058 7.53160785 -1.59138085 4.17737474 0 0 Z " fill="#652B72" transform="translate(167,131)"/>
<path d="M0 0 C0.99 0 1.98 0 3 0 C3.33 1.65 3.66 3.3 4 5 C2.68 5.33 1.36 5.66 0 6 C0 4.02 0 2.04 0 0 Z " fill="#836645" transform="translate(160,72)"/>
<path d="M0 0 C-2.8125 2.0625 -2.8125 2.0625 -6 4 C-6.99 3.67 -7.98 3.34 -9 3 C-7 0 -7 0 -4.5 -0.75 C-2 -1 -2 -1 0 0 Z " fill="#6E3F5D" transform="translate(94,119)"/>
<path d="M0 0 C0.33 0.99 0.66 1.98 1 3 C-0.9375 5.6875 -0.9375 5.6875 -3 8 C-3.1875 5.125 -3.1875 5.125 -3 2 C-2.01 1.34 -1.02 0.68 0 0 Z " fill="#764E51" transform="translate(154,88)"/>
<path d="M0 0 C0 0.99 0 1.98 0 3 C-2.5 5.1875 -2.5 5.1875 -5 7 C-4.75 4.625 -4.75 4.625 -4 2 C-1.9375 0.6875 -1.9375 0.6875 0 0 Z " fill="#8D7644" transform="translate(134,64)"/>
</svg>
