<?xml version="1.0" encoding="UTF-8"?>
<svg version="1.1" xmlns="http://www.w3.org/2000/svg" width="208" height="205">
<path d="M0 0 C1.57697566 -0.0006754 3.15395121 -0.00164739 4.73092651 -0.00289917 C8.0170797 -0.00436416 11.3032055 -0.00225985 14.58935547 0.00244141 C18.77960443 0.00814742 22.96978944 0.00484652 27.16003609 -0.00113106 C30.40986606 -0.00476113 33.65968112 -0.00358704 36.90951157 -0.00100327 C38.45391726 -0.00034125 39.99832437 -0.00113676 41.54272842 -0.00348282 C63.27476897 -0.02926883 63.27476897 -0.02926883 67.2421875 3.7578125 C68.4921875 7.1328125 68.4921875 7.1328125 67.4296875 10.8828125 C65.4921875 14.1328125 65.4921875 14.1328125 62.4921875 16.1328125 C52.64682412 17.57024598 42.49708266 17.29560815 32.56640625 17.30078125 C31.08339915 17.30400652 29.60039235 17.30737147 28.11738586 17.31086731 C25.03747825 17.31679614 21.95759845 17.31871334 18.87768555 17.31811523 C14.95314888 17.31801306 11.02879087 17.33174984 7.10429668 17.34888744 C4.05262953 17.36005176 1.00100532 17.36203321 -2.05068016 17.36150551 C-3.49740409 17.36267568 -4.9441295 17.36704252 -6.3908329 17.37483788 C-14.03225494 17.41221815 -21.16285584 17.38128851 -28.5078125 15.1328125 C-30.6328125 12.8828125 -30.6328125 12.8828125 -31.5078125 10.1328125 C-31.38275152 7.00628807 -31.17479186 4.9969429 -29.24411011 2.49557495 C-22.74263392 -2.60721825 -8.1560901 -0.01242744 0 0 Z " fill="#725145" transform="translate(90.5078125,103.8671875)"/>
<path d="M0 0 C0.80268311 -0.00511093 1.60536621 -0.01022186 2.43237305 -0.01548767 C5.0595668 -0.0292774 7.6864953 -0.02843588 10.3137207 -0.02612305 C12.15119015 -0.030014 13.9886587 -0.03434949 15.8261261 -0.03910828 C19.66487556 -0.04654624 23.50353298 -0.0462955 27.34228516 -0.04101562 C32.25842697 -0.03520458 37.17419404 -0.05220304 42.09027386 -0.0753603 C45.87954403 -0.09009227 49.66872362 -0.09097041 53.45801735 -0.08785057 C55.27088988 -0.08836341 57.08376753 -0.09359408 58.89661217 -0.10366249 C61.42871945 -0.11600804 63.96009187 -0.10924834 66.4921875 -0.09765625 C67.23775406 -0.10529999 67.98332062 -0.11294373 68.7514801 -0.12081909 C73.18732938 -0.07596537 76.04435756 0.50643927 79.55200195 3.2746582 C81.11450195 6.0871582 81.11450195 6.0871582 81.55200195 9.2746582 C78.68020708 14.71055564 78.68020708 14.71055564 75.55200195 16.2746582 C72.74120468 16.39403693 69.95443605 16.45303677 67.14257812 16.4675293 C66.27249619 16.47570679 65.40241425 16.48388428 64.50596619 16.49230957 C61.61897474 16.51717607 58.73203249 16.53368237 55.8449707 16.5480957 C54.86011499 16.55341938 53.87525928 16.55874306 52.86055946 16.56422806 C47.64825849 16.5909645 42.43598152 16.61033823 37.22363281 16.62475586 C31.83636214 16.64140925 26.44970257 16.68619152 21.06266308 16.7371273 C16.9233987 16.77076098 12.7842801 16.78232902 8.64489174 16.78798294 C6.65893188 16.79470564 4.67298195 16.80995407 2.68715477 16.83387375 C-0.09253569 16.86544644 -2.87056839 16.86557411 -5.65039062 16.8581543 C-6.88106262 16.8827623 -6.88106262 16.8827623 -8.13659668 16.90786743 C-12.38862984 16.86140419 -13.98865578 16.63091334 -17.46659851 13.9335022 C-19.44799805 11.2746582 -19.44799805 11.2746582 -19.94799805 8.1496582 C-19.44799805 5.2746582 -19.44799805 5.2746582 -18.44799805 3.5246582 C-12.95388263 0.09083607 -6.28710729 -0.02106277 0 0 Z " fill="#755346" transform="translate(77.447998046875,67.725341796875)"/>
<path d="M0 0 C0.802099 -0.0049649 1.604198 -0.00992981 2.43060303 -0.01504517 C5.07947654 -0.0296301 7.72829022 -0.03646179 10.37719727 -0.04199219 C12.2203827 -0.04774557 14.06356813 -0.05350328 15.90675354 -0.05926514 C19.76938149 -0.06976392 23.6319887 -0.07561429 27.49462891 -0.07910156 C32.4422484 -0.08459146 37.38959341 -0.10863478 42.33712673 -0.13707352 C46.14354759 -0.15570037 49.94990224 -0.16090547 53.75636482 -0.16243744 C55.58040941 -0.16546314 57.40445286 -0.17348889 59.22845268 -0.18662262 C61.78011868 -0.20368818 64.3311125 -0.20180204 66.8828125 -0.1953125 C68.01058861 -0.20913467 68.01058861 -0.20913467 69.16114807 -0.22323608 C73.61402105 -0.18778235 76.46692431 0.40733112 80.00610352 3.16113281 C81.00610352 5.09863281 81.00610352 5.09863281 81.00610352 7.16113281 C79.56860352 9.41113281 79.56860352 9.41113281 78.00610352 11.16113281 C77.51110352 8.19113281 77.51110352 8.19113281 77.00610352 5.16113281 C75.87271042 5.16113281 74.73931732 5.16113281 73.57157898 5.16113281 C43.38308716 5.16113281 13.19459534 5.16113281 -16.99389648 5.16113281 C-11.29636397 0.25492426 -7.36123343 0.01091536 0 0 Z " fill="#846154" transform="translate(76.993896484375,67.8388671875)"/>
<path d="M0 0 C0.33 0 0.66 0 1 0 C1 1.65 1 3.3 1 5 C1.99 5.495 1.99 5.495 3 6 C1.38261519 8.42607722 0.47687961 9.53676247 -2 11 C-11.35184621 12.50394869 -21.12605316 12.15957106 -30.578125 12.16796875 C-31.92421501 12.171196 -33.2703047 12.17456106 -34.61639404 12.17805481 C-37.40963555 12.18397691 -40.20284642 12.18590157 -42.99609375 12.18530273 C-46.54836669 12.18520062 -50.10044201 12.19893498 -53.652668 12.21607494 C-56.42214845 12.22726113 -59.19158174 12.22922005 -61.96108246 12.22869301 C-63.89848824 12.23042005 -65.83587932 12.24120023 -67.77325439 12.25224304 C-81.64419303 12.21654139 -81.64419303 12.21654139 -88 10 C-88.33 9.34 -88.66 8.68 -89 8 C-60.29 8 -31.58 8 -2 8 C-2 7.34 -2 6.68 -2 6 C-1.34 6 -0.68 6 0 6 C0 4.02 0 2.04 0 0 Z " fill="#935D53" transform="translate(155,109)"/>
<path d="M0 0 C9.57 0 19.14 0 29 0 C29 0.66 29 1.32 29 2 C37.58 2 46.16 2 55 2 C55 2.33 55 2.66 55 3 C35.53 3 16.06 3 -4 3 C-2.68 2.67 -1.36 2.34 0 2 C0 1.34 0 0.68 0 0 Z " fill="#946B61" transform="translate(98,68)"/>
<path d="M0 0 C0.33 0 0.66 0 1 0 C1 1.65 1 3.3 1 5 C1.66 5.33 2.32 5.66 3 6 C1.38609246 8.42086131 0.46141701 9.5251033 -2 11 C-6.63187033 11.92377189 -11.29088918 11.96226002 -16 12 C-16.82693359 12.00837891 -17.65386719 12.01675781 -18.50585938 12.02539062 C-24.00472293 12.07022939 -29.50126074 12.05275976 -35 12 C-32.56153479 9.56153479 -31.81673975 9.72338397 -28.46484375 9.62109375 C-27.12776367 9.56985352 -27.12776367 9.56985352 -25.76367188 9.51757812 C-24.83103516 9.49115234 -23.89839844 9.46472656 -22.9375 9.4375 C-21.09231018 9.37781389 -19.24724103 9.31422537 -17.40234375 9.24609375 C-16.58241943 9.22216553 -15.76249512 9.1982373 -14.91772461 9.17358398 C-12.99218738 9.2056821 -12.99218738 9.2056821 -12 8 C-10.31391034 7.92794489 -8.62499341 7.91613932 -6.9375 7.9375 C-6.01839844 7.94652344 -5.09929687 7.95554687 -4.15234375 7.96484375 C-3.44207031 7.97644531 -2.73179687 7.98804687 -2 8 C-2 7.34 -2 6.68 -2 6 C-1.34 6 -0.68 6 0 6 C0 4.02 0 2.04 0 0 Z " fill="#9C574F" transform="translate(155,109)"/>
<path d="M0 0 C11.55 0 23.1 0 35 0 C34.67 0.66 34.34 1.32 34 2 C30.20929427 2.22905387 26.41756586 2.4293694 22.625 2.625 C21.03365234 2.72167969 21.03365234 2.72167969 19.41015625 2.8203125 C12.61791325 3.15367412 6.59038942 2.70342465 0 1 C0 0.67 0 0.34 0 0 Z " fill="#8D6F64" transform="translate(108,117)"/>
<path d="M0 0 C1.07765625 0.00902344 2.1553125 0.01804687 3.265625 0.02734375 C4.08546875 0.03894531 4.9053125 0.05054687 5.75 0.0625 C5.75 0.7225 5.75 1.3825 5.75 2.0625 C9.05 2.0625 12.35 2.0625 15.75 2.0625 C15.75 2.3925 15.75 2.7225 15.75 3.0625 C15.09515625 3.08231934 14.4403125 3.10213867 13.765625 3.12255859 C10.76005552 3.21860522 7.75510669 3.32795784 4.75 3.4375 C3.72003906 3.4684375 2.69007812 3.499375 1.62890625 3.53125 C-4.28818471 3.75738086 -9.56745519 4.38232449 -15.25 6.0625 C-10.11816675 0.50301398 -7.41036048 -0.0805474 0 0 Z " fill="#8C695E" transform="translate(75.25,67.9375)"/>
<path d="M0 0 C10.89 0 21.78 0 33 0 C33 0.33 33 0.66 33 1 C7.80406881 3.86660295 7.80406881 3.86660295 1 2 C0.67 1.34 0.34 0.68 0 0 Z " fill="#8C6F63" transform="translate(66,117)"/>
<path d="M0 0 C5.61 0 11.22 0 17 0 C17 0.66 17 1.32 17 2 C11.1314592 3.14819277 5.9114744 2.77313045 0 2 C0 1.34 0 0.68 0 0 Z " fill="#A64F46" transform="translate(81,68)"/>
<path d="M0 0 C-0.66 0 -1.32 0 -2 0 C-2 0.66 -2 1.32 -2 2 C-2.66 2 -3.32 2 -4 2 C-4 3.65 -4 5.3 -4 7 C-4.99 7.33 -5.98 7.66 -7 8 C-7.625 5.6875 -7.625 5.6875 -8 3 C-5.45189726 -0.82215411 -4.39145359 -1.46381786 0 0 Z " fill="#805E53" transform="translate(67,107)"/>
<path d="M0 0 C2.64 0 5.28 0 8 0 C8 0.66 8 1.32 8 2 C8.66 2.33 9.32 2.66 10 3 C5.38 3 0.76 3 -4 3 C-2.68 2.67 -1.36 2.34 0 2 C0 1.34 0 0.68 0 0 Z " fill="#8F6C63" transform="translate(98,68)"/>
<path d="M0 0 C0.33 0 0.66 0 1 0 C1 1.65 1 3.3 1 5 C1.66 5.33 2.32 5.66 3 6 C0.75 8.5625 0.75 8.5625 -2 11 C-4.3125 10.8125 -4.3125 10.8125 -6 10 C-5.01 9.67 -4.02 9.34 -3 9 C-2.67 8.01 -2.34 7.02 -2 6 C-1.34 6 -0.68 6 0 6 C0 4.02 0 2.04 0 0 Z " fill="#865F56" transform="translate(155,109)"/>
</svg>
