<?xml version="1.0" encoding="UTF-8"?>
<svg version="1.1" xmlns="http://www.w3.org/2000/svg" width="195" height="216">
<path d="M0 0 C1.09054688 0.02320312 2.18109375 0.04640625 3.3046875 0.0703125 C4.40039062 0.08835937 5.49609375 0.10640625 6.625 0.125 C7.88957031 0.15980469 7.88957031 0.15980469 9.1796875 0.1953125 C10.1696875 2.6703125 10.1696875 2.6703125 11.1796875 5.1953125 C10.53515625 5.6490625 9.890625 6.1028125 9.2265625 6.5703125 C6.14242515 10.52554208 6.50411005 14.30566564 6.4296875 19.1953125 C6.40148926 20.14212891 6.37329102 21.08894531 6.34423828 22.06445312 C6.26946799 24.77476001 6.22085915 27.48431763 6.1796875 30.1953125 C6.15132813 31.38125 6.12296875 32.5671875 6.09375 33.7890625 C6.05600209 36.59750671 6.09208755 39.38813241 6.1796875 42.1953125 C6.20804687 43.25878906 6.23640625 44.32226562 6.265625 45.41796875 C6.83014665 56.91001666 9.46446264 65.86110263 17.9921875 73.8203125 C21.05937056 76.31794089 21.05937056 76.31794089 24.6171875 77.5703125 C34.27922961 81.97755978 38.07044266 90.95531563 42.1796875 100.1953125 C43.61480762 104.50067286 43.53299531 108.88721429 43.69726562 113.390625 C43.8802271 117.13270503 44.05653102 119.01057779 46.1796875 122.1953125 C48.42153553 139.64585758 45.53016028 157.25363865 36.1796875 172.1953125 C33.28519966 175.52696464 31.28413751 177.69644915 26.8671875 178.3828125 C23.90250961 178.8916021 21.11629005 179.49847325 18.2421875 180.3828125 C12.703216 181.73727273 7.07197936 181.76966286 1.9765625 178.99609375 C-0.08113218 177.49994552 -1.95081457 175.91976318 -3.8203125 174.1953125 C-4.655625 173.46054687 -4.655625 173.46054687 -5.5078125 172.7109375 C-13.16488606 165.58985909 -19.30467572 153.17986991 -19.98144531 142.70019531 C-20.2894762 122.14808773 -20.4801211 99.45728597 -5.8203125 83.1953125 C-4.82519046 82.19045822 -3.82589896 81.18969465 -2.8203125 80.1953125 C-2.3871875 79.6796875 -1.9540625 79.1640625 -1.5078125 78.6328125 C0.81641837 76.65291213 3.27633336 76.03405925 6.1796875 75.1953125 C5.78136719 74.55207031 5.38304687 73.90882812 4.97265625 73.24609375 C4.44285156 72.34246094 3.91304688 71.43882813 3.3671875 70.5078125 C2.84511719 69.63769531 2.32304688 68.76757812 1.78515625 67.87109375 C-3.37140232 57.27877476 -3.33292832 45.38868187 -3.5078125 33.8828125 C-3.54108346 32.35218622 -3.57558162 30.8215861 -3.61132812 29.29101562 C-3.6950899 25.59264075 -3.76241252 21.89419353 -3.8203125 18.1953125 C-5.3053125 18.6903125 -5.3053125 18.6903125 -6.8203125 19.1953125 C-6.8203125 19.8553125 -6.8203125 20.5153125 -6.8203125 21.1953125 C-7.4803125 21.1953125 -8.1403125 21.1953125 -8.8203125 21.1953125 C-9.06652344 21.74445312 -9.31273438 22.29359375 -9.56640625 22.859375 C-11.07888795 25.67702004 -12.92074077 28.0441884 -14.8828125 30.5703125 C-19.14331737 36.14608851 -23.00894681 41.91255342 -26.73046875 47.859375 C-28.04352725 49.95535998 -29.38131938 52.03625615 -30.75390625 54.09375 C-33.87362629 58.79465294 -33.87362629 58.79465294 -35.0078125 64.1953125 C-33.57205893 67.82247941 -31.77717527 71.20253579 -29.9609375 74.65234375 C-28.36541126 78.20949299 -28.10155558 81.32822021 -27.8203125 85.1953125 C-27.4903125 85.5253125 -27.1603125 85.8553125 -26.8203125 86.1953125 C-25.83677542 94.3914548 -28.9752664 101.65485719 -31.8203125 109.1953125 C-32.18189453 110.19522217 -32.18189453 110.19522217 -32.55078125 111.21533203 C-36.93896287 123.19286215 -43.87206347 135.03134955 -54.8203125 142.1953125 C-55.6659375 142.5253125 -56.5115625 142.8553125 -57.3828125 143.1953125 C-59.83849077 143.9909348 -59.83849077 143.9909348 -61.1328125 145.6953125 C-65.60941744 149.67451689 -71.74744216 149.34267793 -77.3828125 149.0703125 C-84.83504718 148.31304154 -89.04209346 146.34786044 -94.1328125 140.7578125 C-100.37635868 132.95337978 -100.29566334 123.81202572 -99.8203125 114.1953125 C-98.73303128 104.98782977 -96.16021782 95.14875705 -89.8203125 88.1953125 C-89.1396875 87.0196875 -89.1396875 87.0196875 -88.4453125 85.8203125 C-86.63736542 82.89978259 -84.55444276 80.45561766 -82.28515625 77.88671875 C-80.6940774 76.09623878 -80.6940774 76.09623878 -78.9453125 73.6328125 C-72.35093831 66.06867739 -63.00635483 60.68695973 -52.9375 59.88671875 C-49.54912078 59.88329614 -46.20060167 59.97029325 -42.8203125 60.1953125 C-42.54832031 59.30457031 -42.27632812 58.41382813 -41.99609375 57.49609375 C-40.9182302 54.47019774 -39.70904808 52.08952768 -38.0078125 49.3828125 C-35.13287007 44.72780744 -32.44151664 39.99698735 -29.8203125 35.1953125 C-29.1603125 35.1953125 -28.5003125 35.1953125 -27.8203125 35.1953125 C-27.75714844 34.51082031 -27.69398437 33.82632813 -27.62890625 33.12109375 C-26.53441383 29.16082891 -24.41272691 26.56560805 -21.8828125 23.3828125 C-21.42712891 22.78533203 -20.97144531 22.18785156 -20.50195312 21.57226562 C-19.32886982 20.06941366 -18.07974303 18.6265788 -16.8203125 17.1953125 C-16.1603125 17.1953125 -15.5003125 17.1953125 -14.8203125 17.1953125 C-14.8203125 16.5353125 -14.8203125 15.8753125 -14.8203125 15.1953125 C-13.359375 13.6875 -13.359375 13.6875 -11.4453125 12.0703125 C-10.81882812 11.53148437 -10.19234375 10.99265625 -9.546875 10.4375 C-7.8203125 9.1953125 -7.8203125 9.1953125 -5.8203125 9.1953125 C-5.6346875 7.5246875 -5.6346875 7.5246875 -5.4453125 5.8203125 C-4.7112411 1.56269841 -4.41018691 0.30541461 0 0 Z " fill="#40007F" transform="translate(124.8203125,17.8046875)"/>
<path d="M0 0 C1.875 1 1.875 1 3.125 4.0625 C3.3725 5.031875 3.62 6.00125 3.875 7 C8.61714954 6.05496519 8.61714954 6.05496519 12.375 3.3125 C13.875 2 13.875 2 17.0625 1.8125 C23.76517737 3.90021918 27.58155909 8.48285183 30.90234375 14.5390625 C35.08925632 22.62446055 37.06262882 29.149873 37.39257812 38.1953125 C37.5755396 41.93739253 37.75184352 43.81526529 39.875 47 C42.11684803 64.45054508 39.22547278 82.05832615 29.875 97 C26.98051216 100.33165214 24.97945001 102.50113665 20.5625 103.1875 C17.59782211 103.6962896 14.81160255 104.30316075 11.9375 105.1875 C6.3985285 106.54196023 0.76729186 106.57435036 -4.328125 103.80078125 C-6.38581968 102.30463302 -8.25550207 100.72445068 -10.125 99 C-10.681875 98.51015625 -11.23875 98.0203125 -11.8125 97.515625 C-19.46957356 90.39454659 -25.60936322 77.98455741 -26.28613281 67.50488281 C-26.5941637 46.95277523 -26.7848086 24.26197347 -12.125 8 C-11.13234365 6.99270989 -10.13334448 5.9915853 -9.125 5 C-8.650625 4.484375 -8.17625 3.96875 -7.6875 3.4375 C-5.26668847 1.21035339 -3.33867456 0 0 0 Z " fill="#40007F" transform="translate(131.125,93)"/>
<path d="M0 0 C1.09054688 0.02320312 2.18109375 0.04640625 3.3046875 0.0703125 C4.40039062 0.08835937 5.49609375 0.10640625 6.625 0.125 C7.88957031 0.15980469 7.88957031 0.15980469 9.1796875 0.1953125 C9.8396875 1.8453125 10.4996875 3.4953125 11.1796875 5.1953125 C10.53515625 5.6490625 9.890625 6.1028125 9.2265625 6.5703125 C6.14242515 10.52554208 6.50411005 14.30566564 6.4296875 19.1953125 C6.40148926 20.14212891 6.37329102 21.08894531 6.34423828 22.06445312 C6.26946799 24.77476001 6.22085915 27.48431763 6.1796875 30.1953125 C6.13714844 31.97421875 6.13714844 31.97421875 6.09375 33.7890625 C6.05600209 36.59750671 6.09208755 39.38813241 6.1796875 42.1953125 C6.20804688 43.25878906 6.23640625 44.32226562 6.265625 45.41796875 C6.72383368 54.74578826 8.31783644 64.33346144 15.1796875 71.1953125 C17.13854558 72.92740622 19.13154149 74.56610545 21.1796875 76.1953125 C19.6171875 78.6328125 19.6171875 78.6328125 17.1796875 81.1953125 C13.4296875 82.0078125 13.4296875 82.0078125 10.1796875 82.1953125 C9.9115625 81.2259375 9.6434375 80.2565625 9.3671875 79.2578125 C8.9753125 78.2471875 8.5834375 77.2365625 8.1796875 76.1953125 C7.1896875 75.8653125 6.1996875 75.5353125 5.1796875 75.1953125 C4.1796875 73.0078125 4.1796875 73.0078125 3.1796875 70.1953125 C2.7053125 69.3703125 2.2309375 68.5453125 1.7421875 67.6953125 C-3.08760988 56.87656637 -3.33115349 45.50545018 -3.5078125 33.8828125 C-3.54108346 32.35218622 -3.57558162 30.8215861 -3.61132812 29.29101562 C-3.6950899 25.59264075 -3.76241252 21.89419353 -3.8203125 18.1953125 C-4.8103125 18.5253125 -5.8003125 18.8553125 -6.8203125 19.1953125 C-6.8203125 19.8553125 -6.8203125 20.5153125 -6.8203125 21.1953125 C-7.4803125 21.1953125 -8.1403125 21.1953125 -8.8203125 21.1953125 C-9.06652344 21.74445312 -9.31273437 22.29359375 -9.56640625 22.859375 C-11.07888795 25.67702004 -12.92074077 28.0441884 -14.8828125 30.5703125 C-19.14618744 36.14984462 -23.01375161 41.92059826 -26.73828125 47.87109375 C-28.0262094 49.92742931 -29.33703405 51.96985319 -30.68359375 53.98828125 C-34.27975349 59.52413574 -35.60671528 63.57379855 -35.8203125 70.1953125 C-43.1231294 70.55446743 -43.1231294 70.55446743 -45.8828125 69.1328125 C-47.37269311 66.0537259 -46.49513768 63.44674292 -45.8203125 60.1953125 C-44.8303125 60.1953125 -43.8403125 60.1953125 -42.8203125 60.1953125 C-42.5109375 59.0196875 -42.5109375 59.0196875 -42.1953125 57.8203125 C-40.67359403 53.80850925 -38.66598279 50.44849855 -36.41796875 46.80859375 C-34.09340793 43.00631701 -31.95527574 39.10626286 -29.8203125 35.1953125 C-29.1603125 35.1953125 -28.5003125 35.1953125 -27.8203125 35.1953125 C-27.75714844 34.51082031 -27.69398437 33.82632813 -27.62890625 33.12109375 C-26.53441383 29.16082891 -24.41272691 26.56560805 -21.8828125 23.3828125 C-21.42712891 22.78533203 -20.97144531 22.18785156 -20.50195312 21.57226562 C-19.32886982 20.06941366 -18.07974303 18.6265788 -16.8203125 17.1953125 C-16.1603125 17.1953125 -15.5003125 17.1953125 -14.8203125 17.1953125 C-14.8203125 16.5353125 -14.8203125 15.8753125 -14.8203125 15.1953125 C-13.359375 13.6875 -13.359375 13.6875 -11.4453125 12.0703125 C-10.81882813 11.53148437 -10.19234375 10.99265625 -9.546875 10.4375 C-7.8203125 9.1953125 -7.8203125 9.1953125 -5.8203125 9.1953125 C-5.6346875 7.5246875 -5.6346875 7.5246875 -5.4453125 5.8203125 C-4.7112411 1.56269841 -4.41018691 0.30541461 0 0 Z " fill="#755347" transform="translate(124.8203125,17.8046875)"/>
<path d="M0 0 C-0.62373903 2.95150735 -1.3562316 4.60904113 -2.9375 7.3125 C-5.67372142 12.52718284 -5.99801114 18.14001219 -6.60546875 23.90234375 C-7 27 -7 27 -8 28 C-8.21145071 30.07926529 -8.36904772 32.1641172 -8.5 34.25 C-8.70629426 37.5065022 -8.91588092 40.60375485 -9.59375 43.796875 C-10.23456109 46.0325398 -10.23456109 46.0325398 -9 48 C-8.92907158 50.2072923 -8.91584975 52.41667452 -8.9375 54.625 C-8.94652344 55.81351563 -8.95554687 57.00203125 -8.96484375 58.2265625 C-8.98224609 59.59941406 -8.98224609 59.59941406 -9 61 C-8.34 61 -7.68 61 -7 61 C-5.03181664 66.82254243 -3.59785771 71.83381819 -4 78 C-3.0409375 78.2165625 -3.0409375 78.2165625 -2.0625 78.4375 C0 79 0 79 1 80 C1.04063832 81.66617115 1.042721 83.33388095 1 85 C-5.11007084 82.96675007 -7.07881194 79.54413964 -10 74 C-18.85067479 55.90477223 -16.6554126 33.08609651 -10.86328125 14.31640625 C-5.80386009 0 -5.80386009 0 0 0 Z " fill="#56206B" transform="translate(120,104)"/>
<path d="M0 0 C2.0625 0.4375 2.0625 0.4375 4 1 C4.8417016 9.24867573 1.86342576 16.41083159 -1 24 C-1.36158203 24.99990967 -1.36158203 24.99990967 -1.73046875 26.02001953 C-5.97421601 37.60331644 -12.99357669 50.50552662 -24 57 C-25.32 57 -26.64 57 -28 57 C-28.25 54.6875 -28.25 54.6875 -28 52 C-26.1875 50.1875 -26.1875 50.1875 -24 49 C-23.01 49 -22.02 49 -21 49 C-20.73960938 48.43539062 -20.47921875 47.87078125 -20.2109375 47.2890625 C-18.8856488 44.78383934 -17.31910139 42.64613155 -15.625 40.375 C-11.00354778 33.84719873 -7.84477361 27.0253493 -7 19 C-6.34 19 -5.68 19 -5 19 C-4.67 16.69 -4.34 14.38 -4 12 C-3.01 11.67 -2.02 11.34 -1 11 C-1.01160156 10.28972656 -1.02320312 9.57945313 -1.03515625 8.84765625 C-1.04417969 7.92855469 -1.05320312 7.00945312 -1.0625 6.0625 C-1.07410156 5.14597656 -1.08570312 4.22945313 -1.09765625 3.28515625 C-1 1 -1 1 0 0 Z " fill="#6C4347" transform="translate(94,103)"/>
<path d="M0 0 C1.32 0.66 2.64 1.32 4 2 C4.49562798 20.7118625 4.6295567 39.98681035 -8.55078125 54.8828125 C-11 57 -11 57 -13.8125 57.3125 C-14.8953125 57.1578125 -14.8953125 57.1578125 -16 57 C-16.33 55.35 -16.66 53.7 -17 52 C-16.443125 51.938125 -15.88625 51.87625 -15.3125 51.8125 C-11.91205156 50.61774785 -10.27190387 48.76312633 -8 46 C-7.12010026 42.81849108 -7.12010026 42.81849108 -7 40 C-6.01 40 -5.02 40 -4 40 C-4.04125 39.21625 -4.0825 38.4325 -4.125 37.625 C-3.9637033 32.9473956 -3.00914339 28.55916568 -2 24 C-1.34 24 -0.68 24 0 24 C0 16.08 0 8.16 0 0 Z " fill="#775357" transform="translate(167,138)"/>
<path d="M0 0 C-0.11562606 1.39664108 -0.242992 2.79231199 -0.375 4.1875 C-0.44460937 4.96480469 -0.51421875 5.74210937 -0.5859375 6.54296875 C-1 9 -1 9 -2 11.26757812 C-3.13399306 14.36612558 -3.31671856 16.88231129 -3.4140625 20.17578125 C-3.45273437 21.33271484 -3.49140625 22.48964844 -3.53125 23.68164062 C-3.57765625 25.47891602 -3.57765625 25.47891602 -3.625 27.3125 C-3.66367187 28.53001953 -3.70234375 29.74753906 -3.7421875 31.00195312 C-3.83628002 34.00115228 -3.92192209 37.00034823 -4 40 C-5.98 40.495 -5.98 40.495 -8 41 C-12.61665378 28.30420211 -9.35928101 15.45411888 -5.09765625 3.15234375 C-3.85248032 0.71073543 -2.92459808 0 0 0 Z " fill="#6A4648" transform="translate(35,110)"/>
<path d="M0 0 C-0.62373903 2.95150735 -1.3562316 4.60904113 -2.9375 7.3125 C-6.0978668 13.34592753 -6.33914317 20.32186787 -7 27 C-7.99 27.33 -8.98 27.66 -10 28 C-10 31.96 -10 35.92 -10 40 C-12.475 40.495 -12.475 40.495 -15 41 C-15.29632439 28.92868024 -13.00527193 10.86747744 -4.3125 1.6875 C-2 0 -2 0 0 0 Z " fill="#61374C" transform="translate(120,104)"/>
<path d="M0 0 C5.19755093 0.66635268 6.97779015 2.54934937 10.22265625 6.46875 C15.29917544 13.69860591 19.15805985 21.30043405 19.0625 30.1875 C19.05347656 31.27417969 19.04445312 32.36085937 19.03515625 33.48046875 C19.02355469 34.31191406 19.01195312 35.14335937 19 36 C18.01 36 17.02 36 16 36 C15.72285156 34.81921875 15.44570312 33.6384375 15.16015625 32.421875 C14.7942857 30.86457984 14.42839946 29.30728837 14.0625 27.75 C13.88009766 26.97269531 13.69769531 26.19539063 13.50976562 25.39453125 C13.33251953 24.64042969 13.15527344 23.88632813 12.97265625 23.109375 C12.72914429 22.07248535 12.72914429 22.07248535 12.48071289 21.01464844 C12.0014338 19.00600899 11.50453398 17.00243058 11 15 C10.34 15 9.68 15 9 15 C7.34375 12.734375 7.34375 12.734375 5.5 9.75 C4.8915625 8.77546875 4.283125 7.8009375 3.65625 6.796875 C2.33286152 4.56209634 1.11563585 2.34283528 0 0 Z " fill="#724C4F" transform="translate(149,97)"/>
<path d="M0 0 C0 0.99 0 1.98 0 3 C-1.3203125 4.28125 -1.3203125 4.28125 -3.125 5.5 C-3.76179688 5.93570313 -4.39859375 6.37140625 -5.0546875 6.8203125 C-7 8 -7 8 -10.25 9.375 C-14.09239005 11.64550321 -14.58669541 13.83860315 -16 18 C-17.65 18 -19.3 18 -21 18 C-21.33 17.01 -21.66 16.02 -22 15 C-17.72314263 6.60733846 -9.56277082 -0.25845327 0 0 Z " fill="#663D4C" transform="translate(64,82)"/>
<path d="M0 0 C2.0625 0.4375 2.0625 0.4375 4 1 C4.19392201 6.52677733 3.7479503 10.75614911 2 16 C0.35 15.67 -1.3 15.34 -3 15 C-3 17.31 -3 19.62 -3 22 C-3.66 22 -4.32 22 -5 22 C-5.103125 22.515625 -5.20625 23.03125 -5.3125 23.5625 C-6.24478997 26.86789172 -7.53598504 29.89628829 -9 33 C-9.99 33.495 -9.99 33.495 -11 34 C-10.79503906 33.41992188 -10.59007813 32.83984375 -10.37890625 32.2421875 C-8.85990187 27.8378016 -7.5952849 23.64322223 -7 19 C-6.34 19 -5.68 19 -5 19 C-4.67 16.69 -4.34 14.38 -4 12 C-3.01 11.67 -2.02 11.34 -1 11 C-1.01160156 10.28972656 -1.02320312 9.57945313 -1.03515625 8.84765625 C-1.04869141 7.46900391 -1.04869141 7.46900391 -1.0625 6.0625 C-1.07410156 5.14597656 -1.08570312 4.22945313 -1.09765625 3.28515625 C-1 1 -1 1 0 0 Z " fill="#60315A" transform="translate(94,103)"/>
<path d="M0 0 C2.78195059 2.78195059 3.10184125 5.96563032 3.9375 9.6875 C4.8847352 13.89353614 5.86078103 17.8857093 7.6171875 21.8359375 C8.95847679 24.90498927 9.29908484 26.7100668 9 30 C5.4746259 28.38840041 4.16711945 27.33671474 2.41796875 23.8125 C1.98431881 22.5494904 1.57504468 21.27791026 1.1875 20 C0.97593262 19.33661621 0.76436523 18.67323242 0.54638672 17.98974609 C-1.13327841 12.35697079 -1.81173085 6.86765443 -1 1 C-0.67 0.67 -0.34 0.34 0 0 Z " fill="#704B4D" transform="translate(106,151)"/>
<path d="M0 0 C0.33 1.32 0.66 2.64 1 4 C1.99 4 2.98 4 4 4 C4.66 6.31 5.32 8.62 6 11 C5.34 10.67 4.68 10.34 4 10 C3.67 17.59 3.34 25.18 3 33 C2.34 33 1.68 33 1 33 C1.061875 34.7325 1.061875 34.7325 1.125 36.5 C1.14087433 40.94481301 0.21793105 44.73724131 -1 49 C-1.99 49 -2.98 49 -4 49 C-3.938125 49.928125 -3.87625 50.85625 -3.8125 51.8125 C-4 55 -4 55 -5.375 56.875 C-7 58 -7 58 -9 58 C-9.33 58.66 -9.66 59.32 -10 60 C-10 56 -10 56 -8.625 54.25 C-7 53 -7 53 -5 53 C-5 51.35 -5 49.7 -5 48 C-4.34 48 -3.68 48 -3 48 C-3 45.69 -3 43.38 -3 41 C-1.515 40.505 -1.515 40.505 0 40 C-0.01160156 39.21753906 -0.02320313 38.43507812 -0.03515625 37.62890625 C-0.04417969 36.61699219 -0.05320313 35.60507813 -0.0625 34.5625 C-0.07410156 33.55316406 -0.08570313 32.54382813 -0.09765625 31.50390625 C0 29 0 29 1 28 C1.0991657 26.37742456 1.13079777 24.75060169 1.1328125 23.125 C1.13410156 22.14015625 1.13539063 21.1553125 1.13671875 20.140625 C1.13285156 19.10421875 1.12898437 18.0678125 1.125 17 C1.12886719 15.96359375 1.13273438 14.9271875 1.13671875 13.859375 C1.13542969 12.87453125 1.13414062 11.8896875 1.1328125 10.875 C1.13168457 9.96492187 1.13055664 9.05484375 1.12939453 8.1171875 C1.23560009 6.0147152 1.23560009 6.0147152 0 5 C-0.04063832 3.33382885 -0.042721 1.66611905 0 0 Z " fill="#56216F" transform="translate(164,129)"/>
<path d="M0 0 C3.95173157 1.97586579 5.48019226 7.03256181 7 11 C7.37632782 13.83379381 7.26559161 16.13161058 7 19 C6.34 19.33 5.68 19.66 5 20 C4.53248212 22.35599235 4.53248212 22.35599235 4.375 25.0625 C4.30023438 25.98160156 4.22546875 26.90070313 4.1484375 27.84765625 C4.09945312 28.55792969 4.05046875 29.26820312 4 30 C3.67 30 3.34 30 3 30 C3 24.06 3 18.12 3 12 C2.34 12 1.68 12 1 12 C1 10.35 1 8.7 1 7 C-0.36125 6.7834375 -0.36125 6.7834375 -1.75 6.5625 C-4.21476956 6.13590527 -6.58847107 5.64925779 -9 5 C-8.67 4.34 -8.34 3.68 -8 3 C-5.36 3.33 -2.72 3.66 0 4 C0 2.68 0 1.36 0 0 Z " fill="#511E62" transform="translate(89,84)"/>
<path d="M0 0 C5.23875527 -0.42940617 5.23875527 -0.42940617 8 0 C10.0625 2.125 10.0625 2.125 11 5 C10.6875 8.3125 10.6875 8.3125 10 11 C4.37082652 10.59791618 1.99613521 8.71069698 -2 5 C-1.34 3.35 -0.68 1.7 0 0 Z " fill="#86351D" transform="translate(34,155)"/>
<path d="M0 0 C-0.11562606 1.39664108 -0.242992 2.79231199 -0.375 4.1875 C-0.44460937 4.96480469 -0.51421875 5.74210937 -0.5859375 6.54296875 C-1 9 -1 9 -2 11.26757812 C-3.13399306 14.36612558 -3.31671856 16.88231129 -3.4140625 20.17578125 C-3.45273437 21.33271484 -3.49140625 22.48964844 -3.53125 23.68164062 C-3.5621875 24.87982422 -3.593125 26.07800781 -3.625 27.3125 C-3.66367187 28.53001953 -3.70234375 29.74753906 -3.7421875 31.00195312 C-3.83628002 34.00115228 -3.92192209 37.00034823 -4 40 C-4.33 40 -4.66 40 -5 40 C-7.0571135 33.31438112 -7.48067514 26.98655725 -7 20 C-6.67 19.67 -6.34 19.34 -6 19 C-5.73673186 17.02548895 -5.47779044 15.05011393 -5.2578125 13.0703125 C-5 11 -5 11 -4.375 8.125 C-3.77439854 5.95466382 -3.77439854 5.95466382 -5 4 C-4.67 3.01 -4.34 2.02 -4 1 C-1 0 -1 0 0 0 Z " fill="#653858" transform="translate(35,110)"/>
<path d="M0 0 C2 2 2 2 2 5 C1.34 5 0.68 5 0 5 C0 5.99 0 6.98 0 8 C-6.625 9.125 -6.625 9.125 -10 8 C-10.21917317 5.29686424 -10.32851983 3.56041618 -8.9375 1.1875 C-5.94449731 -0.646921 -3.42183337 -0.31107576 0 0 Z " fill="#70272F" transform="translate(143,190)"/>
<path d="M0 0 C0.33 1.32 0.66 2.64 1 4 C-1.31 4 -3.62 4 -6 4 C-6 5.98 -6 7.96 -6 10 C-7.65 10.33 -9.3 10.66 -11 11 C-10.938125 12.093125 -10.87625 13.18625 -10.8125 14.3125 C-11 18 -11 18 -12.5 19.9375 C-12.995 20.288125 -13.49 20.63875 -14 21 C-14 18.69 -14 16.38 -14 14 C-14.66 13.67 -15.32 13.34 -16 13 C-15.566875 12.443125 -15.13375 11.88625 -14.6875 11.3125 C-12.9493204 9.0120105 -12.9493204 9.0120105 -11.5 6.4375 C-10.15236227 4.24758869 -8.9746406 2.63122485 -7 1 C-6.34 1 -5.68 1 -5 1 C-5 1.66 -5 2.32 -5 3 C-3.35 3 -1.7 3 0 3 C0 2.01 0 1.02 0 0 Z " fill="#552465" transform="translate(48,97)"/>
<path d="M0 0 C0.99 0 1.98 0 3 0 C3.0291544 3.39581516 3.04685068 6.79159786 3.0625 10.1875 C3.07087891 11.14720703 3.07925781 12.10691406 3.08789062 13.09570312 C3.09111328 14.02705078 3.09433594 14.95839844 3.09765625 15.91796875 C3.10289307 16.77156982 3.10812988 17.6251709 3.11352539 18.50463867 C2.99579323 21.09246747 2.57107044 23.47661953 2 26 C0.68 25.67 -0.64 25.34 -2 25 C-2 24.01 -2 23.02 -2 22 C-1.34 22 -0.68 22 0 22 C0 14.74 0 7.48 0 0 Z " fill="#7F5D54" transform="translate(168,141)"/>
<path d="M0 0 C0.33 0 0.66 0 1 0 C1.042721 1.66611905 1.04063832 3.33382885 1 5 C0.67 5.33 0.34 5.66 0 6 C-0.15858842 8.14386657 -0.25129298 10.29266838 -0.31640625 12.44140625 C-0.35830078 13.74658203 -0.40019531 15.05175781 -0.44335938 16.39648438 C-0.48317608 17.7851533 -0.52288825 19.17382522 -0.5625 20.5625 C-0.60567989 21.95509183 -0.649294 23.34767028 -0.69335938 24.74023438 C-0.79985876 28.16004801 -0.90186923 31.57993763 -1 35 C2.96 35 6.92 35 11 35 C10.67 35.99 10.34 36.98 10 38 C9.67 37.67 9.34 37.34 9 37 C6.32941149 36.85884839 3.67567762 36.95752893 1 37 C0.67 37.99 0.34 38.98 0 40 C-3 39 -3 39 -5 36 C-5 34.68 -5 33.36 -5 32 C-4.34 31.67 -3.68 31.34 -3 31 C-2.98018066 30.23856689 -2.96036133 29.47713379 -2.93994141 28.69262695 C-2.84450078 25.23224528 -2.73489788 21.77245145 -2.625 18.3125 C-2.5940625 17.11431641 -2.563125 15.91613281 -2.53125 14.68164062 C-2.49257813 13.52470703 -2.45390625 12.36777344 -2.4140625 11.17578125 C-2.36693115 9.58117065 -2.36693115 9.58117065 -2.31884766 7.9543457 C-1.99639487 4.96659595 -1.25206416 2.71719889 0 0 Z " fill="#4C0F70" transform="translate(33,119)"/>
<path d="M0 0 C0.66 0 1.32 0 2 0 C2.125 7.75 2.125 7.75 1 10 C0.77141886 12.0374763 0.58975722 14.08040303 0.4375 16.125 C0.35371094 17.22070312 0.26992187 18.31640625 0.18359375 19.4453125 C0.12300781 20.28835937 0.06242187 21.13140625 0 22 C-1.65 22.33 -3.3 22.66 -5 23 C-5.37616822 16.60514019 -5.37616822 16.60514019 -3.5625 13.6875 C-1.52135533 10.17673116 -1.45965949 7.11261466 -1.2109375 3.109375 C-1 1 -1 1 0 0 Z " fill="#724B52" transform="translate(110,122)"/>
<path d="M0 0 C0.33 0 0.66 0 1 0 C1.71961582 8.68679101 2.14368684 17.28299826 2 26 C1.01 26 0.02 26 -1 26 C-1.02886751 21.85418113 -1.04675327 17.70838784 -1.0625 13.5625 C-1.07087891 12.37849609 -1.07925781 11.19449219 -1.08789062 9.97460938 C-1.09111328 8.84990234 -1.09433594 7.72519531 -1.09765625 6.56640625 C-1.10289307 5.52427979 -1.10812988 4.48215332 -1.11352539 3.40844727 C-1 1 -1 1 0 0 Z " fill="#86665B" transform="translate(128,35)"/>
<path d="M0 0 C1.32 0.66 2.64 1.32 4 2 C4 2.99 4 3.98 4 5 C3.34 5 2.68 5 2 5 C2 6.65 2 8.3 2 10 C1.34 10 0.68 10 0 10 C-1.61064629 13.65079826 -2.44894091 17.0507432 -3 21 C-3.99 21 -4.98 21 -6 21 C-4.79662881 14.10796502 -2.67864914 8.93919307 1 3 C-0.32 3.33 -1.64 3.66 -3 4 C-2.01 2.68 -1.02 1.36 0 0 Z " fill="#582566" transform="translate(119,101)"/>
<path d="M0 0 C-0.66 0.66 -1.32 1.32 -2 2 C-2.99 2 -3.98 2 -5 2 C-5.08314453 3.13888672 -5.08314453 3.13888672 -5.16796875 4.30078125 C-6 7 -6 7 -8.36328125 8.73046875 C-9.33652344 9.21128906 -10.30976562 9.69210938 -11.3125 10.1875 C-12.27800781 10.67605469 -13.24351563 11.16460937 -14.23828125 11.66796875 C-15.14964844 12.10753906 -16.06101562 12.54710938 -17 13 C-18.33377542 13.66578176 -19.66730038 14.33206741 -21 15 C-19.74248595 11.22745785 -18.50599175 10.82519524 -15.125 8.875 C-14.24070312 8.35679688 -13.35640625 7.83859375 -12.4453125 7.3046875 C-10 6 -10 6 -7 5 C-7 4.01 -7 3.02 -7 2 C-7.99 1.67 -8.98 1.34 -10 1 C-6.78548731 -0.60725635 -3.56387464 -0.05748185 0 0 Z " fill="#55206D" transform="translate(71,80)"/>
<path d="M0 0 C0.33 1.32 0.66 2.64 1 4 C-1.97 3.505 -1.97 3.505 -5 3 C-5 4.32 -5 5.64 -5 7 C-6.65 7 -8.3 7 -10 7 C-10.33 6.01 -10.66 5.02 -11 4 C-7.64918101 0.31409911 -4.96535219 -1.77334007 0 0 Z " fill="#531A68" transform="translate(133,94)"/>
<path d="M0 0 C2.31 0.33 4.62 0.66 7 1 C6.01 1.33 5.02 1.66 4 2 C4.42152344 2.53109375 4.84304687 3.0621875 5.27734375 3.609375 C5.82519531 4.31578125 6.37304688 5.0221875 6.9375 5.75 C7.48277344 6.44609375 8.02804688 7.1421875 8.58984375 7.859375 C9.97425654 9.96092128 10.56286987 11.54321799 11 14 C10.34 14 9.68 14 9 14 C9 13.01 9 12.02 9 11 C8.34 11 7.68 11 7 11 C4.375 8.75 4.375 8.75 2 6 C2 4.68 2 3.36 2 2 C0.35 2.66 -1.3 3.32 -3 4 C-2.01 2.68 -1.02 1.36 0 0 Z " fill="#541E6A" transform="translate(145,95)"/>
<path d="M0 0 C1.32 0.33 2.64 0.66 4 1 C4.25 8.625 4.25 8.625 2 12 C1.01 12.495 1.01 12.495 0 13 C0 8.71 0 4.42 0 0 Z " fill="#7E5D54" transform="translate(94,103)"/>
<path d="M0 0 C0 0.99 0 1.98 0 3 C-3.33333333 6 -3.33333333 6 -6 6 C-6 5.01 -6 4.02 -6 3 C-10.455 5.97 -10.455 5.97 -15 9 C-15.33 8.34 -15.66 7.68 -16 7 C-14.73299277 6.0158875 -13.4612381 5.03788503 -12.1875 4.0625 C-11.47980469 3.51722656 -10.77210937 2.97195312 -10.04296875 2.41015625 C-6.68210628 0.09032575 -3.97296003 -0.1073773 0 0 Z " fill="#623A49" transform="translate(64,82)"/>
<path d="M0 0 C0.66 0.66 1.32 1.32 2 2 C1.625 4.625 1.625 4.625 1 7 C0.34 7 -0.32 7 -1 7 C-1.19335938 7.62648438 -1.38671875 8.25296875 -1.5859375 8.8984375 C-1.84632812 9.71570313 -2.10671875 10.53296875 -2.375 11.375 C-2.63023438 12.18710938 -2.88546875 12.99921875 -3.1484375 13.8359375 C-4 16 -4 16 -6 18 C-5.54177532 14.53058454 -5.10868317 11.32604951 -4 8 C-3.34 8 -2.68 8 -2 8 C-2 5.69 -2 3.38 -2 1 C-1.34 0.67 -0.68 0.34 0 0 Z " fill="#765350" transform="translate(93,117)"/>
<path d="M0 0 C0 2.64 0 5.28 0 8 C-0.99 8.495 -0.99 8.495 -2 9 C-2.46751788 11.35599235 -2.46751788 11.35599235 -2.625 14.0625 C-2.69976562 14.98160156 -2.77453125 15.90070313 -2.8515625 16.84765625 C-2.90054688 17.55792969 -2.94953125 18.26820312 -3 19 C-3.33 19 -3.66 19 -4 19 C-4 13.06 -4 7.12 -4 1 C-1 0 -1 0 0 0 Z " fill="#4F1474" transform="translate(96,95)"/>
<path d="M0 0 C0.66 0 1.32 0 2 0 C1.75 2.375 1.75 2.375 1 5 C-1.89810116 7.09862498 -3.28378861 7 -7 7 C-7 7.66 -7 8.32 -7 9 C-7.66 9 -8.32 9 -9 9 C-8.9375 7.25 -8.9375 7.25 -8 5 C-5.76267561 3.42232899 -3.44184302 2.26452585 -1 1 C-0.67 0.67 -0.34 0.34 0 0 Z " fill="#734D54" transform="translate(56,85)"/>
<path d="M0 0 C2.0625 0.4375 2.0625 0.4375 4 1 C4.33 2.65 4.66 4.3 5 6 C6.98 5.67 8.96 5.34 11 5 C11 4.34 11 3.68 11 3 C11.99 3.33 12.98 3.66 14 4 C9.69230769 7.93846154 9.69230769 7.93846154 6.1875 8.25 C5.1046875 8.12625 5.1046875 8.12625 4 8 C3.731875 7.030625 3.46375 6.06125 3.1875 5.0625 C2.795625 4.051875 2.40375 3.04125 2 2 C1.01 1.67 0.02 1.34 -1 1 C-0.67 0.67 -0.34 0.34 0 0 Z " fill="#673C57" transform="translate(131,92)"/>
<path d="M0 0 C0.33 0 0.66 0 1 0 C1 2.31 1 4.62 1 7 C0.01 7.495 0.01 7.495 -1 8 C-1.41655799 10.1522163 -1.73508448 12.32390825 -2 14.5 C-2.26491552 16.67609175 -2.58344201 18.8477837 -3 21 C-3.66 21.33 -4.32 21.66 -5 22 C-3.25740319 6.07061503 -3.25740319 6.07061503 0 0 Z " fill="#633E3E" transform="translate(111,115)"/>
<path d="M0 0 C-0.5625 1.9375 -0.5625 1.9375 -2 4 C-5.5 4.875 -5.5 4.875 -9 5 C-9.66 4.34 -10.32 3.68 -11 3 C-7.16674383 0.29417212 -4.67461851 -0.32613618 0 0 Z " fill="#734947" transform="translate(64,161)"/>
<path d="M0 0 C0.33 0 0.66 0 1 0 C1 1.65 1 3.3 1 5 C-1 6 -1 6 -3.8125 5.9375 C-7.06139549 6.00120383 -9.08781089 6.62955807 -12 8 C-12 7.34 -12 6.68 -12 6 C-11.34 6 -10.68 6 -10 6 C-9.67 5.01 -9.34 4.02 -9 3 C-2.25 1.875 -2.25 1.875 0 3 C0 2.01 0 1.02 0 0 Z " fill="#582168" transform="translate(65,156)"/>
<path d="M0 0 C0.33 1.32 0.66 2.64 1 4 C-1.31 4 -3.62 4 -6 4 C-6 5.98 -6 7.96 -6 10 C-6.66 10 -7.32 10 -8 10 C-8 8.68 -8 7.36 -8 6 C-8.99 5.67 -9.98 5.34 -11 5 C-9.71034824 3.62437146 -8.37310707 2.29233607 -7 1 C-6.34 1 -5.68 1 -5 1 C-5 1.66 -5 2.32 -5 3 C-3.35 3 -1.7 3 0 3 C0 2.01 0 1.02 0 0 Z " fill="#4E1470" transform="translate(48,97)"/>
<path d="M0 0 C1.43088528 2.86177057 0.59991697 4.93375773 0 8 C-0.99 8 -1.98 8 -3 8 C-2.938125 8.928125 -2.87625 9.85625 -2.8125 10.8125 C-3 14 -3 14 -4.375 15.875 C-6 17 -6 17 -8 17 C-8.33 17.66 -8.66 18.32 -9 19 C-9 15 -9 15 -7.625 13.25 C-6 12 -6 12 -4 12 C-4 10.35 -4 8.7 -4 7 C-3.01 7 -2.02 7 -1 7 C-1.020625 6.030625 -1.04125 5.06125 -1.0625 4.0625 C-1 1 -1 1 0 0 Z " fill="#623179" transform="translate(163,170)"/>
<path d="M0 0 C2.76223278 2.76223278 2.57856291 5.20706617 3 9 C2.67 9 2.34 9 2 9 C1.67 10.98 1.34 12.96 1 15 C-1.26166232 11.60750652 -1.24515545 10.34798499 -1.1875 6.375 C-1.18105469 5.39273438 -1.17460938 4.41046875 -1.16796875 3.3984375 C-1 1 -1 1 0 0 Z " fill="#6B4342" transform="translate(106,151)"/>
<path d="M0 0 C0.66 0.33 1.32 0.66 2 1 C2.05389087 2.95803507 2.09274217 4.91648909 2.125 6.875 C2.14820312 7.96554688 2.17140625 9.05609375 2.1953125 10.1796875 C2 13 2 13 0 15 C-0.64767793 17.57061311 -0.64767793 17.57061311 -1 20 C-1.33 20 -1.66 20 -2 20 C-2.02688151 18.35425434 -2.04634123 16.70838587 -2.0625 15.0625 C-2.07410156 14.14597656 -2.08570312 13.22945312 -2.09765625 12.28515625 C-2 10 -2 10 -1 9 C-0.76807135 7.48530552 -0.58784762 5.96245438 -0.4375 4.4375 C-0.35371094 3.61121094 -0.26992187 2.78492187 -0.18359375 1.93359375 C-0.12300781 1.29550781 -0.06242187 0.65742187 0 0 Z " fill="#4C1278" transform="translate(113,122)"/>
<path d="M0 0 C0.68041782 5.27323808 -1.75213663 9.39388711 -4 14 C-5.30129792 10.09610625 -4.95988404 6.97193395 -4 3 C-1.75 0 -1.75 0 0 0 Z " fill="#795652" transform="translate(32,115)"/>
<path d="M0 0 C1.45792884 -0.05399736 2.91642712 -0.09279177 4.375 -0.125 C5.18710938 -0.14820313 5.99921875 -0.17140625 6.8359375 -0.1953125 C9 0 9 0 11 2 C11 2.99 11 3.98 11 5 C11.66 5 12.32 5 13 5 C12.67 5.99 12.34 6.98 12 8 C9.9375 8.6875 9.9375 8.6875 8 9 C8 8.01 8 7.02 8 6 C8.66 6 9.32 6 10 6 C9.34 4.68 8.68 3.36 8 2 C3.34947128 1.73067479 3.34947128 1.73067479 -1 3 C-0.67 2.01 -0.34 1.02 0 0 Z " fill="#550F67" transform="translate(135,189)"/>
<path d="M0 0 C0.99 0.99 1.98 1.98 3 3 C2.01 4.485 2.01 4.485 1 6 C0.34 6 -0.32 6 -1 6 C-1.66 7.65 -2.32 9.3 -3 11 C-3.66 11 -4.32 11 -5 11 C-3.92289822 6.69159287 -2.96052484 3.36423277 0 0 Z " fill="#7D6056" transform="translate(107,36)"/>
<path d="M0 0 C0.33 0.66 0.66 1.32 1 2 C0.34 2 -0.32 2 -1 2 C-1.66 3.32 -2.32 4.64 -3 6 C-2.01 6.66 -1.02 7.32 0 8 C-1 9 -1 9 -3.5625 9.0625 C-4.366875 9.041875 -5.17125 9.02125 -6 9 C-6.33 7.35 -6.66 5.7 -7 4 C-6.401875 3.896875 -5.80375 3.79375 -5.1875 3.6875 C-2.71756736 2.91123545 -1.67748765 1.92911079 0 0 Z " fill="#704753" transform="translate(157,186)"/>
<path d="M0 0 C1.66611905 -0.042721 3.33382885 -0.04063832 5 0 C6 1 6 1 6.0625 3.5625 C6.041875 4.366875 6.02125 5.17125 6 6 C4.35 5.67 2.7 5.34 1 5 C0.67 3.35 0.34 1.7 0 0 Z " fill="#953F03" transform="translate(36,156)"/>
<path d="M0 0 C0 3.94042779 -1.46184088 5.08858219 -4 8 C-6 10 -6 10 -9 11 C-9 9.68 -9 8.36 -9 7 C-6.49515403 4.58152803 -5.53986194 4 -2 4 C-1.34 2.68 -0.68 1.36 0 0 Z " fill="#663957" transform="translate(75,148)"/>
<path d="M0 0 C1.98 0 3.96 0 6 0 C6 1.65 6 3.3 6 5 C4.02 5 2.04 5 0 5 C0 3.35 0 1.7 0 0 Z " fill="#923C07" transform="translate(136,191)"/>
<path d="M0 0 C0.99 0.495 0.99 0.495 2 1 C2 2.65 2 4.3 2 6 C3.670625 5.9690625 3.670625 5.9690625 5.375 5.9375 C9 6 9 6 11 7 C10.67 7.66 10.34 8.32 10 9 C6.7 8.67 3.4 8.34 0 8 C0 5.36 0 2.72 0 0 Z " fill="#531568" transform="translate(44,158)"/>
<path d="M0 0 C5.23875527 -0.42940617 5.23875527 -0.42940617 8 0 C10.0625 2.125 10.0625 2.125 11 5 C10.6875 8.3125 10.6875 8.3125 10 11 C8.35 10.67 6.7 10.34 5 10 C5.99 9.34 6.98 8.68 8 8 C8.33343551 5.45792029 8.33343551 5.45792029 8 3 C6.03177114 1.03177114 2.65191291 1.33751619 0 1 C0 0.67 0 0.34 0 0 Z " fill="#6C1F32" transform="translate(34,155)"/>
<path d="M0 0 C0.99 0.495 0.99 0.495 2 1 C2 1.66 2 2.32 2 3 C2.66 3 3.32 3 4 3 C6.22656164 7.74354436 7.46148032 11.72250715 8 17 C7.34 17 6.68 17 6 17 C4.82923301 13.01939223 3.74250597 9.08378283 3 5 C2.34 5 1.68 5 1 5 C0.67 3.35 0.34 1.7 0 0 Z " fill="#541F69" transform="translate(156,109)"/>
<path d="M0 0 C1.32 0.66 2.64 1.32 4 2 C4 2.99 4 3.98 4 5 C3.34 5 2.68 5 2 5 C2 6.65 2 8.3 2 10 C1.34 10 0.68 10 0 10 C-0.33 10.66 -0.66 11.32 -1 12 C-0.34 9.03 0.32 6.06 1 3 C-0.32 3.33 -1.64 3.66 -3 4 C-2.01 2.68 -1.02 1.36 0 0 Z " fill="#54166D" transform="translate(119,101)"/>
<path d="M0 0 C0 2.97 0 5.94 0 9 C-0.99 9 -1.98 9 -3 9 C-3.33 6.36 -3.66 3.72 -4 1 C-2 0 -2 0 0 0 Z " fill="#673C63" transform="translate(168,124)"/>
<path d="M0 0 C0.66 0 1.32 0 2 0 C1.35550393 3.01217112 0.34977818 5.51655836 -1.0625 8.25 C-1.42472656 8.95640625 -1.78695312 9.6628125 -2.16015625 10.390625 C-2.43730469 10.92171875 -2.71445313 11.4528125 -3 12 C-3.66 12 -4.32 12 -5 12 C-4.52583422 7.02125936 -3.0900669 3.93281242 0 0 Z " fill="#724C4E" transform="translate(118,104)"/>
<path d="M0 0 C1.32 0.33 2.64 0.66 4 1 C3.67 2.65 3.34 4.3 3 6 C2.34 6 1.68 6 1 6 C0.67 6.66 0.34 7.32 0 8 C0 5.36 0 2.72 0 0 Z " fill="#86665D" transform="translate(166,166)"/>
<path d="M0 0 C1.32 0.33 2.64 0.66 4 1 C4 3.64 4 6.28 4 9 C3.34 9 2.68 9 2 9 C1.22678118 6.01758453 0.58803797 3.02419525 0 0 Z " fill="#6F4B4D" transform="translate(94,103)"/>
<path d="M0 0 C0.66 0 1.32 0 2 0 C2 0.99 2 1.98 2 3 C1.34 3 0.68 3 0 3 C-0.33 3.99 -0.66 4.98 -1 6 C-1.66 6 -2.32 6 -3 6 C-3 6.66 -3 7.32 -3 8 C-3.99 7.67 -4.98 7.34 -6 7 C-5.04882866 5.8274869 -4.08882991 4.66212985 -3.125 3.5 C-2.59132813 2.8503125 -2.05765625 2.200625 -1.5078125 1.53125 C-0.76144531 0.77328125 -0.76144531 0.77328125 0 0 Z " fill="#846458" transform="translate(121,24)"/>
</svg>
