<?xml version="1.0" encoding="UTF-8"?>
<svg version="1.1" xmlns="http://www.w3.org/2000/svg" width="235" height="267">
<path d="M0 0 C2.6875 1.5625 2.6875 1.5625 4 4 C4.7193437 9.85751295 4.7193437 9.85751295 2.9375 12.6875 C1 14 1 14 -2.25 15.5 C-10.81046275 20.25983447 -14.1436005 31.22964661 -17 40 C-17.51327518 41.35704949 -18.03349569 42.71150438 -18.5625 44.0625 C-21.97314121 53.23892511 -23.81204484 62.23738724 -25.125 71.9375 C-25.45860582 74.34277247 -25.79443582 76.74773781 -26.1328125 79.15234375 C-26.27605957 80.20413818 -26.41930664 81.25593262 -26.56689453 82.33959961 C-27 85 -27 85 -28 88 C-29.11051273 106.20231322 -28.76226044 124.84694913 -22 142 C-21.72542969 142.7940625 -21.45085937 143.588125 -21.16796875 144.40625 C-17.61013663 154.21678283 -12.80170461 161.81192919 -3.5 166.90234375 C-1.1654133 167.92737322 0.94743369 168.55441662 3.4375 169.0625 C7 170 7 170 9.125 172.25 C10.29569838 175.92933776 9.71028417 177.57943167 8 181 C5.77626292 183.13005414 4.58541442 183.95818468 1.484375 184.1796875 C-10.68315333 182.8238772 -19.32268168 179.02481447 -27.23828125 169.23046875 C-31.89324806 162.54169347 -35.36539502 155.6997883 -38 148 C-38.22316895 147.37931641 -38.44633789 146.75863281 -38.67626953 146.11914062 C-47.72645033 120.23273051 -46.88400019 84.37619637 -40 58 C-39.505 57.505 -39.505 57.505 -39 57 C-38.814375 55.2675 -38.814375 55.2675 -38.625 53.5 C-38.17480634 49.59370428 -37.19086992 46.15464176 -35.8671875 42.4609375 C-35.26503654 40.75213073 -34.71087479 39.02595682 -34.1953125 37.2890625 C-31.54479277 28.5400018 -27.48758853 20.91185286 -23 13 C-22.54367188 12.15695313 -22.08734375 11.31390625 -21.6171875 10.4453125 C-16.55609186 1.56325724 -10.31188874 -1.72952564 0 0 Z " fill="#775548" transform="translate(137,40)"/>
<path d="M0 0 C0.33 0 0.66 0 1 0 C1.02505615 0.95253662 1.0501123 1.90507324 1.07592773 2.88647461 C1.17091814 6.45933867 1.27090548 10.03204917 1.37231445 13.60473633 C1.41532019 15.14376199 1.45701529 16.68282491 1.49731445 18.22192383 C1.70675337 26.18835978 1.92941917 34.09209621 3 42 C2.01 42 1.02 42 0 42 C-0.94315044 39.17054868 -1.12866893 37.42287635 -1.1328125 34.4921875 C-1.13474609 33.59516113 -1.13667969 32.69813477 -1.13867188 31.77392578 C-1.1319043 30.33895752 -1.1319043 30.33895752 -1.125 28.875 C-1.12306641 27.89901855 -1.12113281 26.92303711 -1.11914062 25.91748047 C-1.06829988 17.25337032 -0.64158465 8.63847907 0 0 Z " fill="#7C5C51" transform="translate(95,130)"/>
<path d="M0 0 C0 0.33 0 0.66 0 1 C-3.3 1.66 -6.6 2.32 -10 3 C-10 3.66 -10 4.32 -10 5 C-10.66 5 -11.32 5 -12 5 C-12.33 5.99 -12.66 6.98 -13 8 C-13.66 8 -14.32 8 -15 8 C-15 8.66 -15 9.32 -15 10 C-15.99 9.67 -16.98 9.34 -18 9 C-17.0717492 5.65829712 -16.07068171 4.06538058 -13.5 1.6875 C-8.87762138 -0.54114683 -5.03896583 -0.3585035 0 0 Z " fill="#846057" transform="translate(135,41)"/>
<path d="M0 0 C0.33 0 0.66 0 1 0 C1.04241723 2.33294775 1.04092937 4.66702567 1 7 C0.67 7.33 0.34 7.66 0 8 C-0.19316713 10.02825491 -0.38325788 12.05723921 -0.5234375 14.08984375 C-1 16 -1 16 -4 18 C-4 15.69 -4 13.38 -4 11 C-3.34 11 -2.68 11 -2 11 C-2.04125 10.113125 -2.0825 9.22625 -2.125 8.3125 C-2.00102754 5.02722987 -1.38612096 2.94550705 0 0 Z " fill="#836358" transform="translate(102,86)"/>
<path d="M0 0 C0.66 0 1.32 0 2 0 C2 0.66 2 1.32 2 2 C2.66 2 3.32 2 4 2 C4 2.99 4 3.98 4 5 C4.99 5 5.98 5 7 5 C7 5.66 7 6.32 7 7 C7.99 7.33 8.98 7.66 10 8 C10 8.66 10 9.32 10 10 C9.443125 9.71125 8.88625 9.4225 8.3125 9.125 C5.99761036 7.92638182 5.99761036 7.92638182 3.375 7.1875 C1 6 1 6 -0.3125 3.375 C-0.539375 2.59125 -0.76625 1.8075 -1 1 C-0.67 0.67 -0.34 0.34 0 0 Z " fill="#806155" transform="translate(111,206)"/>
<path d="M0 0 C0.66 0.33 1.32 0.66 2 1 C2.125 7.75 2.125 7.75 1 10 C0.01 9.67 -0.98 9.34 -2 9 C-1.34 6.03 -0.68 3.06 0 0 Z " fill="#66483B" transform="translate(139,43)"/>
<path d="M0 0 C2.33936818 2.12669835 3.80653848 4.06224856 5 7 C5 7.99 5 8.98 5 10 C3.68 9.67 2.36 9.34 1 9 C1.33 8.34 1.66 7.68 2 7 C1.3507041 5.65812182 0.68268138 4.32520503 0 3 C0 2.01 0 1.02 0 0 Z " fill="#816359" transform="translate(103,191)"/>
<path d="M0 0 C0.66 0 1.32 0 2 0 C2 0.66 2 1.32 2 2 C1.34 2 0.68 2 0 2 C-0.33 2.99 -0.66 3.98 -1 5 C-1.66 5 -2.32 5 -3 5 C-3 5.66 -3 6.32 -3 7 C-3.99 6.67 -4.98 6.34 -6 6 C-4 4 -2 2 0 0 Z " fill="#886B5F" transform="translate(123,44)"/>
<path d="M0 0 C1.5 1.1875 1.5 1.1875 3 3 C3.1875 5.6875 3.1875 5.6875 3 8 C2.01 7.67 1.02 7.34 0 7 C0 4.69 0 2.38 0 0 Z " fill="#84655A" transform="translate(98,176)"/>
<path d="M0 0 C0.33 0.99 0.66 1.98 1 3 C-0.4375 5.1875 -0.4375 5.1875 -2 7 C-2.99 6.67 -3.98 6.34 -5 6 C-4.67 5.34 -4.34 4.68 -4 4 C-3.34 4 -2.68 4 -2 4 C-1.34 2.68 -0.68 1.36 0 0 Z " fill="#84675B" transform="translate(117,52)"/>
</svg>
