<?xml version="1.0" encoding="UTF-8"?>
<svg version="1.1" xmlns="http://www.w3.org/2000/svg" width="223" height="222">
<path d="M0 0 C3.79742376 1.65105381 5.51874778 2.7849232 7.875 6.25 C8.83860609 11.28538523 8.94856825 16.01754682 6.6953125 20.703125 C3.55393602 25.09779676 0.29042394 28.62373134 -5.19140625 29.62890625 C-9.79615212 29.99510431 -12.4887828 29.43673656 -16.0625 26.4375 C-18.84993145 23.76868266 -20.96979746 21.5006437 -21.4609375 17.54296875 C-21.59404882 6.96061902 -21.59404882 6.96061902 -17.125 2.25 C-10.87403455 -2.06614281 -7.36361542 -1.7672677 0 0 Z " fill="#785649" transform="translate(124.125,136.75)"/>
<path d="M0 0 C73.26 0 146.52 0 222 0 C221.67 0.66 221.34 1.32 221 2 C148.07 2 75.14 2 0 2 C0 1.34 0 0.68 0 0 Z " fill="#D4CBC9" transform="translate(1,68)"/>
<path d="M0 0 C37.62 0 75.24 0 114 0 C114 0.33 114 0.66 114 1 C108.40937272 1.9492918 103.01631441 2.14246741 97.35205078 2.12939453 C95.93842758 2.13202301 95.93842758 2.13202301 94.49624634 2.13470459 C91.39591605 2.13908822 88.29564332 2.13619693 85.1953125 2.1328125 C83.02969349 2.13348665 80.86407456 2.13445761 78.69845581 2.13571167 C74.16436033 2.13718401 69.63028459 2.13504937 65.09619141 2.13037109 C59.30055732 2.12468093 53.50496961 2.12795125 47.70933723 2.13394356 C43.23794204 2.13756748 38.76655773 2.13640205 34.2951622 2.13381577 C32.15904612 2.13315121 30.02292903 2.13395836 27.88681412 2.13629532 C24.89342912 2.13885119 21.90011783 2.13493977 18.90673828 2.12939453 C17.59721191 2.13243088 17.59721191 2.13243088 16.26123047 2.13552856 C10.76817617 2.11679532 5.45058998 1.69088726 0 1 C0 0.67 0 0.34 0 0 Z " fill="#F8F8F8" transform="translate(9,7)"/>
<path d="M0 0 C26.4 0 52.8 0 80 0 C80 0.33 80 0.66 80 1 C65.78243976 1.95224791 51.60914987 2.1560718 37.36206055 2.13037109 C33.77974327 2.12495043 30.19754817 2.13038225 26.61523438 2.13671875 C24.31249973 2.13605885 22.00976515 2.13477952 19.70703125 2.1328125 C18.64861526 2.13483673 17.59019928 2.13686096 16.49971008 2.13894653 C10.9049269 2.12129622 5.53413714 1.83258028 0 1 C0 0.67 0 0.34 0 0 Z " fill="#FFFFFF" transform="translate(133,7)"/>
<path d="M0 0 C32.01 0 64.02 0 97 0 C97 0.33 97 0.66 97 1 C64.99 1 32.98 1 0 1 C0 0.67 0 0.34 0 0 Z " fill="#A8877F" transform="translate(1,168)"/>
<path d="M0 0 C28.05 0 56.1 0 85 0 C85 0.33 85 0.66 85 1 C56.95 1 28.9 1 0 1 C0 0.67 0 0.34 0 0 Z " fill="#9C8173" transform="translate(137,168)"/>
<path d="M0 0 C0.99 0.33 1.98 0.66 3 1 C1.47759883 5.26272329 -1.03275246 6.98031034 -5 9 C-8.03378241 9.31674074 -10.96295955 9.24296324 -14 9 C-14.33 7.68 -14.66 6.36 -15 5 C-11.37 5 -7.74 5 -4 5 C-4 4.34 -4 3.68 -4 3 C-2.1875 1.3125 -2.1875 1.3125 0 0 Z " fill="#80665B" transform="translate(126,157)"/>
<path d="M0 0 C0.66 0 1.32 0 2 0 C4.08133467 3.122002 4.2737822 3.93266989 4.25 7.5 C4.25515625 8.2734375 4.2603125 9.046875 4.265625 9.84375 C4 12 4 12 2 15 C1.01 14.67 0.02 14.34 -1 14 C-0.01 10.37 0.98 6.74 2 3 C1.34 3 0.68 3 0 3 C0 2.01 0 1.02 0 0 Z " fill="#7A5D53" transform="translate(128,143)"/>
<path d="M0 0 C4 1 4 1 4 1 Z " fill="#FFFFFF" transform="translate(214,7)"/>
<path d="M0 0 C0.66 0 1.32 0 2 0 C1.67 0.66 1.34 1.32 1 2 C0.67 1.34 0.34 0.68 0 0 Z " fill="#D4D4D4" transform="translate(220,7)"/>
</svg>
