<?xml version="1.0" encoding="UTF-8"?>
<svg version="1.1" xmlns="http://www.w3.org/2000/svg" width="229" height="217">
<path d="M0 0 C1.62418745 -0.08090971 3.24951745 -0.13914995 4.875 -0.1875 C5.77992187 -0.22230469 6.68484375 -0.25710937 7.6171875 -0.29296875 C8.79667969 -0.14794922 8.79667969 -0.14794922 10 0 C12.58995441 3.88493162 12.25225542 7.10567236 12.1953125 11.60546875 C12.1924826 12.44467361 12.18965271 13.28387848 12.18673706 14.14851379 C12.17554385 16.82832103 12.15044101 19.50779381 12.125 22.1875 C12.11496908 24.00455246 12.10584343 25.82161017 12.09765625 27.63867188 C12.07560734 32.09257675 12.04108351 36.54623167 12 41 C12.9787207 40.99476318 13.95744141 40.98952637 14.96582031 40.98413086 C18.60366905 40.96600439 22.24151381 40.95454003 25.87939453 40.94506836 C27.45264355 40.94004563 29.02588792 40.93322625 30.59912109 40.92456055 C32.86296743 40.91240471 35.12675193 40.90675104 37.390625 40.90234375 C38.09181458 40.89718246 38.79300415 40.89202118 39.51544189 40.88670349 C46.14344978 40.88594542 46.14344978 40.88594542 49 42 C50.5635348 45.12706959 50.39958487 48.57982443 50 52 C49.34 52.99 48.68 53.98 48 55 C45.31215183 55.33784096 42.8428575 55.48892244 40.1484375 55.51171875 C39.37440582 55.52966995 38.60037415 55.54762115 37.80288696 55.56611633 C35.32698033 55.62036392 32.85126797 55.65416009 30.375 55.6875 C28.69788954 55.72066046 27.02080477 55.75514893 25.34375 55.79101562 C21.22930659 55.87609817 17.11492223 55.94283953 13 56 C12.98541748 57.13542236 12.97083496 58.27084473 12.95581055 59.44067383 C12.89786324 63.65095609 12.82063059 67.8607015 12.73754883 72.07055664 C12.7042826 73.89305919 12.67625594 75.71566519 12.65356445 77.53833008 C12.62004919 80.1575125 12.56773648 82.77574548 12.51171875 85.39453125 C12.50213387 86.61811089 12.50213387 86.61811089 12.49235535 87.8664093 C12.34386198 93.57205249 12.34386198 93.57205249 10.65266418 95.67680359 C8.09699032 97.72298969 6.25126598 98 3 98 C0.34382949 96.03263842 -1.64155336 94.42549356 -2.47354126 91.11679077 C-2.67410964 88.87148523 -2.71834556 86.67218276 -2.70703125 84.41796875 C-2.72215256 83.60378983 -2.73727386 82.7896109 -2.75285339 81.95075989 C-2.79567437 79.36272364 -2.80456247 76.77585495 -2.8125 74.1875 C-2.83564883 72.42770346 -2.86101498 70.66793459 -2.88867188 68.90820312 C-2.95146832 64.60536581 -2.98384735 60.303255 -3 56 C-4.38505737 55.97812622 -4.38505737 55.97812622 -5.7980957 55.95581055 C-9.22577204 55.89473692 -12.65264662 55.8205839 -16.07983398 55.73754883 C-17.56279854 55.70430577 -19.04588944 55.67627177 -20.52905273 55.65356445 C-22.66184293 55.62000532 -24.79347612 55.56769362 -26.92578125 55.51171875 C-28.20880127 55.48553467 -29.49182129 55.45935059 -30.8137207 55.43237305 C-34 55 -34 55 -35.91943359 53.59130859 C-37.99576283 50.53357838 -37.28464595 47.58653892 -37 44 C-33.8530499 40.8530499 -30.24983943 41.04624983 -25.93212891 40.88647461 C-24.87429199 40.89171143 -23.81645508 40.89694824 -22.7265625 40.90234375 C-21.57285156 40.90556641 -20.41914062 40.90878906 -19.23046875 40.91210938 C-18.04066406 40.92048828 -16.85085937 40.92886719 -15.625 40.9375 C-13.80548828 40.94426758 -13.80548828 40.94426758 -11.94921875 40.95117188 C-8.96609493 40.96291646 -5.98307321 40.9793416 -3 41 C-2.98018066 39.90010742 -2.96036133 38.80021484 -2.93994141 37.66699219 C-2.86380099 33.58163778 -2.77509664 29.49663562 -2.68261719 25.41162109 C-2.64436229 23.6444393 -2.6095033 21.87718056 -2.578125 20.10986328 C-2.53239848 17.56775437 -2.47441711 15.02617352 -2.4140625 12.484375 C-2.39673569 11.30134796 -2.39673569 11.30134796 -2.37905884 10.09442139 C-2.27662916 6.27726745 -2.147148 3.23955664 0 0 Z " fill="#765347" transform="translate(114,45)"/>
<path d="M0 0 C0.33 0 0.66 0 1 0 C1 4.29 1 8.58 1 13 C-1.76617563 14.38308781 -4.01018 14.11210196 -7.1015625 14.09765625 C-8.31328125 14.09443359 -9.525 14.09121094 -10.7734375 14.08789062 C-12.04445313 14.07951172 -13.31546875 14.07113281 -14.625 14.0625 C-15.90375 14.05798828 -17.1825 14.05347656 -18.5 14.04882812 C-21.66671292 14.03701203 -24.83333356 14.02053815 -28 14 C-27.34 13.01 -26.68 12.02 -26 11 C-23.38623047 10.65942383 -23.38623047 10.65942383 -20.1171875 10.70703125 C-18.95058594 10.71669922 -17.78398438 10.72636719 -16.58203125 10.73632812 C-15.35871094 10.76146484 -14.13539062 10.78660156 -12.875 10.8125 C-11.64394531 10.82603516 -10.41289063 10.83957031 -9.14453125 10.85351562 C-6.09592157 10.88896457 -3.048175 10.93837921 0 11 C0 7.37 0 3.74 0 0 Z " fill="#8D5E55" transform="translate(113,75)"/>
<path d="M0 0 C1.20527344 0.00322266 2.41054687 0.00644531 3.65234375 0.00976562 C4.90660156 0.01814453 6.16085938 0.02652344 7.453125 0.03515625 C9.35771484 0.04192383 9.35771484 0.04192383 11.30078125 0.04882812 C14.43494336 0.06061069 17.56901041 0.07706209 20.703125 0.09765625 C21.033125 1.08765625 21.363125 2.07765625 21.703125 3.09765625 C11.473125 3.09765625 1.243125 3.09765625 -9.296875 3.09765625 C-9.626875 2.43765625 -9.956875 1.77765625 -10.296875 1.09765625 C-6.82022405 0.02877101 -3.62550022 -0.01710142 0 0 Z " fill="#7E5950" transform="translate(135.296875,85.90234375)"/>
<path d="M0 0 C1.22589844 0.01353516 1.22589844 0.01353516 2.4765625 0.02734375 C3.41628906 0.04474609 3.41628906 0.04474609 4.375 0.0625 C4.705 1.0525 5.035 2.0425 5.375 3.0625 C1.745 3.0625 -1.885 3.0625 -5.625 3.0625 C-5.955 2.4025 -6.285 1.7425 -6.625 1.0625 C-4.21954362 -0.14022819 -2.67503047 -0.03821472 0 0 Z " fill="#896759" transform="translate(151.625,85.9375)"/>
<path d="M0 0 C0.99 0.33 1.98 0.66 3 1 C1.55540356 4.73187415 1.55540356 4.73187415 -0.8125 5.875 C-3.62762177 6.0358641 -5.476506 5.19164995 -8 4 C-5.10765685 3.17361624 -3.11257569 3 0 3 C0 2.01 0 1.02 0 0 Z " fill="#816055" transform="translate(123,136)"/>
</svg>
