<?xml version="1.0" encoding="UTF-8"?>
<svg version="1.1" xmlns="http://www.w3.org/2000/svg" width="216" height="222">
<path d="M0 0 C2.95647142 1.07764778 5.6738411 2.50312345 8.4375 4 C9.16904297 4.3815625 9.90058594 4.763125 10.65429688 5.15625 C12.44289665 6.09146557 14.22242596 7.04399379 16 8 C16 8.66 16 9.32 16 10 C17.32 10 18.64 10 20 10 C20 10.66 20 11.32 20 12 C21.051875 12.1546875 21.051875 12.1546875 22.125 12.3125 C27.76417691 13.66099883 32.65203597 16.91446234 37.625 19.8125 C43.95971939 23.47254131 50.42207098 26.79609492 57 30 C59.00093414 30.99812953 61.00117716 31.99764913 63 33 C63 33.66 63 34.32 63 35 C63.69867188 35.10699219 64.39734375 35.21398437 65.1171875 35.32421875 C68.40246037 36.09434369 71.10211966 37.31621211 74.125 38.8125 C75.15882813 39.31394531 76.19265625 39.81539062 77.2578125 40.33203125 C80.00516809 42.00314355 81.42260386 43.22181786 83 46 C82.92889027 49.4132672 82.43253341 51.36922211 80.5 54.1875 C77.5700828 56.31168997 74.86004092 57.18162972 71.421875 58.2265625 C64.77285337 60.34995973 58.55309924 63.67373666 52.359375 66.8515625 C49.9437273 68.02739102 47.49734241 69.01091598 45 70 C38.18032771 73.02992318 31.46400689 76.24506932 24.8125 79.625 C20.02864275 82.04082137 15.25175377 84.19277849 10.2421875 86.08984375 C7.98189933 87.00734749 5.89379057 88.08911718 3.75 89.25 C0.35623137 90.98109569 -2.14315091 91.61358963 -6 91 C-8.3125 89.875 -8.3125 89.875 -10 88 C-11.09873288 84.63055251 -11.36132348 82.83639694 -9.9453125 79.55859375 C-7.45809756 76.28725683 -4.5401522 74.72901447 -0.9375 72.9375 C0.06579346 72.42207642 0.06579346 72.42207642 1.08935547 71.89624023 C7.84168895 68.47625879 14.51399859 65.35273359 22 64 C22 63.34 22 62.68 22 62 C22.58265625 61.78085938 23.1653125 61.56171875 23.765625 61.3359375 C29.77207842 59.01268665 35.48607443 56.3090464 41.2265625 53.39453125 C49.96638655 49 49.96638655 49 54 49 C54 48.34 54 47.68 54 47 C51.19120442 45.41003 48.37730312 43.8293064 45.5625 42.25 C44.3878418 41.58484375 44.3878418 41.58484375 43.18945312 40.90625 C37.91325587 37.95331656 32.56868334 35.35505256 27 33 C27 32.34 27 31.68 27 31 C25.91319946 30.82670166 25.91319946 30.82670166 24.80444336 30.64990234 C21.90927484 29.97897533 19.74296145 29.00092532 17.12890625 27.6015625 C15.77249023 26.88226563 15.77249023 26.88226563 14.38867188 26.1484375 C13.45603516 25.64570312 12.52339844 25.14296875 11.5625 24.625 C9.70985515 23.63760844 7.85699616 22.65061855 6.00390625 21.6640625 C5.13910645 21.20161133 4.27430664 20.73916016 3.38330078 20.26269531 C0.6107589 18.79377638 -2.18350037 17.3823888 -5 16 C-5 15.34 -5 14.68 -5 14 C-5.61875 13.7525 -6.2375 13.505 -6.875 13.25 C-9.43898664 11.74177256 -10.11257047 10.82363942 -11 8 C-10.79934207 5.25767499 -10.32341076 3.52105067 -8.875 1.1875 C-5.86270391 -0.72028752 -3.51768917 -0.29167652 0 0 Z " fill="#775548" transform="translate(80,51)"/>
<path d="M0 0 C1.32 0 2.64 0 4 0 C2.95016053 2.86319855 2.26601048 3.8499428 -0.4375 5.375 C-1.7059375 5.684375 -1.7059375 5.684375 -3 6 C-3.99 5.34 -4.98 4.68 -6 4 C-3 2 -3 2 0 2 C0 1.34 0 0.68 0 0 Z " fill="#7E6157" transform="translate(100,128)"/>
<path d="M0 0 C1.32 0 2.64 0 4 0 C2.93411431 2.90696099 2.29651501 3.84432962 -0.5 5.3125 C-3 6 -3 6 -5 5 C-4.67 4.01 -4.34 3.02 -4 2 C-2.68 2 -1.36 2 0 2 C0 1.34 0 0.68 0 0 Z " fill="#806255" transform="translate(132,113)"/>
<path d="M0 0 C-2.06756277 2.7972908 -3.14440371 3.02692273 -6.6875 3.6875 C-7.780625 3.790625 -8.87375 3.89375 -10 4 C-9 1 -9 1 -6.6875 -0.25 C-3.90126985 -1.0275526 -2.66561622 -0.98726527 0 0 Z " fill="#7E6056" transform="translate(94,134)"/>
<path d="M0 0 C0.66 0.66 1.32 1.32 2 2 C-0.97 2 -3.94 2 -7 2 C-7 2.66 -7 3.32 -7 4 C-7.66 4 -8.32 4 -9 4 C-6.77704343 -0.92226099 -5.22239102 -1.43615753 0 0 Z " fill="#85675C" transform="translate(80,53)"/>
<path d="M0 0 C0.66 0 1.32 0 2 0 C1.67 0.99 1.34 1.98 1 3 C-0.32 3 -1.64 3 -3 3 C-3 3.66 -3 4.32 -3 5 C-4.32 5 -5.64 5 -7 5 C-6.67 3.68 -6.34 2.36 -6 1 C-4.7934375 1.0309375 -4.7934375 1.0309375 -3.5625 1.0625 C-1.06645115 1.29633621 -1.06645115 1.29633621 0 0 Z " fill="#7C5F55" transform="translate(119,107)"/>
<path d="M0 0 C-0.33 0.99 -0.66 1.98 -1 3 C-2.32 3 -3.64 3 -5 3 C-5 3.66 -5 4.32 -5 5 C-6.32 4.67 -7.64 4.34 -9 4 C-2.39130435 0 -2.39130435 0 0 0 Z " fill="#816458" transform="translate(89,122)"/>
<path d="M0 0 C-0.33 0.99 -0.66 1.98 -1 3 C-3.31 3.33 -5.62 3.66 -8 4 C-6.27302455 0.54604909 -3.70696841 0 0 0 Z " fill="#7E6152" transform="translate(115,123)"/>
<path d="M0 0 C-1 3 -1 3 -3.375 4.25 C-6 5 -6 5 -9 4 C-2.39130435 0 -2.39130435 0 0 0 Z " fill="#836257" transform="translate(111,112)"/>
<path d="M0 0 C0 0.66 0 1.32 0 2 C-2.31 2.33 -4.62 2.66 -7 3 C-7 3.66 -7 4.32 -7 5 C-7.99 5 -8.98 5 -10 5 C-9.67 4.01 -9.34 3.02 -9 2 C-3.21052632 0 -3.21052632 0 0 0 Z " fill="#826359" transform="translate(159,103)"/>
</svg>
