<?xml version="1.0" encoding="UTF-8"?>
<svg version="1.1" xmlns="http://www.w3.org/2000/svg" width="226" height="219">
<path d="M0 0 C1.27907227 -0.03673828 1.27907227 -0.03673828 2.58398438 -0.07421875 C8.62864236 -0.1026642 8.62864236 -0.1026642 11.890625 2.17578125 C13.3125 4.375 13.3125 4.375 13.375 7.9375 C12.3125 11.375 12.3125 11.375 10.24609375 13.01953125 C6.63648655 14.68735242 3.223408 15.14703616 -0.6875 15.5 C-1.46279053 15.57855225 -2.23808105 15.65710449 -3.03686523 15.73803711 C-10.12441663 16.4142147 -17.22809182 16.76967485 -24.34179688 17.03369141 C-29.16970052 17.21713669 -33.92262617 17.58194743 -38.72045898 18.15014648 C-45.98950734 18.98107531 -53.06839227 18.84147237 -59.6875 15.375 C-61.6875 12.375 -61.6875 12.375 -61.4375 8.8125 C-60.6875 5.375 -60.6875 5.375 -58.6875 3.375 C-55.66918945 3.08789062 -55.66918945 3.08789062 -51.80078125 3.03125 C-50.75968452 3.0093158 -50.75968452 3.0093158 -49.69755554 2.98693848 C-47.46509714 2.94039351 -45.23272036 2.90633473 -43 2.875 C-33.21977556 2.73336814 -23.78247526 2.24548972 -14.09204102 0.82910156 C-9.38237366 0.20092076 -4.74633439 0.00755184 0 0 Z " fill="#775345" transform="translate(143.6875,99.625)"/>
<path d="M0 0 C1.2463623 0.01047363 2.49272461 0.02094727 3.77685547 0.03173828 C4.77143265 0.03598312 4.77143265 0.03598312 5.78610229 0.04031372 C7.9055988 0.05151643 10.02467401 0.07662027 12.14404297 0.10205078 C13.58023479 0.11208051 15.01643322 0.12120637 16.45263672 0.12939453 C19.97490925 0.15145578 23.496935 0.18598585 27.01904297 0.22705078 C27.01904297 0.55705078 27.01904297 0.88705078 27.01904297 1.22705078 C25.77030396 1.23321411 25.77030396 1.23321411 24.49633789 1.23950195 C21.40389891 1.26649035 18.31282324 1.31557994 15.22094727 1.37963867 C13.22613431 1.41421124 11.23093282 1.42329672 9.23583984 1.43212891 C7.35541992 1.47563477 7.35541992 1.47563477 5.43701172 1.52001953 C4.27967529 1.53572998 3.12233887 1.55144043 1.92993164 1.56762695 C-1.20056864 1.93342492 -1.20056864 1.93342492 -2.75708008 4.77124023 C-3.16095947 5.58165771 -3.56483887 6.3920752 -3.98095703 7.22705078 C-4.64095703 7.22705078 -5.30095703 7.22705078 -5.98095703 7.22705078 C-4.89875808 0.37312408 -4.89875808 0.37312408 0 0 Z " fill="#644031" transform="translate(87.98095703125,102.77294921875)"/>
<path d="M0 0 C0.79921875 0.01804687 1.5984375 0.03609375 2.421875 0.0546875 C3.02515625 0.07789062 3.6284375 0.10109375 4.25 0.125 C3.26 0.455 2.27 0.785 1.25 1.125 C1.25 1.785 1.25 2.445 1.25 3.125 C-2.05 2.795 -5.35 2.465 -8.75 2.125 C-5.00631258 0.25315629 -3.9099209 -0.11499767 0 0 Z " fill="#7F6054" transform="translate(136.75,111.875)"/>
<path d="M0 0 C1.65322266 0.01740234 1.65322266 0.01740234 3.33984375 0.03515625 C4.99693359 0.04869141 4.99693359 0.04869141 6.6875 0.0625 C7.54214844 0.07410156 8.39679688 0.08570312 9.27734375 0.09765625 C9.27734375 0.42765625 9.27734375 0.75765625 9.27734375 1.09765625 C7.86534797 1.4898773 6.44741611 1.86076684 5.02734375 2.22265625 C4.2384375 2.43148437 3.44953125 2.6403125 2.63671875 2.85546875 C-0.14296335 3.14080036 -1.38153174 2.54743519 -3.72265625 1.09765625 C-2.72265625 0.09765625 -2.72265625 0.09765625 0 0 Z " fill="#805E52" transform="translate(100.72265625,114.90234375)"/>
</svg>
