<?xml version="1.0" encoding="UTF-8"?>
<svg version="1.1" xmlns="http://www.w3.org/2000/svg" width="211" height="237">
<path d="M0 0 C6.47057117 3.55881414 10.07621338 10.64927474 13.375 17 C13.7771875 17.73734375 14.179375 18.4746875 14.59375 19.234375 C16.60859405 23.05846677 18.07993427 25.92883727 17.5 30.375 C18.16 30.375 18.82 30.375 19.5 30.375 C19.89832031 31.69564453 19.89832031 31.69564453 20.3046875 33.04296875 C20.65789062 34.20441406 21.01109375 35.36585937 21.375 36.5625 C21.89707031 38.28533203 21.89707031 38.28533203 22.4296875 40.04296875 C23.34288183 42.88586936 24.36671019 45.61527334 25.5 48.375 C27.12027569 53.23582706 27.8269017 57.76745878 28.15625 62.84765625 C28.39379206 65.41181076 28.39379206 65.41181076 29.50488281 67.76904297 C30.95971918 73.04086168 30.78505222 78.15342034 30.765625 83.59765625 C30.76849518 85.36501381 30.76849518 85.36501381 30.77142334 87.16807556 C30.77278166 89.65347508 30.76910995 92.13888178 30.76074219 94.62426758 C30.75002843 98.42740806 30.76065471 102.2300772 30.7734375 106.03320312 C30.77211603 108.45052187 30.7695539 110.86784033 30.765625 113.28515625 C30.76967346 114.42171158 30.77372192 115.55826691 30.77789307 116.72926331 C30.77158875 117.79064011 30.76528442 118.85201691 30.75878906 119.94555664 C30.75719788 120.87566055 30.75560669 121.80576447 30.75396729 122.76405334 C30.47623162 125.61935425 29.64481876 127.75893066 28.5 130.375 C28.16290415 132.47048041 28.16290415 132.47048041 28.0625 134.5625 C27.13554879 144.08338871 23.28099666 152.67721323 19.5 161.375 C18.84 161.375 18.18 161.375 17.5 161.375 C17.4175 162.055625 17.335 162.73625 17.25 163.4375 C16.27667472 167.2496907 14.54192545 170.01570329 12.5 173.375 C11.84 173.375 11.18 173.375 10.5 173.375 C10.10361328 174.23544922 10.10361328 174.23544922 9.69921875 175.11328125 C7.59531893 179.08122261 4.86118101 182.40008374 1.5 185.375 C-2.15989564 186.49157833 -4.18733483 186.80072924 -7.8125 185.625 C-9.5 184.375 -9.5 184.375 -11.5 181.375 C-11.97754478 177.65116681 -11.83837004 175.91245753 -9.8203125 172.70703125 C-8.73363281 171.45986328 -8.73363281 171.45986328 -7.625 170.1875 C-6.90570313 169.34832031 -6.18640625 168.50914062 -5.4453125 167.64453125 C-4.80335937 166.89558594 -4.16140625 166.14664063 -3.5 165.375 C-2.84 164.385 -2.18 163.395 -1.5 162.375 C-0.84 162.375 -0.18 162.375 0.5 162.375 C0.8403125 161.199375 0.8403125 161.199375 1.1875 160 C2.25045004 157.06423322 3.39883511 154.65818544 4.875 151.9375 C7.77040036 146.32659102 9.20339224 140.59727416 10.703125 134.5 C11.5 131.375 11.5 131.375 12.5 129.375 C15.5187696 113.87088299 15.80680201 98.65376469 14.4375 83 C14.37759888 82.27209259 14.31769775 81.54418518 14.25598145 80.79421997 C13.40821753 70.87417742 11.51280428 61.88813512 8.5 52.375 C7.89186657 50.23028748 7.2871731 48.08459344 6.6875 45.9375 C4.34801483 38.39404192 1.01743665 31.42575337 -2.5 24.375 C-2.95761719 23.4365625 -3.41523437 22.498125 -3.88671875 21.53125 C-6.18248579 17.07007494 -7.85566494 14.63440625 -12.5 12.375 C-14.82749345 8.88375983 -15.00299316 7.48277749 -14.5 3.375 C-9.88059772 -2.32226281 -6.73719934 -1.68429983 0 0 Z " fill="#785549" transform="translate(98.5,19.625)"/>
<path d="M0 0 C0.825 0.20625 1.65 0.4125 2.5 0.625 C6.98128336 3.08970585 10.18699144 6.57253369 11.82421875 11.4609375 C12.30845245 13.63827199 12.70923051 15.78914921 13 18 C12.34 18 11.68 18 11 18 C8 12.25 8 12.25 8 10 C7.34 10 6.68 10 6 10 C6 9.01 6 8.02 6 7 C4.35 6.34 2.7 5.68 1 5 C1 4.34 1 3.68 1 3 C-1.97 3 -4.94 3 -8 3 C-8.66 4.65 -9.32 6.3 -10 8 C-10.66 7.67 -11.32 7.34 -12 7 C-11.72776186 3.64239623 -11.41629629 2.35682539 -8.8125 0.125 C-5.32522508 -1.26990997 -3.59604971 -0.97393013 0 0 Z " fill="#81665B" transform="translate(96,19)"/>
<path d="M0 0 C0.99 0 1.98 0 3 0 C2.73555973 4.49548462 0.9195061 6.80225814 -2.24609375 9.76953125 C-5.05573712 11.7406619 -7.63343739 11.93647995 -11 12 C-11.99 11.67 -12.98 11.34 -14 11 C-14.33 9.02 -14.66 7.04 -15 5 C-14.01 5.495 -14.01 5.495 -13 6 C-13 6.66 -13 7.32 -13 8 C-8.545 7.505 -8.545 7.505 -4 7 C-4 6.34 -4 5.68 -4 5 C-3.34 5 -2.68 5 -2 5 C-2 4.01 -2 3.02 -2 2 C-1.34 2 -0.68 2 0 2 C0 1.34 0 0.68 0 0 Z " fill="#82665C" transform="translate(104,194)"/>
<path d="M0 0 C2.30128938 3.57215068 2.00925856 5.89589967 1.25 10 C1.06953125 11.03125 0.8890625 12.0625 0.703125 13.125 C0.07348068 15.69954567 -0.69903574 17.70677487 -2 20 C-2.66 20 -3.32 20 -4 20 C-4.09765625 13.84765625 -4.09765625 13.84765625 -4 12 C-3.67 11.67 -3.34 11.34 -3 11 C-2.7180604 8.71315662 -2.55222995 6.42636727 -2.37890625 4.12890625 C-2 2 -2 2 0 0 Z " fill="#806356" transform="translate(126,143)"/>
<path d="M0 0 C0.99 0 1.98 0 3 0 C4.32 4.29 5.64 8.58 7 13 C6.01 13.495 6.01 13.495 5 14 C1.54499217 11.33022122 0.94383648 8.13835997 0 4 C0 2.68 0 1.36 0 0 Z " fill="#7D6157" transform="translate(117,56)"/>
<path d="M0 0 C-0.25 1.875 -0.25 1.875 -1 4 C-1.639375 4.309375 -2.27875 4.61875 -2.9375 4.9375 C-5.26452391 5.87279303 -5.26452391 5.87279303 -6.25 8.625 C-6.4975 9.40875 -6.745 10.1925 -7 11 C-7.66 11 -8.32 11 -9 11 C-9.33 10.01 -9.66 9.02 -10 8 C-8.92578125 5.95703125 -8.92578125 5.95703125 -7.3125 3.8125 C-6.53326172 2.73935547 -6.53326172 2.73935547 -5.73828125 1.64453125 C-4 0 -4 0 0 0 Z " fill="#7C5F54" transform="translate(101,182)"/>
<path d="M0 0 C0.99 0.33 1.98 0.66 3 1 C3.17942163 4.94727588 3.09350689 7.5980513 1 11 C-1.30441554 7.54337669 -1.25860135 6.05142119 -1 2 C-0.67 1.34 -0.34 0.68 0 0 Z " fill="#6D5246" transform="translate(88,193)"/>
<path d="M0 0 C0.99 0.33 1.98 0.66 3 1 C3 1.99 3 2.98 3 4 C2.34 4 1.68 4 1 4 C0.67 5.65 0.34 7.3 0 9 C-0.66 9 -1.32 9 -2 9 C-2.6875 7.3125 -2.6875 7.3125 -3 5 C-1.5625 2.25 -1.5625 2.25 0 0 Z " fill="#7C6157" transform="translate(103,172)"/>
<path d="M0 0 C2.67927341 4.01891012 2.15601248 6.24161923 2 11 C1.01 11 0.02 11 -1 11 C-2.0257259 6.58937864 -2.03684712 4.07369424 0 0 Z " fill="#826458" transform="translate(114,94)"/>
<path d="M0 0 C0.99 0 1.98 0 3 0 C5.4294516 3.6441774 5.16179575 5.71241272 5 10 C4.34 9.67 3.68 9.34 3 9 C2.375 6.4375 2.375 6.4375 2 4 C1.34 4 0.68 4 0 4 C0 2.68 0 1.36 0 0 Z " fill="#816459" transform="translate(109,38)"/>
<path d="M0 0 C1.5 1.125 1.5 1.125 3 3 C3.1875 6.1875 3.1875 6.1875 3 9 C2.01 8.67 1.02 8.34 0 8 C-0.79953138 4.71303767 -1.09658936 3.28976808 0 0 Z " fill="#7E5F52" transform="translate(111,78)"/>
<path d="M0 0 C1.125 1.6875 1.125 1.6875 2 4 C1.125 6.75 1.125 6.75 0 9 C-0.66 9 -1.32 9 -2 9 C-2.125 5.625 -2.125 5.625 -2 2 C-1.34 1.34 -0.68 0.68 0 0 Z " fill="#8A6C61" transform="translate(126,143)"/>
<path d="M0 0 C0.95465783 2.16967689 1.14401212 3.56328793 0.3984375 5.82421875 C-0.35870385 7.5684743 -1.17609198 9.28627131 -2 11 C-2.66 11 -3.32 11 -4 11 C-3.91291331 9.54054712 -3.80473093 8.08234132 -3.6875 6.625 C-3.62949219 5.81289062 -3.57148437 5.00078125 -3.51171875 4.1640625 C-3 2 -3 2 0 0 Z " fill="#806257" transform="translate(110,160)"/>
<path d="M0 0 C0.99 0 1.98 0 3 0 C2.67 1.98 2.34 3.96 2 6 C0.68 6 -0.64 6 -2 6 C-2 5.01 -2 4.02 -2 3 C-1.34 3 -0.68 3 0 3 C0 2.01 0 1.02 0 0 Z " fill="#7A6158" transform="translate(109,187)"/>
<path d="M0 0 C0.66 0 1.32 0 2 0 C1.67 2.64 1.34 5.28 1 8 C-0.32 7.67 -1.64 7.34 -3 7 C-3 6.34 -3 5.68 -3 5 C-2.34 5 -1.68 5 -1 5 C-0.67 3.35 -0.34 1.7 0 0 Z " fill="#836459" transform="translate(115,177)"/>
<path d="M0 0 C0.33 0 0.66 0 1 0 C1 3.63 1 7.26 1 11 C0.01 11.495 0.01 11.495 -1 12 C-1 10.35 -1 8.7 -1 7 C-1.66 6.67 -2.32 6.34 -3 6 C-2.34 6 -1.68 6 -1 6 C-0.67 4.02 -0.34 2.04 0 0 Z " fill="#84655A" transform="translate(115,131)"/>
</svg>
