<?xml version="1.0" encoding="UTF-8"?>
<svg version="1.1" xmlns="http://www.w3.org/2000/svg" width="234" height="231">
<path d="M0 0 C3.03328577 1.45015124 4.00899563 3.51787265 5.26171875 6.55078125 C6.25079794 10.35493197 6.1956836 13.99945308 5.87109375 17.89453125 C7.06992188 17.84232422 7.06992188 17.84232422 8.29296875 17.7890625 C16.01974729 17.59861373 23.65858952 17.82635485 30.87109375 20.89453125 C33.23827741 23.39946051 33.8217639 24.49167084 34.24609375 27.95703125 C33.87109375 30.89453125 33.87109375 30.89453125 32.49609375 32.70703125 C29.36543152 34.99482288 27.21205288 35.0572828 23.37109375 35.08203125 C22.39140625 35.09621094 21.41171875 35.11039063 20.40234375 35.125 C15.78732092 34.82379829 11.38124227 33.88660654 6.87109375 32.89453125 C6.79705663 38.12724694 6.74254592 43.35965926 6.70629883 48.59277344 C6.69119202 50.37375192 6.6707054 52.15469309 6.64477539 53.93554688 C6.60847432 56.49228103 6.59138687 59.04852435 6.578125 61.60546875 C6.56264114 62.40447601 6.54715729 63.20348328 6.53120422 64.02670288 C6.4953294 66.50517273 6.4953294 66.50517273 6.87109375 69.89453125 C9.57449508 71.69679881 10.97511625 72.25075203 13.99609375 73.01953125 C21.49845123 75.4632959 26.91708654 80.79317416 30.87109375 87.51953125 C34.73589939 95.32882924 34.68436231 104.09624677 33.24609375 112.58203125 C30.26162267 119.77189339 24.92841679 126.67074381 17.66796875 129.86328125 C13.55578254 131.3338644 10.24704039 131.950221 5.87109375 131.89453125 C5.89727783 132.66120117 5.92346191 133.42787109 5.95043945 134.21777344 C6.05440598 137.69315074 6.11942099 141.16820108 6.18359375 144.64453125 C6.22548828 145.85109375 6.26738281 147.05765625 6.31054688 148.30078125 C6.32666016 149.4609375 6.34277344 150.62109375 6.359375 151.81640625 C6.39865112 153.41887207 6.39865112 153.41887207 6.4387207 155.05371094 C5.87109375 157.89453125 5.87109375 157.89453125 3.56323242 160.26660156 C0.87109375 161.89453125 0.87109375 161.89453125 -2.69140625 162.01953125 C-6.23215269 160.86074151 -7.37494694 159.9870755 -9.31030273 156.87353516 C-11.0013723 152.7853127 -10.81383327 148.38533674 -10.87890625 144.01953125 C-10.92337891 142.55773437 -10.92337891 142.55773437 -10.96875 141.06640625 C-11.03906489 138.67569998 -11.09194859 136.28594691 -11.12890625 133.89453125 C-12.19109375 133.92933594 -13.25328125 133.96414062 -14.34765625 134 C-24.42758478 134.23355787 -32.28753294 134.26066981 -40.12890625 126.89453125 C-41.74320548 123.66593278 -41.72461282 120.38459472 -41.12890625 116.89453125 C-39.3928852 113.8694498 -37.29310488 111.47663056 -34.12890625 109.89453125 C-30.46683281 109.49647979 -28.76432921 109.42632486 -25.75390625 111.64453125 C-24.12890625 113.89453125 -24.12890625 113.89453125 -24.12890625 117.89453125 C-19.83890625 117.89453125 -15.54890625 117.89453125 -11.12890625 117.89453125 C-10.41829266 110.87722206 -10.02208975 103.94291175 -10.00390625 96.89453125 C-9.99939453 96.16500244 -9.99488281 95.43547363 -9.99023438 94.68383789 C-9.84188954 89.6485613 -9.84188954 89.6485613 -11.12890625 84.89453125 C-13.09917619 83.74384565 -13.09917619 83.74384565 -15.56640625 83.01953125 C-26.21359153 79.11049323 -35.15466257 73.3154418 -41.06640625 63.45703125 C-44.13875664 56.70608074 -44.55662255 49.13251074 -43.12890625 41.89453125 C-39.16805009 31.69815581 -32.70320653 25.9006758 -23.12890625 21.08203125 C-22.53851563 20.77072266 -21.948125 20.45941406 -21.33984375 20.13867188 C-17.44311868 18.18601779 -14.46706296 17.55726602 -10.12890625 17.89453125 C-10.25910156 17.01410156 -10.38929687 16.13367188 -10.5234375 15.2265625 C-11.64390225 5.79162105 -11.64390225 5.79162105 -9.19140625 1.51953125 C-5.73484809 -0.31456084 -3.8044242 -0.76951491 0 0 Z M-21.87890625 38.58203125 C-25.69062591 42.98016932 -27.5260412 45.68177048 -27.39453125 51.7421875 C-26.79664173 56.58685113 -24.66422608 59.64373858 -21 62.62890625 C-17.46160195 65.07722121 -14.39253347 67.06118593 -10.12890625 67.89453125 C-8.64985387 64.93642649 -9.00699722 61.93981575 -9.03125 58.69921875 C-9.03266495 57.99177521 -9.0340799 57.28433167 -9.03553772 56.55545044 C-9.04114025 54.29343456 -9.05369307 52.03151727 -9.06640625 49.76953125 C-9.07142093 48.2369806 -9.07598389 46.70442839 -9.08007812 45.171875 C-9.09111048 41.41272237 -9.10837673 37.65364353 -9.12890625 33.89453125 C-14.31854445 33.89453125 -18.14256728 34.97913296 -21.87890625 38.58203125 Z M5.87109375 86.89453125 C5.87109375 96.13453125 5.87109375 105.37453125 5.87109375 114.89453125 C11.84430689 115.16605558 11.84430689 115.16605558 15.74609375 111.95703125 C18.24521077 109.19631401 19.41771585 107.19229146 19.68359375 103.45703125 C19.23526865 98.2026611 16.71012334 94.4029986 12.87109375 90.89453125 C9.40609375 88.91453125 9.40609375 88.91453125 5.87109375 86.89453125 Z " fill="#775548" transform="translate(121.12890625,37.10546875)"/>
<path d="M0 0 C1.4540625 0.0309375 1.4540625 0.0309375 2.9375 0.0625 C4.47928816 3.14607631 4.07953232 6.39059088 4.0703125 9.7734375 C4.07126923 10.53798248 4.07222595 11.30252747 4.07321167 12.09024048 C4.0738927 13.7092497 4.07204378 15.32826164 4.06787109 16.94726562 C4.06253637 19.42063578 4.06781107 21.89382312 4.07421875 24.3671875 C4.07355767 25.94010457 4.07227588 27.51302152 4.0703125 29.0859375 C4.07233673 29.82460052 4.07436096 30.56326355 4.07644653 31.3243103 C4.0605928 34.81461319 3.79150499 37.64648005 2.9375 41.0625 C-0.0325 40.0725 -3.0025 39.0825 -6.0625 38.0625 C-6.0625 37.7325 -6.0625 37.4025 -6.0625 37.0625 C-4.0825 37.0625 -2.1025 37.0625 -0.0625 37.0625 C-0.0625 25.8425 -0.0625 14.6225 -0.0625 3.0625 C-1.3825 2.4025 -2.7025 1.7425 -4.0625 1.0625 C-3.0625 0.0625 -3.0625 0.0625 0 0 Z " fill="#7F5D51" transform="translate(111.0625,67.9375)"/>
<path d="M0 0 C2.64 0 5.28 0 8 0 C8 0.66 8 1.32 8 2 C8.99902344 1.98839844 9.99804688 1.97679687 11.02734375 1.96484375 C12.31769531 1.95582031 13.60804687 1.94679687 14.9375 1.9375 C16.22527344 1.92589844 17.51304688 1.91429687 18.83984375 1.90234375 C22 2 22 2 23 3 C23.08700342 4.63472882 23.10701063 6.27314055 23.09765625 7.91015625 C23.09443359 8.89951172 23.09121094 9.88886719 23.08789062 10.90820312 C23.07951172 11.94912109 23.07113281 12.99003906 23.0625 14.0625 C23.05798828 15.10728516 23.05347656 16.15207031 23.04882812 17.22851562 C23.03699913 19.8190666 23.02051689 22.40950559 23 25 C22.01 24.67 21.02 24.34 20 24 C19.505 14.1 19.505 14.1 19 4 C13.86902283 4.11838422 13.86902283 4.11838422 8.73901367 4.27026367 C3.46065136 4.33184788 3.46065136 4.33184788 0.98828125 2.55078125 C0 1 0 1 0 0 Z " fill="#785D53" transform="translate(91,167)"/>
<path d="M0 0 C0.99 0 1.98 0 3 0 C3 12.54 3 25.08 3 38 C0.18433745 39.40783127 -2.2363707 39.2076814 -5.375 39.25 C-7.08816406 39.28867188 -7.08816406 39.28867188 -8.8359375 39.328125 C-12.22936235 38.97621427 -13.54708921 38.29582784 -16 36 C-15.67 35.34 -15.34 34.68 -15 34 C-8.07 34.495 -8.07 34.495 -1 35 C-0.855625 33.370625 -0.71125 31.74125 -0.5625 30.0625 C-0.125 25.125 -0.125 25.125 1 24 C1.15740605 22.29436222 1.25093392 20.58272756 1.31640625 18.87109375 C1.35830078 17.83662109 1.40019531 16.80214844 1.44335938 15.73632812 C1.48267578 14.64771484 1.52199219 13.55910156 1.5625 12.4375 C1.60568359 11.34501953 1.64886719 10.25253906 1.69335938 9.12695312 C1.79982068 6.41810436 1.90183516 3.70916008 2 1 C1.34 0.67 0.68 0.34 0 0 Z " fill="#826357" transform="translate(111,120)"/>
<path d="M0 0 C0.66 0.33 1.32 0.66 2 1 C2 3.64 2 6.28 2 9 C-0.31 9 -2.62 9 -5 9 C-5 9.66 -5 10.32 -5 11 C-6.26607607 11.53229326 -7.53810412 12.05044544 -8.8125 12.5625 C-9.52019531 12.85253906 -10.22789063 13.14257812 -10.95703125 13.44140625 C-13 14 -13 14 -16 13 C-14.35 12.34 -12.7 11.68 -11 11 C-11 10.34 -11 9.68 -11 9 C-7.5980513 6.90649311 -4.94727588 6.82057837 -1 7 C-1.020625 6.030625 -1.04125 5.06125 -1.0625 4.0625 C-1 1 -1 1 0 0 Z " fill="#85685E" transform="translate(112,48)"/>
<path d="M0 0 C0.99 0 1.98 0 3 0 C3 7.26 3 14.52 3 22 C2.01 21.67 1.02 21.34 0 21 C0 14.07 0 7.14 0 0 Z " fill="#89695D" transform="translate(111,170)"/>
<path d="M0 0 C-2.47519408 3.71279112 -3.81577833 3.80628407 -7.95703125 4.7265625 C-10.49892532 5.06677777 -12.5599556 4.76251387 -15 4 C-14 2 -14 2 -11.6015625 1.11328125 C-10.12816406 0.71689453 -10.12816406 0.71689453 -8.625 0.3125 C-7.64789063 0.04050781 -6.67078125 -0.23148438 -5.6640625 -0.51171875 C-3 -1 -3 -1 0 0 Z " fill="#825F56" transform="translate(143,163)"/>
<path d="M0 0 C0.33 0 0.66 0 1 0 C1.04254356 1.99954746 1.04080783 4.00041636 1 6 C0.67 6.33 0.34 6.66 0 7 C0.09031574 9.35694954 0.24688128 11.71153582 0.4375 14.0625 C0.53933594 15.35285156 0.64117187 16.64320312 0.74609375 17.97265625 C0.82988281 18.97167969 0.91367188 19.97070312 1 21 C0.01 20.67 -0.98 20.34 -2 20 C-3.20083241 16.39750276 -2.95150744 13.78279324 -2.6875 10 C-2.60886719 8.7625 -2.53023438 7.525 -2.44921875 6.25 C-2 3 -2 3 0 0 Z " fill="#82665C" transform="translate(81,77)"/>
<path d="M0 0 C0.33 0.99 0.66 1.98 1 3 C-0.3125 5.1875 -0.3125 5.1875 -2 7 C-2.66 7 -3.32 7 -4 7 C-4.33 7.99 -4.66 8.98 -5 10 C-8.71055417 12.01430083 -11.82851735 12.19402245 -16 12 C-15.67 11.01 -15.34 10.02 -15 9 C-13.824375 9 -12.64875 9 -11.4375 9 C-7.33251353 8.53901221 -5.66800065 7.0310713 -3 3.9375 C-1.97925758 2.64106598 -0.97195538 1.33340129 0 0 Z " fill="#836458" transform="translate(141,144)"/>
<path d="M0 0 C0 1.32 0 2.64 0 4 C-0.66 4 -1.32 4 -2 4 C-2 3.34 -2 2.68 -2 2 C-3.98 2 -5.96 2 -8 2 C-8.33 3.32 -8.66 4.64 -9 6 C-9.66 5.67 -10.32 5.34 -11 5 C-10.6875 3.125 -10.6875 3.125 -10 1 C-6.1496895 -1.56687367 -4.41430237 -0.83288724 0 0 Z " fill="#83645A" transform="translate(122,38)"/>
<path d="M0 0 C0.99 0 1.98 0 3 0 C3 2.31 3 4.62 3 7 C2.34 7 1.68 7 1 7 C1.061875 7.928125 1.12375 8.85625 1.1875 9.8125 C1 13 1 13 -0.5 14.875 C-1.2425 15.431875 -1.2425 15.431875 -2 16 C-2 14.68 -2 13.36 -2 12 C-1.34 12 -0.68 12 0 12 C0 8.04 0 4.08 0 0 Z " fill="#886A5E" transform="translate(152,137)"/>
<path d="M0 0 C4.62 0 9.24 0 14 0 C14.33 1.32 14.66 2.64 15 4 C14.01 4 13.02 4 12 4 C12 3.34 12 2.68 12 2 C8.04 2 4.08 2 0 2 C0 1.34 0 0.68 0 0 Z " fill="#7F645B" transform="translate(125,55)"/>
<path d="M0 0 C1.485 0.99 1.485 0.99 3 2 C5.4582293 2.16671852 5.4582293 2.16671852 8 2 C9.32 2 10.64 2 12 2 C9.88940767 4.50144276 8.70331976 5.86276688 5.4375 6.5 C3 6 3 6 1.1875 4.125 C0 2 0 2 0 0 Z " fill="#826357" transform="translate(114,193)"/>
<path d="M0 0 C2.86198055 0.98125047 4.94890115 1.9585685 7.3125 3.875 C10.63818428 6.50461083 14.17313837 8.2147643 18 10 C16.34765625 10.69921875 16.34765625 10.69921875 14 11 C11.30859375 9.70703125 11.30859375 9.70703125 8.4375 7.8125 C7.48746094 7.20019531 6.53742188 6.58789062 5.55859375 5.95703125 C3.1727781 4.13215546 1.64101191 2.49190698 0 0 Z " fill="#6E4D42" transform="translate(87,108)"/>
<path d="M0 0 C0.33 0 0.66 0 1 0 C1 3.63 1 7.26 1 11 C-1.97 10.01 -4.94 9.02 -8 8 C-8 7.67 -8 7.34 -8 7 C-5.36 6.67 -2.72 6.34 0 6 C0 4.02 0 2.04 0 0 Z " fill="#836459" transform="translate(113,98)"/>
<path d="M0 0 C0.33 1.32 0.66 2.64 1 4 C1.66 4 2.32 4 3 4 C3.33 5.32 3.66 6.64 4 8 C5.32 8.33 6.64 8.66 8 9 C8 9.66 8 10.32 8 11 C5.125 10.6875 5.125 10.6875 2 10 C-0.4294516 6.3558226 -0.16179575 4.28758728 0 0 Z " fill="#866358" transform="translate(81,156)"/>
<path d="M0 0 C2.3125 1.5625 2.3125 1.5625 4 3 C3.67 3.99 3.34 4.98 3 6 C3 5.34 3 4.68 3 4 C2.34 4 1.68 4 1 4 C1 3.34 1 2.68 1 2 C-1.97 2 -4.94 2 -8 2 C-8 1.34 -8 0.68 -8 0 C-4.62858491 -1.12380503 -3.35507997 -0.98197462 0 0 Z " fill="#89685D" transform="translate(149,58)"/>
<path d="M0 0 C2.75328098 2.37783357 3.96944911 4.51198161 5 8 C5.07646165 10.3320802 5.09143299 12.66845878 5 15 C4.34 15 3.68 15 3 15 C2.92652344 14.04287109 2.92652344 14.04287109 2.8515625 13.06640625 C2.77679688 12.24011719 2.70203125 11.41382813 2.625 10.5625 C2.55539063 9.73878906 2.48578125 8.91507813 2.4140625 8.06640625 C2.27742188 7.38449219 2.14078125 6.70257813 2 6 C1.34 5.67 0.68 5.34 0 5 C0 3.35 0 1.7 0 0 Z " fill="#684D43" transform="translate(122,38)"/>
<path d="M0 0 C0.33 1.32 0.66 2.64 1 4 C-0.32 4.33 -1.64 4.66 -3 5 C-2.67 7.31 -2.34 9.62 -2 12 C-2.66 11.67 -3.32 11.34 -4 11 C-4.125 3.25 -4.125 3.25 -3 1 C-2.01 0.67 -1.02 0.34 0 0 Z " fill="#795C53" transform="translate(84,151)"/>
<path d="M0 0 C3.67230705 3.07999946 4.56802365 5.2482602 5 10 C4.01 10 3.02 10 2 10 C2 8.35 2 6.7 2 5 C1.34 5 0.68 5 0 5 C0 3.35 0 1.7 0 0 Z " fill="#7A5C54" transform="translate(150,127)"/>
<path d="M0 0 C2.64 0 5.28 0 8 0 C7.67 0.66 7.34 1.32 7 2 C5.35 2 3.7 2 2 2 C1.67 2.99 1.34 3.98 1 5 C0.67 5 0.34 5 0 5 C0 3.35 0 1.7 0 0 Z " fill="#6E5B53" transform="translate(125,167)"/>
<path d="M0 0 C2.86724686 0.57344937 3.8614515 0.8614515 6 3 C5.625 5.625 5.625 5.625 5 8 C3 4.25 3 4.25 3 2 C2.01 1.67 1.02 1.34 0 1 C0 0.67 0 0.34 0 0 Z " fill="#81655A" transform="translate(133,125)"/>
</svg>
