<?xml version="1.0" encoding="UTF-8"?>
<svg version="1.1" xmlns="http://www.w3.org/2000/svg" width="250" height="274">
<path d="M0 0 C0 0.66 0 1.32 0 2 C0.99 2.33 1.98 2.66 3 3 C5.28534229 6.24759168 5.54402208 9.11412803 5 13 C1.57680639 18.39412327 -0.70697 19.42859557 -7 21 C-6.94778173 24.20962297 -6.85263231 27.4166246 -6.75 30.625 C-6.73582031 31.52863281 -6.72164062 32.43226562 -6.70703125 33.36328125 C-6.49601933 39.14500791 -5.62188556 42.29440065 -2 47 C-1.44512932 51.02281242 -1.35669261 53.03503891 -3.625 56.4375 C-6.75683492 58.49791771 -8.31544773 58.6767545 -12 58 C-17.77982993 53.45870506 -21.13092824 47.03318811 -23 40 C-23.30887045 36.6214325 -23.33335781 33.26605736 -23.3125 29.875 C-23.30758545 28.94155762 -23.3026709 28.00811523 -23.29760742 27.04638672 C-23.1257672 16.89635744 -22.06011356 7.73250533 -15 0 C-10.32954992 -3.33603577 -5.1774231 -1.30692234 0 0 Z " fill="#795547" transform="translate(119,53)"/>
<path d="M0 0 C2.1640625 0.58203125 2.1640625 0.58203125 4.7265625 2.45703125 C6.88988321 7.15990235 7.04292977 11.49988575 6.1640625 16.58203125 C3.19166827 20.86577587 0.15338231 22.30569362 -4.8359375 23.58203125 C-5.26173201 31.27787282 -4.30267797 36.64855032 -0.8359375 43.58203125 C-0.55187405 46.51735352 -0.34128009 48.73213003 -0.8359375 51.58203125 C-2.9609375 54.14453125 -2.9609375 54.14453125 -5.8359375 55.58203125 C-9.76421786 55.42490004 -11.54487858 54.77607053 -14.8359375 52.58203125 C-19.65279952 44.83434614 -20.35587706 36.79322163 -20.4609375 27.89453125 C-20.48373779 26.93329346 -20.50653809 25.97205566 -20.5300293 24.98168945 C-20.4404917 16.48726507 -17.80685507 9.97736561 -12.2109375 3.58203125 C-7.73261688 -0.18918611 -5.63741754 -0.83551302 0 0 Z " fill="#785447" transform="translate(152.8359375,52.41796875)"/>
<path d="M0 0 C1.17755859 0.09667969 1.17755859 0.09667969 2.37890625 0.1953125 C4.4375 0.875 4.4375 0.875 5.71484375 2.9296875 C5.95332031 3.57164063 6.19179687 4.21359375 6.4375 4.875 C5.57125 4.545 4.705 4.215 3.8125 3.875 C0.32794246 2.84253851 -1.96847233 2.33971928 -5.5625 2.875 C-10.76630199 6.59200142 -12.88251003 11.88214057 -14.5625 17.875 C-15.00901163 22.26875598 -14.94583336 26.58974283 -14.8125 31 C-14.79445312 32.14726563 -14.77640625 33.29453125 -14.7578125 34.4765625 C-14.71113947 37.27694424 -14.64568498 40.07550563 -14.5625 42.875 C-15.2225 42.875 -15.8825 42.875 -16.5625 42.875 C-18.10180795 38.25707615 -17.87068084 33.65081482 -17.9375 28.8125 C-17.97488281 27.81283203 -18.01226562 26.81316406 -18.05078125 25.78320312 C-18.15393952 16.96317131 -15.75815659 10.52717896 -9.9375 3.875 C-6.40305141 0.89862224 -4.60343392 -0.47020248 0 0 Z " fill="#613D30" transform="translate(150.5625,52.125)"/>
<path d="M0 0 C0.33 0 0.66 0 1 0 C1.03867188 1.08667969 1.03867188 1.08667969 1.078125 2.1953125 C1.44607754 8.46723081 2.33481467 11.79780147 6 17 C6.55487068 21.02281242 6.64330739 23.03503891 4.375 26.4375 C1.24316508 28.49791771 -0.31544773 28.6767545 -4 28 C-8.22653482 24.67915121 -10.73237322 20.79690281 -13 16 C-12.6015625 13.78515625 -12.6015625 13.78515625 -12 12 C-11.67386719 12.68707031 -11.34773438 13.37414062 -11.01171875 14.08203125 C-10.35623047 15.43361328 -10.35623047 15.43361328 -9.6875 16.8125 C-9.25824219 17.70582031 -8.82898438 18.59914063 -8.38671875 19.51953125 C-7.09041857 21.83826538 -6.10676976 23.39885498 -4 25 C-0.37464024 25.2503577 -0.37464024 25.2503577 3 25 C3.52031389 19.18042546 3.52031389 19.18042546 1 14.125 C-1.75047968 9.8273755 -1.57318047 5.98948904 -1 1 C-0.67 0.67 -0.34 0.34 0 0 Z " fill="#663E30" transform="translate(111,83)"/>
<path d="M0 0 C0.66 0 1.32 0 2 0 C2.77848189 9.87807022 2.77848189 9.87807022 -0.125 14.0625 C-3.05215206 16.03514595 -5.58997766 17.1276687 -9 18 C-9.2361959 24.40353322 -8.823321 29.84629161 -7 36 C-7.99 35.67 -8.98 35.34 -10 35 C-12.41463955 28.89985798 -13.09434245 22.28302734 -11 16 C-8.00412353 13.22604031 -4.87967644 12.14626804 -1 11 C-0.67 7.37 -0.34 3.74 0 0 Z " fill="#674031" transform="translate(157,58)"/>
<path d="M0 0 C1.04350714 3.21808846 0.88008199 5.18320307 0.0625 8.4375 C-1.77714582 17.4752231 -1.166137 26.82284764 -1 36 C-1.99 35.67 -2.98 35.34 -4 35 C-4.70143885 9.4028777 -4.70143885 9.4028777 0 0 Z " fill="#634034" transform="translate(100,58)"/>
<path d="M0 0 C3.3 0.66 6.6 1.32 10 2 C10 2.66 10 3.32 10 4 C10.99 4.33 11.98 4.66 13 5 C15.28534229 8.24759168 15.54402208 11.11412803 15 15 C13.51902558 17.27048342 11.88425005 19.02153745 10 21 C9.34 20.67 8.68 20.34 8 20 C8 19.34 8 18.68 8 18 C8.99 18 9.98 18 11 18 C12.23095812 11.90703531 12.23095812 11.90703531 10.625 6.0625 C7.01738133 3.22794247 3.47567027 2.64074767 -1 2 C-0.67 1.34 -0.34 0.68 0 0 Z " fill="#614030" transform="translate(109,51)"/>
<path d="M0 0 C3.15922602 1.57961301 3.6261107 4.60093914 4.90234375 7.7734375 C6.04428797 10.08983681 6.95609748 11.43040022 9 13 C11.04100238 13.57017808 11.04100238 13.57017808 13.1875 13.6875 C15.0746875 13.8421875 15.0746875 13.8421875 17 14 C15 16 15 16 12.1875 16.4375 C7.87519436 15.84561491 6.71130092 14.35345114 4 11 C1.44322802 7.26894513 0 4.66699623 0 0 Z " fill="#5C3528" transform="translate(98,95)"/>
<path d="M0 0 C2.25245881 2.68841859 3.88213958 4.64641875 5 8 C8.00847418 9.22520264 8.00847418 9.22520264 11 10 C11 10.66 11 11.32 11 12 C7.26512223 11.5020163 5.18762365 11.12508244 2 9 C1.05078125 7.0546875 1.05078125 7.0546875 0.3125 4.875 C0.06113281 4.15054688 -0.19023437 3.42609375 -0.44921875 2.6796875 C-0.63097656 2.12539062 -0.81273437 1.57109375 -1 1 C-0.67 0.67 -0.34 0.34 0 0 Z " fill="#5E3D2F" transform="translate(136,96)"/>
<path d="M0 0 C0.66 0.33 1.32 0.66 2 1 C2.29296875 7.0546875 2.29296875 7.0546875 2 9 C1.01 9.66 0.02 10.32 -1 11 C-1.02688151 9.35425434 -1.04634123 7.70838587 -1.0625 6.0625 C-1.07410156 5.14597656 -1.08570313 4.22945313 -1.09765625 3.28515625 C-1 1 -1 1 0 0 Z " fill="#664135" transform="translate(150,95)"/>
<path d="M0 0 C0.66 0 1.32 0 2 0 C1.57576756 1.46224799 1.13509755 2.91973412 0.6875 4.375 C0.44386719 5.18710938 0.20023438 5.99921875 -0.05078125 6.8359375 C-1 9 -1 9 -4 11 C-3.39301257 6.87248551 -1.96189209 3.6678852 0 0 Z " fill="#6E4A31" transform="translate(137,61)"/>
<path d="M0 0 C0 0.66 0 1.32 0 2 C-1.32 2.33 -2.64 2.66 -4 3 C-4 4.98 -4 6.96 -4 9 C-4.66 9 -5.32 9 -6 9 C-6 6.69 -6 4.38 -6 2 C-2.25 0 -2.25 0 0 0 Z " fill="#6B4734" transform="translate(116,71)"/>
<path d="M0 0 C0 0.66 0 1.32 0 2 C-0.61875 2.45375 -1.2375 2.9075 -1.875 3.375 C-4.13442278 5.10279389 -4.92750301 6.40813228 -6 9 C-6.8125 7.3125 -6.8125 7.3125 -7 5 C-2.79545455 0 -2.79545455 0 0 0 Z " fill="#6F493D" transform="translate(108,52)"/>
</svg>
