<?xml version="1.0" encoding="UTF-8"?>
<svg version="1.1" xmlns="http://www.w3.org/2000/svg" width="247" height="252">
<path d="M0 0 C2.8125 1.75 2.8125 1.75 5 5 C5.54056359 9.56138494 6.09941527 14.80116946 4 19 C3.79777644 20.66272703 3.63588613 22.33054185 3.5 24 C3.11111111 28.77777778 3.11111111 28.77777778 2 31 C10.58 30.01 19.16 29.02 28 28 C28.33 25.03 28.66 22.06 29 19 C29.33 18.34 29.66 17.68 30 17 C30.19879357 13.72211483 30.31835357 10.44616338 30.42578125 7.1640625 C31.10101716 3.44337482 31.98950924 2.22819477 35 0 C40.91111111 -0.72592593 40.91111111 -0.72592593 43.875 1.25 C46.13342967 4.76311282 46.09240542 8.12291862 45.87890625 12.203125 C45.83056641 13.1828125 45.78222656 14.1625 45.73242188 15.171875 C45.67634766 16.18765625 45.62027344 17.2034375 45.5625 18.25 C45.51029297 19.28125 45.45808594 20.3125 45.40429688 21.375 C45.27484366 23.91699039 45.13988672 26.45856593 45 29 C46.24716797 29.27263672 46.24716797 29.27263672 47.51953125 29.55078125 C48.60621094 29.80214844 49.69289063 30.05351563 50.8125 30.3125 C52.43091797 30.67794922 52.43091797 30.67794922 54.08203125 31.05078125 C56.98933025 31.99652912 58.263919 32.52578932 60 35 C60.72394376 39.98716815 60.84391377 41.86674436 57.8125 45.9375 C53.02858412 49.38933277 46.66738411 48.9075056 41 49 C39.58019229 52.99209531 38.58598294 56.81483276 37.9375 61 C37.70353516 62.485 37.70353516 62.485 37.46484375 64 C37.31144531 64.99 37.15804687 65.98 37 67 C36.66891955 69.00037418 36.33622804 71.0004846 36 73 C36.55985596 73.01458252 37.11971191 73.02916504 37.6965332 73.04418945 C40.23588137 73.11871352 42.77392078 73.21535581 45.3125 73.3125 C46.19357422 73.33505859 47.07464844 73.35761719 47.98242188 73.38085938 C49.25375977 73.4340332 49.25375977 73.4340332 50.55078125 73.48828125 C51.72120972 73.52755737 51.72120972 73.52755737 52.9152832 73.56762695 C55.50554425 74.10485055 56.39457203 74.9278957 58 77 C59.08444457 80.56317503 59.30100515 82.30293543 57.8125 85.75 C55.45036956 88.68229986 53.44755744 89.79845309 49.70996094 90.31884766 C48.89301758 90.35026855 48.07607422 90.38168945 47.234375 90.4140625 C46.34492188 90.45273438 45.45546875 90.49140625 44.5390625 90.53125 C43.61867188 90.5621875 42.69828125 90.593125 41.75 90.625 C40.81414062 90.66367188 39.87828125 90.70234375 38.9140625 90.7421875 C36.60956946 90.83624844 34.30507987 90.92189399 32 91 C31.54052766 92.66635302 31.08249105 94.33310193 30.625 96 C30.36976563 96.928125 30.11453125 97.85625 29.8515625 98.8125 C29.0626508 101.76549058 28.31673267 104.72698416 27.58007812 107.69335938 C26.39957202 112.38756041 25.16330944 117.06746759 23.9375 121.75 C23.4047629 123.78640994 22.87220356 125.8228664 22.33984375 127.859375 C22.10644287 128.75108398 21.87304199 129.64279297 21.63256836 130.56152344 C21.23337182 132.10037912 20.86969578 133.64929553 20.55688477 135.20800781 C20 137 20 137 17.75 138.8125 C14.54017364 140.19856138 13.26590705 140.11728399 10 139 C7 137 7 137 6.3125 134.875 C5.67199662 128.98236891 5.60106076 124.50344885 8 119 C8.34541851 116.66842508 8.67794257 114.33491639 9 112 C10.57003891 105.82451362 10.57003891 105.82451362 11.99609375 103.08984375 C13.08872176 100.81530684 13.61694159 98.71771226 14.125 96.25 C14.29257813 95.45078125 14.46015625 94.6515625 14.6328125 93.828125 C14.75398438 93.22484375 14.87515625 92.6215625 15 92 C10.70668369 92.24791387 6.41598014 92.52718352 2.125 92.8125 C0.90167969 92.88275391 -0.32164063 92.95300781 -1.58203125 93.02539062 C-2.74863281 93.10595703 -3.91523437 93.18652344 -5.1171875 93.26953125 C-6.19597168 93.33760986 -7.27475586 93.40568848 -8.38623047 93.47583008 C-11.34273993 93.74847664 -11.34273993 93.74847664 -13 97 C-13.42611021 99.34221366 -13.77172722 101.6996657 -14.0625 104.0625 C-14.90508941 110.81017882 -14.90508941 110.81017882 -16 113 C-16.09321192 114.53564837 -16.13174506 116.07483219 -16.140625 117.61328125 C-16.15996094 118.53173828 -16.17929688 119.45019531 -16.19921875 120.39648438 C-16.23286524 122.32856908 -16.25128608 124.2609835 -16.25390625 126.19335938 C-16.37956389 130.92536157 -16.44730917 133.27453675 -19.38671875 137.1328125 C-22 139 -22 139 -24.5625 139.5625 C-28.88023333 138.5661 -30.63394579 135.54908131 -33 132 C-34.20917236 120.12165978 -32.2656514 107.42977992 -29 96 C-30.89575251 95.97278824 -32.79161979 95.95350864 -34.6875 95.9375 C-36.27111328 95.92009766 -36.27111328 95.92009766 -37.88671875 95.90234375 C-40.89843357 95.90904476 -40.89843357 95.90904476 -43.39453125 96.48828125 C-46.92568079 97.18180537 -50.41560633 97.22354691 -54 97.25 C-54.69867188 97.270625 -55.39734375 97.29125 -56.1171875 97.3125 C-60.61216249 97.34642434 -63.43905596 96.7807372 -67 94 C-68.7299548 91.09053057 -69.00663338 89.3250358 -68.9375 85.9375 C-67.74596873 82.20403535 -66.36214544 80.95473572 -63 79 C-61.65696674 79.29180566 -60.32453828 79.633275 -59 80 C-54.73215111 80.22711476 -50.46078266 80.18515591 -46.1875 80.1875 C-45.02412109 80.19974609 -43.86074219 80.21199219 -42.66210938 80.22460938 C-34.07487041 80.40498366 -34.07487041 80.40498366 -26 78 C-24.38488336 75.2499023 -24.38488336 75.2499023 -23.75 71.8125 C-23.4509375 70.56855469 -23.151875 69.32460937 -22.84375 68.04296875 C-22.5583394 66.6961875 -22.27720643 65.3484938 -22 64 C-21.85046875 63.2982666 -21.7009375 62.5965332 -21.546875 61.87353516 C-20.63847901 57.59291484 -19.79555787 53.30324482 -19 49 C-20.39572052 48.97263293 -21.79160221 48.95344011 -23.1875 48.9375 C-24.35345703 48.92009766 -24.35345703 48.92009766 -25.54296875 48.90234375 C-27.98991486 48.93097105 -27.98991486 48.93097105 -30.296875 49.484375 C-33.88275665 50.16838711 -37.42494821 50.26248783 -41.0625 50.3125 C-41.76955078 50.34150391 -42.47660156 50.37050781 -43.20507812 50.40039062 C-46.69971157 50.44304812 -48.62409391 50.28043788 -51.4609375 48.1640625 C-53 46 -53 46 -53.5625 43.0625 C-52.81993888 39.01966725 -51.10854016 37.59045013 -48 35 C-45.55490336 33.77745168 -43.82235666 33.81115263 -41.08984375 33.71875 C-40.09919922 33.68136719 -39.10855469 33.64398438 -38.08789062 33.60546875 C-36.52844727 33.55326172 -36.52844727 33.55326172 -34.9375 33.5 C-27.90710387 33.25834412 -20.98269568 32.8719287 -14 32 C-13.90912109 30.95199219 -13.90912109 30.95199219 -13.81640625 29.8828125 C-13.73261719 28.97273438 -13.64882812 28.06265625 -13.5625 27.125 C-13.48128906 26.22007813 -13.40007812 25.31515625 -13.31640625 24.3828125 C-13 22 -13 22 -12 20 C-11.76097348 16.75543631 -11.61739313 13.51194153 -11.4765625 10.26171875 C-10.96288777 6.74599416 -10.11339394 4.82954402 -8 2 C-4.72942857 -0.18038095 -3.79480531 -0.63246755 0 0 Z M-2 47 C-2.27714844 48.21558594 -2.55429688 49.43117188 -2.83984375 50.68359375 C-3.20553898 52.26827307 -3.57143475 53.85290612 -3.9375 55.4375 C-4.11990234 56.23994141 -4.30230469 57.04238281 -4.49023438 57.86914062 C-5.88671875 63.88671875 -5.88671875 63.88671875 -7 65 C-7.42339421 66.59207821 -7.78966289 68.19957573 -8.125 69.8125 C-8.31320313 70.68519531 -8.50140625 71.55789062 -8.6953125 72.45703125 C-8.99875868 74.98963976 -8.79414358 76.60079158 -8 79 C-6.96166016 78.80083984 -6.96166016 78.80083984 -5.90234375 78.59765625 C2.40328679 77.09848447 10.58296855 76.43694972 19 76 C20.26094474 71.75816078 21.32794686 67.62028254 22.0625 63.25 C22.55074904 60.36085692 23.07127626 57.78617121 24 55 C24.06740865 53.43881572 24.08514456 51.8749748 24.0625 50.3125 C24.05347656 49.50425781 24.04445312 48.69601563 24.03515625 47.86328125 C24.02355469 47.24839844 24.01195312 46.63351563 24 46 C20.97961078 45.77671448 17.95968289 45.57098533 14.9375 45.375 C14.08994141 45.31054688 13.24238281 45.24609375 12.36914062 45.1796875 C7.06983265 44.85231712 3.01133209 45.21849524 -2 47 Z " fill="#775548" transform="translate(121,50)"/>
<path d="M0 0 C-0.14049518 1.47968324 -0.28754826 2.95874516 -0.4375 4.4375 C-0.51871094 5.26121094 -0.59992188 6.08492187 -0.68359375 6.93359375 C-1 9 -1 9 -2 10 C-2.15825258 11.99782126 -2.25119171 14.00088834 -2.31640625 16.00390625 C-2.35830078 17.21884766 -2.40019531 18.43378906 -2.44335938 19.68554688 C-2.48267578 20.96494141 -2.52199219 22.24433594 -2.5625 23.5625 C-2.60568359 24.84576172 -2.64886719 26.12902344 -2.69335938 27.45117188 C-2.799848 30.63399853 -2.90185962 33.81690674 -3 37 C-0.36 37.66 2.28 38.32 5 39 C4.67 39.99 4.34 40.98 4 42 C1.75 42.25 1.75 42.25 -1 42 C-4.20480495 39.34459018 -6.8312988 36.6572412 -7.265625 32.390625 C-7.21370241 21.95418364 -6.94183141 10.79618103 -3 1 C-1 0 -1 0 0 0 Z " fill="#795E54" transform="translate(95,147)"/>
<path d="M0 0 C0.66 0.33 1.32 0.66 2 1 C1.125 4.875 1.125 4.875 0 6 C-1.48019432 6.14554369 -2.96677329 6.22724263 -4.453125 6.28125 C-5.37722168 6.31806885 -6.30131836 6.3548877 -7.25341797 6.39282227 C-8.24229004 6.42819092 -9.23116211 6.46355957 -10.25 6.5 C-18.52082483 6.83139536 -26.75362831 7.26871798 -35 8 C-35.2165625 8.928125 -35.2165625 8.928125 -35.4375 9.875 C-36 12 -36 12 -37 14 C-36.34 14 -35.68 14 -35 14 C-35 14.99 -35 15.98 -35 17 C-34.34 17 -33.68 17 -33 17 C-33 17.66 -33 18.32 -33 19 C-35.4375 18.625 -35.4375 18.625 -38 18 C-39.44430855 15.11138291 -39.37688506 13.20352299 -39 10 C-34.08528053 4.17993747 -34.08528053 4.17993747 -29.80444336 3.81054688 C-28.90862549 3.78025391 -28.01280762 3.74996094 -27.08984375 3.71875 C-26.09919922 3.68136719 -25.10855469 3.64398438 -24.08789062 3.60546875 C-22.52844727 3.55326172 -22.52844727 3.55326172 -20.9375 3.5 C-13.90710387 3.25834412 -6.98269568 2.8719287 0 2 C0 1.34 0 0.68 0 0 Z " fill="#795B51" transform="translate(107,80)"/>
<path d="M0 0 C0.495 1.98 0.495 1.98 1 4 C0.34 4 -0.32 4 -1 4 C-1.33 4.99 -1.66 5.98 -2 7 C-2.76666992 7.02505615 -3.53333984 7.0501123 -4.32324219 7.07592773 C-7.79899283 7.19201423 -11.27448092 7.31468366 -14.75 7.4375 C-15.9565625 7.47681641 -17.163125 7.51613281 -18.40625 7.55664062 C-19.56640625 7.59853516 -20.7265625 7.64042969 -21.921875 7.68359375 C-22.99018555 7.72025146 -24.05849609 7.75690918 -25.15917969 7.79467773 C-27.92750388 7.90929111 -27.92750388 7.90929111 -30.25488281 8.58227539 C-32 9 -32 9 -34 8 C-36.3329866 7.95977609 -38.66706666 7.95679753 -41 8 C-41.66 9.98 -42.32 11.96 -43 14 C-43.99 13.67 -44.98 13.34 -46 13 C-45.75016343 9.33573023 -45.31847391 7.39809239 -43 4.5 C-39.6534563 2.82672815 -39.37236918 2.9257832 -36.0078125 3.890625 C-30.59704628 5.22196691 -25.4249481 5.29555361 -19.875 5.25 C-18.44994141 5.26160156 -18.44994141 5.26160156 -16.99609375 5.2734375 C-11.63707436 5.25857198 -7.0063986 4.99193578 -2 3 C-1.34 2.01 -0.68 1.02 0 0 Z " fill="#816358" transform="translate(98,126)"/>
<path d="M0 0 C0.66 1.98 1.32 3.96 2 6 C-2.455 5.01 -2.455 5.01 -7 4 C-7 4.66 -7 5.32 -7 6 C-7.66 6 -8.32 6 -9 6 C-8.96519531 7.19238281 -8.93039063 8.38476562 -8.89453125 9.61328125 C-8.86639247 11.17967342 -8.8390924 12.74608081 -8.8125 14.3125 C-8.77479492 15.49102539 -8.77479492 15.49102539 -8.73632812 16.69335938 C-8.72666016 17.45068359 -8.71699219 18.20800781 -8.70703125 18.98828125 C-8.6913208 19.68477783 -8.67561035 20.38127441 -8.65942383 21.09887695 C-9.09761557 23.54489783 -10.13437358 24.42702086 -12 26 C-13.125 19.25 -13.125 19.25 -12 17 C-11.80120643 13.72211483 -11.68164643 10.44616338 -11.57421875 7.1640625 C-10.31844228 0.24447785 -6.4274417 -0.49441859 0 0 Z " fill="#7F5E54" transform="translate(163,50)"/>
<path d="M0 0 C0.33 0 0.66 0 1 0 C1 2.31 1 4.62 1 7 C1.66 6.67 2.32 6.34 3 6 C6.77577509 5.48051688 10.57825432 5.20214678 14.375 4.875 C15.42945313 4.77574219 16.48390625 4.67648438 17.5703125 4.57421875 C18.58609375 4.48527344 19.601875 4.39632812 20.6484375 4.3046875 C21.57833496 4.22202637 22.50823242 4.13936523 23.46630859 4.05419922 C25.87578725 4.00265709 27.71156267 4.2868341 30 5 C30 5.99 30 6.98 30 8 C19.77 8 9.54 8 -1 8 C-1 1 -1 1 0 0 Z " fill="#8E6C61" transform="translate(121,75)"/>
<path d="M0 0 C0.66 0 1.32 0 2 0 C2 0.66 2 1.32 2 2 C11.57 2 21.14 2 31 2 C31 2.33 31 2.66 31 3 C29.02 3.33 27.04 3.66 25 4 C25 4.33 25 4.66 25 5 C20.5621439 6.11165232 16.23043614 6.11527763 11.6875 6.0625 C10.94693359 6.05798828 10.20636719 6.05347656 9.44335938 6.04882812 C7.62887101 6.03712175 5.81442466 6.01918898 4 6 C3.67 5.01 3.34 4.02 3 3 C2.01 2.67 1.02 2.34 0 2 C0 1.34 0 0.68 0 0 Z " fill="#826256" transform="translate(55,141)"/>
<path d="M0 0 C6.875 0.875 6.875 0.875 8 2 C8.58286951 9.11100804 8.58286951 9.11100804 6.52734375 12.24609375 C2.825844 14.8148316 -0.36092279 14.43924711 -4.75 14.25 C-5.93916016 14.22292969 -5.93916016 14.22292969 -7.15234375 14.1953125 C-9.10208348 14.14833082 -11.05119878 14.07659044 -13 14 C-13 13.01 -13 12.02 -13 11 C-12.505 11.165 -12.01 11.33 -11.5 11.5 C-6.3020554 12.53958892 -1.12177191 12.28044298 4 11 C4.66 9.02 5.32 7.04 6 5 C5.34 5 4.68 5 4 5 C4 4.01 4 3.02 4 2 C2.68 1.34 1.36 0.68 0 0 Z " fill="#7E6156" transform="translate(173,83)"/>
<path d="M0 0 C0.33 0 0.66 0 1 0 C1.33 5.28 1.66 10.56 2 16 C4.31 16.66 6.62 17.32 9 18 C9 18.66 9 19.32 9 20 C5.37 20 1.74 20 -2 20 C-2.125 11.25 -2.125 11.25 -1 9 C-0.77532169 7.46331135 -0.59203195 5.92031946 -0.4375 4.375 C-0.35371094 3.55773437 -0.26992187 2.74046875 -0.18359375 1.8984375 C-0.12300781 1.27195312 -0.06242188 0.64546875 0 0 Z " fill="#846559" transform="translate(164,63)"/>
<path d="M0 0 C1.03253906 0.01353516 1.03253906 0.01353516 2.0859375 0.02734375 C3.76577838 0.05067487 5.44543746 0.08653674 7.125 0.125 C7.125 0.785 7.125 1.445 7.125 2.125 C0.7353233 3.44052167 -5.33942538 4.60031452 -11.875 4.125 C-12.535 3.465 -13.195 2.805 -13.875 2.125 C-9.17038677 0.26367327 -4.9992304 -0.1259496 0 0 Z " fill="#7F6054" transform="translate(91.875,95.875)"/>
<path d="M0 0 C3.43734063 -0.08703823 6.87439837 -0.14040272 10.3125 -0.1875 C11.28896484 -0.21263672 12.26542969 -0.23777344 13.27148438 -0.26367188 C14.20927734 -0.27333984 15.14707031 -0.28300781 16.11328125 -0.29296875 C16.97735596 -0.3086792 17.84143066 -0.32438965 18.73168945 -0.34057617 C21.50517112 0.07584907 22.34044629 0.77565797 24 3 C24.8125 6 24.8125 6 25 9 C24.01 10.485 24.01 10.485 23 12 C22 11 22 11 21.9375 7.4375 C21.958125 6.303125 21.97875 5.16875 22 4 C19.17588235 3.05862745 17.47081968 2.88274618 14.55078125 2.90234375 C13.70322266 2.90556641 12.85566406 2.90878906 11.98242188 2.91210938 C10.66081055 2.92467773 10.66081055 2.92467773 9.3125 2.9375 C7.97348633 2.94426758 7.97348633 2.94426758 6.60742188 2.95117188 C4.40488013 2.96295017 2.20247401 2.97939836 0 3 C0 2.01 0 1.02 0 0 Z " fill="#7E6157" transform="translate(155,124)"/>
<path d="M0 0 C0 0.66 0 1.32 0 2 C-2.88415883 3.44207941 -5.41721528 3.09394887 -8.625 3.0625 C-9.81351563 3.05347656 -11.00203125 3.04445312 -12.2265625 3.03515625 C-13.14179688 3.02355469 -14.05703125 3.01195312 -15 3 C-15 2.01 -15 1.02 -15 0 C-12.87562788 -0.19448477 -10.75046809 -0.38038289 -8.625 -0.5625 C-7.44164062 -0.66691406 -6.25828125 -0.77132812 -5.0390625 -0.87890625 C-2 -1 -2 -1 0 0 Z " fill="#8B6F65" transform="translate(175,137)"/>
<path d="M0 0 C0.66 1.98 1.32 3.96 2 6 C-2.455 5.01 -2.455 5.01 -7 4 C-7 4.66 -7 5.32 -7 6 C-7.99 6 -8.98 6 -10 6 C-10 4.68 -10 3.36 -10 2 C-6.3558226 -0.4294516 -4.28758728 -0.16179575 0 0 Z " fill="#8C6A60" transform="translate(163,50)"/>
<path d="M0 0 C0.68384766 0.00902344 1.36769531 0.01804688 2.07226562 0.02734375 C3.73583287 0.05061042 5.39921631 0.08646833 7.0625 0.125 C7.0625 0.455 7.0625 0.785 7.0625 1.125 C0.6275 1.62 0.6275 1.62 -5.9375 2.125 C-5.9375 2.785 -5.9375 3.445 -5.9375 4.125 C-7.5771875 4.3415625 -7.5771875 4.3415625 -9.25 4.5625 C-12.86872987 5.00788104 -12.86872987 5.00788104 -15.9375 6.125 C-15.6075 4.805 -15.2775 3.485 -14.9375 2.125 C-9.77803135 0.4208322 -5.4949667 -0.09725605 0 0 Z " fill="#7F5F54" transform="translate(165.9375,135.875)"/>
<path d="M0 0 C0.04254356 1.99954746 0.04080783 4.00041636 0 6 C-0.33 6.33 -0.66 6.66 -1 7 C-1.23075082 8.34747084 -1.41153063 9.70377565 -1.5625 11.0625 C-1.7790625 13.0115625 -1.7790625 13.0115625 -2 15 C-2.99 15.33 -3.98 15.66 -5 16 C-4.91321237 13.70760939 -4.80504727 11.4160193 -4.6875 9.125 C-4.62949219 7.84882812 -4.57148437 6.57265625 -4.51171875 5.2578125 C-4.34285156 4.18273437 -4.17398438 3.10765625 -4 2 C-1 0 -1 0 0 0 Z " fill="#7B6158" transform="translate(104,105)"/>
<path d="M0 0 C0.66 0.33 1.32 0.66 2 1 C1.125 4.875 1.125 4.875 0 6 C-2.35313555 6.07271741 -4.70833668 6.08370868 -7.0625 6.0625 C-8.35285156 6.05347656 -9.64320312 6.04445313 -10.97265625 6.03515625 C-11.97167969 6.02355469 -12.97070312 6.01195313 -14 6 C-14 5.67 -14 5.34 -14 5 C-13.2575 4.87625 -12.515 4.7525 -11.75 4.625 C-9.04701797 4.13686179 -9.04701797 4.13686179 -7 2.9375 C-4.55010213 1.78911037 -2.67361665 1.85146574 0 2 C0 1.34 0 0.68 0 0 Z " fill="#85675D" transform="translate(107,80)"/>
<path d="M0 0 C0.33 0 0.66 0 1 0 C1.04254356 1.99954746 1.04080783 4.00041636 1 6 C0.67 6.33 0.34 6.66 0 7 C-0.52928076 9.31282351 -0.96333715 11.63721913 -1.40234375 13.96875 C-1.69818359 14.97421875 -1.69818359 14.97421875 -2 16 C-2.66 16.33 -3.32 16.66 -4 17 C-4.66 16.34 -5.32 15.68 -6 15 C-5.01 11.7 -4.02 8.4 -3 5 C-2.34 5 -1.68 5 -1 5 C-0.67 3.35 -0.34 1.7 0 0 Z " fill="#7E6055" transform="translate(133,159)"/>
<path d="M0 0 C0.33 1.32 0.66 2.64 1 4 C-0.6875 5.5625 -0.6875 5.5625 -3 7 C-6.03884627 6.8517636 -7.50206293 6.42925609 -9.8125 4.4375 C-10.204375 3.963125 -10.59625 3.48875 -11 3 C-10.67 2.34 -10.34 1.68 -10 1 C-7.98177083 1.32552083 -5.96354167 1.65104167 -3.9453125 1.9765625 C-2.98238281 1.98816406 -2.98238281 1.98816406 -2 2 C-1.34 1.34 -0.68 0.68 0 0 Z " fill="#806358" transform="translate(139,183)"/>
<path d="M0 0 C0.33 0 0.66 0 1 0 C1 6.27 1 12.54 1 19 C-2.61041621 14.18611172 -2.60689687 11.76054569 -2 6 C-1 2.4375 -1 2.4375 0 0 Z " fill="#8A6D62" transform="translate(91,165)"/>
<path d="M0 0 C1.93166016 0.01740234 1.93166016 0.01740234 3.90234375 0.03515625 C5.19269531 0.04417969 6.48304688 0.05320313 7.8125 0.0625 C8.81152344 0.07410156 9.81054688 0.08570313 10.83984375 0.09765625 C10.83984375 2.07765625 10.83984375 4.05765625 10.83984375 6.09765625 C9.84984375 6.59265625 9.84984375 6.59265625 8.83984375 7.09765625 C8.83984375 5.44765625 8.83984375 3.79765625 8.83984375 2.09765625 C8.15277344 2.19304687 7.46570313 2.2884375 6.7578125 2.38671875 C5.85675781 2.49757812 4.95570313 2.6084375 4.02734375 2.72265625 C3.13402344 2.83867187 2.24070313 2.9546875 1.3203125 3.07421875 C-1.16015625 3.09765625 -1.16015625 3.09765625 -4.16015625 1.09765625 C-3.16015625 0.09765625 -3.16015625 0.09765625 0 0 Z " fill="#86675B" transform="translate(128.16015625,138.90234375)"/>
<path d="M0 0 C0.33 0 0.66 0 1 0 C1.04241723 2.33294775 1.04092937 4.66702567 1 7 C0.67 7.33 0.34 7.66 0 8 C-0.24414016 11.06983652 -0.38410674 14.1385673 -0.5234375 17.21484375 C-0.68070312 18.13394531 -0.83796875 19.05304688 -1 20 C-1.99 20.66 -2.98 21.32 -4 22 C-3.72202422 18.89444745 -3.42526358 15.79097058 -3.125 12.6875 C-3.00705078 11.36588867 -3.00705078 11.36588867 -2.88671875 10.01757812 C-2.80292969 9.17001953 -2.71914062 8.32246094 -2.6328125 7.44921875 C-2.55949707 6.66893311 -2.48618164 5.88864746 -2.41064453 5.0847168 C-2 3 -2 3 0 0 Z " fill="#85695E" transform="translate(113,55)"/>
<path d="M0 0 C0.78055939 2.34167817 1.51671752 4.5835876 2 7 C1.67 7.33 1.34 7.66 1 8 C0.47071924 10.31282351 0.03666285 12.63721913 -0.40234375 14.96875 C-0.69818359 15.97421875 -0.69818359 15.97421875 -1 17 C-1.66 17.33 -2.32 17.66 -3 18 C-2.88566637 15.74943278 -2.75813564 13.49953326 -2.625 11.25 C-2.55539063 9.99703125 -2.48578125 8.7440625 -2.4140625 7.453125 C-2.04676696 4.39001879 -1.60288714 2.58025734 0 0 Z " fill="#7C5E53" transform="translate(137,140)"/>
<path d="M0 0 C0.66 0.33 1.32 0.66 2 1 C2.44921875 3.43359375 2.44921875 3.43359375 2.6875 6.4375 C2.77386719 7.42621094 2.86023438 8.41492188 2.94921875 9.43359375 C3 12 3 12 2 14 C1.34 14 0.68 14 0 14 C-0.33 14.99 -0.66 15.98 -1 17 C-0.67 11.39 -0.34 5.78 0 0 Z " fill="#87675B" transform="translate(123,55)"/>
<path d="M0 0 C0 0.66 0 1.32 0 2 C0.66 2.33 1.32 2.66 2 3 C1 4 1 4 -1.94140625 4.09765625 C-3.73384766 4.08025391 -3.73384766 4.08025391 -5.5625 4.0625 C-7.35880859 4.04896484 -7.35880859 4.04896484 -9.19140625 4.03515625 C-10.11824219 4.02355469 -11.04507813 4.01195312 -12 4 C-11.01 3.67 -10.02 3.34 -9 3 C-9 2.34 -9 1.68 -9 1 C-2.25 0 -2.25 0 0 0 Z " fill="#826459" transform="translate(127,126)"/>
<path d="M0 0 C0.33 1.32 0.66 2.64 1 4 C0.34 4 -0.32 4 -1 4 C-1.33 4.99 -1.66 5.98 -2 7 C-6.95 7 -11.9 7 -17 7 C-17 6.67 -17 6.34 -17 6 C-16.10796875 5.90203125 -15.2159375 5.8040625 -14.296875 5.703125 C-12.54117188 5.47882813 -12.54117188 5.47882813 -10.75 5.25 C-9.00976562 5.04117188 -9.00976562 5.04117188 -7.234375 4.828125 C-3.65354905 3.91129517 -2.31285482 2.81664498 0 0 Z " fill="#886A60" transform="translate(98,126)"/>
<path d="M0 0 C0.33 0 0.66 0 1 0 C1.25 6.625 1.25 6.625 -1 10 C-2.32 9.67 -3.64 9.34 -5 9 C-4.34 9 -3.68 9 -3 9 C-3 7.02 -3 5.04 -3 3 C-2.01 2.67 -1.02 2.34 0 2 C0 1.34 0 0.68 0 0 Z " fill="#806256" transform="translate(143,118)"/>
<path d="M0 0 C1.65 0 3.3 0 5 0 C5.66 1.32 6.32 2.64 7 4 C4.03 4 1.06 4 -2 4 C-1.34 2.68 -0.68 1.36 0 0 Z " fill="#88685E" transform="translate(116,50)"/>
<path d="M0 0 C-0.3125 3.375 -0.3125 3.375 -1 7 C-1.99 7.66 -2.98 8.32 -4 9 C-3.4140625 2.84765625 -3.4140625 2.84765625 -3 1 C-1 0 -1 0 0 0 Z " fill="#816157" transform="translate(95,147)"/>
<path d="M0 0 C0.33 0.99 0.66 1.98 1 3 C0.34 3.99 -0.32 4.98 -1 6 C-0.34 6 0.32 6 1 6 C1 6.99 1 7.98 1 9 C1.66 9 2.32 9 3 9 C3 9.66 3 10.32 3 11 C1.68 10.67 0.36 10.34 -1 10 C-2.25 3.375 -2.25 3.375 0 0 Z " fill="#84655A" transform="translate(71,88)"/>
<path d="M0 0 C4.95 0 9.9 0 15 0 C15 1.32 15 2.64 15 4 C14.34 3.67 13.68 3.34 13 3 C13 2.67 13 2.34 13 2 C8.71 1.67 4.42 1.34 0 1 C0 0.67 0 0.34 0 0 Z " fill="#6C5144" transform="translate(79,144)"/>
<path d="M0 0 C0 0.66 0 1.32 0 2 C-2.95664519 3.4783226 -5.74229737 3.06032783 -9 3 C-8.34 2.67 -7.68 2.34 -7 2 C-7 1.34 -7 0.68 -7 0 C-2.25 -1.125 -2.25 -1.125 0 0 Z " fill="#84695F" transform="translate(175,137)"/>
<path d="M0 0 C0.33 0 0.66 0 1 0 C1.125 6.75 1.125 6.75 0 9 C-0.66 9 -1.32 9 -2 9 C-2.125 5.625 -2.125 5.625 -2 2 C-1.34 1.34 -0.68 0.68 0 0 Z " fill="#836458" transform="translate(159,98)"/>
<path d="M0 0 C0.125 2.375 0.125 2.375 0 5 C-0.66 5.66 -1.32 6.32 -2 7 C-2.99 6.67 -3.98 6.34 -5 6 C-2.84615385 0 -2.84615385 0 0 0 Z " fill="#85655A" transform="translate(147,105)"/>
<path d="M0 0 C0.66 1.32 1.32 2.64 2 4 C1.01 5.485 1.01 5.485 0 7 C-0.66 7 -1.32 7 -2 7 C-2.125 4.625 -2.125 4.625 -2 2 C-1.34 1.34 -0.68 0.68 0 0 Z " fill="#826458" transform="translate(144,164)"/>
<path d="M0 0 C0.185625 0.61875 0.37125 1.2375 0.5625 1.875 C2.71437233 5.05602866 5.37533763 5.19451947 9 6 C9 6.33 9 6.66 9 7 C2.84765625 7.09765625 2.84765625 7.09765625 1 7 C0 6 0 6 -0.0625 2.9375 C-0.041875 1.968125 -0.02125 0.99875 0 0 Z " fill="#927469" transform="translate(163,76)"/>
<path d="M0 0 C2.97 0.495 2.97 0.495 6 1 C6 1.99 6 2.98 6 4 C3.36 4 0.72 4 -2 4 C-1.34 2.68 -0.68 1.36 0 0 Z " fill="#84665E" transform="translate(145,79)"/>
<path d="M0 0 C0.99 0.33 1.98 0.66 3 1 C2.01 1.495 2.01 1.495 1 2 C0.34786708 4.02463255 0.34786708 4.02463255 0 6 C-0.66 6 -1.32 6 -2 6 C-2.33 6.66 -2.66 7.32 -3 8 C-3.36923077 3.44615385 -3.36923077 3.44615385 -1.5 1.1875 C-1.005 0.795625 -0.51 0.40375 0 0 Z " fill="#836256" transform="translate(108,141)"/>
<path d="M0 0 C1.485 0.99 1.485 0.99 3 2 C2.67 3.98 2.34 5.96 2 8 C1.34 7.67 0.68 7.34 0 7 C0 4.69 0 2.38 0 0 Z " fill="#876B5C" transform="translate(177,128)"/>
<path d="M0 0 C0.99 0 1.98 0 3 0 C3 1.98 3 3.96 3 6 C2.01 6.33 1.02 6.66 0 7 C0 4.69 0 2.38 0 0 Z " fill="#84695F" transform="translate(99,114)"/>
<path d="M0 0 C0.66 0 1.32 0 2 0 C2 1.98 2 3.96 2 6 C1.34 6 0.68 6 0 6 C-0.33 6.66 -0.66 7.32 -1 8 C-0.67 5.36 -0.34 2.72 0 0 Z " fill="#815F53" transform="translate(113,109)"/>
<path d="M0 0 C1 2 1 2 0.44140625 4.1640625 C0.15136719 4.97617188 -0.13867188 5.78828125 -0.4375 6.625 C-0.72496094 7.44226563 -1.01242188 8.25953125 -1.30859375 9.1015625 C-1.53675781 9.72804688 -1.76492187 10.35453125 -2 11 C-2.33 11 -2.66 11 -3 11 C-3.39253254 6.55129785 -2.15305957 3.85756507 0 0 Z " fill="#806156" transform="translate(118,94)"/>
</svg>
