<?xml version="1.0" encoding="UTF-8"?>
<svg version="1.1" xmlns="http://www.w3.org/2000/svg" width="265" height="268">
<path d="M0 0 C9.40315908 -0.41224706 9.40315908 -0.41224706 13.8671875 2.3984375 C15.85093767 5.90814933 16.1810337 7.29343723 15.4921875 11.2734375 C14.87401376 12.63147819 14.22770873 13.97686882 13.5625 15.3125 C11.24208946 20.43140344 10.44542174 25.3475269 9.8046875 30.8984375 C9.62317139 32.33280151 9.62317139 32.33280151 9.43798828 33.79614258 C8.59653038 40.67728286 8.0265919 47.54892423 7.703125 54.47265625 C7.4921875 57.2734375 7.4921875 57.2734375 6.4921875 60.2734375 C6.31464876 62.33345051 6.17326671 64.39669125 6.0546875 66.4609375 C5.78640755 70.35099675 5.45204424 74.00799682 4.4296875 77.7734375 C2.98404792 83.08608158 2.98404792 83.08608158 4.51953125 88.15234375 C7.01879797 93.60255189 4.33350767 100.97280006 2.3515625 106.3203125 C1.0763236 109.21858272 0.2624085 110.63971742 -2.5078125 112.2734375 C-5.90325209 112.75371349 -9.12911108 112.89954077 -12.5078125 112.2734375 C-16.11655499 109.53548206 -17.3172166 106.33105791 -18.10546875 101.95703125 C-18.27370599 100.54318473 -18.42730682 99.12755853 -18.5703125 97.7109375 C-18.65265137 96.89778076 -18.73499023 96.08462402 -18.81982422 95.24682617 C-19.92410434 83.08553139 -20.1548336 70.86572793 -20.36477661 58.66194153 C-20.45485594 53.49993731 -20.59617029 48.34176475 -20.76464844 43.18174744 C-20.87421286 39.55437949 -20.94748012 35.92684239 -21.01263428 32.2984314 C-21.05073118 30.54809019 -21.10259553 28.79798816 -21.16900635 27.04849243 C-21.7365286 11.59698368 -21.7365286 11.59698368 -16.73046875 5.72265625 C-11.52774485 0.80806077 -6.86279675 0.53496188 0 0 Z " fill="#775346" transform="translate(139.5078125,42.7265625)"/>
<path d="M0 0 C3.8547405 2.68935383 5.96266426 5.39185305 7.29296875 9.94921875 C8.3709371 16.06482135 7.02438597 20.68875553 3.6875 25.875 C1.00472085 29.11283691 -1.67218647 30.68872697 -5.75 31.875 C-10.07555313 31.875 -12.55506914 31.00184766 -16.3125 28.875 C-21.7477453 23.15368916 -21.71119739 17.88962812 -21.6640625 10.27734375 C-21.16375718 5.43550005 -20.03353793 3.91948558 -16.3125 0.875 C-11.06383247 -2.22452177 -5.65789894 -1.92155058 0 0 Z " fill="#755144" transform="translate(142.3125,173.125)"/>
<path d="M0 0 C0.33 0 0.66 0 1 0 C1.18051986 4.69351625 0.90726842 8.93817511 0.0625 13.5625 C-1.04212386 19.66126833 -1.44144556 25.6685867 -1.75390625 31.84765625 C-2 35 -2 35 -3 38 C-3.27010104 41.28837296 -3.44492933 44.57644427 -3.62109375 47.87109375 C-3.9724021 50.77210391 -4.50177321 52.53126194 -6 55 C-6.02705308 52.58325776 -6.04686438 50.1668206 -6.0625 47.75 C-6.07087891 47.06808594 -6.07925781 46.38617188 -6.08789062 45.68359375 C-6.11330111 40.44903317 -6.11330111 40.44903317 -5.50927734 38.05517578 C-4.95166178 35.80493232 -4.82506319 33.76114742 -4.75390625 31.4453125 C-4.70459961 30.15173828 -4.70459961 30.15173828 -4.65429688 28.83203125 C-4.59336794 27.03527591 -4.5360438 25.23839451 -4.48242188 23.44140625 C-4.28986773 18.56579004 -3.72822272 14.6108442 -2 10 C-1.75981182 8.4028724 -1.5664045 6.79743496 -1.4375 5.1875 C-1.10218978 1.10218978 -1.10218978 1.10218978 0 0 Z " fill="#684334" transform="translate(149,65)"/>
<path d="M0 0 C3.20594602 0.22899614 4.03154521 1.03605167 6.1875 3.5 C8.31694263 7.61202714 9.2654589 11.35446925 9 16 C8.34 16.99 7.68 17.98 7 19 C6.97421875 18.34773438 6.9484375 17.69546875 6.921875 17.0234375 C6.54483185 11.21354537 5.75449087 7.66467048 2 3 C1.34 2.01 0.68 1.02 0 0 Z " fill="#64412C" transform="translate(141,174)"/>
</svg>
