<?xml version="1.0" encoding="UTF-8"?>
<svg version="1.1" xmlns="http://www.w3.org/2000/svg" width="153" height="172">
<path d="M0 0 C0.99435562 -0.00622879 1.98871124 -0.01245758 3.01319885 -0.01887512 C4.08512985 -0.00966537 5.15706085 -0.00045563 6.26147461 0.0090332 C7.36228867 0.0085347 8.46310272 0.00803619 9.59727478 0.00752258 C11.92489425 0.00986389 14.25251622 0.01959568 16.58007812 0.03613281 C20.15314228 0.0597439 23.72546157 0.05669169 27.29858398 0.05004883 C29.557052 0.05562475 31.81551685 0.06273408 34.07397461 0.0715332 C35.68490746 0.07016609 35.68490746 0.07016609 37.3283844 0.06877136 C38.81518959 0.08306938 38.81518959 0.08306938 40.33203125 0.09765625 C41.20678604 0.10226364 42.08154083 0.10687103 42.98280334 0.11161804 C45.10131836 0.37231445 45.10131836 0.37231445 47.10131836 2.37231445 C47.35131836 5.37231445 47.35131836 5.37231445 47.10131836 8.37231445 C45.10131836 10.37231445 45.10131836 10.37231445 43.2663269 10.61282349 C42.52464264 10.60838226 41.78295837 10.60394104 41.01879883 10.59936523 C39.75771805 10.59913864 39.75771805 10.59913864 38.47116089 10.59890747 C37.56278473 10.5885849 36.65440857 10.57826233 35.71850586 10.56762695 C34.32439987 10.56338211 34.32439987 10.56338211 32.90213013 10.55905151 C29.92672986 10.54783514 26.95162801 10.52272806 23.97631836 10.49731445 C21.96199978 10.48728653 19.9476765 10.47816036 17.93334961 10.4699707 C12.98913107 10.44959058 8.04555968 10.41044485 3.10131836 10.37231445 C2.11131836 20.93231445 1.12131836 31.49231445 0.10131836 42.37231445 C2.41131836 41.71231445 4.72131836 41.05231445 7.10131836 40.37231445 C16.52729726 38.71826191 28.58354397 37.05812777 37.10131836 42.37231445 C44.93725986 47.9399571 50.19520523 54.84174882 52.10131836 64.37231445 C53.31775821 74.50931322 48.61908295 84.80983606 43.00756836 93.0012207 C37.17498358 100.25609562 26.56099893 106.55029784 17.20703125 107.58105469 C6.21415366 108.09565775 -2.66345182 108.14949832 -11.89868164 101.37231445 C-13.27993182 98.6098141 -13.0894747 96.42500346 -12.89868164 93.37231445 C-10.89868164 91.37231445 -10.89868164 91.37231445 -8.71118164 90.99731445 C-5.37502142 91.44213582 -3.41738865 92.68982718 -0.58227539 94.4152832 C1.66965877 95.69538499 3.52395841 96.1208647 6.10131836 96.37231445 C7.83381836 96.55793945 7.83381836 96.55793945 9.60131836 96.74731445 C16.74153802 96.65229252 24.76903548 93.40338497 30.53881836 89.24731445 C37.20009985 81.77368156 40.19427745 74.73605125 39.76147461 64.6262207 C38.72716084 59.52809426 36.19694122 56.46900491 32.10131836 53.37231445 C23.68765829 48.01656025 10.04251174 51.78584083 0.85522461 53.56835938 C-5.25566967 54.65400546 -5.25566967 54.65400546 -8.42211914 53.2668457 C-12.05377448 48.60718211 -10.89627808 42.51758055 -10.58618164 36.93481445 C-10.53768066 36.02554199 -10.48917969 35.11626953 -10.43920898 34.17944336 C-10.27312838 31.24267669 -10.08966576 28.30756408 -9.89868164 25.37231445 C-9.83277832 24.35476074 -9.766875 23.33720703 -9.69897461 22.28881836 C-9.4932208 19.27316447 -9.26335972 16.26044615 -9.02368164 13.24731445 C-8.95753662 12.30573486 -8.8913916 11.36415527 -8.82324219 10.39404297 C-8.74759033 9.51804443 -8.67193848 8.6420459 -8.59399414 7.73950195 C-8.53228027 6.96719238 -8.47056641 6.19488281 -8.40698242 5.39916992 C-7.2446037 0.76417081 -4.43175516 -0.00318595 0 0 Z " fill="#725449" transform="translate(62.898681640625,25.627685546875)"/>
<path d="M0 0 C0.99435562 -0.00622879 1.98871124 -0.01245758 3.01319885 -0.01887512 C4.08512985 -0.00966537 5.15706085 -0.00045563 6.26147461 0.0090332 C7.36228867 0.0085347 8.46310272 0.00803619 9.59727478 0.00752258 C11.92489425 0.00986389 14.25251622 0.01959568 16.58007812 0.03613281 C20.15314228 0.0597439 23.72546157 0.05669169 27.29858398 0.05004883 C29.557052 0.05562475 31.81551685 0.06273408 34.07397461 0.0715332 C35.68490746 0.07016609 35.68490746 0.07016609 37.3283844 0.06877136 C38.81518959 0.08306938 38.81518959 0.08306938 40.33203125 0.09765625 C41.20678604 0.10226364 42.08154083 0.10687103 42.98280334 0.11161804 C45.10131836 0.37231445 45.10131836 0.37231445 47.10131836 2.37231445 C47.35131836 5.37231445 47.35131836 5.37231445 47.10131836 8.37231445 C45.10131836 10.37231445 45.10131836 10.37231445 43.2663269 10.61282349 C42.52464264 10.60838226 41.78295837 10.60394104 41.01879883 10.59936523 C39.75771805 10.59913864 39.75771805 10.59913864 38.47116089 10.59890747 C37.56278473 10.5885849 36.65440857 10.57826233 35.71850586 10.56762695 C34.32439987 10.56338211 34.32439987 10.56338211 32.90213013 10.55905151 C29.92672986 10.54783514 26.95162801 10.52272806 23.97631836 10.49731445 C21.96199978 10.48728653 19.9476765 10.47816036 17.93334961 10.4699707 C12.98913107 10.44959058 8.04555968 10.41044485 3.10131836 10.37231445 C2.11131836 20.93231445 1.12131836 31.49231445 0.10131836 42.37231445 C1.09131836 42.70231445 2.08131836 43.03231445 3.10131836 43.37231445 C1.45131836 43.04231445 -0.19868164 42.71231445 -1.89868164 42.37231445 C-1.82649414 41.47512695 -1.75430664 40.57793945 -1.67993164 39.65356445 C-0.97723178 30.20615522 -0.78667011 20.84351136 -0.89868164 11.37231445 C-2.21868164 11.70231445 -3.53868164 12.03231445 -4.89868164 12.37231445 C-8.91616478 31.91984966 -8.91616478 31.91984966 -6.89868164 51.37231445 C-4.91911724 51.23198334 -2.94003023 51.08490215 -0.96118164 50.93481445 C0.1409668 50.85360352 1.24311523 50.77239258 2.37866211 50.6887207 C5.01241739 50.66813362 5.01241739 50.66813362 6.10131836 49.37231445 C9.43727109 48.9038941 12.80269417 48.76125557 16.16381836 48.55981445 C17.09387695 48.48311523 18.02393555 48.40641602 18.98217773 48.32739258 C26.94278027 47.86307072 31.44829777 49.98990972 37.97631836 54.24731445 C41.85206998 58.12306607 42.45531327 63.11457174 42.66381836 68.43481445 C42.52029543 76.27475442 39.77175787 82.15080647 35.10131836 88.37231445 C32.32945062 91.00098607 29.53032029 92.71712901 26.10131836 94.37231445 C25.32916992 94.78094727 24.55702148 95.18958008 23.76147461 95.6105957 C16.71867018 98.93224252 8.52453432 100.01811674 0.96459961 97.72387695 C-0.67503819 96.97959193 -2.2881234 96.17759357 -3.89868164 95.37231445 C-6.220577 94.96690415 -8.55383508 94.61158451 -10.89868164 94.37231445 C-10.89868164 96.35231445 -10.89868164 98.33231445 -10.89868164 100.37231445 C-10.15618164 100.66106445 -9.41368164 100.94981445 -8.64868164 101.24731445 C-5.89868164 102.37231445 -5.89868164 102.37231445 -3.99731445 103.43041992 C-1.6593096 104.47974783 -0.1186619 104.60402846 2.42944336 104.56762695 C3.22866211 104.56118164 4.02788086 104.55473633 4.85131836 104.5480957 C5.67631836 104.53133789 6.50131836 104.51458008 7.35131836 104.49731445 C8.19178711 104.48829102 9.03225586 104.47926758 9.89819336 104.4699707 C11.9660244 104.44647262 14.03370831 104.41060353 16.10131836 104.37231445 C16.43131836 103.71231445 16.76131836 103.05231445 17.10131836 102.37231445 C17.59631836 102.86731445 17.59631836 102.86731445 18.10131836 103.37231445 C23.75309952 102.90133269 28.78387019 101.28948964 34.10131836 99.37231445 C29.10514347 104.97657641 21.82064674 107.251904 14.50756836 107.90356445 C4.49957702 108.3924202 -3.58917259 107.4701671 -11.89868164 101.37231445 C-13.27993182 98.6098141 -13.0894747 96.42500346 -12.89868164 93.37231445 C-10.89868164 91.37231445 -10.89868164 91.37231445 -8.71118164 90.99731445 C-5.37502142 91.44213582 -3.41738865 92.68982718 -0.58227539 94.4152832 C1.66965877 95.69538499 3.52395841 96.1208647 6.10131836 96.37231445 C7.83381836 96.55793945 7.83381836 96.55793945 9.60131836 96.74731445 C16.74153802 96.65229252 24.76903548 93.40338497 30.53881836 89.24731445 C37.20009985 81.77368156 40.19427745 74.73605125 39.76147461 64.6262207 C38.72716084 59.52809426 36.19694122 56.46900491 32.10131836 53.37231445 C23.68765829 48.01656025 10.04251174 51.78584083 0.85522461 53.56835938 C-5.25566967 54.65400546 -5.25566967 54.65400546 -8.42211914 53.2668457 C-12.05377448 48.60718211 -10.89627808 42.51758055 -10.58618164 36.93481445 C-10.53768066 36.02554199 -10.48917969 35.11626953 -10.43920898 34.17944336 C-10.27312838 31.24267669 -10.08966576 28.30756408 -9.89868164 25.37231445 C-9.83277832 24.35476074 -9.766875 23.33720703 -9.69897461 22.28881836 C-9.4932208 19.27316447 -9.26335972 16.26044615 -9.02368164 13.24731445 C-8.95753662 12.30573486 -8.8913916 11.36415527 -8.82324219 10.39404297 C-8.74759033 9.51804443 -8.67193848 8.6420459 -8.59399414 7.73950195 C-8.53228027 6.96719238 -8.47056641 6.19488281 -8.40698242 5.39916992 C-7.2446037 0.76417081 -4.43175516 -0.00318595 0 0 Z " fill="#6A4F42" transform="translate(62.898681640625,25.627685546875)"/>
<path d="M0 0 C0.33 0 0.66 0 1 0 C0.99214478 1.20329956 0.99214478 1.20329956 0.98413086 2.4309082 C0.96337103 6.05809753 0.95034298 9.68527437 0.9375 13.3125 C0.92912109 14.57513672 0.92074219 15.83777344 0.91210938 17.13867188 C0.90888672 18.34716797 0.90566406 19.55566406 0.90234375 20.80078125 C0.89710693 21.91622314 0.89187012 23.03166504 0.88647461 24.1809082 C0.87250746 27.08052062 0.87250746 27.08052062 2 30 C3.97956441 29.85966889 5.95865141 29.7125877 7.9375 29.5625 C9.03964844 29.48128906 10.14179687 29.40007812 11.27734375 29.31640625 C13.91109903 29.29581916 13.91109903 29.29581916 15 28 C18.33595274 27.53157965 21.70137581 27.38894111 25.0625 27.1875 C25.99255859 27.11080078 26.92261719 27.03410156 27.88085938 26.95507812 C35.84146191 26.49075626 40.34697941 28.61759527 46.875 32.875 C50.75075162 36.75075162 51.35399491 41.74225728 51.5625 47.0625 C51.41897707 54.90243996 48.67043951 60.77849202 44 67 C41.22813226 69.62867162 38.42900193 71.34481456 35 73 C34.22785156 73.40863281 33.45570312 73.81726563 32.66015625 74.23828125 C25.61735182 77.55992807 17.42321596 78.64580229 9.86328125 76.3515625 C8.22364345 75.60727748 6.61055824 74.80527912 5 74 C2.67810464 73.5945897 0.34484656 73.23927006 -2 73 C-2 74.98 -2 76.96 -2 79 C-1.2575 79.28875 -0.515 79.5775 0.25 79.875 C3 81 3 81 4.90136719 82.05810547 C7.23937205 83.10743338 8.78001974 83.231714 11.328125 83.1953125 C12.12734375 83.18886719 12.9265625 83.18242187 13.75 83.17578125 C14.575 83.15902344 15.4 83.14226562 16.25 83.125 C17.09046875 83.11597656 17.9309375 83.10695313 18.796875 83.09765625 C20.86470604 83.07415817 22.93238995 83.03828908 25 83 C25.33 82.34 25.66 81.68 26 81 C26.495 81.495 26.495 81.495 27 82 C32.65178116 81.52901824 37.68255183 79.91717519 43 78 C38.00382511 83.60426196 30.71932838 85.87958955 23.40625 86.53125 C13.39825866 87.02010575 5.30950905 86.09785265 -3 80 C-4.38125018 77.23749964 -4.19079306 75.05268901 -4 72 C-2 70 -2 70 0.1875 69.625 C3.52366022 70.06982136 5.48129299 71.31751272 8.31640625 73.04296875 C10.56834041 74.32307054 12.42264006 74.74855025 15 75 C16.7325 75.185625 16.7325 75.185625 18.5 75.375 C25.64021966 75.27997807 33.66771712 72.03107052 39.4375 67.875 C46.09878149 60.40136711 49.09295909 53.36373679 48.66015625 43.25390625 C47.62584248 38.15577981 45.09562286 35.09669046 41 32 C32.58633993 26.64424579 18.94119338 30.41352638 9.75390625 32.19604492 C3.64301197 33.281691 3.64301197 33.281691 0.4765625 31.89453125 C-2.25330316 28.39192583 -2.12528364 24.3493884 -1.9140625 20.05859375 C-1.87023438 19.14529297 -1.82640625 18.23199219 -1.78125 17.29101562 C-1.7296875 16.34935547 -1.678125 15.40769531 -1.625 14.4375 C-1.58117188 13.49197266 -1.53734375 12.54644531 -1.4921875 11.57226562 C-1.28901172 7.57929716 -1.08666121 3.86325264 0 0 Z " fill="#4D3027" transform="translate(54,47)"/>
<path d="M0 0 C0.66 0.66 1.32 1.32 2 2 C-8.25773924 9.43314437 -17.07728796 13.45655732 -30 12 C-32.53729345 11.2299987 -34.60818451 10.19590775 -37 9 C-39.32189536 8.5945897 -41.65515344 8.23927006 -44 8 C-44 9.98 -44 11.96 -44 14 C-43.2575 14.28875 -42.515 14.5775 -41.75 14.875 C-39 16 -39 16 -37.09863281 17.05810547 C-34.76062795 18.10743338 -33.21998026 18.231714 -30.671875 18.1953125 C-29.87265625 18.18886719 -29.0734375 18.18242187 -28.25 18.17578125 C-27.425 18.15902344 -26.6 18.14226562 -25.75 18.125 C-24.48929688 18.11146484 -24.48929688 18.11146484 -23.203125 18.09765625 C-21.13529396 18.07415817 -19.06761005 18.03828908 -17 18 C-16.67 17.34 -16.34 16.68 -16 16 C-15.67 16.33 -15.34 16.66 -15 17 C-9.34821884 16.52901824 -4.31744817 14.91717519 1 13 C-3.99617489 18.60426196 -11.28067162 20.87958955 -18.59375 21.53125 C-28.60174134 22.02010575 -36.69049095 21.09785265 -45 15 C-46.38125018 12.23749964 -46.19079306 10.05268901 -46 7 C-44 5 -44 5 -41.8125 4.625 C-38.47633978 5.06982136 -36.51870701 6.31751272 -33.68359375 8.04296875 C-31.43165959 9.32307054 -29.57735994 9.74855025 -27 10 C-25.845 10.12375 -24.69 10.2475 -23.5 10.375 C-14.86806744 10.26012637 -6.03025261 6.03025261 0 0 Z " fill="#593E31" transform="translate(96,112)"/>
<path d="M0 0 C0.33 0.99 0.66 1.98 1 3 C3.26225382 4.07254351 3.26225382 4.07254351 6 5 C9.25 6.25 9.25 6.25 12 8 C12.875 11.1875 12.875 11.1875 13 14 C12.34 14 11.68 14 11 14 C10.67 14.66 10.34 15.32 10 16 C9.34 15.67 8.68 15.34 8 15 C7.67 15.66 7.34 16.32 7 17 C6.87625 15.576875 6.87625 15.576875 6.75 14.125 C6.5025 13.09375 6.255 12.0625 6 11 C4.21771064 9.85790183 4.21771064 9.85790183 2 9 C0.29503463 7.37253306 -1.37897032 5.71108689 -3 4 C-2.34 3.67 -1.68 3.34 -1 3 C-0.67 2.01 -0.34 1.02 0 0 Z " fill="#75564B" transform="translate(97,71)"/>
<path d="M0 0 C7.37452173 3.42388509 7.37452173 3.42388509 9.08203125 7.7265625 C10.97971479 14.49362126 11.33431242 21.0086113 8.43359375 27.51171875 C6.7242914 30.42961872 4.95046691 33.23849711 3 36 C2.505 34.515 2.505 34.515 2 33 C2.99609375 31.23046875 2.99609375 31.23046875 4.4375 29.1875 C7.98122846 23.07831178 8.32504449 16.87568818 7 10 C5.40830956 7.37213484 3.79369394 5.51805399 1.53125 3.453125 C1.0259375 2.97359375 0.520625 2.4940625 0 2 C0 1.34 0 0.68 0 0 Z " fill="#553224" transform="translate(95,77)"/>
<path d="M0 0 C0.66 0.33 1.32 0.66 2 1 C0.06374902 1.98163422 -1.87404539 2.96022454 -3.8125 3.9375 C-5.43091797 4.75541016 -5.43091797 4.75541016 -7.08203125 5.58984375 C-10.74465034 7.35986449 -13.42774002 8.12464604 -17.44921875 8.09765625 C-18.29677734 8.09443359 -19.14433594 8.09121094 -20.01757812 8.08789062 C-20.89865234 8.07951172 -21.77972656 8.07113281 -22.6875 8.0625 C-23.58017578 8.05798828 -24.47285156 8.05347656 -25.39257812 8.04882812 C-27.59511987 8.03704983 -29.79752599 8.02060164 -32 8 C-32 7.34 -32 6.68 -32 6 C-30.85660156 5.95101562 -29.71320313 5.90203125 -28.53515625 5.8515625 C-27.04424527 5.77654811 -25.55336108 5.70099972 -24.0625 5.625 C-23.30775391 5.5940625 -22.55300781 5.563125 -21.77539062 5.53125 C-19.84492605 5.4273685 -17.92057919 5.22104386 -16 5 C-15.67 4.34 -15.34 3.68 -15 3 C-14.67 3.33 -14.34 3.66 -14 4 C-10.07171225 3.68573698 -6.75274876 3.0044009 -3.1875 1.375 C-2.135625 0.92125 -1.08375 0.4675 0 0 Z " fill="#624A3F" transform="translate(95,125)"/>
<path d="M0 0 C6.26223021 2.69923716 9.94211018 5.52799707 14 11 C13.67 11.66 13.34 12.32 13 13 C10.525 12.01 10.525 12.01 8 11 C8 10.34 8 9.68 8 9 C7.02149805 7.97895449 6.02019573 6.9793879 5 6 C4.67 5.34 4.34 4.68 4 4 C1.98330173 2.86649466 1.98330173 2.86649466 0 2 C0 1.34 0 0.68 0 0 Z " fill="#5B463C" transform="translate(95,66)"/>
<path d="M0 0 C0.66 0 1.32 0 2 0 C2.10808032 7.09727428 1.93854006 13.96094956 1 21 C-1.8202907 16.99561779 -1.00863471 12.87663461 -0.625 8.25 C-0.56828125 7.45722656 -0.5115625 6.66445313 -0.453125 5.84765625 C-0.31216305 3.89768265 -0.1574288 1.94871329 0 0 Z " fill="#5E4636" transform="translate(55,30)"/>
<path d="M0 0 C1 3 1 3 -0.328125 5.8828125 C-0.96234375 6.95273438 -1.5965625 8.02265625 -2.25 9.125 C-2.87390625 10.20007813 -3.4978125 11.27515625 -4.140625 12.3828125 C-6 15 -6 15 -9 16 C-8.690625 15.443125 -8.38125 14.88625 -8.0625 14.3125 C-6.94238179 11.87459567 -6.43962636 9.63775814 -6 7 C-4.68 6.67 -3.36 6.34 -2 6 C-2 4.35 -2 2.7 -2 1 C-1.34 0.67 -0.68 0.34 0 0 Z " fill="#654D41" transform="translate(111,105)"/>
<path d="M0 0 C4.68407018 2.17474687 7.41962915 3.52269238 9.375 8.5 C10 12 10 12 8 15 C7.79375 14.154375 7.5875 13.30875 7.375 12.4375 C5.86449162 8.66122905 3.99509328 6.43976415 1.2421875 3.515625 C0 2 0 2 0 0 Z " fill="#583D35" transform="translate(95,77)"/>
</svg>
