<?xml version="1.0" encoding="UTF-8"?>
<svg version="1.1" xmlns="http://www.w3.org/2000/svg" width="151" height="169">
<path d="M0 0 C3.4375 0.75 3.4375 0.75 5.4375 3.75 C5.63786631 6.75452126 5.72078073 9.6666093 5.7121582 12.671875 C5.71726913 13.58432983 5.72238007 14.49678467 5.72764587 15.43688965 C5.74156494 18.45799284 5.74058354 21.47886853 5.73828125 24.5 C5.74216655 26.59602951 5.74650087 28.69205824 5.75126648 30.78808594 C5.75873341 35.18296867 5.75843371 39.57777107 5.75317383 43.97265625 C5.74737479 49.6121676 5.7643185 55.251351 5.7875185 60.89080811 C5.80222934 65.21958345 5.80313122 69.54827929 5.80000877 73.8770752 C5.8005232 75.95675303 5.80578349 78.03643519 5.81582069 80.11608887 C5.82811814 83.02031971 5.82143403 85.92390497 5.80981445 88.828125 C5.82128006 90.12333069 5.82128006 90.12333069 5.83297729 91.44470215 C5.78086084 97.31975663 5.78086084 97.31975663 4.07036114 99.46307373 C2.4375 100.75 2.4375 100.75 -0.0625 101.25 C-2.5625 100.75 -2.5625 100.75 -4.19746399 98.70747375 C-5.88713385 95.04665146 -5.96216046 91.87855784 -5.90307617 87.93041992 C-5.90351425 87.15915771 -5.90395233 86.38789551 -5.90440369 85.59326172 C-5.90232116 83.05540251 -5.87901597 80.51821191 -5.85546875 77.98046875 C-5.84987088 76.21641908 -5.84560168 74.45236473 -5.84260559 72.68830872 C-5.83117186 68.0538334 -5.8017174 63.41964182 -5.76849365 58.78527832 C-5.73776099 54.0528548 -5.72409343 49.32038526 -5.70898438 44.58789062 C-5.67684625 35.30846935 -5.62566773 26.0292583 -5.5625 16.75 C-6.49191406 17.5440625 -7.42132813 18.338125 -8.37890625 19.15625 C-9.62686404 20.18839554 -10.87560373 21.21959619 -12.125 22.25 C-12.73408203 22.77464844 -13.34316406 23.29929687 -13.97070312 23.83984375 C-17.3909161 26.62668395 -18.98993733 27.7003591 -23.52734375 28.09375 C-24.52894531 27.9803125 -25.53054687 27.866875 -26.5625 27.75 C-27.6875 25.5 -27.6875 25.5 -28.5625 22.75 C-27.27915274 18.89995822 -24.74897585 17.02313521 -21.625 14.5625 C-18.57111799 12.15616889 -15.57021982 9.75690611 -12.671875 7.1640625 C-4.78611838 0.18142326 -4.78611838 0.18142326 0 0 Z " fill="#715246" transform="translate(83.5625,22.25)"/>
<path d="M0 0 C0.99 0.33 1.98 0.66 3 1 C2.01 2.485 2.01 2.485 1 4 C0.34 4 -0.32 4 -1 4 C-1 4.66 -1 5.32 -1 6 C-0.34 6.33 0.32 6.66 1 7 C-0.65 7.66 -2.3 8.32 -4 9 C-4 9.66 -4 10.32 -4 11 C-3.030625 10.814375 -2.06125 10.62875 -1.0625 10.4375 C0.4534375 10.2209375 0.4534375 10.2209375 2 10 C3.7772169 11.7772169 3.11988099 14.152472 3.12442017 16.51863098 C3.12082489 17.30984848 3.11722961 18.10106598 3.11352539 18.91625977 C3.11367142 19.74545929 3.11381744 20.57465881 3.1139679 21.4289856 C3.11326851 24.18315198 3.10547493 26.93725161 3.09765625 29.69140625 C3.09579216 31.59569766 3.09436822 33.49998955 3.09336853 35.40428162 C3.08954263 40.42667963 3.07971173 45.44904892 3.06866455 50.47143555 C3.05845198 55.5922812 3.05387124 60.71313148 3.04882812 65.83398438 C3.03808953 75.88933557 3.02101224 85.9446654 3 96 C0.52338696 93.52338696 0.76507783 92.11669554 0.75115967 88.73771667 C0.75835022 88.00619888 0.76554077 87.27468109 0.77294922 86.52099609 C0.77265717 85.75017197 0.77236511 84.97934784 0.77206421 84.18516541 C0.77346026 81.63114255 0.78903421 79.07740954 0.8046875 76.5234375 C0.80841666 74.75509806 0.81126409 72.98675655 0.81326294 71.21841431 C0.82090707 66.55930905 0.84056222 61.90032806 0.8626709 57.24127197 C0.88311256 52.48899008 0.89226106 47.73668816 0.90234375 42.984375 C0.92380741 33.65619534 0.95795272 24.32810799 1 15 C0.07058594 15.7940625 -0.85882813 16.588125 -1.81640625 17.40625 C-3.06436404 18.43839554 -4.31310373 19.46959619 -5.5625 20.5 C-6.17158203 21.02464844 -6.78066406 21.54929687 -7.40820312 22.08984375 C-10.8284161 24.87668395 -12.42743733 25.9503591 -16.96484375 26.34375 C-17.96644531 26.2303125 -18.96804687 26.116875 -20 26 C-22.19876543 21.60246914 -22.19876543 21.60246914 -21.37109375 19.09375 C-19.59268496 16.37800324 -17.49356782 14.74883784 -14.9375 12.75 C-9.79918899 8.66239902 -4.86451993 4.40809584 0 0 Z " fill="#5C3C35" transform="translate(77,24)"/>
<path d="M0 0 C1.32 0 2.64 0 4 0 C4.6875 1.6875 4.6875 1.6875 5 4 C3.17735539 8.05032135 0.77222997 10.66481002 -3 13 C-5.6875 13.0625 -5.6875 13.0625 -8 12 C-9.3125 9.4375 -9.3125 9.4375 -10 7 C-5.375 4 -5.375 4 -2 4 C-1.34 2.68 -0.68 1.36 0 0 Z " fill="#73554B" transform="translate(66,36)"/>
<path d="M0 0 C0.66 0.33 1.32 0.66 2 1 C0.16281657 2.68936407 -1.6910309 4.34935979 -3.5625 6 C-4.07619141 6.47695313 -4.58988281 6.95390625 -5.11914062 7.4453125 C-8.17616959 10.10359855 -9.81523605 10.98520409 -13.90234375 11.3125 C-14.92457031 11.209375 -15.94679687 11.10625 -17 11 C-17.66 9.35 -18.32 7.7 -19 6 C-18.34 5.67 -17.68 5.34 -17 5 C-16.34 6.32 -15.68 7.64 -15 9 C-10.49656089 8.4887988 -8.12474574 6.82478642 -4.6875 3.9375 C-3.80449219 3.20402344 -2.92148438 2.47054687 -2.01171875 1.71484375 C-1.34785156 1.14894531 -0.68398437 0.58304688 0 0 Z " fill="#513832" transform="translate(74,39)"/>
<path d="M0 0 C0.66 0.33 1.32 0.66 2 1 C-1.8361382 6.12890273 -4.90203392 8.92669153 -11 11 C-11 10.34 -11 9.68 -11 9 C-9.21895282 7.39821407 -7.37462722 5.86618074 -5.5 4.375 C-4.4790625 3.55773438 -3.458125 2.74046875 -2.40625 1.8984375 C-1.6121875 1.27195313 -0.818125 0.64546875 0 0 Z " fill="#5C4332" transform="translate(68,32)"/>
<path d="M0 0 C0.99 0.33 1.98 0.66 3 1 C0.87484671 4.18772993 -0.66515721 5.24920753 -4 7 C-4.66 7 -5.32 7 -6 7 C-6 6.34 -6 5.68 -6 5 C-3.1875 2.3125 -3.1875 2.3125 0 0 Z " fill="#5A4333" transform="translate(77,24)"/>
</svg>
