<?xml version="1.0" encoding="UTF-8"?>
<svg version="1.1" xmlns="http://www.w3.org/2000/svg" width="222" height="238">
<path d="M0 0 C8.45670498 6.08580733 10.49806923 14.28817776 12.125 24.25 C13.03502722 30.77556106 11.20405871 35.59856313 8.125 41.25 C7.75890625 41.93578125 7.3928125 42.6215625 7.015625 43.328125 C3.79605116 48.6940814 -0.35274892 52.80383369 -4.8125 57.125 C-14.99499185 67.01265512 -22.342592 77.75212052 -22.875 92.25 C-22.84664062 93.55453125 -22.81828125 94.8590625 -22.7890625 96.203125 C-22.77399658 96.90953125 -22.75893066 97.6159375 -22.7434082 98.34375 C-22.70679464 99.75585027 -22.65134263 101.16761727 -22.57495117 102.578125 C-22.47555776 106.16504484 -22.78435974 108.10162584 -24.671875 111.19140625 C-26.875 113.25 -26.875 113.25 -30.3125 113.9375 C-34.12584618 113.20159109 -35.4869376 112.26222534 -37.85180664 109.23168945 C-39.92034627 105.22540546 -39.50595974 100.9050096 -39.375 96.5 C-39.37757812 95.5615625 -39.38015625 94.623125 -39.3828125 93.65625 C-39.29177135 87.06487086 -38.07852581 81.44110483 -35.875 75.25 C-35.52937012 74.18313965 -35.52937012 74.18313965 -35.17675781 73.09472656 C-33.52210561 68.23812399 -31.18259017 64.34942281 -28.125 60.25 C-27.6825293 59.64551025 -27.24005859 59.04102051 -26.78417969 58.41821289 C-22.55205751 52.69686861 -18.28540782 47.07819849 -12.6875 42.625 C-8.29319272 38.91425163 -5.83930337 35.53171478 -5.0625 29.8125 C-4.67496183 24.45906581 -5.43067068 19.408319 -6.875 14.25 C-7.535 14.25 -8.195 14.25 -8.875 14.25 C-8.875 13.59 -8.875 12.93 -8.875 12.25 C-16.10758631 8.77333206 -25.59882531 8.99904447 -33.2265625 11.23046875 C-37.90601918 13.280096 -41.47964092 15.37388211 -44.875 19.25 C-45.205 20.24 -45.535 21.23 -45.875 22.25 C-47.02173947 25.69021841 -47.90899052 27.16577712 -50.875 29.25 C-54.4375 29.75 -54.4375 29.75 -57.875 29.25 C-59.8125 27.75 -59.8125 27.75 -60.875 25.25 C-61.63907833 18.80991126 -60.48576434 13.68577023 -56.875 8.25 C-41.74588523 -7.72686689 -18.51427499 -11.20037132 0 0 Z " fill="#775446" transform="translate(142.875,41.75)"/>
<path d="M0 0 C2.875 2.5 2.875 2.5 5 5 C5.33 5.33 5.66 5.66 6 6 C6.62247961 11.29996925 6.97868727 15.58953893 3.875 20.0625 C-0.51192992 23.01890929 -3.91386693 24.26645743 -9.1875 23.8125 C-14.1656051 22.75159236 -14.1656051 22.75159236 -16 20 C-16.4125 19.4225 -16.825 18.845 -17.25 18.25 C-18.38499621 14.84501137 -17.83581483 12.46266142 -17 9 C-13.16797912 1.76173834 -8.33937336 -2.57762449 0 0 Z " fill="#735043" transform="translate(119,162)"/>
<path d="M0 0 C0.66 0.33 1.32 0.66 2 1 C1.71125 1.825 1.4225 2.65 1.125 3.5 C-1.85223274 12.76250187 -4.92100204 24.6199166 -0.6640625 33.91796875 C0.8966188 36.30483048 0.8966188 36.30483048 4.0625 36.75 C5.031875 36.8325 6.00125 36.915 7 37 C7.66 37.33 8.32 37.66 9 38 C8 39 8 39 4.75 39.4375 C1 39 1 39 -1.703125 36.64453125 C-5.09374799 32.2640067 -4.65813576 27.56911201 -4.5 22.25 C-4.50257812 21.3115625 -4.50515625 20.373125 -4.5078125 19.40625 C-4.29915091 4.29915091 -4.29915091 4.29915091 0 0 Z " fill="#653F30" transform="translate(108,116)"/>
<path d="M0 0 C0.66 0 1.32 0 2 0 C2.33 2.31 2.66 4.62 3 7 C5.90600261 8.25664978 7.79604584 9 11 9 C11.33 8.01 11.66 7.02 12 6 C12.66 6.33 13.32 6.66 14 7 C11.55945303 10.12390012 10.4410076 10.9381042 6.4375 11.5 C3 11 3 11 1.0625 9.4375 C-0.34907805 6.19917389 -0.20145347 3.49186021 0 0 Z " fill="#674536" transform="translate(82,60)"/>
<path d="M0 0 C6.92129142 1.77469011 13.30092245 5.21969129 17.0625 11.375 C17.5265625 12.674375 17.5265625 12.674375 18 14 C17.01 14.495 17.01 14.495 16 15 C15.690625 14.29875 15.38125 13.5975 15.0625 12.875 C11.36669437 7.72327094 5.64991965 4.71556503 0 2 C0 1.34 0 0.68 0 0 Z " fill="#644331" transform="translate(132,37)"/>
<path d="M0 0 C0.66 0.33 1.32 0.66 2 1 C1.38454214 3.31543614 0.75821964 5.62692196 0.125 7.9375 C-0.04902344 8.59685547 -0.22304687 9.25621094 -0.40234375 9.93554688 C-0.87476237 11.641503 -1.43215028 13.32339261 -2 15 C-2.99 15.495 -2.99 15.495 -4 16 C-2.28571429 2.28571429 -2.28571429 2.28571429 0 0 Z " fill="#6A4739" transform="translate(108,116)"/>
<path d="M0 0 C2.97 0 5.94 0 9 0 C8.01 0.495 8.01 0.495 7 1 C7 1.66 7 2.32 7 3 C4.625 3.1875 4.625 3.1875 2 3 C1.34 2.01 0.68 1.02 0 0 Z " fill="#7A594B" transform="translate(107,183)"/>
<path d="M0 0 C0.66 0 1.32 0 2 0 C3 6.625 3 6.625 3 10 C1.5 8.9375 1.5 8.9375 0 7 C-0.1875 3.3125 -0.1875 3.3125 0 0 Z " fill="#724F39" transform="translate(82,60)"/>
<path d="M0 0 C0.66 0 1.32 0 2 0 C2 0.66 2 1.32 2 2 C0.04072937 3.7143618 -1.95880212 5.38405168 -4 7 C-4.66 6.67 -5.32 6.34 -6 6 C-4 4 -2 2 0 0 Z " fill="#7C5B4E" transform="translate(111,163)"/>
</svg>
