<?xml version="1.0" encoding="UTF-8"?>
<svg version="1.1" xmlns="http://www.w3.org/2000/svg" width="151" height="175">
<path d="M0 0 C2 2 2 2 2.375 4.9375 C2 8 2 8 0.2578125 9.59765625 C-2.00302904 11.00188136 -3.96552847 11.72276206 -6.5 12.5 C-22.34823035 18.62424241 -32.31273332 35.81126841 -40 50 C-37.59300441 49.42418855 -35.34064766 48.76647938 -33 47.9375 C-23.70008685 45.33431918 -14.51876878 46.68314266 -6 51 C3.42081443 56.65541893 7.69201611 64.23679992 10.49609375 74.66796875 C12.21518484 82.62376239 10.37102799 90.63429766 6.5234375 97.71875 C1.52197872 105.30087016 -4.52990543 110.9580867 -13.3828125 113.53125 C-23.18293267 115.2864954 -32.69494183 114.75734367 -41.30078125 109.62890625 C-47.63031656 105.1929126 -51.31351709 99.70443265 -55 93 C-55.43570313 92.28070313 -55.87140625 91.56140625 -56.3203125 90.8203125 C-61.36300005 81.47547193 -59.80621638 69.8157416 -56.9765625 59.96484375 C-49.75805104 38.04944297 -35.86070023 13.1399667 -14.375 2.1875 C-9.2601733 -0.08964887 -5.51027766 -1.59508038 0 0 Z M-42 68 C-46.02492695 73.4084956 -45.60239395 79.53081277 -45 86 C-43.27107004 92.91571985 -38.63606453 96.9526248 -33 101 C-26.91403101 103.71695044 -21.09405046 103.37464468 -14.859375 101.28125 C-8.76309059 98.58213171 -4.99233243 94.3507409 -1.625 88.6875 C-0.00690707 81.72970041 -0.15922911 74.19147682 -4 68 C-9.23117528 62.01120623 -15.12795241 58.60900595 -23 57.625 C-31.01386078 58.6267326 -36.49485815 62.15315969 -42 68 Z " fill="#6F5348" transform="translate(101,23)"/>
<path d="M0 0 C2 2 2 2 2.375 4.9375 C2 8 2 8 0.5 9.6875 C-3.99302148 12.04633628 -8.51761217 13.70881668 -13.5 14.6875 C-17.89197305 16.33448989 -20.16317792 18.81382591 -23.30078125 22.22265625 C-25 24 -25 24 -27 25 C-27.92123356 26.60362879 -28.83722565 28.21049601 -29.7265625 29.83203125 C-31.71776926 33.22196914 -34.0264059 36.37757259 -36.31640625 39.5703125 C-38.06308548 42.01306188 -38.06308548 42.01306188 -39.58984375 44.8046875 C-40.05519531 45.52914062 -40.52054688 46.25359375 -41 47 C-41.66 47 -42.32 47 -43 47 C-43 48.98 -43 50.96 -43 53 C-41.39125 52.6596875 -41.39125 52.6596875 -39.75 52.3125 C-36 52 -36 52 -33.765625 53.48046875 C-33.18296875 53.98191406 -32.6003125 54.48335937 -32 55 C-32.56589844 55.40992188 -33.13179687 55.81984375 -33.71484375 56.2421875 C-34.44832031 56.78101563 -35.18179688 57.31984375 -35.9375 57.875 C-36.66839844 58.40867188 -37.39929688 58.94234375 -38.15234375 59.4921875 C-40.11098235 60.88012104 -40.11098235 60.88012104 -41 63 C-41.66 63 -42.32 63 -43 63 C-42.7525 63.515625 -42.505 64.03125 -42.25 64.5625 C-42 67 -42 67 -43.9375 69.8125 C-47.49168806 75.35752192 -46.29336056 82.66830128 -46 89 C-48.475 89.495 -48.475 89.495 -51 90 C-50.67 91.32 -50.34 92.64 -50 94 C-51.98 94.495 -51.98 94.495 -54 95 C-60.05500448 84.5983673 -60.47142784 74.50973051 -57.8125 62.875 C-51.53023889 41.00451155 -37.95782611 15.8949909 -17.578125 3.8203125 C-6.43149695 -1.86174912 -6.43149695 -1.86174912 0 0 Z " fill="#745448" transform="translate(101,23)"/>
<path d="M0 0 C2.1875 0.3125 2.1875 0.3125 4 1 C3.2265625 1.67804687 2.453125 2.35609375 1.65625 3.0546875 C-9.31066323 12.79461993 -17.03422009 23.14294878 -24 36 C-21.59300441 35.42418855 -19.34064766 34.76647938 -17 33.9375 C-7.72806758 31.3421514 1.51593131 32.65049236 10 37 C18.50344396 42.51033187 18.50344396 42.51033187 20 47 C14.25 46.125 14.25 46.125 12 45 C11.67 46.32 11.34 47.64 11 49 C11 47.68 11 46.36 11 45 C10.34 45 9.68 45 9 45 C9.62890753 48.45113008 10.99151626 50.70910123 13 53.5625 C17.39242903 59.82382311 17.95033554 65.45110826 17 73 C15.14981244 78.0290333 13.28855502 82.89700234 8.29296875 85.3046875 C7.53628906 85.53414063 6.77960938 85.76359375 6 86 C7.10175536 83.52105044 8.266293 81.6754554 10 79.5625 C14.32897456 74.01600135 14.64814492 68.8473375 14 62 C12.90279185 56.34439072 10.50907714 52.75224317 5.9453125 49.2578125 C0.14969766 45.51044708 -4.74093884 44.43945284 -11.609375 45.4296875 C-18.13958163 46.98754725 -22.12877273 50.69088831 -26 56 C-29.04532134 60.97260512 -28.45260609 66.36097325 -28 72 C-26.30006459 78.48100375 -22.4724597 82.36109638 -17 86 C-14.05529475 87.29001793 -11.12169801 88.24125396 -8 89 C-8 89.33 -8 89.66 -8 90 C-13.2993506 90.80642292 -15.79169081 89.78735952 -20.1875 86.6875 C-21.80333605 85.4737145 -23.4082178 84.24516296 -25 83 C-26.33197526 81.99819179 -27.66482731 80.99754281 -29 80 C-29.495 80.99 -29.495 80.99 -30 82 C-29.34 82 -28.68 82 -28 82 C-27.87625 83.03125 -27.7525 84.0625 -27.625 85.125 C-27.06110186 88.62116846 -26.21317941 91.68397627 -25 95 C-30.26747187 91.99001608 -33.94021076 88.28410412 -37 83 C-37 82.01 -37 81.02 -37 80 C-36.01 80 -35.02 80 -34 80 C-34.33 78.68 -34.66 77.36 -35 76 C-34.34 76 -33.68 76 -33 76 C-32.505 75.01 -32.505 75.01 -32 74 C-31.34 74.33 -30.68 74.66 -30 75 C-30.17789063 73.49759766 -30.17789063 73.49759766 -30.359375 71.96484375 C-31.12640444 64.48888851 -31.61980741 59.29973738 -27 53 C-27 51.68 -27 50.36 -27 49 C-26.34 49 -25.68 49 -25 49 C-24.690625 48.13375 -24.690625 48.13375 -24.375 47.25 C-22.50249112 44.18589456 -20.03041481 42.84460032 -17 41 C-20.50776784 39.39644899 -23.14354879 38.77963136 -27 39 C-27 37.02 -27 35.04 -27 33 C-26.34 33 -25.68 33 -25 33 C-24.73832031 32.27425781 -24.47664063 31.54851562 -24.20703125 30.80078125 C-22.97241864 27.93600054 -21.52133343 25.70444655 -19.6875 23.1875 C-17.4810987 20.12759366 -15.43472703 17.08571324 -13.5625 13.8125 C-11.23864246 9.99859427 -8.30483895 7.35863268 -4.8671875 4.54296875 C-2.9643034 3.06293817 -2.9643034 3.06293817 -1.5078125 1.23828125 C-1.01023438 0.82964844 -0.51265625 0.42101563 0 0 Z " fill="#6F5448" transform="translate(85,37)"/>
<path d="M0 0 C2 2 2 2 2.375 4.9375 C2 8 2 8 0.3046875 9.5859375 C-2.18998002 11.11656401 -4.43371579 11.9093162 -7.25 12.6875 C-8.58804688 13.06455078 -8.58804688 13.06455078 -9.953125 13.44921875 C-10.62859375 13.63097656 -11.3040625 13.81273437 -12 14 C-12 12.02 -12 10.04 -12 8 C-13.98 8.66 -15.96 9.32 -18 10 C-16.71034824 8.62437146 -15.37310707 7.29233607 -14 6 C-13.34 6 -12.68 6 -12 6 C-12.33 5.34 -12.66 4.68 -13 4 C-14.423125 4.99 -14.423125 4.99 -15.875 6 C-19 8 -19 8 -21 8 C-21 7.34 -21 6.68 -21 6 C-19.08588443 5.01585567 -17.1686033 4.03786651 -15.25 3.0625 C-14.18265625 2.51722656 -13.1153125 1.97195312 -12.015625 1.41015625 C-7.52482108 -0.68981812 -4.82613814 -1.39703999 0 0 Z " fill="#70554A" transform="translate(101,23)"/>
<path d="M0 0 C0.66 0.33 1.32 0.66 2 1 C1.01 2.485 1.01 2.485 0 4 C-0.33 4.66 -0.66 5.32 -1 6 C-1.66 6 -2.32 6 -3 6 C-6.70283426 9.79777873 -8.621148 13.10765881 -10.31640625 18.09765625 C-11.23048822 20.64141578 -12.42464421 22.80820064 -14 25 C-14.66 25 -15.32 25 -16 25 C-16 25.99 -16 26.98 -16 28 C-16.66 28 -17.32 28 -18 28 C-18.99 30.475 -18.99 30.475 -20 33 C-20.66 33 -21.32 33 -22 33 C-22 34.65 -22 36.3 -22 38 C-22.66 38 -23.32 38 -24 38 C-24 38.99 -24 39.98 -24 41 C-25.485 41.495 -25.485 41.495 -27 42 C-22.87153763 25.30507762 -12.48668921 11.54495567 0 0 Z " fill="#684D43" transform="translate(74,35)"/>
<path d="M0 0 C4.29 0.99 8.58 1.98 13 3 C13.33 4.98 13.66 6.96 14 9 C14.65129797 10.34090759 15.31513275 11.67592331 16 13 C16 13.99 16 14.98 16 16 C14.02 16.99 14.02 16.99 12 18 C12 17.34 12 16.68 12 16 C11.34 15.67 10.68 15.34 10 15 C10 15.66 10 16.32 10 17 C9.34 17 8.68 17 8 17 C7.67386719 16.31292969 7.34773438 15.62585938 7.01171875 14.91796875 C6.57472656 14.01691406 6.13773437 13.11585937 5.6875 12.1875 C5.25824219 11.29417969 4.82898438 10.40085937 4.38671875 9.48046875 C3.15791597 6.99143282 3.15791597 6.99143282 1.33203125 5.42578125 C0 4 0 4 0 0 Z " fill="#745548" transform="translate(93,81)"/>
<path d="M0 0 C2.31 0 4.62 0 7 0 C5.77585488 4.70825045 4.18350981 8.63298039 2 13 C2 13.99 2 14.98 2 16 C1.34 16.33 0.68 16.66 0 17 C-0.639375 16.67 -1.27875 16.34 -1.9375 16 C-4.1118245 14.64925728 -4.1118245 14.64925728 -7 16 C-7 16.66 -7 17.32 -7 18 C-7.66 18 -8.32 18 -9 18 C-9 17.34 -9 16.68 -9 16 C-9.66 16 -10.32 16 -11 16 C-11 16.66 -11 17.32 -11 18 C-11.66 17.67 -12.32 17.34 -13 17 C-12.67 16.34 -12.34 15.68 -12 15 C-11.05125 14.690625 -10.1025 14.38125 -9.125 14.0625 C-6.15310098 13.05205433 -4.93911169 12.37002539 -3 10 C-3.99 10.33 -4.98 10.66 -6 11 C-6 10.34 -6 9.68 -6 9 C-5.566875 8.5875 -5.13375 8.175 -4.6875 7.75 C-2.46678553 5.44703684 -1.34473539 2.88157583 0 0 Z " fill="#76564A" transform="translate(100,112)"/>
<path d="M0 0 C8.29319543 2.15390923 12.65619962 7.01553936 16.875 14.1875 C19.19756122 22.05840192 19.07013154 28.74532157 15.3125 36.125 C13.06938509 40.12435216 11.40926353 41.66294905 7 43 C8.10175536 40.52105044 9.266293 38.6754554 11 36.5625 C15.32897456 31.01600135 15.64814492 25.8473375 15 19 C13.90219391 13.34130862 11.50605954 9.75125021 6.94140625 6.25390625 C0.16174625 1.87509164 -6.05336939 1.60559002 -14 2 C-9.49281202 -1.00479198 -5.28252965 -0.5586611 0 0 Z " fill="#55392E" transform="translate(84,80)"/>
<path d="M0 0 C2.1875 0.3125 2.1875 0.3125 4 1 C3.2265625 1.67804687 2.453125 2.35609375 1.65625 3.0546875 C-7.24709229 10.96192179 -14.50229998 19.13436467 -20.5625 29.4375 C-20.92182617 30.04118408 -21.28115234 30.64486816 -21.65136719 31.2668457 C-22.76226256 33.17399964 -22.76226256 33.17399964 -24 36 C-23.67 36.99 -23.34 37.98 -23 39 C-24.32 39 -25.64 39 -27 39 C-27 37.02 -27 35.04 -27 33 C-26.34 33 -25.68 33 -25 33 C-24.73832031 32.27425781 -24.47664063 31.54851562 -24.20703125 30.80078125 C-22.97241864 27.93600054 -21.52133343 25.70444655 -19.6875 23.1875 C-17.4810987 20.12759366 -15.43472703 17.08571324 -13.5625 13.8125 C-11.23864246 9.99859427 -8.30483895 7.35863268 -4.8671875 4.54296875 C-2.9643034 3.06293817 -2.9643034 3.06293817 -1.5078125 1.23828125 C-1.01023437 0.82964844 -0.51265625 0.42101563 0 0 Z " fill="#563D32" transform="translate(85,37)"/>
<path d="M0 0 C0.99 0.33 1.98 0.66 3 1 C2.38511719 1.68835938 2.38511719 1.68835938 1.7578125 2.390625 C1.21898437 3.00421875 0.68015625 3.6178125 0.125 4.25 C-0.40867187 4.85328125 -0.94234375 5.4565625 -1.4921875 6.078125 C-5.89238025 11.68666084 -5.45780764 17.09766944 -5 24 C-4.50959265 26.77333813 -3.83023015 29.301752 -3 32 C-7.79312599 27.41527079 -7.90492439 22.36521928 -8.203125 15.92578125 C-7.85636687 9.22401355 -4.64251423 4.64251423 0 0 Z " fill="#583C2E" transform="translate(62,85)"/>
<path d="M0 0 C8.27696378 1.72361936 14.70863916 5.33663344 21 11 C21.33 11.99 21.66 12.98 22 14 C19.17599997 12.80523076 17.37153171 11.46318334 15 9.4375 C12.34165004 7.27759066 11.24275617 6.46325088 8 6 C7.34 5.67 6.68 5.34 6 5 C6 4.34 6 3.68 6 3 C4.35 3 2.7 3 1 3 C0.67 2.01 0.34 1.02 0 0 Z " fill="#5C433B" transform="translate(83,70)"/>
<path d="M0 0 C0.33 0.66 0.66 1.32 1 2 C1.99 2 2.98 2 4 2 C4 2.66 4 3.32 4 4 C-0.20353067 7.28080442 -3.91353417 8.7792482 -9 10 C-9 9.34 -9 8.68 -9 8 C-8.34 8 -7.68 8 -7 8 C-6.34 6.68 -5.68 5.36 -5 4 C-4.34 4 -3.68 4 -3 4 C-3 3.34 -3 2.68 -3 2 C-2.01 1.34 -1.02 0.68 0 0 Z " fill="#5E453C" transform="translate(96,126)"/>
<path d="M0 0 C-1 3 -1 3 -4 5 C-6.4375 5.125 -6.4375 5.125 -9 5 C-10.32 5 -11.64 5 -13 5 C-14.32 5 -15.64 5 -17 5 C-17 4.34 -17 3.68 -17 3 C-11.10261508 0.70657253 -6.33393082 -0.34548714 0 0 Z " fill="#65473B" transform="translate(97,122)"/>
<path d="M0 0 C2.5 1.125 2.5 1.125 5 3 C5.5625 6 5.5625 6 5 9 C2.17681128 11.61645637 -0.57468566 12.67195262 -4.25 13.6875 C-5.58804688 14.06455078 -5.58804688 14.06455078 -6.953125 14.44921875 C-7.62859375 14.63097656 -8.3040625 14.81273437 -9 15 C-8 12 -8 12 -5.71484375 10.83203125 C-4.79832031 10.49558594 -3.88179688 10.15914062 -2.9375 9.8125 C-2.01839844 9.46832031 -1.09929687 9.12414063 -0.15234375 8.76953125 C0.55792969 8.51558594 1.26820312 8.26164062 2 8 C1.47731534 5.23723823 0.89130413 2.6739124 0 0 Z " fill="#503B31" transform="translate(98,22)"/>
<path d="M0 0 C0.66 0 1.32 0 2 0 C0.76648984 6.27968807 -1.3483755 10.75950071 -5 16 C-5.99 15.67 -6.98 15.34 -8 15 C-6.25 10.125 -6.25 10.125 -4 9 C-4 8.34 -4 7.68 -4 7 C-3.34 7 -2.68 7 -2 7 C-2 6.01 -2 5.02 -2 4 C-1.34 4 -0.68 4 0 4 C0 2.68 0 1.36 0 0 Z " fill="#64493C" transform="translate(109,110)"/>
<path d="M0 0 C0.66 0.33 1.32 0.66 2 1 C1.2884375 2.546875 1.2884375 2.546875 0.5625 4.125 C-0.84522388 7.38534162 -1.56835498 10.46051083 -2 14 C-2.66 14 -3.32 14 -4 14 C-4 14.99 -4 15.98 -4 17 C-4.99 17.33 -5.98 17.66 -7 18 C-5.26375242 11.5811453 -3.14819255 5.86215164 0 0 Z " fill="#594438" transform="translate(54,59)"/>
<path d="M0 0 C0.47308594 0.39832031 0.94617187 0.79664062 1.43359375 1.20703125 C6.36397602 5.15710359 10.90032961 7.39036476 17 9 C17 9.33 17 9.66 17 10 C10.50941079 10.98769836 7.17189658 8.54246598 1.94140625 4.82421875 C0.98041016 3.92123047 0.98041016 3.92123047 0 3 C0 2.01 0 1.02 0 0 Z " fill="#553933" transform="translate(60,117)"/>
<path d="M0 0 C0.66 0.33 1.32 0.66 2 1 C-2.95 7.93 -2.95 7.93 -8 15 C-8.33 14.01 -8.66 13.02 -9 12 C-6.46471264 7.61200265 -3.28650395 3.83425461 0 0 Z " fill="#573528" transform="translate(74,49)"/>
<path d="M0 0 C1.32 0.33 2.64 0.66 4 1 C4.33 2.65 4.66 4.3 5 6 C3.68 6.33 2.36 6.66 1 7 C0.67 4.69 0.34 2.38 0 0 Z " fill="#725E56" transform="translate(46,111)"/>
<path d="M0 0 C0.99 0.33 1.98 0.66 3 1 C2.04270084 2.12588014 1.08412105 3.2506715 0.125 4.375 C-0.40867187 5.00148438 -0.94234375 5.62796875 -1.4921875 6.2734375 C-2.61432007 7.55836651 -3.79371975 8.79371975 -5 10 C-4.49701212 5.59885603 -2.91227269 3.28804981 0 0 Z " fill="#5A2F27" transform="translate(62,85)"/>
<path d="M0 0 C1.98 0.66 3.96 1.32 6 2 C6.33 3.65 6.66 5.3 7 7 C1.125 3.375 1.125 3.375 0 0 Z " fill="#694D3E" transform="translate(53,125)"/>
<path d="M0 0 C3 1 3 1 4.1875 3.25 C4.99938294 5.99791147 5.16260121 8.15447889 5 11 C0 3.5 0 3.5 0 0 Z " fill="#593F35" transform="translate(105,86)"/>
<path d="M0 0 C0.66 0 1.32 0 2 0 C1.7452486 1.31571603 1.47065859 2.62760376 1.1875 3.9375 C1.03667969 4.66839844 0.88585937 5.39929688 0.73046875 6.15234375 C0.48941406 6.76207031 0.24835938 7.37179688 0 8 C-0.99 8.33 -1.98 8.66 -3 9 C-2.67 7.35 -2.34 5.7 -2 4 C-1.34 4 -0.68 4 0 4 C0 2.68 0 1.36 0 0 Z " fill="#5C3D33" transform="translate(109,110)"/>
<path d="M0 0 C2.64 1.98 5.28 3.96 8 6 C7.01 6.33 6.02 6.66 5 7 C2.3125 5.25 2.3125 5.25 0 3 C0 2.01 0 1.02 0 0 Z " fill="#4B3928" transform="translate(60,117)"/>
</svg>
