<?xml version="1.0" encoding="UTF-8"?>
<svg version="1.1" xmlns="http://www.w3.org/2000/svg" width="220" height="217">
<path d="M0 0 C2.31332486 3.46998729 2.33957563 4.92509248 2 9 C1.34 9.99 0.68 10.98 0 12 C-0.66 12 -1.32 12 -2 12 C-2 12.66 -2 13.32 -2 14 C-2.93457031 14.46148437 -3.86914062 14.92296875 -4.83203125 15.3984375 C-17.27471098 21.56755121 -29.55833471 28.02476292 -41.80859375 34.56640625 C-42.57695557 34.97576416 -43.34531738 35.38512207 -44.13696289 35.80688477 C-45.58664498 36.57972172 -47.03513109 37.35480803 -48.48217773 38.13256836 C-53.207374 40.65170137 -57.76132691 42.83585042 -63 44 C-60.36133401 47.0971576 -57.24857988 48.54142444 -53.625 50.3125 C-52.70920166 50.7621814 -52.70920166 50.7621814 -51.77490234 51.22094727 C-45.56568542 54.25214941 -39.29256999 57.14639268 -33 60 C-33 60.66 -33 61.32 -33 62 C-31.97712891 62.14308594 -31.97712891 62.14308594 -30.93359375 62.2890625 C-27.3617366 63.15467901 -24.29968203 64.68845952 -21.0625 66.375 C-20.46759766 66.67921875 -19.87269531 66.9834375 -19.25976562 67.296875 C-17.50476596 68.19451417 -15.75235626 69.09721129 -14 70 C-11.13014866 71.44390518 -8.25589523 72.87546938 -5.3671875 74.28125 C-4.54476562 74.6834375 -3.72234375 75.085625 -2.875 75.5 C-2.04742187 75.9021875 -1.21984375 76.304375 -0.3671875 76.71875 C5.66857211 79.98562979 5.66857211 79.98562979 6.64453125 82.97265625 C7.11111111 88.77777778 7.11111111 88.77777778 6 91 C5.34 91 4.68 91 4 91 C4 91.66 4 92.32 4 93 C-0.93153129 94.24017799 -3.31909284 93.80601123 -7.75 91.375 C-8.79414063 90.81683594 -9.83828125 90.25867188 -10.9140625 89.68359375 C-11.93242187 89.12800781 -12.95078125 88.57242188 -14 88 C-15.70429247 87.13779894 -17.41236643 86.28301152 -19.125 85.4375 C-22.41666667 83.79166667 -25.70833333 82.14583333 -29 80.5 C-29.83144531 80.08492188 -30.66289063 79.66984375 -31.51953125 79.2421875 C-33.12320096 78.43908991 -34.72491105 77.63206195 -36.32421875 76.8203125 C-43.80148531 73.03842231 -51.39615575 69.51804527 -59 66 C-59 65.34 -59 64.68 -59 64 C-59.99580078 63.86271484 -59.99580078 63.86271484 -61.01171875 63.72265625 C-64.88340045 62.78636721 -68.23739449 61.16518257 -71.8125 59.4375 C-72.50537109 59.10814453 -73.19824219 58.77878906 -73.91210938 58.43945312 C-75.61044948 57.63127749 -77.30555769 56.81631623 -79 56 C-79 55.34 -79 54.68 -79 54 C-80.093125 53.896875 -81.18625 53.79375 -82.3125 53.6875 C-86 53 -86 53 -87.9375 51.9375 C-89.65273412 48.80972014 -89.83194701 45.41294798 -89 42 C-85.89365917 37.965689 -81.73976026 36.1363915 -77.25 34 C-76.23292969 33.505 -76.23292969 33.505 -75.1953125 33 C-73.8234251 32.33231336 -72.45012373 31.66752433 -71.07543945 31.00561523 C-68.30992521 29.66563721 -65.56344652 28.28897057 -62.81689453 26.91064453 C-61.28306143 26.14187304 -59.74546046 25.38062593 -58.20703125 24.62109375 C-53.26502447 22.19018394 -53.26502447 22.19018394 -48.5 19.4375 C-43.39756167 16.50359796 -37.74302355 14.29980672 -32 13 C-32 12.34 -32 11.68 -32 11 C-28.27034861 8.96564469 -26.33094958 8 -22 8 C-22 7.34 -22 6.68 -22 6 C-19.65522726 4.78989206 -17.30216163 3.60757291 -14.9375 2.4375 C-14.28072266 2.09525391 -13.62394531 1.75300781 -12.94726562 1.40039062 C-8.29661706 -0.86765966 -5.1674125 -1.49022758 0 0 Z " fill="#775447" transform="translate(155,49)"/>
<path d="M0 0 C0.66 1.65 1.32 3.3 2 5 C1.34 5 0.68 5 0 5 C0 4.34 0 3.68 0 3 C-2.31 3 -4.62 3 -7 3 C-7 3.66 -7 4.32 -7 5 C-8.65 5.33 -10.3 5.66 -12 6 C-12 6.66 -12 7.32 -12 8 C-12.60585937 8.21914063 -13.21171875 8.43828125 -13.8359375 8.6640625 C-19.6388985 10.86026005 -24.69787891 13.49634669 -29.87109375 16.92578125 C-30.57363281 17.28027344 -31.27617188 17.63476562 -32 18 C-32.99 17.67 -33.98 17.34 -35 17 C-34.01 15.515 -34.01 15.515 -33 14 C-32.01 14 -31.02 14 -30 14 C-30 13.34 -30 12.68 -30 12 C-26.27034861 9.96564469 -24.33094958 9 -20 9 C-20 8.34 -20 7.68 -20 7 C-17.60945893 5.8212678 -15.21354785 4.65697003 -12.8125 3.5 C-11.80219727 2.99919922 -11.80219727 2.99919922 -10.77148438 2.48828125 C-7.03696471 0.70299868 -4.24205451 -0.46127195 0 0 Z " fill="#77584E" transform="translate(153,48)"/>
<path d="M0 0 C-0.66 0.66 -1.32 1.32 -2 2 C-2.99 2 -3.98 2 -5 2 C-5 2.66 -5 3.32 -5 4 C-7.58789062 5.07421875 -7.58789062 5.07421875 -10.17578125 6.1484375 C-12.26533932 7.06806692 -12.26533932 7.06806692 -15 9 C-17.6875 9.125 -17.6875 9.125 -20 9 C-20 9.66 -20 10.32 -20 11 C-22.97 12.65 -25.94 14.3 -29 16 C-27 12 -27 12 -24 11 C-23.67 10.01 -23.34 9.02 -23 8 C-20.80094486 6.67644 -18.68109234 5.53845784 -16.375 4.4375 C-15.77042969 4.13392578 -15.16585937 3.83035156 -14.54296875 3.51757812 C-3.6376448 -1.8188224 -3.6376448 -1.8188224 0 0 Z " fill="#74584C" transform="translate(97,77)"/>
<path d="M0 0 C0.66 1.65 1.32 3.3 2 5 C1.34 5 0.68 5 0 5 C0 4.34 0 3.68 0 3 C-2.31 3 -4.62 3 -7 3 C-7 3.66 -7 4.32 -7 5 C-8.65 5.33 -10.3 5.66 -12 6 C-12 6.66 -12 7.32 -12 8 C-13.32 7.67 -14.64 7.34 -16 7 C-10.89582884 2.48933711 -7.10545205 -0.40602583 0 0 Z " fill="#806358" transform="translate(153,48)"/>
<path d="M0 0 C-0.66 0.66 -1.32 1.32 -2 2 C-2.99 2 -3.98 2 -5 2 C-5 2.66 -5 3.32 -5 4 C-9.625 6.125 -9.625 6.125 -13 5 C-11.35 4.34 -9.7 3.68 -8 3 C-8 2.01 -8 1.02 -8 0 C-2.25 -1.125 -2.25 -1.125 0 0 Z " fill="#7F645B" transform="translate(97,77)"/>
<path d="M0 0 C0.66 0 1.32 0 2 0 C2 0.66 2 1.32 2 2 C2.680625 2.103125 3.36125 2.20625 4.0625 2.3125 C7.62915989 3.14725019 10.66222194 4.49472754 14 6 C14 6.66 14 7.32 14 8 C10.61108678 7.31113213 7.81988387 6.01283514 4.75 4.4375 C3.85796875 3.98246094 2.9659375 3.52742188 2.046875 3.05859375 C1.37140625 2.70925781 0.6959375 2.35992187 0 2 C0 1.34 0 0.68 0 0 Z " fill="#674738" transform="translate(120,109)"/>
<path d="M0 0 C-0.33 0.66 -0.66 1.32 -1 2 C-2.32 2 -3.64 2 -5 2 C-5 2.66 -5 3.32 -5 4 C-6.32 3.67 -7.64 3.34 -9 3 C-9 2.34 -9 1.68 -9 1 C-2.25 -1.125 -2.25 -1.125 0 0 Z " fill="#7D6256" transform="translate(107,72)"/>
<path d="M0 0 C3.01217112 0.64449607 5.51655836 1.65022182 8.25 3.0625 C8.95640625 3.42472656 9.6628125 3.78695312 10.390625 4.16015625 C10.92171875 4.43730469 11.4528125 4.71445313 12 5 C11.67 5.66 11.34 6.32 11 7 C9.35063087 6.21572648 7.70558873 5.42234741 6.0625 4.625 C5.14597656 4.18414062 4.22945312 3.74328125 3.28515625 3.2890625 C1 2 1 2 0 0 Z " fill="#644639" transform="translate(135,117)"/>
<path d="M0 0 C0.99 0.33 1.98 0.66 3 1 C3 1.66 3 2.32 3 3 C0.03 4.65 -2.94 6.3 -6 8 C-4 4 -4 4 -1 3 C-0.67 2.01 -0.34 1.02 0 0 Z " fill="#836559" transform="translate(74,85)"/>
<path d="M0 0 C-2.8125 2.0625 -2.8125 2.0625 -6 4 C-6.99 3.67 -7.98 3.34 -9 3 C-7 0 -7 0 -4.5 -0.75 C-2 -1 -2 -1 0 0 Z " fill="#806054" transform="translate(127,62)"/>
</svg>
