<?xml version="1.0" encoding="UTF-8"?>
<svg version="1.1" xmlns="http://www.w3.org/2000/svg" width="202" height="223">
<path d="M0 0 C2.7890625 0.4609375 2.7890625 0.4609375 5.4140625 2.7734375 C6.0946875 4.10375 6.0946875 4.10375 6.7890625 5.4609375 C7.7790625 6.9459375 7.7790625 6.9459375 8.7890625 8.4609375 C10.32655347 15.51258782 10.26421554 22.04073952 6.7890625 28.4609375 C4.64145498 31.3226892 2.2533049 33.87292036 -0.2109375 36.4609375 C-0.9740625 37.4509375 -1.7371875 38.4409375 -2.5234375 39.4609375 C-3.0803125 40.1209375 -3.6371875 40.7809375 -4.2109375 41.4609375 C-4.8709375 41.4609375 -5.5309375 41.4609375 -6.2109375 41.4609375 C-6.2109375 42.1209375 -6.2109375 42.7809375 -6.2109375 43.4609375 C-13.9283288 48.40006793 -13.9283288 48.40006793 -19.2109375 47.4609375 C-21.5859375 45.8984375 -21.5859375 45.8984375 -23.2109375 43.4609375 C-23.75390625 40.2578125 -23.75390625 40.2578125 -23.2109375 36.4609375 C-21.18370822 33.70297141 -18.71203167 31.52733573 -16.1484375 29.2734375 C-14.81347894 28.08355546 -13.48863723 26.88219393 -12.17578125 25.66796875 C-11.584021 25.1469458 -10.99226074 24.62592285 -10.38256836 24.08911133 C-8.97242196 22.51057147 -8.97242196 22.51057147 -9.4296875 20.3815918 C-10.15155745 18.35016712 -10.15155745 18.35016712 -11.74609375 16.5234375 C-13.53733929 14.00136378 -13.643763 12.52741262 -13.6484375 9.4609375 C-13.66777344 8.6153125 -13.68710938 7.7696875 -13.70703125 6.8984375 C-12.20629811 -0.47524343 -6.26580126 -0.19818836 0 0 Z " fill="#765347" transform="translate(108.2109375,133.5390625)"/>
<path d="M0 0 C2.6875 1.6875 2.6875 1.6875 4.6875 4.6875 C5.42792867 10.32917329 6.12321247 16.82082907 3.5078125 22.04296875 C0.86257528 24.70719093 -1.29930988 25.5645116 -5.015625 26.015625 C-9.86577872 25.88310714 -13.37517907 25.22889453 -16.9375 21.8125 C-20.36157596 17.3071369 -20.60024653 14.25059959 -20.3125 8.6875 C-19.29337808 5.23816427 -18.16783442 2.90831566 -15.3125 0.6875 C-10.14312618 -2.04078063 -5.41360457 -2.14501313 0 0 Z " fill="#775547" transform="translate(114.3125,53.3125)"/>
<path d="M0 0 C0.66 0.33 1.32 0.66 2 1 C0.4375 3.9375 0.4375 3.9375 -2 7 C-5.75 7.875 -5.75 7.875 -9 8 C-9 7.34 -9 6.68 -9 6 C-9.99 5.67 -10.98 5.34 -12 5 C-11.67 4.34 -11.34 3.68 -11 3 C-8.69 3.66 -6.38 4.32 -4 5 C-4 4.34 -4 3.68 -4 3 C-2 1.375 -2 1.375 0 0 Z " fill="#7A5B51" transform="translate(100,173)"/>
<path d="M0 0 C0.66 0 1.32 0 2 0 C1.40716913 3.60571107 -0.02741777 5.54429438 -2.4375 8.25 C-3.05496094 8.95640625 -3.67242187 9.6628125 -4.30859375 10.390625 C-6 12 -6 12 -8 12 C-6.43909056 8.16867684 -3.8924866 5.8924866 -1 3 C-0.67 2.01 -0.34 1.02 0 0 Z " fill="#6B4D42" transform="translate(100,153)"/>
<path d="M0 0 C0.33 1.32 0.66 2.64 1 4 C-1.31 5.98 -3.62 7.96 -6 10 C-6 7 -6 7 -3.5625 4.4375 C-2.716875 3.633125 -1.87125 2.82875 -1 2 C-0.67 1.34 -0.34 0.68 0 0 Z " fill="#5D4033" transform="translate(118,69)"/>
<path d="M0 0 C2.64 0.66 5.28 1.32 8 2 C7.67 2.99 7.34 3.98 7 5 C5.68 5 4.36 5 3 5 C3 4.34 3 3.68 3 3 C2.01 2.67 1.02 2.34 0 2 C0 1.34 0 0.68 0 0 Z " fill="#816256" transform="translate(88,176)"/>
<path d="M0 0 C0.33 0.99 0.66 1.98 1 3 C-0.98 4.98 -2.96 6.96 -5 9 C-5.66 8.67 -6.32 8.34 -7 8 C-4.69 5.36 -2.38 2.72 0 0 Z " fill="#7F6055" transform="translate(101,156)"/>
</svg>
