<?xml version="1.0" encoding="UTF-8"?>
<svg version="1.1" xmlns="http://www.w3.org/2000/svg" width="157" height="166">
<path d="M0 0 C0.99990967 -0.00918457 1.99981934 -0.01836914 3.0300293 -0.02783203 C3.92117432 -0.02380371 4.81231934 -0.01977539 5.73046875 -0.015625 C6.48094482 -0.01336914 7.2314209 -0.01111328 8.00463867 -0.00878906 C9.8125 0.25 9.8125 0.25 11.8125 2.25 C12.24609375 5.015625 12.24609375 5.015625 11.8125 8.25 C10.2199425 10.42897587 8.76980678 12.13012899 6.875 14 C5.85624025 15.05547772 4.83801828 16.11147475 3.8203125 17.16796875 C3.31016602 17.68794434 2.80001953 18.20791992 2.27441406 18.74365234 C0.20323297 20.87778517 -1.77310288 23.09114786 -3.75 25.3125 C-6.96073365 28.89215099 -10.1940681 32.4499512 -13.4375 36 C-16.78658034 39.67772841 -20.05501134 43.38659732 -23.1875 47.25 C-22.23875 47.4975 -21.29 47.745 -20.3125 48 C-9.76609799 51.10438446 -0.38362244 55.14338777 5.375 65.125 C8.06808053 71.4791808 7.56366655 77.81511862 5.375 84.25 C1.56654341 92.73550854 -4.86658041 99.61246303 -13.4453125 103.2890625 C-23.34889457 106.75954852 -32.56839906 107.53599706 -43 107.625 C-44.06162354 107.63893799 -45.12324707 107.65287598 -46.21704102 107.66723633 C-53.71623171 107.62197904 -60.50391968 106.85545925 -66.75 102.4375 C-68.68281495 99.49625986 -68.701567 97.70159274 -68.1875 94.25 C-67.125 92.3125 -67.125 92.3125 -65.1875 91.25 C-61.625 91.375 -61.625 91.375 -58.1875 92.25 C-57.5275 93.24 -56.8675 94.23 -56.1875 95.25 C-51.79154785 95.93550842 -47.31784173 95.71249809 -42.875 95.6875 C-41.65748047 95.70748047 -40.43996094 95.72746094 -39.18554688 95.74804688 C-29.82561241 95.74307083 -19.41008332 94.77286797 -11.625 89 C-7.8824245 84.77760712 -5.12887339 79.87555663 -4.1875 74.25 C-6.51978653 68.16014072 -9.90403266 64.37170326 -15.75 61.5 C-21.70268447 59.33538746 -27.22648521 58.96075363 -33.51953125 58.73242188 C-38.97216655 58.46533345 -38.97216655 58.46533345 -41.1875 56.25 C-41.75249062 53.22795713 -41.81863281 51.19683756 -40.07373047 48.57910156 C-38.48924605 46.76781533 -36.8359209 45.06731888 -35.125 43.375 C-33.91722489 42.13093006 -32.71018647 40.88614448 -31.50390625 39.640625 C-30.92398926 39.05087891 -30.34407227 38.46113281 -29.74658203 37.85351562 C-27.94657986 36.00221367 -26.24038665 34.08734409 -24.5625 32.125 C-21.13780489 28.14960015 -17.57882526 24.30194291 -14.00537109 20.46044922 C-11.56614602 17.82224621 -9.31640998 15.14155069 -7.1875 12.25 C-16.06775552 12.17939159 -24.92611475 12.22996182 -33.80078125 12.57421875 C-34.5978952 12.60347443 -35.39500916 12.6327301 -36.21627808 12.66287231 C-39.48178189 12.78295755 -42.7469695 12.90404662 -46.01147461 13.04907227 C-48.44093541 13.1550308 -50.87043862 13.24133154 -53.30078125 13.32421875 C-54.03613602 13.36157639 -54.77149078 13.39893402 -55.52912903 13.43742371 C-58.81436944 13.53444513 -60.83042595 13.46551732 -63.68041992 11.74536133 C-64.17775635 11.25189209 -64.67509277 10.75842285 -65.1875 10.25 C-64.9375 7.375 -64.9375 7.375 -64.1875 4.25 C-61.47947094 2.47563438 -59.19836589 1.97842809 -55.99926758 1.83935547 C-55.1785376 1.79948517 -54.35780762 1.75961487 -53.51220703 1.71853638 C-52.62774902 1.68509125 -51.74329102 1.65164612 -50.83203125 1.6171875 C-49.44189819 1.5545723 -49.44189819 1.5545723 -48.02368164 1.49069214 C-45.01611863 1.35867192 -42.00822374 1.24091556 -39 1.125 C-36.946857 1.04073217 -34.89371572 0.95642223 -32.84057617 0.87207031 C-21.89674013 0.43613761 -10.95325818 0.05535761 0 0 Z " fill="#694A3F" transform="translate(107.1875,20.75)"/>
<path d="M0 0 C5.44906122 3.41901881 9.80024619 6.76736422 12 13 C12.40347899 17.37102243 12.26934962 21.62456501 12 26 C12 26.99 12 27.98 12 29 C9.20542556 36.9844984 3.49691618 43.17178748 -4 47 C-6.5798457 47.70438484 -9.00052181 48.25375355 -11.625 48.6875 C-12.38264648 48.81342529 -13.14029297 48.93935059 -13.92089844 49.0690918 C-21.34773501 50.15003756 -28.75418093 50.29082996 -36.25 50.3125 C-37.41611816 50.31789795 -38.58223633 50.3232959 -39.78369141 50.32885742 C-46.29808241 50.27437342 -51.50608177 49.83890433 -57.375 46.75 C-59 45 -59 45 -59.3125 41.875 C-59 39 -59 39 -58 38 C-55.0625 37.75 -55.0625 37.75 -52 38 C-51.34 38.99 -50.68 39.98 -50 41 C-47.91619855 41.54062944 -47.91619855 41.54062944 -45.484375 41.58203125 C-44.56946289 41.62827637 -43.65455078 41.67452148 -42.71191406 41.72216797 C-41.73448242 41.75197754 -40.75705078 41.78178711 -39.75 41.8125 C-38.75452148 41.84746582 -37.75904297 41.88243164 -36.73339844 41.91845703 C-24.67870028 42.22890358 -11.9551603 41.95596142 -2.3828125 33.5859375 C1.05820279 29.77842354 3.728075 25.1998616 4.16796875 20.0234375 C3.89833393 14.85044361 1.8609065 12.07103481 -1.72265625 8.4453125 C-3 7 -3 7 -3 5 C-2.34 4.67 -1.68 4.34 -1 4 C-0.34786708 1.97536745 -0.34786708 1.97536745 0 0 Z " fill="#73554A" transform="translate(100,76)"/>
<path d="M0 0 C0 0.66 0 1.32 0 2 C0.99 1.67 1.98 1.34 3 1 C5.86591555 0.87786485 8.69679512 0.81487818 11.5625 0.8125 C12.34302734 0.80025391 13.12355469 0.78800781 13.92773438 0.77539062 C15.95320035 0.77014783 17.97822552 0.87765672 20 1 C22 3 22 3 22.375 5.375 C22 8 22 8 20.4375 10.3125 C17.17947591 12.56805514 14.88384843 12.21576936 11 12 C10.34 12.33 9.68 12.66 9 13 C9 12.01 9 11.02 9 10 C8.0494574 10.03758423 8.0494574 10.03758423 7.07971191 10.07592773 C0.46076626 10.33733059 -6.15826284 10.59653755 -12.77734375 10.85449219 C-15.24481358 10.95093841 -17.71226188 11.04793711 -20.1796875 11.14550781 C-23.73431925 11.2859731 -27.28902468 11.42442565 -30.84375 11.5625 C-31.93989624 11.60624756 -33.03604248 11.64999512 -34.16540527 11.69506836 C-37.11002281 11.80838865 -40.05465914 11.90766957 -43 12 C-43.81251221 12.03206543 -44.62502441 12.06413086 -45.4621582 12.09716797 C-47.30779451 12.14403996 -49.1556575 12.08349316 -51 12 C-51.66 11.34 -52.32 10.68 -53 10 C-52.875 7 -52.875 7 -52 4 C-49.17578147 2.14732666 -46.7981721 1.72204663 -43.46264648 1.58935547 C-42.12622353 1.52951981 -42.12622353 1.52951981 -40.76280212 1.46847534 C-39.80853836 1.43505035 -38.8542746 1.40162537 -37.87109375 1.3671875 C-36.39202293 1.30484421 -36.39202293 1.30484421 -34.8830719 1.24124146 C-31.7348276 1.11062597 -28.58624973 0.99273273 -25.4375 0.875 C-23.3131175 0.78858115 -21.18876783 0.70135101 -19.06445312 0.61328125 C-4.05095068 0 -4.05095068 0 0 0 Z " fill="#715346" transform="translate(95,21)"/>
<path d="M0 0 C0.495 1.485 0.495 1.485 1 3 C-0.051875 4.02287109 -0.051875 4.02287109 -1.125 5.06640625 C-4.26338793 8.20589924 -7.12992246 11.55386798 -10 14.9375 C-10.76183594 15.82985352 -10.76183594 15.82985352 -11.5390625 16.74023438 C-12.54386115 17.91894048 -13.54398266 19.10165193 -14.5390625 20.28857422 C-15.50980727 21.42576018 -16.50490762 22.54261386 -17.5234375 23.63720703 C-19.12105093 25.33870629 -19.12105093 25.33870629 -21 28 C-20.96624167 30.32171592 -20.96624167 30.32171592 -20 32 C-18.87722656 32.03738281 -17.75445312 32.07476562 -16.59765625 32.11328125 C3.68098526 32.93538834 3.68098526 32.93538834 11.5546875 40.40625 C14.95880204 44.1599763 16.27791238 47.35158324 16.0625 52.375 C15.05982601 58.65490552 11.68423494 62.80292203 6.84765625 66.76171875 C-3.86308416 74.32331839 -15.83794919 74.31313703 -28.5 73.75 C-29.98113281 73.70939453 -29.98113281 73.70939453 -31.4921875 73.66796875 C-32.43320312 73.62800781 -33.37421875 73.58804688 -34.34375 73.546875 C-35.61508789 73.49805176 -35.61508789 73.49805176 -36.91210938 73.44824219 C-39 73 -39 73 -41 70 C-44.08365871 69.7497843 -44.08365871 69.7497843 -47 70 C-47.33397787 72.87413125 -47.33397787 72.87413125 -47 76 C-43.7256132 79.51693397 -39.8424985 79.90414561 -35.20776367 80.14526367 C-31.8674881 80.17021312 -28.5278873 80.18932174 -25.1875 80.1875 C-23.98311279 80.18814453 -22.77872559 80.18878906 -21.5378418 80.18945312 C-12.54404445 80.13636034 -3.86527568 79.52053733 5 78 C-3.54043937 83.69362625 -14.90470781 83.3096739 -24.8125 83.375 C-25.87355957 83.38869629 -26.93461914 83.40239258 -28.02783203 83.41650391 C-35.52747288 83.37303113 -42.31618533 82.60562501 -48.5625 78.1875 C-50.49531495 75.24625986 -50.514067 73.45159274 -50 70 C-48.9375 68.0625 -48.9375 68.0625 -47 67 C-43.4375 67.125 -43.4375 67.125 -40 68 C-39.34 68.99 -38.68 69.98 -38 71 C-33.60404785 71.68550842 -29.13034173 71.46249809 -24.6875 71.4375 C-23.46998047 71.45748047 -22.25246094 71.47746094 -20.99804688 71.49804688 C-11.63811241 71.49307083 -1.22258332 70.52286797 6.5625 64.75 C10.3050755 60.52760712 13.05862661 55.62555663 14 50 C11.66771347 43.91014072 8.28346734 40.12170326 2.4375 37.25 C-3.51518447 35.08538746 -9.03898521 34.71075363 -15.33203125 34.48242188 C-20.78466655 34.21533345 -20.78466655 34.21533345 -23 32 C-23.56499062 28.97795713 -23.63113281 26.94683756 -21.88623047 24.32910156 C-20.30176677 22.51783902 -18.64840459 20.8172825 -16.9375 19.125 C-15.74016041 17.89132824 -14.54354036 16.65695771 -13.34765625 15.421875 C-12.76902832 14.83341797 -12.19040039 14.24496094 -11.59423828 13.63867188 C-9.61917655 11.60856248 -7.73425221 9.511333 -5.875 7.375 C-5.37742188 6.80523437 -4.87984375 6.23546875 -4.3671875 5.6484375 C-2.84436927 3.81235381 -1.41626869 1.91908597 0 0 Z " fill="#53382D" transform="translate(89,45)"/>
<path d="M0 0 C3 0 3 0 4.6875 1.5 C5.120625 1.995 5.55375 2.49 6 3 C4.63312778 6.98671063 2.84804907 9.88494633 0 13 C-0.66 13 -1.32 13 -2 13 C-3.33333333 16 -3.33333333 16 -2 19 C-2.9375 22.1875 -2.9375 22.1875 -4 25 C-2.02 25 -0.04 25 2 25 C2.33 25.66 2.66 26.32 3 27 C-0.1257396 26.89037184 -3.25024781 26.75968759 -6.375 26.625 C-7.26445313 26.5940625 -8.15390625 26.563125 -9.0703125 26.53125 C-9.92109375 26.49257812 -10.771875 26.45390625 -11.6484375 26.4140625 C-12.43395996 26.3826416 -13.21948242 26.3512207 -14.02880859 26.31884766 C-16 26 -16 26 -18 24 C-18.07885517 21.24006896 -17.51320873 19.58326096 -15.68359375 17.50390625 C-14.50408527 16.36271127 -13.31435543 15.23203041 -12.1171875 14.109375 C-8.72844857 10.73314065 -5.81430414 6.98254108 -2.8203125 3.2578125 C-1 1 -1 1 0 0 Z " fill="#735448" transform="translate(85,52)"/>
<path d="M0 0 C4.32318484 4.1472951 8.54131342 8.86827574 8.9921875 15.0546875 C9.05684658 23.56382281 9.05684658 23.56382281 6.82421875 27.75 C5.83421875 27.255 5.83421875 27.255 4.82421875 26.75 C5.15421875 26.09 5.48421875 25.43 5.82421875 24.75 C6.54317105 17.49885252 6.71765312 11.35116273 2.26953125 5.33984375 C0.30944199 3.18374557 -1.77475154 1.39642037 -4.17578125 -0.25 C-4.83578125 1.07 -5.49578125 2.39 -6.17578125 3.75 C-6.83578125 3.75 -7.49578125 3.75 -8.17578125 3.75 C-8.50578125 4.41 -8.83578125 5.07 -9.17578125 5.75 C-9.67207031 5.48445313 -10.16835937 5.21890625 -10.6796875 4.9453125 C-15.12556647 2.63379288 -19.31478449 0.96524919 -24.17578125 -0.25 C-23.84578125 -1.57 -23.51578125 -2.89 -23.17578125 -4.25 C-24.16578125 -4.58 -25.15578125 -4.91 -26.17578125 -5.25 C-16.03094405 -8.25028164 -8.25484033 -6.69763921 0 0 Z " fill="#745548" transform="translate(105.17578125,77.25)"/>
<path d="M0 0 C3.62493334 -0.05787784 7.24974857 -0.0935542 10.875 -0.125 C11.90753906 -0.14175781 12.94007812 -0.15851562 14.00390625 -0.17578125 C14.99003906 -0.18222656 15.97617188 -0.18867188 16.9921875 -0.1953125 C18.35899658 -0.21102295 18.35899658 -0.21102295 19.75341797 -0.22705078 C22 0 22 0 24 2 C24.45703125 4.73828125 24.45703125 4.73828125 24 8 C22.28382144 10.316404 20.70488418 12.18029178 18.6875 14.1875 C18.18798828 14.70763672 17.68847656 15.22777344 17.17382812 15.76367188 C15.79784389 17.19068599 14.39970433 18.59624443 13 20 C12.08154297 20.92232422 12.08154297 20.92232422 11.14453125 21.86328125 C10.76683594 22.23839844 10.38914062 22.61351563 10 23 C10.59748638 17.59719764 15.22132681 14.41075178 18.84765625 10.75390625 C21.21143686 8.20846186 21.21143686 8.20846186 21.37109375 5.21484375 C21.2257116 3.0321983 21.2257116 3.0321983 20 2 C18.5112814 1.91330568 17.018555 1.89296506 15.52734375 1.90234375 C14.17866211 1.90717773 14.17866211 1.90717773 12.80273438 1.91210938 C11.38444336 1.92467773 11.38444336 1.92467773 9.9375 1.9375 C8.98810547 1.94201172 8.03871094 1.94652344 7.06054688 1.95117188 C4.70696935 1.9629989 2.35351523 1.97947975 0 2 C0 1.34 0 0.68 0 0 Z " fill="#52372E" transform="translate(95,21)"/>
<path d="M0 0 C5.42638265 0.33914892 9.12028368 3.46885194 13 7 C18.33027493 13.08846059 20.22718217 17.44647936 20.16796875 25.546875 C19.97627568 28.34648535 19.32069572 30.52369553 18 33 C17.34 32.67 16.68 32.34 16 32 C16.33 31.34 16.66 30.68 17 30 C17.71289593 22.8099353 17.93561526 16.59518943 13.48828125 10.64453125 C9.5639871 6.30823771 5.3623919 3.42584395 0 1 C0 0.67 0 0.34 0 0 Z " fill="#573C33" transform="translate(94,72)"/>
<path d="M0 0 C0.99 0.33 1.98 0.66 3 1 C2.19175781 1.86882813 1.38351563 2.73765625 0.55078125 3.6328125 C-0.52872487 4.79680171 -1.6081475 5.96086835 -2.6875 7.125 C-3.21794922 7.69476563 -3.74839844 8.26453125 -4.29492188 8.8515625 C-7.65209206 12.47648245 -10.86903691 16.17778532 -14 20 C-11.525 20.99 -11.525 20.99 -9 22 C-9 22.33 -9 22.66 -9 23 C-10.98 23 -12.96 23 -15 23 C-15.66 21.35 -16.32 19.7 -17 18 C-16.071875 17.87625 -16.071875 17.87625 -15.125 17.75 C-12.86722566 17.23401023 -12.86722566 17.23401023 -12.18359375 15.3046875 C-10.57432934 12.17113634 -8.34139326 9.9414587 -5.9375 7.375 C-2.58466353 3.95790247 -2.58466353 3.95790247 0 0 Z " fill="#573A30" transform="translate(98,48)"/>
<path d="M0 0 C0.66 0.33 1.32 0.66 2 1 C-1.54882139 6.07154263 -4.97277696 10.34383779 -10 14 C-10.66 14 -11.32 14 -12 14 C-12 13.34 -12 12.68 -12 12 C-11.05125 11.38125 -10.1025 10.7625 -9.125 10.125 C-5.99764937 7.99840157 -5.43014603 7.26890522 -4 4 C-2.70529025 2.62913085 -1.37849103 1.28659163 0 0 Z " fill="#644B3E" transform="translate(109,107)"/>
<path d="M0 0 C0.33 0.66 0.66 1.32 1 2 C0.34 2 -0.32 2 -1 2 C-1 4.64 -1 7.28 -1 10 C-2.32 9.34 -3.64 8.68 -5 8 C-4.75 5.125 -4.75 5.125 -4 2 C-1.9375 0.625 -1.9375 0.625 0 0 Z " fill="#533D35" transform="translate(47,23)"/>
<path d="M0 0 C7.26 0 14.52 0 22 0 C22.33 0.99 22.66 1.98 23 3 C22.01 2.67 21.02 2.34 20 2 C18.44578271 1.91893314 16.88832973 1.89243102 15.33203125 1.90234375 C14.43935547 1.90556641 13.54667969 1.90878906 12.62695312 1.91210938 C11.69818359 1.92048828 10.76941406 1.92886719 9.8125 1.9375 C8.40194336 1.94426758 8.40194336 1.94426758 6.96289062 1.95117188 C4.64186288 1.96295374 2.32096356 1.97940442 0 2 C0 1.34 0 0.68 0 0 Z " fill="#60493A" transform="translate(95,21)"/>
</svg>
