<?xml version="1.0" encoding="UTF-8"?>
<svg version="1.1" xmlns="http://www.w3.org/2000/svg" width="162" height="181">
<path d="M0 0 C1.31145996 -0.0127597 2.62291992 -0.02551941 3.97412109 -0.03866577 C5.40722507 -0.04172274 6.84033101 -0.04395087 8.2734375 -0.04541016 C9.74170055 -0.05183629 11.20996231 -0.05856451 12.67822266 -0.06558228 C15.75491303 -0.07755623 18.83149109 -0.08126286 21.90820312 -0.08007812 C25.85292678 -0.07987464 29.79693234 -0.10720549 33.7414856 -0.14162254 C36.77322711 -0.16384334 39.80479427 -0.16791721 42.83660889 -0.16685867 C44.2911019 -0.16922082 45.74559928 -0.17807886 47.20001221 -0.19352341 C49.23220573 -0.21308705 51.26460968 -0.20484772 53.296875 -0.1953125 C55.03203369 -0.19958755 55.03203369 -0.19958755 56.80224609 -0.20394897 C59.6484375 0.29052734 59.6484375 0.29052734 61.55078125 2.17538452 C62.6484375 4.29052734 62.6484375 4.29052734 62.5625 6.61865234 C61.41142807 9.98332413 59.7662498 12.95824923 58.0234375 16.04052734 C53.46132761 24.39421568 49.49495253 32.99413677 45.5859375 41.66552734 C45.11522827 42.70889755 45.11522827 42.70889755 44.63500977 43.77334595 C43.32830808 46.67131457 42.022971 49.56989166 40.71963501 52.46937561 C37.19714495 60.30437572 33.63840757 68.12269539 30.06936646 75.93658447 C29.04957051 78.1707746 28.03235689 80.40612675 27.01538086 82.64160156 C17.56540939 103.37355545 17.56540939 103.37355545 15.6484375 105.29052734 C12.7734375 105.66552734 12.7734375 105.66552734 9.6484375 105.29052734 C7.75390625 103.29052734 7.75390625 103.29052734 6.6484375 100.29052734 C7.50965596 97.22626691 8.48093325 94.763871 9.8359375 91.91552734 C10.23522461 91.03123047 10.63451172 90.14693359 11.04589844 89.23583984 C12.26544248 86.5512534 13.50666655 83.87769642 14.7555542 81.20666504 C16.45412833 77.56150567 18.12888784 73.90534616 19.80859375 70.25146484 C22.11559565 65.23823087 24.42643575 60.22683326 26.74829102 55.22045898 C31.6599888 44.62875137 36.51130741 34.0128462 41.2734375 23.35302734 C41.69320862 22.41342163 41.69320862 22.41342163 42.12145996 21.45483398 C43.63359975 18.0681277 45.14192845 14.67974109 46.6484375 11.29052734 C46.02060867 11.29718918 45.39277985 11.30385101 44.7459259 11.31071472 C38.20851769 11.37711117 31.67120536 11.42234597 25.13354492 11.45532227 C22.69405222 11.47040389 20.2545866 11.49087204 17.81518555 11.5168457 C14.30771191 11.55325546 10.80059696 11.57026023 7.29296875 11.58349609 C6.20321243 11.59897995 5.11345612 11.61446381 3.99067688 11.63041687 C-5.74909111 11.63257912 -5.74909111 11.63257912 -9.3515625 8.29052734 C-9.8515625 5.22802734 -9.8515625 5.22802734 -9.3515625 2.29052734 C-5.79131638 -0.08297007 -4.22626265 0.02785277 0 0 Z " fill="#725548" transform="translate(57.3515625,26.70947265625)"/>
<path d="M0 0 C2 1 2 1 3.25 3.5625 C4.77010691 10.52965669 1.23039982 17.28973338 -1.625 23.5625 C-1.97111328 24.33319824 -2.31722656 25.10389648 -2.67382812 25.89794922 C-6.11316278 33.44744372 -9.97803637 40.74762941 -14 48 C-15.65 47.67 -17.3 47.34 -19 47 C-20.16161779 44.13421241 -19.9946154 42.98369837 -19.00390625 39.984375 C-18.52824219 38.91703125 -18.05257812 37.8496875 -17.5625 36.75 C-17.08941406 35.67234375 -16.61632812 34.5946875 -16.12890625 33.484375 C-15.75636719 32.66453125 -15.38382812 31.8446875 -15 31 C-14.34 31 -13.68 31 -13 31 C-12.67 29.35 -12.34 27.7 -12 26 C-12.66 25.67 -13.32 25.34 -14 25 C-13.01 24.67 -12.02 24.34 -11 24 C-10.23219176 22.09717088 -9.47691889 20.18744269 -8.8125 18.24609375 C-7.51993551 14.67289865 -5.74322667 11.36980621 -4 8 C-3.24794732 6.5010281 -2.49788509 5.00105559 -1.75 3.5 C-1.1725 2.345 -0.595 1.19 0 0 Z " fill="#73564B" transform="translate(86,83)"/>
<path d="M0 0 C0.66 0.33 1.32 0.66 2 1 C1.51233154 2.05574219 1.02466309 3.11148438 0.5222168 4.19921875 C-1.34079062 8.23267263 -3.20341318 12.26630413 -5.06585693 16.30001831 C-5.89527255 18.09636808 -6.72474011 19.89269386 -7.55426025 21.68899536 C-12.944124 33.36147611 -18.32707419 45.03687018 -23.6496582 56.74023438 C-30.28843699 71.28843699 -30.28843699 71.28843699 -32 73 C-34.875 73.375 -34.875 73.375 -38 73 C-39.890625 71.0234375 -39.890625 71.0234375 -41 68 C-40.41578481 64.88137814 -39.17704666 62.13102116 -37.875 59.25 C-37.55273438 58.47011719 -37.23046875 57.69023438 -36.8984375 56.88671875 C-35.08041659 52.67154931 -35.08041659 52.67154931 -34 51 C-32.515 50.505 -32.515 50.505 -31 50 C-31.495 52.475 -31.495 52.475 -32 55 C-32.66 55 -33.32 55 -34 55 C-34.103125 55.680625 -34.20625 56.36125 -34.3125 57.0625 C-35 60 -35 60 -36.625 63.5625 C-38.23057912 66.76824019 -38.23057912 66.76824019 -37.6875 69.4375 C-37.460625 69.953125 -37.23375 70.46875 -37 71 C-35.68 71 -34.36 71 -33 71 C-31.26898863 67.39671657 -29.54054175 63.79220841 -27.8125 60.1875 C-27.32974609 59.18267578 -26.84699219 58.17785156 -26.34960938 57.14257812 C-23.93489117 52.1024616 -21.54012739 47.05352738 -19.1953125 41.98046875 C-18.7945752 41.11446045 -18.39383789 40.24845215 -17.98095703 39.35620117 C-16.16544998 34.99545987 -15.49590484 31.57949817 -16.9375 27.0625 C-17.288125 26.381875 -17.63875 25.70125 -18 25 C-20.31887462 27.85247929 -21.72744634 30.49630281 -23 33.9375 C-24.3871132 37.54822979 -25.93759339 40.71889857 -28 44 C-28.69822617 45.65369357 -29.37498605 47.31727014 -30 49 C-30.66 49 -31.32 49 -32 49 C-29.69182884 41.50829089 -26.62777717 34.53433204 -23.3125 27.4375 C-22.80138672 26.33341797 -22.29027344 25.22933594 -21.76367188 24.09179688 C-20.5133598 21.39252502 -19.25872684 18.69535545 -18 16 C-15.69 16.33 -13.38 16.66 -11 17 C-10.67 16.34 -10.34 15.68 -10 15 C-10.33 16.98 -10.66 18.96 -11 21 C-10.34 21 -9.68 21 -9 21 C-8.74476562 20.17242187 -8.48953125 19.34484375 -8.2265625 18.4921875 C-6.84742497 14.56559849 -5.16394698 10.87742537 -3.375 7.125 C-3.05015625 6.43664062 -2.7253125 5.74828125 -2.390625 5.0390625 C-1.59676528 3.35794781 -0.79880442 1.67877079 0 0 Z " fill="#6B4E41" transform="translate(105,59)"/>
<path d="M0 0 C0.88068649 0.00015106 1.76137299 0.00030212 2.66874695 0.00045776 C3.61570938 0.01078033 4.56267181 0.02110291 5.53833008 0.03173828 C6.51071121 0.03456818 7.48309235 0.03739807 8.48493958 0.04031372 C11.59270499 0.05151479 14.70018292 0.07661931 17.80786133 0.10205078 C19.91397696 0.11208067 22.02009711 0.12120651 24.1262207 0.12939453 C29.29104513 0.1514539 34.45565447 0.18598332 39.62036133 0.22705078 C39.62036133 0.88705078 39.62036133 1.54705078 39.62036133 2.22705078 C24.77036133 2.22705078 9.92036133 2.22705078 -5.37963867 2.22705078 C-5.04963867 4.20705078 -4.71963867 6.18705078 -4.37963867 8.22705078 C13.44036133 8.55705078 31.26036133 8.88705078 49.62036133 9.22705078 C50.86789557 14.21718773 49.38563172 16.79018712 47.30786133 21.22705078 C46.98624023 21.93861328 46.66461914 22.65017578 46.33325195 23.38330078 C45.07350434 26.15629759 43.81436725 28.88006738 42.32739258 31.53955078 C41.32026281 33.42386454 41.32026281 33.42386454 42.62036133 36.22705078 C42.96856173 37.89067495 43.30440625 39.5570025 43.62036133 41.22705078 C37.87036133 44.22705078 37.87036133 44.22705078 35.62036133 44.22705078 C35.62036133 44.88705078 35.62036133 45.54705078 35.62036133 46.22705078 C34.96036133 46.22705078 34.30036133 46.22705078 33.62036133 46.22705078 C35.02735879 41.76859046 36.73665529 37.55761514 38.65942383 33.29736328 C38.94514252 32.66216766 39.23086121 32.02697205 39.52523804 31.37252808 C40.42923239 29.36446616 41.33722469 27.35824224 42.24536133 25.35205078 C42.86281503 23.98237909 43.48000514 22.61258854 44.09692383 21.24267578 C45.6016917 17.90275466 47.11004805 14.56446857 48.62036133 11.22705078 C47.9925325 11.23371262 47.36470367 11.24037445 46.71784973 11.24723816 C40.18044152 11.31363461 33.64312919 11.35886941 27.10546875 11.3918457 C24.66597604 11.40692732 22.22651043 11.42739547 19.78710938 11.45336914 C16.27963574 11.4897789 12.77252079 11.50678367 9.26489258 11.52001953 C8.17513626 11.53550339 7.08537994 11.55098724 5.96260071 11.56694031 C-3.77716728 11.56910255 -3.77716728 11.56910255 -7.37963867 8.22705078 C-7.87963867 5.16455078 -7.87963867 5.16455078 -7.37963867 2.22705078 C-4.24433638 0.13684925 -3.56132097 -0.02040872 0 0 Z " fill="#5B4235" transform="translate(55.379638671875,26.77294921875)"/>
<path d="M0 0 C1.3485734 4.04572019 0.20078445 5.32579921 -1.60546875 9.13671875 C-1.88594559 9.73498978 -2.16642242 10.3332608 -2.45539856 10.94966125 C-3.35696911 12.86673992 -4.27208665 14.77699889 -5.1875 16.6875 C-5.7853838 17.95466395 -6.38239872 19.22223825 -6.97851562 20.49023438 C-15.44018923 38.44018923 -15.44018923 38.44018923 -17 40 C-19.875 40.375 -19.875 40.375 -23 40 C-24.890625 38.0234375 -24.890625 38.0234375 -26 35 C-25.41578481 31.88137814 -24.17704666 29.13102116 -22.875 26.25 C-22.39160156 25.08017578 -22.39160156 25.08017578 -21.8984375 23.88671875 C-20.08041659 19.67154931 -20.08041659 19.67154931 -19 18 C-18.01 17.67 -17.02 17.34 -16 17 C-16.33 18.65 -16.66 20.3 -17 22 C-17.66 22 -18.32 22 -19 22 C-19.103125 22.680625 -19.20625 23.36125 -19.3125 24.0625 C-20 27 -20 27 -21.625 30.5625 C-23.23057912 33.76824019 -23.23057912 33.76824019 -22.6875 36.4375 C-22.460625 36.953125 -22.23375 37.46875 -22 38 C-20.68 38 -19.36 38 -18 38 C-11.93723831 25.36224655 -5.88793177 12.72034407 0 0 Z " fill="#5D4338" transform="translate(90,92)"/>
<path d="M0 0 C0.66 0 1.32 0 2 0 C-1.00886505 9.69523182 -4.66858137 19.33456746 -10 28 C-10.69822617 29.65369357 -11.37498605 31.31727014 -12 33 C-12.66 33 -13.32 33 -14 33 C-11.69182884 25.50829089 -8.62777717 18.53433204 -5.3125 11.4375 C-4.80138672 10.33341797 -4.29027344 9.22933594 -3.76367188 8.09179688 C-2.5133598 5.39252502 -1.25872684 2.69535545 0 0 Z " fill="#563B31" transform="translate(87,75)"/>
<path d="M0 0 C0.66 0 1.32 0 2 0 C1.67 1.65 1.34 3.3 1 5 C0.34 5 -0.32 5 -1 5 C-1.103125 5.680625 -1.20625 6.36125 -1.3125 7.0625 C-2 10 -2 10 -3.625 13.5625 C-5.23057912 16.76824019 -5.23057912 16.76824019 -4.6875 19.4375 C-4.460625 19.953125 -4.23375 20.46875 -4 21 C-2.68 21 -1.36 21 0 21 C0.66 20.01 1.32 19.02 2 18 C2.66 18.33 3.32 18.66 4 19 C2.875 21 2.875 21 1 23 C-2 23.5625 -2 23.5625 -5 23 C-6.890625 21.01171875 -6.890625 21.01171875 -8 18 C-7.36605054 14.882699 -6.08376493 12.12608218 -4.75 9.25 C-4.41097656 8.47011719 -4.07195312 7.69023438 -3.72265625 6.88671875 C-1.23660714 1.23660714 -1.23660714 1.23660714 0 0 Z " fill="#50362F" transform="translate(72,109)"/>
<path d="M0 0 C0.33 0 0.66 0 1 0 C1.12375 0.763125 1.2475 1.52625 1.375 2.3125 C1.88102792 5.20267136 1.88102792 5.20267136 4 8 C2.60878255 10.7824349 0.69835788 11.55210065 -2 13 C-2.66 13 -3.32 13 -4 13 C-4 13.66 -4 14.32 -4 15 C-4.66 15 -5.32 15 -6 15 C-4.40109514 9.80355921 -2.25861997 4.93387858 0 0 Z " fill="#664A3A" transform="translate(95,58)"/>
<path d="M0 0 C3.3 0 6.6 0 10 0 C9.67 0.66 9.34 1.32 9 2 C8.2575 1.979375 7.515 1.95875 6.75 1.9375 C4.29537721 1.99328688 2.33890739 2.3069904 0 3 C0 2.01 0 1.02 0 0 Z " fill="#725C54" transform="translate(106,28)"/>
<path d="M0 0 C0.99 0.33 1.98 0.66 3 1 C3 1.66 3 2.32 3 3 C3.99 3 4.98 3 6 3 C6 2.34 6 1.68 6 1 C6.66 1.33 7.32 1.66 8 2 C7.01 3.485 7.01 3.485 6 5 C4.35 4.67 2.7 4.34 1 4 C0.67 2.68 0.34 1.36 0 0 Z " fill="#625047" transform="translate(66,126)"/>
</svg>
