<?xml version="1.0" encoding="UTF-8"?>
<svg version="1.1" xmlns="http://www.w3.org/2000/svg" width="193" height="214">
<path d="M0 0 C0.90105469 0.01804687 1.80210937 0.03609375 2.73046875 0.0546875 C3.41753906 0.07789063 4.10460937 0.10109375 4.8125 0.125 C8.4706043 6.73898321 9.79654644 12.57301568 8.8125 20.125 C7.7890625 22.953125 7.7890625 22.953125 6.8125 25.125 C7.410625 25.36347656 8.00875 25.60195313 8.625 25.84765625 C15.57763195 29.90749669 18.63945621 40.80946514 20.8125 48.125 C24.47342916 64.59918124 20.70780312 83.72865151 17.2355957 99.96826172 C16.84065941 101.98145689 16.60155774 104.02348037 16.375 106.0625 C15.75718409 109.42616442 15.26466201 109.95577976 12.8125 112.125 C10.92350929 115.37406403 9.81129872 118.13045198 9 121.8125 C6.52510402 132.37608039 -1.09773603 143.01512294 -9.1875 150.125 C-9.8475 150.125 -10.5075 150.125 -11.1875 150.125 C-11.5175 151.115 -11.8475 152.105 -12.1875 153.125 C-13.82421875 154.7734375 -13.82421875 154.7734375 -15.875 156.5 C-16.59816406 157.10972656 -17.32132812 157.71945313 -18.06640625 158.34765625 C-18.76636719 158.93417969 -19.46632813 159.52070313 -20.1875 160.125 C-21.00541016 160.86556641 -21.00541016 160.86556641 -21.83984375 161.62109375 C-25.12952153 164.5617341 -28.02835482 165.80163562 -32.1875 167.125 C-32.8475 168.115 -33.5075 169.105 -34.1875 170.125 C-36.46484375 171.00390625 -36.46484375 171.00390625 -39.125 171.6875 C-42.40599333 172.54278103 -44.31511603 173.21007736 -47.1875 175.125 C-49.1904441 175.35113885 -51.19366176 175.57568811 -53.19921875 175.77734375 C-55.94786561 176.25795194 -57.86737543 177.62005433 -60.1875 179.125 C-72.13938531 182.11802712 -87.74472793 180.49106039 -98.43359375 174.2578125 C-99.01238281 173.88398438 -99.59117188 173.51015625 -100.1875 173.125 C-100.83847656 172.75117188 -101.48945312 172.37734375 -102.16015625 171.9921875 C-109.54552969 167.23936528 -114.47139739 159.60594445 -117.07421875 151.29296875 C-117.7209372 145.55649213 -115.66488741 141.01330481 -112.3125 136.4375 C-105.57301519 128.29663025 -95.48087454 126.49902234 -85.66015625 124.00390625 C-76.64455818 121.60752663 -68.23141835 117.8743102 -61.5625 111.25 C-57.35581683 107.125 -57.35581683 107.125 -55.1875 107.125 C-54.94 106.5475 -54.6925 105.97 -54.4375 105.375 C-53.00450012 102.79560021 -51.40325324 101.06378408 -49.1875 99.125 C-48.5275 99.125 -47.8675 99.125 -47.1875 99.125 C-47.084375 98.609375 -46.98125 98.09375 -46.875 97.5625 C-45.37234478 92.23490421 -42.82215258 87.32644542 -40.28295898 82.43115234 C-37.49359757 77.04757274 -34.91925133 71.8118141 -33.125 66 C-29.41397947 54.02426127 -22.32836005 39.0253111 -13.1875 30.125 C-12.48039322 28.47508418 -11.80806011 26.80937744 -11.1875 25.125 C-10.6925 24.63 -10.6925 24.63 -10.1875 24.125 C-10.16100953 20.59798258 -10.21636245 17.08391318 -10.31445312 13.55859375 C-10.37665648 9.32144764 -10.34475 5.91264686 -8.1875 2.125 C-4.87379 -0.08414 -3.8428979 -0.09981553 0 0 Z " fill="#FCBF08" transform="translate(144.1875,15.875)"/>
<path d="M0 0 C0.99 0 1.98 0 3 0 C3.0270043 1.45823212 3.04639787 2.91660675 3.0625 4.375 C3.07410156 5.18710938 3.08570313 5.99921875 3.09765625 6.8359375 C3 9 3 9 2 11 C1.69208131 13.33077343 1.49104726 15.66241896 1.28125 18.00390625 C1 20 1 20 0 21 C-0.33094242 22.40800959 -0.61343756 23.82746741 -0.875 25.25 C-1.6951452 29.46615386 -2.53232931 33.67614536 -3.4375 37.875 C-3.77587891 39.47988281 -3.77587891 39.47988281 -4.12109375 41.1171875 C-5.00857175 44.02811533 -5.91849805 45.79605676 -8 48 C-8.66 48 -9.32 48 -10 48 C-10.33 49.32 -10.66 50.64 -11 52 C-11.66 52 -12.32 52 -13 52 C-13.43119141 52.86431641 -13.43119141 52.86431641 -13.87109375 53.74609375 C-14.58823673 55.17789825 -15.30916007 56.60782036 -16.03515625 58.03515625 C-16.54369141 59.03869141 -16.54369141 59.03869141 -17.0625 60.0625 C-17.57490234 61.06990234 -17.57490234 61.06990234 -18.09765625 62.09765625 C-19.11490381 64.14328314 -19.11490381 64.14328314 -20 67 C-20.99 67 -21.98 67 -23 67 C-23 67.66 -23 68.32 -23 69 C-23.99 69 -24.98 69 -26 69 C-26.226875 69.680625 -26.45375 70.36125 -26.6875 71.0625 C-28.31226146 74.6988709 -30.32803257 78.02829263 -33 81 C-33.66 81 -34.32 81 -35 81 C-35 81.99 -35 82.98 -35 84 C-35.66 84 -36.32 84 -37 84 C-37 84.99 -37 85.98 -37 87 C-38.485 87.495 -38.485 87.495 -40 88 C-40.33 88.66 -40.66 89.32 -41 90 C-41.99 90 -42.98 90 -44 90 C-44 90.66 -44 91.32 -44 92 C-44.99 92 -45.98 92 -47 92 C-47 92.66 -47 93.32 -47 94 C-49.90548882 96.04169485 -51.40142046 97 -55 97 C-55 97.66 -55 98.32 -55 99 C-55.886875 99.268125 -56.77375 99.53625 -57.6875 99.8125 C-60.95450027 100.86223164 -60.95450027 100.86223164 -63.5 102.5 C-68.47383385 105.48430031 -72.96196426 106.24805537 -78.7109375 106.1953125 C-79.95488281 106.18886719 -81.19882813 106.18242187 -82.48046875 106.17578125 C-83.76566406 106.15902344 -85.05085938 106.14226562 -86.375 106.125 C-87.68339844 106.11597656 -88.99179688 106.10695313 -90.33984375 106.09765625 C-93.5600837 106.07415085 -96.77994707 106.04129087 -100 106 C-100 105.34 -100 104.68 -100 104 C-100.763125 104.020625 -101.52625 104.04125 -102.3125 104.0625 C-105 104 -105 104 -108 103 C-108.08114106 101.22992286 -108.13925505 99.45877902 -108.1875 97.6875 C-108.22230469 96.70136719 -108.25710937 95.71523437 -108.29296875 94.69921875 C-108 92 -108 92 -106.6484375 90.1640625 C-104.33464771 88.53015407 -102.76572542 88.64541982 -100 89 C-97.50494038 91.49505962 -97.64051624 92.67328888 -97.375 96.125 C-97.30023438 97.03507812 -97.22546875 97.94515625 -97.1484375 98.8828125 C-97.07496094 99.93082031 -97.07496094 99.93082031 -97 101 C-92.93756043 101.05819473 -88.87522854 101.09366215 -84.8125 101.125 C-83.08676758 101.15013672 -83.08676758 101.15013672 -81.32617188 101.17578125 C-80.21435547 101.18222656 -79.10253906 101.18867188 -77.95703125 101.1953125 C-76.93585205 101.20578613 -75.91467285 101.21625977 -74.86254883 101.22705078 C-68.89173806 100.75345982 -64.82537599 97.62287912 -60.0859375 94.2421875 C-58 93 -58 93 -55 93 C-55 92.34 -55 91.68 -55 91 C-54.030625 90.7525 -53.06125 90.505 -52.0625 90.25 C-51.051875 89.8375 -50.04125 89.425 -49 89 C-48.03122943 86.96756452 -48.03122943 86.96756452 -48 85 C-47.34 85 -46.68 85 -46 85 C-46 84.34 -46 83.68 -46 83 C-45.01 83 -44.02 83 -43 83 C-43 82.34 -43 81.68 -43 81 C-41.34151823 79.98648336 -39.67334039 78.98879205 -38 78 C-36.64691687 76.68671343 -35.31129922 75.35500919 -34 74 C-33.01 73.34 -32.02 72.68 -31 72 C-29.78715124 68.94570927 -29.78715124 68.94570927 -29 66 C-28.01 66 -27.02 66 -26 66 C-25.34 63.69 -24.68 61.38 -24 59 C-23.01 59 -22.02 59 -21 59 C-20.7215625 58.43539062 -20.443125 57.87078125 -20.15625 57.2890625 C-18.97933367 54.95908625 -17.75531643 52.66365618 -16.5 50.375 C-16.0771875 49.59898438 -15.654375 48.82296875 -15.21875 48.0234375 C-14 46 -14 46 -12 44 C-11.35232207 41.42938689 -11.35232207 41.42938689 -11 39 C-10.34 39 -9.68 39 -9 39 C-9.04898438 38.27167969 -9.09796875 37.54335937 -9.1484375 36.79296875 C-8.98014227 33.62636115 -8.18779598 32.04513459 -6.625 29.3125 C-4.29208651 24.91686922 -3.13445898 20.92978076 -2.359375 16.03125 C-2 14 -2 14 -1 12 C-0.77141886 9.9625237 -0.58975722 7.91959697 -0.4375 5.875 C-0.31181641 4.23144531 -0.31181641 4.23144531 -0.18359375 2.5546875 C-0.12300781 1.71164063 -0.06242187 0.86859375 0 0 Z " fill="#C18F23" transform="translate(136,67)"/>
<path d="M0 0 C8.25337068 6.72496871 10.57202371 17.98202678 12 28 C13.41721001 42.61861836 10.47941337 58.5487794 7.4230957 72.84326172 C7.02815941 74.85645689 6.78905774 76.89848037 6.5625 78.9375 C5.94468409 82.30116442 5.45216201 82.83077976 3 85 C1.11100929 88.24906403 -0.00120128 91.00545198 -0.8125 94.6875 C-3.28739598 105.25108039 -10.91023603 115.89012294 -19 123 C-19.66 123 -20.32 123 -21 123 C-21.33 123.99 -21.66 124.98 -22 126 C-24.50108488 128.5189924 -27.28271516 130.71808124 -30 133 C-30.81791016 133.75796875 -30.81791016 133.75796875 -31.65234375 134.53125 C-34.99101963 137.57768104 -37.49399635 138.6781426 -42 139 C-42.23828125 136.70703125 -42.23828125 136.70703125 -42 134 C-40.35546875 132.19921875 -40.35546875 132.19921875 -38.1875 130.6875 C-37.47980469 130.17574219 -36.77210937 129.66398438 -36.04296875 129.13671875 C-34 128 -34 128 -31 128 C-31 127.34 -31 126.68 -31 126 C-25.64285714 121 -25.64285714 121 -22 121 C-21.7525 120.4225 -21.505 119.845 -21.25 119.25 C-20 117 -20 117 -18.07421875 115.1875 C-15.81046649 112.80011532 -14.81247419 110.77761914 -13.5625 107.75 C-8.03189212 95.01594606 -8.03189212 95.01594606 -4 93 C-4 91.02 -4 89.04 -4 87 C-2.02 86.505 -2.02 86.505 0 86 C0 85.34 0 84.68 0 84 C-0.66 84 -1.32 84 -2 84 C-2 82.02 -2 80.04 -2 78 C-1.34 78 -0.68 78 0 78 C0.33 74.37 0.66 70.74 1 67 C1.66 67 2.32 67 3 67 C3.185625 65.4840625 3.185625 65.4840625 3.375 63.9375 C4 60 4 60 5.02246094 56.7434082 C6.04989072 52.80894746 6.28964799 49.1996182 6.265625 45.16796875 C6.26753845 44.45014725 6.2694519 43.73232574 6.27142334 42.99275208 C6.27277465 41.48938645 6.2691525 39.98600873 6.26074219 38.48266602 C6.24994773 36.17633254 6.26071303 33.87076397 6.2734375 31.56445312 C6.27211726 30.09895661 6.26955768 28.63346058 6.265625 27.16796875 C6.26967346 26.47841599 6.27372192 25.78886322 6.27789307 25.07841492 C6.34064471 21.09422938 6.34064471 21.09422938 4 18 C4 16.68 4 15.36 4 14 C3.01 13.67 2.02 13.34 1 13 C1 11.35 1 9.7 1 8 C0.34 8 -0.32 8 -1 8 C-1.66 5.69 -2.32 3.38 -3 1 C-2.01 0.67 -1.02 0.34 0 0 Z " fill="#866148" transform="translate(154,43)"/>
<path d="M0 0 C0.99 0 1.98 0 3 0 C3.20086443 3.71599191 3.1519437 4.77208445 1 8 C0.34 8 -0.32 8 -1 8 C-1 8.99 -1 9.98 -1 11 C-2.63070717 12.21503671 -4.26803412 13.42658395 -5.98046875 14.5234375 C-8.16773097 16.0193385 -8.16773097 16.0193385 -10.2421875 18.46484375 C-13.59861799 21.55028765 -16.67900476 22.74427738 -20.9375 24.1875 C-21.62779297 24.43435547 -22.31808594 24.68121094 -23.02929688 24.93554688 C-26.15022844 26.04488274 -29.2727238 27.08327208 -32.44140625 28.05078125 C-35.14600015 28.72281283 -35.14600015 28.72281283 -36 31 C-37.93363189 31.26670785 -39.86957334 31.52358386 -41.8125 31.7109375 C-44.27591358 31.97387059 -44.27591358 31.97387059 -47.625 33.125 C-51.21334893 34.05531269 -53.43431749 33.86967866 -57 33 C-54.15189063 28.89465137 -52.15371841 27.28570887 -47.34375 25.97265625 C-46.23773438 25.65490234 -45.13171875 25.33714844 -43.9921875 25.00976562 C-42.83976562 24.69716797 -41.68734375 24.38457031 -40.5 24.0625 C-29.19607497 20.95067236 -17.88234956 17.57544422 -9.375 9.125 C-5.16831683 5 -5.16831683 5 -3 5 C-2.690625 4.360625 -2.38125 3.72125 -2.0625 3.0625 C-1 1 -1 1 0 0 Z " fill="#896E5C" transform="translate(92,118)"/>
<path d="M0 0 C0.66 0 1.32 0 2 0 C1.34 5.28 0.68 10.56 0 16 C0.66 16 1.32 16 2 16 C1.35271229 18.34019402 0.68460153 20.67063253 0 23 C-0.19464844 23.68707031 -0.38929688 24.37414062 -0.58984375 25.08203125 C-4.10946144 36.64053905 -10.86189335 47.9687626 -20 56 C-20.66 56 -21.32 56 -22 56 C-22.33 56.99 -22.66 57.98 -23 59 C-25.50108488 61.5189924 -28.28271516 63.71808124 -31 66 C-31.81791016 66.75796875 -31.81791016 66.75796875 -32.65234375 67.53125 C-35.99101963 70.57768104 -38.49399635 71.6781426 -43 72 C-43.23828125 69.70703125 -43.23828125 69.70703125 -43 67 C-41.35546875 65.19921875 -41.35546875 65.19921875 -39.1875 63.6875 C-38.47980469 63.17574219 -37.77210937 62.66398437 -37.04296875 62.13671875 C-35 61 -35 61 -32 61 C-32 60.34 -32 59.68 -32 59 C-26.64285714 54 -26.64285714 54 -23 54 C-22.7525 53.4225 -22.505 52.845 -22.25 52.25 C-21 50 -21 50 -19.07421875 48.1875 C-16.81046649 45.80011532 -15.81247419 43.77761914 -14.5625 40.75 C-9.03189212 28.01594606 -9.03189212 28.01594606 -5 26 C-5 24.02 -5 22.04 -5 20 C-3.68 19.67 -2.36 19.34 -1 19 C-1 18.34 -1 17.68 -1 17 C-1.66 17 -2.32 17 -3 17 C-3 15.02 -3 13.04 -3 11 C-2.34 11 -1.68 11 -1 11 C-0.67 7.37 -0.34 3.74 0 0 Z " fill="#86624C" transform="translate(155,110)"/>
<path d="M0 0 C5.73662874 -0.4589303 8.50376662 0.42345072 13 4 C14 5 15 6 16 7 C19.08362006 8.83923237 21.62572621 9.31522767 25.1875 9.5625 C29.90063091 9.90063091 29.90063091 9.90063091 31 11 C32.45244068 11.1204463 33.91010076 11.17948128 35.3671875 11.2109375 C36.69556641 11.25347656 36.69556641 11.25347656 38.05078125 11.296875 C39.92558664 11.34873684 41.80061611 11.3930734 43.67578125 11.4296875 C44.56394531 11.460625 45.45210937 11.4915625 46.3671875 11.5234375 C47.18300293 11.54325684 47.99881836 11.56307617 48.83935547 11.58349609 C51.43874741 12.08457662 52.34318931 12.98763332 54 15 C41.63535723 20.24560602 28.01136265 18.59259425 15.55078125 14.12109375 C13.58586711 13.19847199 11.8153149 12.18893151 10 11 C9.27941406 10.53335938 8.55882812 10.06671875 7.81640625 9.5859375 C3.90269038 6.86517245 1.1432086 4.85863655 0 0 Z " fill="#AD813B" transform="translate(34,178)"/>
<path d="M0 0 C0.90105469 0.01804687 1.80210937 0.03609375 2.73046875 0.0546875 C3.41753906 0.07789063 4.10460937 0.10109375 4.8125 0.125 C8.43154711 6.66836642 9.91438843 12.62959616 8.8125 20.125 C8.1525 20.785 7.4925 21.445 6.8125 22.125 C5.8225 22.125 4.8325 22.125 3.8125 22.125 C3.8125 17.835 3.8125 13.545 3.8125 9.125 C1.1725 9.455 -1.4675 9.785 -4.1875 10.125 C-4.1875 15.075 -4.1875 20.025 -4.1875 25.125 C-6.1675 26.115 -6.1675 26.115 -8.1875 27.125 C-8.5175 27.785 -8.8475 28.445 -9.1875 29.125 C-10.1775 29.125 -11.1675 29.125 -12.1875 29.125 C-11.3125 25.25 -11.3125 25.25 -10.1875 24.125 C-10.16100953 20.59798258 -10.21636245 17.08391318 -10.31445312 13.55859375 C-10.37665648 9.32144764 -10.34475 5.91264686 -8.1875 2.125 C-4.87379 -0.08414 -3.8428979 -0.09981553 0 0 Z " fill="#835C47" transform="translate(144.1875,15.875)"/>
<path d="M0 0 C1.32 0 2.64 0 4 0 C4 1.32 4 2.64 4 4 C3.34 4 2.68 4 2 4 C1.80857422 4.85078125 1.80857422 4.85078125 1.61328125 5.71875 C-0.01714627 11.78352498 -2.40252589 16.69913713 -7 21 C-9.88186392 25.61098226 -10.93000924 30.46154084 -12.19140625 35.68359375 C-13.0434327 39.178137 -13.91880284 42.65734525 -14.875 46.125 C-15.16117188 47.20007813 -15.44734375 48.27515625 -15.7421875 49.3828125 C-17 52 -17 52 -19.5078125 53.4296875 C-22 54 -22 54 -24 53 C-23.63896032 49.38960321 -22.87973132 46.5471042 -21.1875 43.375 C-19.45613678 40.11014365 -18.2768086 36.90586237 -17.1875 33.375 C-14.00794174 23.53940149 -9.03151954 14.51034395 -3.8125 5.625 C-3.17957031 4.54476562 -2.54664062 3.46453125 -1.89453125 2.3515625 C-0.95673828 1.18753906 -0.95673828 1.18753906 0 0 Z " fill="#8D664B" transform="translate(128,49)"/>
<path d="M0 0 C2 2 2 2 3 12 C17.85 12.495 17.85 12.495 33 13 C31.68 13.33 30.36 13.66 29 14 C28.67 14.99 28.34 15.98 28 17 C18.76 17 9.52 17 0 17 C0 16.34 0 15.68 0 15 C-0.763125 15.020625 -1.52625 15.04125 -2.3125 15.0625 C-5 15 -5 15 -8 14 C-8.08114106 12.22992286 -8.13925505 10.45877902 -8.1875 8.6875 C-8.22230469 7.70136719 -8.25710937 6.71523437 -8.29296875 5.69921875 C-8 3 -8 3 -6.6484375 1.1640625 C-4.33464771 -0.46984593 -2.76572542 -0.35458018 0 0 Z " fill="#AD7F2E" transform="translate(36,156)"/>
<path d="M0 0 C0.99 0 1.98 0 3 0 C3.0270043 1.45823212 3.04639787 2.91660675 3.0625 4.375 C3.07410156 5.18710938 3.08570313 5.99921875 3.09765625 6.8359375 C3 9 3 9 2 11 C1.69208131 13.33077343 1.49104726 15.66241896 1.28125 18.00390625 C1 20 1 20 0 21 C-0.33094242 22.40800959 -0.61343756 23.82746741 -0.875 25.25 C-1.6951452 29.46615386 -2.53232931 33.67614536 -3.4375 37.875 C-3.77587891 39.47988281 -3.77587891 39.47988281 -4.12109375 41.1171875 C-5.00857175 44.02811533 -5.91849805 45.79605676 -8 48 C-8.66 48 -9.32 48 -10 48 C-10.33 49.32 -10.66 50.64 -11 52 C-11.66 52 -12.32 52 -13 52 C-13.226875 52.515625 -13.45375 53.03125 -13.6875 53.5625 C-15.4975553 56.92403127 -17.73996404 59.92911144 -20 63 C-20.66 62.34 -21.32 61.68 -22 61 C-20.22772632 56.09966327 -17.54679145 52.12159828 -14.65625 47.81640625 C-12.96199416 44.93537214 -11.94191921 42.19781571 -11 39 C-10.34 39 -9.68 39 -9 39 C-9.04898438 38.27167969 -9.09796875 37.54335937 -9.1484375 36.79296875 C-8.98014227 33.62636115 -8.18779598 32.04513459 -6.625 29.3125 C-4.29208651 24.91686922 -3.13445898 20.92978076 -2.359375 16.03125 C-2 14 -2 14 -1 12 C-0.77141886 9.9625237 -0.58975722 7.91959697 -0.4375 5.875 C-0.35371094 4.77929688 -0.26992187 3.68359375 -0.18359375 2.5546875 C-0.09271484 1.29011719 -0.09271484 1.29011719 0 0 Z " fill="#A97B2F" transform="translate(136,67)"/>
<path d="M0 0 C0 4.29 0 8.58 0 13 C0.99 13 1.98 13 3 13 C3 13.99 3 14.98 3 16 C3.99 16.33 4.98 16.66 6 17 C6 17.66 6 18.32 6 19 C5.01 19 4.02 19 3 19 C3.66 19.99 4.32 20.98 5 22 C5 23.32 5 24.64 5 26 C5.66 26 6.32 26 7 26 C7.12375 26.804375 7.2475 27.60875 7.375 28.4375 C7.58125 29.283125 7.7875 30.12875 8 31 C8.66 31.33 9.32 31.66 10 32 C10.70211894 33.65204456 11.36971413 35.31923769 12 37 C12.33 37.33 12.66 37.66 13 38 C13.24565683 42.50110309 13.22866663 47.00829966 13.24023438 51.51538086 C13.24979895 53.76520814 13.280735 56.01406495 13.3125 58.26367188 C13.37456295 66.93696893 12.67378478 74.6550088 10 83 C9.67 83 9.34 83 9 83 C9.15339844 81.87722656 9.30679688 80.75445312 9.46484375 79.59765625 C10.3189365 71.91082153 10.3664576 64.16317097 10.5625 56.4375 C10.60577645 54.84048545 10.64939337 53.24348009 10.69335938 51.64648438 C10.79950069 47.76441777 10.90102619 43.88225568 11 40 C10.34 40 9.68 40 9 40 C7.82923301 36.01939223 6.74250597 32.08378283 6 28 C5.34 28 4.68 28 4 28 C3.49528803 26.23050388 2.99639315 24.45934777 2.5 22.6875 C2.2215625 21.70136719 1.943125 20.71523438 1.65625 19.69921875 C1 17 1 17 1 14 C-0.32 13.67 -1.64 13.34 -3 13 C-2.67 9.37 -2.34 5.74 -2 2 C-3.65 2 -5.3 2 -7 2 C-7 6.95 -7 11.9 -7 17 C-7.99 17 -8.98 17 -10 17 C-10.33 18.65 -10.66 20.3 -11 22 C-12.32 22 -13.64 22 -15 22 C-15 24.31 -15 26.62 -15 29 C-15.66 29 -16.32 29 -17 29 C-17 30.65 -17 32.3 -17 34 C-18.485 34.495 -18.485 34.495 -20 35 C-20 35.99 -20 36.98 -20 38 C-20.66 37.67 -21.32 37.34 -22 37 C-20.80100302 33.9168649 -19.52299523 30.93720508 -18 28 C-17.34 28 -16.68 28 -16 28 C-16 26.68 -16 25.36 -16 24 C-16.99 23.67 -17.98 23.34 -19 23 C-17.6875 21.5 -17.6875 21.5 -16 20 C-15.01 20 -14.02 20 -13 20 C-12.34 18.68 -11.68 17.36 -11 16 C-10.01 16 -9.02 16 -8 16 C-8 11.05 -8 6.1 -8 1 C-6 0 -6 0 0 0 Z " fill="#BD8B25" transform="translate(148,25)"/>
<path d="M0 0 C-0.33 0.99 -0.66 1.98 -1 3 C-2.98 3.33 -4.96 3.66 -7 4 C-7 4.66 -7 5.32 -7 6 C-9.31 6 -11.62 6 -14 6 C-14.33 6.99 -14.66 7.98 -15 9 C-18.01778311 11.05209252 -21.42299834 11.6156669 -24.9375 12.4296875 C-27.26577678 13.01053208 -27.26577678 13.01053208 -30.3125 14.5625 C-35.17171873 16.45677171 -39.82611185 16.72867494 -45 17 C-42.14526833 12.88342183 -40.12438419 11.27446385 -35.30859375 9.9375 C-34.19806641 9.61523438 -33.08753906 9.29296875 -31.94335938 8.9609375 C-30.78642578 8.64382812 -29.62949219 8.32671875 -28.4375 8 C-20.70294883 5.82920754 -13.48478668 3.54414089 -6.32446289 -0.14453125 C-3.70944219 -1.10693357 -2.56839031 -0.96587771 0 0 Z " fill="#87644F" transform="translate(80,134)"/>
<path d="M0 0 C0.99 0 1.98 0 3 0 C3.33 0.99 3.66 1.98 4 3 C4.66 2.34 5.32 1.68 6 1 C5.42415568 3.38564077 4.77772405 5.66682784 4 8 C3.01 8 2.02 8 1 8 C1 8.66 1 9.32 1 10 C0.01 10 -0.98 10 -2 10 C-2.226875 10.680625 -2.45375 11.36125 -2.6875 12.0625 C-4.31226146 15.6988709 -6.32803257 19.02829263 -9 22 C-9.66 22 -10.32 22 -11 22 C-11 22.99 -11 23.98 -11 25 C-11.66 25 -12.32 25 -13 25 C-13 25.99 -13 26.98 -13 28 C-14.32 28.33 -15.64 28.66 -17 29 C-17 28.34 -17 27.68 -17 27 C-16.34 27 -15.68 27 -15 27 C-14.67 25.68 -14.34 24.36 -14 23 C-14.66 23 -15.32 23 -16 23 C-16 23.66 -16 24.32 -16 25 C-19.96 26.98 -19.96 26.98 -24 29 C-24 28.01 -24 27.02 -24 26 C-23.34 26 -22.68 26 -22 26 C-22 25.34 -22 24.68 -22 24 C-21.01 24 -20.02 24 -19 24 C-19 23.34 -19 22.68 -19 22 C-17.34151823 20.98648336 -15.67334039 19.98879205 -14 19 C-12.64691687 17.68671343 -11.31129922 16.35500919 -10 15 C-9.01 14.34 -8.02 13.68 -7 13 C-5.78715124 9.94570927 -5.78715124 9.94570927 -5 7 C-4.01 7 -3.02 7 -2 7 C-1.34 4.69 -0.68 2.38 0 0 Z " fill="#B2832A" transform="translate(112,126)"/>
<path d="M0 0 C6.15234375 -0.09765625 6.15234375 -0.09765625 8 0 C8.33 0.33 8.66 0.66 9 1 C10.85174706 1.15786308 12.7090911 1.25107356 14.56640625 1.31640625 C16.2534668 1.37924805 16.2534668 1.37924805 17.97460938 1.44335938 C19.75061523 1.50233398 19.75061523 1.50233398 21.5625 1.5625 C22.75037109 1.60568359 23.93824219 1.64886719 25.16210938 1.69335938 C28.10794784 1.79983546 31.0538743 1.90184841 34 2 C34.495 2.99 34.495 2.99 35 4 C23.73666975 8.77838253 13.48810666 7.42198922 2 4 C2 3.34 2 2.68 2 2 C1.34 1.34 0.68 0.68 0 0 Z " fill="#835D42" transform="translate(53,189)"/>
<path d="M0 0 C2 2 2 2 2.1953125 4.8203125 C2.16050781 6.45613281 2.16050781 6.45613281 2.125 8.125 C2.10695313 9.22070312 2.08890625 10.31640625 2.0703125 11.4453125 C2.04710937 12.28835937 2.02390625 13.13140625 2 14 C-3.625 14.25 -3.625 14.25 -7 12 C-7.33 12.66 -7.66 13.32 -8 14 C-8.08114106 12.22992286 -8.13925505 10.45877902 -8.1875 8.6875 C-8.22230469 7.70136719 -8.25710937 6.71523437 -8.29296875 5.69921875 C-8 3 -8 3 -6.6484375 1.1640625 C-4.33464771 -0.46984593 -2.76572542 -0.35458018 0 0 Z " fill="#7F5A44" transform="translate(36,156)"/>
<path d="M0 0 C0.02685412 2.31243792 0.04632841 4.6249627 0.0625 6.9375 C0.07410156 8.22527344 0.08570313 9.51304688 0.09765625 10.83984375 C0 14 0 14 -1 15 C-1.36727446 16.49205247 -1.6949846 17.99398648 -2 19.5 C-2.88888889 23.88888889 -2.88888889 23.88888889 -4 25 C-4.12375 26.134375 -4.2475 27.26875 -4.375 28.4375 C-4.58125 29.613125 -4.7875 30.78875 -5 32 C-5.99 32.66 -6.98 33.32 -8 34 C-7.69240822 32.02006459 -7.3787932 30.04106401 -7.0625 28.0625 C-6.88847656 26.96035156 -6.71445313 25.85820313 -6.53515625 24.72265625 C-6 22 -6 22 -5 21 C-4.79231771 19.52603261 -4.63283983 18.0450874 -4.5 16.5625 C-4.10958904 12.21917808 -4.10958904 12.21917808 -3 10 C-2.77532169 8.46331135 -2.59203195 6.92031946 -2.4375 5.375 C-2.35371094 4.55773437 -2.26992187 3.74046875 -2.18359375 2.8984375 C-2.12300781 2.27195312 -2.06242188 1.64546875 -2 1 C-2.99 1 -3.98 1 -5 1 C-4.97679687 1.81984375 -4.95359375 2.6396875 -4.9296875 3.484375 C-4.91164062 4.56203125 -4.89359375 5.6396875 -4.875 6.75 C-4.85179687 7.81734375 -4.82859375 8.8846875 -4.8046875 9.984375 C-5.00016172 13.0024969 -5.57482485 14.40877246 -7 17 C-7.44500285 19.12593058 -7.44500285 19.12593058 -7.625 21.25 C-7.74875 22.4875 -7.8725 23.725 -8 25 C-8.33 25 -8.66 25 -9 25 C-9 21.04 -9 17.08 -9 13 C-8.34 13 -7.68 13 -7 13 C-7 8.71 -7 4.42 -7 0 C-4.3333581 -1.33332095 -2.83319697 -0.67102033 0 0 Z " fill="#BF8D24" transform="translate(141,66)"/>
<path d="M0 0 C0.99 0 1.98 0 3 0 C3.0270043 1.45823212 3.04639787 2.91660675 3.0625 4.375 C3.07410156 5.18710938 3.08570313 5.99921875 3.09765625 6.8359375 C3 9 3 9 2 11 C1.69208131 13.33077343 1.49104726 15.66241896 1.28125 18.00390625 C1 20 1 20 0 21 C-0.37319457 22.57441461 -0.69897427 24.16020785 -1 25.75 C-1.2475 27.04164062 -1.2475 27.04164062 -1.5 28.359375 C-1.83488684 30.12799614 -2.13545064 31.90344263 -2.40234375 33.68359375 C-3.25913117 37.004345 -5.25640191 38.10058594 -8 40 C-8.042721 38.33388095 -8.04063832 36.66617115 -8 35 C-7.505 34.505 -7.505 34.505 -7 34 C-6.855625 32.88625 -6.71125 31.7725 -6.5625 30.625 C-6 27 -6 27 -4 24 C-3.58499615 22.32642237 -3.23515411 20.63587932 -2.9375 18.9375 C-2.09339408 14.18678815 -2.09339408 14.18678815 -1 12 C-0.77141886 9.9625237 -0.58975722 7.91959697 -0.4375 5.875 C-0.35371094 4.77929688 -0.26992187 3.68359375 -0.18359375 2.5546875 C-0.12300781 1.71164063 -0.06242188 0.86859375 0 0 Z " fill="#A57830" transform="translate(136,67)"/>
<path d="M0 0 C2.3828125 -0.29296875 2.3828125 -0.29296875 5.125 -0.1875 C6.03507813 -0.16042969 6.94515625 -0.13335937 7.8828125 -0.10546875 C8.58148438 -0.07066406 9.28015625 -0.03585937 10 0 C13.7505733 6.78117047 14.51778074 12.30520289 14 20 C12.02 20.99 12.02 20.99 10 22 C10 16.06 10 10.12 10 4 C9.34 4 8.68 4 8 4 C8 3.34 8 2.68 8 2 C7.0925 2.350625 6.185 2.70125 5.25 3.0625 C2.12241564 3.96468779 0.94791919 4.13381507 -2 3 C-1.34 2.01 -0.68 1.02 0 0 Z " fill="#906F62" transform="translate(139,16)"/>
<path d="M0 0 C0 4.62 0 9.24 0 14 C-0.66 13.67 -1.32 13.34 -2 13 C-1.67 9.37 -1.34 5.74 -1 2 C-2.65 2 -4.3 2 -6 2 C-6 6.95 -6 11.9 -6 17 C-6.99 17 -7.98 17 -9 17 C-9.33 18.65 -9.66 20.3 -10 22 C-11.32 22 -12.64 22 -14 22 C-14 24.31 -14 26.62 -14 29 C-14.66 29 -15.32 29 -16 29 C-16 30.65 -16 32.3 -16 34 C-17.485 34.495 -17.485 34.495 -19 35 C-19 35.99 -19 36.98 -19 38 C-19.66 37.67 -20.32 37.34 -21 37 C-19.80100302 33.9168649 -18.52299523 30.93720508 -17 28 C-16.34 28 -15.68 28 -15 28 C-15 26.68 -15 25.36 -15 24 C-15.99 23.67 -16.98 23.34 -18 23 C-16.6875 21.5 -16.6875 21.5 -15 20 C-14.01 20 -13.02 20 -12 20 C-11.34 18.68 -10.68 17.36 -10 16 C-9.01 16 -8.02 16 -7 16 C-7 11.05 -7 6.1 -7 1 C-5 0 -5 0 0 0 Z " fill="#D9A31F" transform="translate(147,25)"/>
<path d="M0 0 C0.66 0 1.32 0 2 0 C1.34 5.28 0.68 10.56 0 16 C0.66 16 1.32 16 2 16 C0.50723624 21.39691512 -1.19695845 26.69905784 -3 32 C-3.66 32 -4.32 32 -5 32 C-5 31.01 -5 30.02 -5 29 C-5.99 29.33 -6.98 29.66 -8 30 C-7.505 28.515 -7.505 28.515 -7 27 C-6.34 26.67 -5.68 26.34 -5 26 C-5 24.02 -5 22.04 -5 20 C-3.68 19.67 -2.36 19.34 -1 19 C-1 18.34 -1 17.68 -1 17 C-1.66 17 -2.32 17 -3 17 C-3 15.02 -3 13.04 -3 11 C-2.34 11 -1.68 11 -1 11 C-0.67 7.37 -0.34 3.74 0 0 Z " fill="#B18B43" transform="translate(155,110)"/>
<path d="M0 0 C0.33 1.32 0.66 2.64 1 4 C-0.19625 4.433125 -1.3925 4.86625 -2.625 5.3125 C-5.3125129 6.3113986 -7.74525192 7.37965664 -10.3125 8.6875 C-13 10 -13 10 -16 10 C-16 8.35 -16 6.7 -16 5 C-15.01 5 -14.02 5 -13 5 C-12.67 4.01 -12.34 3.02 -12 2 C-7.92532275 0.51117562 -4.33458585 -0.26270217 0 0 Z " fill="#8D6D5A" transform="translate(110,181)"/>
<path d="M0 0 C0.66 0.33 1.32 0.66 2 1 C0.10791886 17.22358936 0.10791886 17.22358936 -1.5703125 24.87890625 C-1.98417806 26.92189715 -2.22562225 28.92783561 -2.4375 31 C-2.7159375 32.485 -2.7159375 32.485 -3 34 C-3.99 34.66 -4.98 35.32 -6 36 C-6.66 35.34 -7.32 34.68 -8 34 C-7.34 34 -6.68 34 -6 34 C-5.0127058 30.62198513 -4.769529 27.3818178 -4.5625 23.875 C-3.97091927 15.62984354 -2.40271377 7.89463094 0 0 Z " fill="#967166" transform="translate(163,91)"/>
<path d="M0 0 C-0.33 1.32 -0.66 2.64 -1 4 C-1.66 4 -2.32 4 -3 4 C-3.268125 4.639375 -3.53625 5.27875 -3.8125 5.9375 C-5 8 -5 8 -8 9 C-8 9.66 -8 10.32 -8 11 C-7.34 11.33 -6.68 11.66 -6 12 C-9.20336822 14.83374881 -11.78087253 15.5205537 -16 16 C-16.23828125 13.70703125 -16.23828125 13.70703125 -16 11 C-14.35546875 9.19921875 -14.35546875 9.19921875 -12.1875 7.6875 C-11.47980469 7.17574219 -10.77210937 6.66398438 -10.04296875 6.13671875 C-8 5 -8 5 -5 5 C-5 4.34 -5 3.68 -5 3 C-2.46153846 0 -2.46153846 0 0 0 Z " fill="#906443" transform="translate(128,166)"/>
<path d="M0 0 C0.495 0.99 0.495 0.99 1 2 C-2.53424963 5.06728918 -6.5336478 6.50518926 -10.875 8.0625 C-11.56980469 8.31837891 -12.26460937 8.57425781 -12.98046875 8.83789062 C-16.1204867 9.98804786 -19.24721895 11.07595956 -22.4453125 12.05859375 C-25.14675839 12.72299694 -25.14675839 12.72299694 -26 15 C-27.92866812 15.26602319 -29.85940323 15.52318737 -31.796875 15.71484375 C-33.91683733 15.98923604 -35.83066613 16.44834087 -37.875 17.0625 C-41 18 -41 18 -43 18 C-43 17.34 -43 16.68 -43 16 C-42.030625 15.9175 -41.06125 15.835 -40.0625 15.75 C-36.08096886 15.19499869 -32.82478603 13.68646065 -29.2109375 11.984375 C-26.19672081 10.64235626 -23.19087658 9.82962791 -20 9 C-19.01 8.67 -18.02 8.34 -17 8 C-16.67 7.34 -16.34 6.68 -16 6 C-13.69 6 -11.38 6 -9 6 C-9 5.34 -9 4.68 -9 4 C-7.88625 3.525625 -6.7725 3.05125 -5.625 2.5625 C-3.73289006 1.74693537 -1.84287291 0.92143645 0 0 Z " fill="#AB7D2E" transform="translate(82,134)"/>
<path d="M0 0 C1.99954746 -0.04254356 4.00041636 -0.04080783 6 0 C6.33 0.33 6.66 0.66 7 1 C8.66204487 1.20775561 10.33029491 1.36718255 12 1.5 C16.88888889 1.88888889 16.88888889 1.88888889 18 3 C19.48638992 3.15655027 20.97949127 3.25066943 22.47265625 3.31640625 C23.82133789 3.37924805 23.82133789 3.37924805 25.19726562 3.44335938 C26.61555664 3.50233398 26.61555664 3.50233398 28.0625 3.5625 C29.01189453 3.60568359 29.96128906 3.64886719 30.93945312 3.69335938 C33.29281353 3.79979276 35.64628354 3.90181008 38 4 C38 4.33 38 4.66 38 5 C34.18751574 5.02887236 30.3750593 5.04675492 26.5625 5.0625 C25.47388672 5.07087891 24.38527344 5.07925781 23.26367188 5.08789062 C22.22919922 5.09111328 21.19472656 5.09433594 20.12890625 5.09765625 C19.17056885 5.10289307 18.21223145 5.10812988 17.22485352 5.11352539 C15 5 15 5 14 4 C12.00041636 3.95919217 9.99954746 3.95745644 8 4 C8 4.99 8 5.98 8 7 C5.6875 6.875 5.6875 6.875 3 6 C1.1875 2.9375 1.1875 2.9375 0 0 Z " fill="#9D7544" transform="translate(47,186)"/>
<path d="M0 0 C2.31 0.66 4.62 1.32 7 2 C7 2.66 7 3.32 7 4 C11.47987423 3.91844944 15.95845373 3.80566299 20.4375 3.6875 C22.32758789 3.65366211 22.32758789 3.65366211 24.25585938 3.61914062 C31.44544781 3.41265114 37.32175353 2.71053965 44 0 C41.91557295 3.12664058 41.40988845 3.81055316 38 5 C35.35288399 5.16811103 32.81568466 5.23305596 30.171875 5.1953125 C29.04836639 5.19106766 29.04836639 5.19106766 27.90216064 5.18673706 C25.51794224 5.1755726 23.13410421 5.15047531 20.75 5.125 C19.13021377 5.11496535 17.51042164 5.10584035 15.890625 5.09765625 C11.92693754 5.07564555 7.96353319 5.04114175 4 5 C4.33 5.99 4.66 6.98 5 8 C5.66 8.33 6.32 8.66 7 9 C6.01 9 5.02 9 4 9 C0 3.85714286 0 3.85714286 0 0 Z " fill="#E0A815" transform="translate(29,169)"/>
<path d="M0 0 C0.33 0 0.66 0 1 0 C1 2.64 1 5.28 1 8 C9.91 8 18.82 8 28 8 C28 7.34 28 6.68 28 6 C29.32 6.33 30.64 6.66 32 7 C28.55105581 10.44894419 24.88544786 10.12760475 20.17578125 10.1328125 C19.06525391 10.13410156 17.95472656 10.13539063 16.81054688 10.13671875 C15.07901367 10.13091797 15.07901367 10.13091797 13.3125 10.125 C12.14654297 10.12886719 10.98058594 10.13273438 9.77929688 10.13671875 C8.67263672 10.13542969 7.56597656 10.13414062 6.42578125 10.1328125 C4.90078003 10.13112061 4.90078003 10.13112061 3.3449707 10.12939453 C1 10 1 10 0 9 C-0.07179964 7.48071962 -0.08392007 5.95832518 -0.0625 4.4375 C-0.05347656 3.61121094 -0.04445312 2.78492188 -0.03515625 1.93359375 C-0.02355469 1.29550781 -0.01195312 0.65742188 0 0 Z " fill="#D9A218" transform="translate(38,159)"/>
<path d="M0 0 C12.87 0.495 12.87 0.495 26 1 C26 1.66 26 2.32 26 3 C16.92231814 5.06686745 7.96190451 4.2206489 -1 2 C-0.67 1.34 -0.34 0.68 0 0 Z " fill="#9C7C63" transform="translate(58,192)"/>
<path d="M0 0 C0.42657236 4.52002639 -0.77363845 6.82194547 -3.25 10.5625 C-3.85328125 11.49191406 -4.4565625 12.42132813 -5.078125 13.37890625 C-6.88480315 15.8428921 -8.77791492 17.91065009 -11 20 C-11.66 19.67 -12.32 19.34 -13 19 C-12.3503125 17.95392578 -12.3503125 17.95392578 -11.6875 16.88671875 C-9.37118766 12.92432334 -7.46315352 8.79067059 -5.5 4.64453125 C-2.86558346 0 -2.86558346 0 0 0 Z " fill="#946C3E" transform="translate(149,139)"/>
<path d="M0 0 C1.32 0 2.64 0 4 0 C4 0.66 4 1.32 4 2 C11.425 2.99 11.425 2.99 19 4 C19 4.66 19 5.32 19 6 C21.31284456 5.85973717 23.62527591 5.71264442 25.9375 5.5625 C27.22527344 5.48128906 28.51304688 5.40007812 29.83984375 5.31640625 C32.86023957 5.35080812 32.86023957 5.35080812 34 4 C36.375 3.625 36.375 3.625 39 4 C40.8125 6.5 40.8125 6.5 42 9 C41.43756592 8.84080078 40.87513184 8.68160156 40.2956543 8.51757812 C37.90781034 7.97921492 35.71397075 7.81010367 33.26953125 7.71875 C31.94211914 7.66267578 31.94211914 7.66267578 30.58789062 7.60546875 C28.7259283 7.53471156 26.86394882 7.46440461 25.00195312 7.39453125 C24.12087891 7.35714844 23.23980469 7.31976563 22.33203125 7.28125 C21.52483643 7.25095703 20.7176416 7.22066406 19.88598633 7.18945312 C18 7 18 7 17 6 C15.460528 5.8672869 13.91802674 5.76907996 12.375 5.6875 C7.26766422 5.24721243 4.22132596 3.84480662 0 1 C0 0.67 0 0.34 0 0 Z " fill="#DCA519" transform="translate(47,183)"/>
<path d="M0 0 C3.3 0 6.6 0 10 0 C10 0.33 10 0.66 10 1 C7.69 1.33 5.38 1.66 3 2 C3 6.95 3 11.9 3 17 C1.02 17.99 1.02 17.99 -1 19 C-1.33 19.66 -1.66 20.32 -2 21 C-2.99 21 -3.98 21 -5 21 C-4.6875 19.125 -4.6875 19.125 -4 17 C-1 15 -1 15 2 15 C2 11.7 2 8.4 2 5 C1.34 5 0.68 5 0 5 C0 3.35 0 1.7 0 0 Z " fill="#9B763D" transform="translate(137,24)"/>
<path d="M0 0 C0.33 1.32 0.66 2.64 1 4 C0.34 4 -0.32 4 -1 4 C-1.33 5.32 -1.66 6.64 -2 8 C-2.66 8 -3.32 8 -4 8 C-4 9.98 -4 11.96 -4 14 C-4.66 14 -5.32 14 -6 14 C-6.144375 14.969375 -6.28875 15.93875 -6.4375 16.9375 C-7 20 -7 20 -8 21 C-8.23075082 22.34747084 -8.41153063 23.70377565 -8.5625 25.0625 C-8.706875 26.361875 -8.85125 27.66125 -9 29 C-9.99 29 -10.98 29 -12 29 C-10.31998698 20.46158089 -7.95348254 11.30274449 -3 4 C-2.01 3.67 -1.02 3.34 0 3 C0 2.01 0 1.02 0 0 Z " fill="#C29022" transform="translate(125,63)"/>
<path d="M0 0 C2 3 2 3 1.828125 4.84765625 C-0.81569372 11.71909075 -5.48595648 18.15432539 -11 23 C-11 18.25842322 -10.23508522 17.72250076 -7.1875 14.3125 C-3.37777697 9.77454673 -1.33275337 5.74749892 0 0 Z " fill="#907468" transform="translate(149,139)"/>
<path d="M0 0 C1 3 1 3 1 6 C1.66 5.67 2.32 5.34 3 5 C2.26086957 13.86956522 2.26086957 13.86956522 -1 17 C-1.66 17 -2.32 17 -3 17 C-3.33 18.32 -3.66 19.64 -4 21 C-4.66 20.67 -5.32 20.34 -6 20 C-5.34 18.35 -4.68 16.7 -4 15 C-3.34 15 -2.68 15 -2 15 C-2 13.35 -2 11.7 -2 10 C-2.66 10 -3.32 10 -4 10 C-4 9.34 -4 8.68 -4 8 C-3.34 8 -2.68 8 -2 8 C-2.04125 7.236875 -2.0825 6.47375 -2.125 5.6875 C-2 3 -2 3 0 0 Z " fill="#BD8B25" transform="translate(129,98)"/>
<path d="M0 0 C0.99 0 1.98 0 3 0 C2.37942343 2.56364399 1.75370801 5.12584926 1.125 7.6875 C0.95097656 8.40873047 0.77695313 9.12996094 0.59765625 9.87304688 C-1.2992438 17.56603043 -1.2992438 17.56603043 -3 21 C-5.5 22.375 -5.5 22.375 -8 23 C-8.66 22.67 -9.32 22.34 -10 22 C-10 21.01 -10 20.02 -10 19 C-8.02 18.67 -6.04 18.34 -4 18 C-3.87882812 17.28714844 -3.75765625 16.57429688 -3.6328125 15.83984375 C-2.68936031 10.44765159 -1.62637791 5.22764328 0 0 Z " fill="#A47831" transform="translate(114,80)"/>
<path d="M0 0 C0.99 0.33 1.98 0.66 3 1 C2.67421616 3.00124361 2.33944795 5.00102872 2 7 C1.9175 7.86625 1.835 8.7325 1.75 9.625 C0.71208202 12.91174028 -1.22572313 14.07934679 -4 16 C-4.042721 14.33388095 -4.04063832 12.66617115 -4 11 C-3.67 10.67 -3.34 10.34 -3 10 C-2.855625 8.88625 -2.71125 7.7725 -2.5625 6.625 C-2 3 -2 3 0 0 Z " fill="#B3832A" transform="translate(132,91)"/>
<path d="M0 0 C1.4540625 0.0309375 1.4540625 0.0309375 2.9375 0.0625 C2.9375 0.3925 2.9375 0.7225 2.9375 1.0625 C2.08285156 1.25585938 1.22820312 1.44921875 0.34765625 1.6484375 C-0.75707031 1.90882813 -1.86179687 2.16921875 -3 2.4375 C-4.10214844 2.69273437 -5.20429687 2.94796875 -6.33984375 3.2109375 C-7.68755859 3.63246094 -7.68755859 3.63246094 -9.0625 4.0625 C-9.3925 4.7225 -9.7225 5.3825 -10.0625 6.0625 C-11.0525 6.0625 -12.0425 6.0625 -13.0625 6.0625 C-13.0625 7.7125 -13.0625 9.3625 -13.0625 11.0625 C-14.3825 11.0625 -15.7025 11.0625 -17.0625 11.0625 C-17.0625 9.4125 -17.0625 7.7625 -17.0625 6.0625 C-15.4125 5.7325 -13.7625 5.4025 -12.0625 5.0625 C-12.0625 4.0725 -12.0625 3.0825 -12.0625 2.0625 C-10.01171875 1.83463542 -7.9609375 1.60677083 -5.91015625 1.37890625 C-3.00452994 0.88132542 -3.42063662 0.06980891 0 0 Z " fill="#CE9B21" transform="translate(107.0625,179.9375)"/>
<path d="M0 0 C0.33 0 0.66 0 1 0 C1.02685412 2.31243792 1.04632841 4.6249627 1.0625 6.9375 C1.07410156 8.22527344 1.08570313 9.51304688 1.09765625 10.83984375 C1 14 1 14 0 15 C-0.36727446 16.49205247 -0.6949846 17.99398648 -1 19.5 C-1.88888889 23.88888889 -1.88888889 23.88888889 -3 25 C-3.12375 26.134375 -3.2475 27.26875 -3.375 28.4375 C-3.58125 29.613125 -3.7875 30.78875 -4 32 C-4.99 32.66 -5.98 33.32 -7 34 C-6.71831703 32.04020573 -6.42433283 30.08217622 -6.125 28.125 C-5.96257812 27.03445312 -5.80015625 25.94390625 -5.6328125 24.8203125 C-5 22 -5 22 -3 20 C-0.92841945 13.4196853 -0.43460239 6.86214302 0 0 Z " fill="#E1A913" transform="translate(140,66)"/>
<path d="M0 0 C0.33 0.66 0.66 1.32 1 2 C1.99 2 2.98 2 4 2 C4 2.99 4 3.98 4 5 C3.34 5 2.68 5 2 5 C2 5.99 2 6.98 2 8 C0.68 8.33 -0.64 8.66 -2 9 C-2 8.34 -2 7.68 -2 7 C-1.34 7 -0.68 7 0 7 C0.33 5.68 0.66 4.36 1 3 C0.34 3 -0.32 3 -1 3 C-1 3.66 -1 4.32 -1 5 C-4.96 6.98 -4.96 6.98 -9 9 C-9 8.01 -9 7.02 -9 6 C-8.34 6 -7.68 6 -7 6 C-7 5.34 -7 4.68 -7 4 C-6.01 4 -5.02 4 -4 4 C-4 3.34 -4 2.68 -4 2 C-2.68 1.34 -1.36 0.68 0 0 Z " fill="#C49122" transform="translate(97,146)"/>
<path d="M0 0 C0.99 0 1.98 0 3 0 C3.33 0.99 3.66 1.98 4 3 C4.66 2.34 5.32 1.68 6 1 C5.42415568 3.38564077 4.77772405 5.66682784 4 8 C3.01 8 2.02 8 1 8 C1 8.66 1 9.32 1 10 C0.34 9.67 -0.32 9.34 -1 9 C-1.99 8.67 -2.98 8.34 -4 8 C-4 8.99 -4 9.98 -4 11 C-4.66 10.67 -5.32 10.34 -6 10 C-5.67 9.01 -5.34 8.02 -5 7 C-4.01 7 -3.02 7 -2 7 C-1.34 4.69 -0.68 2.38 0 0 Z " fill="#BE8C24" transform="translate(112,126)"/>
<path d="M0 0 C0.66 0.33 1.32 0.66 2 1 C1.67 1.66 1.34 2.32 1 3 C0.34 3 -0.32 3 -1 3 C-1 3.99 -1 4.98 -1 6 C-2.8984375 7.60546875 -2.8984375 7.60546875 -5.375 9.1875 C-6.18710938 9.71730469 -6.99921875 10.24710938 -7.8359375 10.79296875 C-10 12 -10 12 -12 12 C-11.67 10.68 -11.34 9.36 -11 8 C-10.34 8 -9.68 8 -9 8 C-9 7.34 -9 6.68 -9 6 C-2.25 2 -2.25 2 0 2 C0 1.34 0 0.68 0 0 Z " fill="#9C7238" transform="translate(92,123)"/>
<path d="M0 0 C-2.22355226 2.5570851 -3.75018193 3.24170912 -7 4 C-7.33 4.66 -7.66 5.32 -8 6 C-10.64860427 6.59355614 -13.29197322 6.74209269 -16 7 C-13.76552966 3.60360508 -12.41403842 2.1580874 -8.5625 0.6875 C-5.57123497 0.11023833 -3.02616665 -0.18340404 0 0 Z " fill="#8F7059" transform="translate(51,144)"/>
<path d="M0 0 C0.66 0 1.32 0 2 0 C3.04976964 3.14930893 3.10131595 5.38814456 3.0625 8.6875 C3.05347656 9.68136719 3.04445312 10.67523438 3.03515625 11.69921875 C3.02355469 12.45847656 3.01195312 13.21773437 3 14 C1.02 14.99 1.02 14.99 -1 16 C-0.67 10.72 -0.34 5.44 0 0 Z " fill="#A08573" transform="translate(150,22)"/>
<path d="M0 0 C0.99 0.33 1.98 0.66 3 1 C3 2.65 3 4.3 3 6 C1.68 6 0.36 6 -1 6 C-1 7.65 -1 9.3 -1 11 C-2.32 11.33 -3.64 11.66 -5 12 C-4.20590074 8.02950369 -2.89786569 2.89786569 0 0 Z " fill="#B58F48" transform="translate(102,103)"/>
<path d="M0 0 C0.66 0 1.32 0 2 0 C3.90120099 7.12950371 4.22424141 13.63740707 4 21 C1.23737632 18.23737632 1.38188667 16.02937912 0.875 12.1875 C0.70742187 10.96417969 0.53984375 9.74085937 0.3671875 8.48046875 C0.06447829 5.61117192 -0.07678299 2.87936222 0 0 Z " fill="#967C70" transform="translate(162,62)"/>
<path d="M0 0 C-0.33 0.99 -0.66 1.98 -1 3 C-2.134375 3.12375 -3.26875 3.2475 -4.4375 3.375 C-6.2009375 3.684375 -6.2009375 3.684375 -8 4 C-8.33 4.66 -8.66 5.32 -9 6 C-11.5625 6.625 -11.5625 6.625 -14 7 C-12.515 7.99 -12.515 7.99 -11 9 C-12.32 9.33 -13.64 9.66 -15 10 C-15 8.35 -15 6.7 -15 5 C-14.01 5 -13.02 5 -12 5 C-11.67 4.01 -11.34 3.02 -11 2 C-7.12137916 0.60955102 -4.13537997 0 0 0 Z " fill="#8A6247" transform="translate(109,181)"/>
<path d="M0 0 C0.33 0 0.66 0 1 0 C1 4.29 1 8.58 1 13 C1.99 13 2.98 13 4 13 C4 13.99 4 14.98 4 16 C4.99 16.33 5.98 16.66 7 17 C7 17.66 7 18.32 7 19 C6.01 19 5.02 19 4 19 C4.66 19.99 5.32 20.98 6 22 C5.625 24.1875 5.625 24.1875 5 26 C4.49440092 24.56445975 3.9957251 23.1264798 3.5 21.6875 C3.08234375 20.48673828 3.08234375 20.48673828 2.65625 19.26171875 C2 17 2 17 2 14 C1.34 14 0.68 14 0 14 C0 9.38 0 4.76 0 0 Z " fill="#B78F3E" transform="translate(147,25)"/>
<path d="M0 0 C2.97 0.495 2.97 0.495 6 1 C6 1.66 6 2.32 6 3 C6.99 3 7.98 3 9 3 C9 3.66 9 4.32 9 5 C9.99 5.33 10.98 5.66 12 6 C12 6.33 12 6.66 12 7 C5.64096386 7.48915663 5.64096386 7.48915663 2.625 5.1875 C1 3 1 3 0 0 Z " fill="#A1795C" transform="translate(34,178)"/>
<path d="M0 0 C0.66 0 1.32 0 2 0 C1.67 1.32 1.34 2.64 1 4 C0.34 4 -0.32 4 -1 4 C-1 4.66 -1 5.32 -1 6 C-4.36683915 8.43160605 -5.73350364 9 -10 9 C-8.54875366 5.17398693 -6.64225296 3.77670876 -3 2 C-2.01 2 -1.02 2 0 2 C0 1.34 0 0.68 0 0 Z " fill="#A17532" transform="translate(96,149)"/>
<path d="M0 0 C3.29525123 2.95727675 5.01116032 5.69270742 6.75 9.75 C7.17796875 10.73484375 7.6059375 11.7196875 8.046875 12.734375 C8.51867187 13.85585938 8.51867187 13.85585938 9 15 C8.01 15 7.02 15 6 15 C5.18501438 13.3970947 4.37310073 11.79262722 3.5625 10.1875 C3.11003906 9.29417969 2.65757812 8.40085937 2.19140625 7.48046875 C1 5 1 5 0 2 C-0.99 1.67 -1.98 1.34 -3 1 C-2.01 0.67 -1.02 0.34 0 0 Z " fill="#967C6E" transform="translate(154,43)"/>
<path d="M0 0 C2.5625 0.1875 2.5625 0.1875 4.5625 2.1875 C4.7578125 4.5703125 4.7578125 4.5703125 4.6875 7.3125 C4.66945313 8.22257813 4.65140625 9.13265625 4.6328125 10.0703125 C4.60960937 10.76898438 4.58640625 11.46765625 4.5625 12.1875 C4.2325 12.1875 3.9025 12.1875 3.5625 12.1875 C3.5625 9.2175 3.5625 6.2475 3.5625 3.1875 C0.5925 3.8475 -2.3775 4.5075 -5.4375 5.1875 C-2.9575 0.2275 -2.9575 0.2275 0 0 Z " fill="#A9803B" transform="translate(33.4375,155.8125)"/>
<path d="M0 0 C0.33 0 0.66 0 1 0 C1.22262606 2.08185451 1.42757926 4.16560426 1.625 6.25 C1.74101562 7.41015625 1.85703125 8.5703125 1.9765625 9.765625 C1.99955595 12.93872091 1.69705154 14.38317244 0 17 C-0.66 17 -1.32 17 -2 17 C-1.85848172 14.9163691 -1.71162064 12.83310062 -1.5625 10.75 C-1.48128906 9.58984375 -1.40007812 8.4296875 -1.31640625 7.234375 C-1.06752213 4.69022624 -0.71885058 2.44046752 0 0 Z " fill="#926A3F" transform="translate(157,108)"/>
<path d="M0 0 C0.99 0 1.98 0 3 0 C3.2358396 5.77807024 2.86783046 10.51324804 1 16 C0.67 16 0.34 16 0 16 C0 10.72 0 5.44 0 0 Z " fill="#9D7235" transform="translate(136,67)"/>
<path d="M0 0 C6.15234375 -0.09765625 6.15234375 -0.09765625 8 0 C8.33 0.33 8.66 0.66 9 1 C10.48638992 1.15655027 11.97949127 1.25066943 13.47265625 1.31640625 C14.82133789 1.37924805 14.82133789 1.37924805 16.19726562 1.44335938 C17.61555664 1.50233398 17.61555664 1.50233398 19.0625 1.5625 C20.01189453 1.60568359 20.96128906 1.64886719 21.93945312 1.69335938 C24.29281353 1.79979276 26.64628354 1.90181008 29 2 C29 2.33 29 2.66 29 3 C25.29173349 3.05837668 21.5835863 3.09372277 17.875 3.125 C16.30492187 3.15013672 16.30492187 3.15013672 14.703125 3.17578125 C9.40730664 3.20929909 4.9428941 3.17213685 0 1 C0 0.67 0 0.34 0 0 Z " fill="#B1822B" transform="translate(56,188)"/>
<path d="M0 0 C0.66 0 1.32 0 2 0 C1.34 5.94 0.68 11.88 0 18 C-0.99 17.67 -1.98 17.34 -3 17 C-3 15.02 -3 13.04 -3 11 C-2.34 11 -1.68 11 -1 11 C-0.67 7.37 -0.34 3.74 0 0 Z " fill="#D19D1D" transform="translate(155,110)"/>
<path d="M0 0 C0.33 0.99 0.66 1.98 1 3 C-0.21484375 5.26171875 -0.21484375 5.26171875 -1.9375 7.6875 C-2.78634766 8.89986328 -2.78634766 8.89986328 -3.65234375 10.13671875 C-4.09707031 10.75160156 -4.54179688 11.36648437 -5 12 C-5.99 11.67 -6.98 11.34 -8 11 C-7 9 -6 7 -5 5 C-4.34 5 -3.68 5 -3 5 C-3 4.01 -3 3.02 -3 2 C-2.01 2 -1.02 2 0 2 C0 1.34 0 0.68 0 0 Z " fill="#A07433" transform="translate(111,132)"/>
<path d="M0 0 C1.32 0.33 2.64 0.66 4 1 C3.979375 2.299375 3.95875 3.59875 3.9375 4.9375 C3.92995028 9.69382325 4.40112883 14.28388953 5 19 C2.02906065 15.70336944 1.58143799 13.32159089 1.375 8.9375 C1.20448389 5.65303498 1.0433539 3.13006169 0 0 Z " fill="#856556" transform="translate(159,57)"/>
<path d="M0 0 C0.33 0.99 0.66 1.98 1 3 C0.01 3.495 0.01 3.495 -1 4 C-2.04808041 5.97522846 -3.0520411 7.97481509 -4 10 C-4.66 9.67 -5.32 9.34 -6 9 C-6.125 3.25 -6.125 3.25 -5 1 C-2.4375 0.375 -2.4375 0.375 0 0 Z " fill="#E2AF25" transform="translate(100,114)"/>
<path d="M0 0 C0.66 0 1.32 0 2 0 C2 1.65 2 3.3 2 5 C1.34 5 0.68 5 0 5 C-0.103125 5.78375 -0.20625 6.5675 -0.3125 7.375 C-1 10 -1 10 -4 12 C-3.53680089 7.27536912 -2.90108294 3.82942948 0 0 Z " fill="#A17532" transform="translate(125,108)"/>
<path d="M0 0 C0.99 0.33 1.98 0.66 3 1 C1.67523097 4.9743071 0.03702088 7.15279292 -3 10 C-3.66 10.99 -4.32 11.98 -5 13 C-5 11.35 -5 9.7 -5 8 C-4.34 8 -3.68 8 -3 8 C-3 7.01 -3 6.02 -3 5 C-3.66 5 -4.32 5 -5 5 C-4.67 4.01 -4.34 3.02 -4 2 C-3.67 2.66 -3.34 3.32 -3 4 C-2.01 4 -1.02 4 0 4 C0 2.68 0 1.36 0 0 Z " fill="#93653B" transform="translate(124,60)"/>
<path d="M0 0 C0.99 0 1.98 0 3 0 C0.72429926 6.12688661 -1.6598702 10.10314853 -7 14 C-5.84826645 11.53199953 -4.95216435 9.95216435 -3 8 C-2.35232207 5.42938689 -2.35232207 5.42938689 -2 3 C-1.34 3 -0.68 3 0 3 C0 2.01 0 1.02 0 0 Z " fill="#C79420" transform="translate(139,148)"/>
<path d="M0 0 C0.7734375 0.3403125 0.7734375 0.3403125 1.5625 0.6875 C1.2325 1.3475 0.9025 2.0075 0.5625 2.6875 C-1.36616812 2.95352319 -3.29690323 3.21068737 -5.234375 3.40234375 C-7.35433733 3.67673604 -9.26816613 4.13584087 -11.3125 4.75 C-14.4375 5.6875 -14.4375 5.6875 -16.4375 5.6875 C-16.4375 5.0275 -16.4375 4.3675 -16.4375 3.6875 C-15.426875 3.584375 -14.41625 3.48125 -13.375 3.375 C-10.28155053 2.8348739 -8.47083723 2.35224752 -5.75 1.0625 C-2.4375 -0.3125 -2.4375 -0.3125 0 0 Z " fill="#C39122" transform="translate(55.4375,146.3125)"/>
<path d="M0 0 C0.33 0 0.66 0 1 0 C1.20705918 8.6274658 1.21462689 16.59628191 -1 25 C-1.33 25 -1.66 25 -2 25 C-2 21.04 -2 17.08 -2 13 C-1.34 13 -0.68 13 0 13 C0 8.71 0 4.42 0 0 Z " fill="#DCA416" transform="translate(134,66)"/>
<path d="M0 0 C1.32 0.33 2.64 0.66 4 1 C4.99 1 5.98 1 7 1 C6.67 1.66 6.34 2.32 6 3 C5.01 3 4.02 3 3 3 C3 4.98 3 6.96 3 9 C2.01 9.33 1.02 9.66 0 10 C0 10.99 0 11.98 0 13 C-0.66 13 -1.32 13 -2 13 C-2 11.35 -2 9.7 -2 8 C-0.68 8 0.64 8 2 8 C1.34 5.36 0.68 2.72 0 0 Z " fill="#DFAD24" transform="translate(103,101)"/>
<path d="M0 0 C0.99 0 1.98 0 3 0 C1.4422692 3.82352106 -0.91595258 6.29205593 -4 9 C-4.99 9 -5.98 9 -7 9 C-7 7 -7 7 -4.625 4.375 C-2 2 -2 2 0 2 C0 1.34 0 0.68 0 0 Z " fill="#8D7063" transform="translate(127,168)"/>
<path d="M0 0 C-3.10996778 1.82976016 -5.18182882 2.20629302 -8.765625 1.9765625 C-9.65507813 1.925 -10.54453125 1.8734375 -11.4609375 1.8203125 C-12.38132812 1.75585938 -13.30171875 1.69140625 -14.25 1.625 C-15.18585938 1.56828125 -16.12171875 1.5115625 -17.0859375 1.453125 C-19.39143448 1.31197212 -21.69578928 1.1605965 -24 1 C-24 0.67 -24 0.34 -24 0 C-20.56296699 -0.19682269 -17.12536573 -0.38085152 -13.6875 -0.5625 C-12.71103516 -0.61857422 -11.73457031 -0.67464844 -10.72851562 -0.73242188 C-9.32182617 -0.80493164 -9.32182617 -0.80493164 -7.88671875 -0.87890625 C-7.02264404 -0.9260376 -6.15856934 -0.97316895 -5.26831055 -1.02172852 C-3 -1 -3 -1 0 0 Z " fill="#927058" transform="translate(88,192)"/>
<path d="M0 0 C0.99 0 1.98 0 3 0 C3 1.65 3 3.3 3 5 C2.01 5 1.02 5 0 5 C0 5.66 0 6.32 0 7 C-0.99 7.33 -1.98 7.66 -3 8 C-3 6 -3 6 -2 5 C-2 4.01 -2 3.02 -2 2 C-1.34 1.34 -0.68 0.68 0 0 Z " fill="#936649" transform="translate(92,118)"/>
<path d="M0 0 C0 3.10551666 -0.5393715 4.35261084 -2 7 C-3.65 7 -5.3 7 -7 7 C-7.33 8.32 -7.66 9.64 -8 11 C-8.25 8.70703125 -8.25 8.70703125 -8 6 C-6.25 4.19921875 -6.25 4.19921875 -4 2.6875 C-3.2575 2.17574219 -2.515 1.66398438 -1.75 1.13671875 C-1.1725 0.76160156 -0.595 0.38648438 0 0 Z " fill="#B2842F" transform="translate(120,171)"/>
<path d="M0 0 C1.134375 0.020625 2.26875 0.04125 3.4375 0.0625 C-1.58615177 2.57432589 -5.04246514 3.18837258 -10.6875 3.125 C-11.44160156 3.12048828 -12.19570313 3.11597656 -12.97265625 3.11132812 C-14.83597127 3.09953499 -16.69924555 3.08159942 -18.5625 3.0625 C-18.5625 2.7325 -18.5625 2.4025 -18.5625 2.0625 C-17.56347656 2.00191406 -16.56445312 1.94132813 -15.53515625 1.87890625 C-14.24480469 1.79511719 -12.95445313 1.71132812 -11.625 1.625 C-10.33722656 1.54378906 -9.04945312 1.46257812 -7.72265625 1.37890625 C-3.92668627 0.99884003 -3.958203 0.06944216 0 0 Z " fill="#9A6F36" transform="translate(65.5625,168.9375)"/>
<path d="M0 0 C0.66 0.33 1.32 0.66 2 1 C2.125 6.75 2.125 6.75 1 9 C0.34 9 -0.32 9 -1 9 C-1 8.01 -1 7.02 -1 6 C-1.99 6.33 -2.98 6.66 -4 7 C-3.67 6.01 -3.34 5.02 -3 4 C-2.34 3.67 -1.68 3.34 -1 3 C-0.67 2.01 -0.34 1.02 0 0 Z " fill="#BB9958" transform="translate(151,133)"/>
<path d="M0 0 C1.65 0 3.3 0 5 0 C5 0.66 5 1.32 5 2 C4.030625 2.268125 3.06125 2.53625 2.0625 2.8125 C1.051875 3.204375 0.04125 3.59625 -1 4 C-1.33 4.99 -1.66 5.98 -2 7 C-2.66 7 -3.32 7 -4 7 C-4 7.66 -4 8.32 -4 9 C-4.66 8.67 -5.32 8.34 -6 8 C-5.67 7.34 -5.34 6.68 -5 6 C-4.34 6 -3.68 6 -3 6 C-3 5.01 -3 4.02 -3 3 C-2.01 3 -1.02 3 0 3 C0 2.01 0 1.02 0 0 Z " fill="#CE991D" transform="translate(127,162)"/>
<path d="M0 0 C0.66 0 1.32 0 2 0 C1.38722388 2.96175123 0.74627478 4.38058783 -1 7 C-1.66 7 -2.32 7 -3 7 C-3.33 8.32 -3.66 9.64 -4 11 C-4.66 10.67 -5.32 10.34 -6 10 C-5.34 8.35 -4.68 6.7 -4 5 C-3.34 5 -2.68 5 -2 5 C-1.34 3.35 -0.68 1.7 0 0 Z " fill="#D9A217" transform="translate(129,108)"/>
<path d="M0 0 C0.33 0 0.66 0 1 0 C1 1.65 1 3.3 1 5 C0.34 5 -0.32 5 -1 5 C-1 6.65 -1 8.3 -1 10 C-1.99 10.33 -2.98 10.66 -4 11 C-4 11.99 -4 12.98 -4 14 C-4.66 13.67 -5.32 13.34 -6 13 C-4.80100302 9.9168649 -3.52299523 6.93720508 -2 4 C-1.34 4 -0.68 4 0 4 C0 2.68 0 1.36 0 0 Z " fill="#C89420" transform="translate(132,49)"/>
<path d="M0 0 C3.375 -0.125 3.375 -0.125 7 0 C7.66 0.66 8.32 1.32 9 2 C8 3 8 3 6.15234375 3.09765625 C4.1015625 3.06510417 2.05078125 3.03255208 0 3 C0 2.01 0 1.02 0 0 Z " fill="#FDC521" transform="translate(69,185)"/>
<path d="M0 0 C-1.3125 1.5 -1.3125 1.5 -3 3 C-3.99 3 -4.98 3 -6 3 C-6 3.66 -6 4.32 -6 5 C-7.65 5 -9.3 5 -11 5 C-4.83050847 -1.61016949 -4.83050847 -1.61016949 0 0 Z " fill="#9B7035" transform="translate(86,160)"/>
<path d="M0 0 C0.625 1.8125 0.625 1.8125 1 4 C0.01 5.485 0.01 5.485 -1 7 C-1.45139459 9.0492094 -1.45139459 9.0492094 -1.625 11.1875 C-1.74875 12.445625 -1.8725 13.70375 -2 15 C-2.99 15 -3.98 15 -5 15 C-3.97137215 9.55432314 -2.75385216 4.88182883 0 0 Z " fill="#D39D1A" transform="translate(118,77)"/>
<path d="M0 0 C3.3 0 6.6 0 10 0 C10 0.33 10 0.66 10 1 C7.69 1.33 5.38 1.66 3 2 C3 2.99 3 3.98 3 5 C2.01 5 1.02 5 0 5 C0 3.35 0 1.7 0 0 Z " fill="#AC7E2D" transform="translate(137,24)"/>
<path d="M0 0 C-2.67477931 2.67477931 -5.492975 3.6464114 -9 5 C-9.99 5 -10.98 5 -12 5 C-11.67 4.01 -11.34 3.02 -11 2 C-7.24092359 0.37676246 -4.07913787 -0.23994929 0 0 Z " fill="#8F683E" transform="translate(55,145)"/>
<path d="M0 0 C0.99 0 1.98 0 3 0 C5.02350324 3.03525486 5.32124018 4.19426202 5.625 7.6875 C5.69976562 8.49574219 5.77453125 9.30398437 5.8515625 10.13671875 C5.92503906 11.05904297 5.92503906 11.05904297 6 12 C5.34 11.67 4.68 11.34 4 11 C4 9.35 4 7.7 4 6 C3.34 6 2.68 6 2 6 C1.34 4.02 0.68 2.04 0 0 Z " fill="#946C3E" transform="translate(151,45)"/>
<path d="M0 0 C0.33 0 0.66 0 1 0 C1.25 2.75 1.25 2.75 1 6 C-1 8.375 -1 8.375 -3 10 C-3.3648363 5.74357648 -2.47460354 3.46444495 0 0 Z " fill="#9E7234" transform="translate(131,97)"/>
<path d="M0 0 C0.66 0 1.32 0 2 0 C1.35455571 3.48539917 -0.10134397 6.02819057 -2 9 C-2.66 8.34 -3.32 7.68 -4 7 C-2.68 4.69 -1.36 2.38 0 0 Z " fill="#8C6B57" transform="translate(109,89)"/>
<path d="M0 0 C2.64 0 5.28 0 8 0 C8.33 0.66 8.66 1.32 9 2 C7.1875 3.0625 7.1875 3.0625 5 4 C2 3 2 3 0 0 Z " fill="#8C663F" transform="translate(53,189)"/>
<path d="M0 0 C-0.33 0.99 -0.66 1.98 -1 3 C-4.63 3.33 -8.26 3.66 -12 4 C-11 2 -11 2 -7.6875 0.875 C-4 0 -4 0 0 0 Z " fill="#956B3A" transform="translate(109,181)"/>
<path d="M0 0 C0.66 0 1.32 0 2 0 C0.54744301 3.82946843 -1.42895561 5.12050295 -5 7 C-5 6.01 -5 5.02 -5 4 C-4.34 4 -3.68 4 -3 4 C-3 3.34 -3 2.68 -3 2 C-2.01 2 -1.02 2 0 2 C0 1.34 0 0.68 0 0 Z " fill="#DFA714" transform="translate(93,148)"/>
<path d="M0 0 C0.33 0 0.66 0 1 0 C1 2.31 1 4.62 1 7 C-0.32 7.33 -1.64 7.66 -3 8 C-2.67 6.35 -2.34 4.7 -2 3 C-1.34 3 -0.68 3 0 3 C0 2.01 0 1.02 0 0 Z " fill="#8B6A55" transform="translate(113,79)"/>
<path d="M0 0 C0 0.66 0 1.32 0 2 C-2.64 2.33 -5.28 2.66 -8 3 C-8.33 2.34 -8.66 1.68 -9 1 C-6.04335481 -0.4783226 -3.25770263 -0.06032783 0 0 Z " fill="#A28C7B" transform="translate(84,193)"/>
<path d="M0 0 C2.97 0.33 5.94 0.66 9 1 C8.67 1.66 8.34 2.32 8 3 C5.03 2.67 2.06 2.34 -1 2 C-0.67 1.34 -0.34 0.68 0 0 Z " fill="#A5896A" transform="translate(58,192)"/>
<path d="M0 0 C0.99 0 1.98 0 3 0 C3 0.66 3 1.32 3 2 C3.99 2 4.98 2 6 2 C6 2.66 6 3.32 6 4 C6.99 4.33 7.98 4.66 9 5 C7.1875 5.6875 7.1875 5.6875 5 6 C3.25 4.6875 3.25 4.6875 2 3 C2 2.34 2 1.68 2 1 C1.34 0.67 0.68 0.34 0 0 Z " fill="#8A6444" transform="translate(37,179)"/>
<path d="M0 0 C-1.24976756 3.65316671 -1.67098753 4.78065836 -5 7 C-5 3 -5 3 -3.625 1.25 C-2 0 -2 0 0 0 Z " fill="#877062" transform="translate(143,155)"/>
<path d="M0 0 C0 0.99 0 1.98 0 3 C-1.875 4.0625 -1.875 4.0625 -4 5 C-4.66 4.67 -5.32 4.34 -6 4 C-6 3.01 -6 2.02 -6 1 C-3.92446352 0.4465236 -2.15634036 0 0 0 Z " fill="#997346" transform="translate(110,98)"/>
<path d="M0 0 C-0.33 0.99 -0.66 1.98 -1 3 C-2.65 3 -4.3 3 -6 3 C-6 2.01 -6 1.02 -6 0 C-3 -1 -3 -1 0 0 Z " fill="#89664F" transform="translate(119,178)"/>
<path d="M0 0 C3.64003061 2.42668707 3.71160473 3.96302815 5 8 C5.66 8.33 6.32 8.66 7 9 C6.01 9 5.02 9 4 9 C0 3.85714286 0 3.85714286 0 0 Z " fill="#DFB749" transform="translate(29,169)"/>
<path d="M0 0 C2.97 0.495 2.97 0.495 6 1 C3.64031256 3.09749995 2.45383006 3.96905704 -0.75 4.1875 C-1.86375 4.0946875 -1.86375 4.0946875 -3 4 C-2.67 3.34 -2.34 2.68 -2 2 C-1.34 2 -0.68 2 0 2 C0 1.34 0 0.68 0 0 Z " fill="#A77A30" transform="translate(73,164)"/>
<path d="M0 0 C1.98 0.495 1.98 0.495 4 1 C3.34 2.98 2.68 4.96 2 7 C0.4375 5.75 0.4375 5.75 -1 4 C-0.6875 1.8125 -0.6875 1.8125 0 0 Z " fill="#835F45" transform="translate(115,72)"/>
</svg>
