<?xml version="1.0" encoding="UTF-8"?>
<svg version="1.1" xmlns="http://www.w3.org/2000/svg" width="226" height="237">
<path d="M0 0 C2.32500982 -0.00655206 4.6457152 -0.06112282 6.9699707 -0.11791992 C18.17432466 -0.24275661 25.6009751 2.27215072 35.02661133 8.5559082 C35.02661133 9.2159082 35.02661133 9.8759082 35.02661133 10.5559082 C35.74848633 10.4940332 36.47036133 10.4321582 37.21411133 10.3684082 C40.58860448 10.59337441 42.33255044 11.55460583 45.02661133 13.5559082 C45.02661133 14.2159082 45.02661133 14.8759082 45.02661133 15.5559082 C45.56801758 15.7724707 46.10942383 15.9890332 46.66723633 16.2121582 C49.84306476 18.02090817 52.23389214 20.4731462 54.77661133 23.0559082 C55.28321289 23.55477539 55.78981445 24.05364258 56.31176758 24.56762695 C60.02661133 28.30249681 60.02661133 28.30249681 60.02661133 30.5559082 C60.68661133 30.5559082 61.34661133 30.5559082 62.02661133 30.5559082 C67.08693455 41.15849019 68.52549628 51.69427611 68.41772461 63.36401367 C68.40167963 65.42214757 68.41764323 67.4783031 68.43676758 69.53637695 C68.46415855 85.20998209 65.81313881 98.43997359 55.46411133 110.5559082 C48.18617148 116.52755115 43.37110169 117.22002253 34.08618164 117.13232422 C32.03082852 117.1184367 29.98001968 117.15259151 27.92504883 117.19067383 C16.88529357 117.17434283 16.88529357 117.17434283 13.19848633 114.17700195 C9.90844139 110.20646211 7.81866652 106.38067219 6.02661133 101.5559082 C5.60250977 101.91942383 5.1784082 102.28293945 4.74145508 102.6574707 C3.5088416 103.71399654 2.27573423 104.76994633 1.04223633 105.82543945 C-0.28437893 106.96437465 -1.6074068 108.10750398 -2.92651367 109.25512695 C-3.54010742 109.78750977 -4.15370117 110.31989258 -4.78588867 110.8684082 C-5.34920898 111.35954102 -5.9125293 111.85067383 -6.49291992 112.35668945 C-10.86262664 115.89626719 -16.64992591 115.03331948 -21.97338867 114.5559082 C-28.7713723 112.59768307 -34.18636848 109.21090963 -38.16088867 103.3059082 C-43.51179968 92.99561626 -42.35738145 82.63422551 -39.16088867 71.7434082 C-37.49840433 66.76195691 -35.60701496 62.09917586 -32.97338867 57.5559082 C-32.41651367 56.5659082 -31.85963867 55.5759082 -31.28588867 54.5559082 C-24.9731912 46.36646283 -16.1810338 40.15973077 -6.97338867 35.5559082 C-4.04381586 35.40417734 -1.15393123 35.32445594 1.77661133 35.3059082 C2.57583008 35.2852832 3.37504883 35.2646582 4.19848633 35.2434082 C9.21499813 35.21040484 12.72276509 35.69322813 17.02661133 38.5559082 C18.45239258 40.30981445 18.45239258 40.30981445 19.33911133 42.1184082 C20.23006421 43.93331222 21.12243506 45.74755567 22.02661133 47.5559082 C22.03109363 49.99577365 21.97504179 52.40155553 21.87036133 54.8371582 C21.81692735 56.3345523 21.76354362 57.8319482 21.71020508 59.3293457 C21.61996964 61.68132016 21.52752102 64.03318968 21.43334961 66.38500977 C20.68889981 83.18768427 20.68889981 83.18768427 24.02661133 99.5559082 C27.51271392 102.20368613 30.77913464 101.62310657 34.96411133 101.1184082 C39.81859561 100.39975146 39.81859561 100.39975146 43.98364258 98.0324707 C45.2848192 96.23205108 46.18663726 94.61055065 47.02661133 92.5559082 C47.35918945 91.8546582 47.69176758 91.1534082 48.03442383 90.4309082 C49.45385554 86.31790923 50.02555922 82.16453107 50.65161133 77.8684082 C50.85270508 76.59707031 50.85270508 76.59707031 51.05786133 75.30004883 C52.78453196 63.71549838 52.88772569 51.8644461 47.27661133 41.2434082 C46.53411133 40.3565332 45.79161133 39.4696582 45.02661133 38.5559082 C44.45168945 37.8649707 43.87676758 37.1740332 43.28442383 36.4621582 C40.10056298 32.46853566 40.10056298 32.46853566 36.02661133 29.5559082 C36.02661133 28.8959082 36.02661133 28.2359082 36.02661133 27.5559082 C35.15907227 27.2980957 34.2915332 27.0402832 33.39770508 26.7746582 C28.91528063 25.15412932 25.15806124 22.72065703 21.12426758 20.2121582 C14.46398629 16.65104942 8.8548055 16.33008114 1.52661133 16.8684082 C0.30264648 16.94091797 0.30264648 16.94091797 -0.94604492 17.01489258 C-8.77233117 17.51110174 -15.3673246 18.27302955 -22.34838867 22.1184082 C-23.00323242 22.47483398 -23.65807617 22.83125977 -24.33276367 23.19848633 C-29.88762452 26.32172331 -34.54537088 29.95688972 -38.97338867 34.5559082 C-39.60760742 35.20430664 -40.24182617 35.85270508 -40.89526367 36.52075195 C-48.14748761 44.34633547 -51.51367877 52.49734889 -54.17651367 62.7121582 C-54.97338867 65.5559082 -54.97338867 65.5559082 -55.97338867 66.5559082 C-56.22681353 69.92326441 -56.1586261 73.3051566 -56.16088867 76.6809082 C-56.17925781 78.08856445 -56.17925781 78.08856445 -56.19799805 79.5246582 C-56.20947219 84.98635076 -55.64059258 89.37123096 -53.97338867 94.5559082 C-53.88839956 96.03321893 -53.84295842 97.51366476 -53.84838867 98.9934082 C-53.01076485 108.42389704 -47.57293543 118.72943525 -40.66088867 125.1184082 C-35.70921718 128.99736057 -30.3658915 132.32857697 -24.97338867 135.5559082 C-24.13807617 136.0818457 -23.30276367 136.6077832 -22.44213867 137.1496582 C-20.04526629 138.51496525 -17.85386943 139.43105385 -15.22338867 140.2434082 C-14.44479492 140.49477539 -13.66620117 140.74614258 -12.86401367 141.00512695 C-4.96936844 142.50937692 2.14204968 141.12565905 9.83911133 139.1809082 C10.7665918 138.95918945 11.69407227 138.7374707 12.6496582 138.5090332 C17.50623434 137.37314278 17.50623434 137.37314278 22.09960938 135.49487305 C25.13849334 134.01412457 27.70828587 134.25962914 31.02661133 134.5559082 C33.21020508 135.73168945 33.21020508 135.73168945 35.02661133 137.5559082 C35.83931199 141.27751674 35.67863176 144.81111828 35.02661133 148.5559082 C32.06110875 151.61408273 28.32717362 152.11941482 24.22192383 153.02075195 C22.02370838 153.51401774 22.02370838 153.51401774 19.95629883 154.30981445 C11.26136891 157.44544249 2.1727015 157.44432439 -6.97338867 157.5559082 C-8.03009766 157.57210205 -8.03009766 157.57210205 -9.1081543 157.58862305 C-22.80435974 157.65863773 -31.84033572 152.54000752 -42.50073242 144.38793945 C-44.91403917 142.59988121 -47.38151066 141.06928664 -49.97338867 139.5559082 C-52.28588867 137.9934082 -52.28588867 137.9934082 -53.97338867 136.5559082 C-53.97338867 135.8959082 -53.97338867 135.2359082 -53.97338867 134.5559082 C-54.63338867 134.5559082 -55.29338867 134.5559082 -55.97338867 134.5559082 C-71.65537084 115.85089332 -74.21097379 91.01845939 -72.97338867 67.5559082 C-72.32304449 61.06872502 -70.81193623 55.52421413 -67.96557617 49.6652832 C-67.02760132 47.67116343 -66.33918827 45.71192549 -65.66088867 43.6184082 C-63.7017656 38.31725167 -60.36673513 34.02535481 -56.97338867 29.5559082 C-56.29018555 28.63165039 -55.60698242 27.70739258 -54.90307617 26.75512695 C-49.80737467 20.15263199 -44.25971783 14.72464407 -36.97338867 10.5559082 C-35.98338867 10.5559082 -34.99338867 10.5559082 -33.97338867 10.5559082 C-33.97338867 9.8959082 -33.97338867 9.2359082 -33.97338867 8.5559082 C-32.49851021 7.77690142 -31.01816868 7.00823761 -29.53588867 6.2434082 C-28.71217773 5.81415039 -27.8884668 5.38489258 -27.03979492 4.94262695 C-26.02788086 4.48500977 -25.0159668 4.02739258 -23.97338867 3.5559082 C-23.3967749 3.28609131 -22.82016113 3.01627441 -22.22607422 2.73828125 C-15.071697 -0.15133597 -7.59484062 -0.00239057 0 0 Z M-4.97338867 52.5559082 C-4.97338867 53.2159082 -4.97338867 53.8759082 -4.97338867 54.5559082 C-5.84157227 54.97356445 -5.84157227 54.97356445 -6.72729492 55.3996582 C-15.83155389 60.08637239 -19.82100767 65.89914922 -22.94213867 75.55200195 C-25.77907564 85.61258704 -25.77907564 85.61258704 -23.97338867 95.5559082 C-23.31338867 95.5559082 -22.65338867 95.5559082 -21.97338867 95.5559082 C-21.97338867 96.2159082 -21.97338867 96.8759082 -21.97338867 97.5559082 C-15.98245988 98.17475163 -15.98245988 98.17475163 -10.97338867 95.1809082 C-8.77137427 92.84078008 -8.77137427 92.84078008 -8.97338867 90.5559082 C-7.48838867 90.0609082 -7.48838867 90.0609082 -5.97338867 89.5559082 C-4.12709889 87.25492974 -4.12709889 87.25492974 -2.41088867 84.4309082 C-1.81147461 83.50020508 -1.21206055 82.56950195 -0.59448242 81.6105957 C2.41433943 75.94096031 3.32882104 70.18712328 4.08911133 63.8684082 C4.94416786 56.8371582 4.94416786 56.8371582 5.71020508 54.22387695 C5.81461914 53.67344727 5.9190332 53.12301758 6.02661133 52.5559082 C5.36661133 51.8959082 4.70661133 51.2359082 4.02661133 50.5559082 C0.23103252 50.5559082 -1.60241484 51.05769761 -4.97338867 52.5559082 Z " fill="#785649" transform="translate(122.973388671875,43.444091796875)"/>
<path d="M0 0 C0.33 0 0.66 0 1 0 C1.042721 1.66611905 1.04063832 3.33382885 1 5 C0.67 5.33 0.34 5.66 0 6 C-0.20775561 7.66204487 -0.36718255 9.33029491 -0.5 11 C-0.88888889 15.88888889 -0.88888889 15.88888889 -2 17 C-2.20877927 22.11509204 -1.70869772 26.95052873 -1 32 C-0.34 32 0.32 32 1 32 C3.625 34.375 3.625 34.375 6 37 C6 37.66 6 38.32 6 39 C9.63 39.99 13.26 40.98 17 42 C17 42.66 17 43.32 17 44 C19.31 44 21.62 44 24 44 C24 43.34 24 42.68 24 42 C29.75 39 29.75 39 32 39 C32 38.01 32 37.02 32 36 C32.66 36 33.32 36 34 36 C34 35.34 34 34.68 34 34 C34.99 34 35.98 34 37 34 C37.12375 33.21625 37.2475 32.4325 37.375 31.625 C38 29 38 29 40 27 C42.625 26.875 42.625 26.875 45 27 C46.35439668 29.70879335 46.06501451 32.00933268 46 35 C44.35 34.34 42.7 33.68 41 33 C40.33613281 33.68707031 39.67226562 34.37414062 38.98828125 35.08203125 C38.10527344 35.98308594 37.22226563 36.88414062 36.3125 37.8125 C35.44238281 38.70582031 34.57226562 39.59914062 33.67578125 40.51953125 C28.18024548 45.61393302 24.44187972 46.54577734 17.07421875 46.35546875 C10.5390869 45.59981818 4.65442223 42.65442223 0 38 C-5.22948365 30.23048143 -6.35678974 23.53198581 -5.484375 14.3203125 C-5 12 -5 12 -3 10 C-2.66073053 7.66752239 -2.32759934 5.33414529 -2 3 C-1.34 2.01 -0.68 1.02 0 0 Z " fill="#7C625A" transform="translate(87,112)"/>
<path d="M0 0 C2.6875 -0.3125 2.6875 -0.3125 6 0 C9.68415619 2.93057879 11.62753785 5.53411388 13 10 C13.11938477 13.43481445 13.11938477 13.43481445 12.94140625 17.36328125 C12.90030983 18.42774727 12.90030983 18.42774727 12.85838318 19.51371765 C12.77006608 21.78054394 12.66769199 24.04639863 12.5625 26.3125 C12.05018006 37.63687954 12.06319997 48.69607417 13 60 C11.03588867 59.16040039 11.03588867 59.16040039 9 58 C8.42578125 55.43359375 8.42578125 55.43359375 8.3125 52.4375 C8.45828926 48.90685689 8.45828926 48.90685689 7 46 C6.9010706 43.83519203 6.870289 41.66706215 6.875 39.5 C6.87242187 38.3140625 6.86984375 37.128125 6.8671875 35.90625 C7 33 7 33 8 32 C8.15786308 30.14825294 8.25107356 28.2909089 8.31640625 26.43359375 C8.35830078 25.30888672 8.40019531 24.18417969 8.44335938 23.02539062 C8.48267578 21.84138672 8.52199219 20.65738281 8.5625 19.4375 C8.60568359 18.24962891 8.64886719 17.06175781 8.69335938 15.83789062 C8.79983546 12.89205216 8.90184841 9.9461257 9 7 C8.34 7 7.68 7 7 7 C7 6.34 7 5.68 7 5 C6.01 4.67 5.02 4.34 4 4 C4 3.34 4 2.68 4 2 C2.68 1.67 1.36 1.34 0 1 C0 0.67 0 0.34 0 0 Z " fill="#806259" transform="translate(132,81)"/>
<path d="M0 0 C0.66 0.33 1.32 0.66 2 1 C2 1.99 2 2.98 2 4 C-2.22222222 7 -2.22222222 7 -5 7 C-5 7.66 -5 8.32 -5 9 C-6.375 10.625 -6.375 10.625 -8 12 C-8.66 12 -9.32 12 -10 12 C-10 12.66 -10 13.32 -10 14 C-11.375 15.625 -11.375 15.625 -13 17 C-13.66 17 -14.32 17 -15 17 C-15.309375 17.78375 -15.61875 18.5675 -15.9375 19.375 C-17 22 -17 22 -18 24 C-18.66 24 -19.32 24 -20 24 C-20.309375 24.78375 -20.61875 25.5675 -20.9375 26.375 C-22 29 -22 29 -23 31 C-23.66 31 -24.32 31 -25 31 C-24.938125 31.70125 -24.87625 32.4025 -24.8125 33.125 C-25.04256101 36.65260212 -26.29200568 38.93984351 -28 42 C-28.66 42 -29.32 42 -30 42 C-30 43.98 -30 45.96 -30 48 C-30.99 48.495 -30.99 48.495 -32 49 C-32 48.34 -32 47.68 -32 47 C-32.66 46.67 -33.32 46.34 -34 46 C-33.74605469 45.443125 -33.49210937 44.88625 -33.23046875 44.3125 C-31.5546396 40.59680391 -29.95551861 36.93788187 -28.6875 33.0625 C-26.72837693 27.76134346 -23.39334646 23.4694466 -20 19 C-19.31679687 18.07574219 -18.63359375 17.15148437 -17.9296875 16.19921875 C-12.73915419 9.47385032 -7.10502524 4.63486694 0 0 Z " fill="#866B61" transform="translate(86,54)"/>
<path d="M0 0 C0.99 0 1.98 0 3 0 C3.02505615 0.92337158 3.0501123 1.84674316 3.07592773 2.7980957 C3.17109045 6.22546416 3.27032214 9.65266461 3.37231445 13.07983398 C3.4156133 14.56286015 3.45729199 16.04593454 3.49731445 17.52905273 C3.55513958 19.66144339 3.61879832 21.79359242 3.68359375 23.92578125 C3.72025146 25.20880127 3.75690918 26.49182129 3.79467773 27.8137207 C3.86561234 31.02111551 3.86561234 31.02111551 5 34 C5.06740865 35.56118428 5.08514456 37.1250252 5.0625 38.6875 C5.05347656 39.49574219 5.04445313 40.30398437 5.03515625 41.13671875 C5.02355469 41.75160156 5.01195312 42.36648437 5 43 C5.66 43 6.32 43 7 43 C7.33 45.31 7.66 47.62 8 50 C8.66 50 9.32 50 10 50 C10 51.65 10 53.3 10 55 C8 54 8 54 7 51 C6.01 50.34 5.02 49.68 4 49 C-2.5570161 36.46881368 -1.7499556 16.79569481 -1 3 C-0.67 2.01 -0.34 1.02 0 0 Z " fill="#8D6E65" transform="translate(51,108)"/>
<path d="M0 0 C2.64 0 5.28 0 8 0 C8 0.66 8 1.32 8 2 C11.81281945 1.86184471 15.62515717 1.71319438 19.4375 1.5625 C21.07041992 1.50352539 21.07041992 1.50352539 22.73632812 1.44335938 C23.77080078 1.40146484 24.80527344 1.35957031 25.87109375 1.31640625 C26.82943115 1.27974854 27.78776855 1.24309082 28.77514648 1.20532227 C30.97138925 1.24165576 30.97138925 1.24165576 32 0 C33.64230364 -0.1245486 35.29052276 -0.17568524 36.9375 -0.1875 C37.83339844 -0.20167969 38.72929687 -0.21585938 39.65234375 -0.23046875 C42 0 42 0 44 2 C38.6124695 3.75524597 33.64935201 4.43856117 28 4.6875 C26.76672974 4.74828735 26.76672974 4.74828735 25.50854492 4.81030273 C17.94510217 5.12072892 10.53108702 4.73171996 3 4 C2.67 3.01 2.34 2.02 2 1 C1.34 0.67 0.68 0.34 0 0 Z " fill="#8C6C63" transform="translate(98,196)"/>
<path d="M0 0 C1.8125 0.890625 1.8125 0.890625 4 2.25 C14.57915347 8.25936091 24.12621879 8.37191658 36 8 C35.34 8.99 34.68 9.98 34 11 C31.87695312 11.37231445 31.87695312 11.37231445 29.28125 11.36328125 C28.34925781 11.36263672 27.41726562 11.36199219 26.45703125 11.36132812 C24.99330078 11.3371582 24.99330078 11.3371582 23.5 11.3125 C22.52417969 11.31572266 21.54835938 11.31894531 20.54296875 11.32226562 C13.26691529 11.26691529 13.26691529 11.26691529 11 9 C9.00882592 8.30741771 7.0078864 7.64252365 5 7 C3.65278717 6.36184656 2.31252882 5.70674629 1 5 C1 4.34 1 3.68 1 3 C0.01 3 -0.98 3 -2 3 C-2 2.34 -2 1.68 -2 1 C-1.34 0.67 -0.68 0.34 0 0 Z " fill="#816156" transform="translate(94,177)"/>
<path d="M0 0 C0.99 0 1.98 0 3 0 C3 0.66 3 1.32 3 2 C4.0828125 2.37125 4.0828125 2.37125 5.1875 2.75 C8.27606582 4.12269592 10.51011418 5.72353296 13 8 C13 8.66 13 9.32 13 10 C13.763125 10.12375 14.52625 10.2475 15.3125 10.375 C18 11 18 11 21 13 C21 13.66 21 14.32 21 15 C22.32 15 23.64 15 25 15 C25 15.66 25 16.32 25 17 C26.32 17.33 27.64 17.66 29 18 C29 18.66 29 19.32 29 20 C23.29970353 19.58569274 20.30104 18.19587823 15.875 14.625 C12.34222366 11.80795497 8.88127891 9.30512504 5 7 C2.1875 4.4375 2.1875 4.4375 0 2 C0 1.34 0 0.68 0 0 Z " fill="#886A63" transform="translate(68,176)"/>
<path d="M0 0 C0.6875 1.8125 0.6875 1.8125 1 4 C-0.3125 5.75 -0.3125 5.75 -2 7 C-2.66 7 -3.32 7 -4 7 C-4.33 7.99 -4.66 8.98 -5 10 C-5.66 10 -6.32 10 -7 10 C-7 10.66 -7 11.32 -7 12 C-9.93804996 12.08086376 -12.87388075 12.1404283 -15.8125 12.1875 C-17.06256836 12.22520508 -17.06256836 12.22520508 -18.33789062 12.26367188 C-19.54155273 12.27817383 -19.54155273 12.27817383 -20.76953125 12.29296875 C-21.87711792 12.31653442 -21.87711792 12.31653442 -23.00708008 12.34057617 C-25.52230522 11.91074167 -26.39441516 10.92536938 -28 9 C-27.67 8.34 -27.34 7.68 -27 7 C-26.34 7.66 -25.68 8.32 -25 9 C-22.06915347 9.0971082 -22.06915347 9.0971082 -18.75 8.75 C-17.63109375 8.66234375 -16.5121875 8.5746875 -15.359375 8.484375 C-10.71203183 7.81429296 -5.98417286 6.56125398 -2 4 C-0.73195434 1.9664052 -0.73195434 1.9664052 0 0 Z " fill="#795B51" transform="translate(172,136)"/>
<path d="M0 0 C0.66 0 1.32 0 2 0 C2.6875 1.6875 2.6875 1.6875 3 4 C-0.156236 10.47858969 -4.35160588 15.24028923 -11 18 C-12.32 18 -13.64 18 -15 18 C-14.505 16.515 -14.505 16.515 -14 15 C-13.01 15 -12.02 15 -11 15 C-11 14.34 -11 13.68 -11 13 C-10.01 13 -9.02 13 -8 13 C-8 12.01 -8 11.02 -8 10 C-7.34 10 -6.68 10 -6 10 C-6 9.34 -6 8.68 -6 8 C-5.34 8 -4.68 8 -4 8 C-3.67 7.01 -3.34 6.02 -3 5 C-2.34 5 -1.68 5 -1 5 C-0.67 3.35 -0.34 1.7 0 0 Z " fill="#87665C" transform="translate(182,141)"/>
<path d="M0 0 C1.03060547 0.00193359 2.06121094 0.00386719 3.12304688 0.00585938 C4.18974609 0.01810547 5.25644531 0.03035156 6.35546875 0.04296875 C7.41056641 0.04361328 8.46566406 0.04425781 9.55273438 0.04492188 C15.30453363 0.07717495 20.8548858 0.37279641 26.54296875 1.23046875 C26.54296875 1.56046875 26.54296875 1.89046875 26.54296875 2.23046875 C25.76058838 2.2555249 24.97820801 2.28058105 24.17211914 2.30639648 C20.64971926 2.42196663 17.12761315 2.54486824 13.60546875 2.66796875 C12.37376953 2.70728516 11.14207031 2.74660156 9.87304688 2.78710938 C8.11831055 2.84995117 8.11831055 2.84995117 6.328125 2.9140625 C4.70209351 2.96904907 4.70209351 2.96904907 3.04321289 3.02514648 C0.60370575 2.9541114 0.60370575 2.9541114 -0.45703125 4.23046875 C-1.97631163 4.30226839 -3.49870607 4.31438882 -5.01953125 4.29296875 C-5.84582031 4.28394531 -6.67210938 4.27492188 -7.5234375 4.265625 C-8.16152344 4.25402344 -8.79960938 4.24242187 -9.45703125 4.23046875 C-9.78703125 3.57046875 -10.11703125 2.91046875 -10.45703125 2.23046875 C-6.8172816 0.56885286 -3.99185246 -0.01766766 0 0 Z " fill="#857068" transform="translate(113.45703125,43.76953125)"/>
<path d="M0 0 C0.99 0 1.98 0 3 0 C1.96433355 2.09042353 0.91149382 4.16649677 -0.18359375 6.2265625 C-3.20588722 12.00752259 -5.3491855 17.69200964 -7 24 C-7.66 24 -8.32 24 -9 24 C-9 21.03 -9 18.06 -9 15 C-8.34 15 -7.68 15 -7 15 C-7.061875 14.278125 -7.12375 13.55625 -7.1875 12.8125 C-6.96253379 9.43800685 -6.00130237 7.69406089 -4 5 C-3.34 5 -2.68 5 -2 5 C-2 4.01 -2 3.02 -2 2 C-1.34 2 -0.68 2 0 2 C0 1.34 0 0.68 0 0 Z " fill="#7B6057" transform="translate(106,102)"/>
<path d="M0 0 C0.33 0 0.66 0 1 0 C1.042721 1.66611905 1.04063832 3.33382885 1 5 C0.67 5.33 0.34 5.66 0 6 C-0.20775561 7.66204487 -0.36718255 9.33029491 -0.5 11 C-0.88888889 15.88888889 -0.88888889 15.88888889 -2 17 C-2.03165882 19.52366033 -1.93175288 22.03270105 -1.83984375 24.5546875 C-2 27 -2 27 -4 30 C-6.29587558 23.92268229 -6.31074241 18.37401347 -5 12 C-4.34 11.34 -3.68 10.68 -3 10 C-2.66073053 7.66752239 -2.32759934 5.33414529 -2 3 C-1.34 2.01 -0.68 1.02 0 0 Z " fill="#765F57" transform="translate(87,112)"/>
<path d="M0 0 C0.66 0 1.32 0 2 0 C2.13277344 1.04800781 2.26554687 2.09601563 2.40234375 3.17578125 C2.58057235 4.55470778 2.75896641 5.93361293 2.9375 7.3125 C3.02451172 8.00279297 3.11152344 8.69308594 3.20117188 9.40429688 C3.59210135 12.40142288 4.0415004 15.12450119 5 18 C5.66 18.33 6.32 18.66 7 19 C7.40729228 21.32156597 7.74438677 23.6568787 8 26 C8.66 26 9.32 26 10 26 C10 27.65 10 29.3 10 31 C8 30 8 30 7 27 C6.01 26.34 5.02 25.68 4 25 C0.22859605 17.34437232 0.3225635 8.34215937 0 0 Z " fill="#7E6056" transform="translate(51,132)"/>
<path d="M0 0 C0 0.99 0 1.98 0 3 C-1.98689731 4.35278115 -3.98745218 5.68568305 -6 7 C-6.33 7.99 -6.66 8.98 -7 10 C-7.66 10 -8.32 10 -9 10 C-9 10.66 -9 11.32 -9 12 C-9.99 12.495 -9.99 12.495 -11 13 C-11.65213292 15.02463255 -11.65213292 15.02463255 -12 17 C-12.66 17 -13.32 17 -14 17 C-14.33 18.32 -14.66 19.64 -15 21 C-15.33 21 -15.66 21 -16 21 C-16.45647158 15.29410528 -15.69917584 12.39901992 -12 8 C-9.6875 6.4375 -9.6875 6.4375 -7 5 C-4.63548507 3.37439598 -2.32284988 1.68520481 0 0 Z " fill="#886E65" transform="translate(105,88)"/>
<path d="M0 0 C0.66 0 1.32 0 2 0 C2 3.3 2 6.6 2 10 C2.66 10 3.32 10 4 10 C4.33 14.29 4.66 18.58 5 23 C3.68 22.34 2.36 21.68 1 21 C0.67 14.07 0.34 7.14 0 0 Z " fill="#836C63" transform="translate(140,118)"/>
<path d="M0 0 C0.66 0.66 1.32 1.32 2 2 C-4.34823202 4.30844801 -10.29481414 4.19818283 -17 4 C-17 3.34 -17 2.68 -17 2 C-11.38329484 0.04636342 -5.95018369 -0.73969377 0 0 Z " fill="#876C64" transform="translate(140,196)"/>
<path d="M0 0 C5.75 -0.125 5.75 -0.125 8 1 C8 1.66 8 2.32 8 3 C8.61875 3.2475 9.2375 3.495 9.875 3.75 C12.35068687 5.20628639 12.95125002 6.37812506 14 9 C13.01 9.33 12.02 9.66 11 10 C11 9.34 11 8.68 11 8 C10.01 7.67 9.02 7.34 8 7 C8 6.34 8 5.68 8 5 C6.865625 4.731875 5.73125 4.46375 4.5625 4.1875 C3.386875 3.795625 2.21125 3.40375 1 3 C0.67 2.01 0.34 1.02 0 0 Z " fill="#775F57" transform="translate(160,56)"/>
<path d="M0 0 C0.99 0.33 1.98 0.66 3 1 C3.33 1.99 3.66 2.98 4 4 C4.66 4.33 5.32 4.66 6 5 C6 5.66 6 6.32 6 7 C7.65 7 9.3 7 11 7 C11 7.66 11 8.32 11 9 C14.3 9 17.6 9 21 9 C21 9.33 21 9.66 21 10 C18.58265458 10.08117951 16.16805051 10.14056926 13.75 10.1875 C13.06808594 10.21263672 12.38617188 10.23777344 11.68359375 10.26367188 C8.57583372 10.30893052 6.36095967 10.19219931 3.59375 8.71875 C1.21803325 6.15670252 0.75813283 3.34842001 0 0 Z " fill="#84685E" transform="translate(133,149)"/>
<path d="M0 0 C0.66 0.66 1.32 1.32 2 2 C1.58279051 6.48500198 0.28941817 10.70193944 -1 15 C-1.99 15 -2.98 15 -4 15 C-4 13.35 -4 11.7 -4 10 C-3.34 10 -2.68 10 -2 10 C-2.04125 8.906875 -2.0825 7.81375 -2.125 6.6875 C-2 3 -2 3 0 0 Z " fill="#836B60" transform="translate(188,125)"/>
<path d="M0 0 C1.07636719 0.00322266 2.15273437 0.00644531 3.26171875 0.00976562 C4.38964844 0.01814453 5.51757812 0.02652344 6.6796875 0.03515625 C7.81535156 0.03966797 8.95101562 0.04417969 10.12109375 0.04882812 C12.93234388 0.0606401 15.7434898 0.07711118 18.5546875 0.09765625 C18.5546875 0.42765625 18.5546875 0.75765625 18.5546875 1.09765625 C14.2646875 1.09765625 9.9746875 1.09765625 5.5546875 1.09765625 C5.5546875 1.75765625 5.5546875 2.41765625 5.5546875 3.09765625 C3.95089409 3.15181813 2.34657344 3.19052263 0.7421875 3.22265625 C-0.15113281 3.24585938 -1.04445313 3.2690625 -1.96484375 3.29296875 C-4.4453125 3.09765625 -4.4453125 3.09765625 -7.4453125 1.09765625 C-4.83580014 -0.20709993 -2.91829965 -0.01535947 0 0 Z " fill="#8C6E62" transform="translate(119.4453125,56.90234375)"/>
<path d="M0 0 C0.66 0.99 1.32 1.98 2 3 C-1.32851768 6.01343955 -3.81882813 6.44667544 -8.25 6.6875 C-9.32765625 6.75324219 -10.4053125 6.81898438 -11.515625 6.88671875 C-12.74539062 6.94279297 -12.74539062 6.94279297 -14 7 C-14 6.01 -14 5.02 -14 4 C-13.40832031 3.96261719 -12.81664062 3.92523438 -12.20703125 3.88671875 C-7.39332549 3.48623099 -3.99158223 2.9614965 0 0 Z " fill="#917068" transform="translate(155,189)"/>
<path d="M0 0 C0.99 0.33 1.98 0.66 3 1 C3 7.93 3 14.86 3 22 C2.67 22 2.34 22 2 22 C2 19.03 2 16.06 2 13 C1.34 13 0.68 13 0 13 C0 8.71 0 4.42 0 0 Z " fill="#87706C" transform="translate(188,100)"/>
<path d="M0 0 C0.99 0.33 1.98 0.66 3 1 C3 1.99 3 2.98 3 4 C3.66 4 4.32 4 5 4 C6.42944945 6.35438733 7.08661261 7.48032433 6.625 10.25 C6.41875 10.8275 6.2125 11.405 6 12 C2.31993178 8.61831569 0.0214155 5.57478244 -2 1 C-1.34 0.67 -0.68 0.34 0 0 Z " fill="#836A62" transform="translate(61,164)"/>
<path d="M0 0 C0.99 0.66 1.98 1.32 3 2 C3.36792655 6.56228926 3.61838609 10.07242087 1 14 C0.4375 12.0625 0.4375 12.0625 0 10 C0.33 9.67 0.66 9.34 1 9 C1.04063832 7.33382885 1.042721 5.66611905 1 4 C-2.01031744 3.06576355 -2.86650268 2.95550089 -6 4 C-6.99 3.67 -7.98 3.34 -9 3 C-9 2.34 -9 1.68 -9 1 C-5.98131566 -0.50934217 -3.32702771 -0.17510672 0 0 Z " fill="#89695F" transform="translate(128,91)"/>
<path d="M0 0 C0.99 0 1.98 0 3 0 C6.42857143 8.42857143 6.42857143 8.42857143 6 13 C5.01 13 4.02 13 3 13 C1.06729553 11.06729553 1.34625749 7.59693119 1 5 C0.68033861 3.33065717 0.35268934 1.6626783 0 0 Z " fill="#87695D" transform="translate(184,79)"/>
<path d="M0 0 C2.20160479 0.73386826 4.40274276 1.46874913 6.6015625 2.2109375 C8.55325209 2.8530243 10.52445604 3.43555887 12.5 4 C13.325 4.33 14.15 4.66 15 5 C15.33 5.99 15.66 6.98 16 8 C16.66 8.66 17.32 9.32 18 10 C14.62537285 9.45276317 12.91765 8.9451 10 7 C10 6.34 10 5.68 10 5 C9.278125 4.855625 8.55625 4.71125 7.8125 4.5625 C5.20833333 4.04166667 2.60416667 3.52083333 0 3 C0 2.01 0 1.02 0 0 Z " fill="#836B60" transform="translate(141,46)"/>
<path d="M0 0 C1.485 0.99 1.485 0.99 3 2 C5.27981764 2.20463709 5.27981764 2.20463709 7.75 2.0625 C11.98062562 1.96945105 15.83615369 2.27585281 20 3 C17.52614329 5.47385671 16.02495772 5.28571102 12.63867188 5.32226562 C11.6109668 5.31743164 11.6109668 5.31743164 10.5625 5.3125 C9.5405957 5.33666992 9.5405957 5.33666992 8.49804688 5.36132812 C5.5215656 5.36424339 3.49972531 5.35327116 1.02734375 3.60546875 C0 2 0 2 0 0 Z " fill="#92675D" transform="translate(144,143)"/>
<path d="M0 0 C2 1 4 2 6 3 C6 6.63 6 10.26 6 14 C4.68 13.34 3.36 12.68 2 12 C2 11.34 2 10.68 2 10 C2.66 10 3.32 10 4 10 C4 8.68 4 7.36 4 6 C3.34 6 2.68 6 2 6 C2 5.34 2 4.68 2 4 C1.34 4 0.68 4 0 4 C0 2.68 0 1.36 0 0 Z " fill="#7F6157" transform="translate(152,178)"/>
<path d="M0 0 C1.32 0.33 2.64 0.66 4 1 C1.96209491 3.11867572 -0.12604155 4.95388561 -2.5 6.6875 C-3.0878125 7.12449219 -3.675625 7.56148438 -4.28125 8.01171875 C-6 9 -6 9 -9 9 C-9 8.34 -9 7.68 -9 7 C-8.34 7 -7.68 7 -7 7 C-7 6.01 -7 5.02 -7 4 C-4.35261084 2.5393715 -3.10551666 2 0 2 C0 1.34 0 0.68 0 0 Z " fill="#826257" transform="translate(94,65)"/>
<path d="M0 0 C0 0.66 0 1.32 0 2 C-1.65 2.33 -3.3 2.66 -5 3 C-5 3.66 -5 4.32 -5 5 C-9.455 6.485 -9.455 6.485 -14 8 C-12.19587357 4.73539027 -11.16605307 3.11070205 -8 1 C-5.2133692 0.3033423 -2.88120712 0 0 0 Z " fill="#876D63" transform="translate(103,48)"/>
<path d="M0 0 C0.66 0.33 1.32 0.66 2 1 C2 1.99 2 2.98 2 4 C-2.25175426 7.03696733 -6.91967448 8.87103877 -12 10 C-8.29909479 6.0747975 -4.45040344 3.05419844 0 0 Z " fill="#84685F" transform="translate(86,54)"/>
<path d="M0 0 C0.99 0 1.98 0 3 0 C3 0.66 3 1.32 3 2 C2.34 2 1.68 2 1 2 C-0.86551426 5.58752742 -2.42535928 9.27812193 -4 13 C-4.99 13 -5.98 13 -7 13 C-6.37240135 10.07120629 -5.41377341 7.63904371 -4 5 C-3.34 5 -2.68 5 -2 5 C-2 4.34 -2 3.68 -2 3 C-1.34 3 -0.68 3 0 3 C0 2.01 0 1.02 0 0 Z " fill="#826257" transform="translate(79,77)"/>
<path d="M0 0 C1.59134766 -0.02126953 1.59134766 -0.02126953 3.21484375 -0.04296875 C6.0625 0.1875 6.0625 0.1875 9.0625 2.1875 C4.7725 2.1875 0.4825 2.1875 -3.9375 2.1875 C-3.9375 2.8475 -3.9375 3.5075 -3.9375 4.1875 C-5.2575 3.8575 -6.5775 3.5275 -7.9375 3.1875 C-7.9375 2.5275 -7.9375 1.8675 -7.9375 1.1875 C-5.2264923 -0.16800385 -3.02410831 0.01832793 0 0 Z " fill="#7F645B" transform="translate(121.9375,78.8125)"/>
<path d="M0 0 C2.475 0.99 2.475 0.99 5 2 C5 2.66 5 3.32 5 4 C5.99 4.33 6.98 4.66 8 5 C8 5.66 8 6.32 8 7 C8.66 7 9.32 7 10 7 C10 7.66 10 8.32 10 9 C10.99 9.33 11.98 9.66 13 10 C13 11.32 13 12.64 13 14 C10 13 10 13 8.75 10.875 C6.70981636 7.52326973 4.25301012 5.14572393 1.42578125 2.453125 C0 1 0 1 0 0 Z " fill="#816459" transform="translate(160,70)"/>
<path d="M0 0 C0.66 0 1.32 0 2 0 C2.22142255 1.95689659 2.4267568 3.91561952 2.625 5.875 C2.74101562 6.96554688 2.85703125 8.05609375 2.9765625 9.1796875 C2.98429688 10.11039063 2.99203125 11.04109375 3 12 C2.34 12.66 1.68 13.32 1 14 C0.67 13.67 0.34 13.34 0 13 C-0.66 13.66 -1.32 14.32 -2 15 C-2 13.68 -2 12.36 -2 11 C-1.34 11 -0.68 11 0 11 C0 7.37 0 3.74 0 0 Z " fill="#705A52" transform="translate(188,113)"/>
<path d="M0 0 C0.33 0 0.66 0 1 0 C0.29270211 6.01203207 -1.23399583 10.66556339 -4 16 C-4.66 16 -5.32 16 -6 16 C-6.33 16.99 -6.66 17.98 -7 19 C-7.33 18.34 -7.66 17.68 -8 17 C-6.8203125 14.46875 -6.8203125 14.46875 -5.125 11.5 C-4.57070312 10.5203125 -4.01640625 9.540625 -3.4453125 8.53125 C-2.96835938 7.6959375 -2.49140625 6.860625 -2 6 C-1.67 5.34 -1.34 4.68 -1 4 C-1.66 3.67 -2.32 3.34 -3 3 C-2.01 2.67 -1.02 2.34 0 2 C0 1.34 0 0.68 0 0 Z " fill="#87695E" transform="translate(127,114)"/>
<path d="M0 0 C1 3 1 3 0 6 C-0.66 6 -1.32 6 -2 6 C-2 7.98 -2 9.96 -2 12 C-2.99 12.495 -2.99 12.495 -4 13 C-4 12.34 -4 11.68 -4 11 C-4.66 10.67 -5.32 10.34 -6 10 C-5.38302681 8.51746733 -4.75616104 7.03904826 -4.125 5.5625 C-3.60292969 4.32693359 -3.60292969 4.32693359 -3.0703125 3.06640625 C-2 1 -2 1 0 0 Z " fill="#876F65" transform="translate(58,90)"/>
<path d="M0 0 C1.9375 0.3125 1.9375 0.3125 4 1 C4.33 1.99 4.66 2.98 5 4 C3.329375 4.2165625 3.329375 4.2165625 1.625 4.4375 C-1.82142047 4.78372035 -1.82142047 4.78372035 -4 6 C-4.66 5.67 -5.32 5.34 -6 5 C-6 4.01 -6 3.02 -6 2 C-4.02 2 -2.04 2 0 2 C0 1.34 0 0.68 0 0 Z " fill="#7B5F56" transform="translate(110,57)"/>
<path d="M0 0 C0.33 1.32 0.66 2.64 1 4 C-2.44069624 6.29379749 -3.72290301 7 -8 7 C-7.67 6.01 -7.34 5.02 -7 4 C-6.01 4 -5.02 4 -4 4 C-4 3.34 -4 2.68 -4 2 C-2.68 1.34 -1.36 0.68 0 0 Z " fill="#8E6F65" transform="translate(175,152)"/>
<path d="M0 0 C0 3 0 3 -2.3125 5.5 C-3.199375 6.325 -4.08625 7.15 -5 8 C-5.7425 8.8971875 -5.7425 8.8971875 -6.5 9.8125 C-8.6446571 11.51035354 -10.34994106 11.21486964 -13 11 C-13 10.34 -13 9.68 -13 9 C-11.453125 8.443125 -11.453125 8.443125 -9.875 7.875 C-5.60696844 6.07564657 -3.09606034 3.39811501 0 0 Z " fill="#866A5F" transform="translate(117,134)"/>
<path d="M0 0 C5.75 1.625 5.75 1.625 8 5 C8 6.32 8 7.64 8 9 C7.01 8.67 6.02 8.34 5 8 C5 7.01 5 6.02 5 5 C4.01 4.67 3.02 4.34 2 4 C2 3.34 2 2.68 2 2 C1.34 2 0.68 2 0 2 C0 1.34 0 0.68 0 0 Z " fill="#88695F" transform="translate(176,69)"/>
<path d="M0 0 C1.65 0 3.3 0 5 0 C6.35439668 2.70879335 6.06501451 5.00933268 6 8 C5.01 7.34 4.02 6.68 3 6 C3 5.34 3 4.68 3 4 C2.01 3.67 1.02 3.34 0 3 C0 2.01 0 1.02 0 0 Z " fill="#8B6E63" transform="translate(127,139)"/>
<path d="M0 0 C0.99 0 1.98 0 3 0 C3 0.66 3 1.32 3 2 C5.475 2.99 5.475 2.99 8 4 C7.67 4.99 7.34 5.98 7 7 C4.13302508 5.71480435 2.02392288 4.42870746 0 2 C0 1.34 0 0.68 0 0 Z " fill="#7E655D" transform="translate(68,176)"/>
<path d="M0 0 C0.99 0 1.98 0 3 0 C1.66666667 2.66666667 0.33333333 5.33333333 -1 8 C-1.99 8 -2.98 8 -4 8 C-4 7.01 -4 6.02 -4 5 C-3.34 5 -2.68 5 -2 5 C-2 4.01 -2 3.02 -2 2 C-1.34 2 -0.68 2 0 2 C0 1.34 0 0.68 0 0 Z " fill="#8B6B59" transform="translate(106,102)"/>
<path d="M0 0 C3.53586843 0.57760323 5.20958289 1.8272067 7.6875 4.375 C8.28949219 4.98085937 8.89148438 5.58671875 9.51171875 6.2109375 C11 8 11 8 12 11 C8.8471507 9.63513017 7.02974498 8.16240741 4.875 5.5 C3.29700469 3.5704306 1.76541706 1.76541706 0 0 Z " fill="#6C534B" transform="translate(159,72)"/>
<path d="M0 0 C3.14737182 0.69941596 6.02588876 1.76078698 9 3 C9 3.66 9 4.32 9 5 C6 6 6 6 2.8125 4.5625 C1.884375 4.046875 0.95625 3.53125 0 3 C0 2.01 0 1.02 0 0 Z " fill="#7F6056" transform="translate(149,64)"/>
<path d="M0 0 C0 0.66 0 1.32 0 2 C-8.42857143 5.42857143 -8.42857143 5.42857143 -13 5 C-9.08944645 1.69107007 -5.15517315 0 0 0 Z " fill="#86685D" transform="translate(148,180)"/>
<path d="M0 0 C0.33 0.66 0.66 1.32 1 2 C3.02463255 2.65213292 3.02463255 2.65213292 5 3 C5 3.66 5 4.32 5 5 C2.69 5.33 0.38 5.66 -2 6 C-1.125 1.125 -1.125 1.125 0 0 Z " fill="#7F665D" transform="translate(126,140)"/>
<path d="M0 0 C0.66 0.33 1.32 0.66 2 1 C2 3.64 2 6.28 2 9 C1.01 8.67 0.02 8.34 -1 8 C-1.04241723 5.66705225 -1.04092937 3.33297433 -1 1 C-0.67 0.67 -0.34 0.34 0 0 Z " fill="#6D5A51" transform="translate(189,92)"/>
<path d="M0 0 C3.91593446 0.78318689 7.36406635 2.39179858 11 4 C11 4.33 11 4.66 11 5 C7.75 5.3125 7.75 5.3125 4 5 C1.5625 2.5 1.5625 2.5 0 0 Z " fill="#8A6F66" transform="translate(92,151)"/>
<path d="M0 0 C1.32 1.65 2.64 3.3 4 5 C3.34 6.65 2.68 8.3 2 10 C1.34 10 0.68 10 0 10 C0 6.7 0 3.4 0 0 Z " fill="#836459" transform="translate(64,128)"/>
<path d="M0 0 C2.8125 -0.3125 2.8125 -0.3125 6 0 C7.88599343 2.38892501 9 3.91851558 9 7 C8.34 7 7.68 7 7 7 C7 6.34 7 5.68 7 5 C6.01 4.67 5.02 4.34 4 4 C4 3.34 4 2.68 4 2 C2.68 1.67 1.36 1.34 0 1 C0 0.67 0 0.34 0 0 Z " fill="#856A61" transform="translate(132,81)"/>
<path d="M0 0 C0.66 0.66 1.32 1.32 2 2 C1.625 4.625 1.625 4.625 1 7 C0.01 7.33 -0.98 7.66 -2 8 C-1.125 1.125 -1.125 1.125 0 0 Z " fill="#8C7368" transform="translate(188,125)"/>
<path d="M0 0 C2.31 1.98 4.62 3.96 7 6 C3.79604584 6 1.90600261 5.25664978 -1 4 C-0.67 2.68 -0.34 1.36 0 0 Z " fill="#9C5249" transform="translate(174,64)"/>
<path d="M0 0 C2.97 0 5.94 0 9 0 C9 0.66 9 1.32 9 2 C2.25 3.125 2.25 3.125 0 2 C0 1.34 0 0.68 0 0 Z " fill="#A2635B" transform="translate(114,198)"/>
<path d="M0 0 C0.33 0 0.66 0 1 0 C1.46192125 4.92715996 -0.1724717 8.50732625 -2 13 C-3.24964981 9.25105057 -2.75598428 6.84864723 -2 3 C-1.34 2.01 -0.68 1.02 0 0 Z " fill="#886E65" transform="translate(87,112)"/>
<path d="M0 0 C1.32 0.33 2.64 0.66 4 1 C3.34 1 2.68 1 2 1 C1.67 2.32 1.34 3.64 1 5 C-0.65 5 -2.3 5 -4 5 C-4 4.34 -4 3.68 -4 3 C-3.01 3 -2.02 3 -1 3 C-0.67 2.01 -0.34 1.02 0 0 Z " fill="#80655A" transform="translate(113,96)"/>
<path d="M0 0 C0.66 0 1.32 0 2 0 C2 1.32 2 2.64 2 4 C2.66 4 3.32 4 4 4 C4 5.65 4 7.3 4 9 C2 8 2 8 1 5 C0.34 4.67 -0.32 4.34 -1 4 C-0.67 2.68 -0.34 1.36 0 0 Z " fill="#886F66" transform="translate(57,154)"/>
<path d="M0 0 C1.98 0.495 1.98 0.495 4 1 C3.34 2.98 2.68 4.96 2 7 C1.01 7 0.02 7 -1 7 C-0.67 4.69 -0.34 2.38 0 0 Z " fill="#786259" transform="translate(52,101)"/>
<path d="M0 0 C0.99 0.33 1.98 0.66 3 1 C3 2.98 3 4.96 3 7 C2.01 7.33 1.02 7.66 0 8 C0 5.36 0 2.72 0 0 Z " fill="#8C6A5F" transform="translate(188,100)"/>
<path d="M0 0 C0.99 0.33 1.98 0.66 3 1 C-1.455 4.465 -1.455 4.465 -6 8 C-6.66 7.67 -7.32 7.34 -8 7 C-6.74057614 5.80040625 -5.46704714 4.61560557 -4.1875 3.4375 C-3.12595703 2.44556641 -3.12595703 2.44556641 -2.04296875 1.43359375 C-1.36878906 0.96050781 -0.69460937 0.48742187 0 0 Z " fill="#796158" transform="translate(102,88)"/>
<path d="M0 0 C1.32 0 2.64 0 4 0 C4 0.66 4 1.32 4 2 C5.32 2.33 6.64 2.66 8 3 C8 3.66 8 4.32 8 5 C6.68 5 5.36 5 4 5 C1.75 2.5 1.75 2.5 0 0 Z " fill="#8C7168" transform="translate(89,191)"/>
<path d="M0 0 C1.485 0.99 1.485 0.99 3 2 C4.9896995 2.39013716 6.99019869 2.73202649 9 3 C9 3.66 9 4.32 9 5 C3.5 5.36666667 3.5 5.36666667 1.125 3.625 C0 2 0 2 0 0 Z " fill="#856A60" transform="translate(144,143)"/>
<path d="M0 0 C2 3 2 3 2 5 C1.34 5 0.68 5 0 5 C-0.33 6.32 -0.66 7.64 -1 9 C-1.33 9 -1.66 9 -2 9 C-2.125 5.625 -2.125 5.625 -2 2 C-1.34 1.34 -0.68 0.68 0 0 Z " fill="#8B665D" transform="translate(91,100)"/>
<path d="M0 0 C2.3125 -0.3125 2.3125 -0.3125 5 0 C6.8125 2.5 6.8125 2.5 8 5 C4.5625 4.1875 4.5625 4.1875 1 3 C0.67 2.01 0.34 1.02 0 0 Z " fill="#84695D" transform="translate(160,56)"/>
<path d="M0 0 C0.6875 1.8125 0.6875 1.8125 1 4 C-0.3125 5.75 -0.3125 5.75 -2 7 C-2.66 7 -3.32 7 -4 7 C-4 6.01 -4 5.02 -4 4 C-3.34 4 -2.68 4 -2 4 C-1.34 2.68 -0.68 1.36 0 0 Z " fill="#816156" transform="translate(172,136)"/>
<path d="M0 0 C2.31 0 4.62 0 7 0 C6.67 0.66 6.34 1.32 6 2 C5.01 2 4.02 2 3 2 C3 2.66 3 3.32 3 4 C2.01 4.33 1.02 4.66 0 5 C0 3.35 0 1.7 0 0 Z " fill="#725C52" transform="translate(115,94)"/>
<path d="M0 0 C0.66 0.33 1.32 0.66 2 1 C0.75 3 0.75 3 -1 5 C-2.32 5 -3.64 5 -5 5 C-4 2 -4 2 -2.0625 0.75 C-1.381875 0.5025 -0.70125 0.255 0 0 Z " fill="#836A60" transform="translate(117,151)"/>
<path d="M0 0 C0.66 0.33 1.32 0.66 2 1 C1.67 3.31 1.34 5.62 1 8 C0.34 8 -0.32 8 -1 8 C-1.04241723 5.66705225 -1.04092937 3.33297433 -1 1 C-0.67 0.67 -0.34 0.34 0 0 Z " fill="#7E685D" transform="translate(98,118)"/>
</svg>
