<?xml version="1.0" encoding="UTF-8"?>
<svg version="1.1" xmlns="http://www.w3.org/2000/svg" width="225" height="231">
<path d="M0 0 C2.9375 0.5625 2.9375 0.5625 4.640625 2.26953125 C6.25764018 5.12853097 6.09053877 6.59605032 5.625 9.8125 C5.50511719 10.70453125 5.38523438 11.5965625 5.26171875 12.515625 C5.15472656 13.19109375 5.04773438 13.8665625 4.9375 14.5625 C5.65035156 14.22476562 6.36320313 13.88703125 7.09765625 13.5390625 C8.05542969 13.09304687 9.01320312 12.64703125 10 12.1875 C10.93972656 11.74664062 11.87945312 11.30578125 12.84765625 10.8515625 C20.47710602 7.66860621 28.14428382 6.77298824 36.28710938 5.8828125 C41.98624666 5.16171389 45.38344619 4.05582699 49.9375 0.5625 C52.625 0.0625 52.625 0.0625 54.9375 0.5625 C56.64453125 2.30078125 56.64453125 2.30078125 57.9375 4.5625 C57.00443571 15.81758797 48.81003715 26.14438387 40.9375 33.5625 C33.28483676 39.74122964 25.35618606 42.34876503 15.9375 44.5625 C16.659375 45.490625 17.38125 46.41875 18.125 47.375 C29.60912872 63.45930528 32.82461602 87.19168104 30.5078125 106.6171875 C28.52102277 116.87773172 25.61093773 126.72249238 19.9375 135.5625 C19.009375 137.2640625 19.009375 137.2640625 18.0625 139 C13.08054044 147.57452801 7.5756803 154.23941509 -0.0625 160.5625 C-1.3569858 161.7051475 -2.6487285 162.8509113 -3.9375 164 C-5.31177266 165.18834166 -6.68682039 166.37578737 -8.0625 167.5625 C-9.24199219 168.61244141 -9.24199219 168.61244141 -10.4453125 169.68359375 C-25.904562 182.99700713 -44.11751757 190.64451967 -63.94921875 194.6875 C-67.26179989 195.36762113 -70.46346699 196.21989421 -73.6875 197.25 C-78.86446995 198.87604319 -83.91780847 199.42571462 -89.30859375 199.76953125 C-90.46488281 199.84558594 -91.62117188 199.92164063 -92.8125 200 C-93.90046875 200.06058594 -94.9884375 200.12117187 -96.109375 200.18359375 C-98.9985343 200.38427304 -98.9985343 200.38427304 -101.09375 201.60546875 C-109.27643323 205.58316199 -123.69655495 200.15341312 -132.0625 197.5625 C-139.75518188 194.69387411 -145.10862945 190.95359453 -149.08984375 183.6875 C-152.33265472 176.27536063 -152.02926049 167.95658857 -149.22265625 160.4375 C-147.48760812 157.63338181 -145.35314226 157.03472733 -142.37890625 155.82421875 C-134.50968237 151.53794672 -129.36807649 142.98349663 -125.43359375 135.21484375 C-122.73882192 130.00188059 -119.99231796 124.8490453 -115.0625 121.5625 C-114.35002268 119.9148962 -113.68849617 118.24486471 -113.0625 116.5625 C-112.381875 115.4796875 -112.381875 115.4796875 -111.6875 114.375 C-109.7599572 111.03886823 -108.42191355 107.6146236 -107.03125 104.02734375 C-106.26520087 102.07824293 -105.42638825 100.15775322 -104.5625 98.25 C-103.26082231 95.05004235 -102.23670214 91.93024914 -101.25 88.625 C-95.64683238 70.1600158 -88.43798523 48.68600394 -70.4375 38.7421875 C-69.65375 38.35289063 -68.87 37.96359375 -68.0625 37.5625 C-66.94875 36.98757812 -65.835 36.41265625 -64.6875 35.8203125 C-50.11042026 28.50130055 -31.04471296 23.36898814 -14.90625 28.58203125 C-14.2978125 28.90558594 -13.689375 29.22914062 -13.0625 29.5625 C-9.78326046 23.50851931 -7.9791455 18.23024503 -7.625 11.375 C-7.37830579 7.62240148 -7.13448643 5.70114054 -5.375 2.3125 C-3.0625 0.5625 -3.0625 0.5625 0 0 Z " fill="#FEC007" transform="translate(162.0625,17.4375)"/>
<path d="M0 0 C2.9375 0.5625 2.9375 0.5625 4.640625 2.26953125 C6.25764018 5.12853097 6.09053877 6.59605032 5.625 9.8125 C5.50511719 10.70453125 5.38523437 11.5965625 5.26171875 12.515625 C5.15472656 13.19109375 5.04773438 13.8665625 4.9375 14.5625 C5.65035156 14.22476562 6.36320312 13.88703125 7.09765625 13.5390625 C8.05542969 13.09304687 9.01320313 12.64703125 10 12.1875 C10.93972656 11.74664062 11.87945312 11.30578125 12.84765625 10.8515625 C20.47710602 7.66860621 28.14428382 6.77298824 36.28710938 5.8828125 C41.98624666 5.16171389 45.38344619 4.05582699 49.9375 0.5625 C52.625 0.0625 52.625 0.0625 54.9375 0.5625 C56.64453125 2.30078125 56.64453125 2.30078125 57.9375 4.5625 C57.00443571 15.81758797 48.81003715 26.14438387 40.9375 33.5625 C33.28483676 39.74122964 25.35618606 42.34876503 15.9375 44.5625 C17.0203125 45.9546875 17.0203125 45.9546875 18.125 47.375 C29.60912872 63.45930528 32.82461602 87.19168104 30.5078125 106.6171875 C28.54129189 116.77305421 25.74087242 126.89448417 19.9375 135.5625 C18.9475 135.2325 17.9575 134.9025 16.9375 134.5625 C17.2675 131.2625 17.5975 127.9625 17.9375 124.5625 C18.5975 124.5625 19.2575 124.5625 19.9375 124.5625 C19.9375 122.2525 19.9375 119.9425 19.9375 117.5625 C20.9275 117.2325 21.9175 116.9025 22.9375 116.5625 C23.69491056 112.51746126 24.06568776 108.69150252 24.0703125 104.578125 C24.07160156 103.47855469 24.07289063 102.37898438 24.07421875 101.24609375 C24.07035156 100.11300781 24.06648438 98.97992188 24.0625 97.8125 C24.06636719 96.66394531 24.07023437 95.51539062 24.07421875 94.33203125 C24.07292969 93.23761719 24.07164062 92.14320312 24.0703125 91.015625 C24.06862061 89.51757324 24.06862061 89.51757324 24.06689453 87.98925781 C24.09879381 85.55262422 24.09879381 85.55262422 22.9375 83.5625 C22.78745027 82.1890365 22.68911994 80.8096474 22.62109375 79.4296875 C22.57919922 78.62402344 22.53730469 77.81835938 22.49414062 76.98828125 C22.45482422 76.14652344 22.41550781 75.30476563 22.375 74.4375 C22.33181641 73.58800781 22.28863281 72.73851563 22.24414062 71.86328125 C22.13795764 69.76321777 22.03721503 67.66288052 21.9375 65.5625 C21.2775 65.2325 20.6175 64.9025 19.9375 64.5625 C19.20843521 62.6072808 18.48403845 60.65002351 17.796875 58.6796875 C16.92094594 56.29973918 16.92094594 56.29973918 14.8125 53.5 C12.65010615 50.11224964 12.39287903 47.50911825 11.9375 43.5625 C7.73954196 39.36454196 2.58412903 39.13673346 -3.0625 38.5625 C-3.5575 36.5825 -3.5575 36.5825 -4.0625 34.5625 C-4.3925 34.8925 -4.7225 35.2225 -5.0625 35.5625 C-8.50096265 35.76087284 -11.23080708 35.91568466 -14.43286133 34.5559082 C-19.34136267 32.70160573 -24.58047886 33.52172042 -29.75 33.75 C-31.4505957 33.79737305 -31.4505957 33.79737305 -33.18554688 33.84570312 C-44.33631015 33.98235407 -44.33631015 33.98235407 -54.0625 38.5625 C-56.39547433 38.60342937 -58.72955225 38.60491723 -61.0625 38.5625 C-61.0625 37.9025 -61.0625 37.2425 -61.0625 36.5625 C-61.7225 36.2325 -62.3825 35.9025 -63.0625 35.5625 C-51.77897354 29.11840927 -41.37227001 27.31394402 -28.5625 27.25 C-27.12825684 27.24166138 -27.12825684 27.24166138 -25.66503906 27.2331543 C-21.05772714 27.28085832 -17.22900315 27.34683837 -13.0625 29.5625 C-9.78326046 23.50851931 -7.9791455 18.23024503 -7.625 11.375 C-7.37830579 7.62240148 -7.13448643 5.70114054 -5.375 2.3125 C-3.0625 0.5625 -3.0625 0.5625 0 0 Z " fill="#876442" transform="translate(162.0625,17.4375)"/>
<path d="M0 0 C1.32 0 2.64 0 4 0 C4 0.66 4 1.32 4 2 C4.66 2 5.32 2 6 2 C6.34880023 6.21528794 5.57578482 8.14106876 3.0625 11.5 C0.68718371 14.68955001 -0.4494765 17.04180574 -1 21 C-0.01 21 0.98 21 2 21 C1.25 22.9375 1.25 22.9375 0 25 C-2.125 25.75 -2.125 25.75 -4 26 C-4 25.34 -4 24.68 -4 24 C-5.11375 24.4640625 -5.11375 24.4640625 -6.25 24.9375 C-9 26 -9 26 -11.25 26.4375 C-11.8275 26.623125 -12.405 26.80875 -13 27 C-13.33 27.99 -13.66 28.98 -14 30 C-17.94291442 32.16715333 -21.55852263 32.29814178 -26 32.3125 C-27.19625 32.32925781 -28.3925 32.34601562 -29.625 32.36328125 C-33.25119775 31.97296135 -35.17409759 31.28534153 -38 29 C-38 28.01 -38 27.02 -38 26 C-39.98 26 -41.96 26 -44 26 C-44 24.68 -44 23.36 -44 22 C-43.34 22 -42.68 22 -42 22 C-42 20.02 -42 18.04 -42 16 C-41.34 16 -40.68 16 -40 16 C-40 15.01 -40 14.02 -40 13 C-39.36191406 12.86722656 -38.72382813 12.73445313 -38.06640625 12.59765625 C-37.24011719 12.42105469 -36.41382813 12.24445312 -35.5625 12.0625 C-34.73878906 11.88847656 -33.91507813 11.71445312 -33.06640625 11.53515625 C-31.02338796 11.19247006 -31.02338796 11.19247006 -30 10 C-27.66666667 9.66666667 -25.33333333 9.33333333 -23 9 C-22.67 8.67 -22.34 8.34 -22 8 C-19.14122091 7.76298761 -16.30116703 7.57780818 -13.4375 7.4375 C-12.63119141 7.39431641 -11.82488281 7.35113281 -10.99414062 7.30664062 C-8.99631195 7.20024738 -6.9981793 7.09959112 -5 7 C-4.67 6.01 -4.34 5.02 -4 4 C-2.68 4 -1.36 4 0 4 C0 2.68 0 1.36 0 0 Z " fill="#C9D739" transform="translate(205,24)"/>
<path d="M0 0 C2.9375 0.5625 2.9375 0.5625 4.640625 2.26953125 C6.25764018 5.12853097 6.09053877 6.59605032 5.625 9.8125 C5.50511719 10.70453125 5.38523437 11.5965625 5.26171875 12.515625 C5.15472656 13.19109375 5.04773438 13.8665625 4.9375 14.5625 C5.65035156 14.22476562 6.36320312 13.88703125 7.09765625 13.5390625 C16.87328171 8.9867524 25.18167219 7.17711873 35.9375 6.5625 C36.4325 9.0375 36.4325 9.0375 36.9375 11.5625 C35.7309375 11.74425781 34.524375 11.92601562 33.28125 12.11328125 C31.66659702 12.36674422 30.05201751 12.62067553 28.4375 12.875 C27.64601563 12.99294922 26.85453125 13.11089844 26.0390625 13.23242188 C22.04193264 13.87130739 18.38324589 14.67190176 14.609375 16.15625 C11.42406767 17.37615494 9.92245595 17.66397183 6.6875 17.75 C2.98329503 18.13962495 2.98329503 18.13962495 1.58203125 20.2578125 C-0.12565019 23.59919641 -1.21750543 26.91179529 -2.0625 30.5625 C-2.7225 30.5625 -3.3825 30.5625 -4.0625 30.5625 C-4.371875 31.201875 -4.68125 31.84125 -5 32.5 C-6.0625 34.5625 -6.0625 34.5625 -7.0625 35.5625 C-9.89570733 35.79860061 -11.74698929 35.70011247 -14.37036133 34.5559082 C-19.32351977 32.72817612 -24.54481917 33.52014573 -29.75 33.75 C-31.4505957 33.79737305 -31.4505957 33.79737305 -33.18554688 33.84570312 C-44.33631015 33.98235407 -44.33631015 33.98235407 -54.0625 38.5625 C-56.39547433 38.60342937 -58.72955225 38.60491723 -61.0625 38.5625 C-61.0625 37.9025 -61.0625 37.2425 -61.0625 36.5625 C-61.7225 36.2325 -62.3825 35.9025 -63.0625 35.5625 C-51.77897354 29.11840927 -41.37227001 27.31394402 -28.5625 27.25 C-27.12825684 27.24166138 -27.12825684 27.24166138 -25.66503906 27.2331543 C-21.05772714 27.28085832 -17.22900315 27.34683837 -13.0625 29.5625 C-9.78326046 23.50851931 -7.9791455 18.23024503 -7.625 11.375 C-7.37830579 7.62240148 -7.13448643 5.70114054 -5.375 2.3125 C-3.0625 0.5625 -3.0625 0.5625 0 0 Z " fill="#795747" transform="translate(162.0625,17.4375)"/>
<path d="M0 0 C0.99 0 1.98 0 3 0 C2.49984508 6.37697517 2.49984508 6.37697517 0.08203125 9.390625 C-2.0924007 12.11580425 -2.95990327 14.28149352 -4.0625 17.5625 C-7.07516598 25.20785046 -12.25366337 30.31843689 -18 36 C-18.66 36.66 -19.32 37.32 -20 38 C-23.125 38.125 -23.125 38.125 -26 38 C-25.91228454 40.68893267 -25.80532075 43.37485308 -25.6875 46.0625 C-25.66494141 46.81466797 -25.64238281 47.56683594 -25.61914062 48.34179688 C-25.33433306 54.32275577 -24.40218566 59.59781434 -20 64 C-17.93125966 64.6425235 -17.93125966 64.6425235 -16 65 C-16 65.66 -16 66.32 -16 67 C-15.05125 66.979375 -14.1025 66.95875 -13.125 66.9375 C-10 67 -10 67 -8 68 C-6.46331135 68.22467831 -4.92031946 68.40796805 -3.375 68.5625 C-2.14910156 68.68818359 -2.14910156 68.68818359 -0.8984375 68.81640625 C-0.27195312 68.87699219 0.35453125 68.93757813 1 69 C1 69.99 1 70.98 1 72 C8.92 71.67 16.84 71.34 25 71 C25.33 72.32 25.66 73.64 26 75 C24.081875 75.4640625 24.081875 75.4640625 22.125 75.9375 C19.89898325 76.47605244 18.05260001 76.9737 16 78 C2.80997788 78.10402226 -14.59335893 75.31324 -24.83203125 66.40625 C-29.80970423 61.07735435 -32.10527348 55.32263882 -32.375 48.0625 C-32.17588729 43.0923404 -31.65999939 38.29898891 -29 34 C-27.17377471 32.80879309 -25.33468118 32.08315293 -23.31640625 31.26171875 C-14.48695212 26.4524208 -9.35208737 16.65205393 -5 8 C-4.12743112 6.42438991 -3.23353661 4.8602775 -2.3125 3.3125 C-1.93738281 2.66925781 -1.56226562 2.02601563 -1.17578125 1.36328125 C-0.78777344 0.91339844 -0.39976563 0.46351563 0 0 Z " fill="#A17637" transform="translate(43,142)"/>
<path d="M0 0 C1.65 0 3.3 0 5 0 C2.30614601 8.62033277 -4.26541438 14.41553337 -11 20 C-12.27357433 21.12189607 -13.5443922 22.24692865 -14.8125 23.375 C-16.2077352 24.58402393 -17.60360934 25.79231078 -19 27 C-19.78761719 27.70125 -20.57523437 28.4025 -21.38671875 29.125 C-36.84749633 42.43652151 -55.06382743 50.09062356 -74.8984375 54.125 C-78.15377237 54.79291256 -81.27876137 55.64461486 -84.4375 56.6875 C-89.54205735 58.32665978 -94.66850725 58.70605838 -100 59 C-100 57.35 -100 55.7 -100 54 C-95.545 53.505 -95.545 53.505 -91 53 C-91 52.34 -91 51.68 -91 51 C-86.05 50.505 -86.05 50.505 -81 50 C-81 49.34 -81 48.68 -81 48 C-80.24074219 47.93941406 -79.48148438 47.87882812 -78.69921875 47.81640625 C-77.70535156 47.73261719 -76.71148437 47.64882812 -75.6875 47.5625 C-74.70136719 47.48128906 -73.71523437 47.40007812 -72.69921875 47.31640625 C-69.90624401 47.08187441 -69.90624401 47.08187441 -67 46 C-64.66700175 45.96045766 -62.33291811 45.95598268 -60 46 C-59.67 45.01 -59.34 44.02 -59 43 C-56.453125 42.19140625 -56.453125 42.19140625 -53.25 41.5625 C-48.45829125 40.49515255 -45.6786221 39.33375128 -42 36 C-40.68 36 -39.36 36 -38 36 C-38 35.34 -38 34.68 -38 34 C-36.3125 32.73828125 -36.3125 32.73828125 -34 31.3125 C-25.61498359 25.89601292 -25.61498359 25.89601292 -19.4375 18.25 C-17.34235227 14.97063834 -14.54765879 14.3937231 -11 13 C-9.98131338 12.01904252 -8.97648017 11.02297922 -8 10 C-7.34 9.9175 -6.68 9.835 -6 9.75 C-3.55928816 9.09547297 -3.55928816 9.09547297 -2.3125 5.5625 C-1.879375 4.386875 -1.44625 3.21125 -1 2 C-0.67 1.34 -0.34 0.68 0 0 Z " fill="#8B6448" transform="translate(173,158)"/>
<path d="M0 0 C0.66 0.33 1.32 0.66 2 1 C1.8125 3.8125 1.8125 3.8125 1 7 C-2.29325975 9.6702106 -3.68141026 10 -8 10 C-8 10.66 -8 11.32 -8 12 C-9.33333333 13.33333333 -10.66666667 14.66666667 -12 16 C-13.23512079 18.13309192 -13.23512079 18.13309192 -14 20 C-14.66 20 -15.32 20 -16 20 C-16 20.66 -16 21.32 -16 22 C-16.99 22 -17.98 22 -19 22 C-19.2784375 22.55816406 -19.556875 23.11632812 -19.84375 23.69140625 C-20.63127669 25.26379907 -21.42312041 26.83403542 -22.21875 28.40234375 C-22.6415625 29.23894531 -23.064375 30.07554688 -23.5 30.9375 C-23.9228125 31.77152344 -24.345625 32.60554688 -24.78125 33.46484375 C-27.30433185 38.71317747 -28.62564211 43.60698227 -29.625 49.3125 C-29.7590625 50.05306641 -29.893125 50.79363281 -30.03125 51.55664062 C-30.35886984 53.37025044 -30.68008494 55.18501524 -31 57 C-32.485 57.495 -32.485 57.495 -34 58 C-34 60.31 -34 62.62 -34 65 C-34.66 65 -35.32 65 -36 65 C-35.938125 65.7425 -35.87625 66.485 -35.8125 67.25 C-36.03742928 70.54896278 -36.63408772 71.7156709 -39 74 C-41.6875 74.75 -41.6875 74.75 -44 75 C-43.3739333 71.20232066 -42.24609618 68.01287313 -40.6875 64.5 C-38.89276577 60.29519409 -37.36006811 56.13338135 -36.0625 51.75 C-30.36454203 32.71882039 -22.93242356 12.23900638 -4.69140625 1.8046875 C-3 1 -3 1 0 0 Z " fill="#835E43" transform="translate(97,54)"/>
<path d="M0 0 C2.4375 0.4375 2.4375 0.4375 4.15234375 2.171875 C5.4375 4.4375 5.4375 4.4375 5.25 6.69921875 C2.43261308 15.11074411 -0.83705059 22.48067338 -7.5625 28.4375 C-8.5525 28.1075 -9.5425 27.7775 -10.5625 27.4375 C-10.8125 25.25 -10.8125 25.25 -10.5625 22.4375 C-9.964375 21.695 -9.36625 20.9525 -8.75 20.1875 C-5.8747089 16.57284833 -4.82579624 12.83032556 -3.5625 8.4375 C-4.2225 8.4375 -4.8825 8.4375 -5.5625 8.4375 C-5.5625 7.7775 -5.5625 7.1175 -5.5625 6.4375 C-6.8825 6.4375 -8.2025 6.4375 -9.5625 6.4375 C-9.5625 7.7575 -9.5625 9.0775 -9.5625 10.4375 C-10.4596875 10.5921875 -10.4596875 10.5921875 -11.375 10.75 C-13.6310737 11.22982306 -13.6310737 11.22982306 -14.72265625 12.94140625 C-17.55318242 15.24308677 -20.68543055 14.97034028 -24.1875 15.0625 C-28.74229745 14.82458372 -28.74229745 14.82458372 -32.5625 16.4375 C-34.17125 16.6540625 -34.17125 16.6540625 -35.8125 16.875 C-39.4434347 17.2703948 -39.4434347 17.2703948 -42.1875 18.5 C-44.80955404 19.53502133 -46.76953859 19.59709779 -49.5625 19.4375 C-49.5625 20.4275 -49.5625 21.4175 -49.5625 22.4375 C-50.2225 22.4375 -50.8825 22.4375 -51.5625 22.4375 C-51.5625 24.4175 -51.5625 26.3975 -51.5625 28.4375 C-52.2225 28.4375 -52.8825 28.4375 -53.5625 28.4375 C-53.5625 29.7575 -53.5625 31.0775 -53.5625 32.4375 C-51.5825 32.4375 -49.6025 32.4375 -47.5625 32.4375 C-47.5625 33.0975 -47.5625 33.7575 -47.5625 34.4375 C-49.5425 34.1075 -51.5225 33.7775 -53.5625 33.4375 C-53.5625 34.7575 -53.5625 36.0775 -53.5625 37.4375 C-52.5725 37.7675 -51.5825 38.0975 -50.5625 38.4375 C-52.2125 38.4375 -53.8625 38.4375 -55.5625 38.4375 C-55.8925 37.1175 -56.2225 35.7975 -56.5625 34.4375 C-57.5525 34.4375 -58.5425 34.4375 -59.5625 34.4375 C-58.1875 32.4375 -58.1875 32.4375 -56.5625 30.4375 C-55.9025 30.4375 -55.2425 30.4375 -54.5625 30.4375 C-54.459375 29.756875 -54.35625 29.07625 -54.25 28.375 C-53.40570643 24.76756385 -52.23125207 20.10625207 -49.5625 17.4375 C-48.386875 17.31375 -47.21125 17.19 -46 17.0625 C-42.99999448 16.72679778 -40.48340636 16.13316775 -37.6875 15 C-30.46693604 12.11177442 -23.29768981 11.15101149 -15.5625 11.4375 C-15.5625 10.4475 -15.5625 9.4575 -15.5625 8.4375 C-16.8825 8.1075 -18.2025 7.7775 -19.5625 7.4375 C-16.73101397 5.88661788 -14.232569 5.06996104 -11.0625 4.5 C-6.785614 3.62645302 -4.09708167 0.69950175 0 0 Z " fill="#A59C45" transform="translate(214.5625,17.5625)"/>
<path d="M0 0 C0.99 0 1.98 0 3 0 C2.49993305 6.3758536 2.49993305 6.3758536 0.09765625 9.375 C-2.11527006 12.14424857 -3.11657598 14.49435444 -4.3125 17.8125 C-7.3657098 25.44082725 -11.5844705 31.18629912 -19 35 C-19.66 35.66 -20.32 36.32 -21 37 C-24.125 37.125 -24.125 37.125 -27 37 C-26.98952637 37.65597168 -26.97905273 38.31194336 -26.96826172 38.98779297 C-26.92677497 41.95015658 -26.90069738 44.91245916 -26.875 47.875 C-26.85824219 48.90753906 -26.84148438 49.94007813 -26.82421875 51.00390625 C-26.81777344 51.99003906 -26.81132812 52.97617188 -26.8046875 53.9921875 C-26.79421387 54.90339355 -26.78374023 55.81459961 -26.77294922 56.75341797 C-27 59 -27 59 -29 61 C-32.72209396 52.62528859 -33.41645661 44.59885585 -30.16015625 35.875 C-28.42510812 33.07088181 -26.29064226 32.47222733 -23.31640625 31.26171875 C-14.48695212 26.4524208 -9.35208737 16.65205393 -5 8 C-4.12743112 6.42438991 -3.23353661 4.8602775 -2.3125 3.3125 C-1.93738281 2.66925781 -1.56226562 2.02601563 -1.17578125 1.36328125 C-0.78777344 0.91339844 -0.39976563 0.46351563 0 0 Z " fill="#8B6444" transform="translate(43,142)"/>
<path d="M0 0 C1.65 0 3.3 0 5 0 C2.30614601 8.62033277 -4.26541438 14.41553337 -11 20 C-12.27357433 21.12189607 -13.5443922 22.24692865 -14.8125 23.375 C-16.20675252 24.58515704 -17.60270399 25.79335838 -19 27 C-19.81082031 27.71285156 -20.62164062 28.42570312 -21.45703125 29.16015625 C-28.27261971 34.97785474 -35.65484857 40.58198588 -44 44 C-47.41796875 43.7109375 -47.41796875 43.7109375 -50 43 C-47.91229447 41.88158632 -46.14591199 41.0291824 -43.8125 40.5625 C-43.214375 40.376875 -42.61625 40.19125 -42 40 C-41.67 39.01 -41.34 38.02 -41 37 C-39.00428677 36.32060826 -37.00405227 35.65438441 -35 35 C-34.34 34.01 -33.68 33.02 -33 32 C-32.01 32 -31.02 32 -30 32 C-29.91492188 31.41089844 -29.82984375 30.82179687 -29.7421875 30.21484375 C-28.79021111 27.3739458 -27.45641143 26.4114032 -25.125 24.5625 C-22.59542116 22.47167997 -21.07381064 21.12990672 -19.4375 18.25 C-17.34235227 14.97063834 -14.54765879 14.3937231 -11 13 C-9.98131338 12.01904252 -8.97648017 11.02297922 -8 10 C-7.34 9.9175 -6.68 9.835 -6 9.75 C-3.55928816 9.09547297 -3.55928816 9.09547297 -2.3125 5.5625 C-1.879375 4.386875 -1.44625 3.21125 -1 2 C-0.67 1.34 -0.34 0.68 0 0 Z " fill="#856350" transform="translate(173,158)"/>
<path d="M0 0 C0.9394043 -0.00555908 1.87880859 -0.01111816 2.84667969 -0.0168457 C8.14878812 0.03844366 12.60872574 0.57822336 17.625 2.3125 C17.295 3.9625 16.965 5.6125 16.625 7.3125 C15.92012451 7.14717773 15.21524902 6.98185547 14.48901367 6.81152344 C9.332315 5.91302441 4.1494408 6.37022046 -1.0625 6.5625 C-2.19623047 6.58957031 -3.32996094 6.61664063 -4.49804688 6.64453125 C-15.64784411 6.73627082 -15.64784411 6.73627082 -25.375 11.3125 C-27.70797433 11.35342937 -30.04205225 11.35491723 -32.375 11.3125 C-32.375 10.6525 -32.375 9.9925 -32.375 9.3125 C-33.035 8.9825 -33.695 8.6525 -34.375 8.3125 C-23.13842115 1.89522133 -12.75833946 0.0642764 0 0 Z " fill="#8A6440" transform="translate(133.375,44.6875)"/>
<path d="M0 0 C0.66 0.33 1.32 0.66 2 1 C1.8125 3.8125 1.8125 3.8125 1 7 C-2.29325975 9.6702106 -3.68141026 10 -8 10 C-8 10.66 -8 11.32 -8 12 C-9.33333333 13.33333333 -10.66666667 14.66666667 -12 16 C-13.23512079 18.13309192 -13.23512079 18.13309192 -14 20 C-14.66 20 -15.32 20 -16 20 C-16 20.66 -16 21.32 -16 22 C-16.99 22 -17.98 22 -19 22 C-20.86551426 25.58752742 -22.42535928 29.27812193 -24 33 C-24.99 32.67 -25.98 32.34 -27 32 C-23.88300004 20.05150014 -17.27252848 9.69534095 -6.625 2.9375 C-4.38456198 1.64210271 -2.48230214 0.82743405 0 0 Z " fill="#8B6247" transform="translate(97,54)"/>
<path d="M0 0 C3.08800083 3.08800083 3.14735588 5.92750969 3.31640625 10.10546875 C3.37924805 11.57983398 3.37924805 11.57983398 3.44335938 13.08398438 C3.48267578 14.10814453 3.52199219 15.13230469 3.5625 16.1875 C3.60568359 17.22326172 3.64886719 18.25902344 3.69335938 19.32617188 C3.79944366 21.8839819 3.90150146 24.44188845 4 27 C4.66 26.34 5.32 25.68 6 25 C7.52174147 29.77188067 6.30644144 33.63170985 4.875 38.25 C4.64852783 39.00273193 4.42205566 39.75546387 4.1887207 40.53100586 C2.44678844 46.09426073 0.25614594 51.13656501 -3 56 C-3.99 55.67 -4.98 55.34 -6 55 C-5.67 51.7 -5.34 48.4 -5 45 C-4.34 45 -3.68 45 -3 45 C-3 42.69 -3 40.38 -3 38 C-1.515 37.505 -1.515 37.505 0 37 C0.7459736 33.00270749 1.12812379 29.22069377 1.1328125 25.15625 C1.13410156 24.07472656 1.13539063 22.99320313 1.13671875 21.87890625 C1.13285156 20.76386719 1.12898437 19.64882812 1.125 18.5 C1.12886719 17.38496094 1.13273438 16.26992187 1.13671875 15.12109375 C1.13478516 13.49880859 1.13478516 13.49880859 1.1328125 11.84375 C1.13168457 10.86599609 1.13055664 9.88824219 1.12939453 8.88085938 C0.99341226 5.85332964 0.55552876 2.97679562 0 0 Z " fill="#9C7039" transform="translate(185,97)"/>
<path d="M0 0 C0.495 1.98 0.495 1.98 1 4 C-0.2065625 4.18175781 -1.413125 4.36351562 -2.65625 4.55078125 C-4.27090298 4.80424422 -5.88548249 5.05817553 -7.5 5.3125 C-8.68722656 5.48942383 -8.68722656 5.48942383 -9.8984375 5.66992188 C-13.87237482 6.30510038 -17.52603372 7.09561864 -21.28125 8.5625 C-24.38025136 9.7604333 -26.73277459 10.43224802 -30 10.6875 C-31.1446875 10.78611328 -31.1446875 10.78611328 -32.3125 10.88671875 C-32.869375 10.92410156 -33.42625 10.96148437 -34 11 C-34.05399736 9.54207116 -34.09279177 8.08357288 -34.125 6.625 C-34.15980469 5.40683594 -34.15980469 5.40683594 -34.1953125 4.1640625 C-34 2 -34 2 -32 0 C-31.67 2.31 -31.34 4.62 -31 7 C-30.28714844 6.66226562 -29.57429687 6.32453125 -28.83984375 5.9765625 C-9.73170645 -2.92170871 -9.73170645 -2.92170871 0 0 Z " fill="#85684F" transform="translate(198,25)"/>
<path d="M0 0 C2.62386487 3.06117568 3 3.73173127 3 8 C3.99 8.33 4.98 8.66 6 9 C6.06058594 10.27617188 6.12117188 11.55234375 6.18359375 12.8671875 C6.26799568 14.53647016 6.35264386 16.20574037 6.4375 17.875 C6.47681641 18.71675781 6.51613281 19.55851562 6.55664062 20.42578125 C6.59853516 21.23144531 6.64042969 22.03710938 6.68359375 22.8671875 C6.72025146 23.61081543 6.75690918 24.35444336 6.79467773 25.12060547 C6.89955865 27.08864312 6.89955865 27.08864312 8 29 C8.24411868 33.07821801 8.1852078 37.16530125 8.1875 41.25 C8.19974609 42.38308594 8.21199219 43.51617187 8.22460938 44.68359375 C8.22750977 46.33294922 8.22750977 46.33294922 8.23046875 48.015625 C8.23457764 49.01883789 8.23868652 50.02205078 8.24291992 51.05566406 C7.97302751 54.32692286 7.25179911 56.96970504 6 60 C5.01 60.495 5.01 60.495 4 61 C3.59270772 63.32156597 3.25561323 65.6568787 3 68 C2.34 68 1.68 68 1 68 C1.020625 69.27875 1.04125 70.5575 1.0625 71.875 C1.125 75.75 1.125 75.75 0 78 C0.66 78 1.32 78 2 78 C0.125 82.875 0.125 82.875 -1 84 C-2.66617115 84.04063832 -4.33388095 84.042721 -6 84 C-6.17015625 84.63808594 -6.3403125 85.27617187 -6.515625 85.93359375 C-6.75796875 86.75988281 -7.0003125 87.58617187 -7.25 88.4375 C-7.48203125 89.26121094 -7.7140625 90.08492188 -7.953125 90.93359375 C-9 93 -9 93 -11.109375 93.78515625 C-11.73328125 93.85605469 -12.3571875 93.92695313 -13 94 C-12.38125 92.948125 -11.7625 91.89625 -11.125 90.8125 C-9.48420892 87.94984323 -8.13015547 85.10792754 -7 82 C-5.35 82 -3.7 82 -2 82 C-2.020625 81.030625 -2.04125 80.06125 -2.0625 79.0625 C-2 76 -2 76 -1 75 C-0.87625 73.845 -0.7525 72.69 -0.625 71.5 C-0.1001602 66.75063002 1.35585228 62.46711833 3 58 C3.66 58 4.32 58 5 58 C6.14054367 52.54168388 6.14885912 47.23474458 6.125 41.6875 C6.12886719 40.76904297 6.13273437 39.85058594 6.13671875 38.90429688 C6.13478516 37.5962207 6.13478516 37.5962207 6.1328125 36.26171875 C6.13168457 35.46725342 6.13055664 34.67278809 6.12939453 33.85424805 C6.2026486 31.98392619 6.2026486 31.98392619 5 31 C4.76250896 27.41878586 4.60375158 23.84443701 4.48242188 20.2578125 C4.30676167 16.38665937 4.19202312 14.28803468 2 11 C0.72258585 7.0967901 0 4.12760017 0 0 Z " fill="#D9A31C" transform="translate(179,74)"/>
<path d="M0 0 C2.4375 0.5 2.4375 0.5 4.15234375 2.23828125 C5.4375 4.5 5.4375 4.5 5.25 6.76171875 C2.43261308 15.17324411 -0.83705059 22.54317338 -7.5625 28.5 C-8.5525 28.17 -9.5425 27.84 -10.5625 27.5 C-10.875 25.25 -10.875 25.25 -10.5625 22.5 C-9.840625 21.943125 -9.11875 21.38625 -8.375 20.8125 C-3.66321022 16.93836174 -1.46743999 11.21481996 0.4375 5.5 C-1.8725 5.17 -4.1825 4.84 -6.5625 4.5 C-4.45190767 1.99855724 -3.26581976 0.63723312 0 0 Z " fill="#8E7746" transform="translate(214.5625,17.5)"/>
<path d="M0 0 C1.32 0.33 2.64 0.66 4 1 C-2.59702731 8.21070427 -9.82613676 13.7533319 -18 19 C-18.86496094 19.56460938 -19.72992188 20.12921875 -20.62109375 20.7109375 C-24.3031001 22.95863783 -26.16778067 24.04380102 -30.5625 23.8125 C-31.366875 23.544375 -32.17125 23.27625 -33 23 C-30.91229447 21.88158632 -29.14591199 21.0291824 -26.8125 20.5625 C-26.214375 20.376875 -25.61625 20.19125 -25 20 C-24.67 19.01 -24.34 18.02 -24 17 C-22.00428677 16.32060826 -20.00405227 15.65438441 -18 15 C-17.34 14.01 -16.68 13.02 -16 12 C-15.01 12 -14.02 12 -13 12 C-13 11.34 -13 10.68 -13 10 C-12.071875 9.87625 -12.071875 9.87625 -11.125 9.75 C-8.84276697 9.21351879 -8.84276697 9.21351879 -8 7.125 C-7.67 6.42375 -7.34 5.7225 -7 5 C-4.39680342 2.64872567 -3.57870074 2 0 2 C0 1.34 0 0.68 0 0 Z " fill="#83614C" transform="translate(156,178)"/>
<path d="M0 0 C0.33 0.99 0.66 1.98 1 3 C-1.0237028 5.73795085 -2.03493722 6.00561491 -5.5 6.5625 C-6.655 6.706875 -7.81 6.85125 -9 7 C-9.99 7.66 -10.98 8.32 -12 9 C-15.13671875 9.4140625 -15.13671875 9.4140625 -18.6875 9.625 C-20.45673828 9.73714844 -20.45673828 9.73714844 -22.26171875 9.8515625 C-23.61716797 9.92503906 -23.61716797 9.92503906 -25 10 C-25 8.68 -25 7.36 -25 6 C-19.60539047 3.72858546 -14.73842251 3.79586639 -9 4 C-8.67 3.01 -8.34 2.02 -8 1 C-5.23735711 0.40267181 -2.83967231 0 0 0 Z " fill="#917C42" transform="translate(193,37)"/>
<path d="M0 0 C0.33 0.66 0.66 1.32 1 2 C1.66 1.67 2.32 1.34 3 1 C4.37548156 0.91691362 5.75485796 0.89263984 7.1328125 0.90234375 C7.93847656 0.90556641 8.74414062 0.90878906 9.57421875 0.91210938 C10.41597656 0.92048828 11.25773437 0.92886719 12.125 0.9375 C12.97449219 0.94201172 13.82398438 0.94652344 14.69921875 0.95117188 C16.79950909 0.96297126 18.8997633 0.98090694 21 1 C21 1.33 21 1.66 21 2 C19.94039062 2.04898438 18.88078125 2.09796875 17.7890625 2.1484375 C16.40101503 2.22346709 15.01299549 2.29901485 13.625 2.375 C12.57699219 2.42140625 12.57699219 2.42140625 11.5078125 2.46875 C7.29814173 2.59499498 7.29814173 2.59499498 4 5 C1.6796875 5.34375 1.6796875 5.34375 -1.125 5.5 C-5.97870982 5.8517181 -10.32378565 6.67654311 -15 8 C-15 8.66 -15 9.32 -15 10 C-16.32 10 -17.64 10 -19 10 C-19 9.34 -19 8.68 -19 8 C-19.66 7.67 -20.32 7.34 -21 7 C-14.25919595 3.16699377 -7.57555192 1.52434886 0 0 Z " fill="#896445" transform="translate(122,45)"/>
<path d="M0 0 C1.47906892 -0.02689216 2.95827483 -0.04634621 4.4375 -0.0625 C5.26121094 -0.07410156 6.08492187 -0.08570313 6.93359375 -0.09765625 C9 0 9 0 10 1 C11.48638992 1.15655027 12.97949127 1.25066943 14.47265625 1.31640625 C15.82133789 1.37924805 15.82133789 1.37924805 17.19726562 1.44335938 C18.61555664 1.50233398 18.61555664 1.50233398 20.0625 1.5625 C21.01189453 1.60568359 21.96128906 1.64886719 22.93945312 1.69335938 C25.29281353 1.79979276 27.64628354 1.90181008 30 2 C30 2.66 30 3.32 30 4 C30.66 4.33 31.32 4.66 32 5 C24.40868416 9.71498994 12.71848002 5.70467154 4.58203125 3.9140625 C2 3 2 3 0 0 Z " fill="#7D5C47" transform="translate(31,213)"/>
<path d="M0 0 C0.495 0.99 0.495 0.99 1 2 C-0.98 2 -2.96 2 -5 2 C-5.33 2.99 -5.66 3.98 -6 5 C-7.7015625 5.2165625 -7.7015625 5.2165625 -9.4375 5.4375 C-12.80777201 5.61171478 -12.80777201 5.61171478 -14 7 C-16.77558423 7.28479122 -19.55127845 7.44843019 -22.3359375 7.62109375 C-25.22178086 7.83584594 -25.22178086 7.83584594 -28 10 C-30.3306218 10.35179197 -32.66435067 10.68330179 -35 11 C-37.01416562 11.62256028 -39.02015519 12.27566653 -41 13 C-41 13.99 -41 14.98 -41 16 C-42.98 16.33 -44.96 16.66 -47 17 C-47 15.35 -47 13.7 -47 12 C-42.545 11.505 -42.545 11.505 -38 11 C-38 10.34 -38 9.68 -38 9 C-34.7 8.67 -31.4 8.34 -28 8 C-28 7.34 -28 6.68 -28 6 C-27.24074219 5.93941406 -26.48148438 5.87882813 -25.69921875 5.81640625 C-24.70535156 5.73261719 -23.71148437 5.64882812 -22.6875 5.5625 C-21.70136719 5.48128906 -20.71523437 5.40007812 -19.69921875 5.31640625 C-16.90624401 5.08187441 -16.90624401 5.08187441 -14 4 C-11.66700175 3.96045766 -9.33291811 3.95598268 -7 4 C-6.67 3.01 -6.34 2.02 -6 1 C-4.02 0.67 -2.04 0.34 0 0 Z " fill="#BE8D28" transform="translate(120,200)"/>
<path d="M0 0 C0.33 0.99 0.66 1.98 1 3 C0.01 4.485 0.01 4.485 -1 6 C-3.625 6.1875 -3.625 6.1875 -6 6 C-5.95875 7.27875 -5.9175 8.5575 -5.875 9.875 C-5.8046875 12.0546875 -5.8046875 12.0546875 -6 14 C-6.66 14.66 -7.32 15.32 -8 16 C-8.99 16 -9.98 16 -11 16 C-11 17.98 -11 19.96 -11 22 C-11.66 22 -12.32 22 -13 22 C-13.33 23.32 -13.66 24.64 -14 26 C-14.66 25.67 -15.32 25.34 -16 25 C-15.01 21.535 -15.01 21.535 -14 18 C-14.66 17.67 -15.32 17.34 -16 17 C-15.01 16.34 -14.02 15.68 -13 15 C-12.28752268 13.3523962 -11.62599617 11.68236471 -11 10 C-9.75 7.25 -9.75 7.25 -8 5 C-6.00577205 4.63371323 -4.00546689 4.29868656 -2 4 C-0.56362302 2.04836882 -0.56362302 2.04836882 0 0 Z " fill="#D19E2B" transform="translate(60,124)"/>
<path d="M0 0 C0.33 1.32 0.66 2.64 1 4 C0.01 4.495 0.01 4.495 -1 5 C-1.65555119 7.52733235 -1.65555119 7.52733235 -2 10 C-2.66 10 -3.32 10 -4 10 C-4 11.65 -4 13.3 -4 15 C-4.66 15 -5.32 15 -6 15 C-6.144375 15.969375 -6.28875 16.93875 -6.4375 17.9375 C-7 21 -7 21 -8 22 C-8.23075082 23.34747084 -8.41153063 24.70377565 -8.5625 26.0625 C-8.706875 27.361875 -8.85125 28.66125 -9 30 C-9.66 30 -10.32 30 -11 30 C-10.95875 31.27875 -10.9175 32.5575 -10.875 33.875 C-10.8046875 36.0546875 -10.8046875 36.0546875 -11 38 C-11.66 38.66 -12.32 39.32 -13 40 C-14.03842565 42.31648799 -15.0421975 44.64903024 -16 47 C-16.33 45.68 -16.66 44.36 -17 43 C-16.34 43 -15.68 43 -15 43 C-15 40.69 -15 38.38 -15 36 C-14.01 35.505 -14.01 35.505 -13 35 C-12.69000184 33.35021529 -12.39279431 31.69690231 -12.16381836 30.03393555 C-10.62447927 18.86038965 -6.24391025 9.36586538 0 0 Z " fill="#CA961F" transform="translate(78,76)"/>
<path d="M0 0 C0.33 0 0.66 0 1 0 C1 3.3 1 6.6 1 10 C1.66 10 2.32 10 3 10 C3.33 9.34 3.66 8.68 4 8 C4.78441153 14.56492112 5.10914408 20.46837378 4 27 C3.34 27 2.68 27 2 27 C1.67 28.98 1.34 30.96 1 33 C0.67 33 0.34 33 0 33 C0 22.11 0 11.22 0 0 Z " fill="#7F5A44" transform="translate(188,97)"/>
<path d="M0 0 C1.53445094 3.06890187 0.54984289 5.70094266 0 9 C-0.99 9.33 -1.98 9.66 -3 10 C-3 12.31 -3 14.62 -3 17 C-3.66 17 -4.32 17 -5 17 C-4.938125 17.7425 -4.87625 18.485 -4.8125 19.25 C-5.03742928 22.54896278 -5.63408772 23.7156709 -8 26 C-10.6875 26.75 -10.6875 26.75 -13 27 C-12.39159077 23.45094618 -11.68842953 20.19912963 -10 17 C-7.9375 16.25 -7.9375 16.25 -6 16 C-5.67 15.67 -5.34 15.34 -5 15 C-5.04125 13.72125 -5.0825 12.4425 -5.125 11.125 C-5.18044963 7.22966317 -5.18044963 7.22966317 -3.625 5.25 C-3.08875 4.8375 -2.5525 4.425 -2 4 C-0.82425289 1.90010348 -0.82425289 1.90010348 0 0 Z " fill="#986B3D" transform="translate(66,102)"/>
<path d="M0 0 C1.32 0 2.64 0 4 0 C10.22010235 10.48025997 13.47296838 17.63515811 11 30 C10.67 30 10.34 30 10 30 C10 25.71 10 21.42 10 17 C9.01 17 8.02 17 7 17 C6.87625 15.865625 6.7525 14.73125 6.625 13.5625 C6.41875 12.386875 6.2125 11.21125 6 10 C5.34 9.67 4.68 9.34 4 9 C4 8.01 4 7.02 4 6 C3.34 6 2.68 6 2 6 C0 3 0 3 0 0 Z " fill="#83614D" transform="translate(176,64)"/>
<path d="M0 0 C0.66 0 1.32 0 2 0 C2.05787784 3.62493334 2.0935542 7.24974857 2.125 10.875 C2.14175781 11.90753906 2.15851562 12.94007813 2.17578125 14.00390625 C2.18222656 14.99003906 2.18867188 15.97617188 2.1953125 16.9921875 C2.20578613 17.90339355 2.21625977 18.81459961 2.22705078 19.75341797 C2 22 2 22 0 24 C-2.71181408 17.89841831 -3.8693974 12.68767233 -3 6 C-1.5 2.375 -1.5 2.375 0 0 Z " fill="#87604E" transform="translate(14,179)"/>
<path d="M0 0 C-0.58287667 3.69373527 -1.59916356 6.49881745 -3.4375 9.75 C-4.08525391 10.91789062 -4.08525391 10.91789062 -4.74609375 12.109375 C-6 14 -6 14 -8 15 C-6.66666667 11 -5.33333333 7 -4 3 C-4.66 3 -5.32 3 -6 3 C-6 2.34 -6 1.68 -6 1 C-7.65 1 -9.3 1 -11 1 C-11 1.99 -11 2.98 -11 4 C-12.65 4.33 -14.3 4.66 -16 5 C-16 4.34 -16 3.68 -16 3 C-17.32 2.67 -18.64 2.34 -20 2 C-13.68048258 -1.79171045 -6.9677856 -1.02699788 0 0 Z " fill="#978951" transform="translate(215,23)"/>
<path d="M0 0 C3.63 0.33 7.26 0.66 11 1 C11 1.99 11 2.98 11 4 C18.92 3.67 26.84 3.34 35 3 C35.495 4.98 35.495 4.98 36 7 C33.36 7 30.72 7 28 7 C28 6.34 28 5.68 28 5 C27.15405273 5.0314209 27.15405273 5.0314209 26.29101562 5.06347656 C23.69419751 5.14748501 21.09766638 5.19892229 18.5 5.25 C17.613125 5.28351563 16.72625 5.31703125 15.8125 5.3515625 C9.41817899 5.44559663 5.50580662 4.26746467 0 1 C0 0.67 0 0.34 0 0 Z " fill="#BB8B28" transform="translate(33,210)"/>
<path d="M0 0 C1.65 0 3.3 0 5 0 C5 0.66 5 1.32 5 2 C11.93 2.495 11.93 2.495 19 3 C19 3.33 19 3.66 19 4 C18.34773438 4.04898438 17.69546875 4.09796875 17.0234375 4.1484375 C12.10692147 4.56902442 7.57563545 5.00549224 3 7 C2.67 7.66 2.34 8.32 2 9 C0.68 8.67 -0.64 8.34 -2 8 C-2 6.35 -2 4.7 -2 3 C-1.34 3 -0.68 3 0 3 C0 2.01 0 1.02 0 0 Z " fill="#BABF3B" transform="translate(165,37)"/>
<path d="M0 0 C1.40883986 0.01507387 2.81769532 0.0287575 4.2265625 0.04101562 C7.65144396 0.07620276 11.07551763 0.12543921 14.5 0.1875 C14.5 0.5175 14.5 0.8475 14.5 1.1875 C13.76475098 1.20208252 13.02950195 1.21666504 12.27197266 1.23168945 C8.8891622 1.30689255 5.50726189 1.40331182 2.125 1.5 C0.96871094 1.52255859 -0.18757813 1.54511719 -1.37890625 1.56835938 C-12.65151198 1.58417309 -12.65151198 1.58417309 -22.5 6.1875 C-24.83297433 6.22842937 -27.16705225 6.22991723 -29.5 6.1875 C-29.5 5.5275 -29.5 4.8675 -29.5 4.1875 C-30.16 3.8575 -30.82 3.5275 -31.5 3.1875 C-30.18 3.1875 -28.86 3.1875 -27.5 3.1875 C-27.5 3.8475 -27.5 4.5075 -27.5 5.1875 C-26.18 5.1875 -24.86 5.1875 -23.5 5.1875 C-23.5 4.5275 -23.5 3.8675 -23.5 3.1875 C-15.86817457 -0.55956893 -8.30003579 -0.15496779 0 0 Z " fill="#BD8D28" transform="translate(130.5,49.8125)"/>
<path d="M0 0 C1 2 1 2 0.3359375 4.00390625 C-1.32575818 6.48673225 -2.5921497 6.93437954 -5.375 7.9375 C-9.4724448 9.58831644 -11.44596508 11.32218971 -14 15 C-14.66 15 -15.32 15 -16 15 C-16.99 17.475 -16.99 17.475 -18 20 C-19.32 19.67 -20.64 19.34 -22 19 C-21.07767578 18.22076172 -21.07767578 18.22076172 -20.13671875 17.42578125 C-18.92435547 16.37970703 -18.92435547 16.37970703 -17.6875 15.3125 C-16.48673828 14.28576172 -16.48673828 14.28576172 -15.26171875 13.23828125 C-12.90253219 11.09358427 -12.90253219 11.09358427 -11.42578125 8.33203125 C-9.36199774 4.95647302 -6.60381837 4.41578579 -3 3 C-1.11970761 1.46048953 -1.11970761 1.46048953 0 0 Z " fill="#B0812D" transform="translate(165,168)"/>
<path d="M0 0 C0.33 0.66 0.66 1.32 1 2 C1.66 1.67 2.32 1.34 3 1 C4.37548156 0.91691362 5.75485796 0.89263984 7.1328125 0.90234375 C7.93847656 0.90556641 8.74414062 0.90878906 9.57421875 0.91210938 C10.41597656 0.92048828 11.25773437 0.92886719 12.125 0.9375 C13.39923828 0.94426758 13.39923828 0.94426758 14.69921875 0.95117188 C16.79950909 0.96297126 18.8997633 0.98090694 21 1 C21 1.33 21 1.66 21 2 C19.94039062 2.04898438 18.88078125 2.09796875 17.7890625 2.1484375 C16.40101503 2.22346709 15.01299549 2.29901485 13.625 2.375 C12.57699219 2.42140625 12.57699219 2.42140625 11.5078125 2.46875 C7.29814173 2.59499498 7.29814173 2.59499498 4 5 C1.1796875 4.9765625 1.1796875 4.9765625 -2.125 4.625 C-3.22070312 4.51414062 -4.31640625 4.40328125 -5.4453125 4.2890625 C-6.70988281 4.14597656 -6.70988281 4.14597656 -8 4 C-8 3.34 -8 2.68 -8 2 C-5.36 1.34 -2.72 0.68 0 0 Z " fill="#886856" transform="translate(122,45)"/>
<path d="M0 0 C0.33 1.32 0.66 2.64 1 4 C0.401875 4.103125 -0.19625 4.20625 -0.8125 4.3125 C-3.06748177 4.79346349 -3.06748177 4.79346349 -4.16796875 6.5 C-6.96520228 8.79027223 -10.02930369 8.57181012 -13.5 8.6875 C-14.51513672 8.73874023 -14.51513672 8.73874023 -15.55078125 8.79101562 C-18.36937172 8.9272197 -21.17807032 9 -24 9 C-23.67 8.34 -23.34 7.68 -23 7 C-20.0734471 6.3809215 -17.20448951 5.87238981 -14.25 5.4375 C-12.63011451 5.18680344 -11.01032017 4.93551702 -9.390625 4.68359375 C-8.62943359 4.56741699 -7.86824219 4.45124023 -7.08398438 4.33154297 C-4.70792497 3.95353352 -2.35288356 3.50213978 0 3 C0 2.01 0 1.02 0 0 Z " fill="#B1AF3E" transform="translate(204,24)"/>
<path d="M0 0 C0 0.33 0 0.66 0 1 C-2.64 1 -5.28 1 -8 1 C-8 0.34 -8 -0.32 -8 -1 C-12.31270236 -0.85980449 -16.62510461 -0.71181808 -20.9375 -0.5625 C-22.14986328 -0.52318359 -23.36222656 -0.48386719 -24.61132812 -0.44335938 C-31.12486148 -0.2138853 -37.53474481 0.17004815 -44 1 C-44 0.67 -44 0.34 -44 0 C-37.0519815 -2.06402017 -30.34815676 -2.52770125 -23.125 -2.8125 C-22.00480469 -2.87630859 -20.88460937 -2.94011719 -19.73046875 -3.00585938 C-12.56644251 -3.30261892 -6.70586815 -2.57516719 0 0 Z " fill="#E6AD11" transform="translate(155,53)"/>
<path d="M0 0 C0 0.66 0 1.32 0 2 C0.66 2.33 1.32 2.66 2 3 C-1.63 5.31 -5.26 7.62 -9 10 C-10 6 -10 6 -9 3 C-5.62132353 0.53447933 -4.29441798 0 0 0 Z " fill="#8C7243" transform="translate(201,48)"/>
<path d="M0 0 C-4.625 3 -4.625 3 -8 3 C-8.33 3.99 -8.66 4.98 -9 6 C-12.93145638 8.15362868 -16.57213001 8.32728588 -21 8.375 C-22.19625 8.40335938 -23.3925 8.43171875 -24.625 8.4609375 C-28.55181894 7.92463584 -30.17627444 6.70607033 -33 4 C-28.125 4.875 -28.125 4.875 -27 6 C-25.23252271 6.12562235 -23.45939708 6.17576558 -21.6875 6.1875 C-20.72199219 6.20167969 -19.75648438 6.21585938 -18.76171875 6.23046875 C-15.94685124 5.99556467 -14.44589018 5.31942476 -12 4 C-11.01 4 -10.02 4 -9 4 C-9 3.34 -9 2.68 -9 2 C-8.01 2 -7.02 2 -6 2 C-6 1.34 -6 0.68 -6 0 C-3.50907189 -1.24546405 -2.58919267 -0.7767578 0 0 Z " fill="#AEAC3D" transform="translate(200,48)"/>
<path d="M0 0 C1.875 1.6875 1.875 1.6875 3 4 C2.6875 6.75 2.6875 6.75 2 9 C1.01 9.33 0.02 9.66 -1 10 C-1 7.69 -1 5.38 -1 3 C-2.98 3.66 -4.96 4.32 -7 5 C-7.66 4.34 -8.32 3.68 -9 3 C-5.99240531 0.3265825 -4.04550278 -0.72611588 0 0 Z " fill="#8E6F5E" transform="translate(217,18)"/>
<path d="M0 0 C0 1.65 0 3.3 0 5 C-1.32 5 -2.64 5 -4 5 C-4.33 4.01 -4.66 3.02 -5 2 C-12.92 2 -20.84 2 -29 2 C-29 1.67 -29 1.34 -29 1 C-25.66682397 0.83008756 -22.33343885 0.66466921 -19 0.5 C-18.06542969 0.45230469 -17.13085938 0.40460938 -16.16796875 0.35546875 C-10.77043673 0.0912539 -5.40391896 -0.05098037 0 0 Z " fill="#E4AE1C" transform="translate(73,212)"/>
<path d="M0 0 C0.33 0 0.66 0 1 0 C1.78441153 6.56492112 2.10914408 12.46837378 1 19 C0.01 19 -0.98 19 -2 19 C-1.8595017 16.2079699 -1.71284617 13.41650204 -1.5625 10.625 C-1.52318359 9.8309375 -1.48386719 9.036875 -1.44335938 8.21875 C-1.11328125 2.2265625 -1.11328125 2.2265625 0 0 Z " fill="#76532F" transform="translate(191,105)"/>
<path d="M0 0 C1.32 0 2.64 0 4 0 C4.144375 0.928125 4.28875 1.85625 4.4375 2.8125 C4.92100111 6.00725111 4.92100111 6.00725111 6 9 C4.5625 12.1875 4.5625 12.1875 3 15 C1 13 1 13 0.75 10.1875 C0.99710887 7.03686185 1.66313027 4.84084818 3 2 C1.68 1.67 0.36 1.34 -1 1 C-0.67 0.67 -0.34 0.34 0 0 Z " fill="#7E6049" transform="translate(212,21)"/>
<path d="M0 0 C1 3 1 3 -0.07421875 5.15625 C-0.60660156 5.9296875 -1.13898437 6.703125 -1.6875 7.5 C-2.20699219 8.2734375 -2.72648437 9.046875 -3.26171875 9.84375 C-4.99745295 11.99684051 -6.72163494 13.45130741 -9 15 C-8 13 -7 11 -6 9 C-7.32 8.67 -8.64 8.34 -10 8 C-9.01 6.68 -8.02 5.36 -7 4 C-6.34 4.33 -5.68 4.66 -5 5 C-5 5.33 -5 5.66 -5 6 C-4.34 6 -3.68 6 -3 6 C-2.01 4.02 -1.02 2.04 0 0 Z " fill="#9C6D31" transform="translate(37,159)"/>
<path d="M0 0 C0.66 0 1.32 0 2 0 C2 1.32 2 2.64 2 4 C1.34 4 0.68 4 0 4 C0.04125 5.27875 0.0825 6.5575 0.125 7.875 C0.1953125 10.0546875 0.1953125 10.0546875 0 12 C-0.66 12.66 -1.32 13.32 -2 14 C-3.03842565 16.31648799 -4.0421975 18.64903024 -5 21 C-5.33 19.68 -5.66 18.36 -6 17 C-5.34 17 -4.68 17 -4 17 C-4 14.69 -4 12.38 -4 10 C-3.34 9.67 -2.68 9.34 -2 9 C-1.31270746 6.88153715 -1.31270746 6.88153715 -0.875 4.4375 C-0.70742187 3.61121094 -0.53984375 2.78492187 -0.3671875 1.93359375 C-0.24601562 1.29550781 -0.12484375 0.65742187 0 0 Z " fill="#DDA615" transform="translate(67,102)"/>
<path d="M0 0 C0.33 0.66 0.66 1.32 1 2 C0.01 2.33 -0.98 2.66 -2 3 C-2.45375 3.66 -2.9075 4.32 -3.375 5 C-5.43828906 7.53943269 -6.85557476 7.5035118 -10 8 C-10.33 8.66 -10.66 9.32 -11 10 C-14.31097606 12.20731737 -17.09409237 12.17754126 -21 12 C-21 11.67 -21 11.34 -21 11 C-20.0925 10.731875 -19.185 10.46375 -18.25 10.1875 C-15.03932599 9.19729814 -15.03932599 9.19729814 -12.875 7.375 C-11 6 -11 6 -7 6 C-7 5.34 -7 4.68 -7 4 C-4.69 2.68 -2.38 1.36 0 0 Z " fill="#AC7E2E" transform="translate(142,188)"/>
<path d="M0 0 C0.66 0 1.32 0 2 0 C2 1.32 2 2.64 2 4 C1.34 4 0.68 4 0 4 C0.03480469 4.62648437 0.06960938 5.25296875 0.10546875 5.8984375 C0.13253906 6.71570313 0.15960938 7.53296875 0.1875 8.375 C0.22230469 9.18710938 0.25710938 9.99921875 0.29296875 10.8359375 C0.19628906 11.55007812 0.09960938 12.26421875 0 13 C-0.99 13.66 -1.98 14.32 -3 15 C-3.35050464 9.158256 -3.16727335 5.1468192 0 0 Z " fill="#937763" transform="translate(14,179)"/>
<path d="M0 0 C3.12290635 0.48578543 5.99580359 0.9986012 9 2 C9.6875 4.0625 9.6875 4.0625 10 6 C6.53058454 5.54177532 3.32604951 5.10868317 0 4 C0 2.68 0 1.36 0 0 Z " fill="#8A6A41" transform="translate(161,51)"/>
<path d="M0 0 C0.33 1.32 0.66 2.64 1 4 C2.98 4 4.96 4 7 4 C7 4.66 7 5.32 7 6 C4.03 5.505 4.03 5.505 1 5 C1 6.32 1 7.64 1 9 C1.99 9.33 2.98 9.66 4 10 C2.35 10 0.7 10 -1 10 C-1.33 8.68 -1.66 7.36 -2 6 C-2.99 6 -3.98 6 -5 6 C-3.625 4 -3.625 4 -2 2 C-1.34 2 -0.68 2 0 2 C0 1.34 0 0.68 0 0 Z " fill="#BDA330" transform="translate(160,46)"/>
<path d="M0 0 C1.53445094 3.06890187 0.54984289 5.70094266 0 9 C-0.66 9 -1.32 9 -2 9 C-2 10.32 -2 11.64 -2 13 C-1.01 13 -0.02 13 1 13 C0.34 14.98 -0.32 16.96 -1 19 C-1.99 18.67 -2.98 18.34 -4 18 C-3.67 14.7 -3.34 11.4 -3 8 C-2.34 8 -1.68 8 -1 8 C-1.020625 6.865625 -1.04125 5.73125 -1.0625 4.5625 C-1 1 -1 1 0 0 Z " fill="#B68231" transform="translate(183,134)"/>
<path d="M0 0 C0.66 0.33 1.32 0.66 2 1 C3.70363822 1.22622081 5.41328701 1.40888473 7.125 1.5625 C8.03507813 1.64628906 8.94515625 1.73007812 9.8828125 1.81640625 C10.58148438 1.87699219 11.28015625 1.93757813 12 2 C12 2.33 12 2.66 12 3 C9.36 3.33 6.72 3.66 4 4 C6.475 6.97 6.475 6.97 9 10 C8.01 10 7.02 10 6 10 C5.67 10.66 5.34 11.32 5 12 C4.773125 11.05125 4.54625 10.1025 4.3125 9.125 C3.30916286 5.80676612 3.30916286 5.80676612 0.375 4.625 C-0.40875 4.41875 -1.1925 4.2125 -2 4 C-1.34 2.68 -0.68 1.36 0 0 Z " fill="#8D7142" transform="translate(170,54)"/>
<path d="M0 0 C0.66 0.33 1.32 0.66 2 1 C1.8125 3.8125 1.8125 3.8125 1 7 C-1.3125 8.9375 -1.3125 8.9375 -4 10 C-6.3125 9.6875 -6.3125 9.6875 -8 9 C-7.01 8.67 -6.02 8.34 -5 8 C-5 7.34 -5 6.68 -5 6 C-4.01 6 -3.02 6 -2 6 C-2 4.35 -2 2.7 -2 1 C-1.34 0.67 -0.68 0.34 0 0 Z " fill="#C29129" transform="translate(97,54)"/>
<path d="M0 0 C1.32 0 2.64 0 4 0 C2.55746343 3.36591866 0.66735273 5.51047079 -2 8 C-2.66 7.67 -3.32 7.34 -4 7 C-4 5.68 -4 4.36 -4 3 C-3.01 3 -2.02 3 -1 3 C-0.67 2.01 -0.34 1.02 0 0 Z " fill="#866C47" transform="translate(209,38)"/>
<path d="M0 0 C1.65 0 3.3 0 5 0 C4.62257767 6.16456476 2.84129692 9.17375515 -1 14 C-1 10.98509443 -0.48047265 9.13135886 0.5 6.3125 C0.7784375 5.50425781 1.056875 4.69601563 1.34375 3.86328125 C1.5603125 3.24839844 1.776875 2.63351563 2 2 C1.34 2 0.68 2 0 2 C0 1.34 0 0.68 0 0 Z " fill="#A59C3F" transform="translate(209,24)"/>
<path d="M0 0 C1.32 0 2.64 0 4 0 C4 0.66 4 1.32 4 2 C4.99 2 5.98 2 7 2 C7 1.34 7 0.68 7 0 C8.65 0 10.3 0 12 0 C9.65408148 2.7710688 7.85223799 3.52059284 4.3125 4.1875 C3.50425781 4.34605469 2.69601563 4.50460938 1.86328125 4.66796875 C0.94095703 4.83232422 0.94095703 4.83232422 0 5 C0 3.35 0 1.7 0 0 Z " fill="#EAB219" transform="translate(117,196)"/>
<path d="M0 0 C1.485 0.99 1.485 0.99 3 2 C3 2.66 3 3.32 3 4 C3.66 4 4.32 4 5 4 C5 4.99 5 5.98 5 7 C5.99 7.33 6.98 7.66 8 8 C8 10.64 8 13.28 8 16 C7.73445312 15.44570312 7.46890625 14.89140625 7.1953125 14.3203125 C5.40412742 10.84330618 3.30268955 7.56462382 1.2421875 4.2421875 C0 2 0 2 0 0 Z " fill="#A87B33" transform="translate(175,66)"/>
<path d="M0 0 C1.53445094 3.06890187 0.54984289 5.70094266 0 9 C-0.99 9.33 -1.98 9.66 -3 10 C-3 11.65 -3 13.3 -3 15 C-3.33 15 -3.66 15 -4 15 C-4.95718533 9.69197225 -4.95718533 9.69197225 -5 7 C-3.6875 5.25 -3.6875 5.25 -2 4 C-0.82425289 1.90010348 -0.82425289 1.90010348 0 0 Z " fill="#9C7237" transform="translate(66,102)"/>
<path d="M0 0 C0.66 0 1.32 0 2 0 C2.19477739 1.62414378 2.38059458 3.24936423 2.5625 4.875 C2.66691406 5.77992187 2.77132812 6.68484375 2.87890625 7.6171875 C3 10 3 10 2 12 C1.34 12 0.68 12 0 12 C0 8.04 0 4.08 0 0 Z " fill="#A67F45" transform="translate(189,95)"/>
<path d="M0 0 C0 0.99 0 1.98 0 3 C-0.969375 3.309375 -1.93875 3.61875 -2.9375 3.9375 C-5.84065792 4.69523342 -5.84065792 4.69523342 -7 6 C-8.68608966 6.07205511 -10.37500659 6.08386068 -12.0625 6.0625 C-12.98160156 6.05347656 -13.90070313 6.04445313 -14.84765625 6.03515625 C-15.55792969 6.02355469 -16.26820313 6.01195312 -17 6 C-17 5.67 -17 5.34 -17 5 C-16.43410156 4.86722656 -15.86820313 4.73445313 -15.28515625 4.59765625 C-14.18494141 4.33275391 -14.18494141 4.33275391 -13.0625 4.0625 C-11.96615234 3.80146484 -11.96615234 3.80146484 -10.84765625 3.53515625 C-9.00030102 3.16112431 -9.00030102 3.16112431 -8 2 C-5.66666667 1.66666667 -3.33333333 1.33333333 -1 1 C-0.67 0.67 -0.34 0.34 0 0 Z " fill="#B5B73C" transform="translate(192,41)"/>
<path d="M0 0 C2.6875 1.4375 2.6875 1.4375 5 3 C4.67 3.99 4.34 4.98 4 6 C1.625 5.75 1.625 5.75 -1 5 C-2.3125 2.9375 -2.3125 2.9375 -3 1 C-2.01 0.67 -1.02 0.34 0 0 Z " fill="#8A6649" transform="translate(21,205)"/>
<path d="M0 0 C1.65 0 3.3 0 5 0 C4.375 2.375 4.375 2.375 3 5 C-0.125 6.3125 -0.125 6.3125 -3 7 C-1.125 2.25 -1.125 2.25 0 0 Z " fill="#8C6745" transform="translate(173,158)"/>
<path d="M0 0 C0 1.65 0 3.3 0 5 C-0.99 5 -1.98 5 -3 5 C-3 5.66 -3 6.32 -3 7 C-4.32 6.67 -5.64 6.34 -7 6 C-5.96849913 3.42124782 -5.35028898 2.21229635 -2.9375 0.75 C-1 0 -1 0 0 0 Z " fill="#8B684D" transform="translate(95,55)"/>
<path d="M0 0 C2.97 0 5.94 0 9 0 C9.33 0.66 9.66 1.32 10 2 C9.34 2 8.68 2 8 2 C8 2.66 8 3.32 8 4 C5.125 3.6875 5.125 3.6875 2 3 C1.34 2.01 0.68 1.02 0 0 Z " fill="#8F614A" transform="translate(31,213)"/>
<path d="M0 0 C0.33 1.32 0.66 2.64 1 4 C0.34 4 -0.32 4 -1 4 C-1 5.65 -1 7.3 -1 9 C-1.99 9.33 -2.98 9.66 -4 10 C-4 10.99 -4 11.98 -4 13 C-4.66 12.67 -5.32 12.34 -6 12 C-3 3.42857143 -3 3.42857143 0 0 Z " fill="#D09B1D" transform="translate(43,150)"/>
<path d="M0 0 C0.66 0 1.32 0 2 0 C2.1875 3.375 2.1875 3.375 2 7 C1.01 7.66 0.02 8.32 -1 9 C-1.66 9.99 -2.32 10.98 -3 12 C-2.49202991 7.6822542 -1.80317221 3.96697886 0 0 Z " fill="#7A5540" transform="translate(63,100)"/>
<path d="M0 0 C8.10330579 1.98760331 8.10330579 1.98760331 10 5 C10.1875 7.6875 10.1875 7.6875 10 10 C9.67 8.68 9.34 7.36 9 6 C7.68 5.67 6.36 5.34 5 5 C5 4.34 5 3.68 5 3 C3.35 3 1.7 3 0 3 C0 2.01 0 1.02 0 0 Z " fill="#CD9B26" transform="translate(165,56)"/>
<path d="M0 0 C0 0.33 0 0.66 0 1 C-2.64 1 -5.28 1 -8 1 C-8 0.34 -8 -0.32 -8 -1 C-11.63 -1 -15.26 -1 -19 -1 C-19 -1.33 -19 -1.66 -19 -2 C-11.79862595 -3.27766314 -6.83824362 -2.52686664 0 0 Z " fill="#DEA716" transform="translate(155,53)"/>
<path d="M0 0 C1 2 1 2 0.5625 3.9375 C-1.86077651 7.136225 -5.25549912 7.85052531 -9 9 C-7.83709195 5.51127585 -6.86032391 4.90023136 -3.9375 2.8125 C-3.20402344 2.28269531 -2.47054687 1.75289062 -1.71484375 1.20703125 C-1.14894531 0.80871094 -0.58304688 0.41039062 0 0 Z " fill="#A17635" transform="translate(165,168)"/>
<path d="M0 0 C0.33 0.66 0.66 1.32 1 2 C0.38125 2.5775 -0.2375 3.155 -0.875 3.75 C-2.81347053 5.80249821 -3.90014249 7.43366582 -5 10 C-5.66 10 -6.32 10 -7 10 C-7 10.66 -7 11.32 -7 12 C-7.66 11.67 -8.32 11.34 -9 11 C-8.67 10.01 -8.34 9.02 -8 8 C-7.34 8 -6.68 8 -6 8 C-5.7525 7.4225 -5.505 6.845 -5.25 6.25 C-3.83316683 3.6997003 -2.12372463 1.98214299 0 0 Z " fill="#BF8D25" transform="translate(88,64)"/>
<path d="M0 0 C2.97 0.495 2.97 0.495 6 1 C6 1.99 6 2.98 6 4 C4.02 4.33 2.04 4.66 0 5 C0 3.35 0 1.7 0 0 Z " fill="#B28A37" transform="translate(73,212)"/>
<path d="M0 0 C0.66 0 1.32 0 2 0 C2 0.66 2 1.32 2 2 C2.66 2 3.32 2 4 2 C4 3.32 4 4.64 4 6 C3.34 6 2.68 6 2 6 C1.67 7.32 1.34 8.64 1 10 C0.34 9.67 -0.32 9.34 -1 9 C-0.34 6.69 0.32 4.38 1 2 C0.34 1.67 -0.32 1.34 -1 1 C-0.67 0.67 -0.34 0.34 0 0 Z " fill="#C69425" transform="translate(45,140)"/>
<path d="M0 0 C2.31 0 4.62 0 7 0 C6.67 1.65 6.34 3.3 6 5 C4.02 4.34 2.04 3.68 0 3 C0 2.01 0 1.02 0 0 Z " fill="#9F7849" transform="translate(144,47)"/>
<path d="M0 0 C2 2 2 2 2.125 4.625 C2.08375 5.40875 2.0425 6.1925 2 7 C1.01 7.33 0.02 7.66 -1 8 C-1 7.01 -1 6.02 -1 5 C-1.66 4.67 -2.32 4.34 -3 4 C-2.67 3.34 -2.34 2.68 -2 2 C-1.34 2 -0.68 2 0 2 C0 1.34 0 0.68 0 0 Z " fill="#8C6544" transform="translate(66,95)"/>
<path d="M0 0 C2.64836661 3.12988781 4.0048268 6.0193072 5 10 C4.625 12.375 4.625 12.375 4 14 C1.01520806 9.52281208 0 5.36175907 0 0 Z " fill="#E1A913" transform="translate(179,74)"/>
<path d="M0 0 C0.763125 0.20625 1.52625 0.4125 2.3125 0.625 C1.9825 1.285 1.6525 1.945 1.3125 2.625 C-0.6675 2.625 -2.6475 2.625 -4.6875 2.625 C-4.6875 3.285 -4.6875 3.945 -4.6875 4.625 C-5.3475 4.625 -6.0075 4.625 -6.6875 4.625 C-5.39900677 0.7595203 -4.17039106 -0.58191503 0 0 Z " fill="#8F5E42" transform="translate(160.6875,175.375)"/>
<path d="M0 0 C0.33 0.99 0.66 1.98 1 3 C0.01 4.485 0.01 4.485 -1 6 C-4.625 6.6875 -4.625 6.6875 -8 7 C-8 6.34 -8 5.68 -8 5 C-6.576875 4.87625 -6.576875 4.87625 -5.125 4.75 C-1.89538209 4.34925077 -1.89538209 4.34925077 -0.625 1.9375 C-0.41875 1.298125 -0.2125 0.65875 0 0 Z " fill="#DDA41A" transform="translate(60,124)"/>
<path d="M0 0 C0.33 0.99 0.66 1.98 1 3 C1.99 3 2.98 3 4 3 C3.25 4.9375 3.25 4.9375 2 7 C-0.125 7.75 -0.125 7.75 -2 8 C-1.67 7.4225 -1.34 6.845 -1 6.25 C0.27075898 3.80116138 0.27075898 3.80116138 0 0 Z " fill="#C0C34C" transform="translate(203,42)"/>
<path d="M0 0 C0 0.99 0 1.98 0 3 C-1.65 3.33 -3.3 3.66 -5 4 C-5 3.34 -5 2.68 -5 2 C-6.32 1.67 -7.64 1.34 -9 1 C-5.8035914 -0.06546953 -3.34252724 -0.07427838 0 0 Z " fill="#98835D" transform="translate(204,24)"/>
<path d="M0 0 C0.99 0.33 1.98 0.66 3 1 C3 1.99 3 2.98 3 4 C0.36 4 -2.28 4 -5 4 C-5 3.34 -5 2.68 -5 2 C-3.68 2.33 -2.36 2.66 -1 3 C-0.67 2.01 -0.34 1.02 0 0 Z " fill="#A97D31" transform="translate(66,213)"/>
<path d="M0 0 C0.33 0.66 0.66 1.32 1 2 C0.22265625 3.9453125 0.22265625 3.9453125 -0.9375 6.125 C-1.31777344 6.84945312 -1.69804687 7.57390625 -2.08984375 8.3203125 C-2.39019531 8.87460938 -2.69054687 9.42890625 -3 10 C-3.99 9.67 -4.98 9.34 -6 9 C-4.02 6.03 -2.04 3.06 0 0 Z " fill="#B78729" transform="translate(172,158)"/>
<path d="M0 0 C1.2065625 0.0309375 1.2065625 0.0309375 2.4375 0.0625 C-0.83551919 3.03159598 -2.94315762 3.40604794 -7.3125 3.25 C-8.29734375 3.22292969 -9.2821875 3.19585937 -10.296875 3.16796875 C-11.04453125 3.13316406 -11.7921875 3.09835938 -12.5625 3.0625 C-12.5625 2.7325 -12.5625 2.4025 -12.5625 2.0625 C-11.60537109 1.97162109 -11.60537109 1.97162109 -10.62890625 1.87890625 C-9.38947266 1.75322266 -9.38947266 1.75322266 -8.125 1.625 C-7.30128906 1.54378906 -6.47757813 1.46257813 -5.62890625 1.37890625 C-2.92478859 0.96485421 -2.90505598 0.07085502 0 0 Z " fill="#7C5B46" transform="translate(180.5625,41.9375)"/>
<path d="M0 0 C1.65 0 3.3 0 5 0 C5 1.98 5 3.96 5 6 C4.34 5.67 3.68 5.34 3 5 C3 4.01 3 3.02 3 2 C1.68 2.33 0.36 2.66 -1 3 C-0.67 2.01 -0.34 1.02 0 0 Z " fill="#B2B23C" transform="translate(190,35)"/>
<path d="M0 0 C2.64 0 5.28 0 8 0 C8 0.33 8 0.66 8 1 C3.49646738 2.75747614 -0.17639811 3.19294408 -5 3 C-5 2.67 -5 2.34 -5 2 C-3.35 2 -1.7 2 0 2 C0 1.34 0 0.68 0 0 Z " fill="#DBA419" transform="translate(92,206)"/>
<path d="M0 0 C0 0.66 0 1.32 0 2 C-3.50776784 3.60355101 -6.14354879 4.22036864 -10 4 C-4 0 -4 0 0 0 Z " fill="#896655" transform="translate(127,201)"/>
<path d="M0 0 C0.66 1.32 1.32 2.64 2 4 C0.68 5.32 -0.64 6.64 -2 8 C-2.33 6.68 -2.66 5.36 -3 4 C-2.34 3.67 -1.68 3.34 -1 3 C-0.67 2.01 -0.34 1.02 0 0 Z " fill="#7F5E49" transform="translate(173,161)"/>
<path d="M0 0 C0.66 0.66 1.32 1.32 2 2 C1.625 5.125 1.625 5.125 1 8 C0.34 8 -0.32 8 -1 8 C-1.125 2.25 -1.125 2.25 0 0 Z " fill="#A47D49" transform="translate(190,122)"/>
<path d="M0 0 C3.36720387 1.39332574 4.9859524 2.9789286 7 6 C6.01 6 5.02 6 4 6 C3.67 6.66 3.34 7.32 3 8 C2.690625 7.05125 2.38125 6.1025 2.0625 5.125 C1.12605258 2.13919592 1.12605258 2.13919592 0 0 Z " fill="#9D7A53" transform="translate(172,58)"/>
<path d="M0 0 C-2.35953094 2.35953094 -3.77895617 2.49141413 -7 3 C-7 2.01 -7 1.02 -7 0 C-3.86650268 -1.04449911 -3.01031744 -0.93423645 0 0 Z " fill="#8D6D5D" transform="translate(185,27)"/>
<path d="M0 0 C0.763125 0.0825 1.52625 0.165 2.3125 0.25 C0.6625 1.9 -0.9875 3.55 -2.6875 5.25 C-3.6775 4.92 -4.6675 4.59 -5.6875 4.25 C-3.34903846 0.31153846 -3.34903846 0.31153846 0 0 Z " fill="#85655B" transform="translate(160.6875,18.75)"/>
</svg>
