<?xml version="1.0" encoding="UTF-8"?>
<svg version="1.1" xmlns="http://www.w3.org/2000/svg" width="198" height="217">
<path d="M0 0 C2 3 2 3 1.625 5.6875 C1.41875 6.450625 1.2125 7.21375 1 8 C-0.65 8.33 -2.3 8.66 -4 9 C-4.144375 10.27875 -4.28875 11.5575 -4.4375 12.875 C-4.70642746 15.25692894 -4.92226346 16.84452691 -6 19 C-6.20758661 21.46220784 -6.37387758 23.90860603 -6.5 26.375 C-6.87113135 33.55020602 -6.87113135 33.55020602 -7.50488281 35.76220703 C-8.21301385 38.96276379 -8.18289655 42.14381356 -8.203125 45.40625 C-8.20882507 46.12679565 -8.21452515 46.84734131 -8.22039795 47.58972168 C-8.2298303 49.11611474 -8.23637491 50.64252799 -8.24023438 52.16894531 C-8.24985159 54.46457399 -8.28085274 56.7592721 -8.3125 59.0546875 C-8.3937087 70.22095907 -6.98625865 80.0702164 -2.5 90.4375 C-1.89671875 91.85869141 -1.89671875 91.85869141 -1.28125 93.30859375 C-0.03809239 96.04982315 -0.03809239 96.04982315 1.65625 98.66015625 C3 101 3 101 3 104 C3.78375 104.0825 4.5675 104.165 5.375 104.25 C8 105 8 105 9.3125 107.0625 C9.539375 107.701875 9.76625 108.34125 10 109 C10.99 108.34 11.98 107.68 13 107 C17.04287287 106.8436458 20.83460464 107.40236136 24.4375 109.25 C26 111 26 111 26.8125 113.5625 C27.85651426 116.42380084 27.85651426 116.42380084 31.625 117.3125 C32.73875 117.539375 33.8525 117.76625 35 118 C35 119.65 35 121.3 35 123 C35.61359375 123.24878906 36.2271875 123.49757813 36.859375 123.75390625 C40.20563313 125.70181928 40.93135063 128.06880111 42.234375 131.62109375 C44.63250396 142.20467309 44.58639399 154.47817382 39 164 C38.360625 165.093125 37.72125 166.18625 37.0625 167.3125 C32.15286327 173.70990543 26.32945549 179.13633686 18.11499023 180.4675293 C14.99944899 180.63330027 11.93135221 180.6338652 8.8125 180.5625 C7.75869141 180.57345703 6.70488281 180.58441406 5.61914062 180.59570312 C-0.63427952 180.53659707 -4.16160332 179.98683886 -9 176 C-10.423125 175.62875 -10.423125 175.62875 -11.875 175.25 C-18.97257536 172.41096986 -23.61754495 165.8709784 -27.0390625 159.24609375 C-28.47618256 155.88697167 -29.24781557 152.57287605 -30 149 C-30.33 148.34 -30.66 147.68 -31 147 C-31.92262293 137.4662297 -28.50500031 128.18445278 -22.64453125 120.59375 C-17.38527675 115.49689528 -10.95733892 112.10052206 -4 110 C-4.96925366 108.00395707 -5.96049298 106.06501331 -7.11328125 104.16796875 C-11.2933726 97.26469085 -13.87868546 89.75878059 -16 82 C-16.28798462 80.95622192 -16.28798462 80.95622192 -16.58178711 79.89135742 C-18.35218216 72.45914957 -18.27026888 65.01132065 -18.20581055 57.42114258 C-18.18739366 55.17452779 -18.18530259 52.92832359 -18.18554688 50.68164062 C-18.14649809 39.21585181 -18.14649809 39.21585181 -17 34 C-16.86378815 32.52725994 -16.75798279 31.05137251 -16.68359375 29.57421875 C-16.64169922 28.77822266 -16.59980469 27.98222656 -16.55664062 27.16210938 C-16.51732422 26.34548828 -16.47800781 25.52886719 -16.4375 24.6875 C-16.37272461 23.43356445 -16.37272461 23.43356445 -16.30664062 22.15429688 C-16.20114693 20.10303065 -16.10012685 18.0515352 -16 16 C-16.81404297 16.63228516 -16.81404297 16.63228516 -17.64453125 17.27734375 C-18.35996094 17.82519531 -19.07539062 18.37304688 -19.8125 18.9375 C-20.52019531 19.48277344 -21.22789063 20.02804688 -21.95703125 20.58984375 C-24 22 -24 22 -27 23 C-27 23.66 -27 24.32 -27 25 C-28.64302953 26.68997323 -30.31471312 28.35216394 -32 30 C-33.71367538 31.97731775 -35.37205809 33.95538248 -37 36 C-37.474375 36.58523437 -37.94875 37.17046875 -38.4375 37.7734375 C-42.05483295 42.38930507 -44.89095938 47.22296466 -47.625 52.40625 C-48.7365859 54.50310523 -49.89919205 56.53225559 -51.125 58.5625 C-53.06852293 62.12562538 -54.54618862 65.69438133 -56 69.4765625 C-56.91566098 71.78717576 -57.93257021 74.00672958 -59 76.25 C-61.29712412 81.31638442 -62.70364542 86.60536451 -64.16796875 91.9609375 C-64.72345118 93.98988271 -65.33477978 96.00433935 -66 98 C-66.58075136 101.14324191 -66.74134738 103.87460746 -66 107 C-62.93168622 110.60888519 -59.31669877 112.61273566 -54.8125 113.9375 C-50.72920044 115.48007983 -49.16135515 118.41598071 -47 122 C-46.53078125 122.69609375 -46.0615625 123.3921875 -45.578125 124.109375 C-42.00801013 129.76539968 -41.19880413 134.37296556 -42 141 C-42.19335938 141.73605469 -42.38671875 142.47210938 -42.5859375 143.23046875 C-42.72257812 143.81441406 -42.85921875 144.39835938 -43 145 C-42.67 145.33 -42.34 145.66 -42 146 C-41.09365635 151.89123375 -43.61424252 157.26884941 -47 162 C-47.67546875 162.15855469 -48.3509375 162.31710938 -49.046875 162.48046875 C-50.01367188 162.73763672 -50.01367188 162.73763672 -51 163 C-51.7017679 164.65219371 -52.36486065 166.32106575 -53 168 C-54.8828125 169.9140625 -54.8828125 169.9140625 -57.125 171.625 C-57.84945312 172.19476563 -58.57390625 172.76453125 -59.3203125 173.3515625 C-66.06175923 177.49863323 -72.09481638 178.48251585 -79.9375 178.375 C-80.77990234 178.38660156 -81.62230469 178.39820313 -82.49023438 178.41015625 C-91.74694252 178.36740009 -99.62069675 175.59510551 -107 170 C-109.51977973 167.32273404 -110 166.70908301 -110 163 C-110.639375 162.690625 -111.27875 162.38125 -111.9375 162.0625 C-114 161 -114 161 -115 160 C-115.04092937 157.66702567 -115.04241723 155.33294775 -115 153 C-115.639375 152.855625 -116.27875 152.71125 -116.9375 152.5625 C-119 152 -119 152 -120 151 C-121.43485968 138.03734723 -118.88446616 129.2488792 -111.26953125 118.57421875 C-109.6875 116.625 -109.6875 116.625 -107 114 C-106.34 114 -105.68 114 -105 114 C-105 113.34 -105 112.68 -105 112 C-101.53034013 108.35240886 -99.373636 106.76368201 -94.3125 106.375 C-93.19294922 106.35566406 -93.19294922 106.35566406 -92.05078125 106.3359375 C-89.49052623 105.91654334 -88.63128484 104.95754181 -87 103 C-86.01 103.33 -85.02 103.66 -84 104 C-81.66700175 104.03954234 -79.33291811 104.04401732 -77 104 C-76.86722656 103.21753906 -76.73445313 102.43507813 -76.59765625 101.62890625 C-76.42105469 100.61699219 -76.24445313 99.60507813 -76.0625 98.5625 C-75.88847656 97.55316406 -75.71445313 96.54382813 -75.53515625 95.50390625 C-75 93 -75 93 -74 92 C-73.896875 91.030625 -73.79375 90.06125 -73.6875 89.0625 C-73.15484723 84.92809993 -71.65966799 81.39193068 -70.046875 77.5703125 C-68.74382205 74.37102579 -67.71386118 71.11624859 -66.7109375 67.8125 C-66 66 -66 66 -64 64 C-63.37151151 62.32879198 -62.79521165 60.63769948 -62.25 58.9375 C-60.55739534 54.1059979 -58.41395885 50.24174407 -55.4609375 46.08203125 C-53.41621477 43.168028 -51.72216819 40.1131502 -50 37 C-49.34 37 -48.68 37 -48 37 C-47.92652344 36.47921875 -47.85304688 35.9584375 -47.77734375 35.421875 C-46.66556492 31.95804146 -44.63285929 29.19839899 -42.5625 26.25 C-41.95051758 25.34701172 -41.95051758 25.34701172 -41.32617188 24.42578125 C-40.27295908 22.91039188 -39.14181957 21.4497966 -38 20 C-37.34 20 -36.68 20 -36 20 C-36 19.34 -36 18.68 -36 18 C-33.91796875 16.0546875 -33.91796875 16.0546875 -31.1875 13.875 C-30.29417969 13.15054687 -29.40085937 12.42609375 -28.48046875 11.6796875 C-26 10 -26 10 -23 10 C-23.04125 9.05125 -23.0825 8.1025 -23.125 7.125 C-23 4 -23 4 -21 2 C-14.1513275 0.26913425 -7.04000194 -0.56774209 0 0 Z " fill="#E71E62" transform="translate(137,18)"/>
<path d="M0 0 C1.07894531 0.22042969 2.15789063 0.44085938 3.26953125 0.66796875 C4.89955078 0.98701172 4.89955078 0.98701172 6.5625 1.3125 C7.39394531 1.49167969 8.22539063 1.67085938 9.08203125 1.85546875 C8.42203125 4.16546875 7.76203125 6.47546875 7.08203125 8.85546875 C10.05203125 8.85546875 13.02203125 8.85546875 16.08203125 8.85546875 C16.08203125 6.54546875 16.08203125 4.23546875 16.08203125 1.85546875 C18.5943774 3.86534567 21.09392891 5.86584107 23.51953125 7.98046875 C25.98928236 10.02301872 25.98928236 10.02301872 29.08203125 10.66796875 C33.25411753 12.31941957 34.85544428 15.16328024 37.08203125 18.85546875 C37.55125 19.5515625 38.02046875 20.24765625 38.50390625 20.96484375 C42.07402112 26.62086843 42.88322712 31.22843431 42.08203125 37.85546875 C41.88867188 38.59152344 41.6953125 39.32757813 41.49609375 40.0859375 C41.35945313 40.66988281 41.2228125 41.25382812 41.08203125 41.85546875 C41.41203125 42.18546875 41.74203125 42.51546875 42.08203125 42.85546875 C42.9883749 48.7467025 40.46778873 54.12431816 37.08203125 58.85546875 C36.4065625 59.01402344 35.73109375 59.17257813 35.03515625 59.3359375 C34.390625 59.50738281 33.74609375 59.67882812 33.08203125 59.85546875 C32.38026335 61.50766246 31.7171706 63.1765345 31.08203125 64.85546875 C29.19921875 66.76953125 29.19921875 66.76953125 26.95703125 68.48046875 C26.23257813 69.05023438 25.508125 69.62 24.76171875 70.20703125 C18.02027202 74.35410198 11.98721487 75.3379846 4.14453125 75.23046875 C3.30212891 75.24207031 2.45972656 75.25367188 1.59179688 75.265625 C-7.66491127 75.22286884 -15.5386655 72.45057426 -22.91796875 66.85546875 C-25.43774848 64.17820279 -25.91796875 63.56455176 -25.91796875 59.85546875 C-26.55734375 59.54609375 -27.19671875 59.23671875 -27.85546875 58.91796875 C-29.91796875 57.85546875 -29.91796875 57.85546875 -30.91796875 56.85546875 C-30.95889812 54.52249442 -30.96038598 52.1884165 -30.91796875 49.85546875 C-31.55734375 49.71109375 -32.19671875 49.56671875 -32.85546875 49.41796875 C-34.91796875 48.85546875 -34.91796875 48.85546875 -35.91796875 47.85546875 C-37.35282843 34.89281598 -34.80243491 26.10434795 -27.1875 15.4296875 C-25.60546875 13.48046875 -25.60546875 13.48046875 -22.91796875 10.85546875 C-22.25796875 10.85546875 -21.59796875 10.85546875 -20.91796875 10.85546875 C-20.91796875 10.19546875 -20.91796875 9.53546875 -20.91796875 8.85546875 C-17.44830888 5.20787761 -15.29160475 3.61915076 -10.23046875 3.23046875 C-9.11091797 3.21113281 -9.11091797 3.21113281 -7.96875 3.19140625 C-5.80192016 3.05923201 -5.80192016 3.05923201 -4.53515625 1.28125 C-2.91796875 -0.14453125 -2.91796875 -0.14453125 0 0 Z " fill="#E71E62" transform="translate(52.91796875,121.14453125)"/>
<path d="M0 0 C2 3 2 3 1.625 5.6875 C1.41875 6.450625 1.2125 7.21375 1 8 C-0.65 8.33 -2.3 8.66 -4 9 C-4.144375 10.27875 -4.28875 11.5575 -4.4375 12.875 C-4.70642746 15.25692894 -4.92226346 16.84452691 -6 19 C-6.20758661 21.46220784 -6.37387758 23.90860603 -6.5 26.375 C-6.87113135 33.55020602 -6.87113135 33.55020602 -7.50488281 35.76220703 C-8.21301385 38.96276379 -8.18289655 42.14381356 -8.203125 45.40625 C-8.20882507 46.12679565 -8.21452515 46.84734131 -8.22039795 47.58972168 C-8.2298303 49.11611474 -8.23637491 50.64252799 -8.24023438 52.16894531 C-8.24985159 54.46457399 -8.28085274 56.7592721 -8.3125 59.0546875 C-8.3937087 70.22095907 -6.98625865 80.0702164 -2.5 90.4375 C-1.89671875 91.85869141 -1.89671875 91.85869141 -1.28125 93.30859375 C-0.03809239 96.04982315 -0.03809239 96.04982315 1.65625 98.66015625 C3 101 3 101 3 104 C3.78375 104.0825 4.5675 104.165 5.375 104.25 C8 105 8 105 9.3125 107.0625 C9.539375 107.701875 9.76625 108.34125 10 109 C10.99 108.34 11.98 107.68 13 107 C17.11387094 106.84090002 20.89869376 107.43591632 24.5625 109.3125 C26 111 26 111 26 115 C23.69 115 21.38 115 19 115 C19 114.01 19 113.02 19 112 C16.03 111.67 13.06 111.34 10 111 C9.01 112.98 9.01 112.98 8 115 C5.36 115 2.72 115 0 115 C-0.103125 114.360625 -0.20625 113.72125 -0.3125 113.0625 C-0.539375 112.381875 -0.76625 111.70125 -1 111 C-2.485 110.505 -2.485 110.505 -4 110 C-5.04296875 108.17578125 -5.04296875 108.17578125 -6 106 C-6.55107422 105.09314453 -6.55107422 105.09314453 -7.11328125 104.16796875 C-11.2933726 97.26469085 -13.87868546 89.75878059 -16 82 C-16.19198975 81.30414795 -16.38397949 80.6082959 -16.58178711 79.89135742 C-18.35218216 72.45914957 -18.27026888 65.01132065 -18.20581055 57.42114258 C-18.18739366 55.17452779 -18.18530259 52.92832359 -18.18554688 50.68164062 C-18.14649809 39.21585181 -18.14649809 39.21585181 -17 34 C-16.86378815 32.52725994 -16.75798279 31.05137251 -16.68359375 29.57421875 C-16.62075195 28.38022461 -16.62075195 28.38022461 -16.55664062 27.16210938 C-16.51732422 26.34548828 -16.47800781 25.52886719 -16.4375 24.6875 C-16.37272461 23.43356445 -16.37272461 23.43356445 -16.30664062 22.15429688 C-16.20114693 20.10303065 -16.10012685 18.0515352 -16 16 C-16.81404297 16.63228516 -16.81404297 16.63228516 -17.64453125 17.27734375 C-18.35996094 17.82519531 -19.07539062 18.37304688 -19.8125 18.9375 C-20.52019531 19.48277344 -21.22789063 20.02804688 -21.95703125 20.58984375 C-24 22 -24 22 -27 23 C-27 23.66 -27 24.32 -27 25 C-28.64302953 26.68997323 -30.31471312 28.35216394 -32 30 C-33.71367538 31.97731775 -35.37205809 33.95538248 -37 36 C-37.474375 36.58523437 -37.94875 37.17046875 -38.4375 37.7734375 C-42.05483295 42.38930507 -44.89095938 47.22296466 -47.625 52.40625 C-48.7365859 54.50310523 -49.89919205 56.53225559 -51.125 58.5625 C-53.06852293 62.12562538 -54.54618862 65.69438133 -56 69.4765625 C-56.91566098 71.78717576 -57.93257021 74.00672958 -59 76.25 C-64.06075668 87.60197186 -66.05318487 99.81765684 -68 112 C-73.625 113.125 -73.625 113.125 -77 112 C-76.125 107.25 -76.125 107.25 -75 105 C-75.66 104.67 -76.32 104.34 -77 104 C-76.69230293 102.18667846 -76.37870936 100.37435655 -76.0625 98.5625 C-75.88847656 97.55316406 -75.71445313 96.54382813 -75.53515625 95.50390625 C-75 93 -75 93 -74 92 C-73.896875 91.030625 -73.79375 90.06125 -73.6875 89.0625 C-73.15484723 84.92809993 -71.65966799 81.39193068 -70.046875 77.5703125 C-68.74382205 74.37102579 -67.71386118 71.11624859 -66.7109375 67.8125 C-66 66 -66 66 -64 64 C-63.37151151 62.32879198 -62.79521165 60.63769948 -62.25 58.9375 C-60.55739534 54.1059979 -58.41395885 50.24174407 -55.4609375 46.08203125 C-53.41621477 43.168028 -51.72216819 40.1131502 -50 37 C-49.34 37 -48.68 37 -48 37 C-47.92652344 36.47921875 -47.85304688 35.9584375 -47.77734375 35.421875 C-46.66556492 31.95804146 -44.63285929 29.19839899 -42.5625 26.25 C-41.95051758 25.34701172 -41.95051758 25.34701172 -41.32617188 24.42578125 C-40.27295908 22.91039188 -39.14181957 21.4497966 -38 20 C-37.34 20 -36.68 20 -36 20 C-36 19.34 -36 18.68 -36 18 C-33.91796875 16.0546875 -33.91796875 16.0546875 -31.1875 13.875 C-30.29417969 13.15054687 -29.40085938 12.42609375 -28.48046875 11.6796875 C-26 10 -26 10 -23 10 C-23.04125 9.05125 -23.0825 8.1025 -23.125 7.125 C-23 4 -23 4 -21 2 C-14.1513275 0.26913425 -7.04000194 -0.56774209 0 0 Z " fill="#79564A" transform="translate(137,18)"/>
<path d="M0 0 C3.58099725 0.46867858 4.00289104 1.00355821 6.4375 4 C7.30586884 5.32412765 8.15917896 6.65821073 9 8 C9.47179687 8.69738281 9.94359375 9.39476562 10.4296875 10.11328125 C13.98828185 15.77285362 14.8010399 20.37425565 14 27 C13.80664062 27.73605469 13.61328125 28.47210938 13.4140625 29.23046875 C13.27742188 29.81441406 13.14078125 30.39835937 13 31 C13.33 31.33 13.66 31.66 14 32 C14.90634365 37.89123375 12.38575748 43.26884941 9 48 C8.32453125 48.15855469 7.6490625 48.31710938 6.953125 48.48046875 C6.30859375 48.65191406 5.6640625 48.82335937 5 49 C4.2982321 50.65219371 3.63513935 52.32106575 3 54 C1.1171875 55.9140625 1.1171875 55.9140625 -1.125 57.625 C-1.84945312 58.19476563 -2.57390625 58.76453125 -3.3203125 59.3515625 C-10.06175923 63.49863323 -16.09481638 64.48251585 -23.9375 64.375 C-24.77990234 64.38660156 -25.62230469 64.39820313 -26.49023438 64.41015625 C-35.45311966 64.36875724 -44.03801882 61.83853189 -51 56 C-52.5 53.1875 -52.5 53.1875 -53 51 C-50 50 -50 50 -47 51 C-46.67 51.66 -46.34 52.32 -46 53 C-39.10597375 57.52221386 -32.05643916 57.55171302 -24.0625 57.375 C-22.3599707 57.37306641 -22.3599707 57.37306641 -20.62304688 57.37109375 C-14.74213845 57.7147623 -14.74213845 57.7147623 -10 55 C-9.01 55 -8.02 55 -7 55 C-7 54.34 -7 53.68 -7 53 C-5.35 53 -3.7 53 -2 53 C-1.855625 52.4225 -1.71125 51.845 -1.5625 51.25 C-0.78125 48.125 -0.78125 48.125 0 45 C0.99 45 1.98 45 3 45 C3 44.01 3 43.02 3 42 C3.66 42 4.32 42 5 42 C5 40.02 5 38.04 5 36 C5.99 35.67 6.98 35.34 8 35 C8.38133299 33.0085944 8.71325582 31.00720923 9 29 C8.67 28.67 8.34 28.34 8 28 C7.75394382 25.98115353 7.52842772 23.95979077 7.3125 21.9375 C6.31650598 14.97320336 3.89715204 10.89715204 -1 6 C-1.125 3.5 -1.125 3.5 -1 1 C-0.67 0.67 -0.34 0.34 0 0 Z " fill="#904A4C" transform="translate(81,132)"/>
<path d="M0 0 C1.95483398 0.22021484 1.95483398 0.22021484 4 1 C6.88169718 6.81567005 7.51781947 11.94749948 7.4375 18.375 C7.43137695 19.20990967 7.42525391 20.04481934 7.41894531 20.9050293 C7.25794549 27.25894918 6.25295677 32.45544138 3 38 C2.0409375 39.6396875 2.0409375 39.6396875 1.0625 41.3125 C-3.85892313 47.72526348 -9.68173331 53.14767087 -17.91723633 54.4675293 C-21.06361932 54.63286511 -24.16287062 54.63395082 -27.3125 54.5625 C-28.38306641 54.57345703 -29.45363281 54.58441406 -30.55664062 54.59570312 C-38.40171814 54.52201736 -38.40171814 54.52201736 -41.33276367 51.96459961 C-41.88295166 51.31628174 -42.43313965 50.66796387 -43 50 C-41 48 -41 48 -39.13989258 47.89648438 C-38.39892334 47.96158203 -37.6579541 48.02667969 -36.89453125 48.09375 C-35.66573242 48.18462891 -35.66573242 48.18462891 -34.41210938 48.27734375 C-32.69842467 48.42412065 -30.98487806 48.57252029 -29.27148438 48.72265625 C-24.03317407 49.10704436 -20.02839381 48.81147106 -15 47 C-13.88238281 46.60941406 -13.88238281 46.60941406 -12.7421875 46.2109375 C-7.16516765 43.71411271 -4.62382437 40.44234949 -2 35 C-1.46375 33.98421875 -0.9275 32.9684375 -0.375 31.921875 C1.66399765 27.09790496 1.32479739 22.21291218 1.1875 17.0625 C1.17396484 16.09248047 1.16042969 15.12246094 1.14648438 14.12304688 C1.11138677 11.74810871 1.06222275 9.37435622 1 7 C0.34 6.67 -0.32 6.34 -1 6 C-1.042721 4.33388095 -1.04063832 2.66617115 -1 1 C-0.67 0.67 -0.34 0.34 0 0 Z " fill="#82534C" transform="translate(173,144)"/>
<path d="M0 0 C0.66 0.33 1.32 0.66 2 1 C2.375 3.1875 2.375 3.1875 2 6 C-0.8125 8.8125 -0.8125 8.8125 -4 11 C-4.99 11 -5.98 11 -7 11 C-11.46560955 19.65086693 -14.08205503 28.18621804 -14 38 C-13.67 38.33 -13.34 38.66 -13 39 C-12.95907063 41.33297433 -12.95758277 43.66705225 -13 46 C-14.32 46 -15.64 46 -17 46 C-17.20496094 45.37351563 -17.40992187 44.74703125 -17.62109375 44.1015625 C-17.89050781 43.28429687 -18.15992187 42.46703125 -18.4375 41.625 C-18.70433594 40.81289062 -18.97117187 40.00078125 -19.24609375 39.1640625 C-19.95179729 36.98968201 -19.95179729 36.98968201 -21 35 C-21.92296468 25.46269832 -18.50054269 16.21111669 -12.66015625 8.60546875 C-8.99177272 5.05792609 -4.57306848 2.23866798 0 0 Z " fill="#855249" transform="translate(127,130)"/>
<path d="M0 0 C-1.13408845 5.29241275 -3.28661122 7.46993736 -7.44140625 10.60546875 C-9.28255048 12.02075321 -9.28255048 12.02075321 -10 15 C-10.99 15 -11.98 15 -13 15 C-13.27714844 15.58523437 -13.55429687 16.17046875 -13.83984375 16.7734375 C-15 19 -15 19 -16.25390625 20.7265625 C-21.50085435 28.33855287 -20.89428875 37.09142477 -21 46 C-24.875 45.125 -24.875 45.125 -26 44 C-27.43485968 31.03734723 -24.88446616 22.2488792 -17.26953125 11.57421875 C-15.6875 9.625 -15.6875 9.625 -13 7 C-12.34 7 -11.68 7 -11 7 C-11 6.34 -11 5.68 -11 5 C-5.11138162 -0.75167377 -5.11138162 -0.75167377 0 0 Z " fill="#7D514A" transform="translate(43,125)"/>
<path d="M0 0 C1.95483398 0.22021484 1.95483398 0.22021484 4 1 C6.88185656 6.81599169 7.51721487 11.94725975 7.4375 18.375 C7.43210205 19.20628418 7.4267041 20.03756836 7.42114258 20.89404297 C7.27080243 26.9706373 6.66629974 32.92358498 3 38 C1.515 38.495 1.515 38.495 0 39 C-0.125 31.375 -0.125 31.375 1 28 C1.08143855 26.37280518 1.1075302 24.74248281 1.09765625 23.11328125 C1.09443359 22.17548828 1.09121094 21.23769531 1.08789062 20.27148438 C1.07951172 19.29501953 1.07113281 18.31855469 1.0625 17.3125 C1.05573242 15.83040039 1.05573242 15.83040039 1.04882812 14.31835938 C1.03704303 11.87884526 1.02059011 9.43945311 1 7 C0.34 6.67 -0.32 6.34 -1 6 C-1.042721 4.33388095 -1.04063832 2.66617115 -1 1 C-0.67 0.67 -0.34 0.34 0 0 Z " fill="#7D534C" transform="translate(173,144)"/>
<path d="M0 0 C0.99 0 1.98 0 3 0 C3 0.99 3 1.98 3 3 C2.34 3 1.68 3 1 3 C0.896875 3.598125 0.79375 4.19625 0.6875 4.8125 C-0.10127968 7.32225354 -1.17017086 8.17017086 -3 10 C-3.71447643 12.10332891 -3.71447643 12.10332891 -4 14 C-4.66 14 -5.32 14 -6 14 C-6.33 15.32 -6.66 16.64 -7 18 C-7.66 18 -8.32 18 -9 18 C-9.12375 18.556875 -9.2475 19.11375 -9.375 19.6875 C-10.06111176 22.2261135 -11.01350415 24.56277496 -12 27 C-12.67795528 28.99620166 -13.34733531 30.99538701 -14 33 C-14.66 33 -15.32 33 -16 33 C-16.33 34.98 -16.66 36.96 -17 39 C-17.66 39 -18.32 39 -19 39 C-18.9175 39.680625 -18.835 40.36125 -18.75 41.0625 C-19.09946865 45.16875665 -20.81849032 47.52321895 -23 51 C-24.109375 49.3515625 -24.109375 49.3515625 -25 47 C-24.390625 44.2734375 -24.390625 44.2734375 -23.25 41.375 C-22.88390625 40.41335937 -22.5178125 39.45171875 -22.140625 38.4609375 C-21 36 -21 36 -19 34 C-18.37151151 32.32879198 -17.79521165 30.63769948 -17.25 28.9375 C-15.55739534 24.1059979 -13.41395885 20.24174407 -10.4609375 16.08203125 C-8.41621477 13.168028 -6.72216819 10.1131502 -5 7 C-4.34 7 -3.68 7 -3 7 C-2.87625 6.401875 -2.7525 5.80375 -2.625 5.1875 C-2 3 -2 3 0 0 Z " fill="#89685D" transform="translate(92,48)"/>
<path d="M0 0 C2.5 0.3125 2.5 0.3125 5 1 C5.33 1.66 5.66 2.32 6 3 C10.73901307 5.55407862 15.86427902 7.41977816 21 9 C21 9.66 21 10.32 21 11 C22.18078125 10.97679687 23.3615625 10.95359375 24.578125 10.9296875 C26.13541033 10.91092503 27.69270252 10.89272534 29.25 10.875 C30.02730469 10.85824219 30.80460937 10.84148437 31.60546875 10.82421875 C38.72431144 10.76337394 38.72431144 10.76337394 42 13 C37.43728345 14.29124943 33.02550789 14.22237798 28.3125 14.25 C27.45205078 14.270625 26.59160156 14.29125 25.70507812 14.3125 C16.62439959 14.36724411 8.06334675 11.92354018 1 6 C-0.5 3.1875 -0.5 3.1875 -1 1 C-0.67 0.67 -0.34 0.34 0 0 Z " fill="#7F5049" transform="translate(29,182)"/>
<path d="M0 0 C0.33 1.32 0.66 2.64 1 4 C0.34 4 -0.32 4 -1 4 C-2.80663373 7.9745942 -3.41983075 11.69017128 -4 16 C-4.33 16.33 -4.66 16.66 -5 17 C-5.23653523 19.52596259 -5.42173692 22.03107207 -5.5625 24.5625 C-5.60568359 25.27341797 -5.64886719 25.98433594 -5.69335938 26.71679688 C-5.79971777 28.47761912 -5.90038846 30.2387832 -6 32 C-4.68 32.33 -3.36 32.66 -2 33 C-2 34.98 -2 36.96 -2 39 C-0.35 39 1.3 39 3 39 C3 39.99 3 40.98 3 42 C3.66 42 4.32 42 5 42 C5.33 42.66 5.66 43.32 6 44 C8.30965848 45.05352843 10.6429774 46.05719096 13 47 C11.3125 47.6875 11.3125 47.6875 9 48 C6.25 46.6875 6.25 46.6875 4 45 C4 44.34 4 43.68 4 43 C0.37114676 42.84850702 0.37114676 42.84850702 -3 44 C-3 43.01 -3 42.02 -3 41 C-3.639375 40.690625 -4.27875 40.38125 -4.9375 40.0625 C-7 39 -7 39 -8 38 C-8.36828637 34.03069136 -8.37211355 30.04656429 -8.4375 26.0625 C-8.48326172 24.95841797 -8.52902344 23.85433594 -8.57617188 22.71679688 C-8.68761214 14.51382411 -6.84729175 9.56481734 -2 3 C-1.34 2.01 -0.68 1.02 0 0 Z " fill="#C3315A" transform="translate(30,140)"/>
<path d="M0 0 C0.66 0.66 1.32 1.32 2 2 C4.31765729 2.71927295 6.65095874 3.3909893 9 4 C9 5.65 9 7.3 9 9 C10.32 9.66 11.64 10.32 13 11 C13 11.66 13 12.32 13 13 C12.01 13 11.02 13 10 13 C9.67 14.65 9.34 16.3 9 18 C9.99 18.33 10.98 18.66 12 19 C12.0878954 22.35399849 12.14068879 25.7076964 12.1875 29.0625 C12.22520508 30.47692383 12.22520508 30.47692383 12.26367188 31.91992188 C12.32478517 37.76642736 11.74104641 41.81287544 9 47 C8.67 47 8.34 47 8 47 C7.95745644 45.00045254 7.95919217 42.99958364 8 41 C8.495 40.505 8.495 40.505 9 40 C9.15620555 38.58672053 9.25056173 37.1664541 9.31640625 35.74609375 C9.35830078 34.89208984 9.40019531 34.03808594 9.44335938 33.15820312 C9.50233398 31.81145508 9.50233398 31.81145508 9.5625 30.4375 C9.60568359 29.53580078 9.64886719 28.63410156 9.69335938 27.70507812 C9.79978142 25.47021515 9.90179988 23.23523692 10 21 C9.34 21 8.68 21 8 21 C8 19.02 8 17.04 8 15 C7.34 15 6.68 15 6 15 C5.67 13.02 5.34 11.04 5 9 C4.34 9 3.68 9 3 9 C3 8.34 3 7.68 3 7 C2.01 7 1.02 7 0 7 C0 6.01 0 5.02 0 4 C-0.66 4 -1.32 4 -2 4 C-2 3.01 -2 2.02 -2 1 C-1.34 0.67 -0.68 0.34 0 0 Z " fill="#AB3952" transform="translate(163,132)"/>
<path d="M0 0 C3.58099725 0.46867858 4.00289104 1.00355821 6.4375 4 C7.30710692 5.32331488 8.16031046 6.65750235 9 8 C9.47179687 8.70898438 9.94359375 9.41796875 10.4296875 10.1484375 C13.87628321 15.69804076 14.51619346 19.49596241 14 26 C12.35 25.67 10.7 25.34 9 25 C8.773125 24.030625 8.54625 23.06125 8.3125 22.0625 C6.81672084 16.81658881 4.29800501 11.23796213 0.35546875 7.3984375 C-1 6 -1 6 -1.25 3.375 C-1 1 -1 1 0 0 Z " fill="#7F544D" transform="translate(81,132)"/>
<path d="M0 0 C0.66 0.33 1.32 0.66 2 1 C2.375 3.1875 2.375 3.1875 2 6 C-0.8125 8.8125 -0.8125 8.8125 -4 11 C-4.99 11 -5.98 11 -7 11 C-7.66 12.32 -8.32 13.64 -9 15 C-10.32 14.67 -11.64 14.34 -13 14 C-14.87543354 17.86763446 -14.87543354 17.86763446 -14 22 C-15.32 22.33 -16.64 22.66 -18 23 C-18.41821231 16.8148601 -15.76393109 12.74550527 -12 8 C-8.29089953 4.85236887 -4.35350277 2.17675139 0 0 Z " fill="#794B44" transform="translate(127,130)"/>
<path d="M0 0 C-1.13408845 5.29241275 -3.28661122 7.46993736 -7.44140625 10.60546875 C-9.28255048 12.02075321 -9.28255048 12.02075321 -10 15 C-10.99 15 -11.98 15 -13 15 C-13.66 16.32 -14.32 17.64 -15 19 C-15.99 19 -16.98 19 -18 19 C-18.33 18.34 -18.66 17.68 -19 17 C-18.34 16.236875 -17.68 15.47375 -17 14.6875 C-14.70149462 12.15722061 -14.70149462 12.15722061 -15 9 C-13.68 8.34 -12.36 7.68 -11 7 C-11 6.34 -11 5.68 -11 5 C-5.11138162 -0.75167377 -5.11138162 -0.75167377 0 0 Z " fill="#85544F" transform="translate(43,125)"/>
<path d="M0 0 C1.32 0 2.64 0 4 0 C4.33 2.31 4.66 4.62 5 7 C7.35171131 6.40138258 9.6859378 5.73075648 12 5 C12.33 4.34 12.66 3.68 13 3 C14.32 3 15.64 3 17 3 C17 2.01 17 1.02 17 0 C25.01759463 0.49681676 25.01759463 0.49681676 28.5625 2.3125 C30 4 30 4 30 8 C27.69 8 25.38 8 23 8 C23 7.01 23 6.02 23 5 C20.03 4.67 17.06 4.34 14 4 C13.34 5.32 12.68 6.64 12 8 C9.36 8 6.72 8 4 8 C3.896875 7.360625 3.79375 6.72125 3.6875 6.0625 C3.460625 5.381875 3.23375 4.70125 3 4 C2.01 3.67 1.02 3.34 0 3 C0 2.01 0 1.02 0 0 Z " fill="#854B45" transform="translate(133,125)"/>
<path d="M0 0 C2.625 0.9375 2.625 0.9375 5 2 C5 2.66 5 3.32 5 4 C5.66 4 6.32 4 7 4 C9.625 6.125 9.625 6.125 12 9 C12.3125 12.3125 12.3125 12.3125 12 15 C7.74308396 14.49393306 5.74209074 13.28777151 2.75 10.25 C2.06421875 9.57453125 1.3784375 8.8990625 0.671875 8.203125 C-1.18411848 5.75737659 -1.64116407 4.0184434 -2 1 C-1.34 0.67 -0.68 0.34 0 0 Z " fill="#893F46" transform="translate(115,178)"/>
<path d="M0 0 C0.33 0 0.66 0 1 0 C1.1875 3.375 1.1875 3.375 1 7 C-2 9 -2 9 -6 9 C-6 9.66 -6 10.32 -6 11 C-7.6796875 12.62109375 -7.6796875 12.62109375 -9.875 14.4375 C-12.46193722 16.58400884 -14.11184374 18.16776562 -16 21 C-16.66 21 -17.32 21 -18 21 C-18.33 21.99 -18.66 22.98 -19 24 C-19.99 23.67 -20.98 23.34 -22 23 C-21.21718695 21.66144944 -20.42348123 20.32926356 -19.625 19 C-19.18414062 18.2575 -18.74328125 17.515 -18.2890625 16.75 C-17.86367187 16.1725 -17.43828125 15.595 -17 15 C-16.34 15 -15.68 15 -15 15 C-15 14.34 -15 13.68 -15 13 C-12.953125 11.08984375 -12.953125 11.08984375 -10.25 8.9375 C-9.36828125 8.22464844 -8.4865625 7.51179688 -7.578125 6.77734375 C-5.24798332 5.1709582 -3.75649249 4.4186262 -1 4 C-0.67 2.68 -0.34 1.36 0 0 Z " fill="#8B6D63" transform="translate(116,23)"/>
<path d="M0 0 C0.495 0.99 0.495 0.99 1 2 C-2.80892655 8.47517513 -6.98923793 11.34905559 -14 14 C-21.24536899 15.75114658 -28.27403713 14.95110953 -35.58203125 14.0234375 C-38.2655693 13.77062368 -38.2655693 13.77062368 -41 16 C-41.33 15.34 -41.66 14.68 -42 14 C-38.73080095 11.04664212 -36.64072768 10.64604319 -32.28125 10.7421875 C-31.18425781 10.75636719 -30.08726562 10.77054688 -28.95703125 10.78515625 C-27.81621094 10.81480469 -26.67539063 10.84445313 -25.5 10.875 C-23.23966282 10.91841891 -20.97924042 10.95765592 -18.71875 10.9921875 C-17.71779297 11.01651855 -16.71683594 11.04084961 -15.68554688 11.06591797 C-13.26596331 11.00652819 -11.30419387 10.70208047 -9 10 C-9 9.34 -9 8.68 -9 8 C-8.39671875 7.90847656 -7.7934375 7.81695312 -7.171875 7.72265625 C-4.46742737 6.82279508 -3.7917686 5.79297981 -2.25 3.4375 C-1.82203125 2.79683594 -1.3940625 2.15617188 -0.953125 1.49609375 C-0.48132813 0.75552734 -0.48132813 0.75552734 0 0 Z " fill="#BE3059" transform="translate(170,179)"/>
<path d="M0 0 C1.32 0.33 2.64 0.66 4 1 C4.77566125 6.89502551 2.55331241 12.34121262 -1 17 C-3.67578125 17.79296875 -3.67578125 17.79296875 -6 18 C-5.34086901 13.64973547 -3.76137815 10.01594217 -2 6 C-1.31163487 4.00736409 -0.63718601 2.00958663 0 0 Z " fill="#83544A" transform="translate(91,163)"/>
<path d="M0 0 C0.33 0 0.66 0 1 0 C1.12375 1.423125 1.12375 1.423125 1.25 2.875 C1.65074923 6.10461791 1.65074923 6.10461791 4.0625 7.375 C4.701875 7.58125 5.34125 7.7875 6 8 C5.67 9.65 5.34 11.3 5 13 C4.01 13 3.02 13 2 13 C1.80664062 13.75925781 1.61328125 14.51851562 1.4140625 15.30078125 C1.15367188 16.29464844 0.89328125 17.28851563 0.625 18.3125 C0.36976562 19.29863281 0.11453125 20.28476563 -0.1484375 21.30078125 C-1 24 -1 24 -3 27 C-3.16713569 29.62531524 -3.16713569 29.62531524 -3 32 C-4.98 31.67 -6.96 31.34 -9 31 C-8.67 29.35 -8.34 27.7 -8 26 C-7.01 26 -6.02 26 -5 26 C-5 25.01 -5 24.02 -5 23 C-4.34 23 -3.68 23 -3 23 C-3 21.02 -3 19.04 -3 17 C-2.01 16.67 -1.02 16.34 0 16 C0.38133299 14.0085944 0.71325582 12.00720923 1 10 C0.67 9.67 0.34 9.34 0 9 C-0.07179964 7.48071962 -0.08392007 5.95832518 -0.0625 4.4375 C-0.05347656 3.61121094 -0.04445313 2.78492188 -0.03515625 1.93359375 C-0.02355469 1.29550781 -0.01195313 0.65742188 0 0 Z " fill="#B63956" transform="translate(89,151)"/>
<path d="M0 0 C1.0625 1.875 1.0625 1.875 2 4 C1.67 4.66 1.34 5.32 1 6 C0.81603527 8.30977934 0.67762423 10.62326794 0.5625 12.9375 C0.20062671 19.40979525 -0.64079411 25.65264047 -2 32 C-2.66 32 -3.32 32 -4 32 C-4.02684312 29.18743719 -4.04676188 26.37512759 -4.0625 23.5625 C-4.07087891 22.76005859 -4.07925781 21.95761719 -4.08789062 21.13085938 C-4.0965143 19.08704779 -4.0522815 17.04316098 -4 15 C-3.67 14.67 -3.34 14.34 -3 14 C-2.71525984 10.93113383 -2.55128201 7.86224703 -2.37890625 4.78515625 C-2 2 -2 2 0 0 Z " fill="#7A5E52" transform="translate(130,31)"/>
<path d="M0 0 C0.680625 0.556875 1.36125 1.11375 2.0625 1.6875 C4.76093145 3.90162949 4.76093145 3.90162949 6.890625 5.16796875 C8.76666148 6.34621117 10.42535541 7.43885236 12 9 C12.1875 12.0625 12.1875 12.0625 12 15 C13.89586384 17.14589423 13.89586384 17.14589423 16 19 C16.75 21.25 16.75 21.25 17 23 C16.34 23 15.68 23 15 23 C12.16741821 20.02149733 10.12535682 17.1783541 9.6875 13.0625 C9.790625 12.381875 9.89375 11.70125 10 11 C9.01 10.67 8.02 10.34 7 10 C7 9.34 7 8.68 7 8 C5.68 8 4.36 8 3 8 C3 7.34 3 6.68 3 6 C2.34 6 1.68 6 1 6 C1 6.66 1 7.32 1 8 C-2 10 -2 10 -4.625 9.75 C-5.40875 9.5025 -6.1925 9.255 -7 9 C-7.33 8.34 -7.66 7.68 -8 7 C-5.36 7 -2.72 7 0 7 C0 4.69 0 2.38 0 0 Z " fill="#C5375F" transform="translate(69,123)"/>
<path d="M0 0 C2.8203125 0.2421875 2.8203125 0.2421875 6.125 0.875 C7.22070312 1.07867187 8.31640625 1.28234375 9.4453125 1.4921875 C10.28835937 1.65976563 11.13140625 1.82734375 12 2 C11.67 2.99 11.34 3.98 11 5 C8.36 5 5.72 5 3 5 C2.67 5.99 2.34 6.98 2 8 C1.34 7.67 0.68 7.34 0 7 C-1.99960012 6.960008 -4.00047242 6.95653201 -6 7 C-6.33 7.99 -6.66 8.98 -7 10 C-7.66 9.67 -8.32 9.34 -9 9 C-8.3125 6.625 -8.3125 6.625 -7 4 C-4.5 2.8125 -4.5 2.8125 -2 2 C-1.34 1.34 -0.68 0.68 0 0 Z " fill="#CA476D" transform="translate(50,121)"/>
<path d="M0 0 C0.33 0 0.66 0 1 0 C1.35640731 11.7812416 0.25940704 23.30024254 -1 35 C-1.33 35 -1.66 35 -2 35 C-2.25903475 31.23061347 -2.47656759 27.4598597 -2.6875 23.6875 C-2.76033203 22.63498047 -2.83316406 21.58246094 -2.90820312 20.49804688 C-3.29449027 13.11314566 -2.38255794 6.99947226 0 0 Z " fill="#866358" transform="translate(122,46)"/>
<path d="M0 0 C0.66 0.66 1.32 1.32 2 2 C4.31765729 2.71927295 6.65095874 3.3909893 9 4 C9 6.66666667 9 9.33333333 9 12 C8.34 12 7.68 12 7 12 C6.67 12.99 6.34 13.98 6 15 C5.67 13.02 5.34 11.04 5 9 C4.34 9 3.68 9 3 9 C3 8.34 3 7.68 3 7 C2.01 7 1.02 7 0 7 C0 6.01 0 5.02 0 4 C-0.66 4 -1.32 4 -2 4 C-2 3.01 -2 2.02 -2 1 C-1.34 0.67 -0.68 0.34 0 0 Z " fill="#C93F68" transform="translate(163,132)"/>
<path d="M0 0 C2 3 2 3 1.625 5.6875 C1.315625 6.8321875 1.315625 6.8321875 1 8 C-1 7 -1 7 -2 4 C-7.61 4 -13.22 4 -19 4 C-12.88376811 0.94188405 -6.91715184 -1.28659024 0 0 Z " fill="#7E6156" transform="translate(137,18)"/>
<path d="M0 0 C3.3257121 2.69224312 4.40613051 6.11927428 6 10 C6.99 11.485 6.99 11.485 8 13 C8 13.99 8 14.98 8 16 C8.99 16.33 9.98 16.66 11 17 C11.66 17.99 12.32 18.98 13 20 C11.68 20 10.36 20 9 20 C9 19.34 9 18.68 9 18 C8.01 17.67 7.02 17.34 6 17 C6 16.34 6 15.68 6 15 C5.34 15 4.68 15 4 15 C1.25463589 10.99634401 -1.28409641 7.13072306 -0.625 2.1875 C-0.41875 1.465625 -0.2125 0.74375 0 0 Z " fill="#836459" transform="translate(132,106)"/>
<path d="M0 0 C0.66 0 1.32 0 2 0 C3.33333333 6.66666667 4.66666667 13.33333333 6 20 C5.01 20.33 4.02 20.66 3 21 C2.80083984 20.04287109 2.80083984 20.04287109 2.59765625 19.06640625 C2.42105469 18.24011719 2.24445313 17.41382812 2.0625 16.5625 C1.88847656 15.73878906 1.71445313 14.91507813 1.53515625 14.06640625 C1.19247006 12.02338796 1.19247006 12.02338796 0 11 C-0.07226502 9.14712498 -0.0838122 7.29166122 -0.0625 5.4375 C-0.05347656 4.42558594 -0.04445313 3.41367188 -0.03515625 2.37109375 C-0.02355469 1.58863281 -0.01195313 0.80617188 0 0 Z " fill="#7F5F56" transform="translate(126,85)"/>
<path d="M0 0 C0.33 0 0.66 0 1 0 C0.98839844 0.61488281 0.97679687 1.22976562 0.96484375 1.86328125 C0.95582031 2.67152344 0.94679687 3.47976562 0.9375 4.3125 C0.92589844 5.11300781 0.91429687 5.91351563 0.90234375 6.73828125 C0.90342145 9.16861334 0.90342145 9.16861334 2 12 C1.328125 14.4453125 1.328125 14.4453125 0.25 17.125 C-0.26820313 18.45917969 -0.26820313 18.45917969 -0.796875 19.8203125 C-2 22 -2 22 -5 23 C-3.77072338 15.21458141 -2.29591764 7.54372939 0 0 Z " fill="#85655B" transform="translate(178,160)"/>
<path d="M0 0 C1.65 0 3.3 0 5 0 C5.33 0.66 5.66 1.32 6 2 C1.25 6.875 1.25 6.875 -1 8 C-3.00546689 7.70131344 -5.00577205 7.36628677 -7 7 C-7.99 7 -8.98 7 -10 7 C-9.34 6.34 -8.68 5.68 -8 5 C-7.01 5 -6.02 5 -5 5 C-5 4.34 -5 3.68 -5 3 C-3.35 3 -1.7 3 0 3 C0 2.01 0 1.02 0 0 Z " fill="#A74051" transform="translate(79,182)"/>
<path d="M0 0 C0.66 0.33 1.32 0.66 2 1 C2.375 3.1875 2.375 3.1875 2 6 C-0.8125 8.8125 -0.8125 8.8125 -4 11 C-4.99 11 -5.98 11 -7 11 C-7.66 12.32 -8.32 13.64 -9 15 C-9 12 -9 12 -8 10 C-7.34 10 -6.68 10 -6 10 C-5.938125 9.278125 -5.87625 8.55625 -5.8125 7.8125 C-4.75543353 4.15342375 -2.79449929 2.50788398 0 0 Z " fill="#93484F" transform="translate(127,130)"/>
<path d="M0 0 C0.33 0 0.66 0 1 0 C0.98839844 0.71027344 0.97679688 1.42054688 0.96484375 2.15234375 C0.95582031 3.07144531 0.94679688 3.99054688 0.9375 4.9375 C0.92589844 5.85402344 0.91429688 6.77054688 0.90234375 7.71484375 C0.74050951 9.96593327 0.74050951 9.96593327 2 11 C2.04092937 13.33297433 2.04241723 15.66705225 2 18 C0.68 18 -0.64 18 -2 18 C-2.66 15.69 -3.32 13.38 -4 11 C-2.68 10.34 -1.36 9.68 0 9 C0 6.03 0 3.06 0 0 Z " fill="#B73052" transform="translate(112,158)"/>
<path d="M0 0 C0.04254356 1.99954746 0.04080783 4.00041636 0 6 C-0.33 6.33 -0.66 6.66 -1 7 C-1.07258946 9.18639453 -1.08373783 11.37500389 -1.0625 13.5625 C-1.05347656 14.76003906 -1.04445313 15.95757812 -1.03515625 17.19140625 C-1.02355469 18.11824219 -1.01195312 19.04507813 -1 20 C-1.99 19.34 -2.98 18.68 -4 18 C-4.30330339 15.24053386 -4.41834858 12.75504315 -4.375 10 C-4.38660156 9.26265625 -4.39820312 8.5253125 -4.41015625 7.765625 C-4.3984375 5.625 -4.3984375 5.625 -4 2 C-1 0 -1 0 0 0 Z " fill="#825C52" transform="translate(21,151)"/>
<path d="M0 0 C-0.0842627 2.86493176 -0.5260006 4.53415293 -2.58984375 6.5625 C-3.84356422 7.58803821 -5.11555729 8.59171352 -6.40625 9.5703125 C-8.27948102 11.0134095 -8.27948102 11.0134095 -9 14 C-9.66 13.67 -10.32 13.34 -11 13 C-5.77777778 0 -5.77777778 0 0 0 Z " fill="#91494E" transform="translate(42,126)"/>
<path d="M0 0 C1.98 0 3.96 0 6 0 C6 0.33 6 0.66 6 1 C4.35 1 2.7 1 1 1 C1 1.66 1 2.32 1 3 C2.32 3.33 3.64 3.66 5 4 C0.89499122 6.05250439 -4.36316944 5.27319834 -8.875 5.3125 C-9.97714844 5.34150391 -11.07929688 5.37050781 -12.21484375 5.40039062 C-13.80619141 5.41295898 -13.80619141 5.41295898 -15.4296875 5.42578125 C-16.40147949 5.44036377 -17.37327148 5.45494629 -18.37451172 5.4699707 C-21.69574435 4.87545956 -22.87172609 3.54254183 -25 1 C-24.05060547 1.47566406 -24.05060547 1.47566406 -23.08203125 1.9609375 C-18.94688531 3.35504247 -15.02419788 3.46070521 -10.6875 3.625 C-9.85154297 3.66367188 -9.01558594 3.70234375 -8.15429688 3.7421875 C-6.10320741 3.83595159 -4.05163485 3.91904245 -2 4 C-1.34 2.68 -0.68 1.36 0 0 Z " fill="#7D493F" transform="translate(155,193)"/>
<path d="M0 0 C0.33 0.66 0.66 1.32 1 2 C1.66 2 2.32 2 3 2 C2.51311151 5.11608635 1.68989196 7.84782448 0.5 10.75 C-1.20322672 15.10361365 -1.68851447 19.35993962 -2 24 C-2.33 24 -2.66 24 -3 24 C-3.17277822 14.45880256 -3.17277822 14.45880256 -2.4375 10 C-1.72024794 7.08316693 -1.72024794 7.08316693 -3 5 C-1.5625 2.375 -1.5625 2.375 0 0 Z " fill="#984750" transform="translate(114,143)"/>
<path d="M0 0 C2.4375 0.25 2.4375 0.25 5 1 C7 4 7 4 7 7 C8.32 7.66 9.64 8.32 11 9 C9.375 9.75 9.375 9.75 7 10 C3.4388021 8.14817709 1.43658417 6.87316833 -0.375 3.25 C-0.58125 2.5075 -0.7875 1.765 -1 1 C-0.67 0.67 -0.34 0.34 0 0 Z " fill="#825752" transform="translate(29,182)"/>
<path d="M0 0 C1.02323436 1.31558703 2.01755155 2.65368175 3 4 C3.556875 4.721875 4.11375 5.44375 4.6875 6.1875 C6.53109688 10.13806474 6.25228979 13.71107364 6 18 C4.68 18 3.36 18 2 18 C2 15.69 2 13.38 2 11 C2.66 11 3.32 11 4 11 C3.34 9.9275 2.68 8.855 2 7.75 C0.11704193 4.69019314 0 3.8664136 0 0 Z " fill="#734E44" transform="translate(89,140)"/>
<path d="M0 0 C1.32 0 2.64 0 4 0 C4.33 2.31 4.66 4.62 5 7 C7.35171131 6.40138258 9.6859378 5.73075648 12 5 C12.33 4.34 12.66 3.68 13 3 C14.32 3 15.64 3 17 3 C17.33 2.01 17.66 1.02 18 0 C18.33 1.32 18.66 2.64 19 4 C17.35 4 15.7 4 14 4 C13.34 5.32 12.68 6.64 12 8 C9.36 8 6.72 8 4 8 C3.896875 7.360625 3.79375 6.72125 3.6875 6.0625 C3.460625 5.381875 3.23375 4.70125 3 4 C2.01 3.67 1.02 3.34 0 3 C0 2.01 0 1.02 0 0 Z " fill="#954E55" transform="translate(133,125)"/>
<path d="M0 0 C3.3 0.33 6.6 0.66 10 1 C6.33041967 2.83479017 5.20303092 3.25471449 1.375 3.265625 C0.06789063 3.26949219 0.06789063 3.26949219 -1.265625 3.2734375 C-2.16796875 3.26570312 -3.0703125 3.25796875 -4 3.25 C-4.90234375 3.25773438 -5.8046875 3.26546875 -6.734375 3.2734375 C-7.60578125 3.27085937 -8.4771875 3.26828125 -9.375 3.265625 C-10.56222656 3.26224121 -10.56222656 3.26224121 -11.7734375 3.25878906 C-14 3 -14 3 -18 1 C-12.06 1.33 -6.12 1.66 0 2 C0 1.34 0 0.68 0 0 Z " fill="#693C35" transform="translate(61,193)"/>
<path d="M0 0 C0.33 0 0.66 0 1 0 C1.04254356 1.99954746 1.04080783 4.00041636 1 6 C0.67 6.33 0.34 6.66 0 7 C-0.12375 8.134375 -0.2475 9.26875 -0.375 10.4375 C-0.58125 11.613125 -0.7875 12.78875 -1 14 C-1.99 14.66 -2.98 15.32 -4 16 C-4.38218767 14.34385343 -4.71395102 12.67542976 -5 11 C-4.67 10.67 -4.34 10.34 -4 10 C-3.63239269 7.67182036 -3.29758419 5.3381615 -3 3 C-2.01 2.67 -1.02 2.34 0 2 C0 1.34 0 0.68 0 0 Z " fill="#87645A" transform="translate(67,100)"/>
<path d="M0 0 C0.66 0.33 1.32 0.66 2 1 C1.67 1.33 1.34 1.66 1 2 C0.60233918 3.97088828 0.25616924 5.95230866 -0.0625 7.9375 C-0.32740234 9.55978516 -0.32740234 9.55978516 -0.59765625 11.21484375 C-1.04765862 13.86089748 -1.04765862 13.86089748 -1 16 C-3.97 15.505 -3.97 15.505 -7 15 C-6.67 13.35 -6.34 11.7 -6 10 C-5.01 10 -4.02 10 -3 10 C-3 9.01 -3 8.02 -3 7 C-2.34 7 -1.68 7 -1 7 C-1.020625 6.030625 -1.04125 5.06125 -1.0625 4.0625 C-1 1 -1 1 0 0 Z " fill="#C6305A" transform="translate(87,167)"/>
<path d="M0 0 C1.32 0 2.64 0 4 0 C4.33 0.99 4.66 1.98 5 3 C6.27875 3.061875 7.5575 3.12375 8.875 3.1875 C9.59429687 3.22230469 10.31359375 3.25710937 11.0546875 3.29296875 C12.01761719 3.14794922 12.01761719 3.14794922 13 3 C13.66 2.01 14.32 1.02 15 0 C17.97 0.33 20.94 0.66 24 1 C24 1.33 24 1.66 24 2 C22.88625 2.12375 21.7725 2.2475 20.625 2.375 C16.96896323 2.6465813 16.96896323 2.6465813 15 5 C12.3984375 5.1953125 12.3984375 5.1953125 9.375 5.125 C7.87066406 5.09792969 7.87066406 5.09792969 6.3359375 5.0703125 C5.56507813 5.04710937 4.79421875 5.02390625 4 5 C3.67 4.01 3.34 3.02 3 2 C2.01 2 1.02 2 0 2 C0 1.34 0 0.68 0 0 Z " fill="#C9315E" transform="translate(132,129)"/>
<path d="M0 0 C0.76530029 0.0407666 1.53060059 0.0815332 2.3190918 0.12353516 C3.15504883 0.16736328 3.99100586 0.21119141 4.85229492 0.25634766 C5.73208008 0.30791016 6.61186523 0.35947266 7.51831055 0.41259766 C8.38649414 0.45642578 9.25467773 0.50025391 10.14916992 0.54541016 C13.97045978 0.75656355 17.50571724 1.00807049 21.20581055 2.03759766 C17.58026915 3.85036835 13.06613763 3.06938947 9.05932617 2.99853516 C5.8282008 2.96299574 3.29602734 3.00752539 0.20581055 4.03759766 C-0.78418945 3.04759766 -1.77418945 2.05759766 -2.79418945 1.03759766 C-1.79418945 0.03759766 -1.79418945 0.03759766 0 0 Z " fill="#8D4C4E" transform="translate(133.794189453125,191.96240234375)"/>
<path d="M0 0 C1.29409289 0.61996078 2.58519673 1.24616353 3.875 1.875 C4.95394531 2.39707031 4.95394531 2.39707031 6.0546875 2.9296875 C8 4 8 4 10 6 C10 7.32 10 8.64 10 10 C5.86360664 8.40907948 2.76786752 5.39525082 0 2 C0 1.34 0 0.68 0 0 Z " fill="#82574F" transform="translate(116,182)"/>
<path d="M0 0 C0.99 0 1.98 0 3 0 C4.0161692 4.62921525 3.83796731 8.34462607 3 13 C2.34 13 1.68 13 1 13 C0.1276588 10.00519083 -0.10829766 7.36424089 -0.0625 4.25 C-0.05347656 3.45078125 -0.04445313 2.6515625 -0.03515625 1.828125 C-0.02355469 1.22484375 -0.01195313 0.6215625 0 0 Z " fill="#896059" transform="translate(66,117)"/>
<path d="M0 0 C1.32 0.33 2.64 0.66 4 1 C2 3 2 3 -0.52197266 3.22705078 C-1.5588623 3.21657715 -2.59575195 3.20610352 -3.6640625 3.1953125 C-4.78554688 3.18886719 -5.90703125 3.18242187 -7.0625 3.17578125 C-8.238125 3.15902344 -9.41375 3.14226562 -10.625 3.125 C-12.40003906 3.11146484 -12.40003906 3.11146484 -14.2109375 3.09765625 C-17.14082523 3.07402812 -20.0703134 3.04108514 -23 3 C-23.33 2.34 -23.66 1.68 -24 1 C-16.08 1.33 -8.16 1.66 0 2 C0 1.34 0 0.68 0 0 Z " fill="#CB2B5B" transform="translate(67,187)"/>
<path d="M0 0 C2.625 0.9375 2.625 0.9375 5 2 C5 2.66 5 3.32 5 4 C5.66 4 6.32 4 7 4 C7.33 4.99 7.66 5.98 8 7 C4.7 6.01 1.4 5.02 -2 4 C-2 3.01 -2 2.02 -2 1 C-1.34 0.67 -0.68 0.34 0 0 Z " fill="#96464F" transform="translate(115,178)"/>
<path d="M0 0 C1.32 0.66 2.64 1.32 4 2 C2.68 2 1.36 2 0 2 C0.33 2.99 0.66 3.98 1 5 C1.66 4.67 2.32 4.34 3 4 C3 4.99 3 5.98 3 7 C3.66 7 4.32 7 5 7 C5.66 9.64 6.32 12.28 7 15 C3.79671105 12.86447403 2.87891527 11.26767874 1 8 C0.34 7.34 -0.32 6.68 -1 6 C-1.1875 3.4375 -1.1875 3.4375 -1 1 C-0.67 0.67 -0.34 0.34 0 0 Z " fill="#92444A" transform="translate(81,132)"/>
<path d="M0 0 C0 0.66 0 1.32 0 2 C-3.14930893 3.04976964 -5.38814456 3.10131595 -8.6875 3.0625 C-9.68136719 3.05347656 -10.67523438 3.04445313 -11.69921875 3.03515625 C-12.83810547 3.01775391 -12.83810547 3.01775391 -14 3 C-4.63580818 -1.78300315 -4.63580818 -1.78300315 0 0 Z " fill="#967168" transform="translate(132,19)"/>
<path d="M0 0 C1.890625 0.21484375 1.890625 0.21484375 4 1 C5.046875 3.06640625 5.046875 3.06640625 5.75 5.5625 C5.99234375 6.38878906 6.2346875 7.21507812 6.484375 8.06640625 C6.65453125 8.70449219 6.8246875 9.34257812 7 10 C6.01 10.495 6.01 10.495 5 11 C1.71779105 9.35889552 1.25429211 6.30677012 0 3 C0 2.01 0 1.02 0 0 Z " fill="#836058" transform="translate(173,144)"/>
<path d="M0 0 C3.12290635 0.48578543 5.99580359 0.9986012 9 2 C9 3.32 9 4.64 9 6 C6.69 6 4.38 6 2 6 C1.855625 5.38125 1.71125 4.7625 1.5625 4.125 C1.06847775 1.96741678 1.06847775 1.96741678 0 0 Z " fill="#905857" transform="translate(154,127)"/>
<path d="M0 0 C0.33 0 0.66 0 1 0 C1.82622671 5.60563042 2.06795656 10.42289352 1 16 C0.34 16 -0.32 16 -1 16 C-1.02685095 13.52076199 -1.04676547 11.0418116 -1.0625 8.5625 C-1.07506836 7.50192383 -1.07506836 7.50192383 -1.08789062 6.41992188 C-1.09653588 4.61306441 -1.05220011 2.80612397 -1 1 C-0.67 0.67 -0.34 0.34 0 0 Z " fill="#89685E" transform="translate(127,47)"/>
<path d="M0 0 C0 0.66 0 1.32 0 2 C0.66 2 1.32 2 2 2 C2.33 2.66 2.66 3.32 3 4 C5.30965848 5.05352843 7.6429774 6.05719096 10 7 C8.3125 7.6875 8.3125 7.6875 6 8 C3.25 6.6875 3.25 6.6875 1 5 C1 4.34 1 3.68 1 3 C-2.62885324 2.84850702 -2.62885324 2.84850702 -6 4 C-6 3.01 -6 2.02 -6 1 C-4 0 -4 0 0 0 Z " fill="#B33853" transform="translate(33,180)"/>
<path d="M0 0 C0.66 0 1.32 0 2 0 C2.99 2.97 3.98 5.94 5 9 C3.68 9 2.36 9 1 9 C-0.4783226 6.04335481 -0.06032783 3.25770263 0 0 Z " fill="#7D504B" transform="translate(106,158)"/>
<path d="M0 0 C0.66 0 1.32 0 2 0 C2 4.29 2 8.58 2 13 C1.01 13 0.02 13 -1 13 C-0.125 8.25 -0.125 8.25 1 6 C0.34 5.67 -0.32 5.34 -1 5 C-0.67 3.35 -0.34 1.7 0 0 Z " fill="#8E5957" transform="translate(61,117)"/>
<path d="M0 0 C0.05447047 1.41623216 0.09300508 2.83308191 0.125 4.25 C0.14820312 5.03890625 0.17140625 5.8278125 0.1953125 6.640625 C-0.0171622 9.20731941 -0.71345895 10.7916067 -2 13 C-2.03738281 12.30132812 -2.07476562 11.60265625 -2.11328125 10.8828125 C-2.17902344 9.97273438 -2.24476562 9.06265625 -2.3125 8.125 C-2.37050781 7.22007813 -2.42851563 6.31515625 -2.48828125 5.3828125 C-2.7882039 2.63778399 -2.7882039 2.63778399 -6 1 C-4 0 -4 0 0 0 Z " fill="#896B61" transform="translate(125,30)"/>
<path d="M0 0 C-0.58523437 0.2578125 -1.17046875 0.515625 -1.7734375 0.78125 C-4.17518266 2.09588946 -5.73196231 3.53190795 -7.625 5.5 C-8.51058594 6.41265625 -8.51058594 6.41265625 -9.4140625 7.34375 C-9.93742187 7.8903125 -10.46078125 8.436875 -11 9 C-11.66 9.66 -12.32 10.32 -13 11 C-13.66 10.34 -14.32 9.68 -15 9 C-13.68 8.34 -12.36 7.68 -11 7 C-11 6.34 -11 5.68 -11 5 C-5.11138162 -0.75167377 -5.11138162 -0.75167377 0 0 Z " fill="#6D3E39" transform="translate(43,125)"/>
<path d="M0 0 C0.66 0 1.32 0 2 0 C2.66 2.97 3.32 5.94 4 9 C3.34 9 2.68 9 2 9 C2 9.66 2 10.32 2 11 C1.34 11 0.68 11 0 11 C0 7.37 0 3.74 0 0 Z " fill="#876B5B" transform="translate(126,85)"/>
<path d="M0 0 C0.66 0.99 1.32 1.98 2 3 C0.6875 5.9375 0.6875 5.9375 -1 9 C-1.99 9.33 -2.98 9.66 -4 10 C-2.28571429 2.28571429 -2.28571429 2.28571429 0 0 Z " fill="#7F6055" transform="translate(83,76)"/>
<path d="M0 0 C0.66 0 1.32 0 2 0 C2 0.66 2 1.32 2 2 C4.31 2 6.62 2 9 2 C8.38125 2.28875 7.7625 2.5775 7.125 2.875 C4.86674235 3.93720042 4.86674235 3.93720042 3 6 C2.01 6 1.02 6 0 6 C0 4.02 0 2.04 0 0 Z " fill="#D6275F" transform="translate(127,187)"/>
<path d="M0 0 C2.475 0.99 2.475 0.99 5 2 C4.67 3.65 4.34 5.3 4 7 C2.68 6.34 1.36 5.68 0 5 C0 3.35 0 1.7 0 0 Z " fill="#9A3B53" transform="translate(22,173)"/>
<path d="M0 0 C2.0625 0.4375 2.0625 0.4375 4 1 C4 2.32 4 3.64 4 5 C3.34 5 2.68 5 2 5 C1.34 6.32 0.68 7.64 0 9 C-0.87890625 2.84765625 -0.87890625 2.84765625 -1 1 C-0.67 0.67 -0.34 0.34 0 0 Z " fill="#8C5855" transform="translate(91,163)"/>
<path d="M0 0 C0.33 0 0.66 0 1 0 C0.98839844 0.61488281 0.97679687 1.22976562 0.96484375 1.86328125 C0.95582031 2.67152344 0.94679687 3.47976562 0.9375 4.3125 C0.92589844 5.11300781 0.91429687 5.91351563 0.90234375 6.73828125 C0.90342145 9.16861334 0.90342145 9.16861334 2 12 C1.34 12.66 0.68 13.32 0 14 C-2 12 -2 12 -2.25 9.8125 C-1.94423431 6.37263604 -1.03159353 3.28820438 0 0 Z " fill="#7E5F55" transform="translate(178,160)"/>
<path d="M0 0 C1.125 1.625 1.125 1.625 2 4 C1.125 7.25 1.125 7.25 0 10 C-0.66 10 -1.32 10 -2 10 C-2.1953125 3.9453125 -2.1953125 3.9453125 -2 2 C-1.34 1.34 -0.68 0.68 0 0 Z " fill="#876659" transform="translate(130,31)"/>
<path d="M0 0 C-1.65 0.33 -3.3 0.66 -5 1 C-5 1.66 -5 2.32 -5 3 C-5.66 3 -6.32 3 -7 3 C-7.33 4.65 -7.66 6.3 -8 8 C-8.33 8 -8.66 8 -9 8 C-9.125 5.125 -9.125 5.125 -9 2 C-6.32750728 -0.67249272 -3.5165484 -1.7582742 0 0 Z " fill="#8C5B4E" transform="translate(123,20)"/>
<path d="M0 0 C0.33 0 0.66 0 1 0 C1 1.65 1 3.3 1 5 C2.65 5 4.3 5 6 5 C5.67 5.99 5.34 6.98 5 8 C4.401875 7.814375 3.80375 7.62875 3.1875 7.4375 C0.83591238 6.77906313 0.83591238 6.77906313 -2 8 C-2.33 7.01 -2.66 6.02 -3 5 C-2.34 4.67 -1.68 4.34 -1 4 C-0.34786708 1.97536745 -0.34786708 1.97536745 0 0 Z " fill="#D5265B" transform="translate(114,172)"/>
<path d="M0 0 C0.66 1.32 1.32 2.64 2 4 C2.33 3.34 2.66 2.68 3 2 C3.66 2 4.32 2 5 2 C4.01 4.97 3.02 7.94 2 11 C1.67 10.01 1.34 9.02 1 8 C0.34 7.67 -0.32 7.34 -1 7 C-0.67 4.69 -0.34 2.38 0 0 Z " fill="#704A41" transform="translate(90,166)"/>
<path d="M0 0 C0.99 0.495 0.99 0.495 2 1 C1.9175 1.7425 1.835 2.485 1.75 3.25 C2.07459042 6.82049467 3.44769213 7.60237746 6 10 C6.75 12.25 6.75 12.25 7 14 C5 14 5 14 3.7109375 12.71484375 C0.4406642 8.36404155 -0.57341412 5.6194584 0 0 Z " fill="#C3305A" transform="translate(79,132)"/>
<path d="M0 0 C2.475 0.495 2.475 0.495 5 1 C4.67 2.32 4.34 3.64 4 5 C2.68 5 1.36 5 0 5 C0 3.35 0 1.7 0 0 Z " fill="#964F54" transform="translate(167,135)"/>
<path d="M0 0 C1.32 0.66 2.64 1.32 4 2 C3.67 2.66 3.34 3.32 3 4 C0.71484375 4.4140625 0.71484375 4.4140625 -2.0625 4.625 C-2.98160156 4.69976562 -3.90070312 4.77453125 -4.84765625 4.8515625 C-5.91306641 4.92503906 -5.91306641 4.92503906 -7 5 C-6.37609375 4.70351562 -5.7521875 4.40703125 -5.109375 4.1015625 C-2.96202908 2.98017074 -1.61904165 1.78094582 0 0 Z " fill="#AD3750" transform="translate(50,121)"/>
<path d="M0 0 C0.66 0.99 1.32 1.98 2 3 C1.19185349 4.33597652 0.37836819 5.668725 -0.4375 7 C-1.11619141 8.11375 -1.11619141 8.11375 -1.80859375 9.25 C-2.20175781 9.8275 -2.59492187 10.405 -3 11 C-3.33 11 -3.66 11 -4 11 C-4 9.35 -4 7.7 -4 6 C-3.34 6 -2.68 6 -2 6 C-1.855625 5.195625 -1.71125 4.39125 -1.5625 3.5625 C-1 1 -1 1 0 0 Z " fill="#806154" transform="translate(78,87)"/>
<path d="M0 0 C0.66 0 1.32 0 2 0 C1.67 1.65 1.34 3.3 1 5 C0.01 5.33 -0.98 5.66 -2 6 C-3.20882096 8.00016466 -3.20882096 8.00016466 -4 10 C-4.33 9.01 -4.66 8.02 -5 7 C-4.34 7 -3.68 7 -3 7 C-2.690625 6.21625 -2.38125 5.4325 -2.0625 4.625 C-1 2 -1 2 0 0 Z " fill="#816054" transform="translate(94,56)"/>
<path d="M0 0 C3.63 0 7.26 0 11 0 C10.67 0.99 10.34 1.98 10 3 C9.34 2.67 8.68 2.34 8 2 C6.00039988 1.960008 3.99952758 1.95653201 2 2 C1.67 2.99 1.34 3.98 1 5 C0.34 4.67 -0.32 4.34 -1 4 C-0.67 2.68 -0.34 1.36 0 0 Z " fill="#D03062" transform="translate(42,126)"/>
<path d="M0 0 C0.66 0 1.32 0 2 0 C1.71125 0.556875 1.4225 1.11375 1.125 1.6875 C-0.0413253 4.08494645 -1.0339881 6.51596939 -2 9 C-2.99 8.67 -3.98 8.34 -5 8 C-4.21718695 6.66144944 -3.42348123 5.32926356 -2.625 4 C-2.18414062 3.2575 -1.74328125 2.515 -1.2890625 1.75 C-0.86367187 1.1725 -0.43828125 0.595 0 0 Z " fill="#8C685A" transform="translate(99,38)"/>
<path d="M0 0 C0.99 0.33 1.98 0.66 3 1 C2.375 2.875 2.375 2.875 1 5 C-2.125 6.25 -2.125 6.25 -5 7 C-4.67 6.01 -4.34 5.02 -4 4 C-3.34 4 -2.68 4 -2 4 C-2 3.34 -2 2.68 -2 2 C-1.34 2 -0.68 2 0 2 C0 1.34 0 0.68 0 0 Z " fill="#83655A" transform="translate(111,36)"/>
<path d="M0 0 C0.33 1.32 0.66 2.64 1 4 C1.66 4 2.32 4 3 4 C3 4.99 3 5.98 3 7 C2.01 7 1.02 7 0 7 C0 6.01 0 5.02 0 4 C-0.66 4 -1.32 4 -2 4 C-2 3.01 -2 2.02 -2 1 C-1.34 0.67 -0.68 0.34 0 0 Z " fill="#E04170" transform="translate(163,132)"/>
<path d="M0 0 C0.33 0 0.66 0 1 0 C1 2.64 1 5.28 1 8 C0.01 8.495 0.01 8.495 -1 9 C-1 7.35 -1 5.7 -1 4 C-1.66 3.67 -2.32 3.34 -3 3 C-2.34 3 -1.68 3 -1 3 C-0.67 2.01 -0.34 1.02 0 0 Z " fill="#856459" transform="translate(109,154)"/>
<path d="M0 0 C0.99 0.33 1.98 0.66 3 1 C2.67 3.31 2.34 5.62 2 8 C0.35 8.33 -1.3 8.66 -3 9 C-2.505 8.62875 -2.01 8.2575 -1.5 7.875 C0.59755514 5.25305607 0.21743835 3.26157528 0 0 Z " fill="#C52C59" transform="translate(128,130)"/>
<path d="M0 0 C0.33 0.66 0.66 1.32 1 2 C1.66 2.33 2.32 2.66 3 3 C2.01 3.33 1.02 3.66 0 4 C-1.22520264 7.00847418 -1.22520264 7.00847418 -2 10 C-2.6875 8.375 -2.6875 8.375 -3 6 C-1.5625 2.75 -1.5625 2.75 0 0 Z " fill="#7F6456" transform="translate(77,72)"/>
<path d="M0 0 C0.99 0 1.98 0 3 0 C2.625 2.4375 2.625 2.4375 2 5 C1.01 5.495 1.01 5.495 0 6 C0 5.34 0 4.68 0 4 C-0.66 3.34 -1.32 2.68 -2 2 C-1.34 1.34 -0.68 0.68 0 0 Z " fill="#935155" transform="translate(39,126)"/>
<path d="M0 0 C0.66 0 1.32 0 2 0 C5 4.38461538 5 4.38461538 5 7 C3.68 6.67 2.36 6.34 1 6 C0.67 4.02 0.34 2.04 0 0 Z " fill="#815E52" transform="translate(130,118)"/>
<path d="M0 0 C2 2 2 2 2.125 5.625 C2.08375 6.73875 2.0425 7.8525 2 9 C1.67 8.01 1.34 7.02 1 6 C0.34 6 -0.32 6 -1 6 C-0.67 4.02 -0.34 2.04 0 0 Z " fill="#89695C" transform="translate(121,87)"/>
<path d="M0 0 C0.66 0.33 1.32 0.66 2 1 C2.125 3.875 2.125 3.875 2 7 C1.34 7.66 0.68 8.32 0 9 C-0.66 7.68 -1.32 6.36 -2 5 C-1.34 5 -0.68 5 0 5 C0 3.35 0 1.7 0 0 Z " fill="#7D5E54" transform="translate(131,25)"/>
</svg>
