<?xml version="1.0" encoding="UTF-8"?>
<svg version="1.1" xmlns="http://www.w3.org/2000/svg" width="249" height="274">
<path d="M0 0 C0.89299301 -0.00426498 1.78598602 -0.00852997 2.70603943 -0.01292419 C4.15641602 -0.01224442 4.15641602 -0.01224442 5.63609314 -0.0115509 C7.1783683 -0.01658882 7.1783683 -0.01658882 8.75180054 -0.02172852 C12.14675609 -0.03121932 15.54166226 -0.03318045 18.93663025 -0.03425598 C21.29644796 -0.03746899 23.65626547 -0.0408331 26.01608276 -0.04434204 C30.95973676 -0.05032801 35.90337328 -0.0521824 40.84703064 -0.05158997 C47.18805241 -0.05148818 53.52896263 -0.06516023 59.86995792 -0.08236217 C64.74176552 -0.09346623 69.61354596 -0.09550969 74.48536491 -0.09498024 C76.82378462 -0.096162 79.16220499 -0.1005947 81.50061226 -0.10831261 C84.76590494 -0.11808364 88.03095297 -0.1152462 91.29624939 -0.10920715 C92.26519135 -0.11482666 93.2341333 -0.12044617 94.23243713 -0.12623596 C95.12261032 -0.12204147 96.01278351 -0.11784698 96.92993164 -0.11352539 C97.70143083 -0.11407016 98.47293001 -0.11461493 99.26780796 -0.1151762 C101.67649472 0.16579353 103.30927281 0.93648089 105.401474 2.13371277 C105.401474 2.79371277 105.401474 3.45371277 105.401474 4.13371277 C106.061474 4.13371277 106.721474 4.13371277 107.401474 4.13371277 C107.76709401 10.47112635 107.76709401 10.47112635 106.1862793 13.33592129 C104.401474 15.13371277 104.401474 15.13371277 102.22909546 15.63987064 C100.95595238 15.64408103 100.95595238 15.64408103 99.65708923 15.64837646 C98.68125885 15.66110092 97.70542847 15.67382538 96.70002747 15.68693542 C95.09624741 15.67714661 95.09624741 15.67714661 93.46006775 15.66716003 C92.33303436 15.6757756 91.20600098 15.68439117 90.04481506 15.69326782 C86.30930291 15.71602115 82.5745352 15.70917161 78.838974 15.70011902 C76.24969762 15.70535023 73.66042316 15.71162485 71.07115173 15.71890259 C65.64046775 15.72932404 60.21006972 15.72504759 54.77940369 15.71012878 C48.49949232 15.69320024 42.22027567 15.70904946 35.94044018 15.74135166 C29.9010043 15.77124172 23.86192289 15.77323804 17.82240295 15.76385307 C15.25149126 15.76303081 12.68056536 15.76994633 10.10969543 15.7846241 C6.5202364 15.8019747 2.93227789 15.78760463 -0.65711975 15.76481628 C-1.72630646 15.77650848 -2.79549316 15.78820068 -3.89707947 15.80024719 C-6.56055232 15.76570893 -8.9963432 15.70111905 -11.598526 15.13371277 C-14.08648674 12.42792359 -14.62484866 11.21294164 -14.536026 7.57121277 C-13.37527085 4.55324936 -12.14894143 3.11736921 -9.598526 1.13371277 C-6.36404131 0.30761672 -3.32987505 0.00722959 0 0 Z " fill="#775548" transform="translate(77.59852600097656,248.8662872314453)"/>
<path d="M0 0 C82.17 0 164.34 0 249 0 C249 0.33 249 0.66 249 1 C166.83 1 84.66 1 0 1 C0 0.67 0 0.34 0 0 Z " fill="#927971" transform="translate(0,236)"/>
<path d="M0 0 C82.17 0 164.34 0 249 0 C249 0.33 249 0.66 249 1 C166.83 1 84.66 1 0 1 C0 0.67 0 0.34 0 0 Z " fill="#BFB7B4" transform="translate(0,179)"/>
<path d="M0 0 C82.17 0 164.34 0 249 0 C249 0.33 249 0.66 249 1 C166.83 1 84.66 1 0 1 C0 0.67 0 0.34 0 0 Z " fill="#D0CFCF" transform="translate(0,80)"/>
<path d="M0 0 C82.17 0 164.34 0 249 0 C249 0.33 249 0.66 249 1 C166.83 1 84.66 1 0 1 C0 0.67 0 0.34 0 0 Z " fill="#D8D8D8" transform="translate(0,19)"/>
<path d="M0 0 C0.33 0.66 0.66 1.32 1 2 C12.22 2 23.44 2 35 2 C35.33 1.34 35.66 0.68 36 0 C37.98 0 39.96 0 42 0 C42.495 1.485 42.495 1.485 43 3 C28.81 3 14.62 3 0 3 C0 2.01 0 1.02 0 0 Z " fill="#856559" transform="translate(95,249)"/>
<path d="M0 0 C0 0.66 0 1.32 0 2 C-0.66 2 -1.32 2 -2 2 C-2 3.98 -2 5.96 -2 8 C-1.34 8 -0.68 8 0 8 C0 8.66 0 9.32 0 10 C0.66 10.33 1.32 10.66 2 11 C0.02 11 -1.96 11 -4 11 C-5.53656962 8.5595659 -6.02089707 7.29255898 -5.8125 4.375 C-4.75959911 1.29728972 -3.35244466 0 0 0 Z " fill="#836559" transform="translate(69,252)"/>
<path d="M0 0 C1.32 0 2.64 0 4 0 C4 2.31 4 4.62 4 7 C3.01 7 2.02 7 1 7 C0.67 7.99 0.34 8.98 0 10 C-0.66 10 -1.32 10 -2 10 C-2 9.34 -2 8.68 -2 8 C-1.34 8 -0.68 8 0 8 C0 5.36 0 2.72 0 0 Z " fill="#85675D" transform="translate(181,253)"/>
<path d="M0 0 C2.31 0 4.62 0 7 0 C7.33 0.99 7.66 1.98 8 3 C5.36 3 2.72 3 0 3 C0 2.01 0 1.02 0 0 Z " fill="#805D53" transform="translate(130,249)"/>
</svg>
