<?xml version="1.0" encoding="UTF-8"?>
<svg version="1.1" xmlns="http://www.w3.org/2000/svg" width="219" height="225">
<path d="M0 0 C4.47021489 0.45459812 5.68292636 1.05415545 8.6875 4.375 C13.6875 12.9149449 13.6875 12.9149449 13.6875 16.375 C14.3475 16.375 15.0075 16.375 15.6875 16.375 C16.40364583 18.10026042 17.11979167 19.82552083 17.8359375 21.55078125 C18.75556692 23.64033932 18.75556692 23.64033932 20.6875 26.375 C20.6875 27.695 20.6875 29.015 20.6875 30.375 C21.3475 30.375 22.0075 30.375 22.6875 30.375 C23.01621094 31.055625 23.34492188 31.73625 23.68359375 32.4375 C26.99755544 39.19115634 30.55355371 45.74413097 34.28100586 52.27563477 C37.53119564 58.00838848 40.48997102 63.85368472 43.375 69.77734375 C44.45079925 72.2423789 44.45079925 72.2423789 45.6875 73.375 C46.21948626 77.67449553 46.37070966 81.22720778 44.125 85 C40.61553102 86.97970045 38.50408625 86.41588716 34.6875 85.375 C27.32057194 79.3037628 23.39791298 66.87104136 19.29077148 58.45727539 C17.51119661 54.84645716 15.75329735 51.33468613 13.47265625 48.01171875 C11.95423343 45.7689717 11.04311007 44.04889167 10.25 41.5 C8.92505497 37.69260302 7.0294006 34.56861778 4.828125 31.20703125 C3.47088993 29.02708862 2.52130281 26.80060816 1.6875 24.375 C-2.59320998 28.15093959 -2.59320998 28.15093959 -4.3125 33.375 C-4.9725 33.375 -5.6325 33.375 -6.3125 33.375 C-6.48265625 33.95507812 -6.6528125 34.53515625 -6.828125 35.1328125 C-8.39861494 40.19513644 -10.29728303 43.98139813 -13.3125 48.375 C-14.20892561 50.11412223 -15.08088681 51.86592671 -15.9375 53.625 C-18.63082141 59.11496717 -21.52423877 64.47061405 -24.5 69.8125 C-24.92812988 70.58174805 -25.35625977 71.35099609 -25.79736328 72.14355469 C-26.96136699 74.22516383 -28.13619473 76.30032825 -29.3125 78.375 C-29.84488281 79.33535156 -30.37726563 80.29570313 -30.92578125 81.28515625 C-32.3125 83.375 -32.3125 83.375 -35.3125 85.375 C-41.5840425 85.93495915 -41.5840425 85.93495915 -43.984375 84.08984375 C-45.89724723 81.61998814 -46.08176944 79.28337269 -45.9921875 76.22265625 C-44.74277798 70.98806118 -41.575166 66.65200796 -38.69921875 62.171875 C-36.55195889 58.82509966 -34.73327937 55.39490774 -33 51.8125 C-31.03675558 47.75585132 -28.83438519 44.11434701 -26.3125 40.375 C-25.62979939 38.74952235 -24.94883069 37.12320133 -24.2890625 35.48828125 C-22.48996148 31.59502665 -20.19295466 27.97251348 -18.00390625 24.2890625 C-16.66872628 21.98872934 -15.45264832 19.71125361 -14.3125 17.3125 C-6.27349496 0.71020698 -6.27349496 0.71020698 0 0 Z " fill="#775447" transform="translate(116.3125,28.625)"/>
<path d="M0 0 C3.28465896 2.79196011 5.01321958 6.23196817 7 10 C7 10.66 7 11.32 7 12 C6.34 12 5.68 12 5 12 C4.15885829 10.56705502 3.32734313 9.12845595 2.5 7.6875 C1.80390625 6.48673828 1.80390625 6.48673828 1.09375 5.26171875 C0 3 0 3 0 0 Z " fill="#694633" transform="translate(141,95)"/>
</svg>
