<?xml version="1.0" encoding="UTF-8"?>
<svg version="1.1" xmlns="http://www.w3.org/2000/svg" width="319" height="475">
<path d="M0 0 C5.01399489 1.1490405 7.0352281 4.34926801 9.9375 8.375 C11.48367419 13.19542542 10.30153167 16.89515506 9 21.6875 C7.25899959 28.10743902 6.33278654 34.42360674 5.5 41.02734375 C5.1024682 43.93740077 4.62095934 46.75791429 4 49.625 C2.98786466 54.41106631 2.39011445 59.21838644 1.81811523 64.07495117 C1.37845673 67.76900646 0.89590449 71.44676738 0.3125 75.12109375 C-1.54404315 86.94002377 -2.70536414 98.76932055 -3.6875 110.6875 C-3.78742752 111.89339783 -3.78742752 111.89339783 -3.88937378 113.12365723 C-4.07941923 115.43634457 -4.26544293 117.74930662 -4.44921875 120.0625 C-4.50531311 120.75752625 -4.56140747 121.45255249 -4.61920166 122.16864014 C-4.89089182 125.68392289 -5.05998331 129.16167259 -5 132.6875 C1.1051844 113.06026526 6.82939558 93.53936049 11.125 73.42578125 C13.43922281 62.5959116 15.87925255 51.80932671 18.53817749 41.05899048 C18.88247568 39.66590642 19.22484362 38.27234361 19.56509399 36.87826538 C25.94823741 10.7863217 25.94823741 10.7863217 35.3125 2.6875 C39.28183378 1.21053859 42.82708204 0.90140454 47 1.6875 C50.26094246 3.36633267 52.42774473 5.58442864 54.1328125 8.87109375 C64.64170528 43.0013266 37.13334365 94.55657911 25.22583008 126.5612793 C20.824979 137.37641675 20.824979 137.37641675 19 148.6875 C19.90878906 148.36136719 20.81757813 148.03523437 21.75390625 147.69921875 C34.64158481 143.16867871 46.93152165 140.44451226 60.625 140.1875 C62.04824585 140.1414563 62.04824585 140.1414563 63.50024414 140.09448242 C70.35065127 140.09264207 70.35065127 140.09264207 73.79296875 143.24609375 C74.52128906 144.05175781 75.24960937 144.85742188 76 145.6875 C78.76305223 145.92446062 78.76305223 145.92446062 81.6875 145.25 C87.70062571 144.51468063 92.65920017 145.10769888 98.5 146.4375 C99.26530029 146.60709229 100.03060059 146.77668457 100.8190918 146.95141602 C104.9705664 147.95160022 108.56610123 149.02921157 112 151.6875 C112.875 155 112.875 155 112 158.6875 C106.22544102 163.82204678 98.65460945 167.00053286 91.75 170.3125 C80.72993363 175.60213186 72.56501731 180.68924692 68.24804688 192.79638672 C66.62328474 198.03839437 65.31140968 203.36029643 64 208.6875 C61.14582239 219.67541382 61.14582239 219.67541382 57 223.6875 C56.34 223.6875 55.68 223.6875 55 223.6875 C55.226875 224.574375 55.45375 225.46125 55.6875 226.375 C56.07720697 230.50589389 55.58694124 231.47342149 53 234.6875 C50.41345603 237.12129531 47.74023608 239.42892062 45 241.6875 C45.87140625 242.14898437 46.7428125 242.61046875 47.640625 243.0859375 C59.48307264 249.50986728 69.43476668 257.17095454 78 267.6875 C85.22927031 276.49100888 93.09697881 282.46173898 103.28515625 287.546875 C105 288.6875 105 288.6875 106 291.6875 C107.0725 291.605 108.145 291.5225 109.25 291.4375 C113 291.6875 113 291.6875 115.5 293.375 C117 295.6875 117 295.6875 117.25 298.0625 C114.15810441 304.55548073 107.55328161 307.05405862 101.125 309.4375 C92.05274064 312.59489885 83.09680661 313.87614929 73.5625 314.5625 C65.28473935 315.22593028 65.28473935 315.22593028 57.4375 317.8125 C45.36355129 322.94585081 27.68202436 320.42898324 15.85449219 315.85839844 C11.1696387 313.94049242 6.57375421 311.8555783 2 309.6875 C1.8865625 310.41453125 1.773125 311.1415625 1.65625 311.890625 C-0.57923988 321.41806995 -8.53341675 330.10799694 -16.55737305 335.36206055 C-19.80372839 338.45266871 -19.86512831 340.48647141 -20.328125 344.90234375 C-20.44713165 345.94147667 -20.44713165 345.94147667 -20.56854248 347.00160217 C-20.81675007 349.20769694 -21.03408965 351.41553348 -21.25 353.625 C-21.48717511 355.82971618 -21.73054055 358.03369006 -21.9743042 360.23768616 C-22.19218811 362.2393675 -22.39578992 364.24258818 -22.59863281 366.24584961 C-22.93305116 369.11342596 -23.41434788 371.86484367 -24 374.6875 C-24.10038632 376.64503326 -24.18160905 378.60358791 -24.25 380.5625 C-24.70395115 387.36456167 -25.89649446 393.89750838 -27.3125 400.5625 C-27.51327148 401.53687012 -27.71404297 402.51124023 -27.92089844 403.51513672 C-31.28259637 418.73659222 -40.02070346 429.67893136 -52.9453125 438.1640625 C-59.41966458 441.39295932 -65.46993379 442.04323678 -72.625 441.625 C-73.34945312 441.61017578 -74.07390625 441.59535156 -74.8203125 441.58007812 C-80.44077526 441.27970919 -83.14165646 439.81516646 -87 435.6875 C-88.94628147 431.37739572 -89.55292455 427.21617375 -87.9375 422.75 C-84.54594797 419.13963816 -82.33870219 417.77825947 -77.3125 417.4375 C-72.52520422 417.62057058 -67.7577392 418.14152993 -63 418.6875 C-58.33030922 412.81703159 -55.7408596 406.6345249 -53 399.6875 C-52.67 399.0275 -52.34 398.3675 -52 397.6875 C-49.39660459 383.4382818 -48.53987393 369.13886679 -49 354.6875 C-62.49719194 358.02729416 -62.49719194 358.02729416 -72 367.6875 C-73.15590922 369.15353121 -74.31233259 370.61918108 -75.4765625 372.07861328 C-80.39433323 378.29182439 -84.89026606 384.77689574 -89.24511719 391.39453125 C-92.58573483 396.38677418 -92.58573483 396.38677418 -95.109375 398.21875 C-98.35583469 400.74079307 -99.57784957 404.72441042 -101.1796875 408.41796875 C-103.41298085 413.24643169 -105.7001351 415.72169575 -110 418.6875 C-113.17231977 419.7122356 -115.78738538 419.54492079 -119 418.6875 C-124.14253304 415.56269694 -128.04226347 411.43835105 -130 405.6875 C-130.42296498 402.23328597 -130.24539823 400.26009588 -128.875 397.0625 C-127 394.6875 -127 394.6875 -124.19140625 392.9375 C-120.70355053 390.47849768 -118.45003251 387.77852194 -116.0625 384.3125 C-115.42562256 383.40733643 -115.42562256 383.40733643 -114.77587891 382.48388672 C-110.48488004 376.22287781 -107.16240765 369.57777892 -104 362.6875 C-105.216875 362.419375 -106.43375 362.15125 -107.6875 361.875 C-111.23012199 360.97050077 -114.1239588 360.04062462 -117 357.6875 C-117.8125 355 -117.8125 355 -118 352.6875 C-115.65437787 350.79586925 -113.31376027 348.91532225 -110.875 347.14453125 C-94.74004763 335.23410188 -90.79491445 316.95051672 -87.8125 298 C-87.63525391 296.90494141 -87.45800781 295.80988281 -87.27539062 294.68164062 C-86.84497676 292.01772777 -86.41993568 289.35308105 -86 286.6875 C-86.72662842 286.76766357 -87.45325684 286.84782715 -88.2019043 286.93041992 C-96.30961391 287.75933392 -104.37398533 288.19079764 -111.625 283.8125 C-113.99226172 281.69442372 -114.77693386 280.81042593 -115 277.6875 C-115.66 278.0175 -116.32 278.3475 -117 278.6875 C-119.75 279.0625 -119.75 279.0625 -123 278.6875 C-125.9375 276.3125 -125.9375 276.3125 -127.21484375 274.9765625 C-129.10813897 273.45115905 -129.10813897 273.45115905 -132.296875 272.78125 C-138.1065974 271.06529824 -142.57559187 267.42876774 -147.38964844 263.87353516 C-148.86421725 262.78750495 -150.35706185 261.72640277 -151.8515625 260.66796875 C-158.025919 256.0884989 -161.40671788 251.40714058 -165 244.6875 C-166.12160186 242.93532014 -167.24655365 241.18527969 -168.375 239.4375 C-170.60547976 235.72392637 -171.88526551 233.11382756 -171 228.6875 C-169 226.6875 -169 226.6875 -167.11157227 226.59985352 C-166.35416748 226.67131592 -165.5967627 226.74277832 -164.81640625 226.81640625 C-163.55594482 226.91707397 -163.55594482 226.91707397 -162.27001953 227.01977539 C-161.37653809 227.09574951 -160.48305664 227.17172363 -159.5625 227.25 C-152.58382408 227.74067846 -146.80629509 227.73958638 -140.125 225.359375 C-138 224.6875 -138 224.6875 -134.625 225 C-133.75875 224.896875 -132.8925 224.79375 -132 224.6875 C-130.62020939 222.69055064 -129.51789443 220.60470274 -128.3671875 218.46875 C-127.91601562 217.8809375 -127.46484375 217.293125 -127 216.6875 C-123.1875 216.1875 -123.1875 216.1875 -120 216.6875 C-119.67 215.82125 -119.34 214.955 -119 214.0625 C-114.55090919 206.55465925 -106.11398412 202.34207505 -98 199.6875 C-93.04782446 198.65878124 -88.03394018 198.14266058 -83 197.6875 C-83.32355469 196.63433594 -83.64710937 195.58117187 -83.98046875 194.49609375 C-87.14697078 182.66720684 -84.48790469 167.14491422 -79.1171875 156.1953125 C-78 154.6875 -78 154.6875 -75.25 153.625 C-74.5075 153.645625 -73.765 153.66625 -73 153.6875 C-72.92007813 152.98753906 -72.84015625 152.28757813 -72.7578125 151.56640625 C-71.82314864 148.01564717 -69.99717895 145.54716046 -67.875 142.625 C-62.78757303 135.33686401 -58.62835947 127.60500498 -54.5 119.75 C-42.53166821 97.01339173 -42.53166821 97.01339173 -35.70385742 87.97094727 C-31.33109389 81.84005401 -30.60094504 75.46064519 -29.5625 68.125 C-23.89749804 32.31748558 -23.89749804 32.31748558 -14 16.6875 C-13.47148437 15.76710938 -12.94296875 14.84671875 -12.3984375 13.8984375 C-5.07241453 1.16242833 -5.07241453 1.16242833 0 0 Z " fill="#FCF9BE" transform="translate(187,16.3125)"/>
<path d="M0 0 C2.3125 0.375 2.3125 0.375 3.3125 1.375 C4.01329345 6.70103019 2.18800707 10.91940125 0.28515625 15.7890625 C-0.53942654 17.98132678 -1.17859964 20.09298364 -1.6875 22.375 C-0.0375 22.705 1.6125 23.035 3.3125 23.375 C3.3125 24.035 3.3125 24.695 3.3125 25.375 C3.910625 25.41625 4.50875 25.4575 5.125 25.5 C7.3125 26.375 7.3125 26.375 8.9375 28.875 C12.70626399 38.46821742 12.86893713 48.20807214 13.3125 58.375 C14.9625 58.375 16.6125 58.375 18.3125 58.375 C19.3025 60.355 19.3025 60.355 20.3125 62.375 C21.3025 61.715 22.2925 61.055 23.3125 60.375 C25.19091797 59.9519043 25.19091797 59.9519043 27.3046875 59.69921875 C28.47680786 59.5448938 28.47680786 59.5448938 29.67260742 59.38745117 C30.50252197 59.28021729 31.33243652 59.1729834 32.1875 59.0625 C45.32266367 57.15905129 56.74631571 53.56653518 65.9375 43.5 C68.3125 41.375 68.3125 41.375 71.625 41.0625 C72.511875 41.165625 73.39875 41.26875 74.3125 41.375 C73.796875 40.859375 73.28125 40.34375 72.75 39.8125 C70.70885992 36.35143639 71.40810422 34.20128983 72.3125 30.375 C73.3025 28.89 73.3025 28.89 74.3125 27.375 C76.9525 27.705 79.5925 28.035 82.3125 28.375 C81.90144145 33.61599655 81.07210806 36.61539194 77.3125 40.375 C76.6525 40.375 75.9925 40.375 75.3125 40.375 C75.6528125 41.7053125 75.6528125 41.7053125 76 43.0625 C76.38970697 47.19339389 75.89944124 48.16092149 73.3125 51.375 C70.72595603 53.80879531 68.05273608 56.11642062 65.3125 58.375 C66.18390625 58.83648437 67.0553125 59.29796875 67.953125 59.7734375 C79.79557264 66.19736728 89.74726668 73.85845454 98.3125 84.375 C105.54177031 93.17850888 113.40947881 99.14923898 123.59765625 104.234375 C125.3125 105.375 125.3125 105.375 126.3125 108.375 C127.385 108.2925 128.4575 108.21 129.5625 108.125 C133.3125 108.375 133.3125 108.375 135.8125 110.0625 C137.3125 112.375 137.3125 112.375 137.5625 114.75 C134.47060441 121.24298073 127.86578161 123.74155862 121.4375 126.125 C112.36524064 129.28239885 103.40930661 130.56364929 93.875 131.25 C85.59723935 131.91343028 85.59723935 131.91343028 77.75 134.5 C65.67605129 139.63335081 47.99452436 137.11648324 36.16699219 132.54589844 C31.4821387 130.62799242 26.88625421 128.5430783 22.3125 126.375 C22.1990625 127.10203125 22.085625 127.8290625 21.96875 128.578125 C19.73326012 138.10556995 11.77908325 146.79549694 3.75512695 152.04956055 C0.50877161 155.14016871 0.44737169 157.17397141 -0.015625 161.58984375 C-0.09496277 162.28259903 -0.17430054 162.97535431 -0.25604248 163.68910217 C-0.50425007 165.89519694 -0.72158965 168.10303348 -0.9375 170.3125 C-1.17467511 172.51721618 -1.41804055 174.72119006 -1.6618042 176.92518616 C-1.87968811 178.9268675 -2.08328992 180.93008818 -2.28613281 182.93334961 C-2.62055116 185.80092596 -3.10184788 188.55234367 -3.6875 191.375 C-3.78788632 193.33253326 -3.86910905 195.29108791 -3.9375 197.25 C-4.39145115 204.05206167 -5.58399446 210.58500838 -7 217.25 C-7.20077148 218.22437012 -7.40154297 219.19874023 -7.60839844 220.20263672 C-10.97009637 235.42409222 -19.70820346 246.36643136 -32.6328125 254.8515625 C-39.10716458 258.08045932 -45.15743379 258.73073678 -52.3125 258.3125 C-53.39917969 258.29026367 -53.39917969 258.29026367 -54.5078125 258.26757812 C-60.12827526 257.96720919 -62.82915646 256.50266646 -66.6875 252.375 C-68.63378147 248.06489572 -69.24042455 243.90367375 -67.625 239.4375 C-64.23344797 235.82713816 -62.02620219 234.46575947 -57 234.125 C-52.21270422 234.30807058 -47.4452392 234.82902993 -42.6875 235.375 C-38.01780922 229.50453159 -35.4283596 223.3220249 -32.6875 216.375 C-32.3575 215.715 -32.0275 215.055 -31.6875 214.375 C-29.08410459 200.1257818 -28.22737393 185.82636679 -28.6875 171.375 C-42.18469194 174.71479416 -42.18469194 174.71479416 -51.6875 184.375 C-52.84340922 185.84103121 -53.99983259 187.30668108 -55.1640625 188.76611328 C-60.08183323 194.97932439 -64.57776606 201.46439574 -68.93261719 208.08203125 C-72.27323483 213.07427418 -72.27323483 213.07427418 -74.796875 214.90625 C-78.04333469 217.42829307 -79.26534957 221.41191042 -80.8671875 225.10546875 C-83.10048085 229.93393169 -85.3876351 232.40919575 -89.6875 235.375 C-92.85981977 236.3997356 -95.47488538 236.23242079 -98.6875 235.375 C-103.83003304 232.25019694 -107.72976347 228.12585105 -109.6875 222.375 C-110.11046498 218.92078597 -109.93289823 216.94759588 -108.5625 213.75 C-106.6875 211.375 -106.6875 211.375 -103.87890625 209.625 C-100.39105053 207.16599768 -98.13753251 204.46602194 -95.75 201 C-95.32541504 200.39655762 -94.90083008 199.79311523 -94.46337891 199.17138672 C-90.17238004 192.91037781 -86.84990765 186.26527892 -83.6875 179.375 C-84.904375 179.106875 -86.12125 178.83875 -87.375 178.5625 C-90.91762199 177.65800077 -93.8114588 176.72812462 -96.6875 174.375 C-97.5 171.6875 -97.5 171.6875 -97.6875 169.375 C-95.34187787 167.48336925 -93.00126027 165.60282225 -90.5625 163.83203125 C-74.42754763 151.92160188 -70.48241445 133.63801672 -67.5 114.6875 C-67.32275391 113.59244141 -67.14550781 112.49738281 -66.96289062 111.36914062 C-66.53247676 108.70522777 -66.10743568 106.04058105 -65.6875 103.375 C-66.41412842 103.45516357 -67.14075684 103.53532715 -67.8894043 103.61791992 C-75.99711391 104.44683392 -84.06148533 104.87829764 -91.3125 100.5 C-93.67976172 98.38192372 -94.46443386 97.49792593 -94.6875 94.375 C-94.0275 94.375 -93.3675 94.375 -92.6875 94.375 C-92.6875 93.715 -92.6875 93.055 -92.6875 92.375 C-90.375 91.75 -90.375 91.75 -87.6875 91.375 C-86.2025 92.365 -86.2025 92.365 -84.6875 93.375 C-82.70915052 93.68066956 -82.70915052 93.68066956 -80.5625 93.640625 C-79.77359375 93.64320313 -78.9846875 93.64578125 -78.171875 93.6484375 C-77.35203125 93.64070313 -76.5321875 93.63296875 -75.6875 93.625 C-74.86765625 93.63273437 -74.0478125 93.64046875 -73.203125 93.6484375 C-72.41421875 93.64585937 -71.6253125 93.64328125 -70.8125 93.640625 C-69.73355469 93.63724121 -69.73355469 93.63724121 -68.6328125 93.63378906 C-66.36396562 93.4771844 -66.36396562 93.4771844 -63.6875 91.375 C-62.615 91.4575 -61.5425 91.54 -60.4375 91.625 C-55.84961731 91.31914115 -54.83833316 90.07816199 -51.64453125 87.04296875 C-46.77152308 82.88972626 -41.14567937 79.98429164 -34.6875 80.375 C-34.543125 79.735625 -34.39875 79.09625 -34.25 78.4375 C-33.6875 76.375 -33.6875 76.375 -32.6875 75.375 C-29.75 75.1875 -29.75 75.1875 -26.6875 75.375 C-24.6875 77.375 -24.6875 77.375 -24.5625 80 C-24.60375 80.78375 -24.645 81.5675 -24.6875 82.375 C-27.39629335 83.72939668 -29.69683268 83.44001451 -32.6875 83.375 C-32.749375 83.973125 -32.81125 84.57125 -32.875 85.1875 C-34.0234454 88.27946838 -35.84155269 88.78899825 -38.6875 90.375 C-46.86648913 94.93734237 -52.22047716 98.94297693 -56.6875 107.375 C-57.48130966 110.58215035 -57.48130966 110.58215035 -57.93359375 114.07421875 C-58.13146484 115.36650391 -58.32933594 116.65878906 -58.53320312 117.99023438 C-58.83013683 120.0189967 -59.12296286 122.04830875 -59.41430664 124.07788086 C-60.61961459 132.36121048 -62.11586853 139.78360598 -65.6875 147.375 C-66.40873047 149.01855469 -66.40873047 149.01855469 -67.14453125 150.6953125 C-70.93577622 158.54002112 -75.55822922 164.28276409 -81.6875 170.375 C-80.2483866 170.09140113 -78.81124482 169.79778601 -77.375 169.5 C-76.57449219 169.33757812 -75.77398437 169.17515625 -74.94921875 169.0078125 C-72.43448882 168.43021001 -72.43448882 168.43021001 -69.6875 166.375 C-67.0625 166.1875 -67.0625 166.1875 -64.6875 166.375 C-63.6875 167.375 -63.6875 167.375 -63.625 170.4375 C-63.645625 171.406875 -63.66625 172.37625 -63.6875 173.375 C-63.0275 173.705 -62.3675 174.035 -61.6875 174.375 C-61.3575 172.725 -61.0275 171.075 -60.6875 169.375 C-59.64851563 169.12105469 -58.60953125 168.86710938 -57.5390625 168.60546875 C-53.91603539 167.71505272 -50.29818784 166.80542512 -46.68310547 165.88330078 C-45.05177097 165.46778348 -43.41870193 165.05908123 -41.78515625 164.65234375 C-35.16707955 162.86106529 -29.59789069 159.7976184 -23.6875 156.375 C-22.54667969 155.75238281 -21.40585938 155.12976563 -20.23046875 154.48828125 C-7.32625978 147.41772216 6.68907519 138.06637477 13.3125 124.375 C15.56358104 112.88625102 15.82338491 101.42394289 10.40625 90.890625 C9.21710977 88.15560247 9.30745728 86.30986051 9.3125 83.375 C6.90194746 81.71200035 6.90194746 81.71200035 4.3125 80.375 C3.9825 79.385 3.6525 78.395 3.3125 77.375 C1.8275 77.87 1.8275 77.87 0.3125 78.375 C-1.39382648 78.46767588 -3.10366587 78.50498202 -4.8125 78.5 C-5.70195312 78.50257813 -6.59140625 78.50515625 -7.5078125 78.5078125 C-9.6875 78.375 -9.6875 78.375 -10.6875 77.375 C-11.55375 77.54 -12.42 77.705 -13.3125 77.875 C-17.23176558 77.29436806 -17.84644545 76.6597167 -20.375 73.75 C-27.97560978 62.97125913 -27.86808947 47.92704211 -26.30078125 35.24609375 C-25.5782146 31.27486744 -24.95453637 28.77555455 -22.6875 25.375 C-19.5625 25.1875 -19.5625 25.1875 -16.6875 25.375 C-16.1925 23.89 -16.1925 23.89 -15.6875 22.375 C-13.7075 22.045 -11.7275 21.715 -9.6875 21.375 C-9.6875 18.405 -9.6875 15.435 -9.6875 12.375 C-9.0275 12.375 -8.3675 12.375 -7.6875 12.375 C-7.605 11.323125 -7.5225 10.27125 -7.4375 9.1875 C-6.49517409 4.39734327 -5.2211443 0.72853176 0 0 Z " fill="#7D604A" transform="translate(166.6875,199.625)"/>
<path d="M0 0 C5.01399489 1.1490405 7.0352281 4.34926801 9.9375 8.375 C11.48367419 13.19542542 10.30153167 16.89515506 9 21.6875 C7.25899959 28.10743902 6.33278654 34.42360674 5.5 41.02734375 C5.1024682 43.93740077 4.62095934 46.75791429 4 49.625 C2.98786466 54.41106631 2.39011445 59.21838644 1.81811523 64.07495117 C1.37845673 67.76900646 0.89590449 71.44676738 0.3125 75.12109375 C-1.54404315 86.94002377 -2.70536414 98.76932055 -3.6875 110.6875 C-3.75411835 111.49143188 -3.82073669 112.29536377 -3.88937378 113.12365723 C-4.07941923 115.43634457 -4.26544293 117.74930662 -4.44921875 120.0625 C-4.53336029 121.10503937 -4.53336029 121.10503937 -4.61920166 122.16864014 C-4.89089182 125.68392289 -5.05998331 129.16167259 -5 132.6875 C1.1051844 113.06026526 6.82939558 93.53936049 11.125 73.42578125 C13.43922281 62.5959116 15.87925255 51.80932671 18.53817749 41.05899048 C18.88247568 39.66590642 19.22484362 38.27234361 19.56509399 36.87826538 C25.94823741 10.7863217 25.94823741 10.7863217 35.3125 2.6875 C39.28183378 1.21053859 42.82708204 0.90140454 47 1.6875 C50.26094246 3.36633267 52.42774473 5.58442864 54.1328125 8.87109375 C64.64170528 43.0013266 37.13334365 94.55657911 25.22583008 126.5612793 C20.824979 137.37641675 20.824979 137.37641675 19 148.6875 C19.90878906 148.36136719 20.81757813 148.03523437 21.75390625 147.69921875 C34.64158481 143.16867871 46.93152165 140.44451226 60.625 140.1875 C62.04824585 140.1414563 62.04824585 140.1414563 63.50024414 140.09448242 C71.00228407 140.09246701 71.00228407 140.09246701 74.1484375 143.21875 C74.75945312 144.0334375 75.37046875 144.848125 76 145.6875 C75.01 146.0175 74.02 146.3475 73 146.6875 C72.67 147.6775 72.34 148.6675 72 149.6875 C70.85168701 149.76266846 70.85168701 149.76266846 69.68017578 149.83935547 C66.16129295 150.07359356 62.64318265 150.31797901 59.125 150.5625 C57.92101562 150.64113281 56.71703125 150.71976563 55.4765625 150.80078125 C34.42554316 152.28808153 12.05719576 158.09022474 -2.5234375 174.390625 C-4 175.6875 -4 175.6875 -7 175.6875 C-6.979375 176.491875 -6.95875 177.29625 -6.9375 178.125 C-7 180.6875 -7 180.6875 -8 181.6875 C-11 181.8125 -11 181.8125 -14 181.6875 C-15 180.6875 -15 180.6875 -15.125 178.1875 C-15 175.6875 -15 175.6875 -14 174.6875 C-12.33382885 174.64686168 -10.66611905 174.644779 -9 174.6875 C-9 173.6975 -9 172.7075 -9 171.6875 C-9.61875 171.56375 -10.2375 171.44 -10.875 171.3125 C-13 170.6875 -13 170.6875 -15 168.6875 C-15.5945327 165.4197721 -15.95636436 162.15022989 -16.33984375 158.8515625 C-17.02368135 155.57399766 -17.99724765 154.26562871 -20 151.6875 C-19.6875 147.9375 -19.6875 147.9375 -19 144.6875 C-20.65 144.0275 -22.3 143.3675 -24 142.6875 C-24 140.7075 -24 138.7275 -24 136.6875 C-22.68 136.0275 -21.36 135.3675 -20 134.6875 C-20.33 133.3675 -20.66 132.0475 -21 130.6875 C-21.78375 130.605 -22.5675 130.5225 -23.375 130.4375 C-26 129.6875 -26 129.6875 -27.09375 128.02734375 C-31.0340953 117.85377982 -30.54189282 106.28801316 -29 95.6875 C-35.26497507 104.23233286 -40.25189076 113.11121341 -44.91259766 122.60449219 C-49.96744373 132.87794305 -55.89283028 142.25267953 -62.51953125 151.59375 C-63.70678946 153.27282757 -64.85930068 154.97645102 -66 156.6875 C-68.625 156.875 -68.625 156.875 -71 156.6875 C-71.1546875 158.481875 -71.1546875 158.481875 -71.3125 160.3125 C-71.75888975 164.48755712 -72.60817344 168.47510132 -73.5625 172.5625 C-76.07717111 182.68365075 -76.07717111 182.68365075 -73.98046875 192.5234375 C-72.52441358 194.30781607 -72.52441358 194.30781607 -70 196.6875 C-69.505 197.55375 -69.01 198.42 -68.5 199.3125 C-66.72855731 202.11728425 -64.66347968 203.74387969 -62 205.6875 C-62.875 210.5625 -62.875 210.5625 -64 211.6875 C-70.26045488 212.15998716 -70.26045488 212.15998716 -73.25 210.25 C-73.8275 209.734375 -74.405 209.21875 -75 208.6875 C-84.10816067 205.65144644 -93.46459624 207.95401116 -102 211.6875 C-107.33972531 214.29422725 -107.33972531 214.29422725 -111 218.6875 C-112.65 218.6875 -114.3 218.6875 -116 218.6875 C-116 218.0275 -116 217.3675 -116 216.6875 C-116.99 216.3575 -117.98 216.0275 -119 215.6875 C-117.66445826 210.0114476 -113.69269842 207.61082033 -109 204.6875 C-100.58973731 199.79718751 -92.54254771 198.55032145 -83 197.6875 C-83.48533203 196.10775391 -83.48533203 196.10775391 -83.98046875 194.49609375 C-87.14697078 182.66720684 -84.48790469 167.14491422 -79.1171875 156.1953125 C-78 154.6875 -78 154.6875 -75.25 153.625 C-74.5075 153.645625 -73.765 153.66625 -73 153.6875 C-72.92007813 152.98753906 -72.84015625 152.28757813 -72.7578125 151.56640625 C-71.82314864 148.01564717 -69.99717895 145.54716046 -67.875 142.625 C-62.78757303 135.33686401 -58.62835947 127.60500498 -54.5 119.75 C-42.53166821 97.01339173 -42.53166821 97.01339173 -35.70385742 87.97094727 C-31.33109389 81.84005401 -30.60094504 75.46064519 -29.5625 68.125 C-23.89749804 32.31748558 -23.89749804 32.31748558 -14 16.6875 C-13.47148437 15.76710938 -12.94296875 14.84671875 -12.3984375 13.8984375 C-5.07241453 1.16242833 -5.07241453 1.16242833 0 0 Z " fill="#3F0404" transform="translate(187,16.3125)"/>
<path d="M0 0 C0.144375 0.9075 0.28875 1.815 0.4375 2.75 C2.50433367 7.04901403 4.79632805 7.66545221 9.1015625 9.3359375 C9.72804687 9.55507813 10.35453125 9.77421875 11 10 C11 10.66 11 11.32 11 12 C11.7425 12.2475 12.485 12.495 13.25 12.75 C16.26177898 14.11899045 17.74775599 15.60699074 20 18 C20.804375 18.639375 21.60875 19.27875 22.4375 19.9375 C26.84405371 23.48423835 30.5176124 27.58116475 34.25 31.8125 C42.74522419 41.23294663 51.08495964 48.79329346 64 51 C64 51.99 64 52.98 64 54 C62.29204966 54.62604585 60.58362002 55.25078415 58.875 55.875 C57.92367187 56.22304688 56.97234375 56.57109375 55.9921875 56.9296875 C55.00476563 57.28289062 54.01734375 57.63609375 53 58 C52.1234375 58.350625 51.246875 58.70125 50.34375 59.0625 C45.4931139 60.42249143 40.63477871 60.73068193 35.625 61.125 C34.60277344 61.21136719 33.58054687 61.29773438 32.52734375 61.38671875 C30.01869888 61.59772626 27.50969545 61.80194994 25 62 C24.20046862 65.28696233 23.90341064 66.71023192 25 70 C23.68 70 22.36 70 21 70 C20.67 68.35 20.34 66.7 20 65 C15.85906302 64.79029441 15.85906302 64.79029441 12 66 C-14.25854261 67.19991215 -14.25854261 67.19991215 -24.95361328 60.94042969 C-27.27752391 59.87246217 -29.19373367 59.60458593 -31.734375 59.37890625 C-32.53584961 59.30357666 -33.33732422 59.22824707 -34.16308594 59.15063477 C-34.76926758 59.10092529 -35.37544922 59.05121582 -36 59 C-36.01417969 57.8140625 -36.02835938 56.628125 -36.04296875 55.40625 C-36.2513491 46.97297466 -36.81051325 39.07789713 -39.375 31 C-39.68860474 30.00516602 -39.68860474 30.00516602 -40.00854492 28.99023438 C-41.14020935 25.6915254 -42.15145733 23.1035392 -45 21 C-45.99 20.67 -46.98 20.34 -48 20 C-48.67784992 17.66989091 -49.34416793 15.33640176 -50 13 C-50.99 12.34 -51.98 11.68 -53 11 C-52.34 10.34 -51.68 9.68 -51 9 C-50.01 9 -49.02 9 -48 9 C-47.67 8.01 -47.34 7.02 -47 6 C-45.865625 5.87625 -44.73125 5.7525 -43.5625 5.625 C-41.7990625 5.315625 -41.7990625 5.315625 -40 5 C-39.67 4.34 -39.34 3.68 -39 3 C-38.01 4.485 -38.01 4.485 -37 6 C-23.22550987 8.24279351 -12.72122468 0 0 0 Z " fill="#FBF8BD" transform="translate(227,261)"/>
<path d="M0 0 C1.32 0 2.64 0 4 0 C3.55186083 9.1945796 2.45809153 18.16741254 1.08227539 27.26098633 C0.35808984 32.14583526 -0.17165942 36.93502008 -0.375 41.875 C-0.75585638 48.34178597 -1.97502917 54.55014727 -3.3125 60.875 C-3.51343262 61.85065918 -3.71436523 62.82631836 -3.92138672 63.83154297 C-7.28468568 79.0511883 -16.02171669 89.99209655 -28.9453125 98.4765625 C-35.41966458 101.70545932 -41.46993379 102.35573678 -48.625 101.9375 C-49.34945312 101.92267578 -50.07390625 101.90785156 -50.8203125 101.89257812 C-56.44077526 101.59220919 -59.14165646 100.12766646 -63 96 C-64.94628147 91.68989572 -65.55292455 87.52867375 -63.9375 83.0625 C-60.54594797 79.45213816 -58.33870219 78.09075947 -53.3125 77.75 C-48.52520422 77.93307058 -43.7577392 78.45402993 -39 79 C-34.33030922 73.12953159 -31.7408596 66.9470249 -29 60 C-28.505 59.01 -28.505 59.01 -28 58 C-25.39660459 43.7507818 -24.53987393 29.45136679 -25 15 C-25.66 14.67 -26.32 14.34 -27 14 C-26.06994141 13.5978125 -26.06994141 13.5978125 -25.12109375 13.1875 C-19.24996552 10.58950439 -13.53709817 7.77087233 -7.875 4.75 C-7.21169678 4.39679688 -6.54839355 4.04359375 -5.86499023 3.6796875 C-2.73670486 2.11971126 -2.73670486 2.11971126 0 0 Z " fill="#3E0404" transform="translate(163,356)"/>
<path d="M0 0 C3.94080271 4.1597362 5.27555788 6.94106499 5.234375 12.67578125 C4.9794913 15.20337792 4.32941906 17.28922695 3.5 19.6875 C1.11431705 27.02545373 0.98417088 34.99252653 3.0625 42.4375 C4.42774433 47.62542847 3.65568741 51.39680849 1 56 C1 55.34 1 54.68 1 54 C0.21625 53.9175 -0.5675 53.835 -1.375 53.75 C-4 53 -4 53 -5.09375 51.33984375 C-9.0340953 41.16627982 -8.54189282 29.60051316 -7 19 C-13.26497507 27.54483286 -18.25189076 36.42371341 -22.91259766 45.91699219 C-27.96744373 56.19044305 -33.89283028 65.56517953 -40.51953125 74.90625 C-41.70678946 76.58532757 -42.85930068 78.28895102 -44 80 C-46.625 80.1875 -46.625 80.1875 -49 80 C-49.103125 81.19625 -49.20625 82.3925 -49.3125 83.625 C-49.75888975 87.80005712 -50.60817344 91.78760132 -51.5625 95.875 C-54.07717111 105.99615075 -54.07717111 105.99615075 -51.98046875 115.8359375 C-50.52441358 117.62031607 -50.52441358 117.62031607 -48 120 C-47.505 120.86625 -47.01 121.7325 -46.5 122.625 C-44.72855731 125.42978425 -42.66347968 127.05637969 -40 129 C-40.875 133.875 -40.875 133.875 -42 135 C-48.26045488 135.47248716 -48.26045488 135.47248716 -51.25 133.5625 C-51.8275 133.046875 -52.405 132.53125 -53 132 C-62.10816067 128.96394644 -71.46459624 131.26651116 -80 135 C-85.33972531 137.60672725 -85.33972531 137.60672725 -89 142 C-90.65 142 -92.3 142 -94 142 C-94 141.34 -94 140.68 -94 140 C-94.99 139.67 -95.98 139.34 -97 139 C-95.66445826 133.3239476 -91.69269842 130.92332033 -87 128 C-78.58973731 123.10968751 -70.54254771 121.86282145 -61 121 C-61.48533203 119.42025391 -61.48533203 119.42025391 -61.98046875 117.80859375 C-65.14697078 105.97970684 -62.48790469 90.45741422 -57.1171875 79.5078125 C-56 78 -56 78 -53.25 76.9375 C-52.5075 76.958125 -51.765 76.97875 -51 77 C-50.92007813 76.30003906 -50.84015625 75.60007812 -50.7578125 74.87890625 C-49.82314864 71.32814717 -47.99717895 68.85966046 -45.875 65.9375 C-40.7875776 58.64937054 -36.62831017 50.91752467 -32.5 43.0625 C-27.67733133 33.90022886 -22.71837445 24.92153226 -17.08203125 16.23046875 C-14.69990288 12.53437088 -12.50286658 8.75204136 -10.3515625 4.91796875 C-7.63547993 1.06364348 -4.7639241 -0.95278482 0 0 Z " fill="#785646" transform="translate(165,93)"/>
<path d="M0 0 C0.87591797 0.44472656 0.87591797 0.44472656 1.76953125 0.8984375 C10.10893941 5.01702437 17.34646121 5.24801975 26.5 5.0078125 C27.655 5.00523437 28.81 5.00265625 30 5 C30.495 5.495 30.495 5.495 31 6 C30.93301453 8.31872786 30.63299334 10.59060511 30.36328125 12.89453125 C30.11546763 15.01293799 29.90611773 17.13611151 29.73046875 19.26171875 C28.94046847 27.15304027 27.19771419 34.34678635 24.75 41.875 C24.47462402 42.74229736 24.19924805 43.60959473 23.91552734 44.50317383 C19.89420906 56.31508991 12.64211095 65.9495626 1.50390625 71.76171875 C0.75947266 72.37466797 0.75947266 72.37466797 0 73 C0 74.32 0 75.64 0 77 C9.30802614 81.19773728 17.1962986 82.40998309 27 79 C29.33212027 78.92477031 31.6685311 78.90674124 34 79 C34 79.66 34 80.32 34 81 C39.28 80.34 44.56 79.68 50 79 C47.69877954 82.83536743 45.99739954 85.21041188 43 88.3125 C38.44881706 93.26394984 34.72072413 98.58153813 30.96704102 104.15185547 C21.44801333 118.27599333 21.44801333 118.27599333 18 120 C16.55441591 122.8464594 15.20805626 125.71345953 13.91796875 128.6328125 C11.69497891 133.35791199 9.32314193 136.02158859 5 139 C1.82768023 140.0247356 -0.78738538 139.85742079 -4 139 C-9.14253304 135.87519694 -13.04226347 131.75085105 -15 126 C-15.42296498 122.54578597 -15.24539823 120.57259588 -13.875 117.375 C-12 115 -12 115 -9.19140625 113.25 C-5.70355053 110.79099768 -3.45003251 108.09102194 -1.0625 104.625 C-0.63791504 104.02155762 -0.21333008 103.41811523 0.22412109 102.79638672 C4.51511996 96.53537781 7.83759235 89.89027892 11 83 C9.783125 82.731875 8.56625 82.46375 7.3125 82.1875 C3.76987801 81.28300077 0.8760412 80.35312462 -2 78 C-2.8125 75.3125 -2.8125 75.3125 -3 73 C-0.65437787 71.10836925 1.68623973 69.22782225 4.125 67.45703125 C20.25995237 55.54660188 24.20508555 37.26301672 27.1875 18.3125 C27.36474609 17.21744141 27.54199219 16.12238281 27.72460938 14.99414062 C28.15502324 12.33022777 28.58006432 9.66558105 29 7 C28.27337158 7.08016357 27.54674316 7.16032715 26.7980957 7.24291992 C18.68270853 8.07261885 10.54759683 8.57060466 3.375 4 C1 2 1 2 0 0 Z " fill="#3E0404" transform="translate(72,296)"/>
<path d="M0 0 C2.64 0.33 5.28 0.66 8 1 C7.58894145 6.24099655 6.75960806 9.24039194 3 13 C2.34 13 1.68 13 1 13 C1.226875 13.886875 1.45375 14.77375 1.6875 15.6875 C2.07720697 19.81839389 1.58694124 20.78592149 -1 24 C-3.58654397 26.43379531 -6.25976392 28.74142062 -9 31 C-8.12859375 31.46148437 -7.2571875 31.92296875 -6.359375 32.3984375 C5.48307264 38.82236728 15.43476668 46.48345454 24 57 C31.22927031 65.80350888 39.09697881 71.77423898 49.28515625 76.859375 C51 78 51 78 52 81 C53.0725 80.9175 54.145 80.835 55.25 80.75 C59 81 59 81 61.5 82.6875 C63 85 63 85 63.25 87.375 C60.15810441 93.86798073 53.55328161 96.36655862 47.125 98.75 C41.46665177 100.63611608 35.89482362 102.10904248 30 103 C28.0509375 103.309375 28.0509375 103.309375 26.0625 103.625 C21.12130489 104.17065345 15.93062495 104.69726009 11 104 C9 101 9 101 9.3125 98.375 C10 96 10 96 11 95 C12.45625615 94.83264874 13.91934069 94.72392369 15.3828125 94.640625 C25.95582859 93.93016307 35.36742863 92.80712522 45.296875 89.0234375 C48 88 48 88 50 88 C50 87.01 50 86.02 50 85 C48.906875 84.95875 47.81375 84.9175 46.6875 84.875 C34.48674841 83.18698008 26.55806666 74.11833403 18.54003906 65.61816406 C17.12357904 64.12984811 15.66886562 62.67818729 14.2109375 61.23046875 C12 59 12 59 10 56.375 C7.85734387 53.83059585 5.86204329 52.64567489 3 51 C1.64748503 49.68612831 0.31054623 48.35573748 -1 47 C-1.99 46.505 -1.99 46.505 -3 46 C-3 45.34 -3 44.68 -3 44 C-3.70125 43.9175 -4.4025 43.835 -5.125 43.75 C-8.77154663 42.79872697 -11.11299215 41.41702983 -14 39 C-14.16796875 36.359375 -14.16796875 36.359375 -14 34 C-14.9178125 34.33773437 -15.835625 34.67546875 -16.78125 35.0234375 C-20.51143494 36.37915598 -24.25058843 37.69851764 -28 39 C-28.72058594 39.25652344 -29.44117188 39.51304687 -30.18359375 39.77734375 C-36.7589369 41.78362885 -44.20995845 41.54771391 -51 41 C-51.99 40.34 -52.98 39.68 -54 39 C-55.010625 39 -56.02125 39 -57.0625 39 C-58.031875 39 -59.00125 39 -60 39 C-60.66 38.34 -61.32 37.68 -62 37 C-61.625 34.375 -61.625 34.375 -61 32 C-59.35 31.67 -57.7 31.34 -56 31 C-55.34 32.32 -54.68 33.64 -54 35 C-53.01 34.34 -52.02 33.68 -51 33 C-49.12158203 32.5769043 -49.12158203 32.5769043 -47.0078125 32.32421875 C-46.22639893 32.22133545 -45.44498535 32.11845215 -44.63989258 32.01245117 C-43.80997803 31.90521729 -42.98006348 31.7979834 -42.125 31.6875 C-28.98983633 29.78405129 -17.56618429 26.19153518 -8.375 16.125 C-6 14 -6 14 -2.6875 13.6875 C-1.800625 13.790625 -0.91375 13.89375 0 14 C-0.515625 13.484375 -1.03125 12.96875 -1.5625 12.4375 C-3.60364008 8.97643639 -2.90439578 6.82628983 -2 3 C-1.34 2.01 -0.68 1.02 0 0 Z " fill="#755645" transform="translate(241,227)"/>
<path d="M0 0 C3.0625 0.1875 3.0625 0.1875 5.0625 2.1875 C5.1875 4.8125 5.1875 4.8125 5.0625 7.1875 C2.35370665 8.54189668 0.05316732 8.25251451 -2.9375 8.1875 C-3.0303125 9.0846875 -3.0303125 9.0846875 -3.125 10 C-4.2734454 13.09196838 -6.09155269 13.60149825 -8.9375 15.1875 C-17.11648913 19.74984237 -22.47047716 23.75547693 -26.9375 32.1875 C-27.73130966 35.39465035 -27.73130966 35.39465035 -28.18359375 38.88671875 C-28.38146484 40.17900391 -28.57933594 41.47128906 -28.78320312 42.80273438 C-29.08013683 44.8314967 -29.37296286 46.86080875 -29.66430664 48.89038086 C-30.86961459 57.17371048 -32.36586853 64.59610598 -35.9375 72.1875 C-36.65873047 73.83105469 -36.65873047 73.83105469 -37.39453125 75.5078125 C-41.18577622 83.35252112 -45.80822922 89.09526409 -51.9375 95.1875 C-50.4983866 94.90390113 -49.06124482 94.61028601 -47.625 94.3125 C-46.82449219 94.15007812 -46.02398437 93.98765625 -45.19921875 93.8203125 C-42.68448882 93.24271001 -42.68448882 93.24271001 -39.9375 91.1875 C-37.3125 91 -37.3125 91 -34.9375 91.1875 C-33.9375 92.1875 -33.9375 92.1875 -33.875 95.25 C-33.895625 96.219375 -33.91625 97.18875 -33.9375 98.1875 C-32.9475 98.6825 -32.9475 98.6825 -31.9375 99.1875 C-31.6075 97.5375 -31.2775 95.8875 -30.9375 94.1875 C-29.89851563 93.93355469 -28.85953125 93.67960937 -27.7890625 93.41796875 C-23.49946412 92.36347899 -19.21696303 91.28234419 -14.9375 90.1875 C-13.53564453 89.82978516 -13.53564453 89.82978516 -12.10546875 89.46484375 C-6.03044066 87.78237328 -0.55055036 85.21425237 5.08203125 82.39453125 C8.03078023 81.20034588 9.92507892 80.92653152 13.0625 81.1875 C13.3925 82.1775 13.7225 83.1675 14.0625 84.1875 C13.1034375 84.7753125 13.1034375 84.7753125 12.125 85.375 C9.81312048 87.01060342 9.81312048 87.01060342 9.70703125 89.671875 C9.0625 92.1875 9.0625 92.1875 7.1640625 93.41015625 C5.93816406 93.82587891 5.93816406 93.82587891 4.6875 94.25 C3.78386719 94.56839844 2.88023437 94.88679688 1.94921875 95.21484375 C0.99660156 95.53582031 0.04398437 95.85679687 -0.9375 96.1875 C-2.79179292 96.89550275 -4.6459607 97.60383336 -6.5 98.3125 C-14.81199609 101.27773456 -22.09983726 102.51960424 -30.9375 102.1875 C-30.9375 101.5275 -30.9375 100.8675 -30.9375 100.1875 C-32.54213449 100.49758884 -34.14619231 100.81066287 -35.75 101.125 C-37.08998047 101.38603516 -37.08998047 101.38603516 -38.45703125 101.65234375 C-41.05147171 102.16491153 -41.05147171 102.16491153 -43.9375 103.1875 C-51.7035094 104.01333331 -59.4099198 102.53922013 -65.9375 98.1875 C-65.64184117 94.97357906 -65.40172196 93.58324478 -62.8984375 91.44921875 C-62.04507813 90.92972656 -61.19171875 90.41023438 -60.3125 89.875 C-46.96704904 81.0414918 -41.51452157 67.30840197 -37.9375 52.1875 C-35.47830287 39.78027663 -35.47830287 39.78027663 -34.9375 27.1875 C-36.06027344 27.22230469 -37.18304688 27.25710938 -38.33984375 27.29296875 C-47.56790358 27.49386991 -55.39591799 27.56651342 -63.5 22.625 C-63.974375 22.150625 -64.44875 21.67625 -64.9375 21.1875 C-64.9375 20.5275 -64.9375 19.8675 -64.9375 19.1875 C-64.2775 19.1875 -63.6175 19.1875 -62.9375 19.1875 C-62.9375 18.5275 -62.9375 17.8675 -62.9375 17.1875 C-60.625 16.5625 -60.625 16.5625 -57.9375 16.1875 C-56.9475 16.8475 -55.9575 17.5075 -54.9375 18.1875 C-52.95915052 18.49316956 -52.95915052 18.49316956 -50.8125 18.453125 C-50.02359375 18.45570313 -49.2346875 18.45828125 -48.421875 18.4609375 C-47.60203125 18.45320313 -46.7821875 18.44546875 -45.9375 18.4375 C-45.11765625 18.44523437 -44.2978125 18.45296875 -43.453125 18.4609375 C-42.66421875 18.45835937 -41.8753125 18.45578125 -41.0625 18.453125 C-39.98355469 18.44974121 -39.98355469 18.44974121 -38.8828125 18.44628906 C-36.61396562 18.2896844 -36.61396562 18.2896844 -33.9375 16.1875 C-32.865 16.27 -31.7925 16.3525 -30.6875 16.4375 C-26.09961731 16.13164115 -25.08833316 14.89066199 -21.89453125 11.85546875 C-17.02152308 7.70222626 -11.39567937 4.79679164 -4.9375 5.1875 C-4.793125 4.548125 -4.64875 3.90875 -4.5 3.25 C-3.62922221 0.05714811 -3.44717239 0.22003228 0 0 Z " fill="#7A5B48" transform="translate(136.9375,274.8125)"/>
<path d="M0 0 C1.44246094 0.00966797 1.44246094 0.00966797 2.9140625 0.01953125 C5.375 0.1875 5.375 0.1875 7.375 1.1875 C7.375 1.8475 7.375 2.5075 7.375 3.1875 C8.365 3.5175 9.355 3.8475 10.375 4.1875 C10.375 5.8375 10.375 7.4875 10.375 9.1875 C11.035 9.1875 11.695 9.1875 12.375 9.1875 C16.10587405 15.36676015 16.78498375 20.61238544 16.8125 27.6875 C16.82216797 28.48196533 16.83183594 29.27643066 16.84179688 30.0949707 C16.76523398 35.56865441 16.22827893 41.39534206 13.375 46.1875 C11.26733398 46.93554688 11.26733398 46.93554688 9.375 47.1875 C9.375 48.5075 9.375 49.8275 9.375 51.1875 C6.62421116 52.10442961 5.01551087 52.29636083 2.1875 52.25 C0.929375 52.229375 -0.32875 52.20875 -1.625 52.1875 C-2.02332031 51.23037109 -2.02332031 51.23037109 -2.4296875 50.25390625 C-2.78289062 49.42761719 -3.13609375 48.60132813 -3.5 47.75 C-3.84804687 46.92628906 -4.19609375 46.10257812 -4.5546875 45.25390625 C-5.4494937 43.03003285 -5.4494937 43.03003285 -7.625 42.1875 C-7.625 41.5275 -7.625 40.8675 -7.625 40.1875 C-8.615 40.1875 -9.605 40.1875 -10.625 40.1875 C-13.24679286 34.23644638 -12.9204138 28.31056945 -12.875 21.9375 C-12.88273438 20.83664063 -12.89046875 19.73578125 -12.8984375 18.6015625 C-12.89585937 17.55226562 -12.89328125 16.50296875 -12.890625 15.421875 C-12.88836914 14.46506836 -12.88611328 13.50826172 -12.88378906 12.52246094 C-12.625 10.1875 -12.625 10.1875 -10.625 8.1875 C-10.50125 7.1975 -10.3775 6.2075 -10.25 5.1875 C-9.625 2.1875 -9.625 2.1875 -7.9375 1.01171875 C-5.16649828 0.02408131 -2.93707138 -0.04354149 0 0 Z " fill="#FDF775" transform="translate(161.625,223.8125)"/>
<path d="M0 0 C5.86175115 4.27419355 5.86175115 4.27419355 6.5 7.625 C6 10 6 10 4 13 C4.7425 13.165 5.485 13.33 6.25 13.5 C10.23795727 15.67524942 11.62389218 18.75025526 13 23 C13.42734809 25.66397167 13.71849665 28.31445802 14 31 C14.94101563 30.31292969 15.88203125 29.62585938 16.8515625 28.91796875 C18.10920886 28.00758295 19.36703072 27.09743955 20.625 26.1875 C21.24246094 25.73568359 21.85992187 25.28386719 22.49609375 24.81835938 C32.72062094 17.44593714 32.72062094 17.44593714 39 18 C39 17.34 39 16.68 39 16 C52.787957 11.05198139 65.90600998 7.77626004 80.625 7.5 C81.57383057 7.4693042 82.52266113 7.4386084 83.50024414 7.40698242 C91.00228407 7.40496701 91.00228407 7.40496701 94.1484375 10.53125 C94.75945312 11.3459375 95.37046875 12.160625 96 13 C95.01 13.33 94.02 13.66 93 14 C92.67 14.99 92.34 15.98 92 17 C91.23445801 17.0501123 90.46891602 17.10022461 89.68017578 17.15185547 C86.16129295 17.38609356 82.64318265 17.63047901 79.125 17.875 C77.92101562 17.95363281 76.71703125 18.03226563 75.4765625 18.11328125 C54.42554316 19.60058153 32.05719576 25.40272474 17.4765625 41.703125 C16 43 16 43 13 43 C13.020625 43.804375 13.04125 44.60875 13.0625 45.4375 C13 48 13 48 12 49 C9 49.125 9 49.125 6 49 C5 48 5 48 4.875 45.5 C5 43 5 43 6 42 C7.66617115 41.95936168 9.33388095 41.957279 11 42 C11 41.01 11 40.02 11 39 C10.071875 38.814375 10.071875 38.814375 9.125 38.625 C7 38 7 38 5 36 C4.4054673 32.7322721 4.04363564 29.46272989 3.66015625 26.1640625 C2.97631865 22.88649766 2.00275235 21.57812871 0 19 C0.3125 15.25 0.3125 15.25 1 12 C-1.475 11.01 -1.475 11.01 -4 10 C-4 8.02 -4 6.04 -4 4 C-2.68 3.34 -1.36 2.68 0 2 C0 1.34 0 0.68 0 0 Z " fill="#755444" transform="translate(167,149)"/>
<path d="M0 0 C-1.50007617 3.11554281 -3.17999858 6.0599977 -5 9 C-5.61875 10.093125 -6.2375 11.18625 -6.875 12.3125 C-9 15 -9 15 -11.75 15.375 C-12.4925 15.25125 -13.235 15.1275 -14 15 C-14.103125 16.19625 -14.20625 17.3925 -14.3125 18.625 C-14.75888975 22.80005712 -15.60817344 26.78760132 -16.5625 30.875 C-19.07717111 40.99615075 -19.07717111 40.99615075 -16.98046875 50.8359375 C-15.52441358 52.62031607 -15.52441358 52.62031607 -13 55 C-12.505 55.86625 -12.01 56.7325 -11.5 57.625 C-9.72855731 60.42978425 -7.66347968 62.05637969 -5 64 C-5.875 68.875 -5.875 68.875 -7 70 C-13.26045488 70.47248716 -13.26045488 70.47248716 -16.25 68.5625 C-16.8275 68.046875 -17.405 67.53125 -18 67 C-27.10816067 63.96394644 -36.46459624 66.26651116 -45 70 C-50.33972531 72.60672725 -50.33972531 72.60672725 -54 77 C-55.65 77 -57.3 77 -59 77 C-59 76.34 -59 75.68 -59 75 C-59.99 74.67 -60.98 74.34 -62 74 C-60.66445826 68.3239476 -56.69269842 65.92332033 -52 63 C-44.52428872 58.65310079 -37.55717627 57.21900267 -29.08984375 56.359375 C-26.09352916 56.18880049 -26.09352916 56.18880049 -24 55 C-24.32226562 54.48824219 -24.64453125 53.97648437 -24.9765625 53.44921875 C-28.38113524 45.30163437 -26.15018796 34.12446473 -24.25 25.75 C-24.09321777 25.03561768 -23.93643555 24.32123535 -23.77490234 23.58520508 C-22.3020031 17.69007766 -19.92822891 15.28548594 -15 12 C-14.71125 11.236875 -14.4225 10.47375 -14.125 9.6875 C-12.19941882 5.0875005 -9.39183967 2.57311045 -4.8125 0.6875 C-2 0 -2 0 0 0 Z " fill="#795A48" transform="translate(130,158)"/>
<path d="M0 0 C21.98385688 1.41745063 21.98385688 1.41745063 27.5859375 7.01953125 C28.2734375 10.26953125 28.2734375 10.26953125 27.5859375 14.01953125 C21.86595139 19.18360861 14.21884371 22.34297461 7.3359375 25.64453125 C-3.56830412 30.87856723 -11.84749386 35.98452658 -16.11621094 47.99511719 C-17.42514699 52.28899216 -18.46128621 56.63439319 -19.4140625 61.01953125 C-22.7890625 61.20703125 -22.7890625 61.20703125 -26.4140625 61.01953125 C-28.66377441 57.64496339 -28.57937459 56.27097452 -27.93359375 52.375 C-25.38467246 40.81861247 -19.69013414 30.84309621 -10.2578125 23.59375 C6.46976518 13.01953125 6.46976518 13.01953125 12.5859375 13.01953125 C12.5859375 12.35953125 12.5859375 11.69953125 12.5859375 11.01953125 C11.23048828 10.83777344 11.23048828 10.83777344 9.84765625 10.65234375 C8.07841797 10.40097656 8.07841797 10.40097656 6.2734375 10.14453125 C5.10167969 9.98210937 3.92992187 9.8196875 2.72265625 9.65234375 C-0.4140625 9.01953125 -0.4140625 9.01953125 -3.4140625 7.01953125 C-3.6640625 3.95703125 -3.6640625 3.95703125 -3.4140625 1.01953125 C-2.4140625 0.01953125 -2.4140625 0.01953125 0 0 Z " fill="#735344" transform="translate(271.4140625,160.98046875)"/>
<path d="M0 0 C2.3125 0.375 2.3125 0.375 3.3125 1.375 C4.01329345 6.70103019 2.18800707 10.91940125 0.28515625 15.7890625 C-0.53942654 17.98132678 -1.17859964 20.09298364 -1.6875 22.375 C-0.0375 22.705 1.6125 23.035 3.3125 23.375 C3.3125 24.035 3.3125 24.695 3.3125 25.375 C3.910625 25.41625 4.50875 25.4575 5.125 25.5 C7.3125 26.375 7.3125 26.375 8.9375 28.875 C11.83878674 36.26009352 12.5991905 43.46438237 13.06640625 51.359375 C13.24911641 54.34122369 13.24911641 54.34122369 13.8671875 57.08984375 C14.39235142 59.78476386 13.99076799 61.73729114 13.3125 64.375 C14.9625 65.035 16.6125 65.695 18.3125 66.375 C18.3125 66.705 18.3125 67.035 18.3125 67.375 C17.508125 67.49875 16.70375 67.6225 15.875 67.75 C14.6065625 68.059375 14.6065625 68.059375 13.3125 68.375 C12.9825 69.035 12.6525 69.695 12.3125 70.375 C10.25 71.5 10.25 71.5 8.3125 72.375 C9.3025 73.365 9.3025 73.365 10.3125 74.375 C8.3325 74.87 8.3325 74.87 6.3125 75.375 C5.9825 77.025 5.6525 78.675 5.3125 80.375 C4.6525 79.385 3.9925 78.395 3.3125 77.375 C1.8275 77.87 1.8275 77.87 0.3125 78.375 C-1.39382648 78.46767588 -3.10366587 78.50498202 -4.8125 78.5 C-5.70195312 78.50257813 -6.59140625 78.50515625 -7.5078125 78.5078125 C-9.6875 78.375 -9.6875 78.375 -10.6875 77.375 C-11.55375 77.54 -12.42 77.705 -13.3125 77.875 C-17.23176558 77.29436806 -17.84644545 76.6597167 -20.375 73.75 C-27.97560978 62.97125913 -27.86808947 47.92704211 -26.30078125 35.24609375 C-25.5782146 31.27486744 -24.95453637 28.77555455 -22.6875 25.375 C-19.5625 25.1875 -19.5625 25.1875 -16.6875 25.375 C-16.3575 24.385 -16.0275 23.395 -15.6875 22.375 C-13.7075 22.045 -11.7275 21.715 -9.6875 21.375 C-9.6875 18.405 -9.6875 15.435 -9.6875 12.375 C-9.0275 12.375 -8.3675 12.375 -7.6875 12.375 C-7.605 11.323125 -7.5225 10.27125 -7.4375 9.1875 C-6.49517409 4.39734327 -5.2211443 0.72853176 0 0 Z M-14.6875 26.375 C-15.91719878 29.88690809 -15.91719878 29.88690809 -16.6875 33.375 C-17.0175 33.705 -17.3475 34.035 -17.6875 34.375 C-17.94181324 38.26406915 -17.87273597 42.16611068 -17.875 46.0625 C-17.88724609 47.15240234 -17.89949219 48.24230469 -17.91210938 49.36523438 C-17.92192907 54.74315364 -17.90794365 59.36364299 -15.6875 64.375 C-14.6975 64.375 -13.7075 64.375 -12.6875 64.375 C-12.6875 65.035 -12.6875 65.695 -12.6875 66.375 C-11.6975 67.035 -10.7075 67.695 -9.6875 68.375 C-8.73828125 70.3203125 -8.73828125 70.3203125 -8 72.5 C-7.74863281 73.22445312 -7.49726563 73.94890625 -7.23828125 74.6953125 C-7.05652344 75.24960937 -6.87476563 75.80390625 -6.6875 76.375 C-5.429375 76.395625 -4.17125 76.41625 -2.875 76.4375 C-2.16730469 76.44910156 -1.45960938 76.46070313 -0.73046875 76.47265625 C1.51555461 76.45763217 1.51555461 76.45763217 4.3125 75.375 C4.3125 74.055 4.3125 72.735 4.3125 71.375 C5.09625 71.21 5.88 71.045 6.6875 70.875 C9.6897543 69.54944041 9.6897543 69.54944041 10.453125 65.87109375 C11.47703253 61.22444931 11.695121 56.68395249 11.6875 51.9375 C11.68878906 51.10436279 11.69007813 50.27122559 11.69140625 49.4128418 C11.5843318 43.20556557 10.56265553 38.7580701 7.3125 33.375 C6.6525 33.375 5.9925 33.375 5.3125 33.375 C5.3125 31.725 5.3125 30.075 5.3125 28.375 C4.3225 28.045 3.3325 27.715 2.3125 27.375 C2.3125 26.715 2.3125 26.055 2.3125 25.375 C-0.260829 24.0883355 -2.18973038 24.20675449 -5.0625 24.1875 C-6.01898438 24.17332031 -6.97546875 24.15914062 -7.9609375 24.14453125 C-10.78226068 24.38300986 -12.37792524 24.75148939 -14.6875 26.375 Z " fill="#FBF999" transform="translate(166.6875,199.625)"/>
<path d="M0 0 C1 1 1 1 1.0625 4.5625 C1.041875 5.696875 1.02125 6.83125 1 8 C-7.90650345 12.14772718 -15.35937228 12.46837058 -25 12 C-17.84606728 24.05212089 -11.07039691 30.78195233 0.99609375 37.80078125 C3 39 3 39 4 40 C4.14115161 42.67058851 4.04247107 45.32432238 4 48 C-0.97373118 48.39876854 -3.22170476 47.62425911 -7.125 44.5625 C-8.07117188 43.82773437 -9.01734375 43.09296875 -9.9921875 42.3359375 C-10.98476563 41.56507813 -11.97734375 40.79421875 -13 40 C-14.03382812 39.29101562 -15.06765625 38.58203125 -16.1328125 37.8515625 C-23.46395659 32.76202137 -27.70577802 27.75800918 -32 20 C-33.14572753 18.22909821 -34.29155643 16.458262 -35.4375 14.6875 C-37.63629887 10.99938136 -38.87683164 8.38415822 -38 4 C-36 2 -36 2 -34.11157227 1.91235352 C-33.35416748 1.98381592 -32.5967627 2.05527832 -31.81640625 2.12890625 C-30.97601807 2.19601807 -30.13562988 2.26312988 -29.26977539 2.33227539 C-27.92967407 2.44623657 -27.92967407 2.44623657 -26.5625 2.5625 C-19.63835257 3.04973429 -13.81012389 3.12299444 -7.19140625 0.69140625 C-4.67746182 -0.10176338 -2.62129227 -0.18434474 0 0 Z " fill="#6D4D3E" transform="translate(54,241)"/>
<path d="M0 0 C3.26094246 1.67883267 5.42774473 3.89692864 7.1328125 7.18359375 C17.28461664 40.15409279 -8.42402452 89.11090684 -20.00512695 120.05078125 C-20.29218506 120.81777344 -20.57924316 121.58476562 -20.875 122.375 C-21.14852295 123.10460937 -21.4220459 123.83421875 -21.70385742 124.5859375 C-24.54228538 132.26937391 -26.80821976 140.11161123 -29 148 C-29.66 148 -30.32 148 -31 148 C-30.45385842 140.9001594 -28.36330187 134.6885902 -26 128 C-25.68933594 127.05382812 -25.37867188 126.10765625 -25.05859375 125.1328125 C-23.43199288 120.31903428 -21.61137427 115.58330261 -19.78125 110.84375 C-12.05153313 90.67107426 -4.84497899 70.30016809 0.5625 49.375 C0.88460449 48.1387085 1.20670898 46.90241699 1.53857422 45.62866211 C7.21467215 25.09432454 7.21467215 25.09432454 3 5 C-0.12151266 2.05685949 -1.68007733 2 -6 2 C-10.35373151 2.79233012 -12.29726518 4.42070254 -15 8 C-19.64004421 15.77455755 -21.91174797 24.03682222 -24.125 32.75 C-24.45886719 34.0184375 -24.79273438 35.286875 -25.13671875 36.59375 C-27.67706034 46.35663139 -29.82694954 56.17796684 -31.82128906 66.06494141 C-35.26673309 83.14467453 -38.92914879 99.99247565 -44.375 116.5625 C-44.70010056 117.55260574 -44.70010056 117.55260574 -45.0317688 118.56271362 C-48.72491212 129.72286037 -48.72491212 129.72286037 -51 134 C-51.66 133.67 -52.32 133.34 -53 133 C-52.59273682 131.78775757 -52.59273682 131.78775757 -52.17724609 130.55102539 C-44.75175094 108.32638955 -38.9323205 86.10261738 -34.03613281 63.18066406 C-32.31174626 55.21252714 -30.42018379 47.28913612 -28.46282959 39.3755188 C-28.11810165 37.98072639 -27.77530357 36.58545529 -27.43463135 35.18966675 C-21.05176588 9.09882454 -21.05176588 9.09882454 -11.6875 1 C-7.71816622 -0.47696141 -4.17291796 -0.78609546 0 0 Z " fill="#100000" transform="translate(234,18)"/>
<path d="M0 0 C5.11548303 0.28955564 8.76608977 1.22504716 13.375 3.5 C18.76132761 6.04987133 23.07648743 6.90063785 29 7 C29.71269043 7.01369629 30.42538086 7.02739258 31.15966797 7.04150391 C40.35654315 7.77992874 40.35654315 7.77992874 49 6 C52.0625 5.875 52.0625 5.875 55 6 C56 7 56 7 56.0625 9.5625 C56.041875 10.366875 56.02125 11.17125 56 12 C56.99 12.495 56.99 12.495 58 13 C45.53968804 19.40162816 29.77247227 18.4012581 16.4765625 15.1328125 C9.76046054 12.94441973 3.37601761 10.02239796 -3 7 C-3.13277344 7.75667969 -3.26554688 8.51335937 -3.40234375 9.29296875 C-4.11323819 12.51290239 -5.45023404 15.10261147 -7 18 C-7.66 17.01 -8.32 16.02 -9 15 C-8.54625 14.278125 -8.0925 13.55625 -7.625 12.8125 C-6.14505642 10.25105919 -5.02782461 7.76722011 -4 5 C-3.01 5 -2.02 5 -1 5 C-0.67 3.35 -0.34 1.7 0 0 Z " fill="#755645" transform="translate(192,319)"/>
<path d="M0 0 C2.5 -0.3125 2.5 -0.3125 5 0 C7 2 7 2 7.1875 5.0625 C7 8 7 8 6 9 C5.68856888 12.82480377 5.72134618 16.66409994 5.6875 20.5 C5.65849609 21.56476563 5.62949219 22.62953125 5.59960938 23.7265625 C5.53188922 32.20720974 7.32196375 37.98294563 12 45 C12.1875 47.625 12.1875 47.625 12 50 C11 51 11 51 8.3125 51.5625 C4.66891749 50.94377844 4.11376184 50.57322951 1.8125 47.875 C-5.65091609 36.70925939 -5.46143063 20.02852275 -3.125 7.1875 C-2.45422193 4.0944678 -1.82143224 2.73214836 0 0 Z " fill="#7E5F49" transform="translate(144,225)"/>
<path d="M0 0 C0.99 0.33 1.98 0.66 3 1 C2.59405385 4.89639563 2.18502045 8.79245387 1.77319336 12.68823242 C1.56527943 14.66112603 1.3597718 16.63427275 1.15429688 18.60742188 C0.95610352 20.47817383 0.95610352 20.47817383 0.75390625 22.38671875 C0.63345947 23.53358154 0.5130127 24.68044434 0.38891602 25.86206055 C0.04743531 28.61727179 -0.44438803 31.28246691 -1 34 C-1.10038632 35.95753326 -1.18160905 37.91608791 -1.25 39.875 C-1.70395115 46.67706167 -2.89649446 53.21000838 -4.3125 59.875 C-4.51327148 60.84937012 -4.71404297 61.82374023 -4.92089844 62.82763672 C-8.28259637 78.04909222 -17.02070346 88.99143136 -29.9453125 97.4765625 C-36.41966458 100.70545932 -42.46993379 101.35573678 -49.625 100.9375 C-50.34945312 100.92267578 -51.07390625 100.90785156 -51.8203125 100.89257812 C-57.44077526 100.59220919 -60.14165646 99.12766646 -64 95 C-65.94628147 90.68989572 -66.55292455 86.52867375 -64.9375 82.0625 C-61.54594797 78.45213816 -59.33870219 77.09075947 -54.3125 76.75 C-49.52520422 76.93307058 -44.7577392 77.45402993 -40 78 C-35.33030922 72.12953159 -32.7408596 65.9470249 -30 59 C-29.505 58.01 -29.505 58.01 -29 57 C-26.39660459 42.7507818 -25.53987393 28.45136679 -26 14 C-25.34 14 -24.68 14 -24 14 C-21.21179838 23.42142323 -23.08258287 34.17271314 -24.25 43.75 C-24.35924805 44.70753174 -24.46849609 45.66506348 -24.58105469 46.65161133 C-25.4520067 53.28261931 -27.31199738 58.89804757 -30 65 C-30.4434375 66.15371094 -30.886875 67.30742187 -31.34375 68.49609375 C-31.7253125 69.46675781 -32.106875 70.43742187 -32.5 71.4375 C-33.07234375 72.92056641 -33.07234375 72.92056641 -33.65625 74.43359375 C-35.15480123 77.29565235 -36.26776616 78.32835206 -39 80 C-41.2265625 80.27709961 -41.2265625 80.27709961 -43.625 80.15234375 C-44.49640625 80.12462891 -45.3678125 80.09691406 -46.265625 80.06835938 C-48.08873235 79.98111067 -49.9116573 79.88996358 -51.734375 79.79492188 C-56.97909848 79.56736219 -56.97909848 79.56736219 -61.62890625 81.72265625 C-63.64723385 85.07503515 -63.15895488 87.13995386 -62.55078125 90.875 C-61.86652995 93.51494828 -61.00999144 95.14462328 -59 97 C-51.66720508 99.44426497 -41.41614936 99.29408844 -34.02734375 97.12890625 C-31.78975022 95.92526246 -29.94546491 94.6308791 -28 93 C-26.99839844 92.23816406 -26.99839844 92.23816406 -25.9765625 91.4609375 C-10.81727908 79.20573136 -6.67025373 63.54772294 -4 45 C-3.5405594 40.4418191 -3.32280322 35.88599049 -3.17578125 31.30859375 C-3 28 -3 28 -2 25 C-1.78391654 23.08330242 -1.6112858 21.16155357 -1.46484375 19.23828125 C-1.37783203 18.12001953 -1.29082031 17.00175781 -1.20117188 15.84960938 C-1.11416016 14.68236328 -1.02714844 13.51511719 -0.9375 12.3125 C-0.84662109 11.13365234 -0.75574219 9.95480469 -0.66210938 8.74023438 C-0.4380194 5.82706468 -0.21745704 2.9136711 0 0 Z " fill="#100000" transform="translate(164,357)"/>
<path d="M0 0 C5.01399489 1.1490405 7.0352281 4.34926801 9.9375 8.375 C11.48367419 13.19542542 10.30153167 16.89515506 9 21.6875 C7.25899959 28.10743902 6.33278654 34.42360674 5.5 41.02734375 C5.1024682 43.93740077 4.62095934 46.75791429 4 49.625 C2.98786466 54.41106631 2.39011445 59.21838644 1.81811523 64.07495117 C1.37845673 67.76900646 0.89590449 71.44676738 0.3125 75.12109375 C-1.79675611 88.56794977 -2.94131662 102.03093726 -3.90991211 115.60058594 C-4.02456307 117.12044375 -4.1392272 118.64030056 -4.25390625 120.16015625 C-4.29967804 120.86034378 -4.34544983 121.56053131 -4.39260864 122.28193665 C-4.6668957 125.84187974 -5.09505077 128.63128824 -7 131.6875 C-7.02730494 129.50007121 -7.04653255 127.31254093 -7.0625 125.125 C-7.07410156 123.90683594 -7.08570313 122.68867188 -7.09765625 121.43359375 C-7.00202348 117.7651206 -6.53246914 114.3146958 -6 110.6875 C-5.85259423 107.99870951 -5.72948568 105.31520263 -5.625 102.625 C-5.28196509 95.27703637 -4.50192085 88.03642436 -3.5 80.75 C-3.36932129 79.79665771 -3.23864258 78.84331543 -3.10400391 77.86108398 C-2.60032504 74.3299057 -2.13060207 71.07930622 -1 67.6875 C-0.65886716 65.18777031 -0.34798045 62.69351304 -0.0625 60.1875 C0.50097414 55.42066898 1.12988522 50.71179256 2.0625 46 C2.83433501 42.06423062 3.17095555 38.25496542 3.375 34.25 C3.6619044 29.59883824 4.50490144 25.80399851 6.125 21.4375 C8.14160787 15.98250317 8.13475994 12.36129971 7 6.6875 C6.34 6.6875 5.68 6.6875 5 6.6875 C3.62689293 5.39516393 2.28965176 4.06312854 1 2.6875 C-2.51284323 3.63789252 -3.78811172 4.37056541 -5.84375 7.4453125 C-6.3903125 8.55648438 -6.936875 9.66765625 -7.5 10.8125 C-9.42060817 14.61205455 -11.30034997 18.28686303 -13.6875 21.8125 C-16.65250106 26.43984592 -18.33321203 31.47714706 -20 36.6875 C-20.23485107 37.4182373 -20.46970215 38.14897461 -20.71166992 38.90185547 C-22.58327008 44.89968381 -23.94291668 50.88361355 -25.0625 57.0625 C-25.23168945 57.97281982 -25.40087891 58.88313965 -25.57519531 59.82104492 C-26.79533521 66.43013602 -27.95531024 73.04822169 -29 79.6875 C-29.66 79.6875 -30.32 79.6875 -31 79.6875 C-29.09064558 58.2001383 -25.17832491 35.38276301 -14 16.6875 C-13.49082031 15.79804687 -12.98164063 14.90859375 -12.45703125 13.9921875 C-4.99824253 1.14543058 -4.99824253 1.14543058 0 0 Z " fill="#0F0000" transform="translate(187,16.3125)"/>
<path d="M0 0 C0.144375 0.7425 0.28875 1.485 0.4375 2.25 C0.90199226 4.52085106 1.42905436 6.75460033 2 9 C-9.62602761 13.4025031 -19.48577695 16.00945097 -32 15 C-32.99 14.34 -33.98 13.68 -35 13 C-36.010625 13 -37.02125 13 -38.0625 13 C-39.031875 13 -40.00125 13 -41 13 C-41.66 12.34 -42.32 11.68 -43 11 C-42.625 8.375 -42.625 8.375 -42 6 C-40.35 5.67 -38.7 5.34 -37 5 C-36.34 6.32 -35.68 7.64 -35 9 C-34.01 8.34 -33.02 7.68 -32 7 C-30.08984375 6.56103516 -30.08984375 6.56103516 -27.9375 6.2890625 C-27.14529053 6.18053955 -26.35308105 6.0720166 -25.53686523 5.96020508 C-24.69969971 5.8495874 -23.86253418 5.73896973 -23 5.625 C-16.30376816 4.66948096 -10.2140197 3.38555891 -3.93359375 0.76953125 C-2 0 -2 0 0 0 Z " fill="#7D6049" transform="translate(222,253)"/>
<path d="M0 0 C0.495 0.99 0.495 0.99 1 2 C-1.31 2.66 -3.62 3.32 -6 4 C-6 4.99 -6 5.98 -6 7 C-4.35 7 -2.7 7 -1 7 C-0.505 7.99 -0.505 7.99 0 9 C-0.89460938 9.15855469 -1.78921875 9.31710938 -2.7109375 9.48046875 C-11.33286815 11.14418884 -19.91264872 12.91264872 -26.3125 19.3125 C-28 21 -28 21 -30.75 21.25 C-31.4925 21.1675 -32.235 21.085 -33 21 C-33 20.34 -33 19.68 -33 19 C-33.99 18.67 -34.98 18.34 -36 18 C-34.66445826 12.3239476 -30.69269842 9.92332033 -26 7 C-17.58973731 2.10968751 -9.54254771 0.86282145 0 0 Z " fill="#705243" transform="translate(104,214)"/>
<path d="M0 0 C0.66 0.66 1.32 1.32 2 2 C-3.04386355 7.78729016 -8.10458675 13.08715563 -14 18 C-14.33 18.66 -14.66 19.32 -15 20 C-16.65715202 20.68997784 -18.32631292 21.35115967 -20 22 C-23.36965237 23.83984651 -26.7050208 25.73318693 -30.0390625 27.63671875 C-33 29 -33 29 -36 28 C-35.6875 26.0625 -35.6875 26.0625 -35 24 C-34.01 23.67 -33.02 23.34 -32 23 C-32.33 22.34 -32.66 21.68 -33 21 C-34.98 21 -36.96 21 -39 21 C-36.61223319 18.31277729 -34.13555845 16.91843151 -30.9375 15.3125 C-25.04134696 12.19146965 -20.05841087 8.32324053 -15 4 C-14.67 5.32 -14.34 6.64 -14 8 C-15.32 8.99 -16.64 9.98 -18 11 C-17.67 11.66 -17.34 12.32 -17 13 C-17.66 13 -18.32 13 -19 13 C-18.01 14.485 -18.01 14.485 -17 16 C-10.6157725 11.17008141 -5.02026652 6.25039805 0 0 Z " fill="#80604C" transform="translate(182,336)"/>
<path d="M0 0 C0.66 0.33 1.32 0.66 2 1 C1.56357178 1.40959961 1.12714355 1.81919922 0.67749023 2.24121094 C-3.80882674 6.57048559 -7.43647148 11.10466425 -10.9375 16.25 C-11.97610762 17.74640957 -13.0151711 19.24250284 -14.0546875 20.73828125 C-14.80443848 21.82423584 -14.80443848 21.82423584 -15.56933594 22.93212891 C-17.54315468 25.7850717 -19.5428756 28.61673307 -21.5625 31.4375 C-22.16191406 32.28183594 -22.76132813 33.12617188 -23.37890625 33.99609375 C-25 36 -25 36 -28 38 C-29.49517438 40.8563985 -30.83869238 43.73031887 -32.13085938 46.68164062 C-34.33114128 51.39796243 -36.69110765 54.02968525 -41 57 C-44.17231977 58.0247356 -46.78738538 57.85742079 -50 57 C-55.14253304 53.87519694 -59.04226347 49.75085105 -61 44 C-61.42296498 40.54578597 -61.24539823 38.57259588 -59.875 35.375 C-58 33 -58 33 -55.19140625 31.25 C-51.70355053 28.79099768 -49.45003251 26.09102194 -47.0625 22.625 C-46.42562256 21.71983643 -46.42562256 21.71983643 -45.77587891 20.79638672 C-41.48488004 14.53537781 -38.16240765 7.89027892 -35 1 C-34.34 1.33 -33.68 1.66 -33 2 C-36.07901981 13.70027528 -45.11265265 26.40755224 -54.5625 33.75 C-56.5935353 35.43099716 -57.7929901 36.43844276 -58.70703125 38.91796875 C-59.13537214 44.06802086 -56.87204276 47.51596659 -53.64453125 51.36328125 C-51.50902885 53.48863875 -49.98492418 54.47763827 -47 55 C-43.32378982 54.92341229 -41.48221492 54.34960582 -38.5 52.1875 C-35.29218113 48.68151847 -33.55162706 44.22862391 -31.625 39.9375 C-29.80779135 36.6525459 -27.65549795 34.647812 -25 32 C-22.82618657 29.05330747 -20.82847953 25.99358625 -18.8125 22.9375 C-5.13760201 2.568801 -5.13760201 2.568801 0 0 Z " fill="#0F0000" transform="translate(118,378)"/>
<path d="M0 0 C2.02060558 1.81854502 3.27296089 3.45493482 4.6875 5.8125 C9.33368392 12.21669946 16.24924597 15.87627895 22.99609375 19.80078125 C25 21 25 21 26 22 C26.14115161 24.67058851 26.04247107 27.32432238 26 30 C19.70302233 28.50861055 15.13022228 24.73842696 10 21 C9.28585938 20.52820313 8.57171875 20.05640625 7.8359375 19.5703125 C3.10745931 16.43745246 3.10745931 16.43745246 2.50390625 13.98046875 C2.1352152 11.6065582 2.1352152 11.6065582 -1 10 C-1.27028374 6.28359861 -1.180933 3.542799 0 0 Z " fill="#795A48" transform="translate(32,259)"/>
<path d="M0 0 C0.66 0.33 1.32 0.66 2 1 C-0.9360991 7.14343137 -4.30330975 12.61303433 -8.20117188 18.1796875 C-11.10145026 22.41131469 -13.45688281 26.74793789 -15.70288086 31.35839844 C-21.40604592 42.97297513 -27.42908206 54.57311786 -35.390625 64.8046875 C-36.97623624 66.96758439 -38.1195194 69.07381471 -39.25 71.5 C-40.89371088 74.78742176 -41.80297493 76.29491996 -45 78 C-45.66 78 -46.32 78 -47 78 C-52.37755618 98.10291894 -52.37755618 98.10291894 -49 118 C-49.99 117.67 -50.98 117.34 -52 117 C-57.25764193 106.48471614 -53.35892156 91.71185894 -50.0859375 81.01171875 C-49.21656904 78.79588939 -48.41604101 76.91116024 -47 75 C-44.25 73.9375 -44.25 73.9375 -42 74 C-41.92007813 73.30003906 -41.84015625 72.60007812 -41.7578125 71.87890625 C-40.82314864 68.32814717 -38.99717895 65.85966046 -36.875 62.9375 C-31.7875776 55.64937054 -27.62831017 47.91752467 -23.5 40.0625 C-18.07124026 29.74875629 -12.33048826 19.78455355 -6 10 C-3.97405779 6.68185723 -1.97887612 3.34639214 0 0 Z " fill="#543025" transform="translate(156,96)"/>
<path d="M0 0 C0.58394531 0.29648437 1.16789062 0.59296875 1.76953125 0.8984375 C10.10893941 5.01702437 17.34646121 5.24801975 26.5 5.0078125 C27.655 5.00523437 28.81 5.00265625 30 5 C30.495 5.495 30.495 5.495 31 6 C30.93301453 8.31872786 30.63299334 10.59060511 30.36328125 12.89453125 C30.11546763 15.01293799 29.90611773 17.13611151 29.73046875 19.26171875 C28.94046847 27.15304027 27.19771419 34.34678635 24.75 41.875 C24.47462402 42.74229736 24.19924805 43.60959473 23.91552734 44.50317383 C19.89420906 56.31508991 12.64211095 65.9495626 1.50390625 71.76171875 C1.00761719 72.17035156 0.51132813 72.57898438 0 73 C0 74.32 0 75.64 0 77 C6.66356418 80.49043838 13.59650491 81.12718851 21 82 C21 82.33 21 82.66 21 83 C12.84392927 83.50449922 6.26494456 82.9653283 -1 79 C-1.66 78.34 -2.32 77.68 -3 77 C-2.98046875 74.6484375 -2.98046875 74.6484375 -2 72 C0.51171875 69.7890625 0.51171875 69.7890625 3.6875 67.625 C19.45225729 56.38799797 23.56755256 39.8587968 26.70092773 21.45581055 C27.49457213 16.64136392 28.26055139 11.82305948 29 7 C28.27337158 7.08016357 27.54674316 7.16032715 26.7980957 7.24291992 C18.68270853 8.07261885 10.54759683 8.57060466 3.375 4 C1 2 1 2 0 0 Z " fill="#513126" transform="translate(72,296)"/>
<path d="M0 0 C2.2326192 4.4652384 2.68015611 9.86328316 1.171875 14.6015625 C0.4375043 16.27199725 -0.31104633 17.93627589 -1.07421875 19.59375 C-2.46360591 23.20498415 -2.28346413 26.17323424 -2 30 C-5.375 30.1875 -5.375 30.1875 -9 30 C-11.2459247 26.63111295 -11.15738752 25.26573343 -10.53515625 21.375 C-8.66733653 13.0856979 -5.53859887 6.44323668 0 0 Z " fill="#7E6049" transform="translate(254,192)"/>
<path d="M0 0 C2.64 0.33 5.28 0.66 8 1 C7.58894145 6.24099655 6.75960806 9.24039194 3 13 C2.34 13 1.68 13 1 13 C1.3403125 14.1446875 1.3403125 14.1446875 1.6875 15.3125 C2 18 2 18 1.0625 19.75 C-1.17052696 21.10334967 -2.49820788 21.28742139 -5.0625 21.5625 C-9.00162681 21.58516344 -9.00162681 21.58516344 -11 24 C-12.32 24 -13.64 24 -15 24 C-15 24.66 -15 25.32 -15 26 C-16.32 25.67 -17.64 25.34 -19 25 C-18.48050781 24.62488281 -17.96101562 24.24976563 -17.42578125 23.86328125 C-14.11000516 21.43007772 -11.16060793 19.17590392 -8.375 16.125 C-6 14 -6 14 -2.6875 13.6875 C-1.3571875 13.8421875 -1.3571875 13.8421875 0 14 C-0.515625 13.484375 -1.03125 12.96875 -1.5625 12.4375 C-3.60364008 8.97643639 -2.90439578 6.82628983 -2 3 C-1.34 2.01 -0.68 1.02 0 0 Z " fill="#7E644B" transform="translate(241,227)"/>
<path d="M0 0 C0.33 0.99 0.66 1.98 1 3 C0.360625 3.391875 -0.27875 3.78375 -0.9375 4.1875 C-3.24937952 5.82310342 -3.24937952 5.82310342 -3.35546875 8.484375 C-4 11 -4 11 -5.8984375 12.22265625 C-6.71570313 12.49980469 -7.53296875 12.77695312 -8.375 13.0625 C-9.27089844 13.37703125 -10.16679687 13.6915625 -11.08984375 14.015625 C-12.05019531 14.34046875 -13.01054687 14.6653125 -14 15 C-15.48693359 15.58007812 -15.48693359 15.58007812 -17.00390625 16.171875 C-24.61105562 19.12964813 -24.61105562 19.12964813 -28 18 C-25.03 16.68 -22.06 15.36 -19 14 C-19.7763932 10.9254644 -19.7763932 10.9254644 -22 9 C-21.01 8.67 -20.02 8.34 -19 8 C-18.55398437 7.53980469 -18.10796875 7.07960938 -17.6484375 6.60546875 C-15.5202784 4.53278299 -13.32295078 3.54320905 -10.625 2.3125 C-9.68914062 1.87550781 -8.75328125 1.43851562 -7.7890625 0.98828125 C-4.97891346 -0.00747184 -2.9525594 -0.19862672 0 0 Z " fill="#7E5C4A" transform="translate(150,356)"/>
<path d="M0 0 C1 1 1 1 1.21484375 3.63671875 C0.97096534 7.45452448 -0.00895505 10.27148915 -1.4375 13.8125 C-1.88996094 14.95332031 -2.34242188 16.09414062 -2.80859375 17.26953125 C-4 20 -4 20 -5 21 C-7.5 21.125 -7.5 21.125 -10 21 C-11 20 -11 20 -11.25 16.5 C-11.18247951 11.14658966 -10.02862817 5.45744389 -6.55859375 1.25390625 C-4.35388952 -0.51980317 -2.74593283 -0.28904556 0 0 Z " fill="#7A5E46" transform="translate(169,200)"/>
<path d="M0 0 C1.65 0.33 3.3 0.66 5 1 C5.04254356 2.99954746 5.04080783 5.00041636 5 7 C4.67 7.33 4.34 7.66 4 8 C2.83992147 13.97886625 2.8835349 19.86435044 2.9375 25.9375 C2.94201172 26.90751953 2.94652344 27.87753906 2.95117188 28.87695312 C2.9628685 31.2513676 2.97925914 33.62565021 3 36 C2.01 35.67 1.02 35.34 0 35 C-0.33 32.36 -0.66 29.72 -1 27 C-1.99 27.66 -2.98 28.32 -4 29 C-4.93619813 25.84493858 -5.1057123 23.03413498 -5.0625 19.75 C-5.05347656 18.85796875 -5.04445312 17.9659375 -5.03515625 17.046875 C-5.02355469 16.37140625 -5.01195312 15.6959375 -5 15 C-4.34 16.32 -3.68 17.64 -3 19 C-2.34 19 -1.68 19 -1 19 C-1 16.03 -1 13.06 -1 10 C-1.33 10.66 -1.66 11.32 -2 12 C-2.66 12 -3.32 12 -4 12 C-4.37096774 6.43548387 -4.37096774 6.43548387 -2.5625 4.3125 C-1.7890625 3.6628125 -1.7890625 3.6628125 -1 3 C-0.67 2.01 -0.34 1.02 0 0 Z " fill="#7A5C3B" transform="translate(146,226)"/>
<path d="M0 0 C0.41378906 0.95132812 0.41378906 0.95132812 0.8359375 1.921875 C2.3895534 4.69544432 4.04257982 5.06607784 7 6 C7 6.33 7 6.66 7 7 C6.195625 7.12375 5.39125 7.2475 4.5625 7.375 C3.716875 7.58125 2.87125 7.7875 2 8 C1.67 8.66 1.34 9.32 1 10 C-1.0625 11.125 -1.0625 11.125 -3 12 C-2.34 12.66 -1.68 13.32 -1 14 C-2.32 14.33 -3.64 14.66 -5 15 C-5.33 16.65 -5.66 18.3 -6 20 C-6.66 19.01 -7.32 18.02 -8 17 C-8.99 17.33 -9.98 17.66 -11 18 C-12.70632648 18.09267588 -14.41616587 18.12998202 -16.125 18.125 C-17.45917969 18.12886719 -17.45917969 18.12886719 -18.8203125 18.1328125 C-21 18 -21 18 -22 17 C-23.99958364 16.95919217 -26.00045254 16.95745644 -28 17 C-28 16.67 -28 16.34 -28 16 C-26.35 15.67 -24.7 15.34 -23 15 C-23.46800711 10.94393835 -23.87953208 7.53411321 -26 4 C-25.34 4 -24.68 4 -24 4 C-24 4.66 -24 5.32 -24 6 C-23.38125 6.185625 -22.7625 6.37125 -22.125 6.5625 C-18.94397134 8.71437233 -18.80548053 11.37533763 -18 15 C-14.37 15 -10.74 15 -7 15 C-7 13.68 -7 12.36 -7 11 C-6.37609375 10.76539063 -5.7521875 10.53078125 -5.109375 10.2890625 C-2.39744059 8.63176925 -2.11024003 7.3858401 -1.25 4.375 C-1.00765625 3.55773437 -0.7653125 2.74046875 -0.515625 1.8984375 C-0.34546875 1.27195312 -0.1753125 0.64546875 0 0 Z " fill="#F3EB91" transform="translate(178,260)"/>
<path d="M0 0 C13.31822677 1.90942319 25.82861577 15.00635873 34 25 C41.2311672 33.80249678 49.09615451 39.77382756 59.28515625 44.859375 C61 46 61 46 62 49 C61.34 49 60.68 49 60 49 C59.56558594 48.5565625 59.13117188 48.113125 58.68359375 47.65625 C56.65281517 45.6584539 54.62736008 44.73535111 52.0625 43.5 C42.04656124 38.1546377 34.62357477 29.80776398 27.1875 21.40234375 C19.99470201 13.50311025 12.13666945 7.99368802 2.9296875 2.75 C1.96289062 2.1725 0.99609375 1.595 0 1 C0 0.67 0 0.34 0 0 Z " fill="#54372B" transform="translate(231,259)"/>
<path d="M0 0 C0.66 0.33 1.32 0.66 2 1 C2 1.66 2 2.32 2 3 C3.98 2.67 5.96 2.34 8 2 C3.61251614 7.6249793 -0.91132843 11.30620592 -7 15 C-7.66 13.02 -8.32 11.04 -9 9 C-6 6 -3 3 0 0 Z " fill="#775746" transform="translate(171,338)"/>
<path d="M0 0 C0.66 0.66 1.32 1.32 2 2 C-3.04386355 7.78729016 -8.10458675 13.08715563 -14 18 C-14.33 18.66 -14.66 19.32 -15 20 C-16.65532216 20.69435637 -18.32459336 21.35561283 -20 22 C-22.88428697 23.5757861 -25.72850995 25.21119587 -28.57421875 26.85546875 C-29.37472656 27.23316406 -30.17523438 27.61085938 -31 28 C-31.66 27.67 -32.32 27.34 -33 27 C-32.14019531 26.47792969 -31.28039062 25.95585937 -30.39453125 25.41796875 C-19.050623 18.40401864 -8.25667968 10.61573102 0 0 Z " fill="#947C5D" transform="translate(182,336)"/>
<path d="M0 0 C3.0625 0.1875 3.0625 0.1875 5.0625 2.1875 C5.1875 4.8125 5.1875 4.8125 5.0625 7.1875 C2.35370665 8.54189668 0.05316732 8.25251451 -2.9375 8.1875 C-3.2675 9.1775 -3.5975 10.1675 -3.9375 11.1875 C-3.9375 9.8675 -3.9375 8.5475 -3.9375 7.1875 C-7.5675 7.5175 -11.1975 7.8475 -14.9375 8.1875 C-11.93132731 5.18132731 -9.11368402 5.59164684 -4.9375 5.1875 C-4.793125 4.548125 -4.64875 3.90875 -4.5 3.25 C-3.62922221 0.05714811 -3.44717239 0.22003228 0 0 Z " fill="#785D45" transform="translate(136.9375,274.8125)"/>
<path d="M0 0 C2.64 0.33 5.28 0.66 8 1 C7.56179109 5.55737263 7.14958831 8.57653445 4 12 C3.34 11.67 2.68 11.34 2 11 C2.33 10.01 2.66 9.02 3 8 C2.34 7.67 1.68 7.34 1 7 C1 7.66 1 8.32 1 9 C-0.32 9.33 -1.64 9.66 -3 10 C-2.25 3.375 -2.25 3.375 0 0 Z " fill="#7E6548" transform="translate(241,227)"/>
<path d="M0 0 C0.33 0.66 0.66 1.32 1 2 C-1.31 2.66 -3.62 3.32 -6 4 C-6 4.99 -6 5.98 -6 7 C-4.35 7 -2.7 7 -1 7 C-0.67 7.66 -0.34 8.32 0 9 C-1.95764383 9.19456705 -3.91615321 9.38044247 -5.875 9.5625 C-6.96554688 9.66691406 -8.05609375 9.77132812 -9.1796875 9.87890625 C-12 10 -12 10 -14 9 C-14.82804069 6.51587793 -15 4.64779693 -15 2 C-10.05 1.34 -5.1 0.68 0 0 Z " fill="#755742" transform="translate(104,214)"/>
<path d="M0 0 C3.71599191 -0.20086443 4.77208445 -0.1519437 8 2 C8.6875 5.125 8.6875 5.125 9 8 C6.12529507 9.43735246 4.18105412 9.38172649 1 9 C-1.375 6.5 -1.375 6.5 -3 4 C-2.34 4 -1.68 4 -1 4 C-0.67 2.68 -0.34 1.36 0 0 Z " fill="#847051" transform="translate(63,286)"/>
<path d="M0 0 C2.33944736 0.28730055 4.6739143 0.61936779 7 1 C6.67 3.31 6.34 5.62 6 8 C2.30458414 8.95024979 -0.30458414 8.95024979 -4 8 C-1.125 1.125 -1.125 1.125 0 0 Z " fill="#755D4A" transform="translate(60,233)"/>
<path d="M0 0 C0.33 0 0.66 0 1 0 C1.33 2.64 1.66 5.28 2 8 C3.98 8 5.96 8 8 8 C7.67 9.32 7.34 10.64 7 12 C5.7625 12.144375 4.525 12.28875 3.25 12.4375 C0.43495501 12.78688502 -2.2701497 13.20379366 -5 14 C-5 15.98 -5 17.96 -5 20 C-5.33 20 -5.66 20 -6 20 C-6.66 17.69 -7.32 15.38 -8 13 C-6.25 11 -6.25 11 -4 9 C-2.68 9 -1.36 9 0 9 C0 6.03 0 3.06 0 0 Z " fill="#EEE48F" transform="translate(157,212)"/>
<path d="M0 0 C1.875 1.5625 1.875 1.5625 3 3 C2.67 3.66 2.34 4.32 2 5 C1.34 5 0.68 5 0 5 C0 5.99 0 6.98 0 8 C0.66 8 1.32 8 2 8 C2 8.66 2 9.32 2 10 C-3.75 8.25 -3.75 8.25 -6 6 C-6.125 3.375 -6.125 3.375 -6 1 C-6.66 0.67 -7.32 0.34 -8 0 C-5.06317146 -1.46841427 -3.13175678 -0.76696084 0 0 Z " fill="#826853" transform="translate(233,260)"/>
<path d="M0 0 C1.625 2 1.625 2 3 4 C3.66 3.67 4.32 3.34 5 3 C5.33 3.99 5.66 4.98 6 6 C4.12855305 6.82065069 2.25265664 7.6311584 0.375 8.4375 C-1.19121094 9.11619141 -1.19121094 9.11619141 -2.7890625 9.80859375 C-5.88685251 10.95801705 -8.73210054 11.57311223 -12 12 C-9.3534665 9.3534665 -6.43778736 8.40058003 -3 7 C-3.7763932 3.9254644 -3.7763932 3.9254644 -6 2 C-2.25 0 -2.25 0 0 0 Z " fill="#6C483D" transform="translate(134,363)"/>
<path d="M0 0 C0 0.66 0 1.32 0 2 C1.65 2 3.3 2 5 2 C5 2.99 5 3.98 5 5 C4.01 5.33 3.02 5.66 2 6 C2.33 6.66 2.66 7.32 3 8 C0.69 7.67 -1.62 7.34 -4 7 C-4 6.34 -4 5.68 -4 5 C-5.98 5.66 -7.96 6.32 -10 7 C-3.18421053 0 -3.18421053 0 0 0 Z " fill="#81634D" transform="translate(122,283)"/>
<path d="M0 0 C2.5625 0.1875 2.5625 0.1875 4.5625 2.1875 C4.00694444 6.74305556 4.00694444 6.74305556 2.5625 8.1875 C0.125 8.375 0.125 8.375 -2.4375 8.1875 C-3.0975 7.5275 -3.7575 6.8675 -4.4375 6.1875 C-3.71780303 0.28598485 -3.71780303 0.28598485 0 0 Z " fill="#846F4E" transform="translate(129.4375,227.8125)"/>
<path d="M0 0 C0.33 0.66 0.66 1.32 1 2 C3.02463255 2.65213292 3.02463255 2.65213292 5 3 C4.01 3 3.02 3 2 3 C2.020625 3.804375 2.04125 4.60875 2.0625 5.4375 C2 8 2 8 1 9 C-2 9.125 -2 9.125 -5 9 C-6 8 -6 8 -6.125 5.5 C-6 3 -6 3 -5 2 C-3.33382885 1.95936168 -1.66611905 1.957279 0 2 C0 1.34 0 0.68 0 0 Z " fill="#81694B" transform="translate(178,189)"/>
<path d="M0 0 C0.27585938 0.63421875 0.55171875 1.2684375 0.8359375 1.921875 C2.3895534 4.69544432 4.04257982 5.06607784 7 6 C7 6.33 7 6.66 7 7 C6.195625 7.12375 5.39125 7.2475 4.5625 7.375 C3.2940625 7.684375 3.2940625 7.684375 2 8 C1.67 8.66 1.34 9.32 1 10 C-1.0625 11.125 -1.0625 11.125 -3 12 C-2.34 12.66 -1.68 13.32 -1 14 C-2.32 14.33 -3.64 14.66 -5 15 C-5.33 16.65 -5.66 18.3 -6 20 C-6.33 20 -6.66 20 -7 20 C-7 17.03 -7 14.06 -7 11 C-5.68 10.34 -4.36 9.68 -3 9 C-1.8774351 6.83718718 -1.8774351 6.83718718 -1.25 4.375 C-1.00765625 3.55773437 -0.7653125 2.74046875 -0.515625 1.8984375 C-0.34546875 1.27195312 -0.1753125 0.64546875 0 0 Z " fill="#EAE384" transform="translate(178,260)"/>
<path d="M0 0 C0.66 0.66 1.32 1.32 2 2 C1.20335937 3.051875 1.20335937 3.051875 0.390625 4.125 C-4.40371507 10.5205992 -4.40371507 10.5205992 -8.25 17.5 C-9.89700484 20.79400968 -10.76996682 22.3328861 -14 24 C-14.99 24 -15.98 24 -17 24 C-16.34 22.68 -15.68 21.36 -15 20 C-13.68 20 -12.36 20 -11 20 C-10.93941406 19.33613281 -10.87882812 18.67226562 -10.81640625 17.98828125 C-9.6736064 13.8053057 -7.39536507 10.72046973 -4.9375 7.1875 C-4.46505859 6.49462891 -3.99261719 5.80175781 -3.50585938 5.08789062 C-2.3445174 3.3869352 -1.1732322 1.69277605 0 0 Z " fill="#5D362B" transform="translate(125,150)"/>
<path d="M0 0 C2.625 1.4375 2.625 1.4375 5 3 C3.98700625 6.03898126 3.5048111 7.12139167 1 9 C-1.6875 9.1875 -1.6875 9.1875 -4 9 C-4 8.34 -4 7.68 -4 7 C-4.99 6.67 -5.98 6.34 -7 6 C-6.360625 5.731875 -5.72125 5.46375 -5.0625 5.1875 C-2.66868314 4.11332248 -2.66868314 4.11332248 -2 1 C-1.34 0.67 -0.68 0.34 0 0 Z M0 2 C0.33 2.66 0.66 3.32 1 4 C1.33 3.34 1.66 2.68 2 2 C1.34 2 0.68 2 0 2 Z " fill="#7C6149" transform="translate(75,226)"/>
<path d="M0 0 C0.33 0.99 0.66 1.98 1 3 C0.360625 3.391875 -0.27875 3.78375 -0.9375 4.1875 C-3.43778819 6.38472296 -3.64950425 7.75791433 -4 11 C-4.66 10.67 -5.32 10.34 -6 10 C-6 9.01 -6 8.02 -6 7 C-6.99 6.67 -7.98 6.34 -9 6 C-8.67 4.35 -8.34 2.7 -8 1 C-5.07175348 0.02391783 -3.04386724 -0.08226668 0 0 Z " fill="#765545" transform="translate(150,356)"/>
<path d="M0 0 C8.03967347 0.04850482 15.44678191 1.28902556 23 4 C19.48715571 5.1709481 17.74527301 4.4419994 14.2734375 3.48046875 C10.52655778 2.68860242 6.80949063 2.84127122 3 3 C2.67 4.32 2.34 5.64 2 7 C1.01 7 0.02 7 -1 7 C-1.04254356 5.00045254 -1.04080783 2.99958364 -1 1 C-0.67 0.67 -0.34 0.34 0 0 Z " fill="#624938" transform="translate(269,161)"/>
<path d="M0 0 C1.32 0 2.64 0 4 0 C3.875 1.875 3.875 1.875 3 4 C-0.0625 5.25 -0.0625 5.25 -3 6 C-3.103125 6.70125 -3.20625 7.4025 -3.3125 8.125 C-4.09359003 11.39137647 -5.42058743 14.0471852 -7 17 C-7.66 16.01 -8.32 15.02 -9 14 C-8.54625 13.278125 -8.0925 12.55625 -7.625 11.8125 C-6.14505642 9.25105919 -5.02782461 6.76722011 -4 4 C-3.01 4 -2.02 4 -1 4 C-0.67 2.68 -0.34 1.36 0 0 Z " fill="#6D513B" transform="translate(192,320)"/>
<path d="M0 0 C4.875 0.875 4.875 0.875 6 2 C6.14115161 4.67058851 6.04247107 7.32432238 6 10 C5.01 9.67 4.02 9.34 3 9 C2.3125 6.9375 2.3125 6.9375 2 5 C1.34 5 0.68 5 0 5 C0 3.35 0 1.7 0 0 Z " fill="#7C644A" transform="translate(52,279)"/>
<path d="M0 0 C0.66 1.32 1.32 2.64 2 4 C2.99 4 3.98 4 5 4 C5.25 6.75 5.25 6.75 5 10 C3 12.375 3 12.375 1 14 C0.06380187 10.84493858 -0.1057123 8.03413498 -0.0625 4.75 C-0.05347656 3.85796875 -0.04445312 2.9659375 -0.03515625 2.046875 C-0.02355469 1.37140625 -0.01195312 0.6959375 0 0 Z " fill="#765443" transform="translate(141,241)"/>
<path d="M0 0 C1.65 0.33 3.3 0.66 5 1 C4.42341728 4.89193339 2.5000475 7.04539841 0 10 C-0.66 10.99 -1.32 11.98 -2 13 C-1.85769192 11.58297487 -1.71099254 10.1663904 -1.5625 8.75 C-1.48128906 7.96109375 -1.40007812 7.1721875 -1.31640625 6.359375 C-1.02365007 4.17635361 -0.57935581 2.1226818 0 0 Z " fill="#E8DBB0" transform="translate(116,173)"/>
<path d="M0 0 C0.99 0 1.98 0 3 0 C2.56179109 4.55737263 2.14958831 7.57653445 -1 11 C-1.66 10.67 -2.32 10.34 -3 10 C-2.67 9.01 -2.34 8.02 -2 7 C-2.66 6.34 -3.32 5.68 -4 5 C-3.01 4.34 -2.02 3.68 -1 3 C-0.67 2.01 -0.34 1.02 0 0 Z " fill="#7A5F4E" transform="translate(246,228)"/>
<path d="M0 0 C0.99 0.33 1.98 0.66 3 1 C0.37964982 2.36389525 -2.24556999 3.71632173 -4.875 5.0625 C-5.99455078 5.64741211 -5.99455078 5.64741211 -7.13671875 6.24414062 C-7.85214844 6.60830078 -8.56757813 6.97246094 -9.3046875 7.34765625 C-10.2944458 7.85824585 -10.2944458 7.85824585 -11.30419922 8.37915039 C-11.86381348 8.58403076 -12.42342773 8.78891113 -13 9 C-13.66 8.67 -14.32 8.34 -15 8 C-12.74941397 4.39757682 -11.0239406 3.3536697 -6.9375 2.3125 C-3.37615254 1.40179985 -3.37615254 1.40179985 0 0 Z " fill="#5D4137" transform="translate(283,182)"/>
<path d="M0 0 C0.33 0 0.66 0 1 0 C1.04898438 1.134375 1.09796875 2.26875 1.1484375 3.4375 C1.2235414 4.95835398 1.29908584 6.47918625 1.375 8 C1.4059375 8.74378906 1.436875 9.48757812 1.46875 10.25390625 C1.73753793 15.40567483 2.61063884 20.02992756 4 25 C3.01 24.67 2.02 24.34 1 24 C-0.11662325 21.10822183 -0.11735344 18.30713697 -0.09765625 15.234375 C-0.09443359 14.34492188 -0.09121094 13.45546875 -0.08789062 12.5390625 C-0.07532227 11.15847656 -0.07532227 11.15847656 -0.0625 9.75 C-0.05798828 8.81414062 -0.05347656 7.87828125 -0.04882812 6.9140625 C-0.03706918 4.60930959 -0.02063426 2.30468773 0 0 Z " fill="#8F753F" transform="translate(148,241)"/>
<path d="M0 0 C0.33 0 0.66 0 1 0 C1.33 3.63 1.66 7.26 2 11 C-3 13 -3 13 -7 13 C-6.67 12.01 -6.34 11.02 -6 10 C-4.02 9.67 -2.04 9.34 0 9 C0 6.03 0 3.06 0 0 Z " fill="#F2EDA8" transform="translate(157,212)"/>
<path d="M0 0 C0.99 0.33 1.98 0.66 3 1 C2.67 2.65 2.34 4.3 2 6 C1.34 6 0.68 6 0 6 C0 6.66 0 7.32 0 8 C-2.97 8.66 -5.94 9.32 -9 10 C-8.34 9.01 -7.68 8.02 -7 7 C-3.875 6.8125 -3.875 6.8125 -1 7 C-1.66 5.68 -2.32 4.36 -3 3 C-2.01 2.67 -1.02 2.34 0 2 C0 1.34 0 0.68 0 0 Z " fill="#92795E" transform="translate(242,234)"/>
<path d="M0 0 C4.71403788 0.47939368 8.66579301 0.96834048 13 3 C9.5980513 5.09350689 6.94727588 5.17942163 3 5 C3.33 3.68 3.66 2.36 4 1 C2.68 0.67 1.36 0.34 0 0 Z " fill="#897254" transform="translate(192,319)"/>
<path d="M0 0 C0.99 0.495 0.99 0.495 2 1 C2.99 0.67 3.98 0.34 5 0 C5.66 0.66 6.32 1.32 7 2 C6.625 4.125 6.625 4.125 6 6 C4.35 5.67 2.7 5.34 1 5 C0.67 3.35 0.34 1.7 0 0 Z " fill="#7B643E" transform="translate(179,260)"/>
<path d="M0 0 C1.01911045 3.89114901 1.16782969 5.60596507 -0.4375 9.375 C-0.953125 10.24125 -1.46875 11.1075 -2 12 C-2.82638376 9.10765685 -3 7.11257569 -3 4 C-3.99 4.495 -3.99 4.495 -5 5 C-5 4.01 -5 3.02 -5 2 C-2 0 -2 0 0 0 Z " fill="#896C56" transform="translate(161,108)"/>
<path d="M0 0 C0.33 0 0.66 0 1 0 C2.25 6.625 2.25 6.625 0 10 C0 8.68 0 7.36 0 6 C-3.63 6.33 -7.26 6.66 -11 7 C-7.99382731 3.99382731 -5.17618402 4.40414684 -1 4 C-0.67 2.68 -0.34 1.36 0 0 Z " fill="#A28C6C" transform="translate(133,276)"/>
<path d="M0 0 C1.65 0.33 3.3 0.66 5 1 C5.33 1.99 5.66 2.98 6 4 C6.66 4 7.32 4 8 4 C7.67 5.32 7.34 6.64 7 8 C6.01 7.67 5.02 7.34 4 7 C3.3125 4.9375 3.3125 4.9375 3 3 C1.68 3.33 0.36 3.66 -1 4 C-0.67 2.68 -0.34 1.36 0 0 Z " fill="#97835D" transform="translate(181,258)"/>
<path d="M0 0 C0.66 0.33 1.32 0.66 2 1 C-2.22486037 4.80237433 -6.5673033 8.11568628 -12 10 C-12.66 9.67 -13.32 9.34 -14 9 C-11.71439353 7.4693001 -9.42237333 5.95034956 -7.125 4.4375 C-6.14853516 3.78104492 -6.14853516 3.78104492 -5.15234375 3.11132812 C-3.47374503 2.01245164 -1.73976613 0.9992182 0 0 Z " fill="#CFAA98" transform="translate(163,354)"/>
<path d="M0 0 C0.33 0.66 0.66 1.32 1 2 C-4.76081841 3.2982126 -10.08739655 4.25706972 -16 4 C-15.67 3.34 -15.34 2.68 -15 2 C-12.45975996 1.52425562 -9.99948536 1.15992453 -7.4375 0.875 C-6.72658203 0.78863281 -6.01566406 0.70226562 -5.28320312 0.61328125 C-3.52310688 0.40065217 -1.76165836 0.19927303 0 0 Z " fill="#563D32" transform="translate(104,214)"/>
<path d="M0 0 C1.485 0.99 1.485 0.99 3 2 C3.99 1.67 4.98 1.34 6 1 C6 2.65 6 4.3 6 6 C4.35 6 2.7 6 1 6 C-0.0625 4.125 -0.0625 4.125 -1 2 C-0.67 1.34 -0.34 0.68 0 0 Z " fill="#6D5146" transform="translate(63,289)"/>
<path d="M0 0 C1 3 1 3 0 6 C0.66 6.33 1.32 6.66 2 7 C0.68 7.99 -0.64 8.98 -2 10 C-3.125 7.6875 -3.125 7.6875 -4 5 C-3.34 4.01 -2.68 3.02 -2 2 C-1.34 2 -0.68 2 0 2 C0 1.34 0 0.68 0 0 Z " fill="#81614D" transform="translate(89,357)"/>
<path d="M0 0 C0.99 0.33 1.98 0.66 3 1 C3.33 3.31 3.66 5.62 4 8 C2.35 8.33 0.7 8.66 -1 9 C-0.34 8.67 0.32 8.34 1 8 C0.67 5.36 0.34 2.72 0 0 Z " fill="#82693B" transform="translate(152,267)"/>
<path d="M0 0 C3.875 2.625 3.875 2.625 5 6 C5.66 6.33 6.32 6.66 7 7 C6.67 7.99 6.34 8.98 6 10 C5.67 9.34 5.34 8.68 5 8 C3.35636866 7.27840576 1.68949614 6.60648579 0 6 C0 4.02 0 2.04 0 0 Z " fill="#947F60" transform="translate(163,153)"/>
<path d="M0 0 C2.625 -0.1875 2.625 -0.1875 5 0 C4.01 0.33 3.02 0.66 2 1 C1.7834375 1.86625 1.7834375 1.86625 1.5625 2.75 C0.79466977 5.82132093 -0.95941764 7.63029145 -3 10 C-2.25 3.375 -2.25 3.375 0 0 Z " fill="#8E7B59" transform="translate(144,225)"/>
<path d="M0 0 C0.3403125 0.928125 0.3403125 0.928125 0.6875 1.875 C2.37929835 4.61410209 3.99244161 5.05024472 7 6 C7 6.33 7 6.66 7 7 C6.195625 7.12375 5.39125 7.2475 4.5625 7.375 C3.2940625 7.684375 3.2940625 7.684375 2 8 C1.67 8.66 1.34 9.32 1 10 C0.34 9.67 -0.32 9.34 -1 9 C-1.09765625 2.84765625 -1.09765625 2.84765625 -1 1 C-0.67 0.67 -0.34 0.34 0 0 Z " fill="#EEE593" transform="translate(178,260)"/>
<path d="M0 0 C0.33 0.99 0.66 1.98 1 3 C3.31 3 5.62 3 8 3 C8 3.33 8 3.66 8 4 C6.3603125 4.2165625 6.3603125 4.2165625 4.6875 4.4375 C1.06877013 4.88288104 1.06877013 4.88288104 -2 6 C-2.66 4.68 -3.32 3.36 -4 2 C-2.68 1.34 -1.36 0.68 0 0 Z " fill="#EBDEB3" transform="translate(189,256)"/>
<path d="M0 0 C1.92952974 3.85905949 3.12483821 6.26132535 3.0625 10.625 C3.05347656 11.44226563 3.04445312 12.25953125 3.03515625 13.1015625 C3.02355469 13.72804688 3.01195312 14.35453125 3 15 C1.07047026 11.14094051 -0.12483821 8.73867465 -0.0625 4.375 C-0.05347656 3.55773437 -0.04445312 2.74046875 -0.03515625 1.8984375 C-0.02355469 1.27195313 -0.01195312 0.64546875 0 0 Z " fill="#E3D479" transform="translate(149,249)"/>
<path d="M0 0 C1.98 0 3.96 0 6 0 C6.33 0.99 6.66 1.98 7 3 C9.01508358 3.73323796 9.01508358 3.73323796 11 4 C11.33 5.32 11.66 6.64 12 8 C11.60167969 7.55011719 11.20335937 7.10023438 10.79296875 6.63671875 C8.74806176 4.77001716 6.85837469 3.88250531 4.3125 2.8125 C3.50425781 2.46832031 2.69601563 2.12414062 1.86328125 1.76953125 C1.24839844 1.51558594 0.63351563 1.26164063 0 1 C0 0.67 0 0.34 0 0 Z " fill="#FDFDA9" transform="translate(163,222)"/>
<path d="M0 0 C0.99 1.32 1.98 2.64 3 4 C1.68 5.32 0.36 6.64 -1 8 C-1.66 7.34 -2.32 6.68 -3 6 C-2.625 3.875 -2.625 3.875 -2 2 C-1.34 2 -0.68 2 0 2 C0 1.34 0 0.68 0 0 Z " fill="#785C42" transform="translate(167,149)"/>
<path d="M0 0 C-1.32 0 -2.64 0 -4 0 C-4 0.99 -4 1.98 -4 3 C-3.34 3.33 -2.68 3.66 -2 4 C-2.66 4 -3.32 4 -4 4 C-4.33 4.99 -4.66 5.98 -5 7 C-5.33 6.67 -5.66 6.34 -6 6 C-5.95875 5.195625 -5.9175 4.39125 -5.875 3.5625 C-5.936875 2.2940625 -5.936875 2.2940625 -6 1 C-6.99 0.34 -7.98 -0.32 -9 -1 C-5.22102349 -2.0497157 -3.35080929 -2.10976881 0 0 Z " fill="#A1886C" transform="translate(182,282)"/>
<path d="M0 0 C2.875 -0.125 2.875 -0.125 6 0 C8 2 8 2 8.125 4.625 C8.08375 5.40875 8.0425 6.1925 8 7 C7.34 7 6.68 7 6 7 C5.938125 6.38125 5.87625 5.7625 5.8125 5.125 C5.171081 2.72238859 5.171081 2.72238859 2.4375 1.75 C1.633125 1.5025 0.82875 1.255 0 1 C0 0.67 0 0.34 0 0 Z " fill="#84704D" transform="translate(134,275)"/>
<path d="M0 0 C0.33 0 0.66 0 1 0 C1 8.375 1 8.375 -1 12 C-1.33 10.68 -1.66 9.36 -2 8 C-3.65 7.67 -5.3 7.34 -7 7 C-7 6.67 -7 6.34 -7 6 C-5.5459375 5.62875 -5.5459375 5.62875 -4.0625 5.25 C-2.5465625 4.63125 -2.5465625 4.63125 -1 4 C-0.03122943 1.96756452 -0.03122943 1.96756452 0 0 Z " fill="#E4D8AE" transform="translate(125,222)"/>
<path d="M0 0 C-8.46774194 5.32258065 -8.46774194 5.32258065 -12.15234375 4.546875 C-12.76207031 4.36640625 -13.37179688 4.1859375 -14 4 C-12.42466914 3.13116294 -10.83935491 2.28040932 -9.25 1.4375 C-8.36828125 0.96183594 -7.4865625 0.48617187 -6.578125 -0.00390625 C-3.79298812 -1.07998186 -2.73019786 -1.06528748 0 0 Z " fill="#E3D5AD" transform="translate(213,174)"/>
<path d="M0 0 C2.97 0.33 5.94 0.66 9 1 C5 2 5 2 2 2 C1.67 3.65 1.34 5.3 1 7 C0.67 7 0.34 7 0 7 C0 4.69 0 2.38 0 0 Z " fill="#D2C89E" transform="translate(55,241)"/>
<path d="M0 0 C0 1.65 0 3.3 0 5 C-0.99 5.495 -0.99 5.495 -2 6 C-2 4.35 -2 2.7 -2 1 C-4.31 1 -6.62 1 -9 1 C-5.64919071 -1.10976881 -3.77897651 -1.0497157 0 0 Z " fill="#573B2A" transform="translate(103,302)"/>
<path d="M0 0 C0.33 0 0.66 0 1 0 C0.67 2.97 0.34 5.94 0 9 C-0.66 8.01 -1.32 7.02 -2 6 C-2.99 6.66 -3.98 7.32 -5 8 C-3.6299034 5.0490227 -2.06764583 2.51713405 0 0 Z " fill="#DDCCAB" transform="translate(158,111)"/>
<path d="M0 0 C-0.33 1.65 -0.66 3.3 -1 5 C-2.32 5 -3.64 5 -5 5 C-5.33 4.01 -5.66 3.02 -6 2 C-3 0 -3 0 0 0 Z " fill="#755743" transform="translate(132,229)"/>
<path d="M0 0 C0.66 0.33 1.32 0.66 2 1 C-3.14285714 6.57142857 -3.14285714 6.57142857 -7 7 C-2.25 1.125 -2.25 1.125 0 0 Z " fill="#E6DCAF" transform="translate(197,179)"/>
<path d="M0 0 C2.64 0.33 5.28 0.66 8 1 C8 1.66 8 2.32 8 3 C6.02 3.66 4.04 4.32 2 5 C2.33 3.68 2.66 2.36 3 1 C2.01 0.67 1.02 0.34 0 0 Z " fill="#F0E2BD" transform="translate(276,171)"/>
<path d="M0 0 C0.66 0.99 1.32 1.98 2 3 C-2.625 7 -2.625 7 -6 7 C-5.34 5.68 -4.68 4.36 -4 3 C-2.68 3 -1.36 3 0 3 C0 2.01 0 1.02 0 0 Z " fill="#543C31" transform="translate(114,167)"/>
<path d="M0 0 C2 2 2 2 2 6 C2.66 6.33 3.32 6.66 4 7 C2.02 7.99 2.02 7.99 0 9 C-0.87890625 2.84765625 -0.87890625 2.84765625 -1 1 C-0.67 0.67 -0.34 0.34 0 0 Z " fill="#2C0000" transform="translate(179,146)"/>
<path d="M0 0 C0 3.96 0 7.92 0 12 C-0.33 12 -0.66 12 -1 12 C-1 9.36 -1 6.72 -1 4 C-2.32 4.33 -3.64 4.66 -5 5 C-5 4.34 -5 3.68 -5 3 C-1.42307692 0 -1.42307692 0 0 0 Z " fill="#F4E9BE" transform="translate(157,116)"/>
<path d="M0 0 C0 0.66 0 1.32 0 2 C2.64 2 5.28 2 8 2 C8 2.33 8 2.66 8 3 C4.7 3 1.4 3 -2 3 C-2 2.34 -2 1.68 -2 1 C-3.32 0.67 -4.64 0.34 -6 0 C-3 -1 -3 -1 0 0 Z " fill="#63362D" transform="translate(108,374)"/>
<path d="M0 0 C0.66 0.33 1.32 0.66 2 1 C-0.31 2.65 -2.62 4.3 -5 6 C-5.99 5.34 -6.98 4.68 -8 4 C-6.71349294 3.30289269 -5.42059335 2.61757124 -4.125 1.9375 C-3.40570313 1.55464844 -2.68640625 1.17179688 -1.9453125 0.77734375 C-1.30335937 0.52082031 -0.66140625 0.26429688 0 0 Z " fill="#E2D6AB" transform="translate(90,225)"/>
<path d="M0 0 C0.66 0.99 1.32 1.98 2 3 C1.01 4.485 1.01 4.485 0 6 C0 6.66 0 7.32 0 8 C-0.99 8.33 -1.98 8.66 -3 9 C-2.5020163 5.26512223 -2.12508244 3.18762365 0 0 Z " fill="#917C59" transform="translate(162,202)"/>
<path d="M0 0 C1.20628008 2.33214148 2.1654738 4.49642139 3 7 C1.68 7 0.36 7 -1 7 C-1.33 5.02 -1.66 3.04 -2 1 C-1.34 0.67 -0.68 0.34 0 0 Z " fill="#DECBA5" transform="translate(249,324)"/>
<path d="M0 0 C0.33 0 0.66 0 1 0 C1.3125 2.75 1.3125 2.75 1 6 C-1.5 8.375 -1.5 8.375 -4 10 C-2.66666667 6.66666667 -1.33333333 3.33333333 0 0 Z " fill="#DED1A6" transform="translate(100,347)"/>
<path d="M0 0 C0.33 1.32 0.66 2.64 1 4 C-1.475 5.485 -1.475 5.485 -4 7 C-4.66 6.34 -5.32 5.68 -6 5 C-4.02 3.35 -2.04 1.7 0 0 Z " fill="#897356" transform="translate(167,340)"/>
<path d="M0 0 C0.33 0.99 0.66 1.98 1 3 C-0.32 4.32 -1.64 5.64 -3 7 C-3.99 6.34 -4.98 5.68 -6 5 C-5.34 4.34 -4.68 3.68 -4 3 C-3.01 3 -2.02 3 -1 3 C-0.67 2.01 -0.34 1.02 0 0 Z " fill="#FDF9AC" transform="translate(180,267)"/>
<path d="M0 0 C0.99 0.33 1.98 0.66 3 1 C1.25 6.75 1.25 6.75 -1 9 C-1 7.35 -1 5.7 -1 4 C-0.34 4 0.32 4 1 4 C1 3.34 1 2.68 1 2 C0.34 1.67 -0.32 1.34 -1 1 C-0.67 0.67 -0.34 0.34 0 0 Z " fill="#81664B" transform="translate(147,121)"/>
<path d="M0 0 C0.66 0.66 1.32 1.32 2 2 C0.02 4.97 0.02 4.97 -2 8 C-2.66 7.67 -3.32 7.34 -4 7 C-3.67 6.01 -3.34 5.02 -3 4 C-2.34 4 -1.68 4 -1 4 C-0.67 2.68 -0.34 1.36 0 0 Z " fill="#604339" transform="translate(247,231)"/>
<path d="M0 0 C0.33 0.66 0.66 1.32 1 2 C0.0625 4.625 0.0625 4.625 -1 7 C-1.99 7 -2.98 7 -4 7 C-2.92598892 4.08482708 -2.22189824 2.22189824 0 0 Z " fill="#8C7757" transform="translate(254,192)"/>
<path d="M0 0 C0.66 0.33 1.32 0.66 2 1 C-0.83430453 4.2542015 -2.68607774 5.5206753 -7 6 C-4.74259377 3.66475218 -2.7194239 1.81294927 0 0 Z " fill="#95805F" transform="translate(267,181)"/>
<path d="M0 0 C1.32 0.66 2.64 1.32 4 2 C-1.75 5 -1.75 5 -4 5 C-3.67 4.01 -3.34 3.02 -3 2 C-2.01 2 -1.02 2 0 2 C0 1.34 0 0.68 0 0 Z " fill="#7C664A" transform="translate(199,175)"/>
</svg>
