<?xml version="1.0" encoding="UTF-8"?>
<svg version="1.1" xmlns="http://www.w3.org/2000/svg" width="187" height="220">
<path d="M0 0 C2.4375 0.375 2.4375 0.375 5 1 C7.48496586 5.96993171 6.65765931 13.8621848 5.5390625 19.19921875 C3.01019196 25.58089794 -1.70544613 32.09482129 -8 35 C-9.65369357 35.69822617 -11.31727014 36.37498605 -13 37 C-12.48050781 37.36351562 -11.96101563 37.72703125 -11.42578125 38.1015625 C-3.57038685 43.76441613 3.53968975 51.20685914 5.39453125 61.10546875 C5.44996094 61.75128906 5.50539063 62.39710937 5.5625 63.0625 C5.95676726 66.61090537 6.36555649 67.94277551 7.9375 70.9375 C10.94283532 77.2085607 11.12099429 84.11877196 11.78662109 90.94335938 C12.58835494 98.67082612 13.8889468 105.87232882 17 113 C17.26425781 113.6703125 17.52851563 114.340625 17.80078125 115.03125 C19.76361102 119.80429861 22.22775023 123.93557316 25.0625 128.25 C29.09983879 134.67372119 30.83544498 140.5565525 32 148 C32.1753125 148.81339844 32.350625 149.62679687 32.53125 150.46484375 C33.53397029 155.95088074 32.34419003 159.56763868 29.91015625 164.54296875 C28.82480631 167.02852374 28.82480631 167.02852374 29.01953125 169.9765625 C28.9628566 178.74979835 21.28347785 186.55430775 15.578125 192.55859375 C11.99401963 195.95263292 8.26377133 198.54188272 4 201 C3.31679687 201.43828125 2.63359375 201.8765625 1.9296875 202.328125 C-4.60154324 206.32880508 -11.6421183 208.07068398 -19 210 C-19.99 210.33 -20.98 210.66 -22 211 C-24.85828632 211.13347875 -27.69121572 211.21238038 -30.55078125 211.23828125 C-31.40117477 211.246353 -32.2515683 211.25442474 -33.12773132 211.26274109 C-34.93417326 211.2765794 -36.74064132 211.28730269 -38.54711914 211.29516602 C-40.37109183 211.30659906 -42.19503341 211.32691033 -44.01879883 211.35668945 C-57.98491061 211.58455692 -70.96909211 211.02060526 -83 203 C-83 202.34 -83 201.68 -83 201 C-83.5878125 200.74476563 -84.175625 200.48953125 -84.78125 200.2265625 C-92.01655992 196.22676089 -96.32460786 188.10364832 -98.81835938 180.50708008 C-101.15127607 172.08257705 -101.38633904 164.14189583 -101.25 155.4375 C-101.24350587 154.07227114 -101.23829107 152.70703557 -101.234375 151.34179688 C-101.15540995 141.46622984 -101.15540995 141.46622984 -100 138 C-99.34 138 -98.68 138 -98 138 C-97.92523438 137.17757812 -97.85046875 136.35515625 -97.7734375 135.5078125 C-96.84524999 127.62731855 -95.15733587 121.20842335 -90 115 C-89.34 115 -88.68 115 -88 115 C-87.73574219 114.41347656 -87.47148438 113.82695313 -87.19921875 113.22265625 C-85.95699286 110.92028969 -84.60368452 109.33525385 -82.8125 107.4375 C-72.70135598 95.96845441 -67.72971446 82.4051174 -62.62890625 68.20703125 C-57.94087748 55.34185066 -52.02448975 47.20161002 -41 39 C-40.67 38.67 -40.34 38.34 -40 38 C-38.00041636 37.95919217 -35.99954746 37.95745644 -34 38 C-34.43112578 33.90430508 -34.90115695 30.31849426 -36.125 26.375 C-37.0599336 22.76882754 -36.93616271 20.57443943 -36 17 C-35 16 -35 16 -32.85546875 15.8671875 C-31.97503906 15.86976562 -31.09460938 15.87234375 -30.1875 15.875 C-29.31480469 15.87242188 -28.44210938 15.86984375 -27.54296875 15.8671875 C-25 16 -25 16 -23.03222656 16.64819336 C-22.3615918 16.76428955 -21.69095703 16.88038574 -21 17 C-18.6776636 15.30051245 -16.65730147 13.63386982 -14.5625 11.6875 C-10.82859793 8.27155967 -7.8453915 5.70963282 -3 4 C-1.19651922 1.98682781 -1.19651922 1.98682781 0 0 Z " fill="#FEEF98" transform="translate(134,3)"/>
<path d="M0 0 C2.4375 0.375 2.4375 0.375 5 1 C7.48496586 5.96993171 6.65765931 13.8621848 5.5390625 19.19921875 C3.01019196 25.58089794 -1.70544613 32.09482129 -8 35 C-9.65369357 35.69822617 -11.31727014 36.37498605 -13 37 C-12.48050781 37.36351562 -11.96101563 37.72703125 -11.42578125 38.1015625 C-3.57038685 43.76441613 3.53968975 51.20685914 5.39453125 61.10546875 C5.44996094 61.75128906 5.50539063 62.39710937 5.5625 63.0625 C5.95676726 66.61090537 6.36555649 67.94277551 7.9375 70.9375 C10.94283532 77.2085607 11.12099429 84.11877196 11.78662109 90.94335938 C12.58835494 98.67082612 13.8889468 105.87232882 17 113 C17.26425781 113.6703125 17.52851563 114.340625 17.80078125 115.03125 C19.76361102 119.80429861 22.22775023 123.93557316 25.0625 128.25 C29.09983879 134.67372119 30.83544498 140.5565525 32 148 C32.1753125 148.81339844 32.350625 149.62679687 32.53125 150.46484375 C33.53397029 155.95088074 32.34419003 159.56763868 29.91015625 164.54296875 C28.82480631 167.02852374 28.82480631 167.02852374 29.01953125 169.9765625 C28.9628566 178.74979835 21.28347785 186.55430775 15.578125 192.55859375 C11.99401963 195.95263292 8.26377133 198.54188272 4 201 C3.31679687 201.43828125 2.63359375 201.8765625 1.9296875 202.328125 C-4.60154324 206.32880508 -11.6421183 208.07068398 -19 210 C-19.99 210.33 -20.98 210.66 -22 211 C-24.85828632 211.13347875 -27.69121572 211.21238038 -30.55078125 211.23828125 C-31.40117477 211.246353 -32.2515683 211.25442474 -33.12773132 211.26274109 C-34.93417326 211.2765794 -36.74064132 211.28730269 -38.54711914 211.29516602 C-40.37109183 211.30659906 -42.19503341 211.32691033 -44.01879883 211.35668945 C-57.98491061 211.58455692 -70.96909211 211.02060526 -83 203 C-83 202.34 -83 201.68 -83 201 C-83.5878125 200.74476563 -84.175625 200.48953125 -84.78125 200.2265625 C-92.01655992 196.22676089 -96.32460786 188.10364832 -98.81835938 180.50708008 C-101.15127607 172.08257705 -101.38633904 164.14189583 -101.25 155.4375 C-101.24350587 154.07227114 -101.23829107 152.70703557 -101.234375 151.34179688 C-101.15540995 141.46622984 -101.15540995 141.46622984 -100 138 C-99.34 138 -98.68 138 -98 138 C-97.92523438 137.17757812 -97.85046875 136.35515625 -97.7734375 135.5078125 C-96.84524999 127.62731855 -95.15733587 121.20842335 -90 115 C-89.34 115 -88.68 115 -88 115 C-87.73574219 114.41347656 -87.47148438 113.82695313 -87.19921875 113.22265625 C-85.95699286 110.92028969 -84.60368452 109.33525385 -82.8125 107.4375 C-72.70135598 95.96845441 -67.72971446 82.4051174 -62.62890625 68.20703125 C-57.94087748 55.34185066 -52.02448975 47.20161002 -41 39 C-40.67 38.67 -40.34 38.34 -40 38 C-38.00041636 37.95919217 -35.99954746 37.95745644 -34 38 C-34.43112578 33.90430508 -34.90115695 30.31849426 -36.125 26.375 C-37.0599336 22.76882754 -36.93616271 20.57443943 -36 17 C-35 16 -35 16 -32.85546875 15.8671875 C-31.97503906 15.86976562 -31.09460938 15.87234375 -30.1875 15.875 C-29.31480469 15.87242188 -28.44210938 15.86984375 -27.54296875 15.8671875 C-25 16 -25 16 -23.03222656 16.64819336 C-22.3615918 16.76428955 -21.69095703 16.88038574 -21 17 C-18.6776636 15.30051245 -16.65730147 13.63386982 -14.5625 11.6875 C-10.82859793 8.27155967 -7.8453915 5.70963282 -3 4 C-1.19651922 1.98682781 -1.19651922 1.98682781 0 0 Z M-36 53 C-37.61114752 55.18219466 -37.61114752 55.18219466 -39 58 C-40.82658763 60.26777245 -42.68788397 62.50045154 -44.57421875 64.71875 C-46.23710658 67.37937052 -46.28741617 68.91976634 -46 72 C-46.66 72 -47.32 72 -48 72 C-48.03738281 72.556875 -48.07476562 73.11375 -48.11328125 73.6875 C-48.58909085 79.21062318 -49.8894973 83.87943607 -52 89 C-52.39703125 90.0725 -52.7940625 91.145 -53.203125 92.25 C-53.63109375 93.405 -54.0590625 94.56 -54.5 95.75 C-54.9021875 96.83796875 -55.304375 97.9259375 -55.71875 99.046875 C-56.89215319 101.75142625 -58.21020907 103.68992101 -60 106 C-60 106.66 -60 107.32 -60 108 C-60.99 108 -61.98 108 -63 108 C-65.34594772 111.20447416 -65.34594772 111.20447416 -66 115 C-66.66 115 -67.32 115 -68 115 C-70.29648649 117.5614657 -71 118.47967572 -71 122 C-71.598125 122.226875 -72.19625 122.45375 -72.8125 122.6875 C-75.58532489 124.35119494 -76.43300136 126.20665459 -78 129 C-78.515625 129.495 -79.03125 129.99 -79.5625 130.5 C-82.18260829 133.23402604 -82.95938287 136.08611447 -83.125 139.8125 C-83.08375 140.534375 -83.0425 141.25625 -83 142 C-84.485 142.495 -84.485 142.495 -86 143 C-86 145.31 -86 147.62 -86 150 C-86.66 150 -87.32 150 -88 150 C-88.6407487 162.38992775 -88.6407487 162.38992775 -85 174 C-84.47792969 175.13695312 -83.95585938 176.27390625 -83.41796875 177.4453125 C-79.57316017 185.76154678 -79.57316017 185.76154678 -73 192 C-72.2575 192.5775 -71.515 193.155 -70.75 193.75 C-66.83470526 195.52967943 -63.23413253 195.24906662 -59 195 C-58.67 195.99 -58.34 196.98 -58 198 C-52.46411467 198.02464775 -46.928261 198.04283496 -41.39233398 198.05493164 C-39.5075627 198.05997244 -37.62279535 198.06680498 -35.73803711 198.07543945 C-33.03498364 198.08751617 -30.33198169 198.09323068 -27.62890625 198.09765625 C-26.78099014 198.10281754 -25.93307404 198.10797882 -25.0594635 198.11329651 C-23.03928932 198.11349195 -21.01922066 198.06206211 -19 198 C-18.67 197.67 -18.34 197.34 -18 197 C-16.2675 196.7834375 -16.2675 196.7834375 -14.5 196.5625 C-13.345 196.376875 -12.19 196.19125 -11 196 C-10.67 195.34 -10.34 194.68 -10 194 C-8.329375 193.7834375 -8.329375 193.7834375 -6.625 193.5625 C-3.10731112 193.29312721 -3.10731112 193.29312721 -1.0625 191.625 C0.27362468 189.9051032 0.27362468 189.9051032 0 187 C0.8353125 186.6596875 0.8353125 186.6596875 1.6875 186.3125 C8.18251592 182.62613961 11.04214572 177.19284759 13.125 170.25 C13.41375 169.1775 13.7025 168.105 14 167 C14.33 166.34 14.66 165.68 15 165 C15.0689472 163.62657169 15.08467708 162.24997898 15.0625 160.875 C15.041875 159.59625 15.02125 158.3175 15 157 C15.66 157 16.32 157 17 157 C17.23668569 149.96517526 16.7879537 143.8165735 15 137 C14.01 137 13.02 137 12 137 C11.88140625 136.42378906 11.7628125 135.84757812 11.640625 135.25390625 C10.96179922 132.86559849 9.98358834 131.08847208 8.75 128.9375 C3.01130708 117.57688988 0.7183015 105.20786296 0.37744141 92.58911133 C0.04481 83.01589479 -1.77070155 73.1409023 -7 65 C-7.6875 62.6875 -7.6875 62.6875 -8 61 C-8.66 61 -9.32 61 -10 61 C-10.4021875 59.7934375 -10.4021875 59.7934375 -10.8125 58.5625 C-11.4003125 57.2940625 -11.4003125 57.2940625 -12 56 C-12.99 55.67 -13.98 55.34 -15 55 C-15 54.34 -15 53.68 -15 53 C-15.66 53 -16.32 53 -17 53 C-17 52.34 -17 51.68 -17 51 C-23.71557327 48.76147558 -29.93069551 49.54882686 -36 53 Z " fill="#CBD83B" transform="translate(134,3)"/>
<path d="M0 0 C0 0.66 0 1.32 0 2 C0.721875 1.9175 1.44375 1.835 2.1875 1.75 C5.8541793 2.07592705 7.26553619 3.62533406 10 6 C10.99 6.33 11.98 6.66 13 7 C14.6875 8.3125 14.6875 8.3125 16 10 C16 11.32 16 12.64 16 14 C16.99 14.33 17.98 14.66 19 15 C19.13615919 18.00155373 19.2346398 20.996821 19.3125 24 C19.35439453 24.83917969 19.39628906 25.67835938 19.43945312 26.54296875 C19.56562059 33.05321018 18.00438972 36.90917042 14 42 C13.34902344 42.8353125 12.69804688 43.670625 12.02734375 44.53125 C5.49609592 50.6840517 -0.50619825 50.7152149 -9.04321289 50.58398438 C-13.20712402 50.40807262 -16.37435656 50.22255212 -20 48 C-20.33 47.34 -20.66 46.68 -21 46 C-21.639375 45.87625 -22.27875 45.7525 -22.9375 45.625 C-25 45 -25 45 -26.25 43.1875 C-27 41 -27 41 -27 37 C-27.99 37 -28.98 37 -30 37 C-30 35.68 -30 34.36 -30 33 C-30.66 33 -31.32 33 -32 33 C-32 28.71 -32 24.42 -32 20 C-31.34 20 -30.68 20 -30 20 C-30 18.35 -30 16.7 -30 15 C-29.01 14.67 -28.02 14.34 -27 14 C-26.3185177 12.10820797 -26.3185177 12.10820797 -26 10 C-25.67 9.01 -25.34 8.02 -25 7 C-24.01 7 -23.02 7 -22 7 C-22 6.01 -22 5.02 -22 4 C-20.35 4 -18.7 4 -17 4 C-17 3.34 -17 2.68 -17 2 C-11.35600642 -0.44064587 -6.02248522 -0.19289099 0 0 Z " fill="#6F3101" transform="translate(103,131)"/>
<path d="M0 0 C2.4375 0.375 2.4375 0.375 5 1 C7.48496586 5.96993171 6.65765931 13.8621848 5.5390625 19.19921875 C3.01019196 25.58089794 -1.70544613 32.09482129 -8 35 C-9.65369357 35.69822617 -11.31727014 36.37498605 -13 37 C-12.48050781 37.36351562 -11.96101563 37.72703125 -11.42578125 38.1015625 C-3.17546107 44.04911309 3.6115963 51.56139917 5.53515625 61.8671875 C5.77488861 64.25100507 5.94395596 66.60539098 6 69 C3 69 3 69 1.4140625 67.81640625 C-0.31334226 65.59750234 -0.85554462 63.63836611 -1.625 60.9375 C-4.37147555 53.0032373 -9.77205058 46.59812619 -17.0625 42.375 C-18.031875 41.92125 -19.00125 41.4675 -20 41 C-20 40.34 -20 39.68 -20 39 C-20.99 39.66 -21.98 40.32 -23 41 C-25.12109375 41.265625 -25.12109375 41.265625 -27.4375 41.25 C-28.19933594 41.25515625 -28.96117188 41.2603125 -29.74609375 41.265625 C-32.21443018 40.9747292 -33.857686 40.22975656 -36 39 C-36 40.32 -36 41.64 -36 43 C-37.32 43 -38.64 43 -40 43 C-40.268125 43.639375 -40.53625 44.27875 -40.8125 44.9375 C-42 47 -42 47 -45 48 C-45 48.99 -45 49.98 -45 51 C-45.66 51 -46.32 51 -47 51 C-47.0825 51.5775 -47.165 52.155 -47.25 52.75 C-48.20710491 55.62131472 -49.8743794 56.8743794 -52 59 C-53.73757636 62.20079857 -54.08759941 64.93118271 -54.3125 68.5 C-54.73490155 73.26375084 -56.63716579 74.63716579 -60 78 C-60.72847966 80.48364704 -61.13440096 82.93377795 -61.54296875 85.48828125 C-62.19054431 89.04717943 -63.30108575 91.8060412 -65 95 C-66.485 95.495 -66.485 95.495 -68 96 C-68.13148437 96.54011719 -68.26296875 97.08023438 -68.3984375 97.63671875 C-69.30581712 101.2014244 -71.49266346 103.87917437 -73.625 106.8125 C-74.07649414 107.44196533 -74.52798828 108.07143066 -74.99316406 108.7199707 C-77.84120663 112.62008869 -80.85012164 115.94408221 -84.41015625 119.2109375 C-87.13982768 122.28265621 -88.77884097 125.9586735 -90.54296875 129.64453125 C-92.13181501 132.21309505 -93.20964841 132.96631515 -96 134 C-97.35373797 129.93878609 -96.42220892 126.90071863 -95 123 C-93.55206467 120.17604666 -92.03064648 117.44718935 -90 115 C-89.34 115 -88.68 115 -88 115 C-87.73574219 114.41347656 -87.47148438 113.82695313 -87.19921875 113.22265625 C-85.95699286 110.92028969 -84.60368452 109.33525385 -82.8125 107.4375 C-72.70135598 95.96845441 -67.72971446 82.4051174 -62.62890625 68.20703125 C-57.94087748 55.34185066 -52.02448975 47.20161002 -41 39 C-40.67 38.67 -40.34 38.34 -40 38 C-38.00041636 37.95919217 -35.99954746 37.95745644 -34 38 C-34.43112578 33.90430508 -34.90115695 30.31849426 -36.125 26.375 C-37.0599336 22.76882754 -36.93616271 20.57443943 -36 17 C-35 16 -35 16 -32.85546875 15.8671875 C-31.97503906 15.86976562 -31.09460938 15.87234375 -30.1875 15.875 C-29.31480469 15.87242188 -28.44210938 15.86984375 -27.54296875 15.8671875 C-25 16 -25 16 -23.03222656 16.64819336 C-22.3615918 16.76428955 -21.69095703 16.88038574 -21 17 C-18.6776636 15.30051245 -16.65730147 13.63386982 -14.5625 11.6875 C-10.82859793 8.27155967 -7.8453915 5.70963282 -3 4 C-1.19651922 1.98682781 -1.19651922 1.98682781 0 0 Z " fill="#866B46" transform="translate(134,3)"/>
<path d="M0 0 C0.66 0.33 1.32 0.66 2 1 C2.43446044 3.62184804 2.75184567 6.17181114 3 8.8125 C3.16598366 10.3700045 3.33396357 11.92729751 3.50390625 13.484375 C3.58656738 14.25330078 3.66922852 15.02222656 3.75439453 15.81445312 C4.62784647 23.58695986 5.86531026 30.81817561 9 38 C9.39638672 39.00546875 9.39638672 39.00546875 9.80078125 40.03125 C11.76361102 44.80429861 14.22775023 48.93557316 17.0625 53.25 C21.09983879 59.67372119 22.83544498 65.5565525 24 73 C24.1753125 73.81339844 24.350625 74.62679687 24.53125 75.46484375 C25.53397029 80.95088074 24.34419003 84.56763868 21.91015625 89.54296875 C20.82480631 92.02852374 20.82480631 92.02852374 21.01953125 94.9765625 C20.9628566 103.74979835 13.28347785 111.55430775 7.578125 117.55859375 C3.99401963 120.95263292 0.26377133 123.54188272 -4 126 C-4.68320313 126.43828125 -5.36640625 126.8765625 -6.0703125 127.328125 C-12.60154324 131.32880508 -19.6421183 133.07068398 -27 135 C-27.99 135.33 -28.98 135.66 -30 136 C-31.33525717 136.07973476 -32.67412083 136.10771338 -34.01171875 136.09765625 C-34.76904297 136.09443359 -35.52636719 136.09121094 -36.30664062 136.08789062 C-37.09232422 136.07951172 -37.87800781 136.07113281 -38.6875 136.0625 C-39.48478516 136.05798828 -40.28207031 136.05347656 -41.10351562 136.04882812 C-43.06904257 136.0370585 -45.03453085 136.01912348 -47 136 C-46.34 134.02 -45.68 132.04 -45 130 C-43.86820312 129.93941406 -42.73640625 129.87882813 -41.5703125 129.81640625 C-40.08852855 129.73200083 -38.6067584 129.64735283 -37.125 129.5625 C-36.37863281 129.52318359 -35.63226563 129.48386719 -34.86328125 129.44335938 C-30.80013136 129.28426376 -30.80013136 129.28426376 -27 128 C-19.69565217 127.76811594 -19.69565217 127.76811594 -16 129 C-16 127.68 -16 126.36 -16 125 C-14.2421875 123.40234375 -14.2421875 123.40234375 -11.875 121.9375 C-11.05257812 121.42316406 -10.23015625 120.90882813 -9.3828125 120.37890625 C-6.64614199 118.79522643 -3.82736452 117.41368226 -1 116 C0.70250393 114.71274093 2.37064759 113.37868281 4 112 C4.86625 111.38125 5.7325 110.7625 6.625 110.125 C9.44949174 107.59782318 10.49246718 105.47387998 12 102 C12.33 101.29359375 12.66 100.5871875 13 99.859375 C16.495686 92.30252439 18.2835228 85.36466434 18.625 77.0625 C18.66367188 76.28326172 18.70234375 75.50402344 18.7421875 74.70117188 C18.83544127 72.80112621 18.91875962 70.90059722 19 69 C18.34 69 17.68 69 17 69 C16.505 65.535 16.505 65.535 16 62 C15.34 62 14.68 62 14 62 C9.71428571 54.57142857 9.71428571 54.57142857 8 51 C7.34 51 6.68 51 6 51 C3.58314288 46.77050005 2.65166856 43.87664009 3 39 C2.34 39 1.68 39 1 39 C0.32099863 34.71019217 -0.34092248 30.4179103 -1 26.125 C-1.19078125 24.92101562 -1.3815625 23.71703125 -1.578125 22.4765625 C-2.62612507 15.58970487 -3.28971051 8.96713537 -3 2 C-2.01 2 -1.02 2 0 2 C0 1.34 0 0.68 0 0 Z " fill="#8A664C" transform="translate(142,78)"/>
<path d="M0 0 C2.4375 0.375 2.4375 0.375 5 1 C7.48217309 5.96434618 6.71046305 13.96486007 5.46875 19.26953125 C3.86486063 23.13106923 1.40567409 26.59887457 -1 30 C-1.66 29.67 -2.32 29.34 -3 29 C-3 28.34 -3 27.68 -3 27 C-4.0725 27.66 -5.145 28.32 -6.25 29 C-11.68068634 31.7739477 -17.04456946 31.35732583 -23 31 C-22.98839844 30.37351562 -22.97679688 29.74703125 -22.96484375 29.1015625 C-22.95582031 28.28429687 -22.94679688 27.46703125 -22.9375 26.625 C-22.92589844 25.81289063 -22.91429688 25.00078125 -22.90234375 24.1640625 C-22.85533666 21.95062858 -22.85533666 21.95062858 -24 20 C-25.62463842 19.94604522 -27.24978541 19.90722805 -28.875 19.875 C-29.77992187 19.85179688 -30.68484375 19.82859375 -31.6171875 19.8046875 C-34.18806994 19.75675164 -34.18806994 19.75675164 -36 22 C-36.33 21.01 -36.66 20.02 -37 19 C-36.01 17.515 -36.01 17.515 -35 16 C-32.7578125 15.671875 -32.7578125 15.671875 -30.125 15.75 C-28.82949219 15.77320313 -28.82949219 15.77320313 -27.5078125 15.796875 C-25 16 -25 16 -23.03442383 16.65258789 C-22.36306396 16.76723389 -21.6917041 16.88187988 -21 17 C-18.6776636 15.30051245 -16.65730147 13.63386982 -14.5625 11.6875 C-10.82859793 8.27155967 -7.8453915 5.70963282 -3 4 C-1.19651922 1.98682781 -1.19651922 1.98682781 0 0 Z " fill="#998764" transform="translate(134,3)"/>
<path d="M0 0 C0.886875 -0.02578125 1.77375 -0.0515625 2.6875 -0.078125 C3.450625 0.03015625 4.21375 0.1384375 5 0.25 C7.23551759 3.60327639 7.17283528 4.15743657 6.625 7.9375 C6.45871094 9.14986328 6.45871094 9.14986328 6.2890625 10.38671875 C6.19367188 11.00160156 6.09828125 11.61648437 6 12.25 C7.89666526 12.16227545 9.79238993 12.05408699 11.6875 11.9375 C12.74324219 11.87949219 13.79898438 11.82148437 14.88671875 11.76171875 C18.2490925 11.20905757 20.15560725 10.05742503 23 8.25 C23.99 8.25 24.98 8.25 26 8.25 C26.6875 10.0625 26.6875 10.0625 27 12.25 C24.9429831 14.83445714 22.89819061 15.87521307 19.8125 16.9375 C19.09707031 17.18886719 18.38164063 17.44023438 17.64453125 17.69921875 C17.10183594 17.88097656 16.55914062 18.06273438 16 18.25 C16.51949219 18.61351563 17.03898437 18.97703125 17.57421875 19.3515625 C25.82453893 25.29911309 32.6115963 32.81139917 34.53515625 43.1171875 C34.77488861 45.50100507 34.94395596 47.85539098 35 50.25 C32 50.25 32 50.25 30.4140625 49.06640625 C28.68665774 46.84750234 28.14445538 44.88836611 27.375 42.1875 C24.62852445 34.2532373 19.22794942 27.84812619 11.9375 23.625 C10.968125 23.17125 9.99875 22.7175 9 22.25 C9 21.59 9 20.93 9 20.25 C8.01 20.91 7.02 21.57 6 22.25 C3.73828125 22.4453125 3.73828125 22.4453125 1.3125 22.375 C0.50425781 22.35695313 -0.30398437 22.33890625 -1.13671875 22.3203125 C-1.75160156 22.29710938 -2.36648437 22.27390625 -3 22.25 C-3 21.26 -3 20.27 -3 19.25 C-3.66 19.25 -4.32 19.25 -5 19.25 C-5.12375 18.074375 -5.2475 16.89875 -5.375 15.6875 C-5.72900083 12.75137546 -6.27661355 10.3125874 -7.125 7.4375 C-8 4.25 -8 4.25 -7 1.25 C-4.53183586 0.01591793 -2.75338799 0.04802421 0 0 Z " fill="#85694B" transform="translate(105,21.75)"/>
<path d="M0 0 C1.65 0 3.3 0 5 0 C5.02505615 1.145896 5.0501123 2.29179199 5.07592773 3.47241211 C5.16983106 7.70853598 5.27009275 11.94448928 5.37231445 16.18041992 C5.4157282 18.01664247 5.45739839 19.85290708 5.49731445 21.68920898 C5.55486169 24.32288311 5.61859998 26.95634421 5.68359375 29.58984375 C5.70030624 30.41588608 5.71701874 31.24192841 5.73423767 32.09300232 C5.47807433 35.85476753 5.47807433 35.85476753 7 39 C7.23529412 44.52941176 7.23529412 44.52941176 6 47 C7.32 47 8.64 47 10 47 C11.25664978 49.90600261 12 51.79604584 12 55 C12.53625 55.0825 13.0725 55.165 13.625 55.25 C16.87340691 56.27581271 19.28751859 57.96563894 22 60 C22 60.66 22 61.32 22 62 C27.34688132 64.77245698 31.74126029 66.25704608 37.8125 66.625 C38.97394531 66.69976562 40.13539062 66.77453125 41.33203125 66.8515625 C42.65267578 66.92503906 42.65267578 66.92503906 44 67 C44.33 68.65 44.66 70.3 45 72 C35.08563483 73.96011046 25.2957231 70.53048206 17 65 C17 64.34 17 63.68 17 63 C16.4121875 62.74476563 15.824375 62.48953125 15.21875 62.2265625 C7.98344008 58.22676089 3.67539214 50.10364832 1.18164062 42.50708008 C-1.15127607 34.08257705 -1.38633904 26.14189583 -1.25 17.4375 C-1.24350587 16.07227114 -1.23829107 14.70703557 -1.234375 13.34179688 C-1.15540995 3.46622984 -1.15540995 3.46622984 0 0 Z " fill="#927866" transform="translate(34,141)"/>
<path d="M0 0 C2.64599519 2.64599519 3.17571716 5.47261227 4.0625 9 C4.24095459 9.70552002 4.41940918 10.41104004 4.60327148 11.13793945 C6.03774592 17.25643942 6.42180669 23.21460903 6.64355469 29.47631836 C7.05680771 39.71543973 9.49179089 48.82193285 14 58 C17.23259494 65.16297468 17.23259494 65.16297468 18 69 C18.99 69 19.98 69 21 69 C22.7879537 75.8165735 23.23668569 81.96517526 23 89 C22.34 89 21.68 89 21 89 C21.04125 90.258125 21.0825 91.51625 21.125 92.8125 C21.2390374 96.29064073 21.05925681 96.91111478 19 100 C18.32741333 102.33163378 17.66152556 104.6652039 17 107 C14.99251947 112.82169354 12.93122598 115.53764984 8 119 C7.34 119 6.68 119 6 119 C5.87625 119.61875 5.7525 120.2375 5.625 120.875 C5 123 5 123 3 125 C0.34462628 125.56520003 -2.29144713 125.73788198 -5 126 C-5 125.34 -5 124.68 -5 124 C-3.35 124 -1.7 124 0 124 C0 123.01 0 122.02 0 121 C0.66 121 1.32 121 2 121 C2 120.34 2 119.68 2 119 C2.99 119 3.98 119 5 119 C5 118.34 5 117.68 5 117 C6.485 116.505 6.485 116.505 8 116 C9.21869929 113.49552484 9.21869929 113.49552484 10 111 C10.66 111 11.32 111 12 111 C12 110.34 12 109.68 12 109 C12.99 109 13.98 109 15 109 C15.99 103.06 15.99 103.06 17 97 C17.66 97 18.32 97 19 97 C18.9479776 92.79067062 18.85286132 88.58336981 18.75 84.375 C18.73582031 83.18519531 18.72164062 81.99539062 18.70703125 80.76953125 C18.48109099 72.68086998 17.7484383 68.7484383 12 63 C12 62.01 12 61.02 12 60 C11.34 60 10.68 60 10 60 C7.48295278 54.96590555 6.57209744 50.75189594 6.2109375 45.13671875 C6.12342288 42.94919642 6.12342288 42.94919642 5 41 C4.7360408 37.80316086 4.55617816 34.61315987 4.39453125 31.41015625 C4.23644006 27.57873373 4.23644006 27.57873373 3 24 C2.72357336 20.62583985 2.55294991 17.25198439 2.37890625 13.87109375 C2.25386719 12.92363281 2.12882813 11.97617188 2 11 C1.34 10.67 0.68 10.34 0 10 C0 6.7 0 3.4 0 0 Z " fill="#EDE877" transform="translate(128,71)"/>
<path d="M0 0 C0.66 0 1.32 0 2 0 C2.3690205 11.52164009 2.3690205 11.52164009 0 17 C1.32 16.34 2.64 15.68 4 15 C4.33 15.99 4.66 16.98 5 18 C3.5625 20.6875 3.5625 20.6875 2 23 C1.34 22.67 0.68 22.34 0 22 C0 21.34 0 20.68 0 20 C-1.6396875 20.99 -1.6396875 20.99 -3.3125 22 C-8.46867145 24.62899945 -13.33770856 24.37471046 -19 24 C-19 22.68 -19 21.36 -19 20 C-18.01 19.34 -17.02 18.68 -16 18 C-14.98133771 16.34467377 -13.98189187 14.67739862 -13 13 C-11.29711728 10.98750224 -9.87828706 9.93134142 -7.5625 8.625 C-4.08241504 6.41811686 -1.83907437 3.67814874 0 0 Z " fill="#C6D13A" transform="translate(131,10)"/>
<path d="M0 0 C0.66 0.33 1.32 0.66 2 1 C1.67 1.66 1.34 2.32 1 3 C1.66 3 2.32 3 3 3 C3.33 2.34 3.66 1.68 4 1 C4.16445781 9.55180611 -0.61760663 14.71908715 -6 21 C-7.20972934 22.20729527 -8.43638276 23.39814928 -9.6875 24.5625 C-13.38856424 28.02368045 -15.37239567 32.10947222 -17.54296875 36.64453125 C-19.13181501 39.21309505 -20.20964841 39.96631515 -23 41 C-24.35373797 36.93878609 -23.42220892 33.90071863 -22 30 C-20.55206467 27.17604666 -19.03064648 24.44718935 -17 22 C-16.34 22 -15.68 22 -15 22 C-14.73703125 21.41476563 -14.4740625 20.82953125 -14.203125 20.2265625 C-12.94609632 17.90024319 -11.56160982 16.29269508 -9.75 14.375 C-5.7895162 9.97446245 -2.88195608 5.15162845 0 0 Z " fill="#8F6B5B" transform="translate(61,96)"/>
<path d="M0 0 C0.33 0 0.66 0 1 0 C1 1.98 1 3.96 1 6 C0.21625 6.226875 -0.5675 6.45375 -1.375 6.6875 C-4.75219612 8.37609806 -4.68984977 9.53195528 -6 13 C-7.82573687 15.49293249 -9.74986899 17.87827321 -12 20 C-12.66 20 -13.32 20 -14 20 C-14 20.99 -14 21.98 -14 23 C-14.66 23 -15.32 23 -16 23 C-16.33 24.65 -16.66 26.3 -17 28 C-17.66 28 -18.32 28 -19 28 C-19 28.66 -19 29.32 -19 30 C-19.99 30 -20.98 30 -22 30 C-22.12375 30.680625 -22.2475 31.36125 -22.375 32.0625 C-23 35 -23 35 -24 37.8125 C-25.69608429 43.68397649 -25.47236776 49.87354844 -25.625 55.9375 C-25.66367187 57.19369141 -25.70234375 58.44988281 -25.7421875 59.74414062 C-25.83603217 62.82928426 -25.92172316 65.91442865 -26 69 C-25.34 69 -24.68 69 -24 69 C-24 70.65 -24 72.3 -24 74 C-23.01 74.33 -22.02 74.66 -21 75 C-19.9375 76.9609375 -19.9375 76.9609375 -19 79.375 C-17.74227466 82.59268066 -16.60719328 84.70389228 -14 87 C-14.495 87.99 -14.495 87.99 -15 89 C-21.38778389 84.80231344 -24.47780341 78.02611907 -27 71 C-27.53625 69.906875 -28.0725 68.81375 -28.625 67.6875 C-31.11771866 61.21144198 -30.22333138 53.81574271 -30 47 C-29.34 47 -28.68 47 -28 47 C-28 44.69 -28 42.38 -28 40 C-26.515 39.505 -26.515 39.505 -25 39 C-25.0928125 37.9790625 -25.0928125 37.9790625 -25.1875 36.9375 C-24.94360436 33.11646827 -23.73021401 30.39634602 -22 27 C-21.01 26.34 -20.02 25.68 -19 25 C-18.505 24.154375 -18.01 23.30875 -17.5 22.4375 C-16 20 -16 20 -13 19 C-12.39938767 17.09821215 -12.39938767 17.09821215 -12 15 C-11.34 14.01 -10.68 13.02 -10 12 C-9.34 12 -8.68 12 -8 12 C-7.690625 11.21625 -7.38125 10.4325 -7.0625 9.625 C-6 7 -6 7 -5 5 C-4.01 5 -3.02 5 -2 5 C-1.34 3.35 -0.68 1.7 0 0 Z " fill="#E2E463" transform="translate(76,106)"/>
<path d="M0 0 C7.66127325 9.84670056 13.15589232 19.55642659 15 32 C15.17402344 32.81082031 15.34804687 33.62164062 15.52734375 34.45703125 C16.55119996 40.02485886 15.22927382 43.61980388 12.9140625 48.71484375 C11.77512139 51.56219652 11.93093966 53.96134486 12 57 C10.5 60.375 10.5 60.375 9 63 C8.34 62.67 7.68 62.34 7 62 C7 60.68 7 59.36 7 58 C7.66 58 8.32 58 9 58 C8.7215625 56.453125 8.7215625 56.453125 8.4375 54.875 C8.0128756 51.11404107 8.37326996 48.69074359 9 45 C9.25360921 42.04505268 9.40939715 39.08666169 9.5625 36.125 C9.60568359 35.34125 9.64886719 34.5575 9.69335938 33.75 C9.79853351 31.83349351 9.89967925 29.91676667 10 28 C9.34 28 8.68 28 8 28 C8.00902344 27.33355469 8.01804688 26.66710937 8.02734375 25.98046875 C7.79262161 18.68367186 5.83688063 14.31402039 1.59375 8.41015625 C0.10464695 6.15825286 -0.67834399 4.65940591 -1 2 C-0.67 1.34 -0.34 0.68 0 0 Z " fill="#86614A" transform="translate(151,119)"/>
<path d="M0 0 C0 6.93 0 13.86 0 21 C-2.64 21 -5.28 21 -8 21 C-8 20.34 -8 19.68 -8 19 C-8.66 19 -9.32 19 -10 19 C-10.12375 17.824375 -10.2475 16.64875 -10.375 15.4375 C-10.72900083 12.50137546 -11.27661355 10.0625874 -12.125 7.1875 C-13 4 -13 4 -12 1 C-10 0 -10 0 0 0 Z " fill="#6F3303" transform="translate(110,22)"/>
<path d="M0 0 C1.15957207 3.47871621 0.77456651 4.34219645 -0.4375 7.6875 C-0.72496094 8.49574219 -1.01242188 9.30398437 -1.30859375 10.13671875 C-1.53675781 10.75160156 -1.76492187 11.36648437 -2 12 C-2.66 12 -3.32 12 -4 12 C-4 12.99 -4 13.98 -4 15 C-1.56070254 13.07423885 0.80090595 11.19909405 3 9 C2.60483617 11.76614681 2.24624267 12.79347389 0.0625 14.625 C-2.65083957 17.74945163 -2.83217976 20.44674138 -3.5078125 24.453125 C-4.19552533 28.01176601 -5.29722042 30.79877438 -7 34 C-8.485 34.495 -8.485 34.495 -10 35 C-10.73323796 37.01508358 -10.73323796 37.01508358 -11 39 C-11.33 37.68 -11.66 36.36 -12 35 C-12.66 35 -13.32 35 -14 35 C-13.44823448 29.38670546 -11.92842635 24.84227203 -9.6875 19.6875 C-9.05150473 18.19165212 -8.41608576 16.69555909 -7.78125 15.19921875 C-7.47445312 14.48169434 -7.16765625 13.76416992 -6.8515625 13.02490234 C-5.41743714 9.61474302 -4.11789897 6.15292394 -2.82421875 2.6875 C-2 1 -2 1 0 0 Z " fill="#8C6D51" transform="translate(76,64)"/>
<path d="M0 0 C0 0.66 0 1.32 0 2 C0.66 2 1.32 2 2 2 C2 2.66 2 3.32 2 4 C3.32 4.66 4.64 5.32 6 6 C5.67 6.66 5.34 7.32 5 8 C3.68 7.34 2.36 6.68 1 6 C1 5.01 1 4.02 1 3 C0.01 3 -0.98 3 -2 3 C-2 2.34 -2 1.68 -2 1 C-5.63 1 -9.26 1 -13 1 C-13.66 2.32 -14.32 3.64 -15 5 C-16.61850009 6.95751024 -18.29044987 8.8714827 -20 10.75 C-20.45117188 11.25660156 -20.90234375 11.76320313 -21.3671875 12.28515625 C-22.53360812 13.56545817 -23.76283971 14.78791729 -25 16 C-25.66 16 -26.32 16 -27 16 C-27 17.98 -27 19.96 -27 22 C-27.99 22.33 -28.98 22.66 -30 23 C-29.979375 24.299375 -29.95875 25.59875 -29.9375 26.9375 C-29.91600546 28.29165633 -29.92851801 29.64756083 -30 31 C-30.495 31.495 -30.495 31.495 -31 32 C-31.23075082 33.34747084 -31.41153063 34.70377565 -31.5625 36.0625 C-31.706875 37.361875 -31.85125 38.66125 -32 40 C-33.485 40.495 -33.485 40.495 -35 41 C-34.938125 41.886875 -34.87625 42.77375 -34.8125 43.6875 C-35.01951982 47.34485017 -35.916074 49.04777151 -38 52 C-38.66 51.67 -39.32 51.34 -40 51 C-39.51080078 49.7315625 -39.51080078 49.7315625 -39.01171875 48.4375 C-38.10733139 46.08982778 -37.20644393 43.74080508 -36.30859375 41.390625 C-35.56998354 39.47685286 -34.82052622 37.56693776 -34.03515625 35.671875 C-32.04274704 30.79493306 -31.34951801 26.20661318 -31 21 C-30.34 21 -29.68 21 -29 21 C-29.07992187 20.27941406 -29.15984375 19.55882813 -29.2421875 18.81640625 C-28.92374197 15.11319287 -27.54095248 13.71885454 -25.125 10.9375 C-22.19796302 7.58981935 -22.19796302 7.58981935 -19.9375 3.80078125 C-18.60574649 1.24270472 -16.61824296 0.5355046 -14.00390625 -0.46875 C-9.40185531 -1.6887869 -4.52738473 -1.50912824 0 0 Z " fill="#F0E97D" transform="translate(117,54)"/>
<path d="M0 0 C0.66 0.66 1.32 1.32 2 2 C1.9765625 4.1640625 1.9765625 4.1640625 1.625 6.625 C1.45871094 7.85089844 1.45871094 7.85089844 1.2890625 9.1015625 C1.14597656 10.04128906 1.14597656 10.04128906 1 11 C2.89666526 10.91227545 4.79238993 10.80408699 6.6875 10.6875 C8.27111328 10.60048828 8.27111328 10.60048828 9.88671875 10.51171875 C13.2490925 9.95905757 15.15560725 8.80742503 18 7 C18.99 7 19.98 7 21 7 C21.6875 8.8125 21.6875 8.8125 22 11 C18.77587605 15.07257762 13.83445939 16.5688861 9 18 C6.22274132 18.28976214 3.7994781 18.20736875 1 18 C1 18.99 1 19.98 1 21 C-1.97 21 -4.94 21 -8 21 C-8 20.67 -8 20.34 -8 20 C-5.36 20 -2.72 20 0 20 C-0.185625 18.9275 -0.37125 17.855 -0.5625 16.75 C-1.29097737 11.1245359 -0.60795738 5.61191429 0 0 Z " fill="#866844" transform="translate(110,23)"/>
<path d="M0 0 C0.66 0.33 1.32 0.66 2 1 C1.67 1.33 1.34 1.66 1 2 C1.66 2.66 2.32 3.32 3 4 C2.24074219 4.73605469 1.48148438 5.47210938 0.69921875 6.23046875 C-0.30495521 7.2158731 -1.30884654 8.20156552 -2.3125 9.1875 C-2.81201172 9.67025391 -3.31152344 10.15300781 -3.82617188 10.65039062 C-6.78120132 13.56628061 -8.89090447 16.45022999 -11 20 C-11.66 20 -12.32 20 -13 20 C-13.33 21.32 -13.66 22.64 -14 24 C-13.98839844 23.37351562 -13.97679688 22.74703125 -13.96484375 22.1015625 C-13.95582031 21.28429687 -13.94679688 20.46703125 -13.9375 19.625 C-13.92589844 18.81289063 -13.91429688 18.00078125 -13.90234375 17.1640625 C-13.85533666 14.95062858 -13.85533666 14.95062858 -15 13 C-16.62463842 12.94604522 -18.24978541 12.90722805 -19.875 12.875 C-20.77992187 12.85179687 -21.68484375 12.82859375 -22.6171875 12.8046875 C-25.18806994 12.75675164 -25.18806994 12.75675164 -27 15 C-27.33 14.01 -27.66 13.02 -28 12 C-27.34 11.01 -26.68 10.02 -26 9 C-23.7578125 8.671875 -23.7578125 8.671875 -21.125 8.75 C-19.82949219 8.77320313 -19.82949219 8.77320313 -18.5078125 8.796875 C-16 9 -16 9 -14.0703125 9.82421875 C-11.67532195 10.24898139 -11.67532195 10.24898139 -8.984375 7.91015625 C-7.89515353 6.97369145 -6.81731902 6.02385314 -5.75 5.0625 C-5.19570312 4.58103516 -4.64140625 4.09957031 -4.0703125 3.60351562 C-2.70366665 2.41359122 -1.35049386 1.20822485 0 0 Z " fill="#936F44" transform="translate(125,10)"/>
<path d="M0 0 C1.65 0 3.3 0 5 0 C5 11.55 5 23.1 5 35 C4.67 35 4.34 35 4 35 C2.83288905 26.33003296 2.90255986 17.72630608 3 9 C1.44926853 10.55073147 1.87030872 12.03062253 1.8671875 14.18359375 C1.86525391 15.45106445 1.86525391 15.45106445 1.86328125 16.74414062 C1.86714844 17.63294922 1.87101562 18.52175781 1.875 19.4375 C1.87113281 20.32244141 1.86726563 21.20738281 1.86328125 22.11914062 C1.86457031 22.96541016 1.86585937 23.81167969 1.8671875 24.68359375 C1.86831543 25.46275146 1.86944336 26.24190918 1.87060547 27.04467773 C1.87854847 29.07974488 1.87854847 29.07974488 3 31 C3.06950541 32.54023996 3.08452357 34.08334988 3.0625 35.625 C3.05347656 36.44226563 3.04445313 37.25953125 3.03515625 38.1015625 C3.02355469 38.72804687 3.01195312 39.35453125 3 40 C2.34 40 1.68 40 1 40 C-0.57518852 35.11952986 -1.24818683 31.03861184 -1.23046875 25.859375 C-1.22853516 24.54195312 -1.22660156 23.22453125 -1.22460938 21.8671875 C-1.21840576 21.19139648 -1.21220215 20.51560547 -1.20581055 19.81933594 C-1.18742402 17.74141296 -1.18530217 15.66393382 -1.18554688 13.5859375 C-1.14061722 3.42185167 -1.14061722 3.42185167 0 0 Z " fill="#8C7557" transform="translate(34,141)"/>
<path d="M0 0 C0.66 0.33 1.32 0.66 2 1 C2.43445812 3.62183409 2.75222119 6.17178114 3 8.8125 C3.16317103 10.36090981 3.32855131 11.90908834 3.49609375 13.45703125 C3.57843262 14.2248291 3.66077148 14.99262695 3.74560547 15.78369141 C4.08593522 23.92173997 4.08593522 23.92173997 7 31 C7.23287008 32.68183948 7.41264166 34.3712416 7.5625 36.0625 C7.64628906 36.98160156 7.73007813 37.90070313 7.81640625 38.84765625 C7.87699219 39.55792969 7.93757812 40.26820312 8 41 C7.34 41 6.68 41 6 41 C3.90429574 35.30601106 2.54981916 30.04801071 2 24 C1.34 24 0.68 24 0 24 C-2.15721701 16.52678392 -3.46530864 9.78961124 -3 2 C-2.01 2 -1.02 2 0 2 C0 1.34 0 0.68 0 0 Z " fill="#836855" transform="translate(142,78)"/>
<path d="M0 0 C-0.33 1.65 -0.66 3.3 -1 5 C-9.89575224 8.6719567 -18.56900882 8.29540228 -28 8 C-27.34 6.02 -26.68 4.04 -26 2 C-24.86820312 1.93941406 -23.73640625 1.87882813 -22.5703125 1.81640625 C-21.08852855 1.73200083 -19.6067584 1.64735283 -18.125 1.5625 C-17.37863281 1.52318359 -16.63226563 1.48386719 -15.86328125 1.44335938 C-10.26729252 1.11566634 -5.69705265 -0.09188795 0 0 Z " fill="#826853" transform="translate(123,206)"/>
<path d="M0 0 C0.99 0.33 1.98 0.66 3 1 C5.05893621 1.22325814 7.12233653 1.40705759 9.1875 1.5625 C10.27417969 1.64628906 11.36085938 1.73007813 12.48046875 1.81640625 C13.72763672 1.90728516 13.72763672 1.90728516 15 2 C15 2.66 15 3.32 15 4 C25.23 4 35.46 4 46 4 C46 3.34 46 2.68 46 2 C50.29 2 54.58 2 59 2 C59 2.66 59 3.32 59 4 C57.2984375 4.2165625 57.2984375 4.2165625 55.5625 4.4375 C52.19222799 4.61171478 52.19222799 4.61171478 51 6 C48.1156618 6.08865208 45.25537842 6.11521296 42.37109375 6.09765625 C41.07474754 6.09553383 41.07474754 6.09553383 39.75221252 6.09336853 C36.98060708 6.08775239 34.2090812 6.07519719 31.4375 6.0625 C29.5631522 6.05748708 27.68880315 6.05292381 25.81445312 6.04882812 C21.20960456 6.03777772 16.60481579 6.0205023 12 6 C11.67 5.01 11.34 4.02 11 3 C10.06027344 3.05220703 10.06027344 3.05220703 9.1015625 3.10546875 C8.28429687 3.13253906 7.46703125 3.15960938 6.625 3.1875 C5.81289062 3.22230469 5.00078125 3.25710937 4.1640625 3.29296875 C3.44992188 3.19628906 2.73578125 3.09960938 2 3 C1.34 2.01 0.68 1.02 0 0 Z " fill="#F4EB85" transform="translate(64,195)"/>
<path d="M0 0 C0.103125 0.639375 0.20625 1.27875 0.3125 1.9375 C0.539375 2.618125 0.76625 3.29875 1 4 C1.99 4.33 2.98 4.66 4 5 C4 5.66 4 6.32 4 7 C5.32 6.67 6.64 6.34 8 6 C8.33 8.97 8.66 11.94 9 15 C8.01 15 7.02 15 6 15 C6.09611572 15.70608398 6.19223145 16.41216797 6.29125977 17.13964844 C6.72276527 20.34210906 7.14275114 23.54597815 7.5625 26.75 C7.71396484 27.86117187 7.86542969 28.97234375 8.02148438 30.1171875 C8.16005859 31.18710938 8.29863281 32.25703125 8.44140625 33.359375 C8.63778687 34.83615723 8.63778687 34.83615723 8.83813477 36.34277344 C9 39 9 39 8 43 C7.67 40.03 7.34 37.06 7 34 C6.34 34 5.68 34 5 34 C3.8517315 31.703463 3.88438825 30.41686833 3.90234375 27.8671875 C3.90717773 26.65869141 3.90717773 26.65869141 3.91210938 25.42578125 C3.92048828 24.58402344 3.92886719 23.74226563 3.9375 22.875 C3.94201172 22.02550781 3.94652344 21.17601563 3.95117188 20.30078125 C3.96297126 18.20049091 3.98090694 16.1002367 4 14 C4.99 14 5.98 14 7 14 C7 13.34 7 12.68 7 12 C5.35 12 3.7 12 2 12 C2 10.35 2 8.7 2 7 C1.34 7 0.68 7 0 7 C0 4.69 0 2.38 0 0 Z " fill="#B3B43D" transform="translate(133,65)"/>
<path d="M0 0 C0.33 1.32 0.66 2.64 1 4 C0.01 4.66 -0.98 5.32 -2 6 C-2.2792878 8.87379496 -2.37184164 11.5291515 -2.328125 14.40234375 C-2.32625183 15.23584854 -2.32437866 16.06935333 -2.32244873 16.92811584 C-2.31572033 18.69259636 -2.30179023 20.45706176 -2.28125 22.22143555 C-2.25016504 24.92315529 -2.24028667 27.62429123 -2.234375 30.32617188 C-2.22520211 32.03906961 -2.21482543 33.75196141 -2.203125 35.46484375 C-2.19887512 36.2742894 -2.19462524 37.08373505 -2.19024658 37.91770935 C-2.14853687 41.19155047 -2.04223174 43.87330477 -1 47 C-0.87218214 49.67394964 -0.95608129 52.32095857 -1 55 C-0.01 55 0.98 55 2 55 C2 55.99 2 56.98 2 58 C2.66 58 3.32 58 4 58 C4 59.32 4 60.64 4 62 C4.639375 62.28875 5.27875 62.5775 5.9375 62.875 C8 64 8 64 9 66 C6.125 65.3125 6.125 65.3125 3 64 C1.35469584 61.08332445 1 59.35279018 1 56 C-0.32 56 -1.64 56 -3 56 C-2.96744792 53.94921875 -2.93489583 51.8984375 -2.90234375 49.84765625 C-2.79438816 47.98267859 -2.79438816 47.98267859 -4 47 C-4.08861992 44.1883662 -4.11522355 41.40141745 -4.09765625 38.58984375 C-4.0962413 37.74780899 -4.09482635 36.90577423 -4.09336853 36.03822327 C-4.08775263 33.33794665 -4.07519748 30.63775172 -4.0625 27.9375 C-4.05748705 26.11132932 -4.05292379 24.28515734 -4.04882812 22.45898438 C-4.03777804 17.97262458 -4.02050279 13.48632616 -4 9 C-4.99 9 -5.98 9 -7 9 C-5.44499019 5.18315774 -2.96404505 2.80804268 0 0 Z " fill="#AAA440" transform="translate(43,132)"/>
<path d="M0 0 C2.64599519 2.64599519 3.17571716 5.47261227 4.0625 9 C4.24095459 9.70552002 4.41940918 10.41104004 4.60327148 11.13793945 C6.03672634 17.25209061 6.43255361 23.20858424 6.63696289 29.4675293 C6.89514979 36.22673001 8.26118473 42.46999266 10 49 C10.34601921 50.6640792 10.68364807 52.33002684 11 54 C10.67 53.34 10.34 52.68 10 52 C9.34 52 8.68 52 8 52 C7.86722656 51.37351563 7.73445312 50.74703125 7.59765625 50.1015625 C7.42105469 49.28429687 7.24445313 48.46703125 7.0625 47.625 C6.88847656 46.81289062 6.71445313 46.00078125 6.53515625 45.1640625 C6.07669307 42.970537 6.07669307 42.970537 5 41 C4.7360408 37.80316086 4.55617816 34.61315987 4.39453125 31.41015625 C4.23644006 27.57873373 4.23644006 27.57873373 3 24 C2.72357336 20.62583985 2.55294991 17.25198439 2.37890625 13.87109375 C2.25386719 12.92363281 2.12882813 11.97617188 2 11 C1.34 10.67 0.68 10.34 0 10 C0 6.7 0 3.4 0 0 Z " fill="#E0E35F" transform="translate(128,71)"/>
<path d="M0 0 C0.33 0 0.66 0 1 0 C0.98952637 0.65895264 0.97905273 1.31790527 0.96826172 1.99682617 C0.44862896 19.62690469 0.44862896 19.62690469 3 37 C3.33 37.33 3.66 37.66 4 38 C4.04063832 39.66617115 4.042721 41.33388095 4 43 C1.525 43.495 1.525 43.495 -1 44 C-1.33 42.35 -1.66 40.7 -2 39 C-1.34 39 -0.68 39 0 39 C-0.14107747 37.54119891 -0.28802415 36.08296449 -0.4375 34.625 C-0.51871094 33.81289062 -0.59992187 33.00078125 -0.68359375 32.1640625 C-0.89090114 29.95727195 -0.89090114 29.95727195 -2 28 C-2.09505069 26.56365857 -2.13072867 25.12307525 -2.1328125 23.68359375 C-2.13410156 22.83732422 -2.13539062 21.99105469 -2.13671875 21.11914062 C-2.13285156 20.23419922 -2.12898438 19.34925781 -2.125 18.4375 C-2.12886719 17.54869141 -2.13273437 16.65988281 -2.13671875 15.74414062 C-2.13542969 14.89916016 -2.13414063 14.05417969 -2.1328125 13.18359375 C-2.13168457 12.40556396 -2.13055664 11.62753418 -2.12939453 10.82592773 C-2 9 -2 9 -1 8 C-0.76924918 6.65252916 -0.58846937 5.29622435 -0.4375 3.9375 C-0.293125 2.638125 -0.14875 1.33875 0 0 Z " fill="#82614D" transform="translate(37,142)"/>
<path d="M0 0 C11.82206968 -0.86083032 11.82206968 -0.86083032 15.4375 2.125 C16.283125 3.07375 17.12875 4.0225 18 5 C18.72509766 5.7734375 18.72509766 5.7734375 19.46484375 6.5625 C23 10.47957064 23 10.47957064 23 14 C18.71095765 12.4114658 16.67654474 9.56872632 14 6 C14 5.34 14 4.68 14 4 C13.01 4.33 12.02 4.66 11 5 C12.65 6.65 14.3 8.3 16 10 C15.67 10.66 15.34 11.32 15 12 C13.9790625 10.88625 13.9790625 10.88625 12.9375 9.75 C9.96926868 6.75618047 6.71285128 4.96562715 3 3 C3 2.34 3 1.68 3 1 C2.01 1.33 1.02 1.66 0 2 C0 1.34 0 0.68 0 0 Z " fill="#967D4B" transform="translate(111,41)"/>
<path d="M0 0 C0.33 1.32 0.66 2.64 1 4 C0.34 4 -0.32 4 -1 4 C-1 10.93 -1 17.86 -1 25 C-0.34 25 0.32 25 1 25 C1.0825 25.5775 1.165 26.155 1.25 26.75 C2.20531013 29.6159304 3.78469173 30.9990764 6 33 C4.02 33.495 4.02 33.495 2 34 C0.23537317 30.91190305 0 29.76687864 0 26 C-0.99 26 -1.98 26 -3 26 C-3 24.68 -3 23.36 -3 22 C-3.66 22 -4.32 22 -5 22 C-5 17.71 -5 13.42 -5 9 C-4.34 9 -3.68 9 -3 9 C-3 7.35 -3 5.7 -3 4 C-2.01 3.67 -1.02 3.34 0 3 C0 2.01 0 1.02 0 0 Z " fill="#BA9550" transform="translate(76,142)"/>
<path d="M0 0 C2.05078125 0.03255208 4.1015625 0.06510417 6.15234375 0.09765625 C5.82234375 0.75765625 5.49234375 1.41765625 5.15234375 2.09765625 C2.76642332 2.67801527 0.39452579 3.06305882 -2.03515625 3.41015625 C-4.52997277 4.35646596 -4.74658393 5.74870197 -5.84765625 8.09765625 C-6.83765625 8.42765625 -7.82765625 8.75765625 -8.84765625 9.09765625 C-8.84765625 9.75765625 -8.84765625 10.41765625 -8.84765625 11.09765625 C-10.22265625 12.72265625 -10.22265625 12.72265625 -11.84765625 14.09765625 C-12.50765625 14.09765625 -13.16765625 14.09765625 -13.84765625 14.09765625 C-13.84765625 15.08765625 -13.84765625 16.07765625 -13.84765625 17.09765625 C-14.50765625 17.09765625 -15.16765625 17.09765625 -15.84765625 17.09765625 C-15.90953125 17.88140625 -15.97140625 18.66515625 -16.03515625 19.47265625 C-16.43734375 20.77203125 -16.43734375 20.77203125 -16.84765625 22.09765625 C-19.41015625 23.41015625 -19.41015625 23.41015625 -21.84765625 24.09765625 C-17.18885242 14.06330955 -11.81188156 7.60851463 -2.84765625 1.09765625 C-1.84765625 0.09765625 -1.84765625 0.09765625 0 0 Z " fill="#8C735E" transform="translate(95.84765625,40.90234375)"/>
<path d="M0 0 C0.66 0.33 1.32 0.66 2 1 C1.67 1.33 1.34 1.66 1 2 C0.835 3.155 0.67 4.31 0.5 5.5 C0 9 0 9 -1 10 C-1 11.97398582 -0.99714973 13.94809349 -0.96875 15.921875 C-1.00558125 18.37115342 -1.40670669 20.62682678 -2 23 C-1.34 23 -0.68 23 0 23 C0 25.31 0 27.62 0 30 C0.99 30 1.98 30 3 30 C3 31.65 3 33.3 3 35 C3.99 35.33 4.98 35.66 6 36 C7.0625 37.9609375 7.0625 37.9609375 8 40.375 C9.25772534 43.59268066 10.39280672 45.70389228 13 48 C12.67 48.66 12.34 49.32 12 50 C5.61221611 45.80231344 2.52219659 39.02611907 0 32 C-0.53625 30.906875 -1.0725 29.81375 -1.625 28.6875 C-4.11771866 22.21144198 -3.22333138 14.81574271 -3 8 C-2.34 8 -1.68 8 -1 8 C-1.020625 6.865625 -1.04125 5.73125 -1.0625 4.5625 C-1 1 -1 1 0 0 Z " fill="#D8E051" transform="translate(49,145)"/>
<path d="M0 0 C0.66 0 1.32 0 2 0 C3.25664978 2.90600261 4 4.79604584 4 8 C4.53625 8.0825 5.0725 8.165 5.625 8.25 C8.87340691 9.27581271 11.28751859 10.96563894 14 13 C14 13.66 14 14.32 14 15 C20.35858688 18.3156514 26.88281703 20.24285288 34 21 C34 21.66 34 22.32 34 23 C31.79005163 22.74267724 29.58205976 22.46852314 27.375 22.1875 C26.14523438 22.03667969 24.91546875 21.88585937 23.6484375 21.73046875 C18.42929289 20.68552224 14.99458831 19.49188247 12 15 C9.94074861 14.27617533 9.94074861 14.27617533 8 14 C8 13.34 8 12.68 8 12 C7.01 11.67 6.02 11.34 5 11 C5 10.34 5 9.68 5 9 C4.34 9 3.68 9 3 9 C0.56839395 5.63316085 0 4.26649636 0 0 Z " fill="#85684C" transform="translate(42,188)"/>
<path d="M0 0 C1.15957207 3.47871621 0.77456651 4.34219645 -0.4375 7.6875 C-0.72496094 8.49574219 -1.01242188 9.30398437 -1.30859375 10.13671875 C-1.53675781 10.75160156 -1.76492187 11.36648437 -2 12 C-2.66 12 -3.32 12 -4 12 C-4 12.99 -4 13.98 -4 15 C-1.56070254 13.07423885 0.80090595 11.19909405 3 9 C2.60483617 11.76614681 2.24624267 12.79347389 0.0625 14.625 C-3.07233765 18.23481305 -3.32763366 22.36421099 -4 27 C-4.33 27 -4.66 27 -5 27 C-5 24.03 -5 21.06 -5 18 C-5.99 18 -6.98 18 -8 18 C-7.34005027 13.99581065 -6.11658275 10.49455548 -4.5625 6.75 C-3.91474609 5.16445312 -3.91474609 5.16445312 -3.25390625 3.546875 C-2 1 -2 1 0 0 Z " fill="#ABA552" transform="translate(76,64)"/>
<path d="M0 0 C6.92307692 2 6.92307692 2 9 5 C9 6.32 9 7.64 9 9 C9.99 9.33 10.98 9.66 12 10 C12.13615919 13.00155373 12.2346398 15.996821 12.3125 19 C12.3753418 20.25876953 12.3753418 20.25876953 12.43945312 21.54296875 C12.56217264 27.8752958 11.17596659 32.16225202 7 37 C6.01 37.66 5.02 38.32 4 39 C5.05717089 36.80433739 6.09119306 34.87840925 7.55859375 32.921875 C9.55878752 28.86728166 9.36502606 25.3911653 9.25 20.9375 C9.24484375 20.13505859 9.2396875 19.33261719 9.234375 18.50585938 C9.18547012 14.82271065 8.99767176 11.56332763 8 8 C7.34 8 6.68 8 6 8 C5.7525 7.21625 5.505 6.4325 5.25 5.625 C3.84610901 2.67682892 2.99324263 2.0975223 0 1 C0 0.67 0 0.34 0 0 Z " fill="#B58F4B" transform="translate(110,136)"/>
<path d="M0 0 C0.66 0.33 1.32 0.66 2 1 C2 1.99 2 2.98 2 4 C-2.21417875 8.10882428 -6.70067931 10.53960111 -12 13 C-13.155 13.5775 -14.31 14.155 -15.5 14.75 C-16.7375 15.36875 -16.7375 15.36875 -18 16 C-18 14.68 -18 13.36 -18 12 C-16.2421875 10.40234375 -16.2421875 10.40234375 -13.875 8.9375 C-13.05515625 8.42445313 -12.2353125 7.91140625 -11.390625 7.3828125 C-8.65144715 5.7983861 -5.82953162 4.41476581 -3 3 C-1.18445841 1.43897509 -1.18445841 1.43897509 0 0 Z " fill="#8C7448" transform="translate(144,191)"/>
<path d="M0 0 C2.90926972 3.66004901 5.24289704 7.61384599 7.625 11.625 C8.03234375 12.305625 8.4396875 12.98625 8.859375 13.6875 C12.07827391 19.08075447 13.11703052 21.68035205 13 28 C12.34 28 11.68 28 11 28 C10.82984375 27.33613281 10.6596875 26.67226562 10.484375 25.98828125 C9.04254475 20.73480399 7.67535567 17.12085333 4 13 C-0.55901794 5.96883853 -0.55901794 5.96883853 -1 2 C-0.67 1.34 -0.34 0.68 0 0 Z " fill="#8E7165" transform="translate(151,119)"/>
<path d="M0 0 C0 0.66 0 1.32 0 2 C1.175625 1.9071875 1.175625 1.9071875 2.375 1.8125 C3.674375 1.9053125 3.674375 1.9053125 5 2 C5.99 3.485 5.99 3.485 7 5 C6.36707031 4.84660156 5.73414062 4.69320312 5.08203125 4.53515625 C0.95973151 3.81937036 -3.13766507 3.63849837 -7.3125 3.4375 C-8.14845703 3.39431641 -8.98441406 3.35113281 -9.84570312 3.30664062 C-11.89696935 3.20114693 -13.9484648 3.10012685 -16 3 C-16.33 3.99 -16.66 4.98 -17 6 C-18.32 6 -19.64 6 -21 6 C-21 6.66 -21 7.32 -21 8 C-21.66 8 -22.32 8 -23 8 C-23.33 8.99 -23.66 9.98 -24 11 C-24.66 10.67 -25.32 10.34 -26 10 C-25.67 9.01 -25.34 8.02 -25 7 C-24.01 7 -23.02 7 -22 7 C-22 6.01 -22 5.02 -22 4 C-20.35 4 -18.7 4 -17 4 C-17 3.34 -17 2.68 -17 2 C-11.35600642 -0.44064587 -6.02248522 -0.19289099 0 0 Z " fill="#AF8745" transform="translate(103,131)"/>
<path d="M0 0 C0.33 0.99 0.66 1.98 1 3 C1.66 3 2.32 3 3 3 C3.33 5.31 3.66 7.62 4 10 C4.66 10 5.32 10 6 10 C6.0544207 12.68777802 6.09387266 15.37443212 6.125 18.0625 C6.14175781 18.81466797 6.15851563 19.56683594 6.17578125 20.34179688 C6.22935872 26.52999451 5.51261376 31.73107935 2 37 C1.67 38.03125 1.34 39.0625 1 40.125 C0 43 0 43 -2 44 C1 35 1 35 2.03125 32.125 C3.06450429 28.79192165 3.63178507 25.57750449 4.125 22.125 C4.29257813 20.97257812 4.46015625 19.82015625 4.6328125 18.6328125 C4.75398437 17.76398438 4.87515625 16.89515625 5 16 C4.34 16 3.68 16 3 16 C2.03929566 13.11788698 1.89418117 11.30149956 1.9375 8.3125 C1.94652344 7.50425781 1.95554688 6.69601563 1.96484375 5.86328125 C1.98224609 4.94095703 1.98224609 4.94095703 2 4 C1.34 4 0.68 4 0 4 C0 2.68 0 1.36 0 0 Z " fill="#A9A33E" transform="translate(155,137)"/>
<path d="M0 0 C0.66 0.66 1.32 1.32 2 2 C-0.47841964 4.80496817 -3.20256207 6.32957227 -6.5 8.0625 C-9.444187 9.61769555 -12.22683295 11.15122196 -15 13 C-17.32108669 13.70812814 -19.65377147 14.38024152 -22 15 C-22 13.68 -22 12.36 -22 11 C-21.41992188 10.82984375 -20.83984375 10.6596875 -20.2421875 10.484375 C-15.2116828 8.92375638 -11.31511362 7.09562499 -7 4 C-4.68899138 2.62372861 -2.34716095 1.31441013 0 0 Z " fill="#957A66" transform="translate(144,196)"/>
<path d="M0 0 C4.95 0 9.9 0 15 0 C13.02 0.99 13.02 0.99 11 2 C11.99 2.99 12.98 3.98 14 5 C9.38 5 4.76 5 0 5 C0 3.35 0 1.7 0 0 Z " fill="#7E664D" transform="translate(98,209)"/>
<path d="M0 0 C0 3 0 3 -1.3125 4.6875 C-3 6 -3 6 -6 6 C-6.33 6.99 -6.66 7.98 -7 9 C-12.60376729 11.87761023 -18.87368781 11.17843628 -25 11 C-25 10.01 -25 9.02 -25 8 C-23.94941406 8.00902344 -22.89882812 8.01804688 -21.81640625 8.02734375 C-13.40571879 7.91419998 -7.85472632 7.47537123 -1.40625 1.49609375 C-0.71015625 0.75552734 -0.71015625 0.75552734 0 0 Z " fill="#E1C879" transform="translate(116,173)"/>
<path d="M0 0 C0 5.54661412 -4.59745501 9.84593638 -8 14 C-10.2430608 16.20532707 -12.50318977 18.07537545 -15 20 C-13.75293911 15.01175645 -11.47605731 11.69106497 -8.33984375 7.734375 C-6.93551917 6.03178505 -6.93551917 6.03178505 -6 4 C-4.35178756 2.96986723 -2.68496298 1.96885372 -1 1 C-0.67 0.67 -0.34 0.34 0 0 Z " fill="#8F7847" transform="translate(63,103)"/>
<path d="M0 0 C0.66 0 1.32 0 2 0 C1.731875 0.515625 1.46375 1.03125 1.1875 1.5625 C0.28050895 3.42421848 -0.53702432 5.32977451 -1.3125 7.25 C-3.07778664 11.42331866 -5.34697486 15.32584648 -8 19 C-8.33 19 -8.66 19 -9 19 C-9 16.69 -9 14.38 -9 12 C-8.34 12 -7.68 12 -7 12 C-6.87625 11.4225 -6.7525 10.845 -6.625 10.25 C-5.99351176 7.97664233 -5.11141809 6.0746471 -4 4 C-3.34 4 -2.68 4 -2 4 C-1.34 2.68 -0.68 1.36 0 0 Z " fill="#876C4A" transform="translate(49,117)"/>
<path d="M0 0 C2 2 2 2 2.1953125 5.2578125 C2.16050781 7.17207031 2.16050781 7.17207031 2.125 9.125 C2.10695313 10.40632813 2.08890625 11.68765625 2.0703125 13.0078125 C2.04710938 13.99523438 2.02390625 14.98265625 2 16 C4.64 15.67 7.28 15.34 10 15 C9.67 15.99 9.34 16.98 9 18 C6.36 18 3.72 18 1 18 C1 18.99 1 19.98 1 21 C-1.97 21 -4.94 21 -8 21 C-8 20.67 -8 20.34 -8 20 C-5.36 20 -2.72 20 0 20 C-0.185625 18.9275 -0.37125 17.855 -0.5625 16.75 C-1.29097737 11.1245359 -0.60795738 5.61191429 0 0 Z " fill="#855322" transform="translate(110,23)"/>
<path d="M0 0 C0 3.07302139 -0.10341172 6.12833699 -0.21875 9.19921875 C-0.26386719 10.40771484 -0.30898438 11.61621094 -0.35546875 12.86132812 C-0.40316406 14.12396484 -0.45085938 15.38660156 -0.5 16.6875 C-0.54769531 17.96173828 -0.59539063 19.23597656 -0.64453125 20.54882812 C-0.76252412 23.69923772 -0.88103442 26.84962701 -1 30 C-1.33 30 -1.66 30 -2 30 C-2 27.69 -2 25.38 -2 23 C-2.66 23 -3.32 23 -4 23 C-4.02685938 20.85423363 -4.04633088 18.70837355 -4.0625 16.5625 C-4.07410156 15.36753906 -4.08570313 14.17257813 -4.09765625 12.94140625 C-4 10 -4 10 -3 9 C-2.855625 7.865625 -2.71125 6.73125 -2.5625 5.5625 C-2 2 -2 2 0 0 Z " fill="#ECE876" transform="translate(51,145)"/>
<path d="M0 0 C0.91007812 0.00902344 1.82015625 0.01804688 2.7578125 0.02734375 C3.80582031 0.04474609 3.80582031 0.04474609 4.875 0.0625 C4.875 0.3925 4.875 0.7225 4.875 1.0625 C3.1734375 1.2790625 3.1734375 1.2790625 1.4375 1.5 C-1.93277201 1.67421478 -1.93277201 1.67421478 -3.125 3.0625 C-6.0093382 3.15115208 -8.86962158 3.17771296 -11.75390625 3.16015625 C-13.05025246 3.15803383 -13.05025246 3.15803383 -14.37278748 3.15586853 C-17.14439292 3.15025239 -19.9159188 3.13769719 -22.6875 3.125 C-24.5618478 3.11998708 -26.43619685 3.11542381 -28.31054688 3.11132812 C-32.91539544 3.10027772 -37.52018421 3.0830023 -42.125 3.0625 C-42.455 2.4025 -42.785 1.7425 -43.125 1.0625 C-42.04492676 1.06773682 -40.96485352 1.07297363 -39.85205078 1.07836914 C-35.85271022 1.09644108 -31.85337328 1.10794007 -27.85400391 1.11743164 C-26.12157586 1.12246682 -24.38915208 1.12929532 -22.65673828 1.13793945 C-20.16958567 1.15004065 -17.68248913 1.15573638 -15.1953125 1.16015625 C-14.02961227 1.16789818 -14.02961227 1.16789818 -12.84036255 1.17579651 C-8.28195509 1.17627431 -4.53158214 -0.05809721 0 0 Z " fill="#DFE35D" transform="translate(118.125,197.9375)"/>
<path d="M0 0 C0.103125 0.639375 0.20625 1.27875 0.3125 1.9375 C0.539375 2.618125 0.76625 3.29875 1 4 C1.99 4.33 2.98 4.66 4 5 C4 5.66 4 6.32 4 7 C5.32 6.67 6.64 6.34 8 6 C8.33 8.97 8.66 11.94 9 15 C8.01 14.67 7.02 14.34 6 14 C6.33 13.34 6.66 12.68 7 12 C5.35 12 3.7 12 2 12 C2 10.35 2 8.7 2 7 C1.34 7 0.68 7 0 7 C0 4.69 0 2.38 0 0 Z " fill="#B4B254" transform="translate(133,65)"/>
<path d="M0 0 C2.97 0 5.94 0 9 0 C9.042721 1.66611905 9.04063832 3.33382885 9 5 C8 6 8 6 6.15234375 6.09765625 C4.1015625 6.06510417 2.05078125 6.03255208 0 6 C0 4.02 0 2.04 0 0 Z " fill="#9E9156" transform="translate(82,208)"/>
<path d="M0 0 C0.66 0 1.32 0 2 0 C3.7879537 6.8165735 4.23668569 12.96517526 4 20 C3.34 20 2.68 20 2 20 C2 22.64 2 25.28 2 28 C1.67 28 1.34 28 1 28 C0.67 18.76 0.34 9.52 0 0 Z " fill="#E2E362" transform="translate(147,140)"/>
<path d="M0 0 C0 0.66 0 1.32 0 2 C0.66 2 1.32 2 2 2 C2 2.66 2 3.32 2 4 C3.32 4.66 4.64 5.32 6 6 C5.67 6.66 5.34 7.32 5 8 C3.68 7.34 2.36 6.68 1 6 C1 5.01 1 4.02 1 3 C0.01 3 -0.98 3 -2 3 C-2 2.34 -2 1.68 -2 1 C-3.91752953 1.06029967 -5.83417426 1.14916707 -7.75 1.25 C-9.35101563 1.31960937 -9.35101563 1.31960937 -10.984375 1.390625 C-14.52405508 2.10589714 -15.73881962 3.25584905 -18 6 C-18.66 5.67 -19.32 5.34 -20 5 C-19 2 -19 2 -15.9375 0.3125 C-10.77749426 -1.71540349 -5.29293954 -1.76431318 0 0 Z " fill="#E8E66F" transform="translate(117,54)"/>
<path d="M0 0 C0.99 0.33 1.98 0.66 3 1 C-0.49708728 4.6528981 -2.69495456 6.32670862 -7.8203125 6.55859375 C-9.58894291 6.54409678 -11.35752732 6.50310488 -13.125 6.4375 C-14.46498047 6.42879883 -14.46498047 6.42879883 -15.83203125 6.41992188 C-23.52437818 6.27619342 -23.52437818 6.27619342 -27 4 C-27.33 3.01 -27.66 2.02 -28 1 C-25.69 1.33 -23.38 1.66 -21 2 C-21 2.66 -21 3.32 -21 4 C-18.24973583 4.05404449 -15.50053797 4.09369306 -12.75 4.125 C-11.58404297 4.15013672 -11.58404297 4.15013672 -10.39453125 4.17578125 C-4.91693064 4.25968301 -4.91693064 4.25968301 0 2 C0 1.34 0 0.68 0 0 Z " fill="#A5793A" transform="translate(110,175)"/>
<path d="M0 0 C2.97 0.495 2.97 0.495 6 1 C6 1.66 6 2.32 6 3 C8.31 3 10.62 3 13 3 C13.33 3.99 13.66 4.98 14 6 C16.64 6 19.28 6 22 6 C22 6.33 22 6.66 22 7 C8.19299191 7.55309973 8.19299191 7.55309973 3 4 C2.01 3.34 1.02 2.68 0 2 C0 1.34 0 0.68 0 0 Z " fill="#B8BB3B" transform="translate(56,201)"/>
<path d="M0 0 C1.32 0.33 2.64 0.66 4 1 C3.835 1.53625 3.67 2.0725 3.5 2.625 C2.88362259 5.06520304 2.88362259 5.06520304 3.125 7.875 C2.97698685 11.57532869 1.82009268 13.81483781 0 17 C-0.66 16.67 -1.32 16.34 -2 16 C-2 14.68 -2 13.36 -2 12 C-1.34 12 -0.68 12 0 12 C-0.2784375 10.4221875 -0.2784375 10.4221875 -0.5625 8.8125 C-0.95079331 5.42880118 -0.88247485 3.23574112 0 0 Z " fill="#A49A6D" transform="translate(160,165)"/>
<path d="M0 0 C0.99 0 1.98 0 3 0 C2.34 2.64 1.68 5.28 1 8 C2.32 7.34 3.64 6.68 5 6 C5.33 6.99 5.66 7.98 6 9 C4.5625 11.6875 4.5625 11.6875 3 14 C2.34 13.67 1.68 13.34 1 13 C1 12.34 1 11.68 1 11 C-0.98 11.66 -2.96 12.32 -5 13 C-4.34 12.01 -3.68 11.02 -3 10 C-2.01 10 -1.02 10 0 10 C0 6.7 0 3.4 0 0 Z " fill="#AEAB3D" transform="translate(130,19)"/>
<path d="M0 0 C0.99 0.33 1.98 0.66 3 1 C3.08097324 3.27024968 3.13917704 5.54132075 3.1875 7.8125 C3.22230469 9.07707031 3.25710937 10.34164063 3.29296875 11.64453125 C3 15 3 15 0 18 C0 12.06 0 6.12 0 0 Z " fill="#846745" transform="translate(134,6)"/>
<path d="M0 0 C0.33 0.66 0.66 1.32 1 2 C0.34 2 -0.32 2 -1 2 C-1.12375 2.5775 -1.2475 3.155 -1.375 3.75 C-2.00648824 6.02335767 -2.88858191 7.9253529 -4 10 C-4.66 10 -5.32 10 -6 10 C-6 12.64 -6 15.28 -6 18 C-6.66 18 -7.32 18 -8 18 C-9.3469511 13.95914671 -8.38055386 10.89198694 -7 7 C-3.76119403 1.25373134 -3.76119403 1.25373134 0 0 Z " fill="#937768" transform="translate(46,119)"/>
<path d="M0 0 C0.99 0 1.98 0 3 0 C6.17692157 5.24882694 6.65697965 10.01488629 7 16 C6.01 16 5.02 16 4 16 C2.86235649 11.73383684 2 8.43513689 2 4 C1.34 4 0.68 4 0 4 C0 2.68 0 1.36 0 0 Z " fill="#907667" transform="translate(133,56)"/>
<path d="M0 0 C0.99 0 1.98 0 3 0 C5.61281488 5.87883349 5.18328202 11.70731728 5 18 C4.34 18 3.68 18 3 18 C2.87625 16.824375 2.7525 15.64875 2.625 14.4375 C2.14146948 10.48516356 1.12382724 6.8210126 0 3 C0 2.01 0 1.02 0 0 Z " fill="#764723" transform="translate(97,23)"/>
<path d="M0 0 C0.66 0 1.32 0 2 0 C2 1.65 2 3.3 2 5 C2.99 5.33 3.98 5.66 5 6 C6.0625 7.9609375 6.0625 7.9609375 7 10.375 C8.25772534 13.59268066 9.39280672 15.70389228 12 18 C11.67 18.66 11.34 19.32 11 20 C5.57040814 16.43198249 2.0413429 11.16537162 0.46484375 4.859375 C0.23243378 3.24887213 0.10365199 1.6238812 0 0 Z " fill="#E4E467" transform="translate(50,175)"/>
<path d="M0 0 C0.66 0 1.32 0 2 0 C3.49565927 5.10283752 4.46711954 8.74282165 3 14 C2.34 14.99 1.68 15.98 1 17 C0.00749455 11.29309366 -0.10477512 5.78591511 0 0 Z " fill="#9A8675" transform="translate(163,148)"/>
<path d="M0 0 C0.33 0 0.66 0 1 0 C1 6.6 1 13.2 1 20 C1.66 20 2.32 20 3 20 C3.0825 20.5775 3.165 21.155 3.25 21.75 C4.20531013 24.6159304 5.78469173 25.9990764 8 28 C6.68 28.33 5.36 28.66 4 29 C2.23537317 25.91190305 2 24.76687864 2 21 C1.34 21 0.68 21 0 21 C-1.33257403 6.21867882 -1.33257403 6.21867882 0 0 Z " fill="#98682C" transform="translate(74,147)"/>
<path d="M0 0 C2.14642449 3.21963674 3.35881354 6.44429859 4.625 10.0625 C4.85445312 10.69994141 5.08390625 11.33738281 5.3203125 11.99414062 C7 16.738258 7 16.738258 7 19 C7.66 19 8.32 19 9 19 C9.66 20.98 10.32 22.96 11 25 C10.01 24.34 9.02 23.68 8 23 C8 22.34 8 21.68 8 21 C7.34 21 6.68 21 6 21 C3.58314288 16.77050005 2.65166856 13.87664009 3 9 C2.34 9 1.68 9 1 9 C0.67 6.03 0.34 3.06 0 0 Z " fill="#A69F3E" transform="translate(142,108)"/>
<path d="M0 0 C0.99 0 1.98 0 3 0 C3.3152595 5.98993047 2.68219822 9.63560356 0 15 C-0.66 14.67 -1.32 14.34 -2 14 C-1.7834375 13.0409375 -1.7834375 13.0409375 -1.5625 12.0625 C-0.82763202 8.06155212 -0.41418889 4.04495104 0 0 Z " fill="#A1935A" transform="translate(137,12)"/>
<path d="M0 0 C1.32 0.33 2.64 0.66 4 1 C2.35 1.66 0.7 2.32 -1 3 C-1 4.32 -1 5.64 -1 7 C-5.29 7 -9.58 7 -14 7 C-13.34 6.01 -12.68 5.02 -12 4 C-9.99968072 3.67736786 -7.99473995 3.36339501 -5.9765625 3.18359375 C-3.91029261 2.9916675 -1.99128049 2.58079014 0 2 C0 1.34 0 0.68 0 0 Z " fill="#B5B63F" transform="translate(127,200)"/>
<path d="M0 0 C0 0.99 0 1.98 0 3 C-1.32 3 -2.64 3 -4 3 C-4.2475 3.598125 -4.495 4.19625 -4.75 4.8125 C-6.18072525 7.31626919 -7.5691582 8.48072388 -10 10 C-10.66 10 -11.32 10 -12 10 C-12 10.99 -12 11.98 -12 13 C-12.99 13 -13.98 13 -15 13 C-15.33 13.99 -15.66 14.98 -16 16 C-16 14.68 -16 13.36 -16 12 C-15.34 12 -14.68 12 -14 12 C-13.67 11.01 -13.34 10.02 -13 9 C-12.34 9 -11.68 9 -11 9 C-11 8.34 -11 7.68 -11 7 C-4.7 0 -4.7 0 0 0 Z " fill="#816249" transform="translate(98,43)"/>
<path d="M0 0 C0.66 0 1.32 0 2 0 C1.71591906 4.68733545 -0.51449271 7.20928915 -3.4296875 10.64453125 C-5 12 -5 12 -8 12 C-8 11.34 -8 10.68 -8 10 C-7.34 10 -6.68 10 -6 10 C-5.690625 9.21625 -5.38125 8.4325 -5.0625 7.625 C-4 5 -4 5 -3 3 C-2.34 3 -1.68 3 -1 3 C-0.67 2.01 -0.34 1.02 0 0 Z " fill="#98756A" transform="translate(156,182)"/>
<path d="M0 0 C0.99 0 1.98 0 3 0 C6.90957917 4.35638822 7.39912078 7.64760027 7.140625 13.2421875 C7.09421875 13.82226562 7.0478125 14.40234375 7 15 C6.67 15 6.34 15 6 15 C6 13.35 6 11.7 6 10 C5.34 10 4.68 10 4 10 C1.6791945 6.7508723 0.56302958 3.94120709 0 0 Z " fill="#8C7447" transform="translate(152,130)"/>
<path d="M0 0 C2.3828125 -0.29296875 2.3828125 -0.29296875 5.125 -0.1875 C6.03507812 -0.16042969 6.94515625 -0.13335938 7.8828125 -0.10546875 C8.58148438 -0.07066406 9.28015625 -0.03585938 10 0 C10.33 0.99 10.66 1.98 11 3 C9.95199219 3.07347656 9.95199219 3.07347656 8.8828125 3.1484375 C7.97273438 3.22320313 7.06265625 3.29796875 6.125 3.375 C5.22007813 3.44460937 4.31515625 3.51421875 3.3828125 3.5859375 C0.82058097 3.79568132 0.82058097 3.79568132 -1 6 C-1.33 5.01 -1.66 4.02 -2 3 C-1.34 2.01 -0.68 1.02 0 0 Z " fill="#A07A5B" transform="translate(99,19)"/>
<path d="M0 0 C0.33 0 0.66 0 1 0 C1.05813173 4.56244637 1.09364122 9.12479724 1.125 13.6875 C1.15013672 15.62786133 1.15013672 15.62786133 1.17578125 17.60742188 C1.18222656 18.85458984 1.18867188 20.10175781 1.1953125 21.38671875 C1.20578613 22.53358154 1.21625977 23.68044434 1.22705078 24.86206055 C1.00058489 27.99191655 0.33456032 30.18079905 -1 33 C-1.33 33 -1.66 33 -2 33 C-2 30.69 -2 28.38 -2 26 C-1.34 26 -0.68 26 0 26 C0 17.42 0 8.84 0 0 Z " fill="#F4EB85" transform="translate(147,142)"/>
<path d="M0 0 C5.71141393 1.02805451 8.2480995 2.79078347 11.93359375 7.24609375 C13 9 13 9 13 12 C8.71095765 10.4114658 6.67654474 7.56872632 4 4 C4 3.34 4 2.68 4 2 C2.68 1.67 1.36 1.34 0 1 C0 0.67 0 0.34 0 0 Z " fill="#977161" transform="translate(121,43)"/>
<path d="M0 0 C-2 2 -2 2 -3.97119141 2.22705078 C-4.75671387 2.21657715 -5.54223633 2.20610352 -6.3515625 2.1953125 C-7.20234375 2.18886719 -8.053125 2.18242187 -8.9296875 2.17578125 C-10.26386719 2.15064453 -10.26386719 2.15064453 -11.625 2.125 C-12.97078125 2.11146484 -12.97078125 2.11146484 -14.34375 2.09765625 C-16.56276586 2.0740497 -18.78125077 2.0411231 -21 2 C-21 3.65 -21 5.3 -21 7 C-21.99 6.67 -22.98 6.34 -24 6 C-23.34 4.35 -22.68 2.7 -22 1 C-20.86820312 0.93941406 -19.73640625 0.87882813 -18.5703125 0.81640625 C-17.08852855 0.73200083 -15.6067584 0.64735283 -14.125 0.5625 C-13.37863281 0.52318359 -12.63226563 0.48386719 -11.86328125 0.44335938 C-0.70096577 -0.21028973 -0.70096577 -0.21028973 0 0 Z " fill="#928047" transform="translate(119,207)"/>
<path d="M0 0 C0 3 0 3 -1.390625 4.68359375 C-2.00421875 5.26238281 -2.6178125 5.84117188 -3.25 6.4375 C-4.20326172 7.35015625 -4.20326172 7.35015625 -5.17578125 8.28125 C-5.77777344 8.8484375 -6.37976563 9.415625 -7 10 C-8.2065625 11.2065625 -8.2065625 11.2065625 -9.4375 12.4375 C-9.953125 12.953125 -10.46875 13.46875 -11 14 C-10.39215686 8.52941176 -10.39215686 8.52941176 -8.75 6.3125 C-6.59611809 4.69708857 -4.31791916 3.36697796 -2 2 C-1.34 1.34 -0.68 0.68 0 0 Z " fill="#F3EB84" transform="translate(103,55)"/>
<path d="M0 0 C0.66 0.33 1.32 0.66 2 1 C2 1.99 2 2.98 2 4 C-1.1983882 6.6653235 -3.18628475 7.9397248 -7.375 8.25 C-8.24125 8.1675 -9.1075 8.085 -10 8 C-8.50415516 5.00831032 -5.93920694 4.46960347 -3 3 C-1.18445841 1.43897509 -1.18445841 1.43897509 0 0 Z " fill="#907A47" transform="translate(144,191)"/>
<path d="M0 0 C2.31 0 4.62 0 7 0 C5.375 6.75 5.375 6.75 2 9 C1.34 6.03 0.68 3.06 0 0 Z " fill="#886954" transform="translate(110,20)"/>
<path d="M0 0 C0.556875 0.268125 1.11375 0.53625 1.6875 0.8125 C1.048125 1.06 0.40875 1.3075 -0.25 1.5625 C-0.930625 1.975 -1.61125 2.3875 -2.3125 2.8125 C-2.43625 3.43125 -2.56 4.05 -2.6875 4.6875 C-3.68870783 8.09160661 -6.38412245 9.06793465 -9.3125 10.8125 C-9.3125 9.8225 -9.3125 8.8325 -9.3125 7.8125 C-8.6525 7.8125 -7.9925 7.8125 -7.3125 7.8125 C-7.3125 6.8225 -7.3125 5.8325 -7.3125 4.8125 C-3.16503456 -0.25662442 -3.16503456 -0.25662442 0 0 Z " fill="#BEC43A" transform="translate(96.3125,46.1875)"/>
<path d="M0 0 C0.66 0.33 1.32 0.66 2 1 C2 1.99 2 2.98 2 4 C0.68 4 -0.64 4 -2 4 C-1.67 4.99 -1.34 5.98 -1 7 C-0.9314505 8.89470816 -0.91519628 10.7916834 -0.9375 12.6875 C-0.94652344 13.68136719 -0.95554688 14.67523438 -0.96484375 15.69921875 C-0.97644531 16.45847656 -0.98804688 17.21773437 -1 18 C-1.33 18 -1.66 18 -2 18 C-3.12862175 12.63904667 -3.09688221 7.44693314 -3 2 C-2.01 2 -1.02 2 0 2 C0 1.34 0 0.68 0 0 Z " fill="#938054" transform="translate(142,78)"/>
<path d="M0 0 C0.66 0.33 1.32 0.66 2 1 C2.6328125 3.72265625 2.6328125 3.72265625 3.125 7.0625 C3.29257813 8.16722656 3.46015625 9.27195312 3.6328125 10.41015625 C3.75398437 11.26480469 3.87515625 12.11945313 4 13 C3.34 13 2.68 13 2 13 C1.46605821 11.5882217 0.94834896 10.17029756 0.4375 8.75 C0.14746094 7.96109375 -0.14257812 7.1721875 -0.44140625 6.359375 C-1.04522837 3.80896548 -0.8473932 2.44677771 0 0 Z " fill="#97665A" transform="translate(143,90)"/>
<path d="M0 0 C0.33 0 0.66 0 1 0 C1.33 5.94 1.66 11.88 2 18 C0.68 17.34 -0.64 16.68 -2 16 C-1.34 10.72 -0.68 5.44 0 0 Z " fill="#8C715A" transform="translate(162,148)"/>
<path d="M0 0 C1.953125 0.6796875 1.953125 0.6796875 4 2 C4.609375 4.3828125 4.609375 4.3828125 4.75 7.125 C4.80671875 8.03507812 4.8634375 8.94515625 4.921875 9.8828125 C4.94765625 10.58148438 4.9734375 11.28015625 5 12 C4.34 12 3.68 12 3 12 C2.49440092 10.56445975 1.9957251 9.1264798 1.5 7.6875 C1.2215625 6.88699219 0.943125 6.08648437 0.65625 5.26171875 C0 3 0 3 0 0 Z " fill="#8B7064" transform="translate(145,107)"/>
<path d="M0 0 C0.66 0.33 1.32 0.66 2 1 C1.67 1.66 1.34 2.32 1 3 C1.66 3 2.32 3 3 3 C3.33 2.34 3.66 1.68 4 1 C3.56802365 5.7517398 2.67230705 7.92000054 -1 11 C-1.66 10.67 -2.32 10.34 -3 10 C-2.484375 9.4225 -1.96875 8.845 -1.4375 8.25 C0.27096034 6.13516236 0.27096034 6.13516236 -0.375 3.875 C-0.684375 2.946875 -0.684375 2.946875 -1 2 C-0.67 1.34 -0.34 0.68 0 0 Z " fill="#836850" transform="translate(61,96)"/>
<path d="M0 0 C0.33 1.32 0.66 2.64 1 4 C0.34 4 -0.32 4 -1 4 C-1 5.98 -1 7.96 -1 10 C-1.99 10.33 -2.98 10.66 -4 11 C-4.73323796 13.01508358 -4.73323796 13.01508358 -5 15 C-5 13.02 -5 11.04 -5 9 C-4.34 9 -3.68 9 -3 9 C-3.061875 8.2575 -3.12375 7.515 -3.1875 6.75 C-2.96905704 3.54616994 -2.09749995 2.35968744 0 0 Z " fill="#EAE772" transform="translate(91,66)"/>
<path d="M0 0 C0.99 0.33 1.98 0.66 3 1 C3 1.66 3 2.32 3 3 C4.32 2.67 5.64 2.34 7 2 C7.33 3.65 7.66 5.3 8 7 C6.02 7 4.04 7 2 7 C1.34 4.69 0.68 2.38 0 0 Z " fill="#A09154" transform="translate(134,69)"/>
<path d="M0 0 C5.94 0.99 5.94 0.99 12 2 C11.01 2.33 10.02 2.66 9 3 C9 3.66 9 4.32 9 5 C7.68 5 6.36 5 5 5 C5 4.34 5 3.68 5 3 C3.35 3.33 1.7 3.66 0 4 C0 2.68 0 1.36 0 0 Z " fill="#ADA434" transform="translate(98,42)"/>
<path d="M0 0 C0.33 0.99 0.66 1.98 1 3 C1.66 3 2.32 3 3 3 C3.33872513 4.41538717 3.67074624 5.83237963 4 7.25 C4.185625 8.03890625 4.37125 8.8278125 4.5625 9.640625 C5 12 5 12 5 16 C4.34 16 3.68 16 3 16 C2.03929566 13.11788698 1.89418117 11.30149956 1.9375 8.3125 C1.94652344 7.50425781 1.95554688 6.69601563 1.96484375 5.86328125 C1.98224609 4.94095703 1.98224609 4.94095703 2 4 C1.34 4 0.68 4 0 4 C0 2.68 0 1.36 0 0 Z " fill="#B4B43C" transform="translate(155,137)"/>
<path d="M0 0 C1.11077916 3.33233749 0.96329725 3.74695874 -0.3125 6.8125 C-0.73402344 7.85857422 -0.73402344 7.85857422 -1.1640625 8.92578125 C-1.43992187 9.61027344 -1.71578125 10.29476562 -2 11 C-2.67735217 12.99640639 -3.34838935 14.99504414 -4 17 C-4.33 17 -4.66 17 -5 17 C-4.69343615 10.37822074 -3.25711277 5.77874846 0 0 Z " fill="#DBE155" transform="translate(85,81)"/>
<path d="M0 0 C0.99 0.33 1.98 0.66 3 1 C2.67 1.66 2.34 2.32 2 3 C2.66 3 3.32 3 4 3 C4 4.98 4 6.96 4 9 C3.34 9 2.68 9 2 9 C1.01 6.36 0.02 3.72 -1 1 C-0.67 0.67 -0.34 0.34 0 0 Z " fill="#9A8B70" transform="translate(38,185)"/>
<path d="M0 0 C0.33 0 0.66 0 1 0 C1.33 4.95 1.66 9.9 2 15 C0.02 15.99 0.02 15.99 -2 17 C-1.34 11.39 -0.68 5.78 0 0 Z " fill="#998942" transform="translate(133,10)"/>
<path d="M0 0 C0.33 0.99 0.66 1.98 1 3 C1.66 3 2.32 3 3 3 C3 5.64 3 8.28 3 11 C2.34 11 1.68 11 1 11 C-0.20272819 8.59454362 -0.10071472 7.05003047 -0.0625 4.375 C-0.05347656 3.55773437 -0.04445312 2.74046875 -0.03515625 1.8984375 C-0.02355469 1.27195313 -0.01195312 0.64546875 0 0 Z " fill="#C3CC39" transform="translate(157,150)"/>
<path d="M0 0 C0.33 1.32 0.66 2.64 1 4 C0.01 4.66 -0.98 5.32 -2 6 C-2.33 6.99 -2.66 7.98 -3 9 C-4.32 9 -5.64 9 -7 9 C-5.44499019 5.18315774 -2.96404505 2.80804268 0 0 Z " fill="#ABA44F" transform="translate(43,132)"/>
<path d="M0 0 C0.33 0.66 0.66 1.32 1 2 C0.34 2 -0.32 2 -1 2 C-1.061875 2.5775 -1.12375 3.155 -1.1875 3.75 C-2.32027301 6.88690987 -4.34197595 8.09167504 -7 10 C-7.33 8.68 -7.66 7.36 -8 6 C-7.34 6 -6.68 6 -6 6 C-5.67 5.34 -5.34 4.68 -5 4 C-4.01 4 -3.02 4 -2 4 C-2 3.01 -2 2.02 -2 1 C-1.34 0.67 -0.68 0.34 0 0 Z " fill="#937F43" transform="translate(88,52)"/>
<path d="M0 0 C1.98738098 0.01761863 3.97253109 0.16698176 5.953125 0.33203125 C5.623125 0.99203125 5.293125 1.65203125 4.953125 2.33203125 C3.29618415 2.71076059 1.62655948 3.03453179 -0.046875 3.33203125 C-2.05432115 3.97592907 -4.05632624 4.63765378 -6.046875 5.33203125 C-3.15469741 0.51173527 -3.15469741 0.51173527 0 0 Z " fill="#8F6C57" transform="translate(96.046875,40.66796875)"/>
<path d="M0 0 C0.66 0 1.32 0 2 0 C2 0.99 2 1.98 2 3 C4.31 3 6.62 3 9 3 C9 2.34 9 1.68 9 1 C10.32 1.33 11.64 1.66 13 2 C11 4 11 4 8.3984375 4.1953125 C7.40070313 4.17210937 6.40296875 4.14890625 5.375 4.125 C3.87066406 4.09792969 3.87066406 4.09792969 2.3359375 4.0703125 C1.56507812 4.04710937 0.79421875 4.02390625 0 4 C0 2.68 0 1.36 0 0 Z " fill="#B8BB3B" transform="translate(112,30)"/>
<path d="M0 0 C0.66 0.33 1.32 0.66 2 1 C1.34 2.98 0.68 4.96 0 7 C-0.99 7 -1.98 7 -3 7 C-3.1875 4.625 -3.1875 4.625 -3 2 C-2.01 1.34 -1.02 0.68 0 0 Z " fill="#B09E4F" transform="translate(134,25)"/>
<path d="M0 0 C0.99 0.33 1.98 0.66 3 1 C5.05893621 1.22325814 7.12233653 1.40705759 9.1875 1.5625 C10.27417969 1.64628906 11.36085938 1.73007813 12.48046875 1.81640625 C13.72763672 1.90728516 13.72763672 1.90728516 15 2 C15 2.99 15 3.98 15 5 C12.8729989 4.74535902 10.74837785 4.47077058 8.625 4.1875 C7.44164063 4.03667969 6.25828125 3.88585937 5.0390625 3.73046875 C2 3 2 3 0 0 Z " fill="#ECE876" transform="translate(64,195)"/>
<path d="M0 0 C0 3.64478912 -0.85802506 5.09303401 -3 8 C-5.1875 8.8125 -5.1875 8.8125 -7 9 C-7 8.34 -7 7.68 -7 7 C-6.34 7 -5.68 7 -5 7 C-4.731875 6.401875 -4.46375 5.80375 -4.1875 5.1875 C-3.01506533 3.02775192 -1.80630718 1.64209744 0 0 Z " fill="#9D6655" transform="translate(51,111)"/>
<path d="M0 0 C0.66 0.33 1.32 0.66 2 1 C1.1875 3.9375 1.1875 3.9375 0 7 C-0.99 7.33 -1.98 7.66 -3 8 C-3.73323796 10.01508358 -3.73323796 10.01508358 -4 12 C-4.33 11.34 -4.66 10.68 -5 10 C-4.0625 7.375 -4.0625 7.375 -3 5 C-2.34 5 -1.68 5 -1 5 C-0.67 3.35 -0.34 1.7 0 0 Z " fill="#A3993F" transform="translate(69,91)"/>
<path d="M0 0 C0 3.95875396 -1.21313946 6.49009536 -3 10 C-5.1875 11.4375 -5.1875 11.4375 -7 12 C-5.61735163 9.13132769 -4.07851447 6.43975968 -2.375 3.75 C-1.92898437 3.04359375 -1.48296875 2.3371875 -1.0234375 1.609375 C-0.68570313 1.07828125 -0.34796875 0.5471875 0 0 Z " fill="#DDE25A" transform="translate(145,175)"/>
<path d="M0 0 C1.98 0.99 1.98 0.99 4 2 C4 4.31 4 6.62 4 9 C3.34 9 2.68 9 2 9 C1.34 6.03 0.68 3.06 0 0 Z " fill="#8F796F" transform="translate(160,138)"/>
<path d="M0 0 C1.25541557 3.76624671 0.37061958 5.37188934 -1 9 C-1.66 9 -2.32 9 -3 9 C-3.33 10.32 -3.66 11.64 -4 13 C-4.34837335 8.12277312 -3.45094389 5.21562348 -1 1 C-0.67 0.67 -0.34 0.34 0 0 Z " fill="#AEAB3D" transform="translate(83,60)"/>
<path d="M0 0 C1.134375 0.020625 2.26875 0.04125 3.4375 0.0625 C3.7675 0.7225 4.0975 1.3825 4.4375 2.0625 C1.0625 2.6875 1.0625 2.6875 -2.5625 3.0625 C-3.2225 2.4025 -3.8825 1.7425 -4.5625 1.0625 C-3.5625 0.0625 -3.5625 0.0625 0 0 Z " fill="#8D7465" transform="translate(112.5625,209.9375)"/>
<path d="M0 0 C0 0.99 0 1.98 0 3 C-3.00617269 6.00617269 -5.82381598 5.59585316 -10 6 C-10 5.34 -10 4.68 -10 4 C-9.0925 3.71125 -8.185 3.4225 -7.25 3.125 C-4.67797092 2.23468224 -2.38653234 1.28505587 0 0 Z " fill="#DFE25C" transform="translate(133,191)"/>
<path d="M0 0 C1.55136786 2.46393719 2.03039129 3.68089146 1.75 6.625 C1 9 1 9 -1 11 C-1.33 9.35 -1.66 7.7 -2 6 C-1.34 6 -0.68 6 0 6 C0 4.02 0 2.04 0 0 Z " fill="#937E73" transform="translate(160,171)"/>
<path d="M0 0 C0.66 0.33 1.32 0.66 2 1 C1.34 2.32 0.68 3.64 0 5 C-0.99 5 -1.98 5 -3 5 C-3.33 5.99 -3.66 6.98 -4 8 C-4.66 7.67 -5.32 7.34 -6 7 C-4.77065985 3.31197956 -3.06140622 2.27643027 0 0 Z " fill="#8B7157" transform="translate(125,10)"/>
<path d="M0 0 C4.95 0.99 4.95 0.99 10 2 C10.33 2.99 10.66 3.98 11 5 C7.44765442 4.39102647 4.2668126 3.54266151 1 2 C0.67 1.34 0.34 0.68 0 0 Z " fill="#9F9340" transform="translate(58,203)"/>
<path d="M0 0 C0.66 0 1.32 0 2 0 C2 2.97 2 5.94 2 9 C1.34 9 0.68 9 0 9 C-0.84454356 5.62182575 -1.10844919 3.32534757 0 0 Z " fill="#997E73" transform="translate(35,172)"/>
<path d="M0 0 C0.33 0.66 0.66 1.32 1 2 C1.66 2 2.32 2 3 2 C4.15941038 5.47823115 3.70820884 7.45895578 3 11 C0.43383368 7.15075052 0.44902324 4.5650696 0 0 Z " fill="#8A7246" transform="translate(141,100)"/>
<path d="M0 0 C0.33 0.99 0.66 1.98 1 3 C-0.32 4.32 -1.64 5.64 -3 7 C-3.66 6.67 -4.32 6.34 -5 6 C-2.25 1.125 -2.25 1.125 0 0 Z " fill="#94815D" transform="translate(79,58)"/>
<path d="M0 0 C0.99 0.33 1.98 0.66 3 1 C0.69 3.31 -1.62 5.62 -4 8 C-4.33 7.34 -4.66 6.68 -5 6 C-4.0625 3.875 -4.0625 3.875 -3 2 C-2.01 2 -1.02 2 0 2 C0 1.34 0 0.68 0 0 Z " fill="#856849" transform="translate(125,13)"/>
<path d="M0 0 C2.31 0.33 4.62 0.66 7 1 C7 1.66 7 2.32 7 3 C7.66 3.33 8.32 3.66 9 4 C6.36 3.67 3.72 3.34 1 3 C0.67 2.01 0.34 1.02 0 0 Z " fill="#9C6D31" transform="translate(82,176)"/>
<path d="M0 0 C0 3.39593478 -0.52165948 4.06619881 -2.5 6.6875 C-2.9640625 7.31011719 -3.428125 7.93273437 -3.90625 8.57421875 C-4.2671875 9.04472656 -4.628125 9.51523438 -5 10 C-6 8 -6 8 -5.875 6.125 C-4.64246832 3.13170878 -2.58540237 1.85618632 0 0 Z " fill="#948142" transform="translate(63,103)"/>
<path d="M0 0 C0.99 0.33 1.98 0.66 3 1 C3.33 3.31 3.66 5.62 4 8 C3.01 8 2.02 8 1 8 C0 2.25 0 2.25 0 0 Z " fill="#89745B" transform="translate(136,64)"/>
<path d="M0 0 C0.33 0 0.66 0 1 0 C1 1.98 1 3.96 1 6 C-0.65 6.66 -2.3 7.32 -4 8 C-2.68 5.36 -1.36 2.72 0 0 Z " fill="#EBE774" transform="translate(76,106)"/>
<path d="M0 0 C0.66 0.66 1.32 1.32 2 2 C2.66 1.67 3.32 1.34 4 1 C2.95125002 3.62187494 2.35068687 4.79371361 -0.125 6.25 C-0.74375 6.4975 -1.3625 6.745 -2 7 C-2 6.01 -2 5.02 -2 4 C-1.34 4 -0.68 4 0 4 C0 2.68 0 1.36 0 0 Z " fill="#917B45" transform="translate(74,72)"/>
<path d="M0 0 C0.33 0.66 0.66 1.32 1 2 C1.66 2 2.32 2 3 2 C3.66 4.31 4.32 6.62 5 9 C4.01 9 3.02 9 2 9 C0.50178941 5.62902617 0 3.79557881 0 0 Z " fill="#EAE773" transform="translate(123,62)"/>
<path d="M0 0 C2.86724686 0.57344937 3.8614515 0.8614515 6 3 C6 3.99 6 4.98 6 6 C3.37812506 4.95125002 2.20628639 4.35068687 0.75 1.875 C0.5025 1.25625 0.255 0.6375 0 0 Z " fill="#92796C" transform="translate(128,49)"/>
<path d="M0 0 C0.33 0.66 0.66 1.32 1 2 C-0.98 2.66 -2.96 3.32 -5 4 C-5 3.34 -5 2.68 -5 2 C-5.66 1.67 -6.32 1.34 -7 1 C-4.53721199 -0.231394 -2.7204945 -0.07159196 0 0 Z " fill="#897440" transform="translate(125,36)"/>
<path d="M0 0 C0.99 0.33 1.98 0.66 3 1 C3 3.64 3 6.28 3 9 C0.87491756 5.81237635 0.4979837 3.73487777 0 0 Z " fill="#7F5E4B" transform="translate(134,6)"/>
<path d="M0 0 C0 0.66 0 1.32 0 2 C-2.35438733 3.42944945 -3.48032433 4.08661261 -6.25 3.625 C-6.8275 3.41875 -7.405 3.2125 -8 3 C-7.34 3 -6.68 3 -6 3 C-6 2.34 -6 1.68 -6 1 C-4 0 -4 0 0 0 Z " fill="#83644C" transform="translate(140,198)"/>
<path d="M0 0 C1.65 0 3.3 0 5 0 C4.01 0.495 4.01 0.495 3 1 C3 2.32 3 3.64 3 5 C1.68 4.34 0.36 3.68 -1 3 C-0.67 2.01 -0.34 1.02 0 0 Z " fill="#A68361" transform="translate(34,141)"/>
<path d="M0 0 C3.0916909 2.52956528 3.90931332 5.22454612 5 9 C4.01 9 3.02 9 2 9 C2 7.35 2 5.7 2 4 C1.34 4 0.68 4 0 4 C0 2.68 0 1.36 0 0 Z " fill="#B0AE3C" transform="translate(128,55)"/>
<path d="M0 0 C2.3125 0.1875 2.3125 0.1875 4 1 C-0.39453125 5.00390625 -0.39453125 5.00390625 -2 6 C-2.99 5.67 -3.98 5.34 -5 5 C-2.75 2.4375 -2.75 2.4375 0 0 Z " fill="#A09440" transform="translate(94,46)"/>
<path d="M0 0 C2.1640625 -0.29296875 2.1640625 -0.29296875 4.625 -0.1875 C5.44226563 -0.16042969 6.25953125 -0.13335938 7.1015625 -0.10546875 C8.04128906 -0.05326172 8.04128906 -0.05326172 9 0 C9 0.33 9 0.66 9 1 C7.72125 1.0825 6.4425 1.165 5.125 1.25 C2.94666582 1.45869931 2.94666582 1.45869931 1 2 C-0.5899433 3.92064793 -0.5899433 3.92064793 -1 6 C-1.33 5.01 -1.66 4.02 -2 3 C-1.34 2.01 -0.68 1.02 0 0 Z " fill="#926B4B" transform="translate(99,19)"/>
</svg>
