<svg xmlns="http://www.w3.org/2000/svg" version="1.1" width="228" height="220">
  <defs/>
  <path fill="#785549" d="M158,54 C162.221,57.503 164.342,60.751 166,66 C165.71,72.95 162.562,78.889 158,84 C155.736,85.906 153.359,87.615 150.938,89.312 C150.313,89.767 149.688,90.221 149.045,90.689 C144.38,94 144.38,94 141,94 C141,94.66 141,95.32 141,96 C138.793,97.273 136.584,98.543 134.375,99.812 C133.758,100.169 133.14,100.525 132.504,100.893 C128.727,103.059 124.916,105.09 121,107 C121.115,108.438 121.242,109.876 121.375,111.312 C121.479,112.513 121.479,112.513 121.586,113.738 C121.896,116.272 121.896,116.272 124,119 C124.394,121.324 124.735,123.658 125,126 C129.142,126.315 131.238,125.576 134.688,123.312 C138.175,121.121 141.659,119.028 145.312,117.125 C146.092,116.715 146.872,116.305 147.676,115.883 C150.333,114.873 152.179,114.686 155,115 C158.357,117.536 159.847,118.905 160.438,123.125 C160,126 160,126 158,129 C157.34,129 156.68,129 156,129 C156,129.66 156,130.32 156,131 C149.436,135.753 142.451,139.567 134.828,142.309 C133.01,142.853 133.01,142.853 132,144 C131.706,147.722 131.852,148.778 134,152 C134.508,153.883 134.96,155.782 135.375,157.688 C136.266,161.453 137.197,164.734 139.062,168.125 C141.42,172.527 142.866,176.977 143,182 C141.5,185.562 141.5,185.562 139,188 C135.575,189.239 133.819,189.273 130.375,188.125 C125.066,183.375 123.514,175.845 121.711,169.164 C121.023,166.745 121.023,166.745 119,164 C117.167,159.52 116.807,155.824 117,151 C111.676,152.214 107.021,153.809 102,156 C99.67,156.678 97.336,157.344 95,158 C93.726,158.491 92.455,158.991 91.188,159.5 C86.557,161.27 81.879,162.188 77,163 C76.223,163.148 75.445,163.296 74.645,163.449 C69.289,164.307 64.625,164.074 60,161 C56.605,157.748 54.738,155.654 54.406,150.906 C54.412,149.437 54.443,147.968 54.5,146.5 C54.497,145.767 54.495,145.033 54.492,144.277 C54.64,135.997 58.76,129.503 64.312,123.5 C65.199,122.675 66.086,121.85 67,121 C67.48,120.55 67.959,120.1 68.453,119.637 C78.049,110.996 89.488,104.702 101,99 C100.76,97.372 100.76,97.372 100.516,95.711 C99.851,90.351 99.778,85.02 99.75,79.625 C99.729,78.648 99.709,77.671 99.688,76.664 C99.636,66.901 101.22,58.804 108.113,51.621 C110.88,49.244 113.534,48.095 117,47 C118.825,46.412 118.825,46.412 120.688,45.812 C134.243,42.725 146.845,46.073 158,54 Z M117,67 C116.039,69.883 115.883,71.677 115.902,74.668 C115.906,75.561 115.909,76.453 115.912,77.373 C115.92,78.302 115.929,79.231 115.938,80.188 C115.942,81.128 115.947,82.068 115.951,83.037 C115.963,85.358 115.979,87.679 116,90 C119.513,89.2 122.226,87.898 125.375,86.125 C129.212,83.988 133.051,81.921 137,80 C137,79.34 137,78.68 137,78 C137.784,77.691 138.568,77.381 139.375,77.062 C141.923,76.071 141.923,76.071 144,75 C144,74.34 144,73.68 144,73 C144.639,72.753 145.279,72.505 145.938,72.25 C148.193,71.197 148.193,71.197 148.629,68.922 C148.813,67.971 148.813,67.971 149,67 C143.445,62.569 138.238,61.464 131.312,61.375 C130.588,61.352 129.864,61.33 129.117,61.307 C123.476,61.384 120.902,62.936 117,67 Z M96.375,119.875 C93.81,121.757 92.043,122.986 89,124 C89,124.66 89,125.32 89,126 C88.464,126.247 87.927,126.495 87.375,126.75 C80.511,130.363 75.125,134.751 71.625,141.75 C70.866,144.093 70.866,144.093 71,147 C80.457,147.747 90.084,143.119 98.625,139.438 C102,138 102,138 105.312,136.938 C108.11,136.18 108.11,136.18 110,134 C109.873,132.004 109.873,132.004 109.25,129.812 C108.952,128.618 108.952,128.618 108.648,127.398 C107.798,124.254 106.93,121.122 106,118 C101.65,116.663 99.985,117.183 96.375,119.875 Z"/>
  <path fill="#87665C" d="M155.84,52.465 C161.117,56.215 164.034,59.774 166,66 C165.767,69.087 165.378,71.245 164,74 C163.01,73.67 162.02,73.34 161,73 C160.939,72.241 160.879,71.481 160.816,70.699 C160.733,69.705 160.649,68.711 160.562,67.688 C160.481,66.701 160.4,65.715 160.316,64.699 C160.082,61.906 160.082,61.906 159,59 C158.34,59 157.68,59 157,59 C157,58.34 157,57.68 157,57 C156.216,56.691 155.432,56.381 154.625,56.062 C152,55 152,55 150,54 C150,53.34 150,52.68 150,52 C149.196,52.021 148.391,52.041 147.562,52.062 C145,52 145,52 144,51 C141.306,50.732 138.638,50.529 135.938,50.375 C135.198,50.323 134.459,50.272 133.697,50.219 C128.65,49.918 123.992,50.165 119,51 C118.67,51.33 118.34,51.66 118,52 C116,52.041 114,52.043 112,52 C115.75,49 115.75,49 118,49 C118,48.34 118,47.68 118,47 C131.02,42.265 144.438,45.11 155.84,52.465 Z"/>
  <path fill="#846559" d="M58,136 C58.33,136 58.66,136 59,136 C59.043,138 59.041,140 59,142 C58.67,142.33 58.34,142.66 58,143 C57.768,144.515 57.588,146.038 57.438,147.562 C57.354,148.389 57.27,149.215 57.184,150.066 C57.123,150.704 57.062,151.343 57,152 C57.66,152 58.32,152 59,152 C59,153.65 59,155.3 59,157 C63.476,158.492 67.873,158.266 72.562,158.312 C73.99,158.356 73.99,158.356 75.447,158.4 C82.483,158.463 87.665,156.952 94,154 C97.913,152.296 100.708,151.8 105,152 C105,152.66 105,153.32 105,154 C101.664,156.224 98.856,156.925 95,158 C93.725,158.489 92.454,158.99 91.188,159.5 C86.557,161.27 81.879,162.188 77,163 C75.834,163.222 75.834,163.222 74.645,163.449 C69.281,164.308 64.663,164.016 60,161 C56.949,158.127 55.755,156.012 55.539,151.898 C55.547,150.39 55.576,148.882 55.625,147.375 C55.626,146.612 55.628,145.849 55.629,145.062 C55.69,141.217 55.825,139.262 58,136 Z"/>
  <path fill="#82675C" d="M158,128 C157.01,128.495 157.01,128.495 156,129 C156,129.66 156,130.32 156,131 C149.468,135.73 142.575,139.547 134.926,142.113 C132.65,142.957 132.65,142.957 131,146 C130.973,148.069 130.973,148.069 131.375,150.188 C131.581,151.446 131.788,152.704 132,154 C131.34,154 130.68,154 130,154 C128.646,151.291 128.935,148.991 129,146 C128.34,146 127.68,146 127,146 C127,144.68 127,143.36 127,142 C132.75,139 132.75,139 135,139 C135,138.34 135,137.68 135,137 C136.65,137 138.3,137 140,137 C140,136.34 140,135.68 140,135 C141.65,134.67 143.3,134.34 145,134 C145,133.34 145,132.68 145,132 C146.32,132 147.64,132 149,132 C149.33,131.01 149.66,130.02 150,129 C152.959,126.959 154.638,126.799 158,128 Z"/>
  <path fill="#80665C" d="M81,110 C81.99,110.33 82.98,110.66 84,111 C84,111.99 84,112.98 84,114 C83.01,114 82.02,114 81,114 C81,114.66 81,115.32 81,116 C79.68,116 78.36,116 77,116 C76.67,116.99 76.34,117.98 76,119 C74,120.333 72,121.667 70,123 C69.67,123.99 69.34,124.98 69,126 C68.01,126 67.02,126 66,126 C66,126.66 66,127.32 66,128 C65.34,128 64.68,128 64,128 C64,128.99 64,129.98 64,131 C63.34,131 62.68,131 62,131 C61.67,132.32 61.34,133.64 61,135 C60.34,135 59.68,135 59,135 C60.606,129.007 62.123,125.101 67,121 C67.539,120.519 68.078,120.038 68.633,119.543 C72.56,116.065 76.568,112.813 81,110 Z"/>
  <path fill="#7F6158" d="M146,75 C146,75.66 146,76.32 146,77 C145.01,77 144.02,77 143,77 C143,77.66 143,78.32 143,79 C140.439,81.296 139.52,82 136,82 C136,82.66 136,83.32 136,84 C135.203,84.387 134.407,84.773 133.586,85.172 C126.813,88.427 126.813,88.427 120.438,92.375 C118,94 118,94 115,94 C115,93.34 115,92.68 115,92 C115.99,91.67 116.98,91.34 118,91 C118.597,90.397 119.194,89.793 119.809,89.172 C122.349,86.654 124.972,85.043 128.062,83.25 C129.105,82.636 130.148,82.023 131.223,81.391 C134,80 134,80 137,80 C137,79.34 137,78.68 137,78 C140.367,75.568 141.734,75 146,75 Z"/>
  <path fill="#8B6D62" d="M104,66 C104,75.57 104,85.14 104,95 C103.01,94.67 102.02,94.34 101,94 C99.415,89.245 99.774,84.418 99.75,79.438 C99.729,78.371 99.709,77.304 99.688,76.205 C99.682,75.187 99.677,74.17 99.672,73.121 C99.658,71.72 99.658,71.72 99.644,70.291 C99.761,69.535 99.879,68.779 100,68 C103,66 103,66 104,66 Z"/>
  <path fill="#7C6056" d="M160,75 C160.66,75 161.32,75 162,75 C161.578,79.918 159.552,81.722 156,85 C153.923,86.639 151.818,88.244 149.688,89.812 C149.138,90.219 148.588,90.626 148.021,91.045 C146.684,92.034 145.342,93.017 144,94 C143.34,93.67 142.68,93.34 142,93 C142,92.01 142,91.02 142,90 C142.99,90 143.98,90 145,90 C145,89.34 145,88.68 145,88 C149.385,85 149.385,85 152,85 C152,84.34 152,83.68 152,83 C153.375,81.375 153.375,81.375 155,80 C155.66,80 156.32,80 157,80 C157,79.34 157,78.68 157,78 C157.66,78 158.32,78 159,78 C159.33,77.01 159.66,76.02 160,75 Z"/>
  <path fill="#7F6459" d="M127.625,59.938 C128.685,59.944 128.685,59.944 129.766,59.951 C131.51,59.963 133.255,59.981 135,60 C135,60.33 135,60.66 135,61 C134.203,61.086 133.407,61.173 132.586,61.262 C125.745,62.169 121.887,63.113 117,68 C116.34,68 115.68,68 115,68 C115,73.94 115,79.88 115,86 C114.67,86 114.34,86 114,86 C111.769,67.95 111.769,67.95 115.938,62.438 C119.841,59.717 123.005,59.882 127.625,59.938 Z"/>
  <path fill="#8F6960" d="M155,115 C157.812,117.125 157.812,117.125 160,120 C160.312,123.312 160.312,123.312 160,126 C158.68,125.67 157.36,125.34 156,125 C155.67,123.02 155.34,121.04 155,119 C150.151,119.475 147.097,120.425 143,123 C142.34,122.67 141.68,122.34 141,122 C142.123,121.018 143.248,120.04 144.375,119.062 C145.315,118.245 145.315,118.245 146.273,117.41 C149.221,115.002 151.219,114.472 155,115 Z"/>
  <path fill="#84675B" d="M73,134 C73.66,134.33 74.32,134.66 75,135 C74.675,135.922 74.675,135.922 74.344,136.863 C74.065,137.672 73.787,138.48 73.5,139.312 C73.222,140.113 72.943,140.914 72.656,141.738 C71.861,144.088 71.861,144.088 72,147 C77.578,147.125 77.578,147.125 83,146 C81.883,147.484 81.883,147.484 80,149 C77.117,149.328 77.117,149.328 73.875,149.25 C72.8,149.235 71.725,149.219 70.617,149.203 C68,149 68,149 67,148 C66.959,146.334 66.957,144.666 67,143 C67.99,142.67 68.98,142.34 70,142 C70,140.35 70,138.7 70,137 C70.66,137 71.32,137 72,137 C72.33,136.01 72.66,135.02 73,134 Z"/>
  <path fill="#7D635A" d="M101,99 C101.66,99.66 102.32,100.32 103,101 C102.01,102.485 102.01,102.485 101,104 C99.68,104 98.36,104 97,104 C97,104.66 97,105.32 97,106 C93.633,108.432 92.266,109 88,109 C88,109.66 88,110.32 88,111 C87.01,110.67 86.02,110.34 85,110 C86.303,106.09 87.717,105.8 91.312,103.938 C92.278,103.431 93.244,102.924 94.238,102.402 C96.488,101.26 98.74,100.122 101,99 Z"/>
  <path fill="#8E786C" d="M136,45 C136,45.66 136,46.32 136,47 C138.475,47.495 138.475,47.495 141,48 C141,48.33 141,48.66 141,49 C133.41,49 125.82,49 118,49 C118,48.34 118,47.68 118,47 C124.07,44.842 129.594,44.791 136,45 Z"/>
  <path fill="#7E5D54" d="M117,47 C117.33,47.66 117.66,48.32 118,49 C117.175,49.454 116.35,49.908 115.5,50.375 C114.675,50.911 113.85,51.448 113,52 C113,52.66 113,53.32 113,54 C112.103,54.309 112.103,54.309 111.188,54.625 C108.19,56.509 107.386,58.811 106,62 C105.34,62 104.68,62 104,62 C104.068,58.585 104.197,55.959 106.449,53.27 C109.704,50.41 112.804,48.271 117,47 Z"/>
  <path fill="#846156" d="M100,68 C100.33,68 100.66,68 101,68 C101.049,69.12 101.098,70.24 101.148,71.395 C101.223,72.867 101.299,74.34 101.375,75.812 C101.406,76.55 101.437,77.288 101.469,78.049 C101.673,81.819 101.864,83.797 104,87 C104.258,89.695 104.089,92.285 104,95 C103.01,94.67 102.02,94.34 101,94 C99.98,90.941 99.885,88.876 99.902,85.676 C99.906,84.648 99.909,83.62 99.912,82.561 C99.92,81.489 99.929,80.417 99.938,79.312 C99.942,78.229 99.947,77.146 99.951,76.029 C99.963,73.353 99.979,70.676 100,68 Z"/>
  <path fill="#6B5046" d="M93,141 C93.33,141.66 93.66,142.32 94,143 C91.669,144.006 89.335,145.005 87,146 C86.092,146.392 85.185,146.784 84.25,147.188 C80.376,148.587 76.095,148 72,148 C72,147.67 72,147.34 72,147 C73.013,146.734 74.026,146.469 75.07,146.195 C76.422,145.839 77.773,145.482 79.125,145.125 C79.79,144.951 80.455,144.777 81.141,144.598 C85.148,143.537 89.08,142.356 93,141 Z"/>
  <path fill="#90635A" d="M131,86 C129.585,86.961 128.168,87.919 126.75,88.875 C125.961,89.409 125.172,89.942 124.359,90.492 C118.87,94 118.87,94 115,94 C115,93.34 115,92.68 115,92 C115.99,91.67 116.98,91.34 118,91 C118.577,90.361 119.155,89.721 119.75,89.062 C122.816,86.252 127.007,84.004 131,86 Z"/>
  <path fill="#816457" d="M129,98 C130.32,98.33 131.64,98.66 133,99 C130.445,101.981 127.617,103.524 124,105 C121.625,104.688 121.625,104.688 120,104 C124.5,100 124.5,100 129,100 C129,99.34 129,98.68 129,98 Z"/>
  <path fill="#7E5E53" d="M132,156 C133.953,156.68 133.953,156.68 136,158 C136.609,160.383 136.609,160.383 136.75,163.125 C136.807,164.035 136.863,164.945 136.922,165.883 C136.948,166.581 136.973,167.28 137,168 C136.01,168.495 136.01,168.495 135,169 C133.646,166.291 133.935,163.991 134,161 C133.34,161 132.68,161 132,161 C132,159.35 132,157.7 132,156 Z"/>
  <path fill="#86685D" d="M136,123 C136.99,123.33 137.98,123.66 139,124 C139,124.66 139,125.32 139,126 C135.27,128.034 133.331,129 129,129 C129,129.66 129,130.32 129,131 C127.35,131 125.7,131 124,131 C123.67,130.01 123.34,129.02 123,128 C124.238,127.856 125.475,127.711 126.75,127.562 C130.958,127.126 130.958,127.126 135,126 C135.33,125.01 135.66,124.02 136,123 Z"/>
  <path fill="#92736A" d="M64,160 C69.28,160 74.56,160 80,160 C77,163 77,163 74.117,163.145 C73.047,163.035 71.977,162.925 70.875,162.812 C69.8,162.716 68.725,162.619 67.617,162.52 C66.754,162.348 65.89,162.177 65,162 C64.67,161.34 64.34,160.68 64,160 Z"/>
  <path fill="#886B60" d="M112,147 C113.98,147 115.96,147 118,147 C118,148.32 118,149.64 118,151 C114.37,151 110.74,151 107,151 C107,150.34 107,149.68 107,149 C108.65,149 110.3,149 112,149 C112,148.34 112,147.68 112,147 Z"/>
  <path fill="#98685F" d="M139,177 C140.32,177.99 141.64,178.98 143,180 C141.375,185.75 141.375,185.75 138,188 C137.34,187.34 136.68,186.68 136,186 C136.33,185.34 136.66,184.68 137,184 C137.66,184 138.32,184 139,184 C139,181.69 139,179.38 139,177 Z"/>
  <path fill="#84665D" d="M119,155 C119.66,155 120.32,155 121,155 C122.299,159.331 123.344,163.515 124,168 C123.67,167.34 123.34,166.68 123,166 C122.01,166 121.02,166 120,166 C117.875,158.375 117.875,158.375 119,155 Z"/>
  <path fill="#856A61" d="M58,136 C58.33,136 58.66,136 59,136 C59.043,138 59.041,140 59,142 C58.67,142.33 58.34,142.66 58,143 C57.768,144.515 57.588,146.038 57.438,147.562 C57.354,148.389 57.27,149.215 57.184,150.066 C57.123,150.704 57.062,151.343 57,152 C57.66,152 58.32,152 59,152 C59,153.65 59,155.3 59,157 C55.645,153.468 55.622,150.703 55.688,145.938 C55.691,144.709 55.695,143.481 55.699,142.215 C56,139 56,139 58,136 Z"/>
  <path fill="#85685E" d="M160,75 C160.66,75 161.32,75 162,75 C161.938,77.188 161.938,77.188 161,80 C158.433,82.386 155.611,85 152,85 C152,83 152,83 153.375,81.375 C155,80 155,80 157,80 C157,79.34 157,78.68 157,78 C157.66,78 158.32,78 159,78 C159.33,77.01 159.66,76.02 160,75 Z"/>
  <path fill="#86635A" d="M155,115 C155.99,115.66 156.98,116.32 158,117 C157.67,117.66 157.34,118.32 157,119 C156.34,118.67 155.68,118.34 155,118 C152.084,117.583 152.084,117.583 149,118 C146.854,119.896 146.854,119.896 145,122 C142.75,122.75 142.75,122.75 141,123 C145.114,117.743 147.841,114.266 155,115 Z"/>
  <path fill="#7D6157" d="M73,134 C73.66,134.33 74.32,134.66 75,135 C74.551,136.482 74.09,137.961 73.625,139.438 C73.37,140.261 73.115,141.085 72.852,141.934 C72,144 72,144 70,145 C70,144.34 70,143.68 70,143 C69.34,142.67 68.68,142.34 68,142 C68.66,142 69.32,142 70,142 C70,140.35 70,138.7 70,137 C70.66,137 71.32,137 72,137 C72.33,136.01 72.66,135.02 73,134 Z"/>
  <path fill="#85685E" d="M95,104 C95.33,104.66 95.66,105.32 96,106 C92.939,108.624 92.268,109 88,109 C88,109.66 88,110.32 88,111 C87.01,110.67 86.02,110.34 85,110 C85.33,109.01 85.66,108.02 86,107 C88.066,106.051 88.066,106.051 90.562,105.312 C91.389,105.061 92.215,104.81 93.066,104.551 C93.704,104.369 94.343,104.187 95,104 Z"/>
  <path fill="#836458" d="M94,141 C95.65,141 97.3,141 99,141 C98.67,141.99 98.34,142.98 98,144 C94.241,145.623 91.079,146.24 87,146 C88.25,144.5 88.25,144.5 90,143 C91.32,143 92.64,143 94,143 C94,142.34 94,141.68 94,141 Z"/>
  <path fill="#87685B" d="M111,130 C113,132 113,132 113,136 C112.34,136 111.68,136 111,136 C111,136.66 111,137.32 111,138 C109.35,138.33 107.7,138.66 106,139 C106.454,138.258 106.908,137.515 107.375,136.75 C108.686,134.531 109.883,132.32 111,130 Z"/>
  <path fill="#8A6C62" d="M158,128 C157.01,128.495 157.01,128.495 156,129 C156,129.66 156,130.32 156,131 C153.69,131.33 151.38,131.66 149,132 C150,129 150,129 151.812,127.75 C154.339,126.884 155.522,127.115 158,128 Z"/>
  <path fill="#6A564D" d="M127,181 C128.32,182.65 129.64,184.3 131,186 C132.98,185.67 134.96,185.34 137,185 C137.33,185.99 137.66,186.98 138,188 C134.817,189 133.386,189.158 130.25,187.875 C128,186 128,186 127.188,183.312 C127.095,182.168 127.095,182.168 127,181 Z"/>
  <path fill="#83685E" d="M126,176 C126.99,176.33 127.98,176.66 129,177 C129.729,179.315 130.392,181.651 131,184 C131.99,185.485 131.99,185.485 133,187 C131.062,186.25 131.062,186.25 129,185 C128.638,183.674 128.303,182.341 128,181 C127.01,180.67 126.02,180.34 125,180 C125.33,178.68 125.66,177.36 126,176 Z"/>
  <path fill="#856B61" d="M104,113 C105.675,113.286 107.344,113.618 109,114 C109,115.98 109,117.96 109,120 C108.67,119.34 108.34,118.68 108,118 C107.34,117.856 106.68,117.711 106,117.562 C105.34,117.377 104.68,117.191 104,117 C103.67,116.01 103.34,115.02 103,114 C103.33,113.67 103.66,113.34 104,113 Z"/>
  <path fill="#826156" d="M101,114 C101.66,114.99 102.32,115.98 103,117 C100.69,118.32 98.38,119.64 96,121 C95.67,119.68 95.34,118.36 95,117 C95.99,117 96.98,117 98,117 C98,116.34 98,115.68 98,115 C98.99,114.67 99.98,114.34 101,114 Z"/>
  <path fill="#80675A" d="M99,152 C100.98,152 102.96,152 105,152 C105,152.66 105,153.32 105,154 C101.772,156.152 100.716,156.201 97,156 C97.66,154.68 98.32,153.36 99,152 Z"/>
  <path fill="#664A42" d="M145,117 C145,117.99 145,118.98 145,120 C144.01,120.66 143.02,121.32 142,122 C142.33,122.66 142.66,123.32 143,124 C141.02,124 139.04,124 137,124 C137,123.34 137,122.68 137,122 C138.75,120.711 138.75,120.711 141,119.375 C141.742,118.929 142.485,118.483 143.25,118.023 C143.827,117.686 144.405,117.348 145,117 Z"/>
  <path fill="#86685C" d="M117,105 C117.99,105 118.98,105 120,105 C120,107.31 120,109.62 120,112 C119.01,112 118.02,112 117,112 C117,109.69 117,107.38 117,105 Z"/>
  <path fill="#7C5F56" d="M82,125 C83.65,125.33 85.3,125.66 87,126 C86.01,127.485 86.01,127.485 85,129 C82.375,129.188 82.375,129.188 80,129 C80,128.34 80,127.68 80,127 C80.66,127 81.32,127 82,127 C82,126.34 82,125.68 82,125 Z"/>
  <path fill="#887269" d="M91,157 C91,157.66 91,158.32 91,159 C87.7,159.33 84.4,159.66 81,160 C85.215,156.839 86.061,156.663 91,157 Z"/>
  <path fill="#856A5F" d="M119,89 C120.32,89 121.64,89 123,89 C122,92 122,92 120.125,93.188 C118,94 118,94 115,94 C115,93.34 115,92.68 115,92 C115.99,91.67 116.98,91.34 118,91 C118.33,90.34 118.66,89.68 119,89 Z"/>
  <path fill="#7B5E54" d="M118,149 C118.33,149 118.66,149 119,149 C120.125,154.625 120.125,154.625 119,158 C118.34,158 117.68,158 117,158 C116.875,151.25 116.875,151.25 118,149 Z"/>
</svg>
