<svg xmlns="http://www.w3.org/2000/svg" version="1.1" width="235" height="267">
  <defs/>
  <path fill="#775548" d="M137,40 C139.688,41.562 139.688,41.562 141,44 C141.719,49.858 141.719,49.858 139.938,52.688 C138,54 138,54 134.75,55.5 C126.19,60.26 122.856,71.23 120,80 C119.487,81.357 118.967,82.712 118.438,84.062 C115.027,93.239 113.188,102.237 111.875,111.938 C111.541,114.343 111.206,116.748 110.867,119.152 C110.724,120.204 110.581,121.256 110.433,122.34 C110,125 110,125 109,128 C107.889,146.202 108.238,164.847 115,182 C115.275,182.794 115.549,183.588 115.832,184.406 C119.39,194.217 124.198,201.812 133.5,206.902 C135.835,207.927 137.947,208.554 140.438,209.062 C144,210 144,210 146.125,212.25 C147.296,215.929 146.71,217.579 145,221 C142.776,223.13 141.585,223.958 138.484,224.18 C126.317,222.824 117.677,219.025 109.762,209.23 C105.107,202.542 101.635,195.7 99,188 C98.777,187.379 98.554,186.759 98.324,186.119 C89.274,160.233 90.116,124.376 97,98 C97.495,97.505 97.495,97.505 98,97 C98.186,95.268 98.186,95.268 98.375,93.5 C98.825,89.594 99.809,86.155 101.133,82.461 C101.735,80.752 102.289,79.026 102.805,77.289 C105.455,68.54 109.512,60.912 114,53 C114.456,52.157 114.913,51.314 115.383,50.445 C120.444,41.563 126.688,38.27 137,40 Z"/>
  <path fill="#7C5C51" d="M95,130 C95.33,130 95.66,130 96,130 C96.025,130.953 96.05,131.905 96.076,132.886 C96.171,136.459 96.271,140.032 96.372,143.605 C96.415,145.144 96.457,146.683 96.497,148.222 C96.707,156.188 96.929,164.092 98,172 C97.01,172 96.02,172 95,172 C94.057,169.171 93.871,167.423 93.867,164.492 C93.865,163.595 93.863,162.698 93.861,161.774 C93.868,160.339 93.868,160.339 93.875,158.875 C93.877,157.899 93.879,156.923 93.881,155.917 C93.932,147.253 94.358,138.638 95,130 Z"/>
  <path fill="#846057" d="M135,41 C135,41.33 135,41.66 135,42 C131.7,42.66 128.4,43.32 125,44 C125,44.66 125,45.32 125,46 C124.34,46 123.68,46 123,46 C122.67,46.99 122.34,47.98 122,49 C121.34,49 120.68,49 120,49 C120,49.66 120,50.32 120,51 C119.01,50.67 118.02,50.34 117,50 C117.928,46.658 118.929,45.065 121.5,42.688 C126.122,40.459 129.961,40.641 135,41 Z"/>
  <path fill="#836358" d="M102,86 C102.33,86 102.66,86 103,86 C103.042,88.333 103.041,90.667 103,93 C102.67,93.33 102.34,93.66 102,94 C101.807,96.028 101.617,98.057 101.477,100.09 C101,102 101,102 98,104 C98,101.69 98,99.38 98,97 C98.66,97 99.32,97 100,97 C99.959,96.113 99.918,95.226 99.875,94.312 C99.999,91.027 100.614,88.946 102,86 Z"/>
  <path fill="#806155" d="M111,206 C111.66,206 112.32,206 113,206 C113,206.66 113,207.32 113,208 C113.66,208 114.32,208 115,208 C115,208.99 115,209.98 115,211 C115.99,211 116.98,211 118,211 C118,211.66 118,212.32 118,213 C118.99,213.33 119.98,213.66 121,214 C121,214.66 121,215.32 121,216 C120.443,215.711 119.886,215.423 119.312,215.125 C116.998,213.926 116.998,213.926 114.375,213.188 C112,212 112,212 110.688,209.375 C110.461,208.591 110.234,207.807 110,207 C110.33,206.67 110.66,206.34 111,206 Z"/>
  <path fill="#66483B" d="M139,43 C139.66,43.33 140.32,43.66 141,44 C141.125,50.75 141.125,50.75 140,53 C139.01,52.67 138.02,52.34 137,52 C137.66,49.03 138.32,46.06 139,43 Z"/>
  <path fill="#816359" d="M103,191 C105.339,193.127 106.807,195.062 108,198 C108,198.99 108,199.98 108,201 C106.68,200.67 105.36,200.34 104,200 C104.33,199.34 104.66,198.68 105,198 C104.351,196.658 103.683,195.325 103,194 C103,193.01 103,192.02 103,191 Z"/>
  <path fill="#886B5F" d="M123,44 C123.66,44 124.32,44 125,44 C125,44.66 125,45.32 125,46 C124.34,46 123.68,46 123,46 C122.67,46.99 122.34,47.98 122,49 C121.34,49 120.68,49 120,49 C120,49.66 120,50.32 120,51 C119.01,50.67 118.02,50.34 117,50 C119,48 121,46 123,44 Z"/>
  <path fill="#84655A" d="M98,176 C99.5,177.188 99.5,177.188 101,179 C101.188,181.688 101.188,181.688 101,184 C100.01,183.67 99.02,183.34 98,183 C98,180.69 98,178.38 98,176 Z"/>
  <path fill="#84675B" d="M117,52 C117.33,52.99 117.66,53.98 118,55 C116.562,57.188 116.562,57.188 115,59 C114.01,58.67 113.02,58.34 112,58 C112.33,57.34 112.66,56.68 113,56 C113.66,56 114.32,56 115,56 C115.66,54.68 116.32,53.36 117,52 Z"/>
</svg>
