<svg xmlns="http://www.w3.org/2000/svg" version="1.1" width="211" height="237">
  <defs/>
  <path fill="#785549" d="M98.5,19.625 C104.971,23.184 108.576,30.274 111.875,36.625 C112.277,37.362 112.679,38.1 113.094,38.859 C115.109,42.683 116.58,45.554 116,50 C116.66,50 117.32,50 118,50 C118.398,51.321 118.398,51.321 118.805,52.668 C119.158,53.829 119.511,54.991 119.875,56.188 C120.397,57.91 120.397,57.91 120.93,59.668 C121.843,62.511 122.867,65.24 124,68 C125.62,72.861 126.327,77.392 126.656,82.473 C126.894,85.037 126.894,85.037 128.005,87.394 C129.46,92.666 129.285,97.778 129.266,103.223 C129.268,104.99 129.268,104.99 129.271,106.793 C129.273,109.278 129.269,111.764 129.261,114.249 C129.25,118.052 129.261,121.855 129.273,125.658 C129.272,128.076 129.27,130.493 129.266,132.91 C129.27,134.047 129.274,135.183 129.278,136.354 C129.272,137.416 129.265,138.477 129.259,139.571 C129.257,140.501 129.256,141.431 129.254,142.389 C128.976,145.244 128.145,147.384 127,150 C126.663,152.095 126.663,152.095 126.562,154.188 C125.636,163.708 121.781,172.302 118,181 C117.34,181 116.68,181 116,181 C115.917,181.681 115.835,182.361 115.75,183.062 C114.777,186.875 113.042,189.641 111,193 C110.34,193 109.68,193 109,193 C108.604,193.86 108.604,193.86 108.199,194.738 C106.095,198.706 103.361,202.025 100,205 C96.34,206.117 94.313,206.426 90.688,205.25 C89,204 89,204 87,201 C86.522,197.276 86.662,195.537 88.68,192.332 C89.766,191.085 89.766,191.085 90.875,189.812 C91.594,188.973 92.314,188.134 93.055,187.27 C93.697,186.521 94.339,185.772 95,185 C95.66,184.01 96.32,183.02 97,182 C97.66,182 98.32,182 99,182 C99.34,180.824 99.34,180.824 99.688,179.625 C100.75,176.689 101.899,174.283 103.375,171.562 C106.27,165.952 107.703,160.222 109.203,154.125 C110,151 110,151 111,149 C114.019,133.496 114.307,118.279 112.938,102.625 C112.878,101.897 112.818,101.169 112.756,100.419 C111.908,90.499 110.013,81.513 107,72 C106.392,69.855 105.787,67.71 105.188,65.562 C102.848,58.019 99.517,51.051 96,44 C95.542,43.062 95.085,42.123 94.613,41.156 C92.318,36.695 90.644,34.259 86,32 C83.673,28.509 83.497,27.108 84,23 C88.619,17.303 91.763,17.941 98.5,19.625 Z"/>
  <path fill="#81665B" d="M96,19 C96.825,19.206 97.65,19.413 98.5,19.625 C102.981,22.09 106.187,25.573 107.824,30.461 C108.308,32.638 108.709,34.789 109,37 C108.34,37 107.68,37 107,37 C104,31.25 104,31.25 104,29 C103.34,29 102.68,29 102,29 C102,28.01 102,27.02 102,26 C100.35,25.34 98.7,24.68 97,24 C97,23.34 97,22.68 97,22 C94.03,22 91.06,22 88,22 C87.34,23.65 86.68,25.3 86,27 C85.34,26.67 84.68,26.34 84,26 C84.272,22.642 84.584,21.357 87.188,19.125 C90.675,17.73 92.404,18.026 96,19 Z"/>
  <path fill="#82665C" d="M104,194 C104.99,194 105.98,194 107,194 C106.736,198.495 104.92,200.802 101.754,203.77 C98.944,205.741 96.367,205.936 93,206 C92.01,205.67 91.02,205.34 90,205 C89.67,203.02 89.34,201.04 89,199 C89.99,199.495 89.99,199.495 91,200 C91,200.66 91,201.32 91,202 C95.455,201.505 95.455,201.505 100,201 C100,200.34 100,199.68 100,199 C100.66,199 101.32,199 102,199 C102,198.01 102,197.02 102,196 C102.66,196 103.32,196 104,196 C104,195.34 104,194.68 104,194 Z"/>
  <path fill="#806356" d="M126,143 C128.301,146.572 128.009,148.896 127.25,153 C127.07,154.031 126.889,155.062 126.703,156.125 C126.073,158.7 125.301,160.707 124,163 C123.34,163 122.68,163 122,163 C121.902,156.848 121.902,156.848 122,155 C122.33,154.67 122.66,154.34 123,154 C123.282,151.713 123.448,149.426 123.621,147.129 C124,145 124,145 126,143 Z"/>
  <path fill="#7D6157" d="M117,56 C117.99,56 118.98,56 120,56 C121.32,60.29 122.64,64.58 124,69 C123.01,69.495 123.01,69.495 122,70 C118.545,67.33 117.944,64.138 117,60 C117,58.68 117,57.36 117,56 Z"/>
  <path fill="#7C5F54" d="M101,182 C100.75,183.875 100.75,183.875 100,186 C99.361,186.309 98.721,186.619 98.062,186.938 C95.735,187.873 95.735,187.873 94.75,190.625 C94.503,191.409 94.255,192.193 94,193 C93.34,193 92.68,193 92,193 C91.67,192.01 91.34,191.02 91,190 C92.074,187.957 92.074,187.957 93.688,185.812 C94.467,184.739 94.467,184.739 95.262,183.645 C97,182 97,182 101,182 Z"/>
  <path fill="#6D5246" d="M88,193 C88.99,193.33 89.98,193.66 91,194 C91.179,197.947 91.094,200.598 89,204 C86.696,200.543 86.741,199.051 87,195 C87.33,194.34 87.66,193.68 88,193 Z"/>
  <path fill="#7C6157" d="M103,172 C103.99,172.33 104.98,172.66 106,173 C106,173.99 106,174.98 106,176 C105.34,176 104.68,176 104,176 C103.67,177.65 103.34,179.3 103,181 C102.34,181 101.68,181 101,181 C100.312,179.312 100.312,179.312 100,177 C101.438,174.25 101.438,174.25 103,172 Z"/>
  <path fill="#826458" d="M114,94 C116.679,98.019 116.156,100.242 116,105 C115.01,105 114.02,105 113,105 C111.974,100.589 111.963,98.074 114,94 Z"/>
  <path fill="#816459" d="M109,38 C109.99,38 110.98,38 112,38 C114.429,41.644 114.162,43.712 114,48 C113.34,47.67 112.68,47.34 112,47 C111.375,44.438 111.375,44.438 111,42 C110.34,42 109.68,42 109,42 C109,40.68 109,39.36 109,38 Z"/>
  <path fill="#7E5F52" d="M111,78 C112.5,79.125 112.5,79.125 114,81 C114.188,84.188 114.188,84.188 114,87 C113.01,86.67 112.02,86.34 111,86 C110.2,82.713 109.903,81.29 111,78 Z"/>
  <path fill="#8A6C61" d="M126,143 C127.125,144.688 127.125,144.688 128,147 C127.125,149.75 127.125,149.75 126,152 C125.34,152 124.68,152 124,152 C123.875,148.625 123.875,148.625 124,145 C124.66,144.34 125.32,143.68 126,143 Z"/>
  <path fill="#806257" d="M110,160 C110.955,162.17 111.144,163.563 110.398,165.824 C109.641,167.568 108.824,169.286 108,171 C107.34,171 106.68,171 106,171 C106.087,169.541 106.195,168.082 106.312,166.625 C106.371,165.813 106.429,165.001 106.488,164.164 C107,162 107,162 110,160 Z"/>
  <path fill="#7A6158" d="M109,187 C109.99,187 110.98,187 112,187 C111.67,188.98 111.34,190.96 111,193 C109.68,193 108.36,193 107,193 C107,192.01 107,191.02 107,190 C107.66,190 108.32,190 109,190 C109,189.01 109,188.02 109,187 Z"/>
  <path fill="#836459" d="M115,177 C115.66,177 116.32,177 117,177 C116.67,179.64 116.34,182.28 116,185 C114.68,184.67 113.36,184.34 112,184 C112,183.34 112,182.68 112,182 C112.66,182 113.32,182 114,182 C114.33,180.35 114.66,178.7 115,177 Z"/>
  <path fill="#84655A" d="M115,131 C115.33,131 115.66,131 116,131 C116,134.63 116,138.26 116,142 C115.01,142.495 115.01,142.495 114,143 C114,141.35 114,139.7 114,138 C113.34,137.67 112.68,137.34 112,137 C112.66,137 113.32,137 114,137 C114.33,135.02 114.66,133.04 115,131 Z"/>
</svg>
