<svg xmlns="http://www.w3.org/2000/svg" version="1.1" width="250" height="274">
  <defs/>
  <path fill="#795547" d="M119,53 C119,53.66 119,54.32 119,55 C119.99,55.33 120.98,55.66 122,56 C124.285,59.248 124.544,62.114 124,66 C120.577,71.394 118.293,72.429 112,74 C112.052,77.21 112.147,80.417 112.25,83.625 C112.264,84.529 112.278,85.432 112.293,86.363 C112.504,92.145 113.378,95.294 117,100 C117.555,104.023 117.643,106.035 115.375,109.438 C112.243,111.498 110.685,111.677 107,111 C101.22,106.459 97.869,100.033 96,93 C95.691,89.621 95.667,86.266 95.688,82.875 C95.692,81.942 95.697,81.008 95.702,80.046 C95.874,69.896 96.94,60.733 104,53 C108.67,49.664 113.823,51.693 119,53 Z"/>
  <path fill="#785447" d="M152.836,52.418 C155,53 155,53 157.562,54.875 C159.726,59.578 159.879,63.918 159,69 C156.028,73.284 152.989,74.724 148,76 C147.574,83.696 148.533,89.067 152,96 C152.284,98.935 152.495,101.15 152,104 C149.875,106.562 149.875,106.562 147,108 C143.072,107.843 141.291,107.194 138,105 C133.183,97.252 132.48,89.211 132.375,80.312 C132.352,79.351 132.329,78.39 132.306,77.4 C132.395,68.905 135.029,62.395 140.625,56 C145.103,52.229 147.199,51.582 152.836,52.418 Z"/>
  <path fill="#613D30" d="M150.562,52.125 C151.74,52.222 151.74,52.222 152.941,52.32 C155,53 155,53 156.277,55.055 C156.516,55.697 156.754,56.339 157,57 C156.134,56.67 155.268,56.34 154.375,56 C150.89,54.968 148.594,54.465 145,55 C139.796,58.717 137.68,64.007 136,70 C135.553,74.394 135.617,78.715 135.75,83.125 C135.768,84.272 135.786,85.42 135.805,86.602 C135.851,89.402 135.917,92.201 136,95 C135.34,95 134.68,95 134,95 C132.461,90.382 132.692,85.776 132.625,80.938 C132.588,79.938 132.55,78.938 132.512,77.908 C132.409,69.088 134.804,62.652 140.625,56 C144.159,53.024 145.959,51.655 150.562,52.125 Z"/>
  <path fill="#663E30" d="M111,83 C111.33,83 111.66,83 112,83 C112.039,84.087 112.039,84.087 112.078,85.195 C112.446,91.467 113.335,94.798 117,100 C117.555,104.023 117.643,106.035 115.375,109.438 C112.243,111.498 110.685,111.677 107,111 C102.773,107.679 100.268,103.797 98,99 C98.398,96.785 98.398,96.785 99,95 C99.326,95.687 99.652,96.374 99.988,97.082 C100.644,98.434 100.644,98.434 101.312,99.812 C101.742,100.706 102.171,101.599 102.613,102.52 C103.91,104.838 104.893,106.399 107,108 C110.625,108.25 110.625,108.25 114,108 C114.52,102.18 114.52,102.18 112,97.125 C109.25,92.827 109.427,88.989 110,84 C110.33,83.67 110.66,83.34 111,83 Z"/>
  <path fill="#674031" d="M157,58 C157.66,58 158.32,58 159,58 C159.778,67.878 159.778,67.878 156.875,72.062 C153.948,74.035 151.41,75.128 148,76 C147.764,82.404 148.177,87.846 150,94 C149.01,93.67 148.02,93.34 147,93 C144.585,86.9 143.906,80.283 146,74 C148.996,71.226 152.12,70.146 156,69 C156.33,65.37 156.66,61.74 157,58 Z"/>
  <path fill="#634034" d="M100,58 C101.044,61.218 100.88,63.183 100.062,66.438 C98.223,75.475 98.834,84.823 99,94 C98.01,93.67 97.02,93.34 96,93 C95.299,67.403 95.299,67.403 100,58 Z"/>
  <path fill="#614030" d="M109,51 C112.3,51.66 115.6,52.32 119,53 C119,53.66 119,54.32 119,55 C119.99,55.33 120.98,55.66 122,56 C124.285,59.248 124.544,62.114 124,66 C122.519,68.27 120.884,70.022 119,72 C118.34,71.67 117.68,71.34 117,71 C117,70.34 117,69.68 117,69 C117.99,69 118.98,69 120,69 C121.231,62.907 121.231,62.907 119.625,57.062 C116.017,54.228 112.476,53.641 108,53 C108.33,52.34 108.66,51.68 109,51 Z"/>
  <path fill="#5C3528" d="M98,95 C101.159,96.58 101.626,99.601 102.902,102.773 C104.044,105.09 104.956,106.43 107,108 C109.041,108.57 109.041,108.57 111.188,108.688 C113.075,108.842 113.075,108.842 115,109 C113,111 113,111 110.188,111.438 C105.875,110.846 104.711,109.353 102,106 C99.443,102.269 98,99.667 98,95 Z"/>
  <path fill="#5E3D2F" d="M136,96 C138.252,98.688 139.882,100.646 141,104 C144.008,105.225 144.008,105.225 147,106 C147,106.66 147,107.32 147,108 C143.265,107.502 141.188,107.125 138,105 C137.051,103.055 137.051,103.055 136.312,100.875 C136.061,100.151 135.81,99.426 135.551,98.68 C135.369,98.125 135.187,97.571 135,97 C135.33,96.67 135.66,96.34 136,96 Z"/>
  <path fill="#664135" d="M150,95 C150.66,95.33 151.32,95.66 152,96 C152.293,102.055 152.293,102.055 152,104 C151.01,104.66 150.02,105.32 149,106 C148.973,104.354 148.954,102.708 148.938,101.062 C148.926,100.146 148.914,99.229 148.902,98.285 C149,96 149,96 150,95 Z"/>
  <path fill="#6E4A31" d="M137,61 C137.66,61 138.32,61 139,61 C138.576,62.462 138.135,63.92 137.688,65.375 C137.444,66.187 137.2,66.999 136.949,67.836 C136,70 136,70 133,72 C133.607,67.872 135.038,64.668 137,61 Z"/>
  <path fill="#6B4734" d="M116,71 C116,71.66 116,72.32 116,73 C114.68,73.33 113.36,73.66 112,74 C112,75.98 112,77.96 112,80 C111.34,80 110.68,80 110,80 C110,77.69 110,75.38 110,73 C113.75,71 113.75,71 116,71 Z"/>
  <path fill="#6F493D" d="M108,52 C108,52.66 108,53.32 108,54 C107.381,54.454 106.762,54.908 106.125,55.375 C103.866,57.103 103.072,58.408 102,61 C101.188,59.312 101.188,59.312 101,57 C105.205,52 105.205,52 108,52 Z"/>
</svg>
