<svg xmlns="http://www.w3.org/2000/svg" version="1.1" width="225" height="252">
  <defs/>
  <path fill="#785548" d="M144.812,35.125 C148,37 148,37 149,39 C149.631,43.504 149.236,46.161 146.562,49.75 C145.39,51.179 144.2,52.594 143,54 C141.374,55.999 139.749,57.999 138.125,60 C136.752,61.668 135.377,63.335 134,65 C135.196,64.835 136.393,64.67 137.625,64.5 C141.854,64.043 146.059,63.839 150.312,63.75 C151.484,63.724 152.656,63.698 153.863,63.672 C157.276,64.029 158.617,64.577 161,67 C162.018,70.345 162.171,72.371 161.25,75.75 C160,78 160,78 157,80 C154.875,80.303 154.875,80.303 152.43,80.379 C151.533,80.413 150.635,80.447 149.711,80.482 C148.307,80.522 148.307,80.522 146.875,80.562 C140.197,80.784 133.634,81.179 127,82 C127.66,82.784 128.32,83.568 129,84.375 C131,87 131,87 131,89 C131.66,89 132.32,89 133,89 C135.32,92.19 137.346,95.417 139,99 C139.66,99 140.32,99 141,99 C144.02,104.315 144.02,104.315 143.938,107.125 C142.587,109.826 141.48,111.22 139,113 C135.603,113.679 134.188,113.951 131,113 C125.422,108.947 120.624,102.849 117,97 C117,96.34 117,95.68 117,95 C116.34,95 115.68,95 115,95 C114.34,94.01 113.68,93.02 113,92 C109.782,93.391 107.886,94.96 105.625,97.625 C105.026,98.329 104.426,99.033 103.809,99.758 C101.513,102.604 99.362,105.539 97.262,108.531 C96.845,109.016 96.429,109.501 96,110 C95.34,110 94.68,110 94,110 C93.67,110.99 93.34,111.98 93,113 C92.34,113 91.68,113 91,113 C91,113.66 91,114.32 91,115 C87.267,117.488 85.416,117.542 81,117 C78.113,114.483 77.117,112.957 76.652,109.148 C77.091,105.172 78.365,103.724 81,100.75 C81.813,99.81 82.627,98.871 83.465,97.902 C84.301,96.945 85.138,95.987 86,95 C87.531,93.112 89.052,91.217 90.562,89.312 C91.708,87.875 92.854,86.437 94,85 C93.264,85.026 92.527,85.052 91.769,85.079 C88.429,85.183 85.09,85.248 81.75,85.312 C80.591,85.354 79.432,85.396 78.238,85.439 C69.668,85.563 69.668,85.563 66.203,82.641 C65,80 65,80 65,77.438 C66.247,74.398 67.379,73 70,71 C75.194,69.212 80.008,68.613 85.438,68.375 C86.169,68.336 86.901,68.298 87.654,68.258 C89.436,68.165 91.218,68.081 93,68 C91.584,66.103 90.168,64.208 88.75,62.312 C87.961,61.257 87.172,60.201 86.359,59.113 C84.874,57.153 83.339,55.228 81.738,53.359 C78.966,49.597 79.346,47.581 80,43 C82.125,40.438 82.125,40.438 85,39 C88.454,38.693 90.227,39.375 92.914,41.547 C97.811,46.274 101.91,51.579 106,57 C109.257,61.433 109.257,61.433 114,64 C114.271,63.41 114.541,62.819 114.82,62.211 C115.991,60.017 117.207,58.459 118.875,56.625 C121.274,53.959 123.625,51.266 125.918,48.508 C126.436,47.89 126.953,47.271 127.487,46.634 C128.517,45.402 129.542,44.166 130.56,42.924 C138.655,33.308 138.655,33.308 144.812,35.125 Z"/>
  <path fill="#7C5D53" d="M99,82 C98.372,84.929 97.414,87.361 96,90 C95.34,90 94.68,90 94,90 C94,90.99 94,91.98 94,93 C93.01,93 92.02,93 91,93 C90.34,94.65 89.68,96.3 89,98 C88.34,98 87.68,98 87,98 C86.67,98.99 86.34,99.98 86,101 C85.34,101 84.68,101 84,101 C83.67,102.32 83.34,103.64 83,105 C82.34,105 81.68,105 81,105 C81,105.99 81,106.98 81,108 C80.34,108 79.68,108 79,108 C78.67,108.66 78.34,109.32 78,110 C77.658,106.371 77.616,104.556 79.723,101.508 C80.495,100.721 81.267,99.935 82.062,99.125 C82.88,98.274 83.697,97.423 84.539,96.547 C85.351,95.706 86.163,94.866 87,94 C88.882,91.815 90.74,89.611 92.59,87.398 C94,86 94,86 96,86 C95.67,85.34 95.34,84.68 95,84 C92.678,83.593 90.343,83.256 88,83 C88,82.67 88,82.34 88,82 C95.429,80.714 95.429,80.714 99,82 Z"/>
  <path fill="#866255" d="M141,34 C147.742,36.484 147.742,36.484 149,39 C149.233,45.533 149.233,45.533 148,48 C145.938,48.625 145.938,48.625 144,49 C144.628,46.071 145.586,43.639 147,41 C146.34,41 145.68,41 145,41 C145,40.34 145,39.68 145,39 C142.69,39 140.38,39 138,39 C138,39.66 138,40.32 138,41 C137.34,41 136.68,41 136,41 C136,41.66 136,42.32 136,43 C135.34,43 134.68,43 134,43 C133.67,43.99 133.34,44.98 133,46 C132.34,46 131.68,46 131,46 C131,46.99 131,47.98 131,49 C130.34,49 129.68,49 129,49 C129,49.66 129,50.32 129,51 C128.34,50.67 127.68,50.34 127,50 C129.952,42.988 134.028,37.486 141,34 Z"/>
  <path fill="#7F6258" d="M87.812,38.75 C95.59,41.8 101.089,49.859 105,57 C105,57.66 105,58.32 105,59 C104.01,58.67 103.02,58.34 102,58 C102,57.34 102,56.68 102,56 C101.34,56 100.68,56 100,56 C96.601,52.95 94.287,49.921 92,46 C91.34,45.67 90.68,45.34 90,45 C90,44.34 90,43.68 90,43 C84.592,44.098 84.592,44.098 81,48 C80.67,46.35 80.34,44.7 80,43 C82.597,40.479 84.15,39.076 87.812,38.75 Z"/>
  <path fill="#816057" d="M144,64 C146.083,63.919 148.166,63.861 150.25,63.812 C151.99,63.76 151.99,63.76 153.766,63.707 C157.259,64.023 158.583,64.508 161,67 C162.387,72.227 162.387,72.227 161,75 C160.34,75 159.68,75 159,75 C159,73.02 159,71.04 159,69 C149.43,68.67 139.86,68.34 130,68 C130,67.67 130,67.34 130,67 C134.62,66.67 139.24,66.34 144,66 C144,65.34 144,64.68 144,64 Z"/>
  <path fill="#83675C" d="M125,52 C125,55 125,55 124,58 C123.01,58 122.02,58 121,58 C121,58.99 121,59.98 121,61 C118.625,63.688 118.625,63.688 116,66 C115.34,66 114.68,66 114,66 C114,66.66 114,67.32 114,68 C112.68,68 111.36,68 110,68 C110,67.34 110,66.68 110,66 C109.01,65.67 108.02,65.34 107,65 C107,64.34 107,63.68 107,63 C106.34,63 105.68,63 105,63 C105,62.01 105,61.02 105,60 C106.32,60 107.64,60 109,60 C109.99,61.485 109.99,61.485 111,63 C111.99,63.33 112.98,63.66 114,64 C114.227,63.464 114.454,62.927 114.688,62.375 C117.164,57.893 120.075,53.824 125,52 Z"/>
  <path fill="#8E6F63" d="M86.438,70 C87.211,70.495 87.211,70.495 88,71 C84.18,72.747 80.932,73.32 76.75,73.562 C73.059,73.472 73.059,73.472 70,75 C69.632,77.328 69.298,79.662 69,82 C68.34,81.67 67.68,81.34 67,81 C67,80.01 67,79.02 67,78 C66.34,78 65.68,78 65,78 C66.25,74.347 66.671,73.219 70,71 C75.49,69.1 80.878,67.719 86.438,70 Z"/>
  <path fill="#7C5F54" d="M110,87 C111.32,87 112.64,87 114,87 C114,87.66 114,88.32 114,89 C114.66,89 115.32,89 116,89 C116.66,90.65 117.32,92.3 118,94 C118.66,94 119.32,94 120,94 C120.33,95.32 120.66,96.64 121,98 C120.01,98 119.02,98 118,98 C117.67,97.01 117.34,96.02 117,95 C116.34,95 115.68,95 115,95 C114.34,94.01 113.68,93.02 113,92 C110.437,91.27 110.437,91.27 108,91 C108,90.34 108,89.68 108,89 C108.66,89 109.32,89 110,89 C110,88.34 110,87.68 110,87 Z"/>
  <path fill="#7D6259" d="M92,62 C92.66,62 93.32,62 94,62 C95.688,64.25 95.688,64.25 97,67 C96.582,69.172 96.582,69.172 96,71 C87.571,73.286 87.571,73.286 83,73 C83.99,72.34 84.98,71.68 86,71 C85.34,70.34 84.68,69.68 84,69 C87.3,68.67 90.6,68.34 94,68 C93.34,66.02 92.68,64.04 92,62 Z"/>
  <path fill="#8A6F63" d="M88.312,39.25 C89.643,39.621 89.643,39.621 91,40 C91.33,41.32 91.66,42.64 92,44 C90.742,43.917 89.484,43.835 88.188,43.75 C86.012,43.683 86.012,43.683 84,44 C81.947,45.842 81.947,45.842 81,48 C80.67,46.35 80.34,44.7 80,43 C84.185,38.938 84.185,38.938 88.312,39.25 Z"/>
  <path fill="#8C6F64" d="M142.82,36.277 C143.54,36.516 144.259,36.754 145,37 C145,37.33 145,37.66 145,38 C144.031,38.124 143.061,38.248 142.062,38.375 C141.052,38.581 140.041,38.787 139,39 C138.67,39.66 138.34,40.32 138,41 C137.34,41 136.68,41 136,41 C136,41.66 136,42.32 136,43 C135.34,43 134.68,43 134,43 C133.67,43.99 133.34,44.98 133,46 C132.34,46 131.68,46 131,46 C131,46.99 131,47.98 131,49 C130.34,49 129.68,49 129,49 C129,49.66 129,50.32 129,51 C128.34,50.67 127.68,50.34 127,50 C129.171,43.796 135.766,35.584 142.82,36.277 Z"/>
  <path fill="#87685E" d="M99,82 C98.372,84.929 97.414,87.361 96,90 C95.34,90 94.68,90 94,90 C94,90.99 94,91.98 94,93 C93.01,93 92.02,93 91,93 C91.309,92.402 91.619,91.804 91.938,91.188 C93.102,88.91 93.102,88.91 94,86 C94.66,86 95.32,86 96,86 C95.67,85.34 95.34,84.68 95,84 C92.678,83.593 90.343,83.256 88,83 C88,82.67 88,82.34 88,82 C95.429,80.714 95.429,80.714 99,82 Z"/>
  <path fill="#8D746B" d="M144,64 C145.98,64.113 147.959,64.241 149.938,64.375 C151.591,64.479 151.591,64.479 153.277,64.586 C154.176,64.723 155.074,64.859 156,65 C156.33,65.66 156.66,66.32 157,67 C147.963,67.942 139.074,68.112 130,68 C130,67.67 130,67.34 130,67 C134.62,66.67 139.24,66.34 144,66 C144,65.34 144,64.68 144,64 Z"/>
  <path fill="#7F6257" d="M98,101 C98.66,101.33 99.32,101.66 100,102 C98.68,104.64 97.36,107.28 96,110 C95.34,110 94.68,110 94,110 C94,110.66 94,111.32 94,112 C92.68,112 91.36,112 90,112 C90,109 90,109 92.375,106.312 C95,104 95,104 97,104 C97.33,103.01 97.66,102.02 98,101 Z"/>
  <path fill="#7E5E54" d="M139,52 C139.99,52 140.98,52 142,52 C141.71,55.482 141.272,56.742 138.688,59.188 C136.493,60.667 134.413,61.928 132,63 C133,61 134,59 135,57 C135.66,57 136.32,57 137,57 C137.66,55.35 138.32,53.7 139,52 Z"/>
  <path fill="#7F6258" d="M123,79 C125.64,79 128.28,79 131,79 C131,79.66 131,80.32 131,81 C129.68,81.33 128.36,81.66 127,82 C127,83.32 127,84.64 127,86 C126.01,85.67 125.02,85.34 124,85 C124,84.34 124,83.68 124,83 C123.34,83 122.68,83 122,83 C122.33,81.68 122.66,80.36 123,79 Z"/>
  <path fill="#816358" d="M79,112 C81.018,112.26 83.036,112.521 85.055,112.781 C87.005,113.037 87.005,113.037 89,113 C88.67,114.32 88.34,115.64 88,117 C84.625,117.125 84.625,117.125 81,117 C80.34,116.34 79.68,115.68 79,115 C79,114.01 79,113.02 79,112 Z"/>
  <path fill="#886F64" d="M142,102 C144,105 144,105 143.812,107 C142.901,109.245 141.815,110.422 140,112 C138.831,108.493 139.149,106.557 140,103 C140.66,102.67 141.32,102.34 142,102 Z"/>
  <path fill="#7C6055" d="M122,99 C122.66,99 123.32,99 124,99 C124.66,100.65 125.32,102.3 126,104 C126.66,104 127.32,104 128,104 C128.33,105.32 128.66,106.64 129,108 C123.391,105.561 123.391,105.561 121.562,102.938 C121,101 121,101 122,99 Z"/>
  <path fill="#6A4D45" d="M126,84 C127.938,84.812 127.938,84.812 130,86 C130.33,86.99 130.66,87.98 131,89 C131.66,89 132.32,89 133,89 C134.32,91.31 135.64,93.62 137,96 C133.357,94.525 131.592,92.555 129.25,89.438 C128.636,88.632 128.023,87.826 127.391,86.996 C126,85 126,85 126,84 Z"/>
  <path fill="#896153" d="M129,64 C129.99,64 130.98,64 132,64 C132,64.66 132,65.32 132,66 C135.96,65.34 139.92,64.68 144,64 C144,64.66 144,65.32 144,66 C139.05,66.66 134.1,67.32 129,68 C129,66.68 129,65.36 129,64 Z"/>
  <path fill="#80655B" d="M83,101 C83.33,101.99 83.66,102.98 84,104 C83.01,104.33 82.02,104.66 81,105 C81,105.99 81,106.98 81,108 C80.34,108 79.68,108 79,108 C78.67,108.66 78.34,109.32 78,110 C78.479,105.686 79.746,103.834 83,101 Z"/>
  <path fill="#816056" d="M138,109 C138.66,109.99 139.32,110.98 140,112 C139,113 139,113 135.938,113.062 C134.968,113.042 133.999,113.021 133,113 C132.67,112.34 132.34,111.68 132,111 C133.98,110.34 135.96,109.68 138,109 Z"/>
  <path fill="#887167" d="M79,69 C81.97,69.33 84.94,69.66 88,70 C87.34,70.66 86.68,71.32 86,72 C82.375,71.625 82.375,71.625 79,71 C79,70.34 79,69.68 79,69 Z"/>
  <path fill="#755C52" d="M128,46 C129,48 129,48 128.375,50.562 C127,53 127,53 124.375,53.812 C123.591,53.874 122.808,53.936 122,54 C123.98,51.36 125.96,48.72 128,46 Z"/>
  <path fill="#644A42" d="M145,48 C145.66,48.33 146.32,48.66 147,49 C145.35,50.65 143.7,52.3 142,54 C141.67,53.01 141.34,52.02 141,51 C142,49 142,49 145,48 Z"/>
</svg>
