<svg xmlns="http://www.w3.org/2000/svg" version="1.1" width="208" height="217">
  <defs/>
  <path fill="#765447" d="M108.125,131.625 C112.979,131.669 115.771,132.432 119.562,135.418 C124.125,140.439 124.697,144.777 124.547,151.383 C122.386,165.677 112.121,176.723 101,185 C100.3,185.561 99.6,186.121 98.879,186.699 C96.081,188.637 94.322,188.542 91,188 C88.333,185.866 86.531,184.061 85,181 C85,178.012 86.241,176.345 88,174 C88.66,174 89.32,174 90,174 C90,173.34 90,172.68 90,172 C91.373,170.862 92.8,169.788 94.25,168.75 C98.149,165.798 100.809,163.383 103,159 C102.67,158.01 102.34,157.02 102,156 C101.361,155.732 100.721,155.464 100.062,155.188 C98,154 98,154 96.688,151.5 C95.767,146.815 95.772,142.633 97,138 C99.5,134.938 99.5,134.938 102,133 C103.701,131.299 105.798,131.707 108.125,131.625 Z"/>
  <path fill="#7D5D50" d="M120,144 C120.66,144 121.32,144 122,144 C122,147.3 122,150.6 122,154 C122.66,154.33 123.32,154.66 124,155 C123.188,156.938 123.188,156.938 122,159 C121.01,159.33 120.02,159.66 119,160 C119.33,154.72 119.66,149.44 120,144 Z"/>
  <path fill="#7C5C4E" d="M103,163 C103,163.99 103,164.98 103,166 C102.34,165.67 101.68,165.34 101,165 C101.66,164.34 102.32,163.68 103,163 Z M100,166 C100.33,166.66 100.66,167.32 101,168 C100.34,167.67 99.68,167.34 99,167 C99.33,166.67 99.66,166.34 100,166 Z M99,168 C98.67,168.99 98.34,169.98 98,171 C97.34,171 96.68,171 96,171 C96,171.66 96,172.32 96,173 C94.35,173.66 92.7,174.32 91,175 C92.563,170.43 93.726,168 99,168 Z"/>
  <path fill="#7F6157" d="M107,174 C107.66,174 108.32,174 109,174 C108.34,175.98 107.68,177.96 107,180 C105.35,180.33 103.7,180.66 102,181 C102,180.34 102,179.68 102,179 C102.66,179 103.32,179 104,179 C104.33,178.01 104.66,177.02 105,176 C105.66,176 106.32,176 107,176 C107,175.34 107,174.68 107,174 Z"/>
</svg>
