<svg xmlns="http://www.w3.org/2000/svg" version="1.1" width="226" height="219">
  <defs/>
  <path fill="#775345" d="M143.688,99.625 C144.967,99.588 144.967,99.588 146.271,99.551 C152.316,99.522 152.316,99.522 155.578,101.801 C157,104 157,104 157.062,107.562 C156,111 156,111 153.934,112.645 C150.324,114.312 146.911,114.772 143,115.125 C142.225,115.204 141.449,115.282 140.651,115.363 C133.563,116.039 126.459,116.395 119.346,116.659 C114.518,116.842 109.765,117.207 104.967,117.775 C97.698,118.606 90.619,118.466 84,115 C82,112 82,112 82.25,108.438 C83,105 83,105 85,103 C88.018,102.713 88.018,102.713 91.887,102.656 C92.928,102.634 92.928,102.634 93.99,102.612 C96.222,102.565 98.455,102.531 100.688,102.5 C110.468,102.358 119.905,101.87 129.595,100.454 C134.305,99.826 138.941,99.633 143.688,99.625 Z"/>
  <path fill="#644031" d="M87.981,102.773 C89.227,102.783 90.474,102.794 91.758,102.805 C92.752,102.809 92.752,102.809 93.767,102.813 C95.887,102.824 98.006,102.85 100.125,102.875 C101.561,102.885 102.997,102.894 104.434,102.902 C107.956,102.924 111.478,102.959 115,103 C115,103.33 115,103.66 115,104 C113.751,104.006 113.751,104.006 112.477,104.012 C109.385,104.039 106.294,104.089 103.202,104.153 C101.207,104.187 99.212,104.196 97.217,104.205 C95.336,104.249 95.336,104.249 93.418,104.293 C92.261,104.309 91.103,104.324 89.911,104.341 C86.78,104.706 86.78,104.706 85.224,107.544 C84.82,108.355 84.416,109.165 84,110 C83.34,110 82.68,110 82,110 C83.082,103.146 83.082,103.146 87.981,102.773 Z"/>
  <path fill="#7F6054" d="M136.75,111.875 C137.549,111.893 138.348,111.911 139.172,111.93 C139.775,111.953 140.378,111.976 141,112 C140.01,112.33 139.02,112.66 138,113 C138,113.66 138,114.32 138,115 C134.7,114.67 131.4,114.34 128,114 C131.744,112.128 132.84,111.76 136.75,111.875 Z"/>
  <path fill="#805E52" d="M100.723,114.902 C102.376,114.92 102.376,114.92 104.062,114.938 C105.72,114.951 105.72,114.951 107.41,114.965 C108.265,114.976 109.119,114.988 110,115 C110,115.33 110,115.66 110,116 C108.588,116.392 107.17,116.763 105.75,117.125 C104.961,117.334 104.172,117.543 103.359,117.758 C100.58,118.043 99.341,117.45 97,116 C98,115 98,115 100.723,114.902 Z"/>
</svg>
