<svg xmlns="http://www.w3.org/2000/svg" version="1.1" width="265" height="268">
  <defs/>
  <path fill="#775346" d="M139.508,42.727 C148.911,42.314 148.911,42.314 153.375,45.125 C155.359,48.635 155.689,50.02 155,54 C154.382,55.358 153.736,56.703 153.07,58.039 C150.75,63.158 149.953,68.074 149.312,73.625 C149.131,75.059 149.131,75.059 148.946,76.523 C148.104,83.404 147.534,90.275 147.211,97.199 C147,100 147,100 146,103 C145.822,105.06 145.681,107.123 145.562,109.188 C145.294,113.078 144.96,116.735 143.938,120.5 C142.492,125.813 142.492,125.813 144.027,130.879 C146.527,136.329 143.841,143.699 141.859,149.047 C140.584,151.945 139.77,153.366 137,155 C133.605,155.48 130.379,155.626 127,155 C123.391,152.262 122.191,149.058 121.402,144.684 C121.234,143.27 121.081,141.854 120.938,140.438 C120.855,139.624 120.773,138.811 120.688,137.973 C119.584,125.812 119.353,113.592 119.143,101.389 C119.053,96.227 118.912,91.068 118.743,85.908 C118.634,82.281 118.56,78.653 118.495,75.025 C118.457,73.275 118.405,71.525 118.339,69.775 C117.771,54.324 117.771,54.324 122.777,48.449 C127.98,43.535 132.645,43.262 139.508,42.727 Z"/>
  <path fill="#755144" d="M142.312,173.125 C146.167,175.814 148.275,178.517 149.605,183.074 C150.683,189.19 149.337,193.814 146,199 C143.317,202.238 140.64,203.814 136.562,205 C132.237,205 129.757,204.127 126,202 C120.565,196.279 120.601,191.015 120.648,183.402 C121.149,178.561 122.279,177.044 126,174 C131.249,170.9 136.655,171.203 142.312,173.125 Z"/>
  <path fill="#684334" d="M149,65 C149.33,65 149.66,65 150,65 C150.181,69.694 149.907,73.938 149.062,78.562 C147.958,84.661 147.559,90.669 147.246,96.848 C147,100 147,100 146,103 C145.73,106.288 145.555,109.576 145.379,112.871 C145.028,115.772 144.498,117.531 143,120 C142.973,117.583 142.953,115.167 142.938,112.75 C142.929,112.068 142.921,111.386 142.912,110.684 C142.887,105.449 142.887,105.449 143.491,103.055 C144.048,100.805 144.175,98.761 144.246,96.445 C144.295,95.152 144.295,95.152 144.346,93.832 C144.407,92.035 144.464,90.238 144.518,88.441 C144.71,83.566 145.272,79.611 147,75 C147.24,73.403 147.434,71.797 147.562,70.188 C147.898,66.102 147.898,66.102 149,65 Z"/>
  <path fill="#64412C" d="M141,174 C144.206,174.229 145.032,175.036 147.188,177.5 C149.317,181.612 150.265,185.354 150,190 C149.34,190.99 148.68,191.98 148,193 C147.974,192.348 147.948,191.695 147.922,191.023 C147.545,185.214 146.754,181.665 143,177 C142.34,176.01 141.68,175.02 141,174 Z"/>
</svg>
