<svg xmlns="http://www.w3.org/2000/svg" version="1.1" width="247" height="252">
  <defs/>
  <path fill="#775548" d="M121,50 C123.812,51.75 123.812,51.75 126,55 C126.541,59.561 127.099,64.801 125,69 C124.798,70.663 124.636,72.331 124.5,74 C124.111,78.778 124.111,78.778 123,81 C131.58,80.01 140.16,79.02 149,78 C149.33,75.03 149.66,72.06 150,69 C150.33,68.34 150.66,67.68 151,67 C151.199,63.722 151.318,60.446 151.426,57.164 C152.101,53.443 152.99,52.228 156,50 C161.911,49.274 161.911,49.274 164.875,51.25 C167.133,54.763 167.092,58.123 166.879,62.203 C166.831,63.183 166.782,64.162 166.732,65.172 C166.676,66.188 166.62,67.203 166.562,68.25 C166.51,69.281 166.458,70.312 166.404,71.375 C166.275,73.917 166.14,76.459 166,79 C167.247,79.273 167.247,79.273 168.52,79.551 C169.606,79.802 170.693,80.054 171.812,80.312 C173.431,80.678 173.431,80.678 175.082,81.051 C177.989,81.997 179.264,82.526 181,85 C181.724,89.987 181.844,91.867 178.812,95.938 C174.029,99.389 167.667,98.908 162,99 C160.58,102.992 159.586,106.815 158.938,111 C158.704,112.485 158.704,112.485 158.465,114 C158.311,114.99 158.158,115.98 158,117 C157.669,119 157.336,121 157,123 C157.56,123.015 158.12,123.029 158.697,123.044 C161.236,123.119 163.774,123.215 166.312,123.312 C167.194,123.335 168.075,123.358 168.982,123.381 C170.254,123.434 170.254,123.434 171.551,123.488 C172.721,123.528 172.721,123.528 173.915,123.568 C176.506,124.105 177.395,124.928 179,127 C180.084,130.563 180.301,132.303 178.812,135.75 C176.45,138.682 174.448,139.798 170.71,140.319 C169.893,140.35 169.076,140.382 168.234,140.414 C167.345,140.453 166.455,140.491 165.539,140.531 C164.619,140.562 163.698,140.593 162.75,140.625 C161.814,140.664 160.878,140.702 159.914,140.742 C157.61,140.836 155.305,140.922 153,141 C152.541,142.666 152.082,144.333 151.625,146 C151.37,146.928 151.115,147.856 150.852,148.812 C150.063,151.765 149.317,154.727 148.58,157.693 C147.4,162.388 146.163,167.067 144.938,171.75 C144.405,173.786 143.872,175.823 143.34,177.859 C143.106,178.751 142.873,179.643 142.633,180.562 C142.233,182.1 141.87,183.649 141.557,185.208 C141,187 141,187 138.75,188.812 C135.54,190.199 134.266,190.117 131,189 C128,187 128,187 127.312,184.875 C126.672,178.982 126.601,174.503 129,169 C129.345,166.668 129.678,164.335 130,162 C131.57,155.825 131.57,155.825 132.996,153.09 C134.089,150.815 134.617,148.718 135.125,146.25 C135.293,145.451 135.46,144.652 135.633,143.828 C135.754,143.225 135.875,142.622 136,142 C131.707,142.248 127.416,142.527 123.125,142.812 C121.902,142.883 120.678,142.953 119.418,143.025 C118.251,143.106 117.085,143.187 115.883,143.27 C114.804,143.338 113.725,143.406 112.614,143.476 C109.657,143.748 109.657,143.748 108,147 C107.574,149.342 107.228,151.7 106.938,154.062 C106.095,160.81 106.095,160.81 105,163 C104.907,164.536 104.868,166.075 104.859,167.613 C104.84,168.532 104.821,169.45 104.801,170.396 C104.767,172.329 104.749,174.261 104.746,176.193 C104.62,180.925 104.553,183.275 101.613,187.133 C99,189 99,189 96.438,189.562 C92.12,188.566 90.366,185.549 88,182 C86.791,170.122 88.734,157.43 92,146 C90.104,145.973 88.208,145.954 86.312,145.938 C84.729,145.92 84.729,145.92 83.113,145.902 C80.102,145.909 80.102,145.909 77.605,146.488 C74.074,147.182 70.584,147.224 67,147.25 C66.301,147.271 65.603,147.291 64.883,147.312 C60.388,147.346 57.561,146.781 54,144 C52.27,141.091 51.993,139.325 52.062,135.938 C53.254,132.204 54.638,130.955 58,129 C59.343,129.292 60.675,129.633 62,130 C66.268,130.227 70.539,130.185 74.812,130.188 C75.976,130.2 77.139,130.212 78.338,130.225 C86.925,130.405 86.925,130.405 95,128 C96.615,125.25 96.615,125.25 97.25,121.812 C97.549,120.569 97.848,119.325 98.156,118.043 C98.442,116.696 98.723,115.348 99,114 C99.15,113.298 99.299,112.597 99.453,111.874 C100.362,107.593 101.204,103.303 102,99 C100.604,98.973 99.208,98.953 97.812,98.938 C96.647,98.92 96.647,98.92 95.457,98.902 C93.01,98.931 93.01,98.931 90.703,99.484 C87.117,100.168 83.575,100.262 79.938,100.312 C79.23,100.342 78.523,100.371 77.795,100.4 C74.3,100.443 72.376,100.28 69.539,98.164 C68,96 68,96 67.438,93.062 C68.18,89.02 69.891,87.59 73,85 C75.445,83.777 77.178,83.811 79.91,83.719 C80.901,83.681 81.891,83.644 82.912,83.605 C84.472,83.553 84.472,83.553 86.062,83.5 C93.093,83.258 100.017,82.872 107,82 C107.091,80.952 107.091,80.952 107.184,79.883 C107.267,78.973 107.351,78.063 107.438,77.125 C107.519,76.22 107.6,75.315 107.684,74.383 C108,72 108,72 109,70 C109.239,66.755 109.383,63.512 109.523,60.262 C110.037,56.746 110.887,54.83 113,52 C116.271,49.82 117.205,49.368 121,50 Z M119,97 C118.723,98.216 118.446,99.431 118.16,100.684 C117.794,102.268 117.429,103.853 117.062,105.438 C116.88,106.24 116.698,107.042 116.51,107.869 C115.113,113.887 115.113,113.887 114,115 C113.577,116.592 113.21,118.2 112.875,119.812 C112.687,120.685 112.499,121.558 112.305,122.457 C112.001,124.99 112.206,126.601 113,129 C114.038,128.801 114.038,128.801 115.098,128.598 C123.403,127.098 131.583,126.437 140,126 C141.261,121.758 142.328,117.62 143.062,113.25 C143.551,110.361 144.071,107.786 145,105 C145.067,103.439 145.085,101.875 145.062,100.312 C145.053,99.504 145.044,98.696 145.035,97.863 C145.024,97.248 145.012,96.634 145,96 C141.98,95.777 138.96,95.571 135.938,95.375 C135.09,95.311 134.242,95.246 133.369,95.18 C128.07,94.852 124.011,95.218 119,97 Z"/>
  <path fill="#795E54" d="M95,147 C94.86,148.48 94.712,149.959 94.562,151.438 C94.481,152.261 94.4,153.085 94.316,153.934 C94,156 94,156 93,157 C92.842,158.998 92.749,161.001 92.684,163.004 C92.642,164.219 92.6,165.434 92.557,166.686 C92.517,167.965 92.478,169.244 92.438,170.562 C92.394,171.846 92.351,173.129 92.307,174.451 C92.2,177.634 92.098,180.817 92,184 C94.64,184.66 97.28,185.32 100,186 C99.67,186.99 99.34,187.98 99,189 C96.75,189.25 96.75,189.25 94,189 C90.795,186.345 88.169,183.657 87.734,179.391 C87.786,168.954 88.058,157.796 92,148 C94,147 94,147 95,147 Z"/>
  <path fill="#795B51" d="M107,80 C107.66,80.33 108.32,80.66 109,81 C108.125,84.875 108.125,84.875 107,86 C105.52,86.146 104.033,86.227 102.547,86.281 C101.623,86.318 100.699,86.355 99.747,86.393 C98.758,86.428 97.769,86.464 96.75,86.5 C88.479,86.831 80.246,87.269 72,88 C71.783,88.928 71.783,88.928 71.562,89.875 C71,92 71,92 70,94 C70.66,94 71.32,94 72,94 C72,94.99 72,95.98 72,97 C72.66,97 73.32,97 74,97 C74,97.66 74,98.32 74,99 C71.562,98.625 71.562,98.625 69,98 C67.556,95.111 67.623,93.204 68,90 C72.915,84.18 72.915,84.18 77.196,83.811 C78.091,83.78 78.987,83.75 79.91,83.719 C80.901,83.681 81.891,83.644 82.912,83.605 C84.472,83.553 84.472,83.553 86.062,83.5 C93.093,83.258 100.017,82.872 107,82 C107,81.34 107,80.68 107,80 Z"/>
  <path fill="#816358" d="M98,126 C98.495,127.98 98.495,127.98 99,130 C98.34,130 97.68,130 97,130 C96.67,130.99 96.34,131.98 96,133 C95.233,133.025 94.467,133.05 93.677,133.076 C90.201,133.192 86.726,133.315 83.25,133.438 C82.043,133.477 80.837,133.516 79.594,133.557 C78.434,133.599 77.273,133.64 76.078,133.684 C75.01,133.72 73.942,133.757 72.841,133.795 C70.072,133.909 70.072,133.909 67.745,134.582 C66,135 66,135 64,134 C61.667,133.96 59.333,133.957 57,134 C56.34,135.98 55.68,137.96 55,140 C54.01,139.67 53.02,139.34 52,139 C52.25,135.336 52.682,133.398 55,130.5 C58.347,128.827 58.628,128.926 61.992,129.891 C67.403,131.222 72.575,131.296 78.125,131.25 C79.55,131.262 79.55,131.262 81.004,131.273 C86.363,131.259 90.994,130.992 96,129 C96.66,128.01 97.32,127.02 98,126 Z"/>
  <path fill="#7F5E54" d="M163,50 C163.66,51.98 164.32,53.96 165,56 C160.545,55.01 160.545,55.01 156,54 C156,54.66 156,55.32 156,56 C155.34,56 154.68,56 154,56 C154.035,57.192 154.07,58.385 154.105,59.613 C154.134,61.18 154.161,62.746 154.188,64.312 C154.225,65.491 154.225,65.491 154.264,66.693 C154.273,67.451 154.283,68.208 154.293,68.988 C154.309,69.685 154.324,70.381 154.341,71.099 C153.902,73.545 152.866,74.427 151,76 C149.875,69.25 149.875,69.25 151,67 C151.199,63.722 151.318,60.446 151.426,57.164 C152.682,50.244 156.573,49.506 163,50 Z"/>
  <path fill="#8E6C61" d="M121,75 C121.33,75 121.66,75 122,75 C122,77.31 122,79.62 122,82 C122.66,81.67 123.32,81.34 124,81 C127.776,80.481 131.578,80.202 135.375,79.875 C136.429,79.776 137.484,79.676 138.57,79.574 C139.586,79.485 140.602,79.396 141.648,79.305 C142.578,79.222 143.508,79.139 144.466,79.054 C146.876,79.003 148.712,79.287 151,80 C151,80.99 151,81.98 151,83 C140.77,83 130.54,83 120,83 C120,76 120,76 121,75 Z"/>
  <path fill="#826256" d="M55,141 C55.66,141 56.32,141 57,141 C57,141.66 57,142.32 57,143 C66.57,143 76.14,143 86,143 C86,143.33 86,143.66 86,144 C84.02,144.33 82.04,144.66 80,145 C80,145.33 80,145.66 80,146 C75.562,147.112 71.23,147.115 66.688,147.062 C65.947,147.058 65.206,147.053 64.443,147.049 C62.629,147.037 60.814,147.019 59,147 C58.67,146.01 58.34,145.02 58,144 C57.01,143.67 56.02,143.34 55,143 C55,142.34 55,141.68 55,141 Z"/>
  <path fill="#7E6156" d="M173,83 C179.875,83.875 179.875,83.875 181,85 C181.583,92.111 181.583,92.111 179.527,95.246 C175.826,97.815 172.639,97.439 168.25,97.25 C167.061,97.223 167.061,97.223 165.848,97.195 C163.898,97.148 161.949,97.077 160,97 C160,96.01 160,95.02 160,94 C160.495,94.165 160.99,94.33 161.5,94.5 C166.698,95.54 171.878,95.28 177,94 C177.66,92.02 178.32,90.04 179,88 C178.34,88 177.68,88 177,88 C177,87.01 177,86.02 177,85 C175.68,84.34 174.36,83.68 173,83 Z"/>
  <path fill="#846559" d="M164,63 C164.33,63 164.66,63 165,63 C165.33,68.28 165.66,73.56 166,79 C168.31,79.66 170.62,80.32 173,81 C173,81.66 173,82.32 173,83 C169.37,83 165.74,83 162,83 C161.875,74.25 161.875,74.25 163,72 C163.225,70.463 163.408,68.92 163.562,67.375 C163.646,66.558 163.73,65.74 163.816,64.898 C163.877,64.272 163.938,63.645 164,63 Z"/>
  <path fill="#7F6054" d="M91.875,95.875 C92.908,95.889 92.908,95.889 93.961,95.902 C95.641,95.926 97.32,95.962 99,96 C99,96.66 99,97.32 99,98 C92.61,99.316 86.536,100.475 80,100 C79.34,99.34 78.68,98.68 78,98 C82.705,96.139 86.876,95.749 91.875,95.875 Z"/>
  <path fill="#7E6157" d="M155,124 C158.437,123.913 161.874,123.86 165.312,123.812 C166.289,123.787 167.265,123.762 168.271,123.736 C169.209,123.727 170.147,123.717 171.113,123.707 C171.977,123.691 172.841,123.676 173.732,123.659 C176.505,124.076 177.34,124.776 179,127 C179.812,130 179.812,130 180,133 C179.01,134.485 179.01,134.485 178,136 C177,135 177,135 176.938,131.438 C176.958,130.303 176.979,129.169 177,128 C174.176,127.059 172.471,126.883 169.551,126.902 C168.703,126.906 167.856,126.909 166.982,126.912 C165.661,126.925 165.661,126.925 164.312,126.938 C162.973,126.944 162.973,126.944 161.607,126.951 C159.405,126.963 157.202,126.979 155,127 C155,126.01 155,125.02 155,124 Z"/>
  <path fill="#8B6F65" d="M175,137 C175,137.66 175,138.32 175,139 C172.116,140.442 169.583,140.094 166.375,140.062 C165.186,140.053 163.998,140.044 162.773,140.035 C161.858,140.024 160.943,140.012 160,140 C160,139.01 160,138.02 160,137 C162.124,136.806 164.25,136.62 166.375,136.438 C167.558,136.333 168.742,136.229 169.961,136.121 C173,136 173,136 175,137 Z"/>
  <path fill="#8C6A60" d="M163,50 C163.66,51.98 164.32,53.96 165,56 C160.545,55.01 160.545,55.01 156,54 C156,54.66 156,55.32 156,56 C155.01,56 154.02,56 153,56 C153,54.68 153,53.36 153,52 C156.644,49.571 158.712,49.838 163,50 Z"/>
  <path fill="#7F5F54" d="M165.938,135.875 C166.621,135.884 167.305,135.893 168.01,135.902 C169.673,135.926 171.337,135.961 173,136 C173,136.33 173,136.66 173,137 C166.565,137.495 166.565,137.495 160,138 C160,138.66 160,139.32 160,140 C158.36,140.217 158.36,140.217 156.688,140.438 C153.069,140.883 153.069,140.883 150,142 C150.33,140.68 150.66,139.36 151,138 C156.159,136.296 160.443,135.778 165.938,135.875 Z"/>
  <path fill="#7B6158" d="M104,105 C104.043,107 104.041,109 104,111 C103.67,111.33 103.34,111.66 103,112 C102.769,113.347 102.588,114.704 102.438,116.062 C102.221,118.012 102.221,118.012 102,120 C101.01,120.33 100.02,120.66 99,121 C99.087,118.708 99.195,116.416 99.312,114.125 C99.371,112.849 99.429,111.573 99.488,110.258 C99.657,109.183 99.826,108.108 100,107 C103,105 103,105 104,105 Z"/>
  <path fill="#85675D" d="M107,80 C107.66,80.33 108.32,80.66 109,81 C108.125,84.875 108.125,84.875 107,86 C104.647,86.073 102.292,86.084 99.938,86.062 C98.647,86.053 97.357,86.044 96.027,86.035 C95.028,86.024 94.029,86.012 93,86 C93,85.67 93,85.34 93,85 C93.743,84.876 94.485,84.753 95.25,84.625 C97.953,84.137 97.953,84.137 100,82.938 C102.45,81.789 104.326,81.851 107,82 C107,81.34 107,80.68 107,80 Z"/>
  <path fill="#7E6055" d="M133,159 C133.33,159 133.66,159 134,159 C134.043,161 134.041,163 134,165 C133.67,165.33 133.34,165.66 133,166 C132.471,168.313 132.037,170.637 131.598,172.969 C131.302,173.974 131.302,173.974 131,175 C130.34,175.33 129.68,175.66 129,176 C128.34,175.34 127.68,174.68 127,174 C127.99,170.7 128.98,167.4 130,164 C130.66,164 131.32,164 132,164 C132.33,162.35 132.66,160.7 133,159 Z"/>
  <path fill="#806358" d="M139,183 C139.33,184.32 139.66,185.64 140,187 C138.312,188.562 138.312,188.562 136,190 C132.961,189.852 131.498,189.429 129.188,187.438 C128.796,186.963 128.404,186.489 128,186 C128.33,185.34 128.66,184.68 129,184 C131.018,184.326 133.036,184.651 135.055,184.977 C136.018,184.988 136.018,184.988 137,185 C137.66,184.34 138.32,183.68 139,183 Z"/>
  <path fill="#8A6D62" d="M91,165 C91.33,165 91.66,165 92,165 C92,171.27 92,177.54 92,184 C88.39,179.186 88.393,176.761 89,171 C90,167.438 90,167.438 91,165 Z"/>
  <path fill="#86675B" d="M128.16,138.902 C130.092,138.92 130.092,138.92 132.062,138.938 C133.353,138.947 134.643,138.956 135.973,138.965 C136.972,138.976 137.971,138.988 139,139 C139,140.98 139,142.96 139,145 C138.01,145.495 138.01,145.495 137,146 C137,144.35 137,142.7 137,141 C136.313,141.095 135.626,141.191 134.918,141.289 C134.017,141.4 133.116,141.511 132.188,141.625 C131.294,141.741 130.401,141.857 129.48,141.977 C127,142 127,142 124,140 C125,139 125,139 128.16,138.902 Z"/>
  <path fill="#85695E" d="M113,55 C113.33,55 113.66,55 114,55 C114.042,57.333 114.041,59.667 114,62 C113.67,62.33 113.34,62.66 113,63 C112.756,66.07 112.616,69.139 112.477,72.215 C112.319,73.134 112.162,74.053 112,75 C111.01,75.66 110.02,76.32 109,77 C109.278,73.894 109.575,70.791 109.875,67.688 C109.993,66.366 109.993,66.366 110.113,65.018 C110.197,64.17 110.281,63.322 110.367,62.449 C110.441,61.669 110.514,60.889 110.589,60.085 C111,58 111,58 113,55 Z"/>
  <path fill="#7C5E53" d="M137,140 C137.781,142.342 138.517,144.584 139,147 C138.67,147.33 138.34,147.66 138,148 C137.471,150.313 137.037,152.637 136.598,154.969 C136.302,155.974 136.302,155.974 136,157 C135.34,157.33 134.68,157.66 134,158 C134.114,155.749 134.242,153.5 134.375,151.25 C134.445,149.997 134.514,148.744 134.586,147.453 C134.953,144.39 135.397,142.58 137,140 Z"/>
  <path fill="#87675B" d="M123,55 C123.66,55.33 124.32,55.66 125,56 C125.449,58.434 125.449,58.434 125.688,61.438 C125.774,62.426 125.86,63.415 125.949,64.434 C126,67 126,67 125,69 C124.34,69 123.68,69 123,69 C122.67,69.99 122.34,70.98 122,72 C122.33,66.39 122.66,60.78 123,55 Z"/>
  <path fill="#826459" d="M127,126 C127,126.66 127,127.32 127,128 C127.66,128.33 128.32,128.66 129,129 C128,130 128,130 125.059,130.098 C123.266,130.08 123.266,130.08 121.438,130.062 C119.641,130.049 119.641,130.049 117.809,130.035 C116.882,130.024 115.955,130.012 115,130 C115.99,129.67 116.98,129.34 118,129 C118,128.34 118,127.68 118,127 C124.75,126 124.75,126 127,126 Z"/>
  <path fill="#886A60" d="M98,126 C98.33,127.32 98.66,128.64 99,130 C98.34,130 97.68,130 97,130 C96.67,130.99 96.34,131.98 96,133 C91.05,133 86.1,133 81,133 C81,132.67 81,132.34 81,132 C81.892,131.902 82.784,131.804 83.703,131.703 C85.459,131.479 85.459,131.479 87.25,131.25 C88.99,131.041 88.99,131.041 90.766,130.828 C94.346,129.911 95.687,128.817 98,126 Z"/>
  <path fill="#806256" d="M143,118 C143.33,118 143.66,118 144,118 C144.25,124.625 144.25,124.625 142,128 C140.68,127.67 139.36,127.34 138,127 C138.66,127 139.32,127 140,127 C140,125.02 140,123.04 140,121 C140.99,120.67 141.98,120.34 143,120 C143,119.34 143,118.68 143,118 Z"/>
  <path fill="#88685E" d="M116,50 C117.65,50 119.3,50 121,50 C121.66,51.32 122.32,52.64 123,54 C120.03,54 117.06,54 114,54 C114.66,52.68 115.32,51.36 116,50 Z"/>
  <path fill="#816157" d="M95,147 C94.688,150.375 94.688,150.375 94,154 C93.01,154.66 92.02,155.32 91,156 C91.586,149.848 91.586,149.848 92,148 C94,147 94,147 95,147 Z"/>
  <path fill="#84655A" d="M71,88 C71.33,88.99 71.66,89.98 72,91 C71.34,91.99 70.68,92.98 70,94 C70.66,94 71.32,94 72,94 C72,94.99 72,95.98 72,97 C72.66,97 73.32,97 74,97 C74,97.66 74,98.32 74,99 C72.68,98.67 71.36,98.34 70,98 C68.75,91.375 68.75,91.375 71,88 Z"/>
  <path fill="#6C5144" d="M79,144 C83.95,144 88.9,144 94,144 C94,145.32 94,146.64 94,148 C93.34,147.67 92.68,147.34 92,147 C92,146.67 92,146.34 92,146 C87.71,145.67 83.42,145.34 79,145 C79,144.67 79,144.34 79,144 Z"/>
  <path fill="#84695F" d="M175,137 C175,137.66 175,138.32 175,139 C172.043,140.478 169.258,140.06 166,140 C166.66,139.67 167.32,139.34 168,139 C168,138.34 168,137.68 168,137 C172.75,135.875 172.75,135.875 175,137 Z"/>
  <path fill="#836458" d="M159,98 C159.33,98 159.66,98 160,98 C160.125,104.75 160.125,104.75 159,107 C158.34,107 157.68,107 157,107 C156.875,103.625 156.875,103.625 157,100 C157.66,99.34 158.32,98.68 159,98 Z"/>
  <path fill="#85655A" d="M147,105 C147.125,107.375 147.125,107.375 147,110 C146.34,110.66 145.68,111.32 145,112 C144.01,111.67 143.02,111.34 142,111 C144.154,105 144.154,105 147,105 Z"/>
  <path fill="#826458" d="M144,164 C144.66,165.32 145.32,166.64 146,168 C145.01,169.485 145.01,169.485 144,171 C143.34,171 142.68,171 142,171 C141.875,168.625 141.875,168.625 142,166 C142.66,165.34 143.32,164.68 144,164 Z"/>
  <path fill="#927469" d="M163,76 C163.186,76.619 163.371,77.238 163.562,77.875 C165.714,81.056 168.375,81.195 172,82 C172,82.33 172,82.66 172,83 C165.848,83.098 165.848,83.098 164,83 C163,82 163,82 162.938,78.938 C162.958,77.968 162.979,76.999 163,76 Z"/>
  <path fill="#84665E" d="M145,79 C147.97,79.495 147.97,79.495 151,80 C151,80.99 151,81.98 151,83 C148.36,83 145.72,83 143,83 C143.66,81.68 144.32,80.36 145,79 Z"/>
  <path fill="#836256" d="M108,141 C108.99,141.33 109.98,141.66 111,142 C110.01,142.495 110.01,142.495 109,143 C108.348,145.025 108.348,145.025 108,147 C107.34,147 106.68,147 106,147 C105.67,147.66 105.34,148.32 105,149 C104.631,144.446 104.631,144.446 106.5,142.188 C106.995,141.796 107.49,141.404 108,141 Z"/>
  <path fill="#876B5C" d="M177,128 C178.485,128.99 178.485,128.99 180,130 C179.67,131.98 179.34,133.96 179,136 C178.34,135.67 177.68,135.34 177,135 C177,132.69 177,130.38 177,128 Z"/>
  <path fill="#84695F" d="M99,114 C99.99,114 100.98,114 102,114 C102,115.98 102,117.96 102,120 C101.01,120.33 100.02,120.66 99,121 C99,118.69 99,116.38 99,114 Z"/>
  <path fill="#815F53" d="M113,109 C113.66,109 114.32,109 115,109 C115,110.98 115,112.96 115,115 C114.34,115 113.68,115 113,115 C112.67,115.66 112.34,116.32 112,117 C112.33,114.36 112.66,111.72 113,109 Z"/>
  <path fill="#806156" d="M118,94 C119,96 119,96 118.441,98.164 C118.151,98.976 117.861,99.788 117.562,100.625 C117.275,101.442 116.988,102.26 116.691,103.102 C116.463,103.728 116.235,104.355 116,105 C115.67,105 115.34,105 115,105 C114.607,100.551 115.847,97.858 118,94 Z"/>
</svg>
