<svg xmlns="http://www.w3.org/2000/svg" version="1.1" width="234" height="231">
  <defs/>
  <path fill="#775548" d="M121.129,37.105 C124.162,38.556 125.138,40.623 126.391,43.656 C127.38,47.46 127.325,51.105 127,55 C128.199,54.948 128.199,54.948 129.422,54.895 C137.149,54.704 144.787,54.932 152,58 C154.367,60.505 154.951,61.597 155.375,65.062 C155,68 155,68 153.625,69.812 C150.494,72.1 148.341,72.163 144.5,72.188 C143.52,72.202 142.541,72.216 141.531,72.23 C136.916,71.929 132.51,70.992 128,70 C127.926,75.233 127.871,80.465 127.835,85.698 C127.82,87.479 127.8,89.26 127.774,91.041 C127.737,93.598 127.72,96.154 127.707,98.711 C127.692,99.51 127.676,100.309 127.66,101.132 C127.624,103.611 127.624,103.611 128,107 C130.703,108.802 132.104,109.356 135.125,110.125 C142.627,112.569 148.046,117.899 152,124.625 C155.865,132.434 155.813,141.202 154.375,149.688 C151.391,156.877 146.057,163.776 138.797,166.969 C134.685,168.439 131.376,169.056 127,169 C127.026,169.767 127.052,170.533 127.079,171.323 C127.183,174.799 127.248,178.274 127.312,181.75 C127.354,182.957 127.396,184.163 127.439,185.406 C127.456,186.566 127.472,187.727 127.488,188.922 C127.528,190.524 127.528,190.524 127.568,192.159 C127,195 127,195 124.692,197.372 C122,199 122,199 118.438,199.125 C114.897,197.966 113.754,197.093 111.819,193.979 C110.128,189.891 110.315,185.491 110.25,181.125 C110.206,179.663 110.206,179.663 110.16,178.172 C110.09,175.781 110.037,173.391 110,171 C108.938,171.035 107.876,171.07 106.781,171.105 C96.701,171.339 88.841,171.366 81,164 C79.386,160.771 79.404,157.49 80,154 C81.736,150.975 83.836,148.582 87,147 C90.662,146.602 92.365,146.532 95.375,148.75 C97,151 97,151 97,155 C101.29,155 105.58,155 110,155 C110.711,147.983 111.107,141.048 111.125,134 C111.13,133.27 111.134,132.541 111.139,131.789 C111.287,126.754 111.287,126.754 110,122 C108.03,120.849 108.03,120.849 105.562,120.125 C94.915,116.216 85.974,110.421 80.062,100.562 C76.99,93.812 76.572,86.238 78,79 C81.961,68.804 88.426,63.006 98,58.188 C98.59,57.876 99.181,57.565 99.789,57.244 C103.686,55.291 106.662,54.663 111,55 C110.87,54.12 110.74,53.239 110.605,52.332 C109.485,42.897 109.485,42.897 111.938,38.625 C115.394,36.791 117.324,36.336 121.129,37.105 Z M99.25,75.688 C95.438,80.086 93.603,82.787 93.734,88.848 C94.332,93.692 96.465,96.749 100.129,99.734 C103.667,102.183 106.736,104.167 111,105 C112.479,102.042 112.122,99.045 112.098,95.805 C112.096,95.097 112.095,94.39 112.093,93.661 C112.088,91.399 112.075,89.137 112.062,86.875 C112.057,85.342 112.053,83.81 112.049,82.277 C112.038,78.518 112.021,74.759 112,71 C106.81,71 102.986,72.085 99.25,75.688 Z M127,124 C127,133.24 127,142.48 127,152 C132.973,152.272 132.973,152.272 136.875,149.062 C139.374,146.302 140.547,144.298 140.812,140.562 C140.364,135.308 137.839,131.508 134,128 C130.535,126.02 130.535,126.02 127,124 Z"/>
  <path fill="#7F5D51" d="M111.062,67.938 C112.517,67.968 112.517,67.968 114,68 C115.542,71.084 115.142,74.328 115.133,77.711 C115.134,78.475 115.135,79.24 115.136,80.028 C115.136,81.647 115.135,83.266 115.13,84.885 C115.125,87.358 115.13,89.831 115.137,92.305 C115.136,93.878 115.135,95.451 115.133,97.023 C115.135,97.762 115.137,98.501 115.139,99.262 C115.123,102.752 114.854,105.584 114,109 C111.03,108.01 108.06,107.02 105,106 C105,105.67 105,105.34 105,105 C106.98,105 108.96,105 111,105 C111,93.78 111,82.56 111,71 C109.68,70.34 108.36,69.68 107,69 C108,68 108,68 111.062,67.938 Z"/>
  <path fill="#785D53" d="M91,167 C93.64,167 96.28,167 99,167 C99,167.66 99,168.32 99,169 C99.999,168.988 100.998,168.977 102.027,168.965 C103.318,168.956 104.608,168.947 105.938,168.938 C107.225,168.926 108.513,168.914 109.84,168.902 C113,169 113,169 114,170 C114.087,171.635 114.107,173.273 114.098,174.91 C114.094,175.9 114.091,176.889 114.088,177.908 C114.08,178.949 114.071,179.99 114.062,181.062 C114.058,182.107 114.053,183.152 114.049,184.229 C114.037,186.819 114.021,189.41 114,192 C113.01,191.67 112.02,191.34 111,191 C110.505,181.1 110.505,181.1 110,171 C104.869,171.118 104.869,171.118 99.739,171.27 C94.461,171.332 94.461,171.332 91.988,169.551 C91,168 91,168 91,167 Z"/>
  <path fill="#826357" d="M111,120 C111.99,120 112.98,120 114,120 C114,132.54 114,145.08 114,158 C111.184,159.408 108.764,159.208 105.625,159.25 C103.912,159.289 103.912,159.289 102.164,159.328 C98.771,158.976 97.453,158.296 95,156 C95.33,155.34 95.66,154.68 96,154 C102.93,154.495 102.93,154.495 110,155 C110.144,153.371 110.289,151.741 110.438,150.062 C110.875,145.125 110.875,145.125 112,144 C112.157,142.294 112.251,140.583 112.316,138.871 C112.358,137.837 112.4,136.802 112.443,135.736 C112.483,134.648 112.522,133.559 112.562,132.438 C112.606,131.345 112.649,130.253 112.693,129.127 C112.8,126.418 112.902,123.709 113,121 C112.34,120.67 111.68,120.34 111,120 Z"/>
  <path fill="#85685E" d="M112,48 C112.66,48.33 113.32,48.66 114,49 C114,51.64 114,54.28 114,57 C111.69,57 109.38,57 107,57 C107,57.66 107,58.32 107,59 C105.734,59.532 104.462,60.05 103.188,60.562 C102.48,60.853 101.772,61.143 101.043,61.441 C99,62 99,62 96,61 C97.65,60.34 99.3,59.68 101,59 C101,58.34 101,57.68 101,57 C104.402,54.906 107.053,54.821 111,55 C110.979,54.031 110.959,53.061 110.938,52.062 C111,49 111,49 112,48 Z"/>
  <path fill="#89695D" d="M111,170 C111.99,170 112.98,170 114,170 C114,177.26 114,184.52 114,192 C113.01,191.67 112.02,191.34 111,191 C111,184.07 111,177.14 111,170 Z"/>
  <path fill="#825F56" d="M143,163 C140.525,166.713 139.184,166.806 135.043,167.727 C132.501,168.067 130.44,167.763 128,167 C129,165 129,165 131.398,164.113 C132.872,163.717 132.872,163.717 134.375,163.312 C135.352,163.041 136.329,162.769 137.336,162.488 C140,162 140,162 143,163 Z"/>
  <path fill="#82665C" d="M81,77 C81.33,77 81.66,77 82,77 C82.043,79 82.041,81 82,83 C81.67,83.33 81.34,83.66 81,84 C81.09,86.357 81.247,88.712 81.438,91.062 C81.539,92.353 81.641,93.643 81.746,94.973 C81.83,95.972 81.914,96.971 82,98 C81.01,97.67 80.02,97.34 79,97 C77.799,93.398 78.048,90.783 78.312,87 C78.391,85.762 78.47,84.525 78.551,83.25 C79,80 79,80 81,77 Z"/>
  <path fill="#836458" d="M141,144 C141.33,144.99 141.66,145.98 142,147 C140.688,149.188 140.688,149.188 139,151 C138.34,151 137.68,151 137,151 C136.67,151.99 136.34,152.98 136,154 C132.289,156.014 129.171,156.194 125,156 C125.33,155.01 125.66,154.02 126,153 C127.176,153 128.351,153 129.562,153 C133.667,152.539 135.332,151.031 138,147.938 C139.021,146.641 140.028,145.333 141,144 Z"/>
  <path fill="#83645A" d="M122,38 C122,39.32 122,40.64 122,42 C121.34,42 120.68,42 120,42 C120,41.34 120,40.68 120,40 C118.02,40 116.04,40 114,40 C113.67,41.32 113.34,42.64 113,44 C112.34,43.67 111.68,43.34 111,43 C111.312,41.125 111.312,41.125 112,39 C115.85,36.433 117.586,37.167 122,38 Z"/>
  <path fill="#886A5E" d="M152,137 C152.99,137 153.98,137 155,137 C155,139.31 155,141.62 155,144 C154.34,144 153.68,144 153,144 C153.062,144.928 153.124,145.856 153.188,146.812 C153,150 153,150 151.5,151.875 C150.758,152.432 150.758,152.432 150,153 C150,151.68 150,150.36 150,149 C150.66,149 151.32,149 152,149 C152,145.04 152,141.08 152,137 Z"/>
  <path fill="#7F645B" d="M125,55 C129.62,55 134.24,55 139,55 C139.33,56.32 139.66,57.64 140,59 C139.01,59 138.02,59 137,59 C137,58.34 137,57.68 137,57 C133.04,57 129.08,57 125,57 C125,56.34 125,55.68 125,55 Z"/>
  <path fill="#826357" d="M114,193 C115.485,193.99 115.485,193.99 117,195 C119.458,195.167 119.458,195.167 122,195 C123.32,195 124.64,195 126,195 C123.889,197.501 122.703,198.863 119.438,199.5 C117,199 117,199 115.188,197.125 C114,195 114,195 114,193 Z"/>
  <path fill="#6E4D42" d="M87,108 C89.862,108.981 91.949,109.959 94.312,111.875 C97.638,114.505 101.173,116.215 105,118 C103.348,118.699 103.348,118.699 101,119 C98.309,117.707 98.309,117.707 95.438,115.812 C94.487,115.2 93.537,114.588 92.559,113.957 C90.173,112.132 88.641,110.492 87,108 Z"/>
  <path fill="#836459" d="M113,98 C113.33,98 113.66,98 114,98 C114,101.63 114,105.26 114,109 C111.03,108.01 108.06,107.02 105,106 C105,105.67 105,105.34 105,105 C107.64,104.67 110.28,104.34 113,104 C113,102.02 113,100.04 113,98 Z"/>
  <path fill="#866358" d="M81,156 C81.33,157.32 81.66,158.64 82,160 C82.66,160 83.32,160 84,160 C84.33,161.32 84.66,162.64 85,164 C86.32,164.33 87.64,164.66 89,165 C89,165.66 89,166.32 89,167 C86.125,166.688 86.125,166.688 83,166 C80.571,162.356 80.838,160.288 81,156 Z"/>
  <path fill="#89685D" d="M149,58 C151.312,59.562 151.312,59.562 153,61 C152.67,61.99 152.34,62.98 152,64 C152,63.34 152,62.68 152,62 C151.34,62 150.68,62 150,62 C150,61.34 150,60.68 150,60 C147.03,60 144.06,60 141,60 C141,59.34 141,58.68 141,58 C144.371,56.876 145.645,57.018 149,58 Z"/>
  <path fill="#684D43" d="M122,38 C124.753,40.378 125.969,42.512 127,46 C127.076,48.332 127.091,50.668 127,53 C126.34,53 125.68,53 125,53 C124.927,52.043 124.927,52.043 124.852,51.066 C124.777,50.24 124.702,49.414 124.625,48.562 C124.555,47.739 124.486,46.915 124.414,46.066 C124.277,45.384 124.141,44.703 124,44 C123.34,43.67 122.68,43.34 122,43 C122,41.35 122,39.7 122,38 Z"/>
  <path fill="#795C53" d="M84,151 C84.33,152.32 84.66,153.64 85,155 C83.68,155.33 82.36,155.66 81,156 C81.33,158.31 81.66,160.62 82,163 C81.34,162.67 80.68,162.34 80,162 C79.875,154.25 79.875,154.25 81,152 C81.99,151.67 82.98,151.34 84,151 Z"/>
  <path fill="#7A5C54" d="M150,127 C153.672,130.08 154.568,132.248 155,137 C154.01,137 153.02,137 152,137 C152,135.35 152,133.7 152,132 C151.34,132 150.68,132 150,132 C150,130.35 150,128.7 150,127 Z"/>
  <path fill="#6E5B53" d="M125,167 C127.64,167 130.28,167 133,167 C132.67,167.66 132.34,168.32 132,169 C130.35,169 128.7,169 127,169 C126.67,169.99 126.34,170.98 126,172 C125.67,172 125.34,172 125,172 C125,170.35 125,168.7 125,167 Z"/>
  <path fill="#81655A" d="M133,125 C135.867,125.573 136.861,125.861 139,128 C138.625,130.625 138.625,130.625 138,133 C136,129.25 136,129.25 136,127 C135.01,126.67 134.02,126.34 133,126 C133,125.67 133,125.34 133,125 Z"/>
</svg>
