<svg xmlns="http://www.w3.org/2000/svg" version="1.1" width="223" height="222">
  <defs/>
  <path fill="#785649" d="M124.125,136.75 C127.922,138.401 129.644,139.535 132,143 C132.964,148.035 133.074,152.768 130.82,157.453 C127.679,161.848 124.415,165.374 118.934,166.379 C114.329,166.745 111.636,166.187 108.062,163.188 C105.275,160.519 103.155,158.251 102.664,154.293 C102.531,143.711 102.531,143.711 107,139 C113.251,134.684 116.761,134.983 124.125,136.75 Z"/>
  <path fill="#D4CBC9" d="M1,68 C74.26,68 147.52,68 223,68 C222.67,68.66 222.34,69.32 222,70 C149.07,70 76.14,70 1,70 C1,69.34 1,68.68 1,68 Z"/>
  <path fill="#F8F8F8" d="M9,7 C46.62,7 84.24,7 123,7 C123,7.33 123,7.66 123,8 C117.409,8.949 112.016,9.142 106.352,9.129 C104.938,9.132 104.938,9.132 103.496,9.135 C100.396,9.139 97.296,9.136 94.195,9.133 C92.03,9.133 89.864,9.134 87.698,9.136 C83.164,9.137 78.63,9.135 74.096,9.13 C68.301,9.125 62.505,9.128 56.709,9.134 C52.238,9.138 47.767,9.136 43.295,9.134 C41.159,9.133 39.023,9.134 36.887,9.136 C33.893,9.139 30.9,9.135 27.907,9.129 C26.597,9.132 26.597,9.132 25.261,9.136 C19.768,9.117 14.451,8.691 9,8 C9,7.67 9,7.34 9,7 Z"/>
  <path fill="#FFFFFF" d="M133,7 C159.4,7 185.8,7 213,7 C213,7.33 213,7.66 213,8 C198.782,8.952 184.609,9.156 170.362,9.13 C166.78,9.125 163.198,9.13 159.615,9.137 C157.312,9.136 155.01,9.135 152.707,9.133 C151.649,9.135 150.59,9.137 149.5,9.139 C143.905,9.121 138.534,8.833 133,8 C133,7.67 133,7.34 133,7 Z"/>
  <path fill="#A8877F" d="M1,168 C33.01,168 65.02,168 98,168 C98,168.33 98,168.66 98,169 C65.99,169 33.98,169 1,169 C1,168.67 1,168.34 1,168 Z"/>
  <path fill="#9C8173" d="M137,168 C165.05,168 193.1,168 222,168 C222,168.33 222,168.66 222,169 C193.95,169 165.9,169 137,169 C137,168.67 137,168.34 137,168 Z"/>
  <path fill="#80665B" d="M126,157 C126.99,157.33 127.98,157.66 129,158 C127.478,162.263 124.967,163.98 121,166 C117.966,166.317 115.037,166.243 112,166 C111.67,164.68 111.34,163.36 111,162 C114.63,162 118.26,162 122,162 C122,161.34 122,160.68 122,160 C123.812,158.312 123.812,158.312 126,157 Z"/>
  <path fill="#7A5D53" d="M128,143 C128.66,143 129.32,143 130,143 C132.081,146.122 132.274,146.933 132.25,150.5 C132.255,151.273 132.26,152.047 132.266,152.844 C132,155 132,155 130,158 C129.01,157.67 128.02,157.34 127,157 C127.99,153.37 128.98,149.74 130,146 C129.34,146 128.68,146 128,146 C128,145.01 128,144.02 128,143 Z"/>
  <path fill="#D4D4D4" d="M220,7 C220.66,7 221.32,7 222,7 C221.67,7.66 221.34,8.32 221,9 C220.67,8.34 220.34,7.68 220,7 Z"/>
</svg>
