<svg xmlns="http://www.w3.org/2000/svg" version="1.1" width="234" height="255">
  <defs/>
  <path fill="#775447" d="M121,38 C123.977,39.773 126.428,41.856 128,45 C128.269,48.515 128.232,52.039 128.25,55.562 C128.271,56.527 128.291,57.492 128.312,58.486 C128.347,64.907 127.426,70.065 125,76 C124.673,76.861 124.345,77.722 124.008,78.609 C123.716,79.316 123.425,80.022 123.125,80.75 C121.943,83.623 120.823,86.493 119.773,89.418 C119.353,90.579 118.933,91.741 118.5,92.938 C118.118,94.019 117.737,95.101 117.344,96.215 C115.905,99.197 114.858,100.389 112,102 C108.67,102.416 106.773,102.45 103.852,100.75 C102,99 102,99 101.398,96.977 C101.33,90.11 103.441,85.206 106.465,79.102 C109.982,71.996 112.343,65.018 111,57 C109.061,54.326 109.061,54.326 107,52 C106.443,48.593 106.226,46.277 108.059,43.254 C112.083,38.274 114.655,37.366 121,38 Z"/>
  <path fill="#684B3E" d="M121,38 C121.66,38.33 122.32,38.66 123,39 C123,39.66 123,40.32 123,41 C122.385,40.965 121.77,40.93 121.137,40.895 C119.924,40.854 119.924,40.854 118.688,40.812 C117.887,40.778 117.086,40.743 116.262,40.707 C113.484,41.067 112.706,41.832 111,44 C109.58,46.841 109.685,48.855 110,52 C110.668,52.584 111.335,53.168 112.023,53.77 C114,56 114,56 114.277,59.207 C113.141,71.265 113.141,71.265 110,77 C109.34,76.67 108.68,76.34 108,76 C108.217,75.466 108.433,74.933 108.656,74.383 C110.813,68.612 112.032,63.161 111,57 C109.061,54.326 109.061,54.326 107,52 C106.443,48.593 106.226,46.277 108.059,43.254 C112.194,38.137 114.58,37.771 121,38 Z"/>
  <path fill="#5D3E33" d="M102,89 C102.33,89 102.66,89 103,89 C103.66,91.97 104.32,94.94 105,98 C109.481,98.723 109.481,98.723 114,99 C114.33,98.34 114.66,97.68 115,97 C115,97.99 115,98.98 115,100 C111.511,102.326 110.103,102.419 106,102 C103.824,100.805 103.824,100.805 102,99 C101.609,96.52 101.609,96.52 101.75,93.812 C101.786,92.911 101.822,92.01 101.859,91.082 C101.929,90.051 101.929,90.051 102,89 Z"/>
  <path fill="#5B3E33" d="M118,84 C118.99,84.33 119.98,84.66 121,85 C120.01,88.3 119.02,91.6 118,95 C117.67,95 117.34,95 117,95 C116.857,87.571 116.857,87.571 118,84 Z"/>
  <path fill="#684C2E" d="M111,67 C111.66,67.99 112.32,68.98 113,70 C111.625,73.688 111.625,73.688 110,77 C109.34,76.67 108.68,76.34 108,76 C108.99,73.03 109.98,70.06 111,67 Z"/>
</svg>
