<svg xmlns="http://www.w3.org/2000/svg" version="1.1" width="229" height="217">
  <defs/>
  <path fill="#765347" d="M114,45 C115.624,44.919 117.25,44.861 118.875,44.812 C119.78,44.778 120.685,44.743 121.617,44.707 C122.797,44.852 122.797,44.852 124,45 C126.59,48.885 126.252,52.106 126.195,56.605 C126.192,57.445 126.19,58.284 126.187,59.149 C126.176,61.828 126.15,64.508 126.125,67.188 C126.115,69.005 126.106,70.822 126.098,72.639 C126.076,77.093 126.041,81.546 126,86 C126.979,85.995 127.957,85.99 128.966,85.984 C132.604,85.966 136.242,85.955 139.879,85.945 C141.453,85.94 143.026,85.933 144.599,85.925 C146.863,85.912 149.127,85.907 151.391,85.902 C152.092,85.897 152.793,85.892 153.515,85.887 C160.143,85.886 160.143,85.886 163,87 C164.564,90.127 164.4,93.58 164,97 C163.34,97.99 162.68,98.98 162,100 C159.312,100.338 156.843,100.489 154.148,100.512 C153.374,100.53 152.6,100.548 151.803,100.566 C149.327,100.62 146.851,100.654 144.375,100.688 C142.698,100.721 141.021,100.755 139.344,100.791 C135.229,100.876 131.115,100.943 127,101 C126.985,102.135 126.971,103.271 126.956,104.441 C126.898,108.651 126.821,112.861 126.738,117.071 C126.704,118.893 126.676,120.716 126.654,122.538 C126.62,125.158 126.568,127.776 126.512,130.395 C126.502,131.618 126.502,131.618 126.492,132.866 C126.344,138.572 126.344,138.572 124.653,140.677 C122.097,142.723 120.251,143 117,143 C114.344,141.033 112.358,139.425 111.526,136.117 C111.326,133.871 111.282,131.672 111.293,129.418 C111.278,128.604 111.263,127.79 111.247,126.951 C111.204,124.363 111.195,121.776 111.188,119.188 C111.164,117.428 111.139,115.668 111.111,113.908 C111.049,109.605 111.016,105.303 111,101 C109.615,100.978 109.615,100.978 108.202,100.956 C104.774,100.895 101.347,100.821 97.92,100.738 C96.437,100.704 94.954,100.676 93.471,100.654 C91.338,100.62 89.207,100.568 87.074,100.512 C85.791,100.486 84.508,100.459 83.186,100.432 C80,100 80,100 78.081,98.591 C76.004,95.534 76.715,92.587 77,89 C80.147,85.853 83.75,86.046 88.068,85.886 C89.126,85.892 90.184,85.897 91.273,85.902 C92.427,85.906 93.581,85.909 94.77,85.912 C95.959,85.92 97.149,85.929 98.375,85.938 C100.195,85.944 100.195,85.944 102.051,85.951 C105.034,85.963 108.017,85.979 111,86 C111.02,84.9 111.04,83.8 111.06,82.667 C111.136,78.582 111.225,74.497 111.317,70.412 C111.356,68.644 111.39,66.877 111.422,65.11 C111.468,62.568 111.526,60.026 111.586,57.484 C111.603,56.301 111.603,56.301 111.621,55.094 C111.723,51.277 111.853,48.24 114,45 Z"/>
  <path fill="#8D5E55" d="M113,75 C113.33,75 113.66,75 114,75 C114,79.29 114,83.58 114,88 C111.234,89.383 108.99,89.112 105.898,89.098 C104.687,89.094 103.475,89.091 102.227,89.088 C100.956,89.08 99.685,89.071 98.375,89.062 C97.096,89.058 95.817,89.053 94.5,89.049 C91.333,89.037 88.167,89.021 85,89 C85.66,88.01 86.32,87.02 87,86 C89.614,85.659 89.614,85.659 92.883,85.707 C94.049,85.717 95.216,85.726 96.418,85.736 C97.641,85.761 98.865,85.787 100.125,85.812 C101.356,85.826 102.587,85.84 103.855,85.854 C106.904,85.889 109.952,85.938 113,86 C113,82.37 113,78.74 113,75 Z"/>
  <path fill="#7E5950" d="M135.297,85.902 C136.502,85.906 137.707,85.909 138.949,85.912 C140.203,85.92 141.458,85.929 142.75,85.938 C144.655,85.944 144.655,85.944 146.598,85.951 C149.732,85.963 152.866,85.979 156,86 C156.33,86.99 156.66,87.98 157,89 C146.77,89 136.54,89 126,89 C125.67,88.34 125.34,87.68 125,87 C128.477,85.931 131.671,85.885 135.297,85.902 Z"/>
  <path fill="#896759" d="M151.625,85.938 C152.851,85.951 152.851,85.951 154.102,85.965 C155.041,85.982 155.041,85.982 156,86 C156.33,86.99 156.66,87.98 157,89 C153.37,89 149.74,89 146,89 C145.67,88.34 145.34,87.68 145,87 C147.405,85.797 148.95,85.899 151.625,85.938 Z"/>
  <path fill="#816055" d="M123,136 C123.99,136.33 124.98,136.66 126,137 C124.555,140.732 124.555,140.732 122.188,141.875 C119.372,142.036 117.523,141.192 115,140 C117.892,139.174 119.887,139 123,139 C123,138.01 123,137.02 123,136 Z"/>
</svg>
