<svg xmlns="http://www.w3.org/2000/svg" version="1.1" width="165" height="172">
  <defs/>
  <path fill="#72564A" d="M101.129,24.332 C112.705,33.28 118.032,48.989 120,63 C121.782,82.548 119.861,102.524 107.965,118.781 C102.355,125.509 96.617,130.249 87.758,131.434 C80.894,131.695 75.641,130.99 70,127 C69.408,126.599 68.817,126.198 68.207,125.785 C56.107,116.57 51.214,100.703 49.243,86.243 C47.056,66.065 50.26,45.842 62.82,29.418 C73.599,17.461 87.721,15.943 101.129,24.332 Z M69.449,39.883 C62.039,50.709 60.639,61.918 60.625,74.688 C60.601,75.878 60.576,77.068 60.551,78.295 C60.507,91.816 64.08,105.073 73.625,115 C77.061,118.358 79.991,119.183 84.75,119.375 C89.185,119.291 91.94,118.663 95.344,115.789 C107.116,103.073 109.746,85.807 109.127,69.075 C108.374,56.813 104.091,43.065 94.688,34.688 C85.253,27.329 76.501,31.258 69.449,39.883 Z"/>
  <path fill="#6E5246" d="M83,29 C89.518,29.532 94.47,31.086 98.855,36.137 C108.288,48.948 111.117,63.657 111.691,79.332 C111.844,80.653 111.844,80.653 112,82 C112.99,82.495 112.99,82.495 114,83 C114.083,82.381 114.165,81.762 114.25,81.125 C115,79 115,79 117.062,77.75 C117.702,77.503 118.341,77.255 119,77 C122.598,87.794 117.273,101.31 112.812,111.188 C108.463,119.33 102.301,126.463 93.746,130.227 C85.924,132.43 78.094,131.959 71,128 C72,126 72,126 75,125 C74.01,124.67 73.02,124.34 72,124 C72.309,123.031 72.619,122.061 72.938,121.062 C73.335,118.339 73.192,117.299 71.684,114.953 C70.432,113.471 69.176,111.992 67.918,110.516 C57.217,96.48 57.472,76.041 59.43,59.332 C61.537,49.694 66.159,37.925 74.289,31.91 C76.807,30.571 79.173,30.138 82,30 C81.484,30.371 80.969,30.743 80.438,31.125 C79.633,31.744 78.829,32.362 78,33 C77.479,33.344 76.958,33.688 76.422,34.043 C68.848,39.587 64.416,49.647 62.36,58.616 C61.556,63.943 61.631,69.312 61.625,74.688 C61.601,75.878 61.576,77.068 61.551,78.295 C61.508,91.401 64.853,104.792 74.125,114.5 C78.443,118.254 82,118.37 87.508,118.258 C91.447,117.85 93.128,116.744 96,114 C106.702,100.616 109.023,83.662 108,67 C106.712,55.914 102.942,43.15 94.562,35.25 C90.98,32.595 87.351,31.763 83,31 C83,30.34 83,29.68 83,29 Z"/>
  <path fill="#50352C" d="M82,31 C81.492,31.268 80.984,31.536 80.461,31.812 C70.7,37.369 66.605,45.588 63,56 C61.544,62.108 61.736,68.253 61.688,74.5 C61.658,75.704 61.629,76.908 61.6,78.148 C61.49,93.787 66.521,106.546 77,118 C73.265,117.452 71.857,116.129 69.562,113.188 C58.046,97.617 57.25,77.939 59.43,59.332 C61.772,48.62 66.736,37.235 76,31 C79,30 79,30 82,31 Z"/>
  <path fill="#756159" d="M88,19 C88,20.32 88,21.64 88,23 C87.131,23.026 86.262,23.052 85.367,23.078 C76.49,23.492 76.49,23.492 69,28 C67.34,29.011 65.675,30.015 64,31 C64.36,28.274 64.758,27.213 66.855,25.367 C74.113,20.724 79.369,18.702 88,19 Z"/>
  <path fill="#57392D" d="M83,29 C89.518,29.532 94.47,31.086 98.855,36.137 C105.556,45.238 108.572,53.733 109,65 C107.198,61.728 106.237,58.47 105.25,54.875 C102.591,46.111 98.902,38.057 91,33 C88.325,32.084 85.792,31.53 83,31 C83,30.34 83,29.68 83,29 Z"/>
  <path fill="#705146" d="M105,29 C105.66,29.33 106.32,29.66 107,30 C106.67,31.98 106.34,33.96 106,36 C105.34,36 104.68,36 104,36 C104.33,37.65 104.66,39.3 105,41 C103.68,41 102.36,41 101,41 C98.75,38 98.75,38 97,35 C97.66,35 98.32,35 99,35 C99.33,34.01 99.66,33.02 100,32 C101.32,32.33 102.64,32.66 104,33 C104.33,31.68 104.66,30.36 105,29 Z"/>
  <path fill="#776358" d="M90,21 C96.553,21.273 100.069,23.812 105,28 C104.67,28.99 104.34,29.98 104,31 C103.196,30.196 102.391,29.391 101.562,28.562 C97.733,25.312 93.879,25.119 89,25 C89.66,24.34 90.32,23.68 91,23 C90.67,22.34 90.34,21.68 90,21 Z"/>
  <path fill="#705951" d="M101,120 C102.32,120.33 103.64,120.66 105,121 C103.68,122.65 102.36,124.3 101,126 C98.03,125.505 98.03,125.505 95,125 C95,125.99 95,126.98 95,128 C94.34,128 93.68,128 93,128 C92.67,126.68 92.34,125.36 92,124 C95.053,123.019 96.947,123.019 100,124 C100.33,122.68 100.66,121.36 101,120 Z"/>
  <path fill="#645043" d="M57,107 C58.952,108.952 59.848,110.532 61,113 C61.33,112.34 61.66,111.68 62,111 C62.66,111 63.32,111 64,111 C63.34,112.65 62.68,114.3 62,116 C62.99,116.99 63.98,117.98 65,119 C64.34,119.66 63.68,120.32 63,121 C61.8,119.238 60.615,117.465 59.438,115.688 C58.776,114.701 58.115,113.715 57.434,112.699 C56.724,111.363 56.724,111.363 56,110 C56.33,109.01 56.66,108.02 57,107 Z"/>
  <path fill="#5E4431" d="M101,106 C101.33,106.99 101.66,107.98 102,109 C98.95,114.513 95.606,118.016 89.688,120.25 C88.801,120.497 87.914,120.745 87,121 C87,120.34 87,119.68 87,119 C88.196,118.526 89.393,118.051 90.625,117.562 C95.838,115.012 98.217,110.934 101,106 Z"/>
  <path fill="#4F3731" d="M65,102 C66.725,104.242 68.329,106.504 69.875,108.875 C72.081,112.12 74.449,115.024 77,118 C73.095,117.474 71.677,115.875 69.312,112.812 C66.648,109.249 65.117,106.568 65,102 Z"/>
  <path fill="#786058" d="M108,33 C112.429,38.143 112.429,38.143 113,42 C111.35,42.66 109.7,43.32 108,44 C107.67,42.35 107.34,40.7 107,39 C107.66,39 108.32,39 109,39 C108.34,37.35 107.68,35.7 107,34 C107.33,33.67 107.66,33.34 108,33 Z"/>
  <path fill="#735D53" d="M64,32 C64.66,32.33 65.32,32.66 66,33 C64.988,36.403 64.352,37.757 61.375,39.812 C60.591,40.204 59.807,40.596 59,41 C58.67,40.34 58.34,39.68 58,39 C58.66,39 59.32,39 60,39 C60,38.34 60,37.68 60,37 C59.34,36.67 58.68,36.34 58,36 C59.98,34.68 61.96,33.36 64,32 Z"/>
  <path fill="#664F45" d="M113,44 C113.66,44 114.32,44 115,44 C116.316,47.62 117,50.096 117,54 C116.34,54 115.68,54 115,54 C115,53.01 115,52.02 115,51 C114.34,51 113.68,51 113,51 C113,48.69 113,46.38 113,44 Z"/>
  <path fill="#7C6A58" d="M82,19 C83.98,19 85.96,19 88,19 C88,20.32 88,21.64 88,23 C86.02,23 84.04,23 82,23 C82,21.68 82,20.36 82,19 Z"/>
  <path fill="#6A5049" d="M88,19 C89.65,19.33 91.3,19.66 93,20 C92.34,20.66 91.68,21.32 91,22 C91.33,22.66 91.66,23.32 92,24 C90.02,24.33 88.04,24.66 86,25 C86.66,23.02 87.32,21.04 88,19 Z"/>
  <path fill="#604B44" d="M63,29 C63.66,29.33 64.32,29.66 65,30 C65.99,29.67 66.98,29.34 68,29 C67.67,29.99 67.34,30.98 67,32 C66.01,32 65.02,32 64,32 C63.67,32.66 63.34,33.32 63,34 C62.01,33.67 61.02,33.34 60,33 C60.99,31.68 61.98,30.36 63,29 Z"/>
</svg>
