<svg xmlns="http://www.w3.org/2000/svg" version="1.1" width="202" height="223">
  <defs/>
  <path fill="#765347" d="M108.211,133.539 C111,134 111,134 113.625,136.312 C114.306,137.643 114.306,137.643 115,139 C115.99,140.485 115.99,140.485 117,142 C118.537,149.052 118.475,155.58 115,162 C112.852,164.862 110.464,167.412 108,170 C107.237,170.99 106.474,171.98 105.688,173 C105.131,173.66 104.574,174.32 104,175 C103.34,175 102.68,175 102,175 C102,175.66 102,176.32 102,177 C94.283,181.939 94.283,181.939 89,181 C86.625,179.438 86.625,179.438 85,177 C84.457,173.797 84.457,173.797 85,170 C87.027,167.242 89.499,165.066 92.062,162.812 C93.397,161.623 94.722,160.421 96.035,159.207 C96.627,158.686 97.219,158.165 97.828,157.628 C99.239,156.05 99.239,156.05 98.781,153.921 C98.059,151.889 98.059,151.889 96.465,150.062 C94.674,147.54 94.567,146.066 94.562,143 C94.543,142.154 94.524,141.309 94.504,140.438 C96.005,133.064 101.945,133.341 108.211,133.539 Z"/>
  <path fill="#775547" d="M114.312,53.312 C117,55 117,55 119,58 C119.74,63.642 120.436,70.133 117.82,75.355 C115.175,78.02 113.013,78.877 109.297,79.328 C104.447,79.196 100.937,78.541 97.375,75.125 C93.951,70.62 93.712,67.563 94,62 C95.019,58.551 96.145,56.221 99,54 C104.169,51.272 108.899,51.167 114.312,53.312 Z"/>
  <path fill="#7A5B51" d="M100,173 C100.66,173.33 101.32,173.66 102,174 C100.438,176.938 100.438,176.938 98,180 C94.25,180.875 94.25,180.875 91,181 C91,180.34 91,179.68 91,179 C90.01,178.67 89.02,178.34 88,178 C88.33,177.34 88.66,176.68 89,176 C91.31,176.66 93.62,177.32 96,178 C96,177.34 96,176.68 96,176 C98,174.375 98,174.375 100,173 Z"/>
  <path fill="#6B4D42" d="M100,153 C100.66,153 101.32,153 102,153 C101.407,156.606 99.973,158.544 97.562,161.25 C96.945,161.956 96.328,162.663 95.691,163.391 C94,165 94,165 92,165 C93.561,161.169 96.108,158.892 99,156 C99.33,155.01 99.66,154.02 100,153 Z"/>
  <path fill="#5D4033" d="M118,69 C118.33,70.32 118.66,71.64 119,73 C116.69,74.98 114.38,76.96 112,79 C112,76 112,76 114.438,73.438 C115.283,72.633 116.129,71.829 117,71 C117.33,70.34 117.66,69.68 118,69 Z"/>
  <path fill="#816256" d="M88,176 C90.64,176.66 93.28,177.32 96,178 C95.67,178.99 95.34,179.98 95,181 C93.68,181 92.36,181 91,181 C91,180.34 91,179.68 91,179 C90.01,178.67 89.02,178.34 88,178 C88,177.34 88,176.68 88,176 Z"/>
  <path fill="#7F6055" d="M101,156 C101.33,156.99 101.66,157.98 102,159 C100.02,160.98 98.04,162.96 96,165 C95.34,164.67 94.68,164.34 94,164 C96.31,161.36 98.62,158.72 101,156 Z"/>
</svg>
