<svg xmlns="http://www.w3.org/2000/svg" version="1.1" width="148" height="178">
  <defs/>
  <path fill="#735549" d="M99.25,24.625 C103.818,28.29 106.391,32.829 109,38 C109.415,38.761 109.83,39.521 110.258,40.305 C114.846,49.834 114.335,60.974 111.188,70.875 C106.281,83.023 99.092,94.577 89.961,103.98 C88.244,105.748 86.798,107.542 85.312,109.5 C77.316,118.956 63.174,128.139 50.785,129.188 C48.625,129.25 48.625,129.25 45,129 C43,127 43,127 42.688,123.5 C42.791,122.345 42.894,121.19 43,120 C46.105,117.93 48.355,117.304 51.938,116.375 C63.07,112.968 70.797,106.52 78.938,98.5 C79.878,97.575 79.878,97.575 80.837,96.632 C84.939,92.45 88.105,88.089 91,83 C90.118,83.231 90.118,83.231 89.219,83.466 C78.082,86.305 68.842,85.456 58.738,79.715 C50.634,74.173 46.435,66.611 44.406,57.117 C43.124,47.281 44.902,38.646 50.727,30.621 C63.347,15.361 82.985,13.823 99.25,24.625 Z M60.562,36.188 C55.946,42.351 54.203,48.876 55.297,56.508 C56.946,62.354 60.342,66.653 65,70.438 C71.192,73.662 76.488,75.15 83.422,73.383 C90.034,71.119 94.121,67.801 98,62 C100.938,55.996 100.826,49.663 98.875,43.375 C94.931,36.275 90.837,32.071 83.062,29.312 C74.696,28.045 66.49,29.847 60.562,36.188 Z"/>
  <path fill="#735549" d="M94,33 C99.461,38.331 101.933,43.782 102.137,51.398 C101.709,59.533 98.704,65.296 93,71 C93,71.99 93,72.98 93,74 C92.689,75.671 92.359,77.339 92,79 C92.99,79.495 92.99,79.495 94,80 C94.286,88.571 94.286,88.571 92,92 C93.32,91.34 94.64,90.68 96,90 C96,91.32 96,92.64 96,94 C95.67,94.33 95.34,94.66 95,95 C95.99,95.495 95.99,95.495 97,96 C96.42,96.641 95.84,97.281 95.242,97.941 C94.461,98.806 93.68,99.671 92.875,100.562 C92.041,101.482 91.207,102.401 90.348,103.348 C88.57,105.356 86.939,107.374 85.312,109.5 C77.316,118.956 63.174,128.139 50.785,129.188 C48.625,129.25 48.625,129.25 45,129 C43,127 43,127 42.688,123.5 C42.791,122.345 42.894,121.19 43,120 C46.105,117.93 48.355,117.304 51.938,116.375 C63.07,112.968 70.797,106.52 78.938,98.5 C79.878,97.575 79.878,97.575 80.837,96.632 C84.939,92.45 88.105,88.089 91,83 C90.412,83.154 89.824,83.308 89.219,83.466 C78.082,86.305 68.842,85.456 58.738,79.715 C50.627,74.168 46.488,66.629 44.391,57.152 C43.755,52.019 44.25,47.097 45,42 C45.66,42 46.32,42 47,42 C46.988,42.869 46.977,43.738 46.965,44.633 C46.956,45.785 46.947,46.938 46.938,48.125 C46.926,49.262 46.914,50.399 46.902,51.57 C46.995,54.837 47.25,57.82 48,61 C48.66,61.33 49.32,61.66 50,62 C50,62.66 50,63.32 50,64 C51.485,63.505 51.485,63.505 53,63 C53.895,59.21 54.078,55.763 54,51.875 C53.933,48.494 53.925,46.224 55,43 C55.66,43.33 56.32,43.66 57,44 C56.893,44.701 56.786,45.403 56.676,46.125 C55.667,54.105 56.514,58.949 60.688,65.75 C65.071,70.015 70.978,72.692 77.062,73.312 C83.844,72.774 89.845,70.758 94.5,65.625 C98.811,59.877 99.788,54.042 99,47 C96.941,40.605 93.79,35.651 87.938,32.188 C80.281,29.092 73.995,29.424 66.379,32.645 C62.716,34.732 60.373,37.566 58,41 C57.67,40.01 57.34,39.02 57,38 C59.952,32.902 64.74,30.306 70,28 C79.405,25.776 86.025,27.593 94,33 Z"/>
  <path fill="#715549" d="M82,98 C84.667,99.333 87.333,100.667 90,102 C88.882,103.339 87.755,104.671 86.625,106 C85.999,106.743 85.372,107.485 84.727,108.25 C84.157,108.827 83.587,109.405 83,110 C82.34,110 81.68,110 81,110 C80.928,110.579 80.856,111.158 80.781,111.754 C78.522,118.25 69.025,122.97 63.152,126.035 C57.233,128.689 51.439,129.444 45,129 C43,127 43,127 42.688,123.5 C42.791,122.345 42.894,121.19 43,120 C46.132,117.912 48.431,117.249 52.062,116.375 C53.126,116.115 54.189,115.854 55.285,115.586 C58,115 58,115 60,115 C68.744,111.063 75.403,104.803 82,98 Z"/>
  <path fill="#73554A" d="M82,98 C84.667,99.333 87.333,100.667 90,102 C88.882,103.339 87.755,104.671 86.625,106 C85.685,107.114 85.685,107.114 84.727,108.25 C84.157,108.827 83.587,109.405 83,110 C82.34,110 81.68,110 81,110 C80.876,110.619 80.753,111.238 80.625,111.875 C80,114 80,114 78,116 C75.871,116.414 75.871,116.414 73.438,116.625 C72.632,116.7 71.826,116.775 70.996,116.852 C69.999,116.926 69,117 68,117 C66.332,117.326 64.665,117.658 63,118 C62.67,117.34 62.34,116.68 62,116 C65.772,112.071 69.889,108.564 74,105 C75.501,103.688 77.001,102.376 78.5,101.062 C79.667,100.042 80.833,99.021 82,98 Z"/>
  <path fill="#54372D" d="M94,33 C99.461,38.331 101.933,43.782 102.137,51.398 C101.765,58.473 99.585,63.626 95,69 C94.559,69.526 94.118,70.052 93.664,70.594 C91.508,72.416 89.525,72.948 86.812,73.688 C85.911,73.939 85.01,74.19 84.082,74.449 C83.395,74.631 82.708,74.813 82,75 C82,74.34 82,73.68 82,73 C82.652,72.732 83.305,72.464 83.977,72.188 C90.389,69.312 94.625,66.265 98,60 C99.798,54.419 99.595,48.847 97.812,43.312 C94.106,36.538 90.336,32.893 83.062,30.312 C75.95,29.235 70.218,30.457 64,34 C61.686,36.14 59.79,38.41 58,41 C57.67,40.01 57.34,39.02 57,38 C59.952,32.902 64.74,30.306 70,28 C79.405,25.776 86.025,27.593 94,33 Z"/>
  <path fill="#5E4132" d="M94,80 C93.658,85.48 90.345,88.933 87,93 C86.379,93.757 85.757,94.513 85.117,95.293 C81.604,99.446 81.604,99.446 80,101 C79.34,101 78.68,101 78,101 C77.67,101.99 77.34,102.98 77,104 C71.686,109.868 64.995,113.49 58,117 C59.29,113.129 60.655,112.804 64.125,110.75 C69.653,107.175 74.279,103.146 78.938,98.5 C79.563,97.884 80.189,97.267 80.834,96.632 C84.94,92.453 88.105,88.089 91,83 C90.412,83.154 89.823,83.307 89.217,83.466 C82.199,85.258 74.541,86.772 68,83 C68.929,82.951 69.859,82.902 70.816,82.852 C78.444,82.39 86.537,79.548 94,80 Z"/>
  <path fill="#5D4137" d="M45,42 C45.66,42 46.32,42 47,42 C46.977,42.846 46.954,43.691 46.93,44.562 C46.769,54.664 47.361,65.065 54.711,72.801 C57.461,75.231 59.484,76.828 63,78 C63.33,78.66 63.66,79.32 64,80 C66.025,80.652 66.025,80.652 68,81 C68,81.66 68,82.32 68,83 C60.768,81.894 55.127,77.817 50.625,72.125 C45.053,63.96 43.064,54.647 44.438,44.812 C44.623,43.884 44.809,42.956 45,42 Z"/>
  <path fill="#74554A" d="M59,119 C58.67,121.64 58.34,124.28 58,127 C55.085,127 52.658,126.591 49.812,126 C48.911,125.814 48.01,125.629 47.082,125.438 C46.395,125.293 45.708,125.149 45,125 C45.336,123.113 45.336,123.113 46,121 C50.596,117.826 53.631,117.819 59,119 Z"/>
  <path fill="#593D2E" d="M55,43 C55.66,43.33 56.32,43.66 57,44 C56.893,44.701 56.786,45.403 56.676,46.125 C55.667,54.105 56.514,58.949 60.688,65.75 C66.397,71.305 73.321,72.804 81,74 C81,74.33 81,74.66 81,75 C73.241,75.743 67.425,74.553 61,70 C55.969,64.828 53.713,59.075 53.812,51.875 C53.819,50.841 53.825,49.807 53.832,48.742 C54,46 54,46 55,43 Z"/>
  <path fill="#5E493A" d="M56,117 C53.668,118.206 51.504,119.165 49,120 C46.837,122.033 46.837,122.033 45,125 C45.71,125.049 46.421,125.098 47.152,125.148 C48.531,125.261 48.531,125.261 49.938,125.375 C50.854,125.445 51.771,125.514 52.715,125.586 C53.846,125.791 53.846,125.791 55,126 C55.33,126.66 55.66,127.32 56,128 C52.077,129.308 49.14,129.197 45,129 C43,127 43,127 42.688,123.5 C42.791,122.345 42.894,121.19 43,120 C47.276,117.149 50.932,116.855 56,117 Z"/>
  <path fill="#654A43" d="M60,22 C60.33,23.32 60.66,24.64 61,26 C60.01,26.495 60.01,26.495 59,27 C58.34,26.67 57.68,26.34 57,26 C56.711,26.928 56.423,27.856 56.125,28.812 C55,32 55,32 53,35 C52.01,35.33 51.02,35.66 50,36 C48.781,38.504 48.781,38.504 48,41 C47.67,41 47.34,41 47,41 C46.517,35.518 48.694,33.246 52.043,29.16 C54.511,26.436 57.071,24.215 60,22 Z"/>
  <path fill="#5C3C31" d="M49,69 C49.99,69 50.98,69 52,69 C53.43,70.461 53.43,70.461 54.875,72.375 C57.349,75.442 59.181,76.8 63,78 C63.33,78.66 63.66,79.32 64,80 C66.025,80.652 66.025,80.652 68,81 C68,81.66 68,82.32 68,83 C61.701,82.046 56.485,78.87 52.309,74.047 C51.14,72.409 50.06,70.71 49,69 Z"/>
  <path fill="#684F45" d="M112,48 C112.33,48 112.66,48 113,48 C113,51.96 113,55.92 113,60 C112.34,60 111.68,60 111,60 C109.375,61.458 109.375,61.458 108,63 C106.899,59.697 107.049,58.284 108,55 C108.66,54.67 109.32,54.34 110,54 C110.727,52.021 111.398,50.02 112,48 Z"/>
  <path fill="#62493A" d="M71,116 C72.98,116 74.96,116 77,116 C73.965,119.306 70.814,121.502 66.938,123.75 C65.373,124.67 65.373,124.67 63.777,125.609 C61,127 61,127 58,127 C58,126.34 58,125.68 58,125 C58.855,124.602 59.709,124.203 60.59,123.793 C61.695,123.263 62.799,122.733 63.938,122.188 C65.04,121.665 66.142,121.143 67.277,120.605 C70.287,119.232 70.287,119.232 71,116 Z"/>
  <path fill="#5B4337" d="M95,95 C95.66,95.33 96.32,95.66 97,96 C96.42,96.641 95.84,97.281 95.242,97.941 C90.759,102.905 86.326,107.898 82,113 C81.67,112.01 81.34,111.02 81,110 C81.66,110 82.32,110 83,110 C83.206,109.464 83.412,108.927 83.625,108.375 C85.259,105.553 87.276,103.663 89.66,101.465 C91.251,99.925 91.251,99.925 92,97 C92.99,96.34 93.98,95.68 95,95 Z"/>
  <path fill="#553B30" d="M56,117 C53.668,118.206 51.504,119.165 49,120 C46.837,122.033 46.837,122.033 45,125 C44.34,125.66 43.68,126.32 43,127 C42.812,123.625 42.812,123.625 43,120 C47.276,117.149 50.932,116.855 56,117 Z"/>
  <path fill="#604840" d="M111,63 C111.66,63.33 112.32,63.66 113,64 C112.551,65.482 112.09,66.961 111.625,68.438 C111.37,69.261 111.115,70.085 110.852,70.934 C110,73 110,73 108,74 C108,73.01 108,72.02 108,71 C107.34,71 106.68,71 106,71 C106.33,70.01 106.66,69.02 107,68 C107.99,68 108.98,68 110,68 C110.33,66.35 110.66,64.7 111,63 Z"/>
  <path fill="#705A53" d="M110,56 C110.33,57.32 110.66,58.64 111,60 C111.66,60 112.32,60 113,60 C113,60.99 113,61.98 113,63 C112.01,63.495 112.01,63.495 111,64 C110.348,66.025 110.348,66.025 110,68 C109.01,68 108.02,68 107,68 C107.99,64.04 108.98,60.08 110,56 Z"/>
  <path fill="#7B5E54" d="M77,18 C77,18.99 77,19.98 77,21 C72.545,21.495 72.545,21.495 68,22 C68,21.01 68,20.02 68,19 C71.196,17.935 73.657,17.926 77,18 Z"/>
  <path fill="#573326" d="M49,69 C49.99,69 50.98,69 52,69 C53.605,70.75 53.605,70.75 55.188,73 C55.717,73.743 56.247,74.485 56.793,75.25 C57.191,75.827 57.59,76.405 58,77 C57.01,77 56.02,77 55,77 C53.395,75.25 53.395,75.25 51.812,73 C51.283,72.257 50.753,71.515 50.207,70.75 C49.809,70.173 49.41,69.595 49,69 Z"/>
  <path fill="#795D55" d="M90,21 C91.65,21.33 93.3,21.66 95,22 C95.33,22.99 95.66,23.98 96,25 C95.01,25.33 94.02,25.66 93,26 C93,25.34 93,24.68 93,24 C91.35,24.66 89.7,25.32 88,26 C88.66,24.35 89.32,22.7 90,21 Z"/>
  <path fill="#573F34" d="M91,84 C91.66,84.33 92.32,84.66 93,85 C90.03,88.96 90.03,88.96 87,93 C86.34,92.67 85.68,92.34 85,92 C86.98,89.36 88.96,86.72 91,84 Z"/>
  <path fill="#6F5750" d="M107,78 C105.771,81.688 104.061,82.724 101,85 C101.312,82.625 101.312,82.625 102,80 C105,78 105,78 107,78 Z"/>
</svg>
