<svg xmlns="http://www.w3.org/2000/svg" version="1.1" width="162" height="169">
  <defs/>
  <path fill="#6C4F42" d="M95,23 C100.787,27.755 105.525,33.489 107,41 C108.253,54.266 104.549,66.168 97,77 C96.625,77.542 96.251,78.083 95.865,78.641 C88.849,88.747 81.528,98.404 73.223,107.492 C69.953,111.182 66.973,115.071 64,119 C71.717,119.075 79.397,119.034 87.105,118.641 C88.451,118.577 89.797,118.513 91.143,118.449 C93.188,118.352 95.233,118.247 97.278,118.125 C99.303,118.007 101.329,117.917 103.355,117.828 C104.538,117.765 105.72,117.702 106.938,117.638 C110,118 110,118 112.419,119.847 C114,122 114,122 113.938,124.625 C113,127 113,127 110,129 C107.522,129.354 107.522,129.354 104.538,129.502 C102.861,129.592 102.861,129.592 101.149,129.684 C99.94,129.739 98.73,129.795 97.484,129.852 C96.24,129.915 94.996,129.979 93.714,130.045 C90.402,130.212 87.091,130.372 83.779,130.528 C80.429,130.688 77.08,130.861 73.73,131.031 C66.821,131.377 59.912,131.718 53,132 C51.865,132.07 51.865,132.07 50.707,132.141 C48.81,132.224 48.81,132.224 46,132 C44,129 44,129 44.18,126.547 C45.086,123.733 46.098,122.377 48.125,120.25 C50.62,117.539 52.965,114.813 55.188,111.875 C58.772,107.198 62.6,102.75 66.473,98.312 C87.767,74.404 87.767,74.404 95.465,44.551 C94.527,39.403 91.631,35.631 88,32 C80.48,29.828 72.158,31.817 65.336,35.398 C62.08,37.543 59.168,39.851 56.25,42.438 C54,44 54,44 51.25,43.812 C49,43 49,43 48,42 C47.507,39.043 47.482,36.912 48.988,34.258 C58.771,21.857 80.736,14.497 95,23 Z"/>
  <path fill="#715347" d="M91,21 C97.443,26.746 104.58,34.773 105.293,43.648 C105.258,44.878 105.223,46.108 105.188,47.375 C105.147,49.243 105.147,49.243 105.105,51.148 C105.071,52.089 105.036,53.03 105,54 C99.125,56 99.125,56 98,56 C98.07,55.178 98.139,54.355 98.211,53.508 C98.612,45.234 97.626,39.322 92,33 C86.987,29.391 82.995,29.234 77,30 C73.505,30.909 70.106,31.964 66.688,33.125 C64,34 64,34 62,34 C62,34.66 62,35.32 62,36 C60.391,37.543 60.391,37.543 58.25,39.188 C57.554,39.738 56.858,40.288 56.141,40.855 C54,42 54,42 51.797,41.863 C51.204,41.578 50.611,41.294 50,41 C49.67,40.01 49.34,39.02 49,38 C50.312,35.562 50.312,35.562 52,33 C52.276,32.35 52.552,31.701 52.836,31.031 C55.681,26.066 61.949,23.681 67.164,21.949 C74.857,20.012 83.303,18.434 91,21 Z"/>
  <path fill="#745549" d="M61,109 C63.835,113.002 62.667,116.408 62,121 C62.684,120.97 63.368,120.939 64.073,120.908 C89.194,119.81 89.194,119.81 101,120 C101.33,119.34 101.66,118.68 102,118 C102,118.66 102,119.32 102,120 C103.918,119.938 103.918,119.938 105.875,119.875 C108.055,119.805 108.055,119.805 110,120 C110.99,120.99 110.99,120.99 112,122 C111.464,125.536 111.464,125.536 110,127 C97.236,128.751 84.044,128.571 71.188,129.062 C68.838,129.154 66.488,129.246 64.139,129.338 C58.426,129.561 52.713,129.782 47,130 C46.355,128.199 46.355,128.199 46,126 C49.985,120.508 49.985,120.508 53,119 C53.976,117.243 54.951,115.486 55.914,113.723 C57.269,111.573 58.839,110.312 61,109 Z"/>
  <path fill="#51342B" d="M89.812,30.062 C93.803,33.597 96.937,38.076 99,43 C98.536,57.617 92.335,68.52 84,80 C83.268,81.027 82.536,82.055 81.781,83.113 C79.877,85.76 77.946,88.384 76,91 C75.443,91.763 74.886,92.526 74.312,93.312 C71.739,96.812 69.182,100.023 66,103 C60.743,107.98 56.095,113.414 53,120 C52.34,120 51.68,120 51,120 C50.34,121.32 49.68,122.64 49,124 C48.34,124 47.68,124 47,124 C47,125.65 47,127.3 47,129 C53.883,128.737 60.766,128.47 67.648,128.2 C69.984,128.109 72.321,128.019 74.657,127.93 C92.348,127.29 92.348,127.29 110,126 C110.591,124.054 110.591,124.054 111,122 C109.503,120.503 108.012,120.668 105.938,120.438 C104.638,120.293 103.339,120.149 102,120 C102,119.34 102,118.68 102,118 C109.265,117.516 109.265,117.516 112.562,119.688 C114,122 114,122 113.938,124.625 C113,127 113,127 110,129 C107.522,129.354 107.522,129.354 104.538,129.502 C102.861,129.592 102.861,129.592 101.149,129.684 C99.94,129.739 98.73,129.795 97.484,129.852 C96.24,129.915 94.996,129.979 93.714,130.045 C90.402,130.212 87.091,130.372 83.779,130.528 C80.429,130.688 77.08,130.861 73.73,131.031 C66.821,131.377 59.912,131.718 53,132 C51.865,132.07 51.865,132.07 50.707,132.141 C48.81,132.224 48.81,132.224 46,132 C44,129 44,129 44.18,126.547 C45.086,123.733 46.098,122.377 48.125,120.25 C50.62,117.539 52.965,114.813 55.188,111.875 C58.772,107.198 62.6,102.75 66.473,98.312 C87.767,74.404 87.767,74.404 95.465,44.551 C94.527,39.403 91.631,35.631 88,32 C80.48,29.828 72.158,31.817 65.336,35.398 C62.08,37.543 59.168,39.851 56.25,42.438 C54,44 54,44 51.25,43.812 C49,43 49,43 48,42 C47.688,39.188 47.688,39.188 48,36 C50,33.625 50,33.625 52,32 C52,35.204 51.257,37.094 50,40 C51.678,40.966 51.678,40.966 54,41 C56.053,39.399 58.057,37.732 60,36 C60.66,36 61.32,36 62,36 C62,35.34 62,34.68 62,34 C63.749,33.352 65.499,32.706 67.25,32.062 C68.225,31.703 69.199,31.343 70.203,30.973 C76.583,28.754 83.33,27.614 89.812,30.062 Z"/>
  <path fill="#725447" d="M88,85 C88.66,85 89.32,85 90,85 C86.867,93.894 79.439,100.678 73.188,107.527 C69.933,111.206 66.949,115.075 64,119 C76.36,119.173 88.658,118.636 101,118 C101,118.66 101,119.32 101,120 C88.015,121.301 75.034,121.092 62,121 C62,117.7 62,114.4 62,111 C61.01,111 60.02,111 59,111 C60.455,107.606 62.365,105.555 65,103 C65.536,102.257 66.073,101.515 66.625,100.75 C67.079,100.173 67.533,99.595 68,99 C68.66,99 69.32,99 70,99 C70.289,98.361 70.577,97.721 70.875,97.062 C72,95 72,95 74,94 C74,94.99 74,95.98 74,97 C74.66,97 75.32,97 76,97 C76.33,95.68 76.66,94.36 77,93 C77.33,94.32 77.66,95.64 78,97 C78.66,96.01 79.32,95.02 80,94 C80.66,94 81.32,94 82,94 C83.516,91.977 83.516,91.977 85,89.5 C86.562,86.969 86.562,86.969 88,85 Z"/>
  <path fill="#755548" d="M94,73 C92.384,79.925 91.074,83.926 86,89 C85.299,90.052 84.598,91.104 83.875,92.188 C81.893,95.161 81.031,95.484 78,97 C77.67,96.01 77.34,95.02 77,94 C76.67,94.99 76.34,95.98 76,97 C75.34,97 74.68,97 74,97 C73.736,93.164 74.047,91.337 76.5,88.375 C79.928,84.106 83.097,79.687 86.266,75.223 C88.898,71.85 90.085,71.825 94,73 Z"/>
  <path fill="#55362D" d="M79,98 C79.66,98.33 80.32,98.66 81,99 C80.039,100.034 80.039,100.034 79.059,101.09 C73.745,106.862 68.695,112.703 64,119 C76.36,119.173 88.658,118.636 101,118 C101,118.66 101,119.32 101,120 C88.017,121.301 75.032,121.1 62,121 C62.527,117.442 63.2,115.29 65.582,112.59 C66.102,111.992 66.622,111.395 67.158,110.779 C67.704,110.172 68.25,109.564 68.812,108.938 C69.347,108.326 69.881,107.714 70.432,107.084 C73.188,103.948 76.003,100.91 79,98 Z"/>
  <path fill="#5A4137" d="M91,21 C97.961,24.845 104.205,31.012 106.605,38.77 C107.952,46.383 107.258,53.663 105,61 C104.34,61 103.68,61 103,61 C103.165,60.134 103.33,59.268 103.5,58.375 C104.483,51.539 105.475,42.562 103,36 C102.34,35.67 101.68,35.34 101,35 C100.423,33.927 99.845,32.855 99.25,31.75 C97.739,28.962 96.239,27.154 93.75,25.188 C92.842,24.466 91.935,23.744 91,23 C91,22.34 91,21.68 91,21 Z"/>
  <path fill="#5B4030" d="M75,89 C75.66,89.33 76.32,89.66 77,90 C75.92,91.419 74.836,92.835 73.75,94.25 C72.845,95.433 72.845,95.433 71.922,96.641 C70.068,98.917 68.074,100.926 66,103 C65.01,104.485 65.01,104.485 64,106 C63.34,105.67 62.68,105.34 62,105 C63.662,100.876 66.623,97.934 69.625,94.75 C70.141,94.196 70.656,93.641 71.188,93.07 C72.454,91.71 73.727,90.354 75,89 Z"/>
  <path fill="#634A3E" d="M59,26 C59.99,26.33 60.98,26.66 62,27 C61.216,27.186 60.432,27.371 59.625,27.562 C58.326,28.274 58.326,28.274 57,29 C56.536,30.671 56.536,30.671 56.062,32.375 C55,36 55,36 51.875,38.438 C50.926,38.953 49.978,39.469 49,40 C49.667,38.333 50.333,36.667 51,35 C51.248,34.154 51.495,33.309 51.75,32.438 C53.491,29.042 55.673,27.765 59,26 Z"/>
  <path fill="#523A2F" d="M91,21 C94.72,23.039 97.384,25.197 100.188,28.375 C100.862,29.125 101.536,29.875 102.23,30.648 C104.023,33.031 105.033,35.193 106,38 C105.01,38 104.02,38 103,38 C103,37.34 103,36.68 103,36 C102.34,35.67 101.68,35.34 101,35 C100.423,33.927 99.845,32.855 99.25,31.75 C97.739,28.962 96.239,27.154 93.75,25.188 C92.842,24.466 91.935,23.744 91,23 C91,22.34 91,21.68 91,21 Z"/>
  <path fill="#593C33" d="M91,32 C94.701,35.304 96.89,38.547 99,43 C98.75,45.938 98.75,45.938 98,48 C97.34,48 96.68,48 96,48 C95.629,46.237 95.629,46.237 95.25,44.438 C94.181,40.092 92.364,36.783 90,33 C90.33,32.67 90.66,32.34 91,32 Z"/>
  <path fill="#583D34" d="M102,118 C109.265,117.516 109.265,117.516 112.562,119.688 C114,122 114,122 113.75,124.75 C113.503,125.493 113.255,126.235 113,127 C112.01,127.33 111.02,127.66 110,128 C110.278,126.546 110.278,126.546 110.562,125.062 C110.707,124.052 110.851,123.041 111,122 C109.503,120.503 108.012,120.668 105.938,120.438 C104.638,120.293 103.339,120.149 102,120 C102,119.34 102,118.68 102,118 Z"/>
  <path fill="#4B342D" d="M88,85 C88.66,85 89.32,85 90,85 C88.503,89.49 86.166,93.478 83,97 C82.34,97 81.68,97 81,97 C82.497,92.51 84.834,88.522 88,85 Z"/>
  <path fill="#76574D" d="M57,35 C57,35.66 57,36.32 57,37 C56.01,37.495 56.01,37.495 55,38 C55.33,38.99 55.66,39.98 56,41 C54.35,41.33 52.7,41.66 51,42 C51,40.68 51,39.36 51,38 C54.214,35 54.214,35 57,35 Z"/>
  <path fill="#543C31" d="M51,32 C51.66,32.66 52.32,33.32 53,34 C52.01,35.32 51.02,36.64 50,38 C50.309,38.619 50.619,39.237 50.938,39.875 C51.625,41.25 52.312,42.625 53,44 C50.525,43.01 50.525,43.01 48,42 C47.631,36.585 47.631,36.585 49.5,33.625 C49.995,33.089 50.49,32.553 51,32 Z"/>
  <path fill="#502F23" d="M48,121 C48.33,121.99 48.66,122.98 49,124 C48.34,124 47.68,124 47,124 C47,126.64 47,129.28 47,132 C45.438,130.812 45.438,130.812 44,129 C44.151,125.989 44.587,124.479 46.562,122.188 C47.037,121.796 47.511,121.404 48,121 Z"/>
</svg>
