<svg xmlns="http://www.w3.org/2000/svg" version="1.1" width="153" height="172">
  <defs/>
  <path fill="#725449" d="M62.899,25.628 C63.893,25.621 64.887,25.615 65.912,25.609 C66.984,25.618 68.056,25.627 69.16,25.637 C70.261,25.636 71.362,25.636 72.496,25.635 C74.824,25.638 77.151,25.647 79.479,25.664 C83.052,25.687 86.624,25.684 90.197,25.678 C92.456,25.683 94.714,25.69 96.973,25.699 C98.584,25.698 98.584,25.698 100.227,25.696 C101.714,25.711 101.714,25.711 103.231,25.725 C104.105,25.73 104.98,25.735 105.881,25.739 C108,26 108,26 110,28 C110.25,31 110.25,31 110,34 C108,36 108,36 106.165,36.241 C105.423,36.236 104.682,36.232 103.917,36.227 C102.656,36.227 102.656,36.227 101.37,36.227 C100.461,36.216 99.553,36.206 98.617,36.195 C97.223,36.191 97.223,36.191 95.801,36.187 C92.825,36.176 89.85,36.15 86.875,36.125 C84.861,36.115 82.846,36.106 80.832,36.098 C75.888,36.077 70.944,36.038 66,36 C65.01,46.56 64.02,57.12 63,68 C65.31,67.34 67.62,66.68 70,66 C79.426,64.346 91.482,62.686 100,68 C107.836,73.568 113.094,80.469 115,90 C116.216,100.137 111.518,110.438 105.906,118.629 C100.074,125.884 89.46,132.178 80.106,133.209 C69.113,133.723 60.235,133.777 51,127 C49.619,124.238 49.809,122.053 50,119 C52,117 52,117 54.188,116.625 C57.524,117.07 59.481,118.318 62.316,120.043 C64.568,121.323 66.423,121.749 69,122 C70.732,122.186 70.732,122.186 72.5,122.375 C79.64,122.28 87.668,119.031 93.438,114.875 C100.099,107.401 103.093,100.364 102.66,90.254 C101.626,85.156 99.096,82.097 95,79 C86.586,73.644 72.941,77.414 63.754,79.196 C57.643,80.282 57.643,80.282 54.477,78.895 C50.845,74.235 52.002,68.145 52.312,62.562 C52.361,61.653 52.41,60.744 52.459,59.807 C52.626,56.87 52.809,53.935 53,51 C53.066,49.982 53.132,48.965 53.2,47.917 C53.405,44.901 53.635,41.888 53.875,38.875 C53.941,37.933 54.007,36.992 54.075,36.022 C54.151,35.146 54.227,34.27 54.305,33.367 C54.366,32.595 54.428,31.823 54.492,31.027 C55.654,26.392 58.467,25.625 62.899,25.628 Z"/>
  <path fill="#6A4F42" d="M62.899,25.628 C63.893,25.621 64.887,25.615 65.912,25.609 C66.984,25.618 68.056,25.627 69.16,25.637 C70.261,25.636 71.362,25.636 72.496,25.635 C74.824,25.638 77.151,25.647 79.479,25.664 C83.052,25.687 86.624,25.684 90.197,25.678 C92.456,25.683 94.714,25.69 96.973,25.699 C98.584,25.698 98.584,25.698 100.227,25.696 C101.714,25.711 101.714,25.711 103.231,25.725 C104.105,25.73 104.98,25.735 105.881,25.739 C108,26 108,26 110,28 C110.25,31 110.25,31 110,34 C108,36 108,36 106.165,36.241 C105.423,36.236 104.682,36.232 103.917,36.227 C102.656,36.227 102.656,36.227 101.37,36.227 C100.461,36.216 99.553,36.206 98.617,36.195 C97.223,36.191 97.223,36.191 95.801,36.187 C92.825,36.176 89.85,36.15 86.875,36.125 C84.861,36.115 82.846,36.106 80.832,36.098 C75.888,36.077 70.944,36.038 66,36 C65.01,46.56 64.02,57.12 63,68 C63.99,68.33 64.98,68.66 66,69 C64.35,68.67 62.7,68.34 61,68 C61.072,67.103 61.144,66.206 61.219,65.281 C61.921,55.834 62.112,46.471 62,37 C60.68,37.33 59.36,37.66 58,38 C53.983,57.548 53.983,57.548 56,77 C57.98,76.86 59.959,76.713 61.938,76.562 C63.04,76.481 64.142,76.4 65.277,76.316 C67.911,76.296 67.911,76.296 69,75 C72.336,74.532 75.701,74.389 79.062,74.188 C79.993,74.111 80.923,74.034 81.881,73.955 C89.841,73.491 94.347,75.618 100.875,79.875 C104.751,83.751 105.354,88.742 105.562,94.062 C105.419,101.902 102.67,107.778 98,114 C95.228,116.629 92.429,118.345 89,120 C88.228,120.409 87.456,120.817 86.66,121.238 C79.617,124.56 71.423,125.646 63.863,123.352 C62.224,122.607 60.611,121.805 59,121 C56.678,120.595 54.345,120.239 52,120 C52,121.98 52,123.96 52,126 C52.743,126.289 53.485,126.577 54.25,126.875 C57,128 57,128 58.901,129.058 C61.239,130.107 62.78,130.232 65.328,130.195 C66.127,130.189 66.927,130.182 67.75,130.176 C68.575,130.159 69.4,130.142 70.25,130.125 C71.09,130.116 71.931,130.107 72.797,130.098 C74.865,130.074 76.932,130.038 79,130 C79.33,129.34 79.66,128.68 80,128 C80.495,128.495 80.495,128.495 81,129 C86.652,128.529 91.683,126.917 97,125 C92.004,130.604 84.719,132.88 77.406,133.531 C67.398,134.02 59.31,133.098 51,127 C49.619,124.238 49.809,122.053 50,119 C52,117 52,117 54.188,116.625 C57.524,117.07 59.481,118.318 62.316,120.043 C64.568,121.323 66.423,121.749 69,122 C70.732,122.186 70.732,122.186 72.5,122.375 C79.64,122.28 87.668,119.031 93.438,114.875 C100.099,107.401 103.093,100.364 102.66,90.254 C101.626,85.156 99.096,82.097 95,79 C86.586,73.644 72.941,77.414 63.754,79.196 C57.643,80.282 57.643,80.282 54.477,78.895 C50.845,74.235 52.002,68.145 52.312,62.562 C52.361,61.653 52.41,60.744 52.459,59.807 C52.626,56.87 52.809,53.935 53,51 C53.066,49.982 53.132,48.965 53.2,47.917 C53.405,44.901 53.635,41.888 53.875,38.875 C53.941,37.933 54.007,36.992 54.075,36.022 C54.151,35.146 54.227,34.27 54.305,33.367 C54.366,32.595 54.428,31.823 54.492,31.027 C55.654,26.392 58.467,25.625 62.899,25.628 Z"/>
  <path fill="#4D3027" d="M54,47 C54.33,47 54.66,47 55,47 C54.992,48.203 54.992,48.203 54.984,49.431 C54.963,53.058 54.95,56.685 54.938,60.312 C54.929,61.575 54.921,62.838 54.912,64.139 C54.909,65.347 54.906,66.556 54.902,67.801 C54.897,68.916 54.892,70.032 54.886,71.181 C54.873,74.081 54.873,74.081 56,77 C57.98,76.86 59.959,76.713 61.938,76.562 C63.04,76.481 64.142,76.4 65.277,76.316 C67.911,76.296 67.911,76.296 69,75 C72.336,74.532 75.701,74.389 79.062,74.188 C79.993,74.111 80.923,74.034 81.881,73.955 C89.841,73.491 94.347,75.618 100.875,79.875 C104.751,83.751 105.354,88.742 105.562,94.062 C105.419,101.902 102.67,107.778 98,114 C95.228,116.629 92.429,118.345 89,120 C88.228,120.409 87.456,120.817 86.66,121.238 C79.617,124.56 71.423,125.646 63.863,123.352 C62.224,122.607 60.611,121.805 59,121 C56.678,120.595 54.345,120.239 52,120 C52,121.98 52,123.96 52,126 C52.743,126.289 53.485,126.577 54.25,126.875 C57,128 57,128 58.901,129.058 C61.239,130.107 62.78,130.232 65.328,130.195 C66.127,130.189 66.927,130.182 67.75,130.176 C68.575,130.159 69.4,130.142 70.25,130.125 C71.09,130.116 71.931,130.107 72.797,130.098 C74.865,130.074 76.932,130.038 79,130 C79.33,129.34 79.66,128.68 80,128 C80.495,128.495 80.495,128.495 81,129 C86.652,128.529 91.683,126.917 97,125 C92.004,130.604 84.719,132.88 77.406,133.531 C67.398,134.02 59.31,133.098 51,127 C49.619,124.238 49.809,122.053 50,119 C52,117 52,117 54.188,116.625 C57.524,117.07 59.481,118.318 62.316,120.043 C64.568,121.323 66.423,121.749 69,122 C70.732,122.186 70.732,122.186 72.5,122.375 C79.64,122.28 87.668,119.031 93.438,114.875 C100.099,107.401 103.093,100.364 102.66,90.254 C101.626,85.156 99.096,82.097 95,79 C86.586,73.644 72.941,77.414 63.754,79.196 C57.643,80.282 57.643,80.282 54.477,78.895 C51.747,75.392 51.875,71.349 52.086,67.059 C52.13,66.145 52.174,65.232 52.219,64.291 C52.27,63.349 52.322,62.408 52.375,61.438 C52.419,60.492 52.463,59.546 52.508,58.572 C52.711,54.579 52.913,50.863 54,47 Z"/>
  <path fill="#593E31" d="M96,112 C96.66,112.66 97.32,113.32 98,114 C87.742,121.433 78.923,125.457 66,124 C63.463,123.23 61.392,122.196 59,121 C56.678,120.595 54.345,120.239 52,120 C52,121.98 52,123.96 52,126 C52.743,126.289 53.485,126.577 54.25,126.875 C57,128 57,128 58.901,129.058 C61.239,130.107 62.78,130.232 65.328,130.195 C66.127,130.189 66.927,130.182 67.75,130.176 C68.575,130.159 69.4,130.142 70.25,130.125 C71.511,130.111 71.511,130.111 72.797,130.098 C74.865,130.074 76.932,130.038 79,130 C79.33,129.34 79.66,128.68 80,128 C80.33,128.33 80.66,128.66 81,129 C86.652,128.529 91.683,126.917 97,125 C92.004,130.604 84.719,132.88 77.406,133.531 C67.398,134.02 59.31,133.098 51,127 C49.619,124.238 49.809,122.053 50,119 C52,117 52,117 54.188,116.625 C57.524,117.07 59.481,118.318 62.316,120.043 C64.568,121.323 66.423,121.749 69,122 C70.155,122.124 71.31,122.247 72.5,122.375 C81.132,122.26 89.97,118.03 96,112 Z"/>
  <path fill="#75564B" d="M97,71 C97.33,71.99 97.66,72.98 98,74 C100.262,75.073 100.262,75.073 103,76 C106.25,77.25 106.25,77.25 109,79 C109.875,82.188 109.875,82.188 110,85 C109.34,85 108.68,85 108,85 C107.67,85.66 107.34,86.32 107,87 C106.34,86.67 105.68,86.34 105,86 C104.67,86.66 104.34,87.32 104,88 C103.876,86.577 103.876,86.577 103.75,85.125 C103.503,84.094 103.255,83.062 103,82 C101.218,80.858 101.218,80.858 99,80 C97.295,78.373 95.621,76.711 94,75 C94.66,74.67 95.32,74.34 96,74 C96.33,73.01 96.66,72.02 97,71 Z"/>
  <path fill="#553224" d="M95,77 C102.375,80.424 102.375,80.424 104.082,84.727 C105.98,91.494 106.334,98.009 103.434,104.512 C101.724,107.43 99.95,110.238 98,113 C97.505,111.515 97.505,111.515 97,110 C97.996,108.23 97.996,108.23 99.438,106.188 C102.981,100.078 103.325,93.876 102,87 C100.408,84.372 98.794,82.518 96.531,80.453 C96.026,79.974 95.521,79.494 95,79 C95,78.34 95,77.68 95,77 Z"/>
  <path fill="#624A3F" d="M95,125 C95.66,125.33 96.32,125.66 97,126 C95.064,126.982 93.126,127.96 91.188,128.938 C89.569,129.755 89.569,129.755 87.918,130.59 C84.255,132.36 81.572,133.125 77.551,133.098 C76.703,133.094 75.856,133.091 74.982,133.088 C74.101,133.08 73.22,133.071 72.312,133.062 C71.42,133.058 70.527,133.053 69.607,133.049 C67.405,133.037 65.202,133.021 63,133 C63,132.34 63,131.68 63,131 C64.143,130.951 65.287,130.902 66.465,130.852 C67.956,130.777 69.447,130.701 70.938,130.625 C71.692,130.594 72.447,130.563 73.225,130.531 C75.155,130.427 77.079,130.221 79,130 C79.33,129.34 79.66,128.68 80,128 C80.33,128.33 80.66,128.66 81,129 C84.928,128.686 88.247,128.004 91.812,126.375 C92.864,125.921 93.916,125.467 95,125 Z"/>
  <path fill="#5B463C" d="M95,66 C101.262,68.699 104.942,71.528 109,77 C108.67,77.66 108.34,78.32 108,79 C105.525,78.01 105.525,78.01 103,77 C103,76.34 103,75.68 103,75 C102.021,73.979 101.02,72.979 100,72 C99.67,71.34 99.34,70.68 99,70 C96.983,68.866 96.983,68.866 95,68 C95,67.34 95,66.68 95,66 Z"/>
  <path fill="#5E4636" d="M55,30 C55.66,30 56.32,30 57,30 C57.108,37.097 56.939,43.961 56,51 C53.18,46.996 53.991,42.877 54.375,38.25 C54.432,37.457 54.488,36.664 54.547,35.848 C54.688,33.898 54.843,31.949 55,30 Z"/>
  <path fill="#654D41" d="M111,105 C112,108 112,108 110.672,110.883 C110.038,111.953 109.403,113.023 108.75,114.125 C108.126,115.2 107.502,116.275 106.859,117.383 C105,120 105,120 102,121 C102.309,120.443 102.619,119.886 102.938,119.312 C104.058,116.875 104.56,114.638 105,112 C106.32,111.67 107.64,111.34 109,111 C109,109.35 109,107.7 109,106 C109.66,105.67 110.32,105.34 111,105 Z"/>
  <path fill="#583D35" d="M95,77 C99.684,79.175 102.42,80.523 104.375,85.5 C105,89 105,89 103,92 C102.794,91.154 102.588,90.309 102.375,89.438 C100.864,85.661 98.995,83.44 96.242,80.516 C95,79 95,79 95,77 Z"/>
</svg>
