<svg xmlns="http://www.w3.org/2000/svg" version="1.1" width="157" height="166">
  <defs/>
  <path fill="#694A3F" d="M107.188,20.75 C108.187,20.741 109.187,20.732 110.218,20.722 C111.109,20.726 112,20.73 112.918,20.734 C113.668,20.737 114.419,20.739 115.192,20.741 C117,21 117,21 119,23 C119.434,25.766 119.434,25.766 119,29 C117.407,31.179 115.957,32.88 114.062,34.75 C113.044,35.805 112.026,36.861 111.008,37.918 C110.498,38.438 109.988,38.958 109.462,39.494 C107.391,41.628 105.414,43.841 103.438,46.062 C100.227,49.642 96.993,53.2 93.75,56.75 C90.401,60.428 87.132,64.137 84,68 C84.949,68.247 85.897,68.495 86.875,68.75 C97.421,71.854 106.804,75.893 112.562,85.875 C115.256,92.229 114.751,98.565 112.562,105 C108.754,113.486 102.321,120.362 93.742,124.039 C83.839,127.51 74.619,128.286 64.188,128.375 C63.126,128.389 62.064,128.403 60.97,128.417 C53.471,128.372 46.684,127.605 40.438,123.188 C38.505,120.246 38.486,118.452 39,115 C40.062,113.062 40.062,113.062 42,112 C45.562,112.125 45.562,112.125 49,113 C49.66,113.99 50.32,114.98 51,116 C55.396,116.686 59.87,116.463 64.312,116.438 C65.53,116.457 66.748,116.477 68.002,116.498 C77.362,116.493 87.777,115.523 95.562,109.75 C99.305,105.528 102.059,100.626 103,95 C100.668,88.91 97.283,85.122 91.438,82.25 C85.485,80.085 79.961,79.711 73.668,79.482 C68.215,79.215 68.215,79.215 66,77 C65.435,73.978 65.369,71.947 67.114,69.329 C68.698,67.518 70.352,65.817 72.062,64.125 C73.27,62.881 74.477,61.636 75.684,60.391 C76.264,59.801 76.843,59.211 77.441,58.604 C79.241,56.752 80.947,54.837 82.625,52.875 C86.05,48.9 89.609,45.052 93.182,41.21 C95.621,38.572 97.871,35.892 100,33 C91.12,32.929 82.261,32.98 73.387,33.324 C72.59,33.353 71.792,33.383 70.971,33.413 C67.706,33.533 64.441,33.654 61.176,33.799 C58.747,33.905 56.317,33.991 53.887,34.074 C53.151,34.112 52.416,34.149 51.658,34.187 C48.373,34.284 46.357,34.216 43.507,32.495 C43.01,32.002 42.512,31.508 42,31 C42.25,28.125 42.25,28.125 43,25 C45.708,23.226 47.989,22.728 51.188,22.589 C52.009,22.549 52.83,22.51 53.675,22.469 C54.56,22.435 55.444,22.402 56.355,22.367 C57.746,22.305 57.746,22.305 59.164,22.241 C62.171,22.109 65.179,21.991 68.188,21.875 C70.241,21.791 72.294,21.706 74.347,21.622 C85.291,21.186 96.234,20.805 107.188,20.75 Z"/>
  <path fill="#73554A" d="M100,76 C105.449,79.419 109.8,82.767 112,89 C112.403,93.371 112.269,97.625 112,102 C112,102.99 112,103.98 112,105 C109.205,112.984 103.497,119.172 96,123 C93.42,123.704 90.999,124.254 88.375,124.688 C87.617,124.813 86.86,124.939 86.079,125.069 C78.652,126.15 71.246,126.291 63.75,126.312 C62.584,126.318 61.418,126.323 60.216,126.329 C53.702,126.274 48.494,125.839 42.625,122.75 C41,121 41,121 40.688,117.875 C41,115 41,115 42,114 C44.938,113.75 44.938,113.75 48,114 C48.66,114.99 49.32,115.98 50,117 C52.084,117.541 52.084,117.541 54.516,117.582 C55.431,117.628 56.345,117.675 57.288,117.722 C58.266,117.752 59.243,117.782 60.25,117.812 C61.245,117.847 62.241,117.882 63.267,117.918 C75.321,118.229 88.045,117.956 97.617,109.586 C101.058,105.778 103.728,101.2 104.168,96.023 C103.898,90.85 101.861,88.071 98.277,84.445 C97,83 97,83 97,81 C97.66,80.67 98.32,80.34 99,80 C99.652,77.975 99.652,77.975 100,76 Z"/>
  <path fill="#715346" d="M95,21 C95,21.66 95,22.32 95,23 C95.99,22.67 96.98,22.34 98,22 C100.866,21.878 103.697,21.815 106.562,21.812 C107.343,21.8 108.124,21.788 108.928,21.775 C110.953,21.77 112.978,21.878 115,22 C117,24 117,24 117.375,26.375 C117,29 117,29 115.438,31.312 C112.179,33.568 109.884,33.216 106,33 C105.34,33.33 104.68,33.66 104,34 C104,33.01 104,32.02 104,31 C103.049,31.038 103.049,31.038 102.08,31.076 C95.461,31.337 88.842,31.597 82.223,31.854 C79.755,31.951 77.288,32.048 74.82,32.146 C71.266,32.286 67.711,32.424 64.156,32.562 C63.06,32.606 61.964,32.65 60.835,32.695 C57.89,32.808 54.945,32.908 52,33 C51.187,33.032 50.375,33.064 49.538,33.097 C47.692,33.144 45.844,33.083 44,33 C43.34,32.34 42.68,31.68 42,31 C42.125,28 42.125,28 43,25 C45.824,23.147 48.202,22.722 51.537,22.589 C52.874,22.53 52.874,22.53 54.237,22.468 C55.191,22.435 56.146,22.402 57.129,22.367 C58.608,22.305 58.608,22.305 60.117,22.241 C63.265,22.111 66.414,21.993 69.562,21.875 C71.687,21.789 73.811,21.701 75.936,21.613 C90.949,21 90.949,21 95,21 Z"/>
  <path fill="#53382D" d="M89,45 C89.495,46.485 89.495,46.485 90,48 C88.948,49.023 88.948,49.023 87.875,50.066 C84.737,53.206 81.87,56.554 79,59.938 C78.238,60.83 78.238,60.83 77.461,61.74 C76.456,62.919 75.456,64.102 74.461,65.289 C73.49,66.426 72.495,67.543 71.477,68.637 C69.879,70.339 69.879,70.339 68,73 C68.034,75.322 68.034,75.322 69,77 C70.123,77.037 71.246,77.075 72.402,77.113 C92.681,77.935 92.681,77.935 100.555,85.406 C103.959,89.16 105.278,92.352 105.062,97.375 C104.06,103.655 100.684,107.803 95.848,111.762 C85.137,119.323 73.162,119.313 60.5,118.75 C59.019,118.709 59.019,118.709 57.508,118.668 C56.567,118.628 55.626,118.588 54.656,118.547 C53.385,118.498 53.385,118.498 52.088,118.448 C50,118 50,118 48,115 C44.916,114.75 44.916,114.75 42,115 C41.666,117.874 41.666,117.874 42,121 C45.274,124.517 49.158,124.904 53.792,125.145 C57.133,125.17 60.472,125.189 63.812,125.188 C65.017,125.188 66.221,125.189 67.462,125.189 C76.456,125.136 85.135,124.521 94,123 C85.46,128.694 74.095,128.31 64.188,128.375 C63.126,128.389 62.065,128.402 60.972,128.417 C53.473,128.373 46.684,127.606 40.438,123.188 C38.505,120.246 38.486,118.452 39,115 C40.062,113.062 40.062,113.062 42,112 C45.562,112.125 45.562,112.125 49,113 C49.66,113.99 50.32,114.98 51,116 C55.396,116.686 59.87,116.463 64.312,116.438 C65.53,116.457 66.748,116.477 68.002,116.498 C77.362,116.493 87.777,115.523 95.562,109.75 C99.305,105.528 102.059,100.626 103,95 C100.668,88.91 97.283,85.122 91.438,82.25 C85.485,80.085 79.961,79.711 73.668,79.482 C68.215,79.215 68.215,79.215 66,77 C65.435,73.978 65.369,71.947 67.114,69.329 C68.698,67.518 70.352,65.817 72.062,64.125 C73.26,62.891 74.456,61.657 75.652,60.422 C76.231,59.833 76.81,59.245 77.406,58.639 C79.381,56.609 81.266,54.511 83.125,52.375 C83.623,51.805 84.12,51.235 84.633,50.648 C86.156,48.812 87.584,46.919 89,45 Z"/>
  <path fill="#735448" d="M85,52 C88,52 88,52 89.688,53.5 C90.121,53.995 90.554,54.49 91,55 C89.633,58.987 87.848,61.885 85,65 C84.34,65 83.68,65 83,65 C81.667,68 81.667,68 83,71 C82.062,74.188 82.062,74.188 81,77 C82.98,77 84.96,77 87,77 C87.33,77.66 87.66,78.32 88,79 C84.874,78.89 81.75,78.76 78.625,78.625 C77.736,78.594 76.846,78.563 75.93,78.531 C75.079,78.493 74.228,78.454 73.352,78.414 C72.566,78.383 71.781,78.351 70.971,78.319 C69,78 69,78 67,76 C66.921,73.24 67.487,71.583 69.316,69.504 C70.496,68.363 71.686,67.232 72.883,66.109 C76.272,62.733 79.186,58.983 82.18,55.258 C84,53 84,53 85,52 Z"/>
  <path fill="#745548" d="M105.176,77.25 C109.499,81.397 113.717,86.118 114.168,92.305 C114.233,100.814 114.233,100.814 112,105 C111.01,104.505 111.01,104.505 110,104 C110.33,103.34 110.66,102.68 111,102 C111.719,94.749 111.893,88.601 107.445,82.59 C105.485,80.434 103.401,78.646 101,77 C100.34,78.32 99.68,79.64 99,81 C98.34,81 97.68,81 97,81 C96.67,81.66 96.34,82.32 96,83 C95.504,82.734 95.007,82.469 94.496,82.195 C90.05,79.884 85.861,78.215 81,77 C81.33,75.68 81.66,74.36 82,73 C81.01,72.67 80.02,72.34 79,72 C89.145,69 96.921,70.552 105.176,77.25 Z"/>
  <path fill="#52372E" d="M95,21 C98.625,20.942 102.25,20.906 105.875,20.875 C106.908,20.858 107.94,20.841 109.004,20.824 C109.99,20.818 110.976,20.811 111.992,20.805 C113.359,20.789 113.359,20.789 114.753,20.773 C117,21 117,21 119,23 C119.457,25.738 119.457,25.738 119,29 C117.284,31.316 115.705,33.18 113.688,35.188 C113.188,35.708 112.688,36.228 112.174,36.764 C110.798,38.191 109.4,39.596 108,41 C107.082,41.922 107.082,41.922 106.145,42.863 C105.767,43.238 105.389,43.614 105,44 C105.597,38.597 110.221,35.411 113.848,31.754 C116.211,29.208 116.211,29.208 116.371,26.215 C116.226,24.032 116.226,24.032 115,23 C113.511,22.913 112.019,22.893 110.527,22.902 C109.179,22.907 109.179,22.907 107.803,22.912 C106.384,22.925 106.384,22.925 104.938,22.938 C103.988,22.942 103.039,22.947 102.061,22.951 C99.707,22.963 97.354,22.979 95,23 C95,22.34 95,21.68 95,21 Z"/>
  <path fill="#573C33" d="M94,72 C99.426,72.339 103.12,75.469 107,79 C112.33,85.088 114.227,89.446 114.168,97.547 C113.976,100.346 113.321,102.524 112,105 C111.34,104.67 110.68,104.34 110,104 C110.33,103.34 110.66,102.68 111,102 C111.713,94.81 111.936,88.595 107.488,82.645 C103.564,78.308 99.362,75.426 94,73 C94,72.67 94,72.34 94,72 Z"/>
  <path fill="#573A30" d="M98,48 C98.99,48.33 99.98,48.66 101,49 C100.192,49.869 99.384,50.738 98.551,51.633 C97.471,52.797 96.392,53.961 95.312,55.125 C94.782,55.695 94.252,56.265 93.705,56.852 C90.348,60.476 87.131,64.178 84,68 C86.475,68.99 86.475,68.99 89,70 C89,70.33 89,70.66 89,71 C87.02,71 85.04,71 83,71 C82.34,69.35 81.68,67.7 81,66 C81.928,65.876 81.928,65.876 82.875,65.75 C85.133,65.234 85.133,65.234 85.816,63.305 C87.426,60.171 89.659,57.941 92.062,55.375 C95.415,51.958 95.415,51.958 98,48 Z"/>
  <path fill="#644B3E" d="M109,107 C109.66,107.33 110.32,107.66 111,108 C107.451,113.072 104.027,117.344 99,121 C98.34,121 97.68,121 97,121 C97,120.34 97,119.68 97,119 C97.949,118.381 98.897,117.762 99.875,117.125 C103.002,114.998 103.57,114.269 105,111 C106.295,109.629 107.622,108.287 109,107 Z"/>
  <path fill="#533D35" d="M47,23 C47.33,23.66 47.66,24.32 48,25 C47.34,25 46.68,25 46,25 C46,27.64 46,30.28 46,33 C44.68,32.34 43.36,31.68 42,31 C42.25,28.125 42.25,28.125 43,25 C45.062,23.625 45.062,23.625 47,23 Z"/>
  <path fill="#60493A" d="M95,21 C102.26,21 109.52,21 117,21 C117.33,21.99 117.66,22.98 118,24 C117.01,23.67 116.02,23.34 115,23 C113.446,22.919 111.888,22.892 110.332,22.902 C109.439,22.906 108.547,22.909 107.627,22.912 C106.698,22.92 105.769,22.929 104.812,22.938 C103.402,22.944 103.402,22.944 101.963,22.951 C99.642,22.963 97.321,22.979 95,23 C95,22.34 95,21.68 95,21 Z"/>
</svg>
