<svg xmlns="http://www.w3.org/2000/svg" version="1.1" width="162" height="181">
  <defs/>
  <path fill="#725548" d="M57.352,26.709 C58.663,26.697 59.974,26.684 61.326,26.671 C62.759,26.668 64.192,26.666 65.625,26.664 C67.093,26.658 68.562,26.651 70.03,26.644 C73.106,26.632 76.183,26.628 79.26,26.629 C83.204,26.63 87.148,26.602 91.093,26.568 C94.125,26.546 97.156,26.542 100.188,26.543 C101.643,26.54 103.097,26.531 104.552,26.516 C106.584,26.496 108.616,26.505 110.648,26.514 C112.384,26.51 112.384,26.51 114.154,26.506 C117,27 117,27 118.902,28.885 C120,31 120,31 119.914,33.328 C118.763,36.693 117.118,39.668 115.375,42.75 C110.813,51.104 106.847,59.704 102.938,68.375 C102.467,69.418 102.467,69.418 101.987,70.483 C100.68,73.381 99.375,76.279 98.071,79.179 C94.549,87.014 90.99,94.832 87.421,102.646 C86.401,104.88 85.384,107.116 84.367,109.351 C74.917,130.083 74.917,130.083 73,132 C70.125,132.375 70.125,132.375 67,132 C65.105,130 65.105,130 64,127 C64.861,123.936 65.832,121.473 67.188,118.625 C67.587,117.741 67.986,116.856 68.397,115.945 C69.617,113.261 70.858,110.587 72.107,107.916 C73.806,104.271 75.48,100.615 77.16,96.961 C79.467,91.948 81.778,86.936 84.1,81.93 C89.012,71.338 93.863,60.722 98.625,50.062 C99.045,49.123 99.045,49.123 99.473,48.164 C100.985,44.778 102.493,41.389 104,38 C103.372,38.007 102.744,38.013 102.097,38.02 C95.56,38.087 89.023,38.132 82.485,38.165 C80.046,38.18 77.606,38.2 75.167,38.226 C71.659,38.263 68.152,38.28 64.645,38.293 C63.555,38.308 62.465,38.324 61.342,38.34 C51.602,38.342 51.602,38.342 48,35 C47.5,31.938 47.5,31.938 48,29 C51.56,26.627 53.125,26.737 57.352,26.709 Z"/>
  <path fill="#73564B" d="M86,83 C88,84 88,84 89.25,86.562 C90.77,93.53 87.23,100.29 84.375,106.562 C84.029,107.333 83.683,108.104 83.326,108.898 C79.887,116.447 76.022,123.748 72,131 C70.35,130.67 68.7,130.34 67,130 C65.838,127.134 66.005,125.984 66.996,122.984 C67.472,121.917 67.947,120.85 68.438,119.75 C68.911,118.672 69.384,117.595 69.871,116.484 C70.244,115.665 70.616,114.845 71,114 C71.66,114 72.32,114 73,114 C73.33,112.35 73.66,110.7 74,109 C73.34,108.67 72.68,108.34 72,108 C72.99,107.67 73.98,107.34 75,107 C75.768,105.097 76.523,103.187 77.188,101.246 C78.48,97.673 80.257,94.37 82,91 C82.752,89.501 83.502,88.001 84.25,86.5 C84.827,85.345 85.405,84.19 86,83 Z"/>
  <path fill="#6B4E41" d="M105,59 C105.66,59.33 106.32,59.66 107,60 C106.512,61.056 106.025,62.111 105.522,63.199 C103.659,67.233 101.797,71.266 99.934,75.3 C99.105,77.096 98.275,78.893 97.446,80.689 C92.056,92.361 86.673,104.037 81.35,115.74 C74.712,130.288 74.712,130.288 73,132 C70.125,132.375 70.125,132.375 67,132 C65.109,130.023 65.109,130.023 64,127 C64.584,123.881 65.823,121.131 67.125,118.25 C67.447,117.47 67.77,116.69 68.102,115.887 C69.92,111.672 69.92,111.672 71,110 C72.485,109.505 72.485,109.505 74,109 C73.505,111.475 73.505,111.475 73,114 C72.34,114 71.68,114 71,114 C70.897,114.681 70.794,115.361 70.688,116.062 C70,119 70,119 68.375,122.562 C66.769,125.768 66.769,125.768 67.312,128.438 C67.539,128.953 67.766,129.469 68,130 C69.32,130 70.64,130 72,130 C73.731,126.397 75.459,122.792 77.188,119.188 C77.67,118.183 78.153,117.178 78.65,116.143 C81.065,111.102 83.46,106.054 85.805,100.98 C86.205,100.114 86.606,99.248 87.019,98.356 C88.835,93.995 89.504,90.579 88.062,86.062 C87.712,85.382 87.361,84.701 87,84 C84.681,86.852 83.273,89.496 82,92.938 C80.613,96.548 79.062,99.719 77,103 C76.302,104.654 75.625,106.317 75,108 C74.34,108 73.68,108 73,108 C75.308,100.508 78.372,93.534 81.688,86.438 C82.199,85.333 82.71,84.229 83.236,83.092 C84.487,80.393 85.741,77.695 87,75 C89.31,75.33 91.62,75.66 94,76 C94.33,75.34 94.66,74.68 95,74 C94.67,75.98 94.34,77.96 94,80 C94.66,80 95.32,80 96,80 C96.255,79.172 96.51,78.345 96.773,77.492 C98.153,73.566 99.836,69.877 101.625,66.125 C101.95,65.437 102.275,64.748 102.609,64.039 C103.403,62.358 104.201,60.679 105,59 Z"/>
  <path fill="#5B4235" d="M55.38,26.773 C56.26,26.773 57.141,26.773 58.048,26.773 C58.995,26.784 59.942,26.794 60.918,26.805 C61.89,26.808 62.863,26.81 63.865,26.813 C66.972,26.824 70.08,26.85 73.188,26.875 C75.294,26.885 77.4,26.894 79.506,26.902 C84.671,26.924 89.835,26.959 95,27 C95,27.66 95,28.32 95,29 C80.15,29 65.3,29 50,29 C50.33,30.98 50.66,32.96 51,35 C68.82,35.33 86.64,35.66 105,36 C106.248,40.99 104.765,43.563 102.688,48 C102.366,48.712 102.044,49.423 101.713,50.156 C100.453,52.929 99.194,55.653 97.707,58.312 C96.7,60.197 96.7,60.197 98,63 C98.348,64.664 98.684,66.33 99,68 C93.25,71 93.25,71 91,71 C91,71.66 91,72.32 91,73 C90.34,73 89.68,73 89,73 C90.407,68.542 92.116,64.331 94.039,60.07 C94.325,59.435 94.611,58.8 94.905,58.145 C95.809,56.137 96.717,54.131 97.625,52.125 C98.242,50.755 98.86,49.386 99.477,48.016 C100.981,44.676 102.49,41.337 104,38 C103.372,38.007 102.744,38.013 102.097,38.02 C95.56,38.087 89.023,38.132 82.485,38.165 C80.046,38.18 77.606,38.2 75.167,38.226 C71.659,38.263 68.152,38.28 64.645,38.293 C63.555,38.308 62.465,38.324 61.342,38.34 C51.602,38.342 51.602,38.342 48,35 C47.5,31.938 47.5,31.938 48,29 C51.135,26.91 51.818,26.753 55.38,26.773 Z"/>
  <path fill="#5D4338" d="M90,92 C91.349,96.046 90.201,97.326 88.395,101.137 C88.114,101.735 87.834,102.333 87.545,102.95 C86.643,104.867 85.728,106.777 84.812,108.688 C84.215,109.955 83.618,111.222 83.021,112.49 C74.56,130.44 74.56,130.44 73,132 C70.125,132.375 70.125,132.375 67,132 C65.109,130.023 65.109,130.023 64,127 C64.584,123.881 65.823,121.131 67.125,118.25 C67.608,117.08 67.608,117.08 68.102,115.887 C69.92,111.672 69.92,111.672 71,110 C71.99,109.67 72.98,109.34 74,109 C73.67,110.65 73.34,112.3 73,114 C72.34,114 71.68,114 71,114 C70.897,114.681 70.794,115.361 70.688,116.062 C70,119 70,119 68.375,122.562 C66.769,125.768 66.769,125.768 67.312,128.438 C67.539,128.953 67.766,129.469 68,130 C69.32,130 70.64,130 72,130 C78.063,117.362 84.112,104.72 90,92 Z"/>
  <path fill="#563B31" d="M87,75 C87.66,75 88.32,75 89,75 C85.991,84.695 82.331,94.335 77,103 C76.302,104.654 75.625,106.317 75,108 C74.34,108 73.68,108 73,108 C75.308,100.508 78.372,93.534 81.688,86.438 C82.199,85.333 82.71,84.229 83.236,83.092 C84.487,80.393 85.741,77.695 87,75 Z"/>
  <path fill="#50362F" d="M72,109 C72.66,109 73.32,109 74,109 C73.67,110.65 73.34,112.3 73,114 C72.34,114 71.68,114 71,114 C70.897,114.681 70.794,115.361 70.688,116.062 C70,119 70,119 68.375,122.562 C66.769,125.768 66.769,125.768 67.312,128.438 C67.539,128.953 67.766,129.469 68,130 C69.32,130 70.64,130 72,130 C72.66,129.01 73.32,128.02 74,127 C74.66,127.33 75.32,127.66 76,128 C74.875,130 74.875,130 73,132 C70,132.562 70,132.562 67,132 C65.109,130.012 65.109,130.012 64,127 C64.634,123.883 65.916,121.126 67.25,118.25 C67.589,117.47 67.928,116.69 68.277,115.887 C70.763,110.237 70.763,110.237 72,109 Z"/>
  <path fill="#664A3A" d="M95,58 C95.33,58 95.66,58 96,58 C96.124,58.763 96.247,59.526 96.375,60.312 C96.881,63.203 96.881,63.203 99,66 C97.609,68.782 95.698,69.552 93,71 C92.34,71 91.68,71 91,71 C91,71.66 91,72.32 91,73 C90.34,73 89.68,73 89,73 C90.599,67.804 92.741,62.934 95,58 Z"/>
  <path fill="#725C54" d="M106,28 C109.3,28 112.6,28 116,28 C115.67,28.66 115.34,29.32 115,30 C114.257,29.979 113.515,29.959 112.75,29.938 C110.295,29.993 108.339,30.307 106,31 C106,30.01 106,29.02 106,28 Z"/>
  <path fill="#625047" d="M66,126 C66.99,126.33 67.98,126.66 69,127 C69,127.66 69,128.32 69,129 C69.99,129 70.98,129 72,129 C72,128.34 72,127.68 72,127 C72.66,127.33 73.32,127.66 74,128 C73.01,129.485 73.01,129.485 72,131 C70.35,130.67 68.7,130.34 67,130 C66.67,128.68 66.34,127.36 66,126 Z"/>
</svg>
