<svg xmlns="http://www.w3.org/2000/svg" version="1.1" width="220" height="217">
  <defs/>
  <path fill="#775447" d="M155,49 C157.313,52.47 157.34,53.925 157,58 C156.34,58.99 155.68,59.98 155,61 C154.34,61 153.68,61 153,61 C153,61.66 153,62.32 153,63 C152.065,63.461 151.131,63.923 150.168,64.398 C137.725,70.568 125.442,77.025 113.191,83.566 C112.423,83.976 111.655,84.385 110.863,84.807 C109.413,85.58 107.965,86.355 106.518,87.133 C101.793,89.652 97.239,91.836 92,93 C94.639,96.097 97.751,97.541 101.375,99.312 C102.291,99.762 102.291,99.762 103.225,100.221 C109.434,103.252 115.707,106.146 122,109 C122,109.66 122,110.32 122,111 C123.023,111.143 123.023,111.143 124.066,111.289 C127.638,112.155 130.7,113.688 133.938,115.375 C134.532,115.679 135.127,115.983 135.74,116.297 C137.495,117.195 139.248,118.097 141,119 C143.87,120.444 146.744,121.875 149.633,123.281 C150.455,123.683 151.278,124.086 152.125,124.5 C152.953,124.902 153.78,125.304 154.633,125.719 C160.669,128.986 160.669,128.986 161.645,131.973 C162.111,137.778 162.111,137.778 161,140 C160.34,140 159.68,140 159,140 C159,140.66 159,141.32 159,142 C154.068,143.24 151.681,142.806 147.25,140.375 C146.206,139.817 145.162,139.259 144.086,138.684 C143.068,138.128 142.049,137.572 141,137 C139.296,136.138 137.588,135.283 135.875,134.438 C132.583,132.792 129.292,131.146 126,129.5 C125.169,129.085 124.337,128.67 123.48,128.242 C121.877,127.439 120.275,126.632 118.676,125.82 C111.199,122.038 103.604,118.518 96,115 C96,114.34 96,113.68 96,113 C95.004,112.863 95.004,112.863 93.988,112.723 C90.117,111.786 86.763,110.165 83.188,108.438 C82.495,108.108 81.802,107.779 81.088,107.439 C79.39,106.631 77.694,105.816 76,105 C76,104.34 76,103.68 76,103 C74.907,102.897 73.814,102.794 72.688,102.688 C69,102 69,102 67.062,100.938 C65.347,97.81 65.168,94.413 66,91 C69.106,86.966 73.26,85.136 77.75,83 C78.767,82.505 78.767,82.505 79.805,82 C81.177,81.332 82.55,80.668 83.925,80.006 C86.69,78.666 89.437,77.289 92.183,75.911 C93.717,75.142 95.255,74.381 96.793,73.621 C101.735,71.19 101.735,71.19 106.5,68.438 C111.602,65.504 117.257,63.3 123,62 C123,61.34 123,60.68 123,60 C126.73,57.966 128.669,57 133,57 C133,56.34 133,55.68 133,55 C135.345,53.79 137.698,52.608 140.062,51.438 C140.719,51.095 141.376,50.753 142.053,50.4 C146.703,48.132 149.833,47.51 155,49 Z"/>
  <path fill="#77584E" d="M153,48 C153.66,49.65 154.32,51.3 155,53 C154.34,53 153.68,53 153,53 C153,52.34 153,51.68 153,51 C150.69,51 148.38,51 146,51 C146,51.66 146,52.32 146,53 C144.35,53.33 142.7,53.66 141,54 C141,54.66 141,55.32 141,56 C140.394,56.219 139.788,56.438 139.164,56.664 C133.361,58.86 128.302,61.496 123.129,64.926 C122.426,65.28 121.724,65.635 121,66 C120.01,65.67 119.02,65.34 118,65 C118.99,63.515 118.99,63.515 120,62 C120.99,62 121.98,62 123,62 C123,61.34 123,60.68 123,60 C126.73,57.966 128.669,57 133,57 C133,56.34 133,55.68 133,55 C135.391,53.821 137.786,52.657 140.188,51.5 C141.198,50.999 141.198,50.999 142.229,50.488 C145.963,48.703 148.758,47.539 153,48 Z"/>
  <path fill="#74584C" d="M97,77 C96.34,77.66 95.68,78.32 95,79 C94.01,79 93.02,79 92,79 C92,79.66 92,80.32 92,81 C89.412,82.074 89.412,82.074 86.824,83.148 C84.735,84.068 84.735,84.068 82,86 C79.312,86.125 79.312,86.125 77,86 C77,86.66 77,87.32 77,88 C74.03,89.65 71.06,91.3 68,93 C70,89 70,89 73,88 C73.33,87.01 73.66,86.02 74,85 C76.199,83.676 78.319,82.538 80.625,81.438 C81.23,81.134 81.834,80.83 82.457,80.518 C93.362,75.181 93.362,75.181 97,77 Z"/>
  <path fill="#806358" d="M153,48 C153.66,49.65 154.32,51.3 155,53 C154.34,53 153.68,53 153,53 C153,52.34 153,51.68 153,51 C150.69,51 148.38,51 146,51 C146,51.66 146,52.32 146,53 C144.35,53.33 142.7,53.66 141,54 C141,54.66 141,55.32 141,56 C139.68,55.67 138.36,55.34 137,55 C142.104,50.489 145.895,47.594 153,48 Z"/>
  <path fill="#7F645B" d="M97,77 C96.34,77.66 95.68,78.32 95,79 C94.01,79 93.02,79 92,79 C92,79.66 92,80.32 92,81 C87.375,83.125 87.375,83.125 84,82 C85.65,81.34 87.3,80.68 89,80 C89,79.01 89,78.02 89,77 C94.75,75.875 94.75,75.875 97,77 Z"/>
  <path fill="#674738" d="M120,109 C120.66,109 121.32,109 122,109 C122,109.66 122,110.32 122,111 C122.681,111.103 123.361,111.206 124.062,111.312 C127.629,112.147 130.662,113.495 134,115 C134,115.66 134,116.32 134,117 C130.611,116.311 127.82,115.013 124.75,113.438 C123.858,112.982 122.966,112.527 122.047,112.059 C121.371,111.709 120.696,111.36 120,111 C120,110.34 120,109.68 120,109 Z"/>
  <path fill="#7D6256" d="M107,72 C106.67,72.66 106.34,73.32 106,74 C104.68,74 103.36,74 102,74 C102,74.66 102,75.32 102,76 C100.68,75.67 99.36,75.34 98,75 C98,74.34 98,73.68 98,73 C104.75,70.875 104.75,70.875 107,72 Z"/>
  <path fill="#644639" d="M135,117 C138.012,117.644 140.517,118.65 143.25,120.062 C143.956,120.425 144.663,120.787 145.391,121.16 C145.922,121.437 146.453,121.714 147,122 C146.67,122.66 146.34,123.32 146,124 C144.351,123.216 142.706,122.422 141.062,121.625 C140.146,121.184 139.229,120.743 138.285,120.289 C136,119 136,119 135,117 Z"/>
  <path fill="#836559" d="M74,85 C74.99,85.33 75.98,85.66 77,86 C77,86.66 77,87.32 77,88 C74.03,89.65 71.06,91.3 68,93 C70,89 70,89 73,88 C73.33,87.01 73.66,86.02 74,85 Z"/>
  <path fill="#806054" d="M127,62 C124.188,64.062 124.188,64.062 121,66 C120.01,65.67 119.02,65.34 118,65 C120,62 120,62 122.5,61.25 C125,61 125,61 127,62 Z"/>
</svg>
