<svg xmlns="http://www.w3.org/2000/svg" version="1.1" width="222" height="238">
  <defs/>
  <path fill="#775446" d="M142.875,41.75 C151.332,47.836 153.373,56.038 155,66 C155.91,72.526 154.079,77.349 151,83 C150.634,83.686 150.268,84.372 149.891,85.078 C146.671,90.444 142.522,94.554 138.062,98.875 C127.88,108.763 120.532,119.502 120,134 C120.028,135.305 120.057,136.609 120.086,137.953 C120.101,138.66 120.116,139.366 120.132,140.094 C120.168,141.506 120.224,142.918 120.3,144.328 C120.399,147.915 120.091,149.852 118.203,152.941 C116,155 116,155 112.562,155.688 C108.749,154.952 107.388,154.012 105.023,150.982 C102.955,146.975 103.369,142.655 103.5,138.25 C103.497,137.312 103.495,136.373 103.492,135.406 C103.583,128.815 104.796,123.191 107,117 C107.346,115.933 107.346,115.933 107.698,114.845 C109.353,109.988 111.692,106.099 114.75,102 C115.192,101.396 115.635,100.791 116.091,100.168 C120.323,94.447 124.59,88.828 130.188,84.375 C134.582,80.664 137.036,77.282 137.812,71.562 C138.2,66.209 137.444,61.158 136,56 C135.34,56 134.68,56 134,56 C134,55.34 134,54.68 134,54 C126.767,50.523 117.276,50.749 109.648,52.98 C104.969,55.03 101.395,57.124 98,61 C97.67,61.99 97.34,62.98 97,64 C95.853,67.44 94.966,68.916 92,71 C88.438,71.5 88.438,71.5 85,71 C83.062,69.5 83.062,69.5 82,67 C81.236,60.56 82.389,55.436 86,50 C101.129,34.023 124.361,30.55 142.875,41.75 Z"/>
  <path fill="#735043" d="M119,162 C121.875,164.5 121.875,164.5 124,167 C124.33,167.33 124.66,167.66 125,168 C125.622,173.3 125.979,177.59 122.875,182.062 C118.488,185.019 115.086,186.266 109.812,185.812 C104.834,184.752 104.834,184.752 103,182 C102.588,181.423 102.175,180.845 101.75,180.25 C100.615,176.845 101.164,174.463 102,171 C105.832,163.762 110.661,159.422 119,162 Z"/>
  <path fill="#653F30" d="M108,116 C108.66,116.33 109.32,116.66 110,117 C109.711,117.825 109.423,118.65 109.125,119.5 C106.148,128.762 103.079,140.62 107.336,149.918 C108.897,152.305 108.897,152.305 112.062,152.75 C113.032,152.833 114.001,152.915 115,153 C115.66,153.33 116.32,153.66 117,154 C116,155 116,155 112.75,155.438 C109,155 109,155 106.297,152.645 C102.906,148.264 103.342,143.569 103.5,138.25 C103.497,137.312 103.495,136.373 103.492,135.406 C103.701,120.299 103.701,120.299 108,116 Z"/>
  <path fill="#674536" d="M82,60 C82.66,60 83.32,60 84,60 C84.33,62.31 84.66,64.62 85,67 C87.906,68.257 89.796,69 93,69 C93.33,68.01 93.66,67.02 94,66 C94.66,66.33 95.32,66.66 96,67 C93.559,70.124 92.441,70.938 88.438,71.5 C85,71 85,71 83.062,69.438 C81.651,66.199 81.799,63.492 82,60 Z"/>
  <path fill="#644331" d="M132,37 C138.921,38.775 145.301,42.22 149.062,48.375 C149.527,49.674 149.527,49.674 150,51 C149.01,51.495 149.01,51.495 148,52 C147.691,51.299 147.381,50.597 147.062,49.875 C143.367,44.723 137.65,41.716 132,39 C132,38.34 132,37.68 132,37 Z"/>
  <path fill="#6A4739" d="M108,116 C108.66,116.33 109.32,116.66 110,117 C109.385,119.315 108.758,121.627 108.125,123.938 C107.951,124.597 107.777,125.256 107.598,125.936 C107.125,127.642 106.568,129.323 106,131 C105.01,131.495 105.01,131.495 104,132 C105.714,118.286 105.714,118.286 108,116 Z"/>
  <path fill="#7A594B" d="M107,183 C109.97,183 112.94,183 116,183 C115.01,183.495 115.01,183.495 114,184 C114,184.66 114,185.32 114,186 C111.625,186.188 111.625,186.188 109,186 C108.34,185.01 107.68,184.02 107,183 Z"/>
  <path fill="#724F39" d="M82,60 C82.66,60 83.32,60 84,60 C85,66.625 85,66.625 85,70 C83.5,68.938 83.5,68.938 82,67 C81.812,63.312 81.812,63.312 82,60 Z"/>
  <path fill="#7C5B4E" d="M111,163 C111.66,163 112.32,163 113,163 C113,163.66 113,164.32 113,165 C111.041,166.714 109.041,168.384 107,170 C106.34,169.67 105.68,169.34 105,169 C107,167 109,165 111,163 Z"/>
</svg>
