<svg xmlns="http://www.w3.org/2000/svg" version="1.1" width="151" height="175">
  <defs/>
  <path fill="#6F5348" d="M101,23 C103,25 103,25 103.375,27.938 C103,31 103,31 101.258,32.598 C98.997,34.002 97.034,34.723 94.5,35.5 C78.652,41.624 68.687,58.811 61,73 C63.407,72.424 65.659,71.766 68,70.938 C77.3,68.334 86.481,69.683 95,74 C104.421,79.655 108.692,87.237 111.496,97.668 C113.215,105.624 111.371,113.634 107.523,120.719 C102.522,128.301 96.47,133.958 87.617,136.531 C77.817,138.286 68.305,137.757 59.699,132.629 C53.37,128.193 49.686,122.704 46,116 C45.564,115.281 45.129,114.561 44.68,113.82 C39.637,104.475 41.194,92.816 44.023,82.965 C51.242,61.049 65.139,36.14 86.625,25.188 C91.74,22.91 95.49,21.405 101,23 Z M59,91 C54.975,96.408 55.398,102.531 56,109 C57.729,115.916 62.364,119.953 68,124 C74.086,126.717 79.906,126.375 86.141,124.281 C92.237,121.582 96.008,117.351 99.375,111.688 C100.993,104.73 100.841,97.191 97,91 C91.769,85.011 85.872,81.609 78,80.625 C69.986,81.627 64.505,85.153 59,91 Z"/>
  <path fill="#745448" d="M101,23 C103,25 103,25 103.375,27.938 C103,31 103,31 101.5,32.688 C97.007,35.046 92.482,36.709 87.5,37.688 C83.108,39.334 80.837,41.814 77.699,45.223 C76,47 76,47 74,48 C73.079,49.604 72.163,51.21 71.273,52.832 C69.282,56.222 66.974,59.378 64.684,62.57 C62.937,65.013 62.937,65.013 61.41,67.805 C60.945,68.529 60.479,69.254 60,70 C59.34,70 58.68,70 58,70 C58,71.98 58,73.96 58,76 C59.609,75.66 59.609,75.66 61.25,75.312 C65,75 65,75 67.234,76.48 C67.817,76.982 68.4,77.483 69,78 C68.434,78.41 67.868,78.82 67.285,79.242 C66.552,79.781 65.818,80.32 65.062,80.875 C64.332,81.409 63.601,81.942 62.848,82.492 C60.889,83.88 60.889,83.88 60,86 C59.34,86 58.68,86 58,86 C58.248,86.516 58.495,87.031 58.75,87.562 C59,90 59,90 57.062,92.812 C53.508,98.358 54.707,105.668 55,112 C52.525,112.495 52.525,112.495 50,113 C50.33,114.32 50.66,115.64 51,117 C49.02,117.495 49.02,117.495 47,118 C40.945,107.598 40.529,97.51 43.188,85.875 C49.47,64.005 63.042,38.895 83.422,26.82 C94.569,21.138 94.569,21.138 101,23 Z"/>
  <path fill="#6F5448" d="M85,37 C87.188,37.312 87.188,37.312 89,38 C88.227,38.678 87.453,39.356 86.656,40.055 C75.689,49.795 67.966,60.143 61,73 C63.407,72.424 65.659,71.766 68,70.938 C77.272,68.342 86.516,69.65 95,74 C103.503,79.51 103.503,79.51 105,84 C99.25,83.125 99.25,83.125 97,82 C96.67,83.32 96.34,84.64 96,86 C96,84.68 96,83.36 96,82 C95.34,82 94.68,82 94,82 C94.629,85.451 95.992,87.709 98,90.562 C102.392,96.824 102.95,102.451 102,110 C100.15,115.029 98.289,119.897 93.293,122.305 C92.536,122.534 91.78,122.764 91,123 C92.102,120.521 93.266,118.675 95,116.562 C99.329,111.016 99.648,105.847 99,99 C97.903,93.344 95.509,89.752 90.945,86.258 C85.15,82.51 80.259,81.439 73.391,82.43 C66.86,83.988 62.871,87.691 59,93 C55.955,97.973 56.547,103.361 57,109 C58.7,115.481 62.528,119.361 68,123 C70.945,124.29 73.878,125.241 77,126 C77,126.33 77,126.66 77,127 C71.701,127.806 69.208,126.787 64.812,123.688 C63.197,122.474 61.592,121.245 60,120 C58.668,118.998 57.335,117.998 56,117 C55.505,117.99 55.505,117.99 55,119 C55.66,119 56.32,119 57,119 C57.124,120.031 57.247,121.062 57.375,122.125 C57.939,125.621 58.787,128.684 60,132 C54.733,128.99 51.06,125.284 48,120 C48,119.01 48,118.02 48,117 C48.99,117 49.98,117 51,117 C50.67,115.68 50.34,114.36 50,113 C50.66,113 51.32,113 52,113 C52.495,112.01 52.495,112.01 53,111 C53.66,111.33 54.32,111.66 55,112 C54.822,110.498 54.822,110.498 54.641,108.965 C53.874,101.489 53.38,96.3 58,90 C58,88.68 58,87.36 58,86 C58.66,86 59.32,86 60,86 C60.309,85.134 60.309,85.134 60.625,84.25 C62.498,81.186 64.97,79.845 68,78 C64.492,76.396 61.856,75.78 58,76 C58,74.02 58,72.04 58,70 C58.66,70 59.32,70 60,70 C60.262,69.274 60.523,68.549 60.793,67.801 C62.028,64.936 63.479,62.704 65.312,60.188 C67.519,57.128 69.565,54.086 71.438,50.812 C73.761,46.999 76.695,44.359 80.133,41.543 C82.036,40.063 82.036,40.063 83.492,38.238 C83.99,37.83 84.487,37.421 85,37 Z"/>
  <path fill="#70554A" d="M101,23 C103,25 103,25 103.375,27.938 C103,31 103,31 101.305,32.586 C98.81,34.117 96.566,34.909 93.75,35.688 C92.412,36.065 92.412,36.065 91.047,36.449 C90.371,36.631 89.696,36.813 89,37 C89,35.02 89,33.04 89,31 C87.02,31.66 85.04,32.32 83,33 C84.29,31.624 85.627,30.292 87,29 C87.66,29 88.32,29 89,29 C88.67,28.34 88.34,27.68 88,27 C86.577,27.99 86.577,27.99 85.125,29 C82,31 82,31 80,31 C80,30.34 80,29.68 80,29 C81.914,28.016 83.831,27.038 85.75,26.062 C86.817,25.517 87.885,24.972 88.984,24.41 C93.475,22.31 96.174,21.603 101,23 Z"/>
  <path fill="#684D43" d="M74,35 C74.66,35.33 75.32,35.66 76,36 C75.01,37.485 75.01,37.485 74,39 C73.67,39.66 73.34,40.32 73,41 C72.34,41 71.68,41 71,41 C67.297,44.798 65.379,48.108 63.684,53.098 C62.77,55.641 61.575,57.808 60,60 C59.34,60 58.68,60 58,60 C58,60.99 58,61.98 58,63 C57.34,63 56.68,63 56,63 C55.01,65.475 55.01,65.475 54,68 C53.34,68 52.68,68 52,68 C52,69.65 52,71.3 52,73 C51.34,73 50.68,73 50,73 C50,73.99 50,74.98 50,76 C48.515,76.495 48.515,76.495 47,77 C51.128,60.305 61.513,46.545 74,35 Z"/>
  <path fill="#745548" d="M93,81 C97.29,81.99 101.58,82.98 106,84 C106.33,85.98 106.66,87.96 107,90 C107.651,91.341 108.315,92.676 109,94 C109,94.99 109,95.98 109,97 C107.02,97.99 107.02,97.99 105,99 C105,98.34 105,97.68 105,97 C104.34,96.67 103.68,96.34 103,96 C103,96.66 103,97.32 103,98 C102.34,98 101.68,98 101,98 C100.674,97.313 100.348,96.626 100.012,95.918 C99.575,95.017 99.138,94.116 98.688,93.188 C98.258,92.294 97.829,91.401 97.387,90.48 C96.158,87.991 96.158,87.991 94.332,86.426 C93,85 93,85 93,81 Z"/>
  <path fill="#76564A" d="M100,112 C102.31,112 104.62,112 107,112 C105.776,116.708 104.184,120.633 102,125 C102,125.99 102,126.98 102,128 C101.34,128.33 100.68,128.66 100,129 C99.361,128.67 98.721,128.34 98.062,128 C95.888,126.649 95.888,126.649 93,128 C93,128.66 93,129.32 93,130 C92.34,130 91.68,130 91,130 C91,129.34 91,128.68 91,128 C90.34,128 89.68,128 89,128 C89,128.66 89,129.32 89,130 C88.34,129.67 87.68,129.34 87,129 C87.33,128.34 87.66,127.68 88,127 C88.949,126.691 89.897,126.381 90.875,126.062 C93.847,125.052 95.061,124.37 97,122 C96.01,122.33 95.02,122.66 94,123 C94,122.34 94,121.68 94,121 C94.433,120.588 94.866,120.175 95.312,119.75 C97.533,117.447 98.655,114.882 100,112 Z"/>
  <path fill="#55392E" d="M84,80 C92.293,82.154 96.656,87.016 100.875,94.188 C103.198,102.058 103.07,108.745 99.312,116.125 C97.069,120.124 95.409,121.663 91,123 C92.102,120.521 93.266,118.675 95,116.562 C99.329,111.016 99.648,105.847 99,99 C97.902,93.341 95.506,89.751 90.941,86.254 C84.162,81.875 77.947,81.606 70,82 C74.507,78.995 78.717,79.441 84,80 Z"/>
  <path fill="#563D32" d="M85,37 C87.188,37.312 87.188,37.312 89,38 C88.227,38.678 87.453,39.356 86.656,40.055 C77.753,47.962 70.498,56.134 64.438,66.438 C64.078,67.041 63.719,67.645 63.349,68.267 C62.238,70.174 62.238,70.174 61,73 C61.33,73.99 61.66,74.98 62,76 C60.68,76 59.36,76 58,76 C58,74.02 58,72.04 58,70 C58.66,70 59.32,70 60,70 C60.262,69.274 60.523,68.549 60.793,67.801 C62.028,64.936 63.479,62.704 65.312,60.188 C67.519,57.128 69.565,54.086 71.438,50.812 C73.761,46.999 76.695,44.359 80.133,41.543 C82.036,40.063 82.036,40.063 83.492,38.238 C83.99,37.83 84.487,37.421 85,37 Z"/>
  <path fill="#583C2E" d="M62,85 C62.99,85.33 63.98,85.66 65,86 C64.385,86.688 64.385,86.688 63.758,87.391 C63.219,88.004 62.68,88.618 62.125,89.25 C61.591,89.853 61.058,90.457 60.508,91.078 C56.108,96.687 56.542,102.098 57,109 C57.49,111.773 58.17,114.302 59,117 C54.207,112.415 54.095,107.365 53.797,100.926 C54.144,94.224 57.357,89.643 62,85 Z"/>
  <path fill="#5C433B" d="M83,70 C91.277,71.724 97.709,75.337 104,81 C104.33,81.99 104.66,82.98 105,84 C102.176,82.805 100.372,81.463 98,79.438 C95.342,77.278 94.243,76.463 91,76 C90.34,75.67 89.68,75.34 89,75 C89,74.34 89,73.68 89,73 C87.35,73 85.7,73 84,73 C83.67,72.01 83.34,71.02 83,70 Z"/>
  <path fill="#5E453C" d="M96,126 C96.33,126.66 96.66,127.32 97,128 C97.99,128 98.98,128 100,128 C100,128.66 100,129.32 100,130 C95.796,133.281 92.086,134.779 87,136 C87,135.34 87,134.68 87,134 C87.66,134 88.32,134 89,134 C89.66,132.68 90.32,131.36 91,130 C91.66,130 92.32,130 93,130 C93,129.34 93,128.68 93,128 C93.99,127.34 94.98,126.68 96,126 Z"/>
  <path fill="#65473B" d="M97,122 C96,125 96,125 93,127 C90.562,127.125 90.562,127.125 88,127 C86.68,127 85.36,127 84,127 C82.68,127 81.36,127 80,127 C80,126.34 80,125.68 80,125 C85.897,122.707 90.666,121.655 97,122 Z"/>
  <path fill="#503B31" d="M98,22 C100.5,23.125 100.5,23.125 103,25 C103.562,28 103.562,28 103,31 C100.177,33.616 97.425,34.672 93.75,35.688 C92.412,36.065 92.412,36.065 91.047,36.449 C90.371,36.631 89.696,36.813 89,37 C90,34 90,34 92.285,32.832 C93.202,32.496 94.118,32.159 95.062,31.812 C95.982,31.468 96.901,31.124 97.848,30.77 C98.558,30.516 99.268,30.262 100,30 C99.477,27.237 98.891,24.674 98,22 Z"/>
  <path fill="#64493C" d="M109,110 C109.66,110 110.32,110 111,110 C109.766,116.28 107.652,120.759 104,126 C103.01,125.67 102.02,125.34 101,125 C102.75,120.125 102.75,120.125 105,119 C105,118.34 105,117.68 105,117 C105.66,117 106.32,117 107,117 C107,116.01 107,115.02 107,114 C107.66,114 108.32,114 109,114 C109,112.68 109,111.36 109,110 Z"/>
  <path fill="#594438" d="M54,59 C54.66,59.33 55.32,59.66 56,60 C55.288,61.547 55.288,61.547 54.562,63.125 C53.155,66.385 52.432,69.461 52,73 C51.34,73 50.68,73 50,73 C50,73.99 50,74.98 50,76 C49.01,76.33 48.02,76.66 47,77 C48.736,70.581 50.852,64.862 54,59 Z"/>
  <path fill="#553933" d="M60,117 C60.473,117.398 60.946,117.797 61.434,118.207 C66.364,122.157 70.9,124.39 77,126 C77,126.33 77,126.66 77,127 C70.509,127.988 67.172,125.542 61.941,121.824 C60.98,120.921 60.98,120.921 60,120 C60,119.01 60,118.02 60,117 Z"/>
  <path fill="#573528" d="M74,49 C74.66,49.33 75.32,49.66 76,50 C71.05,56.93 71.05,56.93 66,64 C65.67,63.01 65.34,62.02 65,61 C67.535,56.612 70.713,52.834 74,49 Z"/>
  <path fill="#725E56" d="M46,111 C47.32,111.33 48.64,111.66 50,112 C50.33,113.65 50.66,115.3 51,117 C49.68,117.33 48.36,117.66 47,118 C46.67,115.69 46.34,113.38 46,111 Z"/>
  <path fill="#5A2F27" d="M62,85 C62.99,85.33 63.98,85.66 65,86 C64.043,87.126 63.084,88.251 62.125,89.375 C61.591,90.001 61.058,90.628 60.508,91.273 C59.386,92.558 58.206,93.794 57,95 C57.503,90.599 59.088,88.288 62,85 Z"/>
  <path fill="#694D3E" d="M53,125 C54.98,125.66 56.96,126.32 59,127 C59.33,128.65 59.66,130.3 60,132 C54.125,128.375 54.125,128.375 53,125 Z"/>
  <path fill="#593F35" d="M105,86 C108,87 108,87 109.188,89.25 C109.999,91.998 110.163,94.154 110,97 C105,89.5 105,89.5 105,86 Z"/>
  <path fill="#5C3D33" d="M109,110 C109.66,110 110.32,110 111,110 C110.745,111.316 110.471,112.628 110.188,113.938 C110.037,114.668 109.886,115.399 109.73,116.152 C109.489,116.762 109.248,117.372 109,118 C108.01,118.33 107.02,118.66 106,119 C106.33,117.35 106.66,115.7 107,114 C107.66,114 108.32,114 109,114 C109,112.68 109,111.36 109,110 Z"/>
  <path fill="#4B3928" d="M60,117 C62.64,118.98 65.28,120.96 68,123 C67.01,123.33 66.02,123.66 65,124 C62.312,122.25 62.312,122.25 60,120 C60,119.01 60,118.02 60,117 Z"/>
</svg>
