<svg xmlns="http://www.w3.org/2000/svg" version="1.1" width="220" height="222">
  <defs/>
  <path fill="#775549" d="M127.301,141.613 C129.676,143.551 130.901,145.243 131.301,148.305 C131.324,153.362 131.337,156.921 128,161 C127.546,161.557 127.092,162.114 126.625,162.688 C123.273,165.395 120.811,166.058 116.5,165.75 C110.419,164.447 107.634,163.192 104,158 C102.36,154.719 102.346,151.532 103,148 C105.087,143.995 107.581,140.873 111.438,138.5 C118.039,137.212 121.774,137.998 127.301,141.613 Z"/>
  <path fill="#77564A" d="M120.25,60.312 C123.091,62.056 124.295,63.181 126,66 C126.726,70.774 126.606,75.419 124.875,79.938 C121.507,83.642 118.345,85.64 113.5,86.938 C108.709,87.023 105.887,85.497 102.188,82.562 C98.98,78.342 99.437,72.021 100,67 C101.812,63.168 103.339,61.456 106.812,59.062 C111.851,57.383 115.418,58.361 120.25,60.312 Z"/>
  <path fill="#AA9590" d="M0,5 C72.6,5 145.2,5 220,5 C220,5.66 220,6.32 220,7 C147.4,7 74.8,7 0,7 C0,6.34 0,5.68 0,5 Z"/>
  <path fill="#A08B80" d="M0,66 C32.34,66 64.68,66 98,66 C94.035,68.643 90.63,68.265 86.031,68.227 C85.113,68.227 84.196,68.228 83.251,68.228 C80.215,68.227 77.18,68.211 74.145,68.195 C72.041,68.192 69.938,68.189 67.835,68.187 C62.296,68.179 56.758,68.159 51.219,68.137 C45.569,68.117 39.918,68.108 34.268,68.098 C23.178,68.076 12.089,68.042 1,68 C0.67,67.34 0.34,66.68 0,66 Z"/>
  <path fill="#A2867B" d="M128,66 C158.36,66 188.72,66 220,66 C220,66.66 220,67.32 220,68 C189.97,68 159.94,68 129,68 C128.67,67.34 128.34,66.68 128,66 Z"/>
  <path fill="#826156" d="M126,144 C128.5,145.5 128.5,145.5 131,148 C131.686,153.401 131.405,156.586 128,161 C125.709,163.812 123.505,165.044 120,166 C114.376,165.598 110.02,164.648 105.625,161.062 C103.201,156.495 103.67,151.945 105,147 C105.99,146.34 106.98,145.68 108,145 C108,149.29 108,153.58 108,158 C108.66,158 109.32,158 110,158 C110,158.66 110,159.32 110,160 C110.66,160 111.32,160 112,160 C112,160.66 112,161.32 112,162 C113.771,161.859 115.542,161.712 117.312,161.562 C118.299,161.481 119.285,161.4 120.301,161.316 C123.094,161.082 123.094,161.082 126,160 C126,158.68 126,157.36 126,156 C126.66,156 127.32,156 128,156 C127.858,154.562 127.711,153.125 127.562,151.688 C127.481,150.887 127.4,150.086 127.316,149.262 C127.047,146.839 127.047,146.839 126,144 Z"/>
  <path fill="#B8A290" d="M30.242,164.867 C31.663,164.867 33.084,164.866 34.505,164.864 C37.464,164.863 40.424,164.865 43.384,164.87 C47.096,164.875 50.807,164.872 54.519,164.866 C72.037,164.843 89.5,165.104 107,166 C107,166.33 107,166.66 107,167 C71.69,167 36.38,167 0,167 C0,166.67 0,166.34 0,166 C10.099,165.212 20.108,164.852 30.242,164.867 Z"/>
  <path fill="#AA968F" d="M197.819,164.946 C201.223,164.901 204.627,164.87 208.031,164.844 C209.026,164.829 210.021,164.814 211.047,164.799 C211.945,164.795 212.842,164.791 213.768,164.787 C214.543,164.78 215.318,164.773 216.117,164.765 C218,165 218,165 220,167 C189.64,167 159.28,167 128,167 C128,166.67 128,166.34 128,166 C136.191,165.867 144.382,165.737 152.573,165.609 C156.379,165.549 160.185,165.489 163.991,165.427 C173.333,165.276 182.675,165.139 192.018,165.025 C193.951,165.001 195.885,164.973 197.819,164.946 Z"/>
  <path fill="#8A685B" d="M110,58 C114.318,58.508 118.033,59.197 122,61 C122.33,63.31 122.66,65.62 123,68 C122.34,68 121.68,68 121,68 C121,67.01 121,66.02 121,65 C120.34,65 119.68,65 119,65 C119,64.34 119,63.68 119,63 C115.04,63 111.08,63 107,63 C107,63.66 107,64.32 107,65 C106.34,65 105.68,65 105,65 C105,65.66 105,66.32 105,67 C104.34,67 103.68,67 103,67 C103.33,65.68 103.66,64.36 104,63 C104.619,62.917 105.238,62.835 105.875,62.75 C108.184,62.187 108.184,62.187 109.25,59.938 C109.497,59.298 109.745,58.659 110,58 Z"/>
  <path fill="#7C5F55" d="M107,145 C108.326,149.145 108.984,154.032 107,158 C107.892,160.117 107.892,160.117 109,162 C107.062,161.312 107.062,161.312 105,160 C103.346,155.675 104.199,151.444 105,147 C105.66,146.34 106.32,145.68 107,145 Z"/>
  <path fill="#85675D" d="M118,139 C119.674,139.647 121.343,140.31 123,141 C123,141.33 123,141.66 123,142 C119.04,142 115.08,142 111,142 C111.33,141.01 111.66,140.02 112,139 C114.566,137.717 115.304,138.153 118,139 Z"/>
  <path fill="#735045" d="M107,60 C107.33,60.66 107.66,61.32 108,62 C106.68,62.33 105.36,62.66 104,63 C103.67,65.31 103.34,67.62 103,70 C102.01,69.67 101.02,69.34 100,69 C101.125,66.028 102.223,63.666 104,61 C104.99,60.67 105.98,60.34 107,60 Z"/>
  <path fill="#83685E" d="M106,155 C106.99,155.495 106.99,155.495 108,156 C108,156.66 108,157.32 108,158 C108.66,158 109.32,158 110,158 C110,158.66 110,159.32 110,160 C110.66,160 111.32,160 112,160 C112,160.66 112,161.32 112,162 C110.68,162.33 109.36,162.66 108,163 C106.743,160.094 106,158.204 106,155 Z"/>
  <path fill="#88675B" d="M100,70 C100.99,70 101.98,70 103,70 C103,72.31 103,74.62 103,77 C102.01,76.67 101.02,76.34 100,76 C100,74.02 100,72.04 100,70 Z"/>
</svg>
