<svg xmlns="http://www.w3.org/2000/svg" version="1.1" width="159" height="178">
  <defs/>
  <path fill="#745549" d="M88,24 C91.478,24.846 92.747,25.59 94.65,28.672 C97.03,34.691 96.367,41.321 96.293,47.684 C96.287,49.108 96.283,50.533 96.28,51.958 C96.269,55.689 96.239,59.418 96.206,63.149 C96.175,66.963 96.162,70.777 96.146,74.592 C96.114,82.061 96.063,89.531 96,97 C96.59,96.984 97.18,96.969 97.788,96.952 C100.463,96.89 103.137,96.851 105.812,96.812 C106.741,96.787 107.67,96.762 108.627,96.736 C109.52,96.727 110.412,96.717 111.332,96.707 C112.154,96.691 112.976,96.676 113.823,96.659 C116.518,97.081 117.383,97.838 119,100 C119.312,102.562 119.312,102.562 119,105 C116.561,107.439 115.786,107.287 112.43,107.414 C111.534,107.453 110.638,107.491 109.715,107.531 C108.778,107.562 107.841,107.593 106.875,107.625 C105.93,107.664 104.985,107.702 104.012,107.742 C101.675,107.837 99.338,107.922 97,108 C96.985,108.681 96.971,109.362 96.956,110.064 C96.881,113.147 96.785,116.23 96.688,119.312 C96.665,120.384 96.642,121.456 96.619,122.561 C96.584,123.589 96.548,124.617 96.512,125.676 C96.486,126.624 96.459,127.572 96.432,128.548 C95.931,131.388 95.306,132.314 93,134 C90.438,134.375 90.438,134.375 88,134 C83.161,126.741 85.379,116.716 85,108 C68.83,108 52.66,108 36,108 C34.908,101.447 35.778,99.748 39.242,94.672 C39.922,93.632 39.922,93.632 40.616,92.572 C42.062,90.37 43.53,88.185 45,86 C45.923,84.602 46.843,83.203 47.763,81.803 C50.527,77.603 53.324,73.426 56.125,69.25 C57.072,67.835 58.018,66.419 58.965,65.004 C60.794,62.269 62.624,59.535 64.455,56.801 C70.955,47.123 70.955,47.123 77.355,37.379 C77.96,36.449 78.565,35.52 79.188,34.562 C79.8,33.615 80.412,32.668 81.043,31.691 C83.128,28.823 85.435,26.441 88,24 Z M85,44 C84.063,45.246 83.174,46.527 82.304,47.82 C81.739,48.655 81.175,49.49 80.593,50.351 C79.98,51.266 79.366,52.182 78.734,53.125 C78.104,54.06 77.474,54.996 76.824,55.96 C75.484,57.949 74.146,59.94 72.809,61.932 C70.776,64.961 68.738,67.987 66.699,71.012 C65.398,72.945 64.097,74.879 62.797,76.812 C62.191,77.712 61.586,78.611 60.962,79.538 C58.3,83.507 55.655,87.488 53.075,91.512 C52.672,92.139 52.27,92.766 51.855,93.413 C50.842,94.993 50.842,94.993 51,97 C62.55,97 74.1,97 86,97 C86,79.51 86,62.02 86,44 C85.67,44 85.34,44 85,44 Z"/>
  <path fill="#6F5144" d="M88,24 C90.475,24.99 90.475,24.99 93,26 C93,26.99 93,27.98 93,29 C92.423,28.814 91.845,28.629 91.25,28.438 C88.793,27.96 87.356,28.243 85,29 C85,29.99 85,30.98 85,32 C83.688,33.354 82.354,34.687 81,36 C80.67,36.99 80.34,37.98 80,39 C80.66,39 81.32,39 82,39 C83.497,45.667 82.061,49.598 78.651,55.227 C77.004,57.774 75.319,60.29 73.617,62.801 C73.002,63.718 72.387,64.636 71.754,65.581 C69.8,68.495 67.838,71.404 65.875,74.312 C63.907,77.24 61.94,80.168 59.975,83.097 C58.753,84.916 57.53,86.733 56.305,88.549 C55.755,89.368 55.204,90.186 54.636,91.029 C54.15,91.749 53.664,92.47 53.163,93.212 C51.956,94.994 51.956,94.994 51,97 C62.55,97 74.1,97 86,97 C86,79.51 86,62.02 86,44 C86.33,44 86.66,44 87,44 C87,61.82 87,79.64 87,98 C74.46,98 61.92,98 49,98 C49,98.66 49,99.32 49,100 C47.515,100.495 47.515,100.495 46,101 C45.34,100.67 44.68,100.34 44,100 C43.67,101.65 43.34,103.3 43,105 C44.946,105.038 44.946,105.038 46.931,105.076 C51.727,105.17 56.522,105.27 61.317,105.372 C63.395,105.416 65.474,105.457 67.553,105.497 C70.534,105.555 73.515,105.619 76.496,105.684 C77.432,105.7 78.367,105.717 79.331,105.734 C80.191,105.754 81.052,105.774 81.939,105.795 C82.701,105.81 83.463,105.826 84.247,105.842 C86,106 86,106 87,107 C87.158,108.852 87.251,110.709 87.316,112.566 C87.358,113.691 87.4,114.816 87.443,115.975 C87.483,117.159 87.522,118.343 87.562,119.562 C87.606,120.75 87.649,121.938 87.693,123.162 C87.8,126.108 87.902,129.054 88,132 C91.075,131.224 91.075,131.224 93,129 C93.99,129.66 94.98,130.32 96,131 C94.199,133.275 93.363,133.947 90.438,134.375 C89.231,134.189 89.231,134.189 88,134 C83.161,126.741 85.379,116.716 85,108 C68.83,108 52.66,108 36,108 C34.908,101.447 35.778,99.748 39.242,94.672 C39.922,93.632 39.922,93.632 40.616,92.572 C42.062,90.37 43.53,88.185 45,86 C45.923,84.602 46.843,83.203 47.763,81.803 C50.527,77.603 53.324,73.426 56.125,69.25 C57.072,67.835 58.018,66.419 58.965,65.004 C60.794,62.269 62.624,59.535 64.455,56.801 C70.955,47.123 70.955,47.123 77.355,37.379 C77.96,36.449 78.565,35.52 79.188,34.562 C79.8,33.615 80.412,32.668 81.043,31.691 C83.128,28.823 85.435,26.441 88,24 Z"/>
  <path fill="#644B3F" d="M46,85 C46.33,85.66 46.66,86.32 47,87 C45.969,88.77 45.969,88.77 44.5,90.812 C42.339,94.014 42.339,94.014 42.125,97.812 C42.414,98.534 42.702,99.256 43,100 C43.33,100.99 43.66,101.98 44,103 C43.67,103.66 43.34,104.32 43,105 C44.946,105.038 44.946,105.038 46.931,105.076 C51.727,105.17 56.522,105.27 61.317,105.372 C63.395,105.416 65.474,105.457 67.553,105.497 C70.534,105.555 73.515,105.619 76.496,105.684 C77.432,105.7 78.367,105.717 79.331,105.734 C80.622,105.764 80.622,105.764 81.939,105.795 C82.701,105.81 83.463,105.826 84.247,105.842 C86,106 86,106 87,107 C87.158,108.852 87.251,110.709 87.316,112.566 C87.358,113.691 87.4,114.816 87.443,115.975 C87.483,117.159 87.522,118.343 87.562,119.562 C87.606,120.75 87.649,121.938 87.693,123.162 C87.8,126.108 87.902,129.054 88,132 C91.075,131.224 91.075,131.224 93,129 C93.99,129.66 94.98,130.32 96,131 C94.199,133.275 93.363,133.947 90.438,134.375 C89.231,134.189 89.231,134.189 88,134 C83.161,126.741 85.379,116.716 85,108 C68.83,108 52.66,108 36,108 C34.875,101.249 34.875,101.249 37.055,97.949 C37.505,97.251 37.954,96.553 38.418,95.834 C38.899,95.126 39.38,94.417 39.875,93.688 C40.348,92.96 40.821,92.232 41.309,91.482 C44.698,86.302 44.698,86.302 46,85 Z"/>
  <path fill="#5B4238" d="M44,106 C49.963,105.975 55.926,105.957 61.889,105.945 C63.92,105.94 65.95,105.933 67.98,105.925 C70.892,105.912 73.803,105.907 76.715,105.902 C77.628,105.897 78.542,105.892 79.483,105.887 C81.656,105.887 83.828,105.938 86,106 C87.745,107.745 87.233,110.19 87.316,112.566 C87.358,113.691 87.4,114.816 87.443,115.975 C87.483,117.159 87.522,118.343 87.562,119.562 C87.606,120.75 87.649,121.938 87.693,123.162 C87.8,126.108 87.902,129.054 88,132 C91.075,131.224 91.075,131.224 93,129 C93.99,129.66 94.98,130.32 96,131 C94.199,133.275 93.363,133.947 90.438,134.375 C89.633,134.251 88.829,134.128 88,134 C85.808,130.713 85.713,129.515 85.586,125.676 C85.55,124.749 85.515,123.823 85.478,122.868 C85.444,121.695 85.41,120.522 85.375,119.312 C85.251,115.579 85.128,111.846 85,108 C64.705,107.505 64.705,107.505 44,107 C44,106.67 44,106.34 44,106 Z"/>
  <path fill="#5F483D" d="M95,97 C98.437,96.913 101.874,96.86 105.312,96.812 C106.289,96.787 107.265,96.762 108.271,96.736 C109.209,96.727 110.147,96.717 111.113,96.707 C111.977,96.691 112.841,96.676 113.732,96.659 C116.491,97.074 117.358,97.779 119,100 C119.312,102.562 119.312,102.562 119,105 C116.479,107.521 115.488,107.294 111.992,107.414 C110.513,107.472 110.513,107.472 109.004,107.531 C107.455,107.578 107.455,107.578 105.875,107.625 C104.835,107.664 103.794,107.702 102.723,107.742 C100.149,107.837 97.575,107.922 95,108 C95,107.34 95,106.68 95,106 C101.27,105.67 107.54,105.34 114,105 C114,102.69 114,100.38 114,98 C107.73,98 101.46,98 95,98 C95,97.67 95,97.34 95,97 Z"/>
  <path fill="#6D4F3F" d="M70,57 C70.66,57 71.32,57 72,57 C73.166,59.21 73.166,59.21 74,62 C73.034,64.312 73.034,64.312 71.352,66.645 C70.759,67.486 70.166,68.327 69.555,69.193 C68.918,70.058 68.281,70.922 67.625,71.812 C66.996,72.696 66.367,73.58 65.719,74.49 C64.162,76.672 62.589,78.841 61,81 C60.67,79.68 60.34,78.36 60,77 C60.99,76.67 61.98,76.34 63,76 C63,75.34 63,74.68 63,74 C62.34,73.67 61.68,73.34 61,73 C61.66,73 62.32,73 63,73 C63,72.34 63,71.68 63,71 C64.375,69.375 64.375,69.375 66,68 C66.66,68 67.32,68 68,68 C68.752,64.345 69.4,60.683 70,57 Z"/>
  <path fill="#5A443B" d="M88,24 C90.625,24.938 90.625,24.938 93,26 C93,26.99 93,27.98 93,29 C92.423,28.814 91.845,28.629 91.25,28.438 C88.793,27.96 87.356,28.243 85,29 C85,29.99 85,30.98 85,32 C83.25,33.938 83.25,33.938 81,36 C79.886,37.114 79.886,37.114 78.75,38.25 C78.173,38.827 77.595,39.405 77,40 C78.378,36.168 80.152,33.073 82.5,29.75 C83.108,28.879 83.717,28.007 84.344,27.109 C86,25 86,25 88,24 Z"/>
  <path fill="#6A4E41" d="M60,64 C61,66 61,66 60.5,67.938 C59.764,70.177 59.764,70.177 61,73 C60.01,73.66 59.02,74.32 58,75 C58,75.66 58,76.32 58,77 C56.35,76.67 54.7,76.34 53,76 C54.557,71.329 57.084,67.913 60,64 Z"/>
  <path fill="#5C4841" d="M92,129 C93.32,129.66 94.64,130.32 96,131 C94.812,132.5 94.812,132.5 93,134 C90.312,134.188 90.312,134.188 88,134 C88,133.34 88,132.68 88,132 C88.99,131.67 89.98,131.34 91,131 C91.33,130.34 91.66,129.68 92,129 Z"/>
</svg>
