<svg xmlns="http://www.w3.org/2000/svg" version="1.1" width="162" height="183">
  <defs/>
  <path fill="#725448" d="M100,33 C106.608,38.176 110.375,44.124 113,52 C113.815,61.65 113.088,68.906 106.953,76.551 C105.019,78.756 103.046,80.899 101,83 C101.58,83.762 101.58,83.762 102.172,84.539 C110.052,94.955 114.084,102.625 113,116 C111.517,124.483 106.408,131.53 99.75,136.875 C92.027,141.879 82.456,143.136 73.535,141.566 C64.168,139.243 57.216,133.652 52.223,125.445 C48.261,117.522 46.967,109.67 49,101 C51.524,93.877 55.426,88.98 61,84 C62.006,83.006 63.008,82.007 64,81 C63.529,80.515 63.059,80.031 62.574,79.531 C55.408,71.816 53.379,65.834 53.648,55.254 C54.466,47.69 57.486,41.275 63,36 C74.299,28.192 87.565,25.433 100,33 Z M71.234,44.586 C67.75,48.459 65.036,51.944 64.973,57.32 C65.376,64.257 67.309,68.232 72.188,73.25 C76.682,76.047 81.019,77.344 86.336,76.73 C92.657,75.058 96.521,71.448 100,66 C102.196,61.555 102.297,58.058 100.938,53.312 C98.662,47.488 94.652,43.629 89,41 C82.24,39.449 76.589,39.776 71.234,44.586 Z M65.289,95.941 C60.675,101.822 59.163,106.536 60,114 C61.903,120.583 66.396,125.224 72,129 C77.543,130.891 83.266,130.578 88.75,128.75 C95.062,125.351 98.834,121.9 101,115 C102.044,108.359 101.469,103.225 97.504,97.723 C94.027,93.74 90.435,90.193 84.988,89.762 C73.848,89.476 73.848,89.476 65.289,95.941 Z"/>
  <path fill="#75574C" d="M100,33 C105.24,37.105 110.469,42.336 112,49 C112.015,53.391 111.609,57.655 111,62 C110.34,62 109.68,62 109,62 C109,61.34 109,60.68 109,60 C108.34,60 107.68,60 107,60 C106.67,60.99 106.34,61.98 106,63 C106.33,61.02 106.66,59.04 107,57 C105.68,57.33 104.36,57.66 103,58 C102.609,56.087 102.238,54.169 101.875,52.25 C101.666,51.183 101.457,50.115 101.242,49.016 C100.982,45.782 101.405,44.718 103,42 C103,41.01 103,40.02 103,39 C102.01,39.33 101.02,39.66 100,40 C100,40.66 100,41.32 100,42 C93.464,42.251 93.464,42.251 91.211,41.031 C88.114,39.587 85.273,39.567 81.875,39.375 C80.635,39.3 79.395,39.225 78.117,39.148 C73.772,38.793 73.772,38.793 70,41 C70,38 70,38 72,36 C70.68,36.33 69.36,36.66 68,37 C68,37.66 68,38.32 68,39 C66.68,39 65.36,39 64,39 C64.371,36.405 64.675,35.276 66.707,33.551 C67.402,33.142 68.097,32.734 68.812,32.312 C69.5,31.896 70.187,31.48 70.895,31.051 C79.772,26.621 91.697,27.948 100,33 Z"/>
  <path fill="#583A2F" d="M91.59,40.215 C95.463,42.682 98.477,45.12 101,49 C101,49.66 101,50.32 101,51 C100.34,51 99.68,51 99,51 C98.412,49.886 98.412,49.886 97.812,48.75 C95.119,44.663 91.636,42.775 87.047,41.426 C81.859,40.476 77.541,41.306 73,44 C69.617,46.989 67.004,50.584 66,55 C65.914,61.371 66.754,66.026 71,71 C73.748,73.482 76.529,74.747 80,76 C79.67,76.66 79.34,77.32 79,78 C72.57,75.9 68.922,72.495 65,67 C62.97,60.91 63.216,54.167 65.375,48.125 C67.649,43.68 70.679,41.73 75.219,39.82 C80.933,38.135 86.09,37.635 91.59,40.215 Z"/>
  <path fill="#5E4333" d="M94,91 C94,91.66 94,92.32 94,93 C93.153,92.678 92.306,92.355 91.434,92.023 C84.884,90.071 76.207,89.345 69.938,92.562 C65.316,96.397 61.503,100.817 60.762,106.98 C60.582,112.312 61.435,115.711 64.223,120.273 C65,122 65,122 64,125 C60.022,119.226 58.835,115.485 58.875,108.562 C58.872,107.244 58.87,105.925 58.867,104.566 C59.06,99.378 59.06,99.378 60,97 C61.643,95.962 63.312,94.964 65,94 C65.474,93.319 65.949,92.639 66.438,91.938 C72.309,84.657 86.795,86.979 94,91 Z"/>
  <path fill="#685246" d="M112,52 C112.33,52 112.66,52 113,52 C113.536,61.633 113.3,68.863 106.953,76.445 C105.535,78.009 104.089,79.548 102.609,81.055 C100.681,82.964 100.681,82.964 101,86 C100.01,85.67 99.02,85.34 98,85 C98,83.68 98,82.36 98,81 C99.454,80.103 99.454,80.103 100.938,79.188 C104.385,77.25 104.385,77.25 104.75,73.312 C104.832,72.219 104.915,71.126 105,70 C105.66,69.67 106.32,69.34 107,69 C106.722,67.608 106.722,67.608 106.438,66.188 C106,63 106,63 107,60 C107.66,60 108.32,60 109,60 C109,60.66 109,61.32 109,62 C109.66,62 110.32,62 111,62 C110.988,61.362 110.977,60.724 110.965,60.066 C110.956,59.24 110.947,58.414 110.938,57.562 C110.926,56.739 110.914,55.915 110.902,55.066 C111,53 111,53 112,52 Z"/>
  <path fill="#6A5044" d="M58,71 C59.875,71.688 59.875,71.688 62,73 C62.681,74.661 63.347,76.328 64,78 C64.722,78.412 65.444,78.825 66.188,79.25 C66.786,79.827 67.384,80.405 68,81 C68.049,84.07 67.58,86.991 67,90 C66.01,90 65.02,90 64,90 C63.67,90.66 63.34,91.32 63,92 C62.34,92 61.68,92 61,92 C61,91.01 61,90.02 61,89 C60.34,89 59.68,89 59,89 C58,91 57.506,92.831 57,95 C55.35,95 53.7,95 52,95 C54.089,91.14 56.358,88.534 59.688,85.688 C60.496,84.99 61.304,84.293 62.137,83.574 C62.752,83.055 63.366,82.535 64,82 C63.567,81.457 63.134,80.915 62.688,80.355 C61.852,79.282 61.852,79.282 61,78.188 C60.443,77.48 59.886,76.772 59.312,76.043 C58,74 58,74 58,71 Z"/>
  <path fill="#725246" d="M100,38 C100.99,38.33 101.98,38.66 103,39 C103.625,41.25 103.625,41.25 104,44 C103.482,44.901 103.482,44.901 102.953,45.82 C101.647,48.808 102.34,50.495 103.125,53.625 C104.626,61.388 102.273,66.591 98,73 C96.68,72.67 95.36,72.34 94,72 C94.784,71.175 95.567,70.35 96.375,69.5 C100.411,64.604 101.29,59.558 100.875,53.312 C100.293,49.249 98.94,46.94 96,44 C95.34,43.34 94.68,42.68 94,42 C97.75,40.875 97.75,40.875 100,42 C99.67,41.01 99.34,40.02 99,39 C99.33,38.67 99.66,38.34 100,38 Z"/>
  <path fill="#5B4233" d="M109,67 C109.66,67 110.32,67 111,67 C110.58,72.225 109.093,74.498 105.438,78.188 C101.803,81.482 101.803,81.482 101,86 C100.01,85.67 99.02,85.34 98,85 C98,83.68 98,82.36 98,81 C99.454,80.103 99.454,80.103 100.938,79.188 C104.38,77.238 104.38,77.238 104.875,73.25 C104.916,72.177 104.957,71.105 105,70 C106.32,70 107.64,70 109,70 C109,69.01 109,68.02 109,67 Z"/>
  <path fill="#664E45" d="M49,101 C49.99,101.33 50.98,101.66 52,102 C51.814,102.743 51.629,103.485 51.438,104.25 C50.987,107.079 51.285,108.298 52,111 C52.341,117.488 52.341,117.488 50,121 C48.037,113.957 48.001,108.225 49,101 Z"/>
  <path fill="#603F37" d="M95,93 C98.401,94.379 99.73,95.603 101.25,98.938 C103.475,104.273 103.383,109.307 103,115 C102.34,115.33 101.68,115.66 101,116 C100.986,115.227 100.972,114.453 100.957,113.656 C100.662,107.206 100.002,102.816 96.059,97.621 C95,96 95,96 95,93 Z"/>
  <path fill="#644636" d="M101,52 C101.66,52 102.32,52 103,52 C104.569,59.06 103.222,63.589 100,70 C99.34,70.99 98.68,71.98 98,73 C96.68,72.67 95.36,72.34 94,72 C95.176,70.762 95.176,70.762 96.375,69.5 C100.65,64.365 101.327,58.545 101,52 Z"/>
  <path fill="#755C54" d="M81,29 C87.459,28.596 92.061,29.408 98,32 C97.67,32.66 97.34,33.32 97,34 C91.72,33.34 86.44,32.68 81,32 C81,31.01 81,30.02 81,29 Z"/>
  <path fill="#5D4436" d="M58,71 C59.875,71.688 59.875,71.688 62,73 C62.681,74.661 63.347,76.328 64,78 C65.305,79.036 66.635,80.044 68,81 C68,81.66 68,82.32 68,83 C67.01,83.66 66.02,84.32 65,85 C64.01,84.67 63.02,84.34 62,84 C62.66,83.01 63.32,82.02 64,81 C63.567,80.529 63.134,80.059 62.688,79.574 C61.852,78.64 61.852,78.64 61,77.688 C60.165,76.765 60.165,76.765 59.312,75.824 C58,74 58,74 58,71 Z"/>
  <path fill="#5D4135" d="M100,117 C100.33,117.99 100.66,118.98 101,120 C97.817,125.044 93.637,128.95 88,131 C87.01,131 86.02,131 85,131 C85,130.34 85,129.68 85,129 C86.052,128.608 87.104,128.216 88.188,127.812 C93.456,125.556 96.748,121.621 100,117 Z"/>
  <path fill="#75594C" d="M86,135 C88.31,135 90.62,135 93,135 C92.01,135.495 92.01,135.495 91,136 C90.344,138.527 90.344,138.527 90,141 C88.35,141 86.7,141 85,141 C84.67,140.34 84.34,139.68 84,139 C84.938,136.875 84.938,136.875 86,135 Z"/>
  <path fill="#685147" d="M106,40 C109.867,43.222 110.881,46.149 112,51 C111.01,50.67 110.02,50.34 109,50 C108.67,50.99 108.34,51.98 108,53 C107.67,51.68 107.34,50.36 107,49 C107.66,49 108.32,49 109,49 C109,48.01 109,47.02 109,46 C108.34,46 107.68,46 107,46 C105.938,44.125 105.938,44.125 105,42 C105.33,41.34 105.66,40.68 106,40 Z"/>
  <path fill="#634A3F" d="M98.062,133.938 C99.517,133.968 99.517,133.968 101,134 C97.827,137.536 95.833,139.586 91,140 C91,138.68 91,137.36 91,136 C91.99,135.67 92.98,135.34 94,135 C95,134 95,134 98.062,133.938 Z"/>
  <path fill="#583F34" d="M80,40 C79.01,40.66 78.02,41.32 77,42 C76.031,42.681 75.061,43.361 74.062,44.062 C71.52,45.671 69.91,46.552 67,47 C68.219,43.342 69.841,42.577 73.145,40.785 C75.515,39.782 77.459,39.692 80,40 Z"/>
  <path fill="#4F3E30" d="M48,107 C50,109 50,109 50.125,111.625 C50.084,112.409 50.042,113.192 50,114 C50.66,114 51.32,114 52,114 C51.67,116.31 51.34,118.62 51,121 C49.207,117.881 48.657,115.323 48.375,111.75 C48.3,110.858 48.225,109.966 48.148,109.047 C48.099,108.371 48.05,107.696 48,107 Z"/>
  <path fill="#624B3E" d="M109,67 C109.66,67 110.32,67 111,67 C110.75,69.875 110.75,69.875 110,73 C107.938,74.375 107.938,74.375 106,75 C105.67,73.35 105.34,71.7 105,70 C106.32,70 107.64,70 109,70 C109,69.01 109,68.02 109,67 Z"/>
  <path fill="#7A645B" d="M77,29 C77.66,29.99 78.32,30.98 79,32 C77.712,32.53 76.42,33.049 75.125,33.562 C74.046,33.998 74.046,33.998 72.945,34.441 C71,35 71,35 69,34 C71.528,31.201 73.204,29.542 77,29 Z"/>
  <path fill="#4E372B" d="M95,93 C96.875,93.562 96.875,93.562 99,95 C100.25,98.625 100.25,98.625 101,102 C100.34,102 99.68,102 99,102 C95,96.706 95,96.706 95,93 Z"/>
  <path fill="#614B3F" d="M55,62 C55.33,62.66 55.66,63.32 56,64 C56.99,64.33 57.98,64.66 59,65 C58.67,66.98 58.34,68.96 58,71 C57.34,71 56.68,71 56,71 C55.67,68.03 55.34,65.06 55,62 Z"/>
  <path fill="#7A6257" d="M101,35 C103.5,36.812 103.5,36.812 106,39 C106,39.99 106,40.98 106,42 C105.01,42 104.02,42 103,42 C103,41.01 103,40.02 103,39 C102.01,38.67 101.02,38.34 100,38 C100.33,37.01 100.66,36.02 101,35 Z"/>
  <path fill="#705A53" d="M80,76 C80.66,76 81.32,76 82,76 C82.66,76.66 83.32,77.32 84,78 C84.99,78.33 85.98,78.66 87,79 C86.67,79.66 86.34,80.32 86,81 C81.25,80.25 81.25,80.25 79,78 C79.33,77.34 79.66,76.68 80,76 Z"/>
  <path fill="#7D6A5B" d="M90,30 C95.75,30.75 95.75,30.75 98,33 C95.688,33.625 95.688,33.625 93,34 C92.01,33.34 91.02,32.68 90,32 C90,31.34 90,30.68 90,30 Z"/>
  <path fill="#6C4E43" d="M91,36 C91.33,37.32 91.66,38.64 92,40 C89.372,40 86.918,39.802 84.312,39.5 C83.504,39.407 82.696,39.314 81.863,39.219 C81.248,39.147 80.634,39.074 80,39 C80,38.67 80,38.34 80,38 C80.94,37.909 80.94,37.909 81.898,37.816 C83.124,37.691 83.124,37.691 84.375,37.562 C85.187,37.481 85.999,37.4 86.836,37.316 C89.043,37.109 89.043,37.109 91,36 Z"/>
</svg>
