<svg xmlns="http://www.w3.org/2000/svg" version="1.1" width="208" height="205">
  <defs/>
  <path fill="#725145" d="M90.508,103.867 C92.085,103.867 93.662,103.866 95.239,103.864 C98.525,103.863 101.811,103.865 105.097,103.87 C109.287,103.875 113.478,103.872 117.668,103.866 C120.918,103.862 124.167,103.864 127.417,103.866 C128.962,103.867 130.506,103.866 132.051,103.864 C153.783,103.838 153.783,103.838 157.75,107.625 C159,111 159,111 157.938,114.75 C156,118 156,118 153,120 C143.155,121.437 133.005,121.163 123.074,121.168 C121.591,121.171 120.108,121.175 118.625,121.178 C115.545,121.184 112.465,121.186 109.385,121.185 C105.461,121.185 101.537,121.199 97.612,121.216 C94.56,121.227 91.509,121.229 88.457,121.229 C87.01,121.23 85.564,121.234 84.117,121.242 C76.476,121.279 69.345,121.248 62,119 C59.875,116.75 59.875,116.75 59,114 C59.125,110.873 59.333,108.864 61.264,106.363 C67.765,101.26 82.352,103.855 90.508,103.867 Z"/>
  <path fill="#755346" d="M77.448,67.725 C78.251,67.72 79.053,67.715 79.88,67.71 C82.508,67.696 85.134,67.697 87.762,67.699 C89.599,67.695 91.437,67.691 93.274,67.686 C97.113,67.679 100.952,67.679 104.79,67.684 C109.706,67.69 114.622,67.673 119.538,67.65 C123.328,67.635 127.117,67.634 130.906,67.637 C132.719,67.637 134.532,67.632 136.345,67.622 C138.877,67.609 141.408,67.616 143.94,67.628 C144.686,67.62 145.431,67.612 146.199,67.605 C150.635,67.649 153.492,68.232 157,71 C158.562,73.812 158.562,73.812 159,77 C156.128,82.436 156.128,82.436 153,84 C150.189,84.119 147.402,84.178 144.591,84.193 C143.72,84.201 142.85,84.209 141.954,84.218 C139.067,84.243 136.18,84.259 133.293,84.273 C132.308,84.279 131.323,84.284 130.309,84.29 C125.096,84.316 119.884,84.336 114.672,84.35 C109.284,84.367 103.898,84.412 98.511,84.462 C94.371,84.496 90.232,84.508 86.093,84.513 C84.107,84.52 82.121,84.535 80.135,84.559 C77.355,84.591 74.577,84.591 71.798,84.583 C70.567,84.608 70.567,84.608 69.311,84.633 C65.059,84.587 63.459,84.356 59.981,81.659 C58,79 58,79 57.5,75.875 C58,73 58,73 59,71.25 C64.494,67.816 71.161,67.704 77.448,67.725 Z"/>
  <path fill="#846154" d="M76.994,67.839 C77.796,67.834 78.598,67.829 79.424,67.824 C82.073,67.809 84.722,67.802 87.371,67.797 C89.214,67.791 91.057,67.785 92.901,67.78 C96.763,67.769 100.626,67.763 104.489,67.76 C109.436,67.754 114.383,67.73 119.331,67.702 C123.137,67.683 126.944,67.678 130.75,67.676 C132.574,67.673 134.398,67.665 136.222,67.652 C138.774,67.635 141.325,67.637 143.877,67.644 C145.004,67.63 145.004,67.63 146.155,67.616 C150.608,67.651 153.461,68.246 157,71 C158,72.938 158,72.938 158,75 C156.562,77.25 156.562,77.25 155,79 C154.505,76.03 154.505,76.03 154,73 C152.867,73 151.733,73 150.565,73 C120.377,73 90.188,73 60,73 C65.698,68.094 69.633,67.85 76.994,67.839 Z"/>
  <path fill="#935D53" d="M155,109 C155.33,109 155.66,109 156,109 C156,110.65 156,112.3 156,114 C156.99,114.495 156.99,114.495 158,115 C156.383,117.426 155.477,118.537 153,120 C143.648,121.504 133.874,121.16 124.422,121.168 C123.076,121.171 121.73,121.175 120.384,121.178 C117.59,121.184 114.797,121.186 112.004,121.185 C108.452,121.185 104.9,121.199 101.347,121.216 C98.578,121.227 95.808,121.229 93.039,121.229 C91.102,121.23 89.164,121.241 87.227,121.252 C73.356,121.217 73.356,121.217 67,119 C66.67,118.34 66.34,117.68 66,117 C94.71,117 123.42,117 153,117 C153,116.34 153,115.68 153,115 C153.66,115 154.32,115 155,115 C155,113.02 155,111.04 155,109 Z"/>
  <path fill="#946B61" d="M98,68 C107.57,68 117.14,68 127,68 C127,68.66 127,69.32 127,70 C135.58,70 144.16,70 153,70 C153,70.33 153,70.66 153,71 C133.53,71 114.06,71 94,71 C95.32,70.67 96.64,70.34 98,70 C98,69.34 98,68.68 98,68 Z"/>
  <path fill="#9C574F" d="M155,109 C155.33,109 155.66,109 156,109 C156,110.65 156,112.3 156,114 C156.66,114.33 157.32,114.66 158,115 C156.386,117.421 155.461,118.525 153,120 C148.368,120.924 143.709,120.962 139,121 C138.173,121.008 137.346,121.017 136.494,121.025 C130.995,121.07 125.499,121.053 120,121 C122.438,118.562 123.183,118.723 126.535,118.621 C127.872,118.57 127.872,118.57 129.236,118.518 C130.169,118.491 131.102,118.465 132.062,118.438 C133.908,118.378 135.753,118.314 137.598,118.246 C138.418,118.222 139.238,118.198 140.082,118.174 C142.008,118.206 142.008,118.206 143,117 C144.686,116.928 146.375,116.916 148.062,116.938 C148.982,116.947 149.901,116.956 150.848,116.965 C151.558,116.976 152.268,116.988 153,117 C153,116.34 153,115.68 153,115 C153.66,115 154.32,115 155,115 C155,113.02 155,111.04 155,109 Z"/>
  <path fill="#8D6F64" d="M108,117 C119.55,117 131.1,117 143,117 C142.67,117.66 142.34,118.32 142,119 C138.209,119.229 134.418,119.429 130.625,119.625 C129.034,119.722 129.034,119.722 127.41,119.82 C120.618,120.154 114.59,119.703 108,118 C108,117.67 108,117.34 108,117 Z"/>
  <path fill="#8C695E" d="M75.25,67.938 C76.328,67.947 77.405,67.956 78.516,67.965 C79.335,67.976 80.155,67.988 81,68 C81,68.66 81,69.32 81,70 C84.3,70 87.6,70 91,70 C91,70.33 91,70.66 91,71 C90.345,71.02 89.69,71.04 89.016,71.06 C86.01,71.156 83.005,71.265 80,71.375 C78.97,71.406 77.94,71.437 76.879,71.469 C70.962,71.695 65.683,72.32 60,74 C65.132,68.441 67.84,67.857 75.25,67.938 Z"/>
  <path fill="#8C6F63" d="M66,117 C76.89,117 87.78,117 99,117 C99,117.33 99,117.66 99,118 C73.804,120.867 73.804,120.867 67,119 C66.67,118.34 66.34,117.68 66,117 Z"/>
  <path fill="#A64F46" d="M81,68 C86.61,68 92.22,68 98,68 C98,68.66 98,69.32 98,70 C92.131,71.148 86.911,70.773 81,70 C81,69.34 81,68.68 81,68 Z"/>
  <path fill="#805E53" d="M67,107 C66.34,107 65.68,107 65,107 C65,107.66 65,108.32 65,109 C64.34,109 63.68,109 63,109 C63,110.65 63,112.3 63,114 C62.01,114.33 61.02,114.66 60,115 C59.375,112.688 59.375,112.688 59,110 C61.548,106.178 62.609,105.536 67,107 Z"/>
  <path fill="#8F6C63" d="M98,68 C100.64,68 103.28,68 106,68 C106,68.66 106,69.32 106,70 C106.66,70.33 107.32,70.66 108,71 C103.38,71 98.76,71 94,71 C95.32,70.67 96.64,70.34 98,70 C98,69.34 98,68.68 98,68 Z"/>
  <path fill="#865F56" d="M155,109 C155.33,109 155.66,109 156,109 C156,110.65 156,112.3 156,114 C156.66,114.33 157.32,114.66 158,115 C155.75,117.562 155.75,117.562 153,120 C150.688,119.812 150.688,119.812 149,119 C149.99,118.67 150.98,118.34 152,118 C152.33,117.01 152.66,116.02 153,115 C153.66,115 154.32,115 155,115 C155,113.02 155,111.04 155,109 Z"/>
</svg>
