<svg xmlns="http://www.w3.org/2000/svg" version="1.1" width="216" height="222">
  <defs/>
  <path fill="#775548" d="M80,51 C82.956,52.078 85.674,53.503 88.438,55 C89.169,55.382 89.901,55.763 90.654,56.156 C92.443,57.091 94.222,58.044 96,59 C96,59.66 96,60.32 96,61 C97.32,61 98.64,61 100,61 C100,61.66 100,62.32 100,63 C101.052,63.155 101.052,63.155 102.125,63.312 C107.764,64.661 112.652,67.914 117.625,70.812 C123.96,74.473 130.422,77.796 137,81 C139.001,81.998 141.001,82.998 143,84 C143,84.66 143,85.32 143,86 C143.699,86.107 144.397,86.214 145.117,86.324 C148.402,87.094 151.102,88.316 154.125,89.812 C155.159,90.314 156.193,90.815 157.258,91.332 C160.005,93.003 161.423,94.222 163,97 C162.929,100.413 162.433,102.369 160.5,105.188 C157.57,107.312 154.86,108.182 151.422,109.227 C144.773,111.35 138.553,114.674 132.359,117.852 C129.944,119.027 127.497,120.011 125,121 C118.18,124.03 111.464,127.245 104.812,130.625 C100.029,133.041 95.252,135.193 90.242,137.09 C87.982,138.007 85.894,139.089 83.75,140.25 C80.356,141.981 77.857,142.614 74,142 C71.688,140.875 71.688,140.875 70,139 C68.901,135.631 68.639,133.836 70.055,130.559 C72.542,127.287 75.46,125.729 79.062,123.938 C80.066,123.422 80.066,123.422 81.089,122.896 C87.842,119.476 94.514,116.353 102,115 C102,114.34 102,113.68 102,113 C102.583,112.781 103.165,112.562 103.766,112.336 C109.772,110.013 115.486,107.309 121.227,104.395 C129.966,100 129.966,100 134,100 C134,99.34 134,98.68 134,98 C131.191,96.41 128.377,94.829 125.562,93.25 C124.388,92.585 124.388,92.585 123.189,91.906 C117.913,88.953 112.569,86.355 107,84 C107,83.34 107,82.68 107,82 C105.913,81.827 105.913,81.827 104.804,81.65 C101.909,80.979 99.743,80.001 97.129,78.602 C95.772,77.882 95.772,77.882 94.389,77.148 C93.456,76.646 92.523,76.143 91.562,75.625 C89.71,74.638 87.857,73.651 86.004,72.664 C85.139,72.202 84.274,71.739 83.383,71.263 C80.611,69.794 77.816,68.382 75,67 C75,66.34 75,65.68 75,65 C74.381,64.753 73.762,64.505 73.125,64.25 C70.561,62.742 69.887,61.824 69,59 C69.201,56.258 69.677,54.521 71.125,52.188 C74.137,50.28 76.482,50.708 80,51 Z"/>
  <path fill="#7E6157" d="M100,128 C101.32,128 102.64,128 104,128 C102.95,130.863 102.266,131.85 99.562,133.375 C98.294,133.684 98.294,133.684 97,134 C96.01,133.34 95.02,132.68 94,132 C97,130 97,130 100,130 C100,129.34 100,128.68 100,128 Z"/>
  <path fill="#806255" d="M132,113 C133.32,113 134.64,113 136,113 C134.934,115.907 134.297,116.844 131.5,118.312 C129,119 129,119 127,118 C127.33,117.01 127.66,116.02 128,115 C129.32,115 130.64,115 132,115 C132,114.34 132,113.68 132,113 Z"/>
  <path fill="#7E6056" d="M94,134 C91.932,136.797 90.856,137.027 87.312,137.688 C86.219,137.791 85.126,137.894 84,138 C85,135 85,135 87.312,133.75 C90.099,132.972 91.334,133.013 94,134 Z"/>
  <path fill="#85675C" d="M80,53 C80.66,53.66 81.32,54.32 82,55 C79.03,55 76.06,55 73,55 C73,55.66 73,56.32 73,57 C72.34,57 71.68,57 71,57 C73.223,52.078 74.778,51.564 80,53 Z"/>
  <path fill="#7C5F55" d="M119,107 C119.66,107 120.32,107 121,107 C120.67,107.99 120.34,108.98 120,110 C118.68,110 117.36,110 116,110 C116,110.66 116,111.32 116,112 C114.68,112 113.36,112 112,112 C112.33,110.68 112.66,109.36 113,108 C114.207,108.031 114.207,108.031 115.438,108.062 C117.934,108.296 117.934,108.296 119,107 Z"/>
  <path fill="#816458" d="M89,122 C88.67,122.99 88.34,123.98 88,125 C86.68,125 85.36,125 84,125 C84,125.66 84,126.32 84,127 C82.68,126.67 81.36,126.34 80,126 C86.609,122 86.609,122 89,122 Z"/>
  <path fill="#7E6152" d="M115,123 C114.67,123.99 114.34,124.98 114,126 C111.69,126.33 109.38,126.66 107,127 C108.727,123.546 111.293,123 115,123 Z"/>
  <path fill="#836257" d="M111,112 C110,115 110,115 107.625,116.25 C105,117 105,117 102,116 C108.609,112 108.609,112 111,112 Z"/>
  <path fill="#826359" d="M159,103 C159,103.66 159,104.32 159,105 C156.69,105.33 154.38,105.66 152,106 C152,106.66 152,107.32 152,108 C151.01,108 150.02,108 149,108 C149.33,107.01 149.66,106.02 150,105 C155.789,103 155.789,103 159,103 Z"/>
</svg>
