<svg xmlns="http://www.w3.org/2000/svg" version="1.1" width="151" height="169">
  <defs/>
  <path fill="#715246" d="M83.562,22.25 C87,23 87,23 89,26 C89.2,29.005 89.283,31.917 89.275,34.922 C89.28,35.834 89.285,36.747 89.29,37.687 C89.304,40.708 89.303,43.729 89.301,46.75 C89.305,48.846 89.309,50.942 89.314,53.038 C89.321,57.433 89.321,61.828 89.316,66.223 C89.31,71.862 89.327,77.501 89.35,83.141 C89.365,87.47 89.366,91.798 89.363,96.127 C89.363,98.207 89.368,100.286 89.378,102.366 C89.391,105.27 89.384,108.174 89.372,111.078 C89.384,112.373 89.384,112.373 89.395,113.695 C89.343,119.57 89.343,119.57 87.633,121.713 C86,123 86,123 83.5,123.5 C81,123 81,123 79.365,120.957 C77.675,117.297 77.6,114.129 77.659,110.18 C77.659,109.409 77.659,108.638 77.658,107.843 C77.66,105.305 77.683,102.768 77.707,100.23 C77.713,98.466 77.717,96.702 77.72,94.938 C77.731,90.304 77.761,85.67 77.794,81.035 C77.825,76.303 77.838,71.57 77.854,66.838 C77.886,57.558 77.937,48.279 78,39 C77.071,39.794 76.141,40.588 75.184,41.406 C73.936,42.438 72.687,43.47 71.438,44.5 C70.828,45.025 70.219,45.549 69.592,46.09 C66.172,48.877 64.573,49.95 60.035,50.344 C59.034,50.23 58.032,50.117 57,50 C55.875,47.75 55.875,47.75 55,45 C56.283,41.15 58.814,39.273 61.938,36.812 C64.991,34.406 67.992,32.007 70.891,29.414 C78.776,22.431 78.776,22.431 83.562,22.25 Z"/>
  <path fill="#5C3C35" d="M77,24 C77.99,24.33 78.98,24.66 80,25 C79.01,26.485 79.01,26.485 78,28 C77.34,28 76.68,28 76,28 C76,28.66 76,29.32 76,30 C76.66,30.33 77.32,30.66 78,31 C76.35,31.66 74.7,32.32 73,33 C73,33.66 73,34.32 73,35 C73.969,34.814 74.939,34.629 75.938,34.438 C77.453,34.221 77.453,34.221 79,34 C80.777,35.777 80.12,38.152 80.124,40.519 C80.121,41.31 80.117,42.101 80.114,42.916 C80.114,43.745 80.114,44.575 80.114,45.429 C80.113,48.183 80.105,50.937 80.098,53.691 C80.096,55.596 80.094,57.5 80.093,59.404 C80.09,64.427 80.08,69.449 80.069,74.471 C80.058,79.592 80.054,84.713 80.049,89.834 C80.038,99.889 80.021,109.945 80,120 C77.523,117.523 77.765,116.117 77.751,112.738 C77.758,112.006 77.766,111.275 77.773,110.521 C77.773,109.75 77.772,108.979 77.772,108.185 C77.773,105.631 77.789,103.077 77.805,100.523 C77.808,98.755 77.811,96.987 77.813,95.218 C77.821,90.559 77.841,85.9 77.863,81.241 C77.883,76.489 77.892,71.737 77.902,66.984 C77.924,57.656 77.958,48.328 78,39 C77.071,39.794 76.141,40.588 75.184,41.406 C73.936,42.438 72.687,43.47 71.438,44.5 C70.828,45.025 70.219,45.549 69.592,46.09 C66.172,48.877 64.573,49.95 60.035,50.344 C59.034,50.23 58.032,50.117 57,50 C54.801,45.602 54.801,45.602 55.629,43.094 C57.407,40.378 59.506,38.749 62.062,36.75 C67.201,32.662 72.135,28.408 77,24 Z"/>
  <path fill="#73554B" d="M66,36 C67.32,36 68.64,36 70,36 C70.688,37.688 70.688,37.688 71,40 C69.177,44.05 66.772,46.665 63,49 C60.312,49.062 60.312,49.062 58,48 C56.688,45.438 56.688,45.438 56,43 C60.625,40 60.625,40 64,40 C64.66,38.68 65.32,37.36 66,36 Z"/>
  <path fill="#513832" d="M74,39 C74.66,39.33 75.32,39.66 76,40 C74.163,41.689 72.309,43.349 70.438,45 C69.924,45.477 69.41,45.954 68.881,46.445 C65.824,49.104 64.185,49.985 60.098,50.312 C59.075,50.209 58.053,50.106 57,50 C56.34,48.35 55.68,46.7 55,45 C55.66,44.67 56.32,44.34 57,44 C57.66,45.32 58.32,46.64 59,48 C63.503,47.489 65.875,45.825 69.312,42.938 C70.196,42.204 71.079,41.471 71.988,40.715 C72.652,40.149 73.316,39.583 74,39 Z"/>
  <path fill="#5C4332" d="M68,32 C68.66,32.33 69.32,32.66 70,33 C66.164,38.129 63.098,40.927 57,43 C57,42.34 57,41.68 57,41 C58.781,39.398 60.625,37.866 62.5,36.375 C63.521,35.558 64.542,34.74 65.594,33.898 C66.388,33.272 67.182,32.645 68,32 Z"/>
  <path fill="#5A4333" d="M77,24 C77.99,24.33 78.98,24.66 80,25 C77.875,28.188 76.335,29.249 73,31 C72.34,31 71.68,31 71,31 C71,30.34 71,29.68 71,29 C73.812,26.312 73.812,26.312 77,24 Z"/>
</svg>
