<svg xmlns="http://www.w3.org/2000/svg" version="1.1" width="195" height="216">
  <defs/>
  <path fill="#40007F" d="M124.82,17.805 C125.911,17.828 127.001,17.851 128.125,17.875 C129.221,17.893 130.316,17.911 131.445,17.93 C132.71,17.964 132.71,17.964 134,18 C134.99,20.475 134.99,20.475 136,23 C135.355,23.454 134.711,23.907 134.047,24.375 C130.963,28.33 131.324,32.11 131.25,37 C131.222,37.947 131.194,38.894 131.165,39.869 C131.09,42.579 131.041,45.289 131,48 C130.972,49.186 130.943,50.372 130.914,51.594 C130.876,54.402 130.912,57.193 131,60 C131.028,61.063 131.057,62.127 131.086,63.223 C131.65,74.715 134.285,83.666 142.812,91.625 C145.88,94.123 145.88,94.123 149.438,95.375 C159.1,99.782 162.891,108.76 167,118 C168.435,122.305 168.353,126.692 168.518,131.195 C168.701,134.937 168.877,136.815 171,140 C173.242,157.451 170.35,175.058 161,190 C158.106,193.332 156.104,195.501 151.688,196.188 C148.723,196.696 145.937,197.303 143.062,198.188 C137.524,199.542 131.892,199.574 126.797,196.801 C124.739,195.305 122.869,193.724 121,192 C120.165,191.265 120.165,191.265 119.312,190.516 C111.655,183.395 105.516,170.985 104.839,160.505 C104.531,139.953 104.34,117.262 119,101 C119.995,99.995 120.994,98.994 122,98 C122.433,97.484 122.866,96.969 123.312,96.438 C125.637,94.458 128.097,93.839 131,93 C130.602,92.357 130.203,91.714 129.793,91.051 C129.263,90.147 128.733,89.244 128.188,88.312 C127.665,87.442 127.143,86.572 126.605,85.676 C121.449,75.083 121.487,63.193 121.312,51.688 C121.279,50.157 121.245,48.626 121.209,47.096 C121.125,43.397 121.058,39.699 121,36 C119.515,36.495 119.515,36.495 118,37 C118,37.66 118,38.32 118,39 C117.34,39 116.68,39 116,39 C115.754,39.549 115.508,40.098 115.254,40.664 C113.741,43.482 111.9,45.849 109.938,48.375 C105.677,53.951 101.811,59.717 98.09,65.664 C96.777,67.76 95.439,69.841 94.066,71.898 C90.947,76.599 90.947,76.599 89.812,82 C91.248,85.627 93.043,89.007 94.859,92.457 C96.455,96.014 96.719,99.133 97,103 C97.33,103.33 97.66,103.66 98,104 C98.984,112.196 95.845,119.46 93,127 C92.638,128 92.638,128 92.27,129.02 C87.881,140.998 80.948,152.836 70,160 C69.154,160.33 68.309,160.66 67.438,161 C64.982,161.796 64.982,161.796 63.688,163.5 C59.211,167.479 53.073,167.147 47.438,166.875 C39.985,166.118 35.778,164.153 30.688,158.562 C24.444,150.758 24.525,141.617 25,132 C26.087,122.793 28.66,112.953 35,106 C35.681,104.824 35.681,104.824 36.375,103.625 C38.183,100.704 40.266,98.26 42.535,95.691 C44.126,93.901 44.126,93.901 45.875,91.438 C52.469,83.873 61.814,78.492 71.883,77.691 C75.271,77.688 78.62,77.775 82,78 C82.272,77.109 82.544,76.219 82.824,75.301 C83.902,72.275 85.111,69.894 86.812,67.188 C89.687,62.532 92.379,57.802 95,53 C95.66,53 96.32,53 97,53 C97.063,52.316 97.126,51.631 97.191,50.926 C98.286,46.966 100.408,44.37 102.938,41.188 C103.393,40.59 103.849,39.993 104.318,39.377 C105.491,37.874 106.741,36.431 108,35 C108.66,35 109.32,35 110,35 C110,34.34 110,33.68 110,33 C111.461,31.492 111.461,31.492 113.375,29.875 C114.001,29.336 114.628,28.797 115.273,28.242 C117,27 117,27 119,27 C119.186,25.329 119.186,25.329 119.375,23.625 C120.109,19.367 120.41,18.11 124.82,17.805 Z"/>
  <path fill="#40007F" d="M131.125,93 C133,94 133,94 134.25,97.062 C134.497,98.032 134.745,99.001 135,100 C139.742,99.055 139.742,99.055 143.5,96.312 C145,95 145,95 148.188,94.812 C154.89,96.9 158.707,101.483 162.027,107.539 C166.214,115.624 168.188,122.15 168.518,131.195 C168.701,134.937 168.877,136.815 171,140 C173.242,157.451 170.35,175.058 161,190 C158.106,193.332 156.104,195.501 151.688,196.188 C148.723,196.696 145.937,197.303 143.062,198.188 C137.524,199.542 131.892,199.574 126.797,196.801 C124.739,195.305 122.869,193.724 121,192 C120.443,191.51 119.886,191.02 119.312,190.516 C111.655,183.395 105.516,170.985 104.839,160.505 C104.531,139.953 104.34,117.262 119,101 C119.993,99.993 120.992,98.992 122,98 C122.474,97.484 122.949,96.969 123.438,96.438 C125.858,94.21 127.786,93 131.125,93 Z"/>
  <path fill="#755347" d="M124.82,17.805 C125.911,17.828 127.001,17.851 128.125,17.875 C129.221,17.893 130.316,17.911 131.445,17.93 C132.71,17.964 132.71,17.964 134,18 C134.66,19.65 135.32,21.3 136,23 C135.355,23.454 134.711,23.907 134.047,24.375 C130.963,28.33 131.324,32.11 131.25,37 C131.222,37.947 131.194,38.894 131.165,39.869 C131.09,42.579 131.041,45.289 131,48 C130.957,49.779 130.957,49.779 130.914,51.594 C130.876,54.402 130.912,57.193 131,60 C131.028,61.063 131.057,62.127 131.086,63.223 C131.544,72.55 133.138,82.138 140,89 C141.959,90.732 143.952,92.371 146,94 C144.438,96.438 144.438,96.438 142,99 C138.25,99.812 138.25,99.812 135,100 C134.732,99.031 134.464,98.061 134.188,97.062 C133.796,96.052 133.404,95.041 133,94 C132.01,93.67 131.02,93.34 130,93 C129,90.812 129,90.812 128,88 C127.526,87.175 127.051,86.35 126.562,85.5 C121.733,74.681 121.489,63.31 121.312,51.688 C121.279,50.157 121.245,48.626 121.209,47.096 C121.125,43.397 121.058,39.699 121,36 C120.01,36.33 119.02,36.66 118,37 C118,37.66 118,38.32 118,39 C117.34,39 116.68,39 116,39 C115.754,39.549 115.508,40.098 115.254,40.664 C113.741,43.482 111.9,45.849 109.938,48.375 C105.674,53.955 101.807,59.725 98.082,65.676 C96.794,67.732 95.483,69.775 94.137,71.793 C90.541,77.329 89.214,81.378 89,88 C81.697,88.359 81.697,88.359 78.938,86.938 C77.448,83.858 78.325,81.251 79,78 C79.99,78 80.98,78 82,78 C82.309,76.824 82.309,76.824 82.625,75.625 C84.147,71.613 86.154,68.253 88.402,64.613 C90.727,60.811 92.865,56.911 95,53 C95.66,53 96.32,53 97,53 C97.063,52.316 97.126,51.631 97.191,50.926 C98.286,46.966 100.408,44.37 102.938,41.188 C103.393,40.59 103.849,39.993 104.318,39.377 C105.491,37.874 106.741,36.431 108,35 C108.66,35 109.32,35 110,35 C110,34.34 110,33.68 110,33 C111.461,31.492 111.461,31.492 113.375,29.875 C114.001,29.336 114.628,28.797 115.273,28.242 C117,27 117,27 119,27 C119.186,25.329 119.186,25.329 119.375,23.625 C120.109,19.367 120.41,18.11 124.82,17.805 Z"/>
  <path fill="#56206B" d="M120,104 C119.376,106.952 118.644,108.609 117.062,111.312 C114.326,116.527 114.002,122.14 113.395,127.902 C113,131 113,131 112,132 C111.789,134.079 111.631,136.164 111.5,138.25 C111.294,141.507 111.084,144.604 110.406,147.797 C109.765,150.033 109.765,150.033 111,152 C111.071,154.207 111.084,156.417 111.062,158.625 C111.053,159.814 111.044,161.002 111.035,162.227 C111.018,163.599 111.018,163.599 111,165 C111.66,165 112.32,165 113,165 C114.968,170.823 116.402,175.834 116,182 C116.959,182.217 116.959,182.217 117.938,182.438 C120,183 120,183 121,184 C121.041,185.666 121.043,187.334 121,189 C114.89,186.967 112.921,183.544 110,178 C101.149,159.905 103.345,137.086 109.137,118.316 C114.196,104 114.196,104 120,104 Z"/>
  <path fill="#6C4347" d="M94,103 C96.062,103.438 96.062,103.438 98,104 C98.842,112.249 95.863,119.411 93,127 C92.638,128 92.638,128 92.27,129.02 C88.026,140.603 81.006,153.506 70,160 C68.68,160 67.36,160 66,160 C65.75,157.688 65.75,157.688 66,155 C67.812,153.188 67.812,153.188 70,152 C70.99,152 71.98,152 73,152 C73.26,151.435 73.521,150.871 73.789,150.289 C75.114,147.784 76.681,145.646 78.375,143.375 C82.996,136.847 86.155,130.025 87,122 C87.66,122 88.32,122 89,122 C89.33,119.69 89.66,117.38 90,115 C90.99,114.67 91.98,114.34 93,114 C92.988,113.29 92.977,112.579 92.965,111.848 C92.956,110.929 92.947,110.009 92.938,109.062 C92.926,108.146 92.914,107.229 92.902,106.285 C93,104 93,104 94,103 Z"/>
  <path fill="#775357" d="M167,138 C168.32,138.66 169.64,139.32 171,140 C171.496,158.712 171.63,177.987 158.449,192.883 C156,195 156,195 153.188,195.312 C152.105,195.158 152.105,195.158 151,195 C150.67,193.35 150.34,191.7 150,190 C150.557,189.938 151.114,189.876 151.688,189.812 C155.088,188.618 156.728,186.763 159,184 C159.88,180.818 159.88,180.818 160,178 C160.99,178 161.98,178 163,178 C162.959,177.216 162.917,176.432 162.875,175.625 C163.036,170.947 163.991,166.559 165,162 C165.66,162 166.32,162 167,162 C167,154.08 167,146.16 167,138 Z"/>
  <path fill="#6A4648" d="M35,110 C34.884,111.397 34.757,112.792 34.625,114.188 C34.555,114.965 34.486,115.742 34.414,116.543 C34,119 34,119 33,121.268 C31.866,124.366 31.683,126.882 31.586,130.176 C31.547,131.333 31.509,132.49 31.469,133.682 C31.422,135.479 31.422,135.479 31.375,137.312 C31.336,138.53 31.298,139.748 31.258,141.002 C31.164,144.001 31.078,147 31,150 C29.02,150.495 29.02,150.495 27,151 C22.383,138.304 25.641,125.454 29.902,113.152 C31.148,110.711 32.075,110 35,110 Z"/>
  <path fill="#61374C" d="M120,104 C119.376,106.952 118.644,108.609 117.062,111.312 C113.902,117.346 113.661,124.322 113,131 C112.01,131.33 111.02,131.66 110,132 C110,135.96 110,139.92 110,144 C107.525,144.495 107.525,144.495 105,145 C104.704,132.929 106.995,114.867 115.688,105.688 C118,104 118,104 120,104 Z"/>
  <path fill="#724C4F" d="M149,97 C154.198,97.666 155.978,99.549 159.223,103.469 C164.299,110.699 168.158,118.3 168.062,127.188 C168.053,128.274 168.044,129.361 168.035,130.48 C168.024,131.312 168.012,132.143 168,133 C167.01,133 166.02,133 165,133 C164.723,131.819 164.446,130.638 164.16,129.422 C163.794,127.865 163.428,126.307 163.062,124.75 C162.88,123.973 162.698,123.195 162.51,122.395 C162.333,121.64 162.155,120.886 161.973,120.109 C161.729,119.072 161.729,119.072 161.481,118.015 C161.001,116.006 160.505,114.002 160,112 C159.34,112 158.68,112 158,112 C156.344,109.734 156.344,109.734 154.5,106.75 C153.892,105.775 153.283,104.801 152.656,103.797 C151.333,101.562 150.116,99.343 149,97 Z"/>
  <path fill="#663D4C" d="M64,82 C64,82.99 64,83.98 64,85 C62.68,86.281 62.68,86.281 60.875,87.5 C60.238,87.936 59.601,88.371 58.945,88.82 C57,90 57,90 53.75,91.375 C49.908,93.646 49.413,95.839 48,100 C46.35,100 44.7,100 43,100 C42.67,99.01 42.34,98.02 42,97 C46.277,88.607 54.437,81.742 64,82 Z"/>
  <path fill="#60315A" d="M94,103 C96.062,103.438 96.062,103.438 98,104 C98.194,109.527 97.748,113.756 96,119 C94.35,118.67 92.7,118.34 91,118 C91,120.31 91,122.62 91,125 C90.34,125 89.68,125 89,125 C88.897,125.516 88.794,126.031 88.688,126.562 C87.755,129.868 86.464,132.896 85,136 C84.01,136.495 84.01,136.495 83,137 C83.205,136.42 83.41,135.84 83.621,135.242 C85.14,130.838 86.405,126.643 87,122 C87.66,122 88.32,122 89,122 C89.33,119.69 89.66,117.38 90,115 C90.99,114.67 91.98,114.34 93,114 C92.988,113.29 92.977,112.579 92.965,111.848 C92.951,110.469 92.951,110.469 92.938,109.062 C92.926,108.146 92.914,107.229 92.902,106.285 C93,104 93,104 94,103 Z"/>
  <path fill="#704B4D" d="M106,151 C108.782,153.782 109.102,156.966 109.938,160.688 C110.885,164.894 111.861,168.886 113.617,172.836 C114.958,175.905 115.299,177.71 115,181 C111.475,179.388 110.167,178.337 108.418,174.812 C107.984,173.549 107.575,172.278 107.188,171 C106.976,170.337 106.764,169.673 106.546,168.99 C104.867,163.357 104.188,157.868 105,152 C105.33,151.67 105.66,151.34 106,151 Z"/>
  <path fill="#56216F" d="M164,129 C164.33,130.32 164.66,131.64 165,133 C165.99,133 166.98,133 168,133 C168.66,135.31 169.32,137.62 170,140 C169.34,139.67 168.68,139.34 168,139 C167.67,146.59 167.34,154.18 167,162 C166.34,162 165.68,162 165,162 C165.062,163.732 165.062,163.732 165.125,165.5 C165.141,169.945 164.218,173.737 163,178 C162.01,178 161.02,178 160,178 C160.062,178.928 160.124,179.856 160.188,180.812 C160,184 160,184 158.625,185.875 C157,187 157,187 155,187 C154.67,187.66 154.34,188.32 154,189 C154,185 154,185 155.375,183.25 C157,182 157,182 159,182 C159,180.35 159,178.7 159,177 C159.66,177 160.32,177 161,177 C161,174.69 161,172.38 161,170 C162.485,169.505 162.485,169.505 164,169 C163.988,168.218 163.977,167.435 163.965,166.629 C163.956,165.617 163.947,164.605 163.938,163.562 C163.926,162.553 163.914,161.544 163.902,160.504 C164,158 164,158 165,157 C165.099,155.377 165.131,153.751 165.133,152.125 C165.134,151.14 165.135,150.155 165.137,149.141 C165.133,148.104 165.129,147.068 165.125,146 C165.129,144.964 165.133,143.927 165.137,142.859 C165.135,141.875 165.134,140.89 165.133,139.875 C165.132,138.965 165.131,138.055 165.129,137.117 C165.236,135.015 165.236,135.015 164,134 C163.959,132.334 163.957,130.666 164,129 Z"/>
  <path fill="#511E62" d="M89,84 C92.952,85.976 94.48,91.033 96,95 C96.376,97.834 96.266,100.132 96,103 C95.34,103.33 94.68,103.66 94,104 C93.532,106.356 93.532,106.356 93.375,109.062 C93.3,109.982 93.225,110.901 93.148,111.848 C93.099,112.558 93.05,113.268 93,114 C92.67,114 92.34,114 92,114 C92,108.06 92,102.12 92,96 C91.34,96 90.68,96 90,96 C90,94.35 90,92.7 90,91 C88.639,90.783 88.639,90.783 87.25,90.562 C84.785,90.136 82.412,89.649 80,89 C80.33,88.34 80.66,87.68 81,87 C83.64,87.33 86.28,87.66 89,88 C89,86.68 89,85.36 89,84 Z"/>
  <path fill="#86351D" d="M34,155 C39.239,154.571 39.239,154.571 42,155 C44.062,157.125 44.062,157.125 45,160 C44.688,163.312 44.688,163.312 44,166 C38.371,165.598 35.996,163.711 32,160 C32.66,158.35 33.32,156.7 34,155 Z"/>
  <path fill="#653858" d="M35,110 C34.884,111.397 34.757,112.792 34.625,114.188 C34.555,114.965 34.486,115.742 34.414,116.543 C34,119 34,119 33,121.268 C31.866,124.366 31.683,126.882 31.586,130.176 C31.547,131.333 31.509,132.49 31.469,133.682 C31.438,134.88 31.407,136.078 31.375,137.312 C31.336,138.53 31.298,139.748 31.258,141.002 C31.164,144.001 31.078,147 31,150 C30.67,150 30.34,150 30,150 C27.943,143.314 27.519,136.987 28,130 C28.33,129.67 28.66,129.34 29,129 C29.263,127.025 29.522,125.05 29.742,123.07 C30,121 30,121 30.625,118.125 C31.226,115.955 31.226,115.955 30,114 C30.33,113.01 30.66,112.02 31,111 C34,110 34,110 35,110 Z"/>
  <path fill="#70272F" d="M143,190 C145,192 145,192 145,195 C144.34,195 143.68,195 143,195 C143,195.99 143,196.98 143,198 C136.375,199.125 136.375,199.125 133,198 C132.781,195.297 132.671,193.56 134.062,191.188 C137.055,189.353 139.578,189.689 143,190 Z"/>
  <path fill="#552465" d="M48,97 C48.33,98.32 48.66,99.64 49,101 C46.69,101 44.38,101 42,101 C42,102.98 42,104.96 42,107 C40.35,107.33 38.7,107.66 37,108 C37.062,109.093 37.124,110.186 37.188,111.312 C37,115 37,115 35.5,116.938 C35.005,117.288 34.51,117.639 34,118 C34,115.69 34,113.38 34,111 C33.34,110.67 32.68,110.34 32,110 C32.433,109.443 32.866,108.886 33.312,108.312 C35.051,106.012 35.051,106.012 36.5,103.438 C37.848,101.248 39.025,99.631 41,98 C41.66,98 42.32,98 43,98 C43,98.66 43,99.32 43,100 C44.65,100 46.3,100 48,100 C48,99.01 48,98.02 48,97 Z"/>
  <path fill="#7F5D54" d="M168,141 C168.99,141 169.98,141 171,141 C171.029,144.396 171.047,147.792 171.062,151.188 C171.071,152.147 171.079,153.107 171.088,154.096 C171.091,155.027 171.094,155.958 171.098,156.918 C171.103,157.772 171.108,158.625 171.114,159.505 C170.996,162.092 170.571,164.477 170,167 C168.68,166.67 167.36,166.34 166,166 C166,165.01 166,164.02 166,163 C166.66,163 167.32,163 168,163 C168,155.74 168,148.48 168,141 Z"/>
  <path fill="#4C0F70" d="M33,119 C33.33,119 33.66,119 34,119 C34.043,120.666 34.041,122.334 34,124 C33.67,124.33 33.34,124.66 33,125 C32.841,127.144 32.749,129.293 32.684,131.441 C32.642,132.747 32.6,134.052 32.557,135.396 C32.517,136.785 32.477,138.174 32.438,139.562 C32.394,140.955 32.351,142.348 32.307,143.74 C32.2,147.16 32.098,150.58 32,154 C35.96,154 39.92,154 44,154 C43.67,154.99 43.34,155.98 43,157 C42.67,156.67 42.34,156.34 42,156 C39.329,155.859 36.676,155.958 34,156 C33.67,156.99 33.34,157.98 33,159 C30,158 30,158 28,155 C28,153.68 28,152.36 28,151 C28.66,150.67 29.32,150.34 30,150 C30.02,149.239 30.04,148.477 30.06,147.693 C30.155,144.232 30.265,140.772 30.375,137.312 C30.406,136.114 30.437,134.916 30.469,133.682 C30.507,132.525 30.546,131.368 30.586,130.176 C30.633,128.581 30.633,128.581 30.681,126.954 C31.004,123.967 31.748,121.717 33,119 Z"/>
  <path fill="#724B52" d="M110,122 C110.66,122 111.32,122 112,122 C112.125,129.75 112.125,129.75 111,132 C110.771,134.037 110.59,136.08 110.438,138.125 C110.354,139.221 110.27,140.316 110.184,141.445 C110.123,142.288 110.062,143.131 110,144 C108.35,144.33 106.7,144.66 105,145 C104.624,138.605 104.624,138.605 106.438,135.688 C108.479,132.177 108.54,129.113 108.789,125.109 C109,123 109,123 110,122 Z"/>
  <path fill="#86665B" d="M128,35 C128.33,35 128.66,35 129,35 C129.72,43.687 130.144,52.283 130,61 C129.01,61 128.02,61 127,61 C126.971,56.854 126.953,52.708 126.938,48.562 C126.929,47.378 126.921,46.194 126.912,44.975 C126.909,43.85 126.906,42.725 126.902,41.566 C126.897,40.524 126.892,39.482 126.886,38.408 C127,36 127,36 128,35 Z"/>
  <path fill="#582566" d="M119,101 C120.32,101.66 121.64,102.32 123,103 C123,103.99 123,104.98 123,106 C122.34,106 121.68,106 121,106 C121,107.65 121,109.3 121,111 C120.34,111 119.68,111 119,111 C117.389,114.651 116.551,118.051 116,122 C115.01,122 114.02,122 113,122 C114.203,115.108 116.321,109.939 120,104 C118.68,104.33 117.36,104.66 116,105 C116.99,103.68 117.98,102.36 119,101 Z"/>
  <path fill="#55206D" d="M71,80 C70.34,80.66 69.68,81.32 69,82 C68.01,82 67.02,82 66,82 C65.917,83.139 65.917,83.139 65.832,84.301 C65,87 65,87 62.637,88.73 C61.663,89.211 60.69,89.692 59.688,90.188 C58.722,90.676 57.756,91.165 56.762,91.668 C55.85,92.108 54.939,92.547 54,93 C52.666,93.666 51.333,94.332 50,95 C51.258,91.227 52.494,90.825 55.875,88.875 C56.759,88.357 57.644,87.839 58.555,87.305 C61,86 61,86 64,85 C64,84.01 64,83.02 64,82 C63.01,81.67 62.02,81.34 61,81 C64.215,79.393 67.436,79.943 71,80 Z"/>
  <path fill="#531A68" d="M133,94 C133.33,95.32 133.66,96.64 134,98 C131.03,97.505 131.03,97.505 128,97 C128,98.32 128,99.64 128,101 C126.35,101 124.7,101 123,101 C122.67,100.01 122.34,99.02 122,98 C125.351,94.314 128.035,92.227 133,94 Z"/>
  <path fill="#541E6A" d="M145,95 C147.31,95.33 149.62,95.66 152,96 C151.01,96.33 150.02,96.66 149,97 C149.422,97.531 149.843,98.062 150.277,98.609 C150.825,99.316 151.373,100.022 151.938,100.75 C152.483,101.446 153.028,102.142 153.59,102.859 C154.974,104.961 155.563,106.543 156,109 C155.34,109 154.68,109 154,109 C154,108.01 154,107.02 154,106 C153.34,106 152.68,106 152,106 C149.375,103.75 149.375,103.75 147,101 C147,99.68 147,98.36 147,97 C145.35,97.66 143.7,98.32 142,99 C142.99,97.68 143.98,96.36 145,95 Z"/>
  <path fill="#7E5D54" d="M94,103 C95.32,103.33 96.64,103.66 98,104 C98.25,111.625 98.25,111.625 96,115 C95.01,115.495 95.01,115.495 94,116 C94,111.71 94,107.42 94,103 Z"/>
  <path fill="#623A49" d="M64,82 C64,82.99 64,83.98 64,85 C60.667,88 60.667,88 58,88 C58,87.01 58,86.02 58,85 C53.545,87.97 53.545,87.97 49,91 C48.67,90.34 48.34,89.68 48,89 C49.267,88.016 50.539,87.038 51.812,86.062 C52.52,85.517 53.228,84.972 53.957,84.41 C57.318,82.09 60.027,81.893 64,82 Z"/>
  <path fill="#765350" d="M93,117 C93.66,117.66 94.32,118.32 95,119 C94.625,121.625 94.625,121.625 94,124 C93.34,124 92.68,124 92,124 C91.807,124.626 91.613,125.253 91.414,125.898 C91.154,126.716 90.893,127.533 90.625,128.375 C90.37,129.187 90.115,129.999 89.852,130.836 C89,133 89,133 87,135 C87.458,131.531 87.891,128.326 89,125 C89.66,125 90.32,125 91,125 C91,122.69 91,120.38 91,118 C91.66,117.67 92.32,117.34 93,117 Z"/>
  <path fill="#4F1474" d="M96,95 C96,97.64 96,100.28 96,103 C95.01,103.495 95.01,103.495 94,104 C93.532,106.356 93.532,106.356 93.375,109.062 C93.3,109.982 93.225,110.901 93.148,111.848 C93.099,112.558 93.05,113.268 93,114 C92.67,114 92.34,114 92,114 C92,108.06 92,102.12 92,96 C95,95 95,95 96,95 Z"/>
  <path fill="#734D54" d="M56,85 C56.66,85 57.32,85 58,85 C57.75,87.375 57.75,87.375 57,90 C54.102,92.099 52.716,92 49,92 C49,92.66 49,93.32 49,94 C48.34,94 47.68,94 47,94 C47.062,92.25 47.062,92.25 48,90 C50.237,88.422 52.558,87.265 55,86 C55.33,85.67 55.66,85.34 56,85 Z"/>
  <path fill="#673C57" d="M131,92 C133.062,92.438 133.062,92.438 135,93 C135.33,94.65 135.66,96.3 136,98 C137.98,97.67 139.96,97.34 142,97 C142,96.34 142,95.68 142,95 C142.99,95.33 143.98,95.66 145,96 C140.692,99.938 140.692,99.938 137.188,100.25 C136.105,100.126 136.105,100.126 135,100 C134.732,99.031 134.464,98.061 134.188,97.062 C133.796,96.052 133.404,95.041 133,94 C132.01,93.67 131.02,93.34 130,93 C130.33,92.67 130.66,92.34 131,92 Z"/>
  <path fill="#633E3E" d="M111,115 C111.33,115 111.66,115 112,115 C112,117.31 112,119.62 112,122 C111.01,122.495 111.01,122.495 110,123 C109.583,125.152 109.265,127.324 109,129.5 C108.735,131.676 108.417,133.848 108,136 C107.34,136.33 106.68,136.66 106,137 C107.743,121.071 107.743,121.071 111,115 Z"/>
  <path fill="#734947" d="M64,161 C63.438,162.938 63.438,162.938 62,165 C58.5,165.875 58.5,165.875 55,166 C54.34,165.34 53.68,164.68 53,164 C56.833,161.294 59.325,160.674 64,161 Z"/>
  <path fill="#582168" d="M65,156 C65.33,156 65.66,156 66,156 C66,157.65 66,159.3 66,161 C64,162 64,162 61.188,161.938 C57.939,162.001 55.912,162.63 53,164 C53,163.34 53,162.68 53,162 C53.66,162 54.32,162 55,162 C55.33,161.01 55.66,160.02 56,159 C62.75,157.875 62.75,157.875 65,159 C65,158.01 65,157.02 65,156 Z"/>
  <path fill="#4E1470" d="M48,97 C48.33,98.32 48.66,99.64 49,101 C46.69,101 44.38,101 42,101 C42,102.98 42,104.96 42,107 C41.34,107 40.68,107 40,107 C40,105.68 40,104.36 40,103 C39.01,102.67 38.02,102.34 37,102 C38.29,100.624 39.627,99.292 41,98 C41.66,98 42.32,98 43,98 C43,98.66 43,99.32 43,100 C44.65,100 46.3,100 48,100 C48,99.01 48,98.02 48,97 Z"/>
  <path fill="#623179" d="M163,170 C164.431,172.862 163.6,174.934 163,178 C162.01,178 161.02,178 160,178 C160.062,178.928 160.124,179.856 160.188,180.812 C160,184 160,184 158.625,185.875 C157,187 157,187 155,187 C154.67,187.66 154.34,188.32 154,189 C154,185 154,185 155.375,183.25 C157,182 157,182 159,182 C159,180.35 159,178.7 159,177 C159.99,177 160.98,177 162,177 C161.979,176.031 161.959,175.061 161.938,174.062 C162,171 162,171 163,170 Z"/>
  <path fill="#6B4342" d="M106,151 C108.762,153.762 108.579,156.207 109,160 C108.67,160 108.34,160 108,160 C107.67,161.98 107.34,163.96 107,166 C104.738,162.608 104.755,161.348 104.812,157.375 C104.819,156.393 104.825,155.41 104.832,154.398 C105,152 105,152 106,151 Z"/>
  <path fill="#4C1278" d="M113,122 C113.66,122.33 114.32,122.66 115,123 C115.054,124.958 115.093,126.916 115.125,128.875 C115.148,129.966 115.171,131.056 115.195,132.18 C115,135 115,135 113,137 C112.352,139.571 112.352,139.571 112,142 C111.67,142 111.34,142 111,142 C110.973,140.354 110.954,138.708 110.938,137.062 C110.926,136.146 110.914,135.229 110.902,134.285 C111,132 111,132 112,131 C112.232,129.485 112.412,127.962 112.562,126.438 C112.646,125.611 112.73,124.785 112.816,123.934 C112.877,123.296 112.938,122.657 113,122 Z"/>
  <path fill="#795652" d="M32,115 C32.68,120.273 30.248,124.394 28,129 C26.699,125.096 27.04,121.972 28,118 C30.25,115 30.25,115 32,115 Z"/>
  <path fill="#550F67" d="M135,189 C136.458,188.946 137.916,188.907 139.375,188.875 C140.187,188.852 140.999,188.829 141.836,188.805 C144,189 144,189 146,191 C146,191.99 146,192.98 146,194 C146.66,194 147.32,194 148,194 C147.67,194.99 147.34,195.98 147,197 C144.938,197.688 144.938,197.688 143,198 C143,197.01 143,196.02 143,195 C143.66,195 144.32,195 145,195 C144.34,193.68 143.68,192.36 143,191 C138.349,190.731 138.349,190.731 134,192 C134.33,191.01 134.66,190.02 135,189 Z"/>
  <path fill="#7D6056" d="M107,36 C107.99,36.99 108.98,37.98 110,39 C109.01,40.485 109.01,40.485 108,42 C107.34,42 106.68,42 106,42 C105.34,43.65 104.68,45.3 104,47 C103.34,47 102.68,47 102,47 C103.077,42.692 104.039,39.364 107,36 Z"/>
  <path fill="#704753" d="M157,186 C157.33,186.66 157.66,187.32 158,188 C157.34,188 156.68,188 156,188 C155.34,189.32 154.68,190.64 154,192 C154.99,192.66 155.98,193.32 157,194 C156,195 156,195 153.438,195.062 C152.633,195.042 151.829,195.021 151,195 C150.67,193.35 150.34,191.7 150,190 C150.598,189.897 151.196,189.794 151.812,189.688 C154.282,188.911 155.323,187.929 157,186 Z"/>
  <path fill="#953F03" d="M36,156 C37.666,155.957 39.334,155.959 41,156 C42,157 42,157 42.062,159.562 C42.042,160.367 42.021,161.171 42,162 C40.35,161.67 38.7,161.34 37,161 C36.67,159.35 36.34,157.7 36,156 Z"/>
  <path fill="#663957" d="M75,148 C75,151.94 73.538,153.089 71,156 C69,158 69,158 66,159 C66,157.68 66,156.36 66,155 C68.505,152.582 69.46,152 73,152 C73.66,150.68 74.32,149.36 75,148 Z"/>
  <path fill="#923C07" d="M136,191 C137.98,191 139.96,191 142,191 C142,192.65 142,194.3 142,196 C140.02,196 138.04,196 136,196 C136,194.35 136,192.7 136,191 Z"/>
  <path fill="#531568" d="M44,158 C44.99,158.495 44.99,158.495 46,159 C46,160.65 46,162.3 46,164 C47.671,163.969 47.671,163.969 49.375,163.938 C53,164 53,164 55,165 C54.67,165.66 54.34,166.32 54,167 C50.7,166.67 47.4,166.34 44,166 C44,163.36 44,160.72 44,158 Z"/>
  <path fill="#6C1F32" d="M34,155 C39.239,154.571 39.239,154.571 42,155 C44.062,157.125 44.062,157.125 45,160 C44.688,163.312 44.688,163.312 44,166 C42.35,165.67 40.7,165.34 39,165 C39.99,164.34 40.98,163.68 42,163 C42.333,160.458 42.333,160.458 42,158 C40.032,156.032 36.652,156.338 34,156 C34,155.67 34,155.34 34,155 Z"/>
  <path fill="#541F69" d="M156,109 C156.99,109.495 156.99,109.495 158,110 C158,110.66 158,111.32 158,112 C158.66,112 159.32,112 160,112 C162.227,116.744 163.461,120.723 164,126 C163.34,126 162.68,126 162,126 C160.829,122.019 159.743,118.084 159,114 C158.34,114 157.68,114 157,114 C156.67,112.35 156.34,110.7 156,109 Z"/>
  <path fill="#54166D" d="M119,101 C120.32,101.66 121.64,102.32 123,103 C123,103.99 123,104.98 123,106 C122.34,106 121.68,106 121,106 C121,107.65 121,109.3 121,111 C120.34,111 119.68,111 119,111 C118.67,111.66 118.34,112.32 118,113 C118.66,110.03 119.32,107.06 120,104 C118.68,104.33 117.36,104.66 116,105 C116.99,103.68 117.98,102.36 119,101 Z"/>
  <path fill="#673C63" d="M168,124 C168,126.97 168,129.94 168,133 C167.01,133 166.02,133 165,133 C164.67,130.36 164.34,127.72 164,125 C166,124 166,124 168,124 Z"/>
  <path fill="#724C4E" d="M118,104 C118.66,104 119.32,104 120,104 C119.356,107.012 118.35,109.517 116.938,112.25 C116.575,112.956 116.213,113.663 115.84,114.391 C115.563,114.922 115.286,115.453 115,116 C114.34,116 113.68,116 113,116 C113.474,111.021 114.91,107.933 118,104 Z"/>
  <path fill="#86665D" d="M166,166 C167.32,166.33 168.64,166.66 170,167 C169.67,168.65 169.34,170.3 169,172 C168.34,172 167.68,172 167,172 C166.67,172.66 166.34,173.32 166,174 C166,171.36 166,168.72 166,166 Z"/>
  <path fill="#6F4B4D" d="M94,103 C95.32,103.33 96.64,103.66 98,104 C98,106.64 98,109.28 98,112 C97.34,112 96.68,112 96,112 C95.227,109.018 94.588,106.024 94,103 Z"/>
  <path fill="#846458" d="M121,24 C121.66,24 122.32,24 123,24 C123,24.99 123,25.98 123,27 C122.34,27 121.68,27 121,27 C120.67,27.99 120.34,28.98 120,30 C119.34,30 118.68,30 118,30 C118,30.66 118,31.32 118,32 C117.01,31.67 116.02,31.34 115,31 C115.951,29.827 116.911,28.662 117.875,27.5 C118.409,26.85 118.942,26.201 119.492,25.531 C120.239,24.773 120.239,24.773 121,24 Z"/>
</svg>
