<svg xmlns="http://www.w3.org/2000/svg" version="1.1" width="226" height="237">
  <defs/>
  <path fill="#785649" d="M122.973,43.444 C125.298,43.438 127.619,43.383 129.943,43.326 C141.148,43.201 148.574,45.716 158,52 C158,52.66 158,53.32 158,54 C158.722,53.938 159.444,53.876 160.188,53.812 C163.562,54.037 165.306,54.999 168,57 C168,57.66 168,58.32 168,59 C168.541,59.217 169.083,59.433 169.641,59.656 C172.816,61.465 175.207,63.917 177.75,66.5 C178.257,66.999 178.763,67.498 179.285,68.012 C183,71.747 183,71.747 183,74 C183.66,74 184.32,74 185,74 C190.06,84.603 191.499,95.138 191.391,106.808 C191.375,108.866 191.391,110.922 191.41,112.98 C191.438,128.654 188.787,141.884 178.438,154 C171.16,159.972 166.344,160.664 157.06,160.576 C155.004,160.563 152.953,160.597 150.898,160.635 C139.859,160.618 139.859,160.618 136.172,157.621 C132.882,153.651 130.792,149.825 129,145 C128.576,145.364 128.152,145.727 127.715,146.102 C126.482,147.158 125.249,148.214 124.016,149.27 C122.689,150.408 121.366,151.552 120.047,152.699 C119.433,153.232 118.82,153.764 118.188,154.312 C117.624,154.804 117.061,155.295 116.48,155.801 C112.111,159.34 106.323,158.477 101,158 C94.202,156.042 88.787,152.655 84.812,146.75 C79.462,136.44 80.616,126.078 83.812,115.188 C85.475,110.206 87.366,105.543 90,101 C90.557,100.01 91.114,99.02 91.688,98 C98,89.811 106.792,83.604 116,79 C118.93,78.848 121.819,78.769 124.75,78.75 C125.549,78.729 126.348,78.709 127.172,78.688 C132.188,78.654 135.696,79.137 140,82 C141.426,83.754 141.426,83.754 142.312,85.562 C143.203,87.377 144.096,89.192 145,91 C145.004,93.44 144.948,95.846 144.844,98.281 C144.79,99.779 144.737,101.276 144.684,102.773 C144.593,105.125 144.501,107.477 144.407,109.829 C143.662,126.632 143.662,126.632 147,143 C150.486,145.648 153.753,145.067 157.938,144.562 C162.792,143.844 162.792,143.844 166.957,141.477 C168.258,139.676 169.16,138.055 170,136 C170.333,135.299 170.665,134.598 171.008,133.875 C172.427,129.762 172.999,125.609 173.625,121.312 C173.826,120.041 173.826,120.041 174.031,118.744 C175.758,107.16 175.861,95.309 170.25,84.688 C169.508,83.801 168.765,82.914 168,82 C167.425,81.309 166.85,80.618 166.258,79.906 C163.074,75.913 163.074,75.913 159,73 C159,72.34 159,71.68 159,71 C158.132,70.742 157.265,70.484 156.371,70.219 C151.889,68.598 148.131,66.165 144.098,63.656 C137.437,60.095 131.828,59.774 124.5,60.312 C123.276,60.385 123.276,60.385 122.027,60.459 C114.201,60.955 107.606,61.717 100.625,65.562 C99.97,65.919 99.315,66.275 98.641,66.643 C93.086,69.766 88.428,73.401 84,78 C83.366,78.648 82.732,79.297 82.078,79.965 C74.826,87.79 71.46,95.941 68.797,106.156 C68,109 68,109 67,110 C66.747,113.367 66.815,116.749 66.812,120.125 C66.794,121.533 66.794,121.533 66.775,122.969 C66.764,128.43 67.333,132.815 69,138 C69.085,139.477 69.13,140.958 69.125,142.438 C69.963,151.868 75.4,162.174 82.312,168.562 C87.264,172.441 92.607,175.773 98,179 C98.835,179.526 99.671,180.052 100.531,180.594 C102.928,181.959 105.12,182.875 107.75,183.688 C108.529,183.939 109.307,184.19 110.109,184.449 C118.004,185.953 125.115,184.57 132.812,182.625 C133.74,182.403 134.667,182.182 135.623,181.953 C140.48,180.817 140.48,180.817 145.073,178.939 C148.112,177.458 150.682,177.704 154,178 C156.184,179.176 156.184,179.176 158,181 C158.813,184.722 158.652,188.255 158,192 C155.035,195.058 151.301,195.564 147.195,196.465 C144.997,196.958 144.997,196.958 142.93,197.754 C134.235,200.89 125.146,200.888 116,201 C114.943,201.016 114.943,201.016 113.865,201.033 C100.169,201.103 91.133,195.984 80.473,187.832 C78.059,186.044 75.592,184.513 73,183 C70.688,181.438 70.688,181.438 69,180 C69,179.34 69,178.68 69,178 C68.34,178 67.68,178 67,178 C51.318,159.295 48.762,134.463 50,111 C50.65,104.513 52.161,98.968 55.008,93.109 C55.946,91.115 56.634,89.156 57.312,87.062 C59.272,81.761 62.607,77.469 66,73 C66.683,72.076 67.366,71.151 68.07,70.199 C73.166,63.597 78.714,58.169 86,54 C86.99,54 87.98,54 89,54 C89,53.34 89,52.68 89,52 C90.475,51.221 91.955,50.452 93.438,49.688 C94.261,49.258 95.085,48.829 95.934,48.387 C96.946,47.929 97.957,47.471 99,47 C99.577,46.73 100.153,46.46 100.747,46.182 C107.902,43.293 115.379,43.442 122.973,43.444 Z M118,96 C118,96.66 118,97.32 118,98 C117.132,98.418 117.132,98.418 116.246,98.844 C107.142,103.53 103.152,109.343 100.031,118.996 C97.194,129.057 97.194,129.057 99,139 C99.66,139 100.32,139 101,139 C101,139.66 101,140.32 101,141 C106.991,141.619 106.991,141.619 112,138.625 C114.202,136.285 114.202,136.285 114,134 C115.485,133.505 115.485,133.505 117,133 C118.846,130.699 118.846,130.699 120.562,127.875 C121.162,126.944 121.761,126.014 122.379,125.055 C125.388,119.385 126.302,113.631 127.062,107.312 C127.918,100.281 127.918,100.281 128.684,97.668 C128.788,97.118 128.892,96.567 129,96 C128.34,95.34 127.68,94.68 127,94 C123.204,94 121.371,94.502 118,96 Z"/>
  <path fill="#7C625A" d="M87,112 C87.33,112 87.66,112 88,112 C88.043,113.666 88.041,115.334 88,117 C87.67,117.33 87.34,117.66 87,118 C86.792,119.662 86.633,121.33 86.5,123 C86.111,127.889 86.111,127.889 85,129 C84.791,134.115 85.291,138.951 86,144 C86.66,144 87.32,144 88,144 C90.625,146.375 90.625,146.375 93,149 C93,149.66 93,150.32 93,151 C96.63,151.99 100.26,152.98 104,154 C104,154.66 104,155.32 104,156 C106.31,156 108.62,156 111,156 C111,155.34 111,154.68 111,154 C116.75,151 116.75,151 119,151 C119,150.01 119,149.02 119,148 C119.66,148 120.32,148 121,148 C121,147.34 121,146.68 121,146 C121.99,146 122.98,146 124,146 C124.124,145.216 124.247,144.432 124.375,143.625 C125,141 125,141 127,139 C129.625,138.875 129.625,138.875 132,139 C133.354,141.709 133.065,144.009 133,147 C131.35,146.34 129.7,145.68 128,145 C127.336,145.687 126.672,146.374 125.988,147.082 C125.105,147.983 124.222,148.884 123.312,149.812 C122.442,150.706 121.572,151.599 120.676,152.52 C115.18,157.614 111.442,158.546 104.074,158.355 C97.539,157.6 91.654,154.654 87,150 C81.771,142.23 80.643,135.532 81.516,126.32 C82,124 82,124 84,122 C84.339,119.668 84.672,117.334 85,115 C85.66,114.01 86.32,113.02 87,112 Z"/>
  <path fill="#806259" d="M132,81 C134.688,80.688 134.688,80.688 138,81 C141.684,83.931 143.628,86.534 145,91 C145.119,94.435 145.119,94.435 144.941,98.363 C144.9,99.428 144.9,99.428 144.858,100.514 C144.77,102.781 144.668,105.046 144.562,107.312 C144.05,118.637 144.063,129.696 145,141 C143.036,140.16 143.036,140.16 141,139 C140.426,136.434 140.426,136.434 140.312,133.438 C140.458,129.907 140.458,129.907 139,127 C138.901,124.835 138.87,122.667 138.875,120.5 C138.872,119.314 138.87,118.128 138.867,116.906 C139,114 139,114 140,113 C140.158,111.148 140.251,109.291 140.316,107.434 C140.358,106.309 140.4,105.184 140.443,104.025 C140.483,102.841 140.522,101.657 140.562,100.438 C140.606,99.25 140.649,98.062 140.693,96.838 C140.8,93.892 140.902,90.946 141,88 C140.34,88 139.68,88 139,88 C139,87.34 139,86.68 139,86 C138.01,85.67 137.02,85.34 136,85 C136,84.34 136,83.68 136,83 C134.68,82.67 133.36,82.34 132,82 C132,81.67 132,81.34 132,81 Z"/>
  <path fill="#866B61" d="M86,54 C86.66,54.33 87.32,54.66 88,55 C88,55.99 88,56.98 88,58 C83.778,61 83.778,61 81,61 C81,61.66 81,62.32 81,63 C79.625,64.625 79.625,64.625 78,66 C77.34,66 76.68,66 76,66 C76,66.66 76,67.32 76,68 C74.625,69.625 74.625,69.625 73,71 C72.34,71 71.68,71 71,71 C70.691,71.784 70.381,72.567 70.062,73.375 C69,76 69,76 68,78 C67.34,78 66.68,78 66,78 C65.691,78.784 65.381,79.567 65.062,80.375 C64,83 64,83 63,85 C62.34,85 61.68,85 61,85 C61.062,85.701 61.124,86.402 61.188,87.125 C60.957,90.653 59.708,92.94 58,96 C57.34,96 56.68,96 56,96 C56,97.98 56,99.96 56,102 C55.01,102.495 55.01,102.495 54,103 C54,102.34 54,101.68 54,101 C53.34,100.67 52.68,100.34 52,100 C52.254,99.443 52.508,98.886 52.77,98.312 C54.445,94.597 56.044,90.938 57.312,87.062 C59.272,81.761 62.607,77.469 66,73 C66.683,72.076 67.366,71.151 68.07,70.199 C73.261,63.474 78.895,58.635 86,54 Z"/>
  <path fill="#8D6E65" d="M51,108 C51.99,108 52.98,108 54,108 C54.025,108.923 54.05,109.847 54.076,110.798 C54.171,114.225 54.27,117.653 54.372,121.08 C54.416,122.563 54.457,124.046 54.497,125.529 C54.555,127.661 54.619,129.794 54.684,131.926 C54.72,133.209 54.757,134.492 54.795,135.814 C54.866,139.021 54.866,139.021 56,142 C56.067,143.561 56.085,145.125 56.062,146.688 C56.053,147.496 56.044,148.304 56.035,149.137 C56.024,149.752 56.012,150.366 56,151 C56.66,151 57.32,151 58,151 C58.33,153.31 58.66,155.62 59,158 C59.66,158 60.32,158 61,158 C61,159.65 61,161.3 61,163 C59,162 59,162 58,159 C57.01,158.34 56.02,157.68 55,157 C48.443,144.469 49.25,124.796 50,111 C50.33,110.01 50.66,109.02 51,108 Z"/>
  <path fill="#8C6C63" d="M98,196 C100.64,196 103.28,196 106,196 C106,196.66 106,197.32 106,198 C109.813,197.862 113.625,197.713 117.438,197.562 C119.07,197.504 119.07,197.504 120.736,197.443 C121.771,197.401 122.805,197.36 123.871,197.316 C124.829,197.28 125.788,197.243 126.775,197.205 C128.971,197.242 128.971,197.242 130,196 C131.642,195.875 133.291,195.824 134.938,195.812 C135.833,195.798 136.729,195.784 137.652,195.77 C140,196 140,196 142,198 C136.612,199.755 131.649,200.439 126,200.688 C124.767,200.748 124.767,200.748 123.509,200.81 C115.945,201.121 108.531,200.732 101,200 C100.67,199.01 100.34,198.02 100,197 C99.34,196.67 98.68,196.34 98,196 Z"/>
  <path fill="#816156" d="M94,177 C95.812,177.891 95.812,177.891 98,179.25 C108.579,185.259 118.126,185.372 130,185 C129.34,185.99 128.68,186.98 128,188 C125.877,188.372 125.877,188.372 123.281,188.363 C122.349,188.363 121.417,188.362 120.457,188.361 C118.993,188.337 118.993,188.337 117.5,188.312 C116.524,188.316 115.548,188.319 114.543,188.322 C107.267,188.267 107.267,188.267 105,186 C103.009,185.307 101.008,184.643 99,184 C97.653,183.362 96.313,182.707 95,182 C95,181.34 95,180.68 95,180 C94.01,180 93.02,180 92,180 C92,179.34 92,178.68 92,178 C92.66,177.67 93.32,177.34 94,177 Z"/>
  <path fill="#886A63" d="M68,176 C68.99,176 69.98,176 71,176 C71,176.66 71,177.32 71,178 C72.083,178.371 72.083,178.371 73.188,178.75 C76.276,180.123 78.51,181.724 81,184 C81,184.66 81,185.32 81,186 C81.763,186.124 82.526,186.247 83.312,186.375 C86,187 86,187 89,189 C89,189.66 89,190.32 89,191 C90.32,191 91.64,191 93,191 C93,191.66 93,192.32 93,193 C94.32,193.33 95.64,193.66 97,194 C97,194.66 97,195.32 97,196 C91.3,195.586 88.301,194.196 83.875,190.625 C80.342,187.808 76.881,185.305 73,183 C70.188,180.438 70.188,180.438 68,178 C68,177.34 68,176.68 68,176 Z"/>
  <path fill="#795B51" d="M172,136 C172.688,137.812 172.688,137.812 173,140 C171.688,141.75 171.688,141.75 170,143 C169.34,143 168.68,143 168,143 C167.67,143.99 167.34,144.98 167,146 C166.34,146 165.68,146 165,146 C165,146.66 165,147.32 165,148 C162.062,148.081 159.126,148.14 156.188,148.188 C154.937,148.225 154.937,148.225 153.662,148.264 C152.458,148.278 152.458,148.278 151.23,148.293 C150.123,148.317 150.123,148.317 148.993,148.341 C146.478,147.911 145.606,146.925 144,145 C144.33,144.34 144.66,143.68 145,143 C145.66,143.66 146.32,144.32 147,145 C149.931,145.097 149.931,145.097 153.25,144.75 C154.369,144.662 155.488,144.575 156.641,144.484 C161.288,143.814 166.016,142.561 170,140 C171.268,137.966 171.268,137.966 172,136 Z"/>
  <path fill="#87665C" d="M182,141 C182.66,141 183.32,141 184,141 C184.688,142.688 184.688,142.688 185,145 C181.844,151.479 177.648,156.24 171,159 C169.68,159 168.36,159 167,159 C167.495,157.515 167.495,157.515 168,156 C168.99,156 169.98,156 171,156 C171,155.34 171,154.68 171,154 C171.99,154 172.98,154 174,154 C174,153.01 174,152.02 174,151 C174.66,151 175.32,151 176,151 C176,150.34 176,149.68 176,149 C176.66,149 177.32,149 178,149 C178.33,148.01 178.66,147.02 179,146 C179.66,146 180.32,146 181,146 C181.33,144.35 181.66,142.7 182,141 Z"/>
  <path fill="#857068" d="M113.457,43.77 C114.488,43.771 115.518,43.773 116.58,43.775 C117.647,43.788 118.713,43.8 119.812,43.812 C120.868,43.813 121.923,43.814 123.01,43.814 C128.762,43.847 134.312,44.142 140,45 C140,45.33 140,45.66 140,46 C139.218,46.025 138.435,46.05 137.629,46.076 C134.107,46.191 130.585,46.314 127.062,46.438 C125.831,46.477 124.599,46.516 123.33,46.557 C121.575,46.619 121.575,46.619 119.785,46.684 C118.159,46.739 118.159,46.739 116.5,46.795 C114.061,46.724 114.061,46.724 113,48 C111.481,48.072 109.958,48.084 108.438,48.062 C107.611,48.053 106.785,48.044 105.934,48.035 C105.296,48.024 104.657,48.012 104,48 C103.67,47.34 103.34,46.68 103,46 C106.64,44.338 109.465,43.752 113.457,43.77 Z"/>
  <path fill="#7B6057" d="M106,102 C106.99,102 107.98,102 109,102 C107.964,104.09 106.911,106.166 105.816,108.227 C102.794,114.008 100.651,119.692 99,126 C98.34,126 97.68,126 97,126 C97,123.03 97,120.06 97,117 C97.66,117 98.32,117 99,117 C98.938,116.278 98.876,115.556 98.812,114.812 C99.037,111.438 99.999,109.694 102,107 C102.66,107 103.32,107 104,107 C104,106.01 104,105.02 104,104 C104.66,104 105.32,104 106,104 C106,103.34 106,102.68 106,102 Z"/>
  <path fill="#765F57" d="M87,112 C87.33,112 87.66,112 88,112 C88.043,113.666 88.041,115.334 88,117 C87.67,117.33 87.34,117.66 87,118 C86.792,119.662 86.633,121.33 86.5,123 C86.111,127.889 86.111,127.889 85,129 C84.968,131.524 85.068,134.033 85.16,136.555 C85,139 85,139 83,142 C80.704,135.923 80.689,130.374 82,124 C82.66,123.34 83.32,122.68 84,122 C84.339,119.668 84.672,117.334 85,115 C85.66,114.01 86.32,113.02 87,112 Z"/>
  <path fill="#7E6056" d="M51,132 C51.66,132 52.32,132 53,132 C53.133,133.048 53.266,134.096 53.402,135.176 C53.581,136.555 53.759,137.934 53.938,139.312 C54.025,140.003 54.112,140.693 54.201,141.404 C54.592,144.401 55.042,147.124 56,150 C56.66,150.33 57.32,150.66 58,151 C58.407,153.322 58.744,155.657 59,158 C59.66,158 60.32,158 61,158 C61,159.65 61,161.3 61,163 C59,162 59,162 58,159 C57.01,158.34 56.02,157.68 55,157 C51.229,149.344 51.323,140.342 51,132 Z"/>
  <path fill="#886E65" d="M105,88 C105,88.99 105,89.98 105,91 C103.013,92.353 101.013,93.686 99,95 C98.67,95.99 98.34,96.98 98,98 C97.34,98 96.68,98 96,98 C96,98.66 96,99.32 96,100 C95.01,100.495 95.01,100.495 94,101 C93.348,103.025 93.348,103.025 93,105 C92.34,105 91.68,105 91,105 C90.67,106.32 90.34,107.64 90,109 C89.67,109 89.34,109 89,109 C88.544,103.294 89.301,100.399 93,96 C95.312,94.438 95.312,94.438 98,93 C100.365,91.374 102.677,89.685 105,88 Z"/>
  <path fill="#836C63" d="M140,118 C140.66,118 141.32,118 142,118 C142,121.3 142,124.6 142,128 C142.66,128 143.32,128 144,128 C144.33,132.29 144.66,136.58 145,141 C143.68,140.34 142.36,139.68 141,139 C140.67,132.07 140.34,125.14 140,118 Z"/>
  <path fill="#876C64" d="M140,196 C140.66,196.66 141.32,197.32 142,198 C135.652,200.308 129.705,200.198 123,200 C123,199.34 123,198.68 123,198 C128.617,196.046 134.05,195.26 140,196 Z"/>
  <path fill="#775F57" d="M160,56 C165.75,55.875 165.75,55.875 168,57 C168,57.66 168,58.32 168,59 C168.619,59.248 169.238,59.495 169.875,59.75 C172.351,61.206 172.951,62.378 174,65 C173.01,65.33 172.02,65.66 171,66 C171,65.34 171,64.68 171,64 C170.01,63.67 169.02,63.34 168,63 C168,62.34 168,61.68 168,61 C166.866,60.732 165.731,60.464 164.562,60.188 C163.387,59.796 162.211,59.404 161,59 C160.67,58.01 160.34,57.02 160,56 Z"/>
  <path fill="#84685E" d="M133,149 C133.99,149.33 134.98,149.66 136,150 C136.33,150.99 136.66,151.98 137,153 C137.66,153.33 138.32,153.66 139,154 C139,154.66 139,155.32 139,156 C140.65,156 142.3,156 144,156 C144,156.66 144,157.32 144,158 C147.3,158 150.6,158 154,158 C154,158.33 154,158.66 154,159 C151.583,159.081 149.168,159.141 146.75,159.188 C146.068,159.213 145.386,159.238 144.684,159.264 C141.576,159.309 139.361,159.192 136.594,157.719 C134.218,155.157 133.758,152.348 133,149 Z"/>
  <path fill="#836B60" d="M188,125 C188.66,125.66 189.32,126.32 190,127 C189.583,131.485 188.289,135.702 187,140 C186.01,140 185.02,140 184,140 C184,138.35 184,136.7 184,135 C184.66,135 185.32,135 186,135 C185.959,133.907 185.917,132.814 185.875,131.688 C186,128 186,128 188,125 Z"/>
  <path fill="#8C6E62" d="M119.445,56.902 C120.522,56.906 121.598,56.909 122.707,56.912 C123.835,56.92 124.963,56.929 126.125,56.938 C127.261,56.942 128.396,56.947 129.566,56.951 C132.378,56.963 135.189,56.979 138,57 C138,57.33 138,57.66 138,58 C133.71,58 129.42,58 125,58 C125,58.66 125,59.32 125,60 C123.396,60.054 121.792,60.093 120.188,60.125 C119.294,60.148 118.401,60.171 117.48,60.195 C115,60 115,60 112,58 C114.61,56.695 116.527,56.887 119.445,56.902 Z"/>
  <path fill="#917068" d="M155,189 C155.66,189.99 156.32,190.98 157,192 C153.671,195.013 151.181,195.447 146.75,195.688 C145.672,195.753 144.595,195.819 143.484,195.887 C142.255,195.943 142.255,195.943 141,196 C141,195.01 141,194.02 141,193 C141.592,192.963 142.183,192.925 142.793,192.887 C147.607,192.486 151.008,191.962 155,189 Z"/>
  <path fill="#87706C" d="M188,100 C188.99,100.33 189.98,100.66 191,101 C191,107.93 191,114.86 191,122 C190.67,122 190.34,122 190,122 C190,119.03 190,116.06 190,113 C189.34,113 188.68,113 188,113 C188,108.71 188,104.42 188,100 Z"/>
  <path fill="#836A62" d="M61,164 C61.99,164.33 62.98,164.66 64,165 C64,165.99 64,166.98 64,168 C64.66,168 65.32,168 66,168 C67.429,170.354 68.087,171.48 67.625,174.25 C67.419,174.827 67.213,175.405 67,176 C63.32,172.618 61.021,169.575 59,165 C59.66,164.67 60.32,164.34 61,164 Z"/>
  <path fill="#89695F" d="M128,91 C128.99,91.66 129.98,92.32 131,93 C131.368,97.562 131.618,101.072 129,105 C128.438,103.062 128.438,103.062 128,101 C128.33,100.67 128.66,100.34 129,100 C129.041,98.334 129.043,96.666 129,95 C125.99,94.066 125.133,93.955 122,95 C121.01,94.67 120.02,94.34 119,94 C119,93.34 119,92.68 119,92 C122.019,90.491 124.673,90.825 128,91 Z"/>
  <path fill="#87695D" d="M184,79 C184.99,79 185.98,79 187,79 C190.429,87.429 190.429,87.429 190,92 C189.01,92 188.02,92 187,92 C185.067,90.067 185.346,86.597 185,84 C184.68,82.331 184.353,80.663 184,79 Z"/>
  <path fill="#836B60" d="M141,46 C143.202,46.734 145.403,47.469 147.602,48.211 C149.553,48.853 151.524,49.436 153.5,50 C154.325,50.33 155.15,50.66 156,51 C156.33,51.99 156.66,52.98 157,54 C157.66,54.66 158.32,55.32 159,56 C155.625,55.453 153.918,54.945 151,53 C151,52.34 151,51.68 151,51 C150.278,50.856 149.556,50.711 148.812,50.562 C146.208,50.042 143.604,49.521 141,49 C141,48.01 141,47.02 141,46 Z"/>
  <path fill="#92675D" d="M144,143 C145.485,143.99 145.485,143.99 147,145 C149.28,145.205 149.28,145.205 151.75,145.062 C155.981,144.969 159.836,145.276 164,146 C161.526,148.474 160.025,148.286 156.639,148.322 C155.611,148.317 155.611,148.317 154.562,148.312 C153.541,148.337 153.541,148.337 152.498,148.361 C149.522,148.364 147.5,148.353 145.027,146.605 C144,145 144,145 144,143 Z"/>
  <path fill="#7F6157" d="M152,178 C154,179 156,180 158,181 C158,184.63 158,188.26 158,192 C156.68,191.34 155.36,190.68 154,190 C154,189.34 154,188.68 154,188 C154.66,188 155.32,188 156,188 C156,186.68 156,185.36 156,184 C155.34,184 154.68,184 154,184 C154,183.34 154,182.68 154,182 C153.34,182 152.68,182 152,182 C152,180.68 152,179.36 152,178 Z"/>
  <path fill="#826257" d="M94,65 C95.32,65.33 96.64,65.66 98,66 C95.962,68.119 93.874,69.954 91.5,71.688 C90.912,72.124 90.324,72.561 89.719,73.012 C88,74 88,74 85,74 C85,73.34 85,72.68 85,72 C85.66,72 86.32,72 87,72 C87,71.01 87,70.02 87,69 C89.647,67.539 90.894,67 94,67 C94,66.34 94,65.68 94,65 Z"/>
  <path fill="#876D63" d="M103,48 C103,48.66 103,49.32 103,50 C101.35,50.33 99.7,50.66 98,51 C98,51.66 98,52.32 98,53 C93.545,54.485 93.545,54.485 89,56 C90.804,52.735 91.834,51.111 95,49 C97.787,48.303 100.119,48 103,48 Z"/>
  <path fill="#84685F" d="M86,54 C86.66,54.33 87.32,54.66 88,55 C88,55.99 88,56.98 88,58 C83.748,61.037 79.08,62.871 74,64 C77.701,60.075 81.55,57.054 86,54 Z"/>
  <path fill="#826257" d="M79,77 C79.99,77 80.98,77 82,77 C82,77.66 82,78.32 82,79 C81.34,79 80.68,79 80,79 C78.134,82.588 76.575,86.278 75,90 C74.01,90 73.02,90 72,90 C72.628,87.071 73.586,84.639 75,82 C75.66,82 76.32,82 77,82 C77,81.34 77,80.68 77,80 C77.66,80 78.32,80 79,80 C79,79.01 79,78.02 79,77 Z"/>
  <path fill="#7F645B" d="M121.938,78.812 C123.529,78.791 123.529,78.791 125.152,78.77 C128,79 128,79 131,81 C126.71,81 122.42,81 118,81 C118,81.66 118,82.32 118,83 C116.68,82.67 115.36,82.34 114,82 C114,81.34 114,80.68 114,80 C116.711,78.644 118.913,78.831 121.938,78.812 Z"/>
  <path fill="#816459" d="M160,70 C162.475,70.99 162.475,70.99 165,72 C165,72.66 165,73.32 165,74 C165.99,74.33 166.98,74.66 168,75 C168,75.66 168,76.32 168,77 C168.66,77 169.32,77 170,77 C170,77.66 170,78.32 170,79 C170.99,79.33 171.98,79.66 173,80 C173,81.32 173,82.64 173,84 C170,83 170,83 168.75,80.875 C166.71,77.523 164.253,75.146 161.426,72.453 C160,71 160,71 160,70 Z"/>
  <path fill="#705A52" d="M188,113 C188.66,113 189.32,113 190,113 C190.221,114.957 190.427,116.916 190.625,118.875 C190.741,119.966 190.857,121.056 190.977,122.18 C190.984,123.11 190.992,124.041 191,125 C190.34,125.66 189.68,126.32 189,127 C188.67,126.67 188.34,126.34 188,126 C187.34,126.66 186.68,127.32 186,128 C186,126.68 186,125.36 186,124 C186.66,124 187.32,124 188,124 C188,120.37 188,116.74 188,113 Z"/>
  <path fill="#87695E" d="M127,114 C127.33,114 127.66,114 128,114 C127.293,120.012 125.766,124.666 123,130 C122.34,130 121.68,130 121,130 C120.67,130.99 120.34,131.98 120,133 C119.67,132.34 119.34,131.68 119,131 C120.18,128.469 120.18,128.469 121.875,125.5 C122.429,124.52 122.984,123.541 123.555,122.531 C124.032,121.696 124.509,120.861 125,120 C125.33,119.34 125.66,118.68 126,118 C125.34,117.67 124.68,117.34 124,117 C124.99,116.67 125.98,116.34 127,116 C127,115.34 127,114.68 127,114 Z"/>
  <path fill="#876F65" d="M58,90 C59,93 59,93 58,96 C57.34,96 56.68,96 56,96 C56,97.98 56,99.96 56,102 C55.01,102.495 55.01,102.495 54,103 C54,102.34 54,101.68 54,101 C53.34,100.67 52.68,100.34 52,100 C52.617,98.517 53.244,97.039 53.875,95.562 C54.397,94.327 54.397,94.327 54.93,93.066 C56,91 56,91 58,90 Z"/>
  <path fill="#7B5F56" d="M110,57 C111.938,57.312 111.938,57.312 114,58 C114.33,58.99 114.66,59.98 115,61 C113.329,61.217 113.329,61.217 111.625,61.438 C108.179,61.784 108.179,61.784 106,63 C105.34,62.67 104.68,62.34 104,62 C104,61.01 104,60.02 104,59 C105.98,59 107.96,59 110,59 C110,58.34 110,57.68 110,57 Z"/>
  <path fill="#8E6F65" d="M175,152 C175.33,153.32 175.66,154.64 176,156 C172.559,158.294 171.277,159 167,159 C167.33,158.01 167.66,157.02 168,156 C168.99,156 169.98,156 171,156 C171,155.34 171,154.68 171,154 C172.32,153.34 173.64,152.68 175,152 Z"/>
  <path fill="#866A5F" d="M117,134 C117,137 117,137 114.688,139.5 C113.801,140.325 112.914,141.15 112,142 C111.257,142.897 111.257,142.897 110.5,143.812 C108.355,145.51 106.65,145.215 104,145 C104,144.34 104,143.68 104,143 C105.547,142.443 105.547,142.443 107.125,141.875 C111.393,140.076 113.904,137.398 117,134 Z"/>
  <path fill="#88695F" d="M176,69 C181.75,70.625 181.75,70.625 184,74 C184,75.32 184,76.64 184,78 C183.01,77.67 182.02,77.34 181,77 C181,76.01 181,75.02 181,74 C180.01,73.67 179.02,73.34 178,73 C178,72.34 178,71.68 178,71 C177.34,71 176.68,71 176,71 C176,70.34 176,69.68 176,69 Z"/>
  <path fill="#8B6E63" d="M127,139 C128.65,139 130.3,139 132,139 C133.354,141.709 133.065,144.009 133,147 C132.01,146.34 131.02,145.68 130,145 C130,144.34 130,143.68 130,143 C129.01,142.67 128.02,142.34 127,142 C127,141.01 127,140.02 127,139 Z"/>
  <path fill="#7E655D" d="M68,176 C68.99,176 69.98,176 71,176 C71,176.66 71,177.32 71,178 C73.475,178.99 73.475,178.99 76,180 C75.67,180.99 75.34,181.98 75,183 C72.133,181.715 70.024,180.429 68,178 C68,177.34 68,176.68 68,176 Z"/>
  <path fill="#8B6B59" d="M106,102 C106.99,102 107.98,102 109,102 C107.667,104.667 106.333,107.333 105,110 C104.01,110 103.02,110 102,110 C102,109.01 102,108.02 102,107 C102.66,107 103.32,107 104,107 C104,106.01 104,105.02 104,104 C104.66,104 105.32,104 106,104 C106,103.34 106,102.68 106,102 Z"/>
  <path fill="#6C534B" d="M159,72 C162.536,72.578 164.21,73.827 166.688,76.375 C167.289,76.981 167.891,77.587 168.512,78.211 C170,80 170,80 171,83 C167.847,81.635 166.03,80.162 163.875,77.5 C162.297,75.57 160.765,73.765 159,72 Z"/>
  <path fill="#7F6056" d="M149,64 C152.147,64.699 155.026,65.761 158,67 C158,67.66 158,68.32 158,69 C155,70 155,70 151.812,68.562 C150.884,68.047 149.956,67.531 149,67 C149,66.01 149,65.02 149,64 Z"/>
  <path fill="#86685D" d="M148,180 C148,180.66 148,181.32 148,182 C139.571,185.429 139.571,185.429 135,185 C138.911,181.691 142.845,180 148,180 Z"/>
  <path fill="#7F665D" d="M126,140 C126.33,140.66 126.66,141.32 127,142 C129.025,142.652 129.025,142.652 131,143 C131,143.66 131,144.32 131,145 C128.69,145.33 126.38,145.66 124,146 C124.875,141.125 124.875,141.125 126,140 Z"/>
  <path fill="#6D5A51" d="M189,92 C189.66,92.33 190.32,92.66 191,93 C191,95.64 191,98.28 191,101 C190.01,100.67 189.02,100.34 188,100 C187.958,97.667 187.959,95.333 188,93 C188.33,92.67 188.66,92.34 189,92 Z"/>
  <path fill="#8A6F66" d="M92,151 C95.916,151.783 99.364,153.392 103,155 C103,155.33 103,155.66 103,156 C99.75,156.312 99.75,156.312 96,156 C93.562,153.5 93.562,153.5 92,151 Z"/>
  <path fill="#836459" d="M64,128 C65.32,129.65 66.64,131.3 68,133 C67.34,134.65 66.68,136.3 66,138 C65.34,138 64.68,138 64,138 C64,134.7 64,131.4 64,128 Z"/>
  <path fill="#856A61" d="M132,81 C134.812,80.688 134.812,80.688 138,81 C139.886,83.389 141,84.919 141,88 C140.34,88 139.68,88 139,88 C139,87.34 139,86.68 139,86 C138.01,85.67 137.02,85.34 136,85 C136,84.34 136,83.68 136,83 C134.68,82.67 133.36,82.34 132,82 C132,81.67 132,81.34 132,81 Z"/>
  <path fill="#8C7368" d="M188,125 C188.66,125.66 189.32,126.32 190,127 C189.625,129.625 189.625,129.625 189,132 C188.01,132.33 187.02,132.66 186,133 C186.875,126.125 186.875,126.125 188,125 Z"/>
  <path fill="#9C5249" d="M174,64 C176.31,65.98 178.62,67.96 181,70 C177.796,70 175.906,69.257 173,68 C173.33,66.68 173.66,65.36 174,64 Z"/>
  <path fill="#A2635B" d="M114,198 C116.97,198 119.94,198 123,198 C123,198.66 123,199.32 123,200 C116.25,201.125 116.25,201.125 114,200 C114,199.34 114,198.68 114,198 Z"/>
  <path fill="#886E65" d="M87,112 C87.33,112 87.66,112 88,112 C88.462,116.927 86.828,120.507 85,125 C83.75,121.251 84.244,118.849 85,115 C85.66,114.01 86.32,113.02 87,112 Z"/>
  <path fill="#80655A" d="M113,96 C114.32,96.33 115.64,96.66 117,97 C116.34,97 115.68,97 115,97 C114.67,98.32 114.34,99.64 114,101 C112.35,101 110.7,101 109,101 C109,100.34 109,99.68 109,99 C109.99,99 110.98,99 112,99 C112.33,98.01 112.66,97.02 113,96 Z"/>
  <path fill="#886F66" d="M57,154 C57.66,154 58.32,154 59,154 C59,155.32 59,156.64 59,158 C59.66,158 60.32,158 61,158 C61,159.65 61,161.3 61,163 C59,162 59,162 58,159 C57.34,158.67 56.68,158.34 56,158 C56.33,156.68 56.66,155.36 57,154 Z"/>
  <path fill="#786259" d="M52,101 C53.98,101.495 53.98,101.495 56,102 C55.34,103.98 54.68,105.96 54,108 C53.01,108 52.02,108 51,108 C51.33,105.69 51.66,103.38 52,101 Z"/>
  <path fill="#8C6A5F" d="M188,100 C188.99,100.33 189.98,100.66 191,101 C191,102.98 191,104.96 191,107 C190.01,107.33 189.02,107.66 188,108 C188,105.36 188,102.72 188,100 Z"/>
  <path fill="#796158" d="M102,88 C102.99,88.33 103.98,88.66 105,89 C100.545,92.465 100.545,92.465 96,96 C95.34,95.67 94.68,95.34 94,95 C95.259,93.8 96.533,92.616 97.812,91.438 C98.874,90.446 98.874,90.446 99.957,89.434 C100.631,88.961 101.305,88.487 102,88 Z"/>
  <path fill="#8C7168" d="M89,191 C90.32,191 91.64,191 93,191 C93,191.66 93,192.32 93,193 C94.32,193.33 95.64,193.66 97,194 C97,194.66 97,195.32 97,196 C95.68,196 94.36,196 93,196 C90.75,193.5 90.75,193.5 89,191 Z"/>
  <path fill="#856A60" d="M144,143 C145.485,143.99 145.485,143.99 147,145 C148.99,145.39 150.99,145.732 153,146 C153,146.66 153,147.32 153,148 C147.5,148.367 147.5,148.367 145.125,146.625 C144,145 144,145 144,143 Z"/>
  <path fill="#8B665D" d="M91,100 C93,103 93,103 93,105 C92.34,105 91.68,105 91,105 C90.67,106.32 90.34,107.64 90,109 C89.67,109 89.34,109 89,109 C88.875,105.625 88.875,105.625 89,102 C89.66,101.34 90.32,100.68 91,100 Z"/>
  <path fill="#84695D" d="M160,56 C162.312,55.688 162.312,55.688 165,56 C166.812,58.5 166.812,58.5 168,61 C164.562,60.188 164.562,60.188 161,59 C160.67,58.01 160.34,57.02 160,56 Z"/>
  <path fill="#816156" d="M172,136 C172.688,137.812 172.688,137.812 173,140 C171.688,141.75 171.688,141.75 170,143 C169.34,143 168.68,143 168,143 C168,142.01 168,141.02 168,140 C168.66,140 169.32,140 170,140 C170.66,138.68 171.32,137.36 172,136 Z"/>
  <path fill="#725C52" d="M115,94 C117.31,94 119.62,94 122,94 C121.67,94.66 121.34,95.32 121,96 C120.01,96 119.02,96 118,96 C118,96.66 118,97.32 118,98 C117.01,98.33 116.02,98.66 115,99 C115,97.35 115,95.7 115,94 Z"/>
  <path fill="#836A60" d="M117,151 C117.66,151.33 118.32,151.66 119,152 C117.75,154 117.75,154 116,156 C114.68,156 113.36,156 112,156 C113,153 113,153 114.938,151.75 C115.618,151.503 116.299,151.255 117,151 Z"/>
  <path fill="#7E685D" d="M98,118 C98.66,118.33 99.32,118.66 100,119 C99.67,121.31 99.34,123.62 99,126 C98.34,126 97.68,126 97,126 C96.958,123.667 96.959,121.333 97,119 C97.33,118.67 97.66,118.34 98,118 Z"/>
</svg>
