<svg xmlns="http://www.w3.org/2000/svg" version="1.1" width="210" height="241">
  <defs/>
  <path fill="#5200A2" d="M163.5,14.812 C166,16 166,16 168,18 C168.276,20.345 168.45,22.704 168.562,25.062 C168.388,29.352 168.388,29.352 170,33 C170.083,34.237 170.165,35.475 170.25,36.75 C170.751,41.309 172.691,42.848 176,46 C177.28,48.586 178.186,51.235 179,54 C179.173,54.562 179.345,55.124 179.523,55.704 C180.543,60.617 180.226,65.735 180.24,70.735 C180.25,72.796 180.281,74.855 180.312,76.916 C180.32,78.885 180.32,78.885 180.328,80.895 C180.337,82.089 180.347,83.284 180.356,84.515 C180,88 180,88 178.514,91.453 C176.849,95.355 176.52,98.689 176.445,102.855 C176.391,104.371 176.336,105.886 176.28,107.402 C176.255,108.184 176.231,108.966 176.206,109.772 C175.729,124.036 174.606,137.395 170,151 C169.676,151.991 169.676,151.991 169.346,153.002 C168.013,157.049 166.543,161.029 165,165 C164.696,165.83 164.392,166.66 164.078,167.516 C157.053,186.126 147.457,205.141 129.324,214.715 C126.925,216.042 124.697,217.511 122.438,219.062 C105.399,230.589 81.475,232.668 61.361,229.597 C51.053,227.558 37.704,224.734 30.824,216.348 C29.057,213.622 27.504,210.877 26,208 C25.321,206.873 25.321,206.873 24.629,205.723 C24.091,204.824 23.554,203.926 23,203 C22.37,202.055 22.37,202.055 21.728,201.092 C17.852,194.894 17.105,189.679 17.188,182.438 C17.194,181.386 17.2,180.335 17.207,179.252 C17.55,169.267 20.547,162.214 26,154 C26.489,153.185 26.977,152.371 27.48,151.531 C32.279,144.214 40.431,139.135 48,135 C49.667,135 51.333,135 53,135 C54.625,133.542 54.625,133.542 56,132 C56.99,132 57.98,132 59,132 C59.409,131.395 59.817,130.791 60.238,130.168 C62.679,127.164 65.625,126.461 69.188,125.312 C78.087,122.228 85.941,117.824 94,113 C94.874,112.478 95.748,111.956 96.648,111.418 C97.424,110.95 98.2,110.482 99,110 C99.813,109.526 100.627,109.051 101.465,108.562 C108.493,104.121 111.466,99.39 115,92 C118.337,86.331 118.337,86.331 121,85 C121.762,83.186 121.762,83.186 122.25,81.062 C122.441,80.352 122.632,79.642 122.828,78.91 C122.885,78.28 122.942,77.649 123,77 C122.34,76.34 121.68,75.68 121,75 C120.938,72.688 120.938,72.688 122,70 C123.084,69.276 124.168,68.551 125.285,67.805 C129.381,64.985 131.273,61.805 133.5,57.438 C133.88,56.737 134.261,56.037 134.653,55.316 C136.431,52.04 138.135,48.736 139.777,45.391 C143.797,37.635 143.797,37.635 147.656,35.598 C150.121,34.847 152.445,34.308 155,34 C154.916,33.169 154.832,32.337 154.746,31.48 C154.593,29.85 154.593,29.85 154.438,28.188 C154.333,27.109 154.229,26.03 154.121,24.918 C154,22 154,22 155,19 C155.66,19 156.32,19 157,19 C157.289,18.361 157.577,17.721 157.875,17.062 C159.508,14.068 160.237,13.752 163.5,14.812 Z"/>
  <path fill="#CBDA39" d="M163.5,14.812 C166,16 166,16 168,18 C168.276,20.345 168.45,22.704 168.562,25.062 C168.388,29.352 168.388,29.352 170,33 C170.238,36.308 170.395,39.608 170.518,42.922 C170.767,49.492 170.767,49.492 174,55 C174.089,57.594 174.115,60.16 174.098,62.754 C174.096,63.529 174.095,64.305 174.093,65.104 C174.088,67.59 174.075,70.076 174.062,72.562 C174.057,74.244 174.053,75.926 174.049,77.607 C174.038,81.738 174.021,85.869 174,90 C173.01,90 172.02,90 171,90 C170.732,89.299 170.464,88.598 170.188,87.875 C169.047,84.958 169.047,84.958 167.438,82.188 C165.697,78.329 165.362,75.202 165,71 C162.69,71.66 160.38,72.32 158,73 C157.67,75.64 157.34,78.28 157,81 C156.01,81 155.02,81 154,81 C154.083,81.908 154.165,82.815 154.25,83.75 C154,87 154,87 152.125,89.375 C150,91 150,91 148,91 C148,85.39 148,79.78 148,74 C147.01,74 146.02,74 145,74 C144.67,72.68 144.34,71.36 144,70 C142.68,69.67 141.36,69.34 140,69 C139.691,69.619 139.381,70.238 139.062,70.875 C138.375,72.25 137.688,73.625 137,75 C136.34,75 135.68,75 135,75 C134.67,76.32 134.34,77.64 134,79 C128.555,79.495 128.555,79.495 123,80 C122.25,77.002 121.589,74.031 121,71 C122.134,70.34 123.269,69.68 124.438,69 C131.955,63.395 135.73,53.631 139.773,45.395 C143.801,37.633 143.801,37.633 147.656,35.598 C150.121,34.847 152.445,34.308 155,34 C154.916,33.169 154.832,32.337 154.746,31.48 C154.593,29.85 154.593,29.85 154.438,28.188 C154.281,26.569 154.281,26.569 154.121,24.918 C154,22 154,22 155,19 C155.66,19 156.32,19 157,19 C157.289,18.361 157.577,17.721 157.875,17.062 C159.508,14.068 160.237,13.752 163.5,14.812 Z"/>
  <path fill="#6E405C" d="M170,42 C171.75,42.062 171.75,42.062 174,43 C180.081,51.764 180.35,60.621 180.316,71.036 C180.312,73.062 180.336,75.086 180.361,77.111 C180.362,78.406 180.363,79.701 180.363,81.035 C180.366,82.204 180.369,83.374 180.372,84.578 C180,88 180,88 178.512,91.444 C176.851,95.349 176.52,98.687 176.445,102.855 C176.391,104.371 176.336,105.886 176.28,107.402 C176.255,108.184 176.231,108.966 176.206,109.772 C175.729,124.036 174.606,137.395 170,151 C169.784,151.661 169.568,152.321 169.346,153.002 C168.013,157.049 166.543,161.029 165,165 C164.696,165.83 164.392,166.66 164.078,167.516 C158.226,183.018 149.932,201.248 136,211 C133.805,211.637 133.805,211.637 132,212 C131.688,208.688 131.688,208.688 132,205 C134.312,203.375 134.312,203.375 137,202 C138.034,200.354 139.041,198.69 140,197 C140.66,197 141.32,197 142,197 C142.268,196.031 142.536,195.061 142.812,194.062 C143.4,192.547 143.4,192.547 144,191 C144.99,190.67 145.98,190.34 147,190 C147,189.01 147,188.02 147,187 C147.66,187 148.32,187 149,187 C149,185.02 149,183.04 149,181 C149.66,180.67 150.32,180.34 151,180 C154.846,174.525 156.637,169.647 157,163 C157.66,163 158.32,163 159,163 C159,161.68 159,160.36 159,159 C159.99,158.505 159.99,158.505 161,158 C163.83,152.299 164.387,146.366 164.594,140.09 C165,137 165,137 166.488,133.535 C168.909,127.453 168.573,120.957 168.688,114.5 C168.722,113.201 168.756,111.901 168.791,110.562 C168.873,107.375 168.942,104.188 169,101 C169.639,100.711 170.279,100.423 170.938,100.125 C173.152,99.172 173.152,99.172 174,97 C171.69,97 169.38,97 167,97 C167,96.34 167,95.68 167,95 C166.01,94.67 165.02,94.34 164,94 C163.051,91.277 163.051,91.277 162.312,87.938 C162.061,86.833 161.81,85.728 161.551,84.59 C161.369,83.735 161.187,82.881 161,82 C160.67,83.65 160.34,85.3 160,87 C158.35,87 156.7,87 155,87 C154.897,87.866 154.794,88.732 154.688,89.625 C153.654,94.7 152.366,98.089 148,101 C145.668,101.079 143.332,101.088 141,101 C140.02,96.69 139.969,94.836 142,91 C143.038,84.978 143.112,79.1 143,73 C141.02,73.33 139.04,73.66 137,74 C137.99,72.35 138.98,70.7 140,69 C141.65,69.33 143.3,69.66 145,70 C145,71.32 145,72.64 145,74 C145.99,74 146.98,74 148,74 C148,79.61 148,85.22 148,91 C148.66,91 149.32,91 150,91 C150.33,90.01 150.66,89.02 151,88 C151.99,87.505 151.99,87.505 153,87 C153.658,83.971 153.658,83.971 154,81 C154.99,81 155.98,81 157,81 C156.959,79.721 156.917,78.443 156.875,77.125 C156.805,74.945 156.805,74.945 157,73 C159,71 159,71 162.125,70.875 C163.548,70.937 163.548,70.937 165,71 C165.398,72.373 165.398,72.373 165.805,73.773 C166.158,74.962 166.511,76.15 166.875,77.375 C167.397,79.15 167.397,79.15 167.93,80.961 C168.777,84.065 168.777,84.065 171,86 C171,87.32 171,88.64 171,90 C171.99,90 172.98,90 174,90 C173.907,85.052 173.801,80.104 173.683,75.156 C173.644,73.472 173.609,71.788 173.578,70.104 C173.533,67.687 173.475,65.269 173.414,62.852 C173.403,62.096 173.391,61.341 173.379,60.563 C173.397,56.322 173.397,56.322 171,53 C169.67,49.408 169.927,45.785 170,42 Z"/>
  <path fill="#673E44" d="M118,87 C118.99,87 119.98,87 121,87 C120.348,95.255 116.186,102.628 110,108 C109.443,108.598 108.886,109.196 108.312,109.812 C107,111 107,111 105,111 C105,111.66 105,112.32 105,113 C97.209,118.454 88.412,122.561 79.758,126.461 C76.93,127.772 76.93,127.772 75.566,130.086 C73.176,133.007 70.579,133 66.938,133.625 C61.941,134.269 61.941,134.269 58,137 C56.68,137 55.36,137 54,137 C53.772,137.615 53.544,138.23 53.309,138.863 C51.6,141.653 50.108,142.092 47.062,143.188 C46.187,143.511 45.312,143.835 44.41,144.168 C42.61,144.789 40.806,145.398 39,146 C38.67,146.66 38.34,147.32 38,148 C37.01,148 36.02,148 35,148 C34.753,148.887 34.505,149.774 34.25,150.688 C33,154 33,154 31.125,156.312 C24.223,165.042 23.837,174.72 23.938,185.438 C23.942,186.36 23.947,187.282 23.951,188.232 C23.963,190.488 23.979,192.744 24,195 C24.66,195 25.32,195 26,195 C27.354,197.709 27.065,200.009 27,203 C27.99,203.33 28.98,203.66 30,204 C29.67,205.98 29.34,207.96 29,210 C25.664,207.776 24.917,206.466 23,203 C22.596,202.39 22.192,201.78 21.776,201.151 C17.867,194.929 17.105,189.711 17.188,182.438 C17.194,181.386 17.2,180.335 17.207,179.252 C17.55,169.267 20.547,162.214 26,154 C26.489,153.185 26.977,152.371 27.48,151.531 C32.279,144.214 40.431,139.135 48,135 C49.667,135 51.333,135 53,135 C54.625,133.542 54.625,133.542 56,132 C56.99,132 57.98,132 59,132 C59.409,131.395 59.817,130.791 60.238,130.168 C62.679,127.164 65.625,126.461 69.188,125.312 C78.087,122.228 85.941,117.824 94,113 C94.874,112.478 95.748,111.956 96.648,111.418 C97.424,110.95 98.2,110.482 99,110 C99.813,109.526 100.627,109.051 101.465,108.562 C108.484,104.127 111.499,99.394 115,92 C116.473,89.164 116.473,89.164 118,87 Z"/>
  <path fill="#8B734A" d="M170,42 C171.75,42.062 171.75,42.062 174,43 C180.055,51.726 180.373,60.607 180.371,70.981 C180.375,72.996 180.411,75.009 180.449,77.023 C180.472,84.494 180.086,89.668 176,96 C173.36,96 170.72,96 168,96 C166.633,92.992 165.941,90.557 165.5,87.25 C165.335,86.178 165.17,85.105 165,84 C164.34,83.67 163.68,83.34 163,83 C163,82.01 163,81.02 163,80 C161.515,80.495 161.515,80.495 160,81 C159.298,82.652 158.63,84.319 158,86 C157.01,86.495 157.01,86.495 156,87 C154.936,89.744 154.077,92.529 153.195,95.336 C151.856,98.321 150.844,99.43 148,101 C144.25,101.188 144.25,101.188 141,101 C140.02,96.69 139.969,94.836 142,91 C143.038,84.978 143.112,79.1 143,73 C141.02,73.33 139.04,73.66 137,74 C137.99,72.35 138.98,70.7 140,69 C141.65,69.33 143.3,69.66 145,70 C145,71.32 145,72.64 145,74 C145.99,74 146.98,74 148,74 C148,79.61 148,85.22 148,91 C148.66,91 149.32,91 150,91 C150.33,90.01 150.66,89.02 151,88 C151.99,87.505 151.99,87.505 153,87 C153.658,83.971 153.658,83.971 154,81 C154.99,81 155.98,81 157,81 C156.959,79.721 156.917,78.443 156.875,77.125 C156.805,74.945 156.805,74.945 157,73 C159,71 159,71 162.125,70.875 C163.548,70.937 163.548,70.937 165,71 C165.266,71.915 165.531,72.83 165.805,73.773 C166.158,74.962 166.511,76.15 166.875,77.375 C167.223,78.558 167.571,79.742 167.93,80.961 C168.777,84.065 168.777,84.065 171,86 C171,87.32 171,88.64 171,90 C171.99,90 172.98,90 174,90 C173.907,85.052 173.801,80.104 173.683,75.156 C173.644,73.472 173.609,71.788 173.578,70.104 C173.533,67.687 173.475,65.269 173.414,62.852 C173.403,62.096 173.391,61.341 173.379,60.563 C173.397,56.322 173.397,56.322 171,53 C169.67,49.408 169.927,45.785 170,42 Z"/>
  <path fill="#704359" d="M160,80 C160.99,80 161.98,80 163,80 C163,80.99 163,81.98 163,83 C163.99,83.33 164.98,83.66 166,84 C166.66,87.96 167.32,91.92 168,96 C170.64,96 173.28,96 176,96 C176.146,113.676 175.671,129.674 171.254,146.852 C171.061,147.603 170.869,148.354 170.67,149.127 C170,151 170,151 168,153 C167.505,150.525 167.505,150.525 167,148 C166.01,149.98 165.02,151.96 164,154 C163.438,152.062 163.438,152.062 163,150 C163.495,149.505 163.495,149.505 164,149 C164.248,146.126 164.384,143.252 164.523,140.371 C165,137 165,137 166.496,133.504 C168.917,127.437 168.573,120.942 168.688,114.5 C168.722,113.201 168.756,111.901 168.791,110.562 C168.873,107.375 168.942,104.188 169,101 C169.639,100.711 170.279,100.423 170.938,100.125 C173.152,99.172 173.152,99.172 174,97 C171.69,97 169.38,97 167,97 C167,96.34 167,95.68 167,95 C166.01,94.67 165.02,94.34 164,94 C163.051,91.277 163.051,91.277 162.312,87.938 C161.935,86.28 161.935,86.28 161.551,84.59 C161.369,83.735 161.187,82.881 161,82 C160.67,83.65 160.34,85.3 160,87 C158.68,86.67 157.36,86.34 156,86 C156.66,86 157.32,86 158,86 C158.144,85.196 158.289,84.391 158.438,83.562 C159,81 159,81 160,80 Z"/>
  <path fill="#B2B23D" d="M170,47 C170.66,47 171.32,47 172,47 C174.756,52.489 175.415,56.681 175.293,62.777 C175.289,63.589 175.284,64.4 175.28,65.236 C175.263,67.804 175.226,70.37 175.188,72.938 C175.172,74.688 175.159,76.439 175.146,78.189 C175.114,82.46 175.062,86.73 175,91 C173.35,91 171.7,91 170,91 C169.876,90.361 169.753,89.721 169.625,89.062 C169.419,88.382 169.212,87.701 169,87 C168.34,86.67 167.68,86.34 167,86 C166.265,84.024 165.609,82.018 165,80 C164.629,78.927 164.258,77.855 163.875,76.75 C163,74 163,74 163,72 C160.921,72.41 160.921,72.41 159,74 C158.312,76.697 158.181,79.202 158,82 C157.34,82 156.68,82 156,82 C155.974,82.557 155.948,83.114 155.922,83.688 C155.496,89.417 154.319,94.227 151,99 C147.356,101.429 145.288,101.162 141,101 C140.02,96.69 139.969,94.836 142,91 C143.038,84.978 143.112,79.1 143,73 C141.02,73.33 139.04,73.66 137,74 C137.99,72.35 138.98,70.7 140,69 C141.65,69.33 143.3,69.66 145,70 C145,71.32 145,72.64 145,74 C145.99,74 146.98,74 148,74 C148,79.61 148,85.22 148,91 C148.66,91 149.32,91 150,91 C150.33,90.01 150.66,89.02 151,88 C151.99,87.505 151.99,87.505 153,87 C153.658,83.971 153.658,83.971 154,81 C154.99,81 155.98,81 157,81 C156.959,79.721 156.917,78.442 156.875,77.125 C156.805,74.945 156.805,74.945 157,73 C159,71 159,71 162.125,70.875 C163.548,70.937 163.548,70.937 165,71 C165.266,71.915 165.531,72.83 165.805,73.773 C166.158,74.962 166.511,76.15 166.875,77.375 C167.223,78.558 167.571,79.742 167.93,80.961 C168.777,84.065 168.777,84.065 171,86 C171,87.32 171,88.64 171,90 C171.99,90 172.98,90 174,90 C173.907,85.052 173.801,80.104 173.683,75.156 C173.644,73.472 173.609,71.788 173.578,70.104 C173.533,67.687 173.475,65.269 173.414,62.852 C173.403,62.096 173.391,61.341 173.379,60.563 C173.397,56.322 173.397,56.322 171,53 C170.602,51.012 170.262,49.011 170,47 Z"/>
  <path fill="#7C5E3A" d="M150,36 C150,36.66 150,37.32 150,38 C149.01,38.495 149.01,38.495 148,39 C147.344,41.527 147.344,41.527 147,44 C146.34,44 145.68,44 145,44 C145.083,44.722 145.165,45.444 145.25,46.188 C144.923,49.87 143.363,51.22 141,54 C139.76,56.679 139.76,56.679 139,59 C138.34,59 137.68,59 137,59 C136.66,60.578 136.66,60.578 136.312,62.188 C135.178,66.173 133.25,68.384 130,71 C129.01,71 128.02,71 127,71 C127,71.99 127,72.98 127,74 C130.3,74 133.6,74 137,74 C136.01,74.495 136.01,74.495 135,75 C134.67,76.32 134.34,77.64 134,79 C128.555,79.495 128.555,79.495 123,80 C122.25,77.002 121.589,74.031 121,71 C122.134,70.34 123.269,69.68 124.438,69 C130.553,64.44 133.466,57.65 136.927,51.038 C138.52,48.012 140.184,45.035 141.875,42.062 C142.409,41.105 142.942,40.147 143.492,39.16 C145.351,36.497 146.769,36 150,36 Z"/>
  <path fill="#6E4257" d="M34,216 C34.99,216.33 35.98,216.66 37,217 C37,217.66 37,218.32 37,219 C37.969,218.979 38.939,218.959 39.938,218.938 C43,219 43,219 44,220 C45.155,220.165 46.31,220.33 47.5,220.5 C51,221 51,221 52,222 C53.328,222.206 54.663,222.366 56,222.5 C59.889,222.889 59.889,222.889 61,224 C63.146,224.088 65.294,224.107 67.441,224.098 C68.747,224.094 70.052,224.091 71.396,224.088 C72.785,224.08 74.174,224.071 75.562,224.062 C76.955,224.057 78.348,224.053 79.74,224.049 C83.16,224.037 86.58,224.021 90,224 C89.67,225.65 89.34,227.3 89,229 C72.936,234.355 52.48,228.91 37.812,221.688 C36.198,220.811 34.589,219.923 33,219 C33.33,218.01 33.66,217.02 34,216 Z"/>
  <path fill="#A8A042" d="M163.5,14.812 C166,16 166,16 168,18 C168.276,20.345 168.45,22.704 168.562,25.062 C168.388,29.352 168.388,29.352 170,33 C170.041,35.333 170.042,37.667 170,40 C168.35,40 166.7,40 165,40 C164.951,39.348 164.902,38.695 164.852,38.023 C164.425,33.038 163.729,28.727 162,24 C162,23.01 162,22.02 162,21 C161.34,21 160.68,21 160,21 C160,25.29 160,29.58 160,34 C159.01,34 158.02,34 157,34 C157,34.99 157,35.98 157,37 C155.02,37 153.04,37 151,37 C151.99,35.515 151.99,35.515 153,34 C153.66,34 154.32,34 155,34 C154.916,33.169 154.832,32.337 154.746,31.48 C154.644,30.394 154.542,29.307 154.438,28.188 C154.333,27.109 154.229,26.03 154.121,24.918 C154,22 154,22 155,19 C155.66,19 156.32,19 157,19 C157.433,18.041 157.433,18.041 157.875,17.062 C159.508,14.068 160.237,13.752 163.5,14.812 Z"/>
  <path fill="#6A4249" d="M118,87 C118.99,87 119.98,87 121,87 C120.348,95.255 116.186,102.628 110,108 C109.443,108.598 108.886,109.196 108.312,109.812 C107,111 107,111 105,111 C105,111.66 105,112.32 105,113 C100.877,116.265 96.133,118.833 91,120 C88.625,119.625 88.625,119.625 87,119 C87.99,118.67 88.98,118.34 90,118 C90,117.01 90,116.02 90,115 C91.093,114.505 92.186,114.01 93.312,113.5 C103.78,108.164 110.023,102.673 115,92 C116.469,89.168 116.469,89.168 118,87 Z"/>
  <path fill="#6C3E61" d="M128,212 C128.33,212.99 128.66,213.98 129,215 C109.951,227.301 109.951,227.301 99,228 C98,227 98,227 97.938,224.438 C97.958,223.633 97.979,222.829 98,222 C100.31,222 102.62,222 105,222 C105,221.34 105,220.68 105,220 C105.664,219.807 106.328,219.613 107.012,219.414 C113.598,217.472 113.598,217.472 120,215 C120,214.01 120,213.02 120,212 C123.29,210.903 124.713,211.2 128,212 Z"/>
  <path fill="#724657" d="M140,69 C142.375,69.188 142.375,69.188 145,70 C148.572,76.707 147.798,85.621 146,92.812 C145.67,93.864 145.34,94.916 145,96 C145.99,96 146.98,96 148,96 C148,95.34 148,94.68 148,94 C148.66,93.67 149.32,93.34 150,93 C150.33,92.01 150.66,91.02 151,90 C153.062,88.812 153.062,88.812 155,88 C154.392,92.134 153.09,95.382 151,99 C147.356,101.429 145.288,101.162 141,101 C140.02,96.69 139.969,94.836 142,91 C143.038,84.978 143.113,79.1 143,73 C141.02,73.33 139.04,73.66 137,74 C137.99,72.35 138.98,70.7 140,69 Z"/>
  <path fill="#744D54" d="M166,146 C168.339,148.339 168.319,148.876 168.375,152.062 C168.282,156.555 167.05,159.764 165.07,163.75 C164.012,165.975 163.274,168.144 162.562,170.5 C161.016,175.371 158.615,179.629 156,184 C155.34,184 154.68,184 154,184 C158.134,162.629 158.134,162.629 163.125,154.25 C164.812,151.327 165.599,149.307 166,146 Z"/>
  <path fill="#63257C" d="M160,80 C160.99,80 161.98,80 163,80 C163,80.99 163,81.98 163,83 C163.99,83.33 164.98,83.66 166,84 C166.66,87.96 167.32,91.92 168,96 C170.64,96 173.28,96 176,96 C176,97.65 176,99.3 176,101 C175.34,101 174.68,101 174,101 C173.67,105.95 173.34,110.9 173,116 C172.34,116 171.68,116 171,116 C170.67,119.3 170.34,122.6 170,126 C169.67,126 169.34,126 169,126 C169,117.75 169,109.5 169,101 C170.32,100.34 171.64,99.68 173,99 C173.33,98.34 173.66,97.68 174,97 C171.69,97 169.38,97 167,97 C167,96.34 167,95.68 167,95 C166.01,94.67 165.02,94.34 164,94 C163.051,91.277 163.051,91.277 162.312,87.938 C161.935,86.28 161.935,86.28 161.551,84.59 C161.369,83.735 161.187,82.881 161,82 C160.67,83.65 160.34,85.3 160,87 C158.68,86.67 157.36,86.34 156,86 C156.66,86 157.32,86 158,86 C158.144,85.196 158.289,84.391 158.438,83.562 C159,81 159,81 160,80 Z"/>
  <path fill="#764E54" d="M48,135 C50.812,135.188 50.812,135.188 53,136 C53,136.66 53,137.32 53,138 C52.01,138 51.02,138 50,138 C49.67,138.99 49.34,139.98 49,141 C46.75,142.316 46.75,142.316 44,143.562 C40.29,145.024 40.29,145.024 38,148 C37.01,148 36.02,148 35,148 C34.814,148.825 34.629,149.65 34.438,150.5 C33.068,153.834 31.965,155.311 29.562,157.875 C27.021,160.611 25.45,162.833 24.25,166.375 C23,170 23,170 20,172 C20.816,165.385 23.636,160.653 27,155 C27.37,154.345 27.74,153.69 28.121,153.016 C31.229,148.053 35.639,145.154 40.414,141.871 C42.549,140.326 44.161,138.907 45.875,136.938 C46.576,136.298 47.278,135.659 48,135 Z"/>
  <path fill="#612083" d="M144,72 C144.265,79.606 143.586,86.566 142,94 C141.249,97.474 141.249,97.474 141,101 C142.98,101 144.96,101 147,101 C147,101.33 147,101.66 147,102 C144.69,102 142.38,102 140,102 C138.436,98.873 138.6,95.42 139,92 C139.66,91.01 140.32,90.02 141,89 C141.295,86.613 141.493,84.214 141.625,81.812 C141.7,80.54 141.775,79.268 141.852,77.957 C141.901,76.981 141.95,76.005 142,75 C140.02,75.33 138.04,75.66 136,76 C135.67,77.32 135.34,78.64 135,80 C132.69,80 130.38,80 128,80 C127.897,80.639 127.794,81.279 127.688,81.938 C127.461,82.618 127.234,83.299 127,84 C126.01,84.33 125.02,84.66 124,85 C123.67,87.31 123.34,89.62 123,92 C122.34,92 121.68,92 121,92 C121,93.32 121,94.64 121,96 C120.34,96 119.68,96 119,96 C119.66,93.03 120.32,90.06 121,87 C120.34,86.67 119.68,86.34 119,86 C119.66,85.67 120.32,85.34 121,85 C121.255,84.181 121.51,83.363 121.773,82.52 C123,80 123,80 125.602,79.074 C126.599,78.947 127.597,78.819 128.625,78.688 C130.129,78.477 130.129,78.477 131.664,78.262 C132.82,78.132 132.82,78.132 134,78 C134.33,77.01 134.66,76.02 135,75 C136.812,74.051 136.812,74.051 139,73.312 C140.083,72.935 140.083,72.935 141.188,72.551 C143,72 143,72 144,72 Z"/>
  <path fill="#BABF3B" d="M142,52 C142,54.84 141.597,57.237 141,60 C140.34,60 139.68,60 139,60 C139.33,60.99 139.66,61.98 140,63 C139.67,63.66 139.34,64.32 139,65 C141.31,65.66 143.62,66.32 146,67 C146,69.31 146,71.62 146,74 C145.753,73.361 145.505,72.721 145.25,72.062 C144.184,69.813 144.184,69.813 141.875,69.25 C141.256,69.167 140.637,69.085 140,69 C139.691,69.639 139.381,70.279 139.062,70.938 C138,73 138,73 137,74 C135.314,74.072 133.625,74.084 131.938,74.062 C131.018,74.053 130.099,74.044 129.152,74.035 C128.442,74.024 127.732,74.012 127,74 C127,73.01 127,72.02 127,71 C129.375,69.438 129.375,69.438 132,68 C134.273,65.979 134.273,65.979 135.5,62.438 C137,59 137,59 139,58 C139.702,56.348 140.37,54.681 141,53 C141.33,52.67 141.66,52.34 142,52 Z"/>
  <path fill="#815F4E" d="M135,57 C136.188,58.625 136.188,58.625 137,61 C135.446,65.144 133.441,68.204 130,71 C129.01,71 128.02,71 127,71 C127,71.99 127,72.98 127,74 C130.3,74 133.6,74 137,74 C136.34,74.33 135.68,74.66 135,75 C134.67,76.32 134.34,77.64 134,79 C130.37,79.33 126.74,79.66 123,80 C122.67,77.36 122.34,74.72 122,72 C123.287,70.994 124.58,69.996 125.875,69 C126.594,68.443 127.314,67.886 128.055,67.312 C130,66 130,66 132,66 C132.124,65.257 132.247,64.515 132.375,63.75 C132.955,61.199 133.737,59.273 135,57 Z"/>
  <path fill="#704C51" d="M151,186 C151.66,186 152.32,186 153,186 C154,189 154,189 153.031,190.945 C151.37,193.31 149.707,195.668 148,198 C147.411,198.808 146.822,199.616 146.215,200.449 C140.219,208.422 140.219,208.422 136,211 C135.01,210.67 134.02,210.34 133,210 C133,208.68 133,207.36 133,206 C134.631,204.942 136.303,203.947 138,203 C139.018,201.68 140.022,200.35 141,199 C141.66,199 142.32,199 143,199 C143,198.01 143,197.02 143,196 C143.99,196 144.98,196 146,196 C146.124,195.402 146.247,194.804 146.375,194.188 C147,192 147,192 149,189 C149.66,189 150.32,189 151,189 C151,188.01 151,187.02 151,186 Z"/>
  <path fill="#795844" d="M179,59 C179.33,59 179.66,59 180,59 C180.1,62.983 180.172,66.966 180.22,70.951 C180.249,72.963 180.3,74.976 180.352,76.988 C180.427,84.494 180.121,89.641 176,96 C173.36,96 170.72,96 168,96 C165.875,91.375 165.875,91.375 167,88 C167,88.66 167,89.32 167,90 C167.66,90 168.32,90 169,90 C169,91.32 169,92.64 169,94 C170.32,94 171.64,94 173,94 C173,93.34 173,92.68 173,92 C174.32,92 175.64,92 177,92 C176.505,90.515 176.505,90.515 176,89 C175.532,82.391 176.053,75.544 177,69 C177.33,68.67 177.66,68.34 178,68 C178.232,66.485 178.412,64.962 178.562,63.438 C178.646,62.611 178.73,61.785 178.816,60.934 C178.877,60.296 178.938,59.657 179,59 Z"/>
  <path fill="#5E1887" d="M33,215 C37.966,214.503 40.825,215.716 45.074,217.98 C51.131,221.187 57.28,221.546 64,222 C64,222.66 64,223.32 64,224 C66.646,223.86 69.292,223.713 71.938,223.562 C72.692,223.523 73.447,223.484 74.225,223.443 C77.919,223.56 77.919,223.56 81,222 C82.853,221.928 84.708,221.916 86.562,221.938 C87.574,221.947 88.586,221.956 89.629,221.965 C90.411,221.976 91.194,221.988 92,222 C92,223.98 92,225.96 92,228 C91.01,228 90.02,228 89,228 C89.33,226.68 89.66,225.36 90,224 C89.01,224.33 88.02,224.66 87,225 C85.02,225.094 83.037,225.131 81.055,225.133 C79.896,225.134 78.737,225.135 77.543,225.137 C75.727,225.131 75.727,225.131 73.875,225.125 C72.657,225.129 71.439,225.133 70.184,225.137 C69.027,225.135 67.871,225.134 66.68,225.133 C65.615,225.132 64.55,225.131 63.453,225.129 C61,225 61,225 60,224 C58.672,223.794 57.337,223.634 56,223.5 C52.111,223.111 52.111,223.111 51,222 C49.969,221.856 48.938,221.711 47.875,221.562 C44.057,221.008 40.678,220.126 37,219 C37,218.34 37,217.68 37,217 C35.68,217.33 34.36,217.66 33,218 C33,217.01 33,216.02 33,215 Z"/>
  <path fill="#744C54" d="M174,100 C174.66,100.33 175.32,100.66 176,101 C176.191,120.34 176.191,120.34 175,130 C174.34,129.34 173.68,128.68 173,128 C172.67,129.65 172.34,131.3 172,133 C171.67,133 171.34,133 171,133 C171,127.39 171,121.78 171,116 C171.66,116 172.32,116 173,116 C172.988,114.929 172.977,113.858 172.965,112.754 C172.955,111.357 172.946,109.96 172.938,108.562 C172.925,107.502 172.925,107.502 172.912,106.42 C172.903,104.613 172.948,102.806 173,101 C173.33,100.67 173.66,100.34 174,100 Z"/>
  <path fill="#755250" d="M34,216 C34.99,216.33 35.98,216.66 37,217 C37,217.66 37,218.32 37,219 C38.268,218.938 38.268,218.938 39.562,218.875 C43.354,219.013 46.429,219.739 50,221 C50.33,221.66 50.66,222.32 51,223 C53.322,223.407 55.657,223.744 58,224 C58.33,225.32 58.66,226.64 59,228 C53.257,227.476 48.499,226.336 43.188,224.125 C42.533,223.868 41.879,223.612 41.205,223.348 C37.908,222.007 35.26,220.806 33,218 C33.33,217.34 33.66,216.68 34,216 Z"/>
  <path fill="#8F7451" d="M161,14 C164.138,14.822 165.703,15.703 168,18 C168.195,20.602 168.195,20.602 168.125,23.625 C168.107,24.628 168.089,25.631 168.07,26.664 C168.036,27.82 168.036,27.82 168,29 C166.68,28.67 165.36,28.34 164,28 C163.67,25.36 163.34,22.72 163,20 C161.68,20 160.36,20 159,20 C159,19.34 159,18.68 159,18 C158.34,17.67 157.68,17.34 157,17 C158.688,15.375 158.688,15.375 161,14 Z"/>
  <path fill="#785158" d="M62,227 C71.24,227 80.48,227 90,227 C89.67,227.66 89.34,228.32 89,229 C84.385,230.538 79.771,230.225 74.938,230.25 C73.918,230.271 72.899,230.291 71.85,230.312 C70.877,230.318 69.904,230.323 68.902,230.328 C68.01,230.337 67.118,230.347 66.199,230.356 C65.473,230.239 64.748,230.121 64,230 C63.34,229.01 62.68,228.02 62,227 Z"/>
  <path fill="#643269" d="M21,175 C21.66,175 22.32,175 23,175 C23.33,181.6 23.66,188.2 24,195 C24.66,195 25.32,195 26,195 C27.354,197.709 27.065,200.009 27,203 C27.99,203.33 28.98,203.66 30,204 C29.67,205.98 29.34,207.96 29,210 C25.671,207.781 25.25,206.653 24,203 C24.66,203 25.32,203 26,203 C25.505,201.969 25.01,200.938 24.5,199.875 C23.025,196.475 22.727,193.73 23,190 C22.34,190 21.68,190 21,190 C21,185.05 21,180.1 21,175 Z"/>
  <path fill="#5D1985" d="M118,96 C118.33,96 118.66,96 119,96 C119,97.65 119,99.3 119,101 C118.01,101.33 117.02,101.66 116,102 C115.959,102.722 115.918,103.444 115.875,104.188 C114.593,108.309 112.519,109.537 109,112 C108.01,112 107.02,112 106,112 C106,112.66 106,113.32 106,114 C103.439,116.296 102.52,117 99,117 C99,117.66 99,118.32 99,119 C95.683,120.422 92.558,121.39 89,122 C93.782,117.816 98.993,115.002 105,113 C105,112.34 105,111.68 105,111 C105.66,111 106.32,111 107,111 C107.33,110.01 107.66,109.02 108,108 C108.804,107.711 109.609,107.423 110.438,107.125 C113.188,106.247 113.188,106.247 114.125,103.688 C114.414,102.801 114.702,101.914 115,101 C116.562,98.188 116.562,98.188 118,96 Z"/>
  <path fill="#734858" d="M106,108 C106.33,108.99 106.66,109.98 107,111 C106.34,111 105.68,111 105,111 C105,111.66 105,112.32 105,113 C100.877,116.265 96.133,118.833 91,120 C88.625,119.625 88.625,119.625 87,119 C87.99,118.67 88.98,118.34 90,118 C90,117.01 90,116.02 90,115 C90.888,114.745 90.888,114.745 91.793,114.484 C96.328,113.093 101.95,108 106,108 Z"/>
  <path fill="#7E5D49" d="M145,74 C145.66,74.33 146.32,74.66 147,75 C147.202,82.353 147.212,88.949 145,96 C145.99,96 146.98,96 148,96 C148,95.34 148,94.68 148,94 C148.66,93.67 149.32,93.34 150,93 C150.33,92.01 150.66,91.02 151,90 C153.062,88.812 153.062,88.812 155,88 C154.499,92.381 153.218,94.956 150,98 C146.75,98.312 146.75,98.312 144,98 C142.697,95.394 143.245,94.423 143.938,91.625 C145.223,85.723 145.186,80.014 145,74 Z"/>
  <path fill="#775152" d="M19,175 C19.33,175 19.66,175 20,175 C20,179.95 20,184.9 20,190 C20.99,190 21.98,190 23,190 C24.299,194.331 25.344,198.515 26,203 C24.188,202.875 24.188,202.875 22,202 C18.292,196.581 18.646,191.422 18.812,185.125 C18.826,184.15 18.84,183.176 18.854,182.172 C18.889,179.781 18.938,177.391 19,175 Z"/>
  <path fill="#632676" d="M73,129 C73.66,129.33 74.32,129.66 75,130 C74.67,130.66 74.34,131.32 74,132 C71.706,132.58 69.388,133.066 67.062,133.5 C62.005,134.223 62.005,134.223 58,137 C56.68,137 55.36,137 54,137 C53.814,137.619 53.629,138.238 53.438,138.875 C51.286,142.056 48.625,142.195 45,143 C46,141 46,141 49,140 C49.33,139.34 49.66,138.68 50,138 C50.99,138 51.98,138 53,138 C53.124,137.381 53.247,136.762 53.375,136.125 C54,134 54,134 56,132 C58.137,131.91 58.137,131.91 60.688,132.062 C65.645,132.192 68.579,131.118 73,129 Z"/>
  <path fill="#886B52" d="M160,72 C160.99,72 161.98,72 163,72 C163.337,73.437 163.67,74.874 164,76.312 C164.186,77.113 164.371,77.914 164.562,78.738 C165,81 165,81 165,84 C164.34,83.67 163.68,83.34 163,83 C163,82.01 163,81.02 163,80 C162.01,80.33 161.02,80.66 160,81 C158.781,83.504 158.781,83.504 158,86 C157.34,86 156.68,86 156,86 C156,84.68 156,83.36 156,82 C156.66,82 157.32,82 158,82 C157.959,80.721 157.917,79.442 157.875,78.125 C157.805,75.945 157.805,75.945 158,74 C158.66,73.34 159.32,72.68 160,72 Z"/>
  <path fill="#927F40" d="M155,20 C155.99,20 156.98,20 158,20 C158.027,22.271 158.046,24.542 158.062,26.812 C158.074,28.077 158.086,29.342 158.098,30.645 C158,34 158,34 157,37 C155.02,37 153.04,37 151,37 C151.99,35.515 151.99,35.515 153,34 C153.66,34 154.32,34 155,34 C154.916,33.157 154.832,32.314 154.746,31.445 C154.644,30.35 154.542,29.254 154.438,28.125 C154.333,27.034 154.229,25.944 154.121,24.82 C154,22 154,22 155,20 Z"/>
  <path fill="#9A8A43" d="M146,74 C146.66,74 147.32,74 148,74 C148,79.61 148,85.22 148,91 C148.66,91 149.32,91 150,91 C150.33,90.01 150.66,89.02 151,88 C151.99,87.34 152.98,86.68 154,86 C155.192,83.95 155.192,83.95 156,82 C156.366,86.517 156.366,86.517 154.625,88.812 C153,90 153,90 151,90 C150.67,91.32 150.34,92.64 150,94 C149.34,94 148.68,94 148,94 C148,94.66 148,95.32 148,96 C147.01,96 146.02,96 145,96 C144.875,90.25 144.875,90.25 146,88 C146.071,85.626 146.084,83.25 146.062,80.875 C146.053,79.594 146.044,78.312 146.035,76.992 C146.024,76.005 146.012,75.017 146,74 Z"/>
  <path fill="#7A5552" d="M151,186 C151.66,186 152.32,186 153,186 C154,189 154,189 152.961,191.086 C149.925,195.468 146.944,199.404 143,203 C142.67,202.01 142.34,201.02 142,200 C142.66,200 143.32,200 144,200 C144,198.68 144,197.36 144,196 C144.66,196 145.32,196 146,196 C146.186,195.103 146.186,195.103 146.375,194.188 C147,192 147,192 149,189 C149.66,189 150.32,189 151,189 C151,188.01 151,187.02 151,186 Z"/>
  <path fill="#795255" d="M31,150 C32,153 32,153 31.312,155.438 C30,158 30,158 28.062,159.812 C25.589,162.436 24.843,164.791 23.809,168.195 C23,170 23,170 20,172 C21.019,163.664 25.425,156.218 31,150 Z"/>
  <path fill="#AAA43F" d="M162.125,70.875 C163.074,70.916 164.023,70.957 165,71 C166.905,76.103 168.426,80.463 168,86 C167.67,86 167.34,86 167,86 C166,83 166,83 165,80 C164.629,78.927 164.258,77.855 163.875,76.75 C163,74 163,74 163,72 C160.921,72.41 160.921,72.41 159,74 C158.312,76.697 158.181,79.202 158,82 C157.01,82 156.02,82 155,82 C154.67,83.32 154.34,84.64 154,86 C154,84.35 154,82.7 154,81 C154.99,81 155.98,81 157,81 C156.938,79.082 156.938,79.082 156.875,77.125 C156.805,74.945 156.805,74.945 157,73 C159,71 159,71 162.125,70.875 Z"/>
  <path fill="#7D5A5B" d="M178,83 C179.45,87.544 178.328,90.499 177,95 C176,96 176,96 174.152,96.098 C172.102,96.065 170.051,96.033 168,96 C165.875,91.375 165.875,91.375 167,88 C167,88.66 167,89.32 167,90 C167.66,90 168.32,90 169,90 C169,91.32 169,92.64 169,94 C170.32,94 171.64,94 173,94 C173,93.34 173,92.68 173,92 C174.32,92 175.64,92 177,92 C176.794,91.443 176.587,90.886 176.375,90.312 C175.893,87.34 176.734,85.68 178,83 Z"/>
  <path fill="#5F1F7F" d="M159,159 C159.33,159 159.66,159 160,159 C160.802,166.422 157.733,174.002 153.312,179.875 C151.134,182.818 150.325,184.42 150,188 C149.01,188.33 148.02,188.66 147,189 C147,188.34 147,187.68 147,187 C147.66,187 148.32,187 149,187 C149,185.02 149,183.04 149,181 C149.66,180.67 150.32,180.34 151,180 C154.846,174.525 156.637,169.647 157,163 C157.66,163 158.32,163 159,163 C159,161.68 159,160.36 159,159 Z"/>
  <path fill="#6E3D5F" d="M27,160 C27,163 27,163 26.062,165.25 C24.813,168.483 24.404,171.568 24,175 C23.01,175 22.02,175 21,175 C21,179.95 21,184.9 21,190 C20.67,190 20.34,190 20,190 C19.891,187.124 19.812,184.252 19.75,181.375 C19.716,180.567 19.683,179.759 19.648,178.926 C19.558,173.372 20.438,170.481 24,166 C24.698,164.346 25.375,162.683 26,161 C26.33,160.67 26.66,160.34 27,160 Z"/>
  <path fill="#6C3B61" d="M170,120 C170.33,120 170.66,120 171,120 C171.054,121.958 171.093,123.916 171.125,125.875 C171.148,126.966 171.171,128.056 171.195,129.18 C171,132 171,132 169,134 C168.402,135.521 167.865,137.066 167.375,138.625 C167.115,139.442 166.854,140.26 166.586,141.102 C166.393,141.728 166.199,142.355 166,143 C165.67,143 165.34,143 165,143 C164.656,138.419 165.507,135.315 167.199,131.168 C168.538,127.543 169.255,123.784 170,120 Z"/>
  <path fill="#907754" d="M170,42 C171.875,42.312 171.875,42.312 174,43 C176.786,47.18 175.796,49.147 175,54 C174.34,53.67 173.68,53.34 173,53 C172.375,49.938 172.375,49.938 172,47 C171.34,47 170.68,47 170,47 C170,45.35 170,43.7 170,42 Z"/>
  <path fill="#62237D" d="M145,190 C145.66,190.33 146.32,190.66 147,191 C145.68,193.64 144.36,196.28 143,199 C142.34,199 141.68,199 141,199 C140.732,199.598 140.464,200.196 140.188,200.812 C138.99,203.018 137.955,204.436 136,206 C135.01,206 134.02,206 133,206 C133.33,207.65 133.66,209.3 134,211 C133.34,211.33 132.68,211.66 132,212 C131.688,208.688 131.688,208.688 132,205 C134.312,203.375 134.312,203.375 137,202 C138.034,200.354 139.041,198.69 140,197 C140.66,197 141.32,197 142,197 C142.309,196.031 142.619,195.061 142.938,194.062 C144,191 144,191 145,190 Z"/>
  <path fill="#673C52" d="M66,127 C66.33,127.66 66.66,128.32 67,129 C71.455,128.505 71.455,128.505 76,128 C71.103,132.143 66.346,133.302 60,133 C60.188,131.125 60.188,131.125 61,129 C63.562,127.75 63.562,127.75 66,127 Z"/>
  <path fill="#AAA544" d="M157,34 C157.33,35.32 157.66,36.64 158,38 C153.25,39.125 153.25,39.125 151,38 C150.67,39.65 150.34,41.3 150,43 C149.34,43 148.68,43 148,43 C148,43.66 148,44.32 148,45 C147.34,45 146.68,45 146,45 C145.67,45.99 145.34,46.98 145,48 C145,46.68 145,45.36 145,44 C145.66,44 146.32,44 147,44 C147,42.02 147,40.04 147,38 C147.99,38 148.98,38 150,38 C150.33,37.34 150.66,36.68 151,36 C153.97,36.495 153.97,36.495 157,37 C157,36.01 157,35.02 157,34 Z"/>
  <path fill="#6A3666" d="M142,91 C142.625,92.812 142.625,92.812 143,95 C142.34,95.99 141.68,96.98 141,98 C141.99,97.67 142.98,97.34 144,97 C146,97 148,97 150,97 C150.66,96.67 151.32,96.34 152,96 C151,99 151,99 148,101 C145.668,101.079 143.332,101.088 141,101 C139.769,95.585 139.769,95.585 140.938,92.625 C141.463,91.821 141.463,91.821 142,91 Z"/>
  <path fill="#785252" d="M79,123 C79.66,123.33 80.32,123.66 81,124 C77.968,127.498 75.501,128.92 71,130 C67.625,130.125 67.625,130.125 65,130 C65.66,129.67 66.32,129.34 67,129 C67,128.34 67,127.68 67,127 C71,125.667 75,124.333 79,123 Z"/>
  <path fill="#826545" d="M135,57 C136.188,58.625 136.188,58.625 137,61 C135.338,65.693 133.036,68.164 129,71 C129.33,69.35 129.66,67.7 130,66 C130.66,66 131.32,66 132,66 C132.124,65.257 132.247,64.515 132.375,63.75 C132.955,61.199 133.737,59.273 135,57 Z"/>
  <path fill="#775152" d="M112,223 C110.68,223.33 109.36,223.66 108,224 C108,224.66 108,225.32 108,226 C104.629,227.498 102.796,228 99,228 C99,226.68 99,225.36 99,224 C100.602,223.636 102.207,223.284 103.812,222.938 C104.706,222.74 105.599,222.543 106.52,222.34 C109,222 109,222 112,223 Z"/>
  <path fill="#69346A" d="M33,215 C39.106,214.217 43.005,216.892 48,220 C43.842,221.315 41.112,220.344 37,219 C37,218.34 37,217.68 37,217 C35.68,217.33 34.36,217.66 33,218 C33,217.01 33,216.02 33,215 Z"/>
  <path fill="#612F67" d="M171,135 C171.66,135 172.32,135 173,135 C172.416,141.304 170.959,146.987 169,153 C168.67,153 168.34,153 168,153 C168.144,151.866 168.289,150.731 168.438,149.562 C168.934,145.643 169.341,141.718 169.719,137.785 C170,136 170,136 171,135 Z"/>
  <path fill="#662D71" d="M113,219 C112.196,219.454 111.391,219.908 110.562,220.375 C107.911,221.747 107.911,221.747 107,224 C104.36,224 101.72,224 99,224 C98.67,224.99 98.34,225.98 98,227 C98,225.35 98,223.7 98,222 C100.31,222 102.62,222 105,222 C105,221.34 105,220.68 105,220 C110.75,217.875 110.75,217.875 113,219 Z"/>
  <path fill="#632579" d="M21,175 C21.66,175 22.32,175 23,175 C23.33,180.61 23.66,186.22 24,192 C23.67,191.34 23.34,190.68 23,190 C22.34,190 21.68,190 21,190 C21,185.05 21,180.1 21,175 Z"/>
  <path fill="#61227C" d="M43,143 C43.66,143.33 44.32,143.66 45,144 C42.75,146.5 42.75,146.5 40,149 C38.68,149 37.36,149 36,149 C35.732,149.949 35.464,150.898 35.188,151.875 C34,155 34,155 31,157 C32.059,153.597 33.009,150.986 35,148 C35.99,148 36.98,148 38,148 C38.33,147.01 38.66,146.02 39,145 C40.938,143.75 40.938,143.75 43,143 Z"/>
  <path fill="#75476B" d="M173,126 C174.125,127.688 174.125,127.688 175,130 C174.25,132.688 174.25,132.688 173,135 C172.01,135.495 172.01,135.495 171,136 C170.535,137.895 170.535,137.895 170.375,140.062 C170.251,141.362 170.128,142.661 170,144 C169.67,144 169.34,144 169,144 C168.67,140.7 168.34,137.4 168,134 C168.99,133.34 169.98,132.68 171,132 C172.213,128.946 172.213,128.946 173,126 Z"/>
  <path fill="#7F604A" d="M161,18 C162.32,18 163.64,18 165,18 C165,18.66 165,19.32 165,20 C165.99,20 166.98,20 168,20 C168,22.97 168,25.94 168,29 C167.01,29 166.02,29 165,29 C164.67,25.7 164.34,22.4 164,19 C163.01,18.67 162.02,18.34 161,18 Z"/>
  <path fill="#B1AE42" d="M145,66 C146,67 146,67 146.062,70.562 C146.042,71.697 146.021,72.831 146,74 C145.753,73.361 145.505,72.721 145.25,72.062 C144.184,69.813 144.184,69.813 141.875,69.25 C140.947,69.126 140.947,69.126 140,69 C139.34,70.32 138.68,71.64 138,73 C137.312,71.188 137.312,71.188 137,69 C139.127,65.691 141.252,65.605 145,66 Z"/>
  <path fill="#5817A0" d="M29,203 C29.66,203 30.32,203 31,203 C31.026,203.699 31.052,204.397 31.078,205.117 C31.135,206.027 31.192,206.937 31.25,207.875 C31.296,208.78 31.343,209.685 31.391,210.617 C31.756,213.171 31.756,213.171 34.047,214.32 C34.691,214.545 35.336,214.769 36,215 C34.35,215.33 32.7,215.66 31,216 C28.086,211.222 27.801,208.449 29,203 Z"/>
  <path fill="#C1C93A" d="M160,21 C160.66,21 161.32,21 162,21 C162.66,23.97 163.32,26.94 164,30 C163.01,30 162.02,30 161,30 C160.67,31.32 160.34,32.64 160,34 C160,29.71 160,25.42 160,21 Z M158,34 C158.99,34.495 158.99,34.495 160,35 C159.01,35.495 159.01,35.495 158,36 C158,35.34 158,34.68 158,34 Z"/>
  <path fill="#6A3D56" d="M162,155 C162.562,156.938 162.562,156.938 163,159 C162.67,159.33 162.34,159.66 162,160 C161.959,162 161.957,164 162,166 C162.33,166 162.66,166 163,166 C163,167.65 163,169.3 163,171 C162.34,171 161.68,171 161,171 C161,170.34 161,169.68 161,169 C160.01,169 159.02,169 158,169 C158.284,167.415 158.578,165.832 158.875,164.25 C159.037,163.368 159.2,162.487 159.367,161.578 C159.968,159.131 160.78,157.194 162,155 Z"/>
  <path fill="#795452" d="M98,113 C98.33,113.66 98.66,114.32 99,115 C97.761,115.869 96.508,116.72 95.25,117.562 C94.554,118.038 93.858,118.514 93.141,119.004 C91,120 91,120 88.734,119.652 C88.162,119.437 87.59,119.222 87,119 C87.99,118.67 88.98,118.34 90,118 C90,117.01 90,116.02 90,115 C92.64,114.34 95.28,113.68 98,113 Z"/>
  <path fill="#BDC33A" d="M148,74 C148.33,74 148.66,74 149,74 C149,77.96 149,81.92 149,86 C150.65,86 152.3,86 154,86 C152.719,87.707 151.382,89.374 150,91 C149.34,91 148.68,91 148,91 C148,85.39 148,79.78 148,74 Z"/>
  <path fill="#6F474F" d="M129,214 C126.637,216.526 125.335,217.888 122,219 C122,218.34 122,217.68 122,217 C121.01,216.67 120.02,216.34 119,216 C119.66,216 120.32,216 121,216 C121,215.34 121,214.68 121,214 C123.862,212.569 125.934,213.4 129,214 Z"/>
  <path fill="#8A7045" d="M164,79 C165.485,79.99 165.485,79.99 167,81 C167.188,83.625 167.188,83.625 167,86 C167.99,86.33 168.98,86.66 170,87 C170,88.98 170,90.96 170,93 C170.99,93.33 171.98,93.66 173,94 C171.68,94 170.36,94 169,94 C169,92.68 169,91.36 169,90 C168.34,90 167.68,90 167,90 C166.01,86.37 165.02,82.74 164,79 Z"/>
  <path fill="#663E4F" d="M50.688,135.375 C51.451,135.581 52.214,135.788 53,136 C53,136.66 53,137.32 53,138 C52.01,138 51.02,138 50,138 C49.67,138.99 49.34,139.98 49,141 C46.938,141.688 46.938,141.688 45,142 C45,141.34 45,140.68 45,140 C45.99,140 46.98,140 48,140 C48,139.34 48,138.68 48,138 C47.01,137.67 46.02,137.34 45,137 C48,135 48,135 50.688,135.375 Z"/>
  <path fill="#5A128C" d="M141,89 C141.33,89 141.66,89 142,89 C142.1,92.5 141.739,95.583 141,99 C141,99.66 141,100.32 141,101 C142.98,101 144.96,101 147,101 C147,101.33 147,101.66 147,102 C144.69,102 142.38,102 140,102 C138.436,98.873 138.6,95.42 139,92 C139.66,91.01 140.32,90.02 141,89 Z"/>
  <path fill="#5F296D" d="M126,79 C126.66,79.33 127.32,79.66 128,80 C127.196,80.887 126.391,81.774 125.562,82.688 C123.296,85.383 122.316,87.421 122,91 C121.876,90.361 121.753,89.721 121.625,89.062 C121.419,88.382 121.213,87.701 121,87 C120.34,86.67 119.68,86.34 119,86 C119.66,85.67 120.32,85.34 121,85 C121.464,83.762 121.464,83.762 121.938,82.5 C122.288,81.675 122.639,80.85 123,80 C123.99,79.67 124.98,79.34 126,79 Z"/>
  <path fill="#714C31" d="M155,21 C155.66,21 156.32,21 157,21 C157,24.63 157,28.26 157,32 C156.34,32 155.68,32 155,32 C154.806,30.355 154.62,28.709 154.438,27.062 C154.333,26.146 154.229,25.229 154.121,24.285 C154.081,23.531 154.041,22.777 154,22 C154.33,21.67 154.66,21.34 155,21 Z"/>
  <path fill="#7E5955" d="M50,224 C52.64,224 55.28,224 58,224 C58.33,225.32 58.66,226.64 59,228 C53.462,227.385 53.462,227.385 51.125,225.438 C50.754,224.963 50.382,224.489 50,224 Z"/>
  <path fill="#652786" d="M53,135 C54.65,135.33 56.3,135.66 58,136 C57.381,136.083 56.763,136.165 56.125,136.25 C55.424,136.497 54.722,136.745 54,137 C53.732,137.639 53.464,138.279 53.188,138.938 C52,141 52,141 48.375,142.25 C47.261,142.497 46.147,142.745 45,143 C46,141 46,141 49,140 C49.33,139.34 49.66,138.68 50,138 C50.99,138 51.98,138 53,138 C53,137.01 53,136.02 53,135 Z"/>
  <path fill="#623F41" d="M116,221 C116,221.66 116,222.32 116,223 C110.25,226 110.25,226 108,226 C108,224 108,224 109,223 C108.34,222.67 107.68,222.34 107,222 C112.625,219.875 112.625,219.875 116,221 Z"/>
  <path fill="#5E1C82" d="M88,122 C88.33,122.66 88.66,123.32 89,124 C85.268,127.57 80.905,128.109 76,129 C78.278,125.583 79.384,125.203 83.125,123.812 C84.035,123.468 84.945,123.124 85.883,122.77 C86.581,122.516 87.28,122.262 88,122 Z"/>
  <path fill="#826056" d="M140,69 C141.65,69.33 143.3,69.66 145,70 C144.67,71.32 144.34,72.64 144,74 C143.67,73.67 143.34,73.34 143,73 C140.993,73.287 138.991,73.619 137,74 C137.99,72.35 138.98,70.7 140,69 Z"/>
  <path fill="#61237B" d="M111,106 C111.66,106.33 112.32,106.66 113,107 C111.188,109.5 111.188,109.5 109,112 C108.01,112 107.02,112 106,112 C106,112.66 106,113.32 106,114 C105.01,113.67 104.02,113.34 103,113 C103.66,113 104.32,113 105,113 C105,112.34 105,111.68 105,111 C105.66,111 106.32,111 107,111 C107.33,110.01 107.66,109.02 108,108 C108.99,107.34 109.98,106.68 111,106 Z"/>
  <path fill="#72465B" d="M120,87 C120.955,89.17 121.144,90.563 120.398,92.824 C119.641,94.568 118.824,96.286 118,98 C117.67,98 117.34,98 117,98 C116.631,91.6 116.631,91.6 118.5,88.562 C118.995,88.047 119.49,87.531 120,87 Z"/>
  <path fill="#60217D" d="M48,220 C48.639,220.144 49.279,220.289 49.938,220.438 C53.938,221.172 57.955,221.586 62,222 C62.33,222.99 62.66,223.98 63,225 C61.248,224.743 59.498,224.469 57.75,224.188 C56.775,224.037 55.801,223.886 54.797,223.73 C51.877,222.968 50.258,221.962 48,220 Z"/>
  <path fill="#754C55" d="M161,76 C161.99,76.33 162.98,76.66 164,77 C165.188,80.562 165.188,80.562 166,84 C165.01,83.67 164.02,83.34 163,83 C163,82.01 163,81.02 163,80 C161.68,80.33 160.36,80.66 159,81 C159.66,79.35 160.32,77.7 161,76 Z"/>
  <path fill="#866B48" d="M146,38 C146.66,38.33 147.32,38.66 148,39 C147.67,40.65 147.34,42.3 147,44 C146.34,44 145.68,44 145,44 C145,45.65 145,47.3 145,49 C144.67,49 144.34,49 144,49 C143.75,41.375 143.75,41.375 146,38 Z"/>
  <path fill="#652B72" d="M167,131 C167.33,131 167.66,131 168,131 C168.369,138.385 168.369,138.385 166.5,141.5 C166.005,141.995 165.51,142.49 165,143 C164.787,138.532 165.409,135.177 167,131 Z"/>
  <path fill="#836645" d="M160,72 C160.99,72 161.98,72 163,72 C163.33,73.65 163.66,75.3 164,77 C162.68,77.33 161.36,77.66 160,78 C160,76.02 160,74.04 160,72 Z"/>
  <path fill="#6E3F5D" d="M94,119 C91.188,121.062 91.188,121.062 88,123 C87.01,122.67 86.02,122.34 85,122 C87,119 87,119 89.5,118.25 C92,118 92,118 94,119 Z"/>
  <path fill="#764E51" d="M154,88 C154.33,88.99 154.66,89.98 155,91 C153.062,93.688 153.062,93.688 151,96 C150.812,93.125 150.812,93.125 151,90 C151.99,89.34 152.98,88.68 154,88 Z"/>
  <path fill="#8D7644" d="M134,64 C134,64.99 134,65.98 134,67 C131.5,69.188 131.5,69.188 129,71 C129.25,68.625 129.25,68.625 130,66 C132.062,64.688 132.062,64.688 134,64 Z"/>
</svg>
