<svg xmlns="http://www.w3.org/2000/svg" version="1.1" width="225" height="231">
  <defs/>
  <path fill="#FEC007" d="M162.062,17.438 C165,18 165,18 166.703,19.707 C168.32,22.566 168.153,24.034 167.688,27.25 C167.568,28.142 167.448,29.034 167.324,29.953 C167.217,30.629 167.11,31.304 167,32 C167.713,31.662 168.426,31.325 169.16,30.977 C170.118,30.531 171.076,30.085 172.062,29.625 C173.002,29.184 173.942,28.743 174.91,28.289 C182.54,25.106 190.207,24.21 198.35,23.32 C204.049,22.599 207.446,21.493 212,18 C214.688,17.5 214.688,17.5 217,18 C218.707,19.738 218.707,19.738 220,22 C219.067,33.255 210.873,43.582 203,51 C195.347,57.179 187.419,59.786 178,62 C178.722,62.928 179.444,63.856 180.188,64.812 C191.672,80.897 194.887,104.629 192.57,124.055 C190.584,134.315 187.673,144.16 182,153 C181.072,154.702 181.072,154.702 180.125,156.438 C175.143,165.012 169.638,171.677 162,178 C160.706,179.143 159.414,180.288 158.125,181.438 C156.751,182.626 155.376,183.813 154,185 C152.821,186.05 152.821,186.05 151.617,187.121 C136.158,200.435 117.945,208.082 98.113,212.125 C94.801,212.805 91.599,213.657 88.375,214.688 C83.198,216.314 78.145,216.863 72.754,217.207 C71.598,217.283 70.441,217.359 69.25,217.438 C68.162,217.498 67.074,217.559 65.953,217.621 C63.064,217.822 63.064,217.822 60.969,219.043 C52.786,223.021 38.366,217.591 30,215 C22.307,212.131 16.954,208.391 12.973,201.125 C9.73,193.713 10.033,185.394 12.84,177.875 C14.575,175.071 16.709,174.472 19.684,173.262 C27.553,168.975 32.694,160.421 36.629,152.652 C39.324,147.439 42.07,142.287 47,139 C47.712,137.352 48.374,135.682 49,134 C49.681,132.917 49.681,132.917 50.375,131.812 C52.303,128.476 53.641,125.052 55.031,121.465 C55.797,119.516 56.636,117.595 57.5,115.688 C58.802,112.488 59.826,109.368 60.812,106.062 C66.416,87.598 73.625,66.124 91.625,56.18 C92.409,55.79 93.192,55.401 94,55 C95.114,54.425 96.228,53.85 97.375,53.258 C111.952,45.939 131.018,40.806 147.156,46.02 C147.765,46.343 148.373,46.667 149,47 C152.279,40.946 154.083,35.668 154.438,28.812 C154.684,25.06 154.928,23.139 156.688,19.75 C159,18 159,18 162.062,17.438 Z"/>
  <path fill="#876442" d="M162.062,17.438 C165,18 165,18 166.703,19.707 C168.32,22.566 168.153,24.034 167.688,27.25 C167.568,28.142 167.448,29.034 167.324,29.953 C167.217,30.629 167.11,31.304 167,32 C167.713,31.662 168.426,31.325 169.16,30.977 C170.118,30.531 171.076,30.085 172.062,29.625 C173.002,29.184 173.942,28.743 174.91,28.289 C182.54,25.106 190.207,24.21 198.35,23.32 C204.049,22.599 207.446,21.493 212,18 C214.688,17.5 214.688,17.5 217,18 C218.707,19.738 218.707,19.738 220,22 C219.067,33.255 210.873,43.582 203,51 C195.347,57.179 187.419,59.786 178,62 C179.083,63.392 179.083,63.392 180.188,64.812 C191.672,80.897 194.887,104.629 192.57,124.055 C190.604,134.211 187.803,144.332 182,153 C181.01,152.67 180.02,152.34 179,152 C179.33,148.7 179.66,145.4 180,142 C180.66,142 181.32,142 182,142 C182,139.69 182,137.38 182,135 C182.99,134.67 183.98,134.34 185,134 C185.757,129.955 186.128,126.129 186.133,122.016 C186.134,120.916 186.135,119.816 186.137,118.684 C186.133,117.551 186.129,116.417 186.125,115.25 C186.129,114.101 186.133,112.953 186.137,111.77 C186.135,110.675 186.134,109.581 186.133,108.453 C186.131,106.955 186.131,106.955 186.129,105.427 C186.161,102.99 186.161,102.99 185,101 C184.85,99.627 184.752,98.247 184.684,96.867 C184.642,96.062 184.6,95.256 184.557,94.426 C184.517,93.584 184.478,92.742 184.438,91.875 C184.394,91.026 184.351,90.176 184.307,89.301 C184.2,87.201 184.1,85.1 184,83 C183.34,82.67 182.68,82.34 182,82 C181.271,80.045 180.547,78.088 179.859,76.117 C178.983,73.737 178.983,73.737 176.875,70.938 C174.713,67.55 174.455,64.947 174,61 C169.802,56.802 164.647,56.574 159,56 C158.505,54.02 158.505,54.02 158,52 C157.67,52.33 157.34,52.66 157,53 C153.562,53.198 150.832,53.353 147.63,51.993 C142.721,50.139 137.482,50.959 132.312,51.188 C130.612,51.235 130.612,51.235 128.877,51.283 C117.726,51.42 117.726,51.42 108,56 C105.667,56.041 103.333,56.042 101,56 C101,55.34 101,54.68 101,54 C100.34,53.67 99.68,53.34 99,53 C110.284,46.556 120.69,44.751 133.5,44.688 C134.934,44.679 134.934,44.679 136.397,44.671 C141.005,44.718 144.833,44.784 149,47 C152.279,40.946 154.083,35.668 154.438,28.812 C154.684,25.06 154.928,23.139 156.688,19.75 C159,18 159,18 162.062,17.438 Z"/>
  <path fill="#C9D739" d="M205,24 C206.32,24 207.64,24 209,24 C209,24.66 209,25.32 209,26 C209.66,26 210.32,26 211,26 C211.349,30.215 210.576,32.141 208.062,35.5 C205.687,38.69 204.551,41.042 204,45 C204.99,45 205.98,45 207,45 C206.25,46.938 206.25,46.938 205,49 C202.875,49.75 202.875,49.75 201,50 C201,49.34 201,48.68 201,48 C199.886,48.464 199.886,48.464 198.75,48.938 C196,50 196,50 193.75,50.438 C193.173,50.623 192.595,50.809 192,51 C191.67,51.99 191.34,52.98 191,54 C187.057,56.167 183.441,56.298 179,56.312 C177.804,56.329 176.607,56.346 175.375,56.363 C171.749,55.973 169.826,55.285 167,53 C167,52.01 167,51.02 167,50 C165.02,50 163.04,50 161,50 C161,48.68 161,47.36 161,46 C161.66,46 162.32,46 163,46 C163,44.02 163,42.04 163,40 C163.66,40 164.32,40 165,40 C165,39.01 165,38.02 165,37 C165.638,36.867 166.276,36.734 166.934,36.598 C167.76,36.421 168.586,36.244 169.438,36.062 C170.261,35.888 171.085,35.714 171.934,35.535 C173.977,35.192 173.977,35.192 175,34 C177.333,33.667 179.667,33.333 182,33 C182.33,32.67 182.66,32.34 183,32 C185.859,31.763 188.699,31.578 191.562,31.438 C192.369,31.394 193.175,31.351 194.006,31.307 C196.004,31.2 198.002,31.1 200,31 C200.33,30.01 200.66,29.02 201,28 C202.32,28 203.64,28 205,28 C205,26.68 205,25.36 205,24 Z"/>
  <path fill="#795747" d="M162.062,17.438 C165,18 165,18 166.703,19.707 C168.32,22.566 168.153,24.034 167.688,27.25 C167.568,28.142 167.448,29.034 167.324,29.953 C167.217,30.629 167.11,31.304 167,32 C167.713,31.662 168.426,31.325 169.16,30.977 C178.936,26.424 187.244,24.615 198,24 C198.495,26.475 198.495,26.475 199,29 C197.793,29.182 196.587,29.364 195.344,29.551 C193.729,29.804 192.115,30.058 190.5,30.312 C189.709,30.43 188.917,30.548 188.102,30.67 C184.104,31.309 180.446,32.109 176.672,33.594 C173.487,34.814 171.985,35.101 168.75,35.188 C165.046,35.577 165.046,35.577 163.645,37.695 C161.937,41.037 160.845,44.349 160,48 C159.34,48 158.68,48 158,48 C157.691,48.639 157.381,49.279 157.062,49.938 C156,52 156,52 155,53 C152.167,53.236 150.316,53.138 147.692,51.993 C142.739,50.166 137.518,50.958 132.312,51.188 C130.612,51.235 130.612,51.235 128.877,51.283 C117.726,51.42 117.726,51.42 108,56 C105.667,56.041 103.333,56.042 101,56 C101,55.34 101,54.68 101,54 C100.34,53.67 99.68,53.34 99,53 C110.284,46.556 120.69,44.751 133.5,44.688 C134.934,44.679 134.934,44.679 136.397,44.671 C141.005,44.718 144.833,44.784 149,47 C152.279,40.946 154.083,35.668 154.438,28.812 C154.684,25.06 154.928,23.139 156.688,19.75 C159,18 159,18 162.062,17.438 Z"/>
  <path fill="#A17637" d="M43,142 C43.99,142 44.98,142 46,142 C45.5,148.377 45.5,148.377 43.082,151.391 C40.908,154.116 40.04,156.281 38.938,159.562 C35.925,167.208 30.746,172.318 25,178 C24.34,178.66 23.68,179.32 23,180 C19.875,180.125 19.875,180.125 17,180 C17.088,182.689 17.195,185.375 17.312,188.062 C17.335,188.815 17.358,189.567 17.381,190.342 C17.666,196.323 18.598,201.598 23,206 C25.069,206.643 25.069,206.643 27,207 C27,207.66 27,208.32 27,209 C27.949,208.979 28.897,208.959 29.875,208.938 C33,209 33,209 35,210 C36.537,210.225 38.08,210.408 39.625,210.562 C40.851,210.688 40.851,210.688 42.102,210.816 C42.728,210.877 43.355,210.938 44,211 C44,211.99 44,212.98 44,214 C51.92,213.67 59.84,213.34 68,213 C68.33,214.32 68.66,215.64 69,217 C67.082,217.464 67.082,217.464 65.125,217.938 C62.899,218.476 61.053,218.974 59,220 C45.81,220.104 28.407,217.313 18.168,208.406 C13.19,203.077 10.895,197.323 10.625,190.062 C10.824,185.092 11.34,180.299 14,176 C15.826,174.809 17.665,174.083 19.684,173.262 C28.513,168.452 33.648,158.652 38,150 C38.873,148.424 39.766,146.86 40.688,145.312 C41.063,144.669 41.438,144.026 41.824,143.363 C42.212,142.913 42.6,142.464 43,142 Z"/>
  <path fill="#8B6448" d="M173,158 C174.65,158 176.3,158 178,158 C175.306,166.62 168.735,172.416 162,178 C160.726,179.122 159.456,180.247 158.188,181.375 C156.792,182.584 155.396,183.792 154,185 C153.212,185.701 152.425,186.402 151.613,187.125 C136.152,200.437 117.936,208.091 98.102,212.125 C94.846,212.793 91.721,213.645 88.562,214.688 C83.458,216.327 78.331,216.706 73,217 C73,215.35 73,213.7 73,212 C77.455,211.505 77.455,211.505 82,211 C82,210.34 82,209.68 82,209 C86.95,208.505 86.95,208.505 92,208 C92,207.34 92,206.68 92,206 C92.759,205.939 93.519,205.879 94.301,205.816 C95.295,205.733 96.289,205.649 97.312,205.562 C98.299,205.481 99.285,205.4 100.301,205.316 C103.094,205.082 103.094,205.082 106,204 C108.333,203.96 110.667,203.956 113,204 C113.33,203.01 113.66,202.02 114,201 C116.547,200.191 116.547,200.191 119.75,199.562 C124.542,198.495 127.321,197.334 131,194 C132.32,194 133.64,194 135,194 C135,193.34 135,192.68 135,192 C136.688,190.738 136.688,190.738 139,189.312 C147.385,183.896 147.385,183.896 153.562,176.25 C155.658,172.971 158.452,172.394 162,171 C163.019,170.019 164.024,169.023 165,168 C165.66,167.917 166.32,167.835 167,167.75 C169.441,167.095 169.441,167.095 170.688,163.562 C171.121,162.387 171.554,161.211 172,160 C172.33,159.34 172.66,158.68 173,158 Z"/>
  <path fill="#835E43" d="M97,54 C97.66,54.33 98.32,54.66 99,55 C98.812,57.812 98.812,57.812 98,61 C94.707,63.67 93.319,64 89,64 C89,64.66 89,65.32 89,66 C87.667,67.333 86.333,68.667 85,70 C83.765,72.133 83.765,72.133 83,74 C82.34,74 81.68,74 81,74 C81,74.66 81,75.32 81,76 C80.01,76 79.02,76 78,76 C77.722,76.558 77.443,77.116 77.156,77.691 C76.369,79.264 75.577,80.834 74.781,82.402 C74.358,83.239 73.936,84.076 73.5,84.938 C73.077,85.772 72.654,86.606 72.219,87.465 C69.696,92.713 68.374,97.607 67.375,103.312 C67.241,104.053 67.107,104.794 66.969,105.557 C66.641,107.37 66.32,109.185 66,111 C64.515,111.495 64.515,111.495 63,112 C63,114.31 63,116.62 63,119 C62.34,119 61.68,119 61,119 C61.062,119.743 61.124,120.485 61.188,121.25 C60.963,124.549 60.366,125.716 58,128 C55.312,128.75 55.312,128.75 53,129 C53.626,125.202 54.754,122.013 56.312,118.5 C58.107,114.295 59.64,110.133 60.938,105.75 C66.635,86.719 74.068,66.239 92.309,55.805 C94,55 94,55 97,54 Z"/>
  <path fill="#A59C45" d="M214.562,17.562 C217,18 217,18 218.715,19.734 C220,22 220,22 219.812,24.262 C216.995,32.673 213.725,40.043 207,46 C206.01,45.67 205.02,45.34 204,45 C203.75,42.812 203.75,42.812 204,40 C204.598,39.257 205.196,38.515 205.812,37.75 C208.688,34.135 209.737,30.393 211,26 C210.34,26 209.68,26 209,26 C209,25.34 209,24.68 209,24 C207.68,24 206.36,24 205,24 C205,25.32 205,26.64 205,28 C204.103,28.155 204.103,28.155 203.188,28.312 C200.931,28.792 200.931,28.792 199.84,30.504 C197.009,32.806 193.877,32.533 190.375,32.625 C185.82,32.387 185.82,32.387 182,34 C180.391,34.217 180.391,34.217 178.75,34.438 C175.119,34.833 175.119,34.833 172.375,36.062 C169.753,37.098 167.793,37.16 165,37 C165,37.99 165,38.98 165,40 C164.34,40 163.68,40 163,40 C163,41.98 163,43.96 163,46 C162.34,46 161.68,46 161,46 C161,47.32 161,48.64 161,50 C162.98,50 164.96,50 167,50 C167,50.66 167,51.32 167,52 C165.02,51.67 163.04,51.34 161,51 C161,52.32 161,53.64 161,55 C161.99,55.33 162.98,55.66 164,56 C162.35,56 160.7,56 159,56 C158.67,54.68 158.34,53.36 158,52 C157.01,52 156.02,52 155,52 C156.375,50 156.375,50 158,48 C158.66,48 159.32,48 160,48 C160.103,47.319 160.206,46.639 160.312,45.938 C161.157,42.33 162.331,37.669 165,35 C166.176,34.876 167.351,34.753 168.562,34.625 C171.562,34.289 174.079,33.696 176.875,32.562 C184.096,29.674 191.265,28.714 199,29 C199,28.01 199,27.02 199,26 C197.68,25.67 196.36,25.34 195,25 C197.831,23.449 200.33,22.632 203.5,22.062 C207.777,21.189 210.465,18.262 214.562,17.562 Z"/>
  <path fill="#8B6444" d="M43,142 C43.99,142 44.98,142 46,142 C45.5,148.376 45.5,148.376 43.098,151.375 C40.885,154.144 39.883,156.494 38.688,159.812 C35.634,167.441 31.416,173.186 24,177 C23.34,177.66 22.68,178.32 22,179 C18.875,179.125 18.875,179.125 16,179 C16.01,179.656 16.021,180.312 16.032,180.988 C16.073,183.95 16.099,186.912 16.125,189.875 C16.142,190.908 16.159,191.94 16.176,193.004 C16.182,193.99 16.189,194.976 16.195,195.992 C16.206,196.903 16.216,197.815 16.227,198.753 C16,201 16,201 14,203 C10.278,194.625 9.584,186.599 12.84,177.875 C14.575,175.071 16.709,174.472 19.684,173.262 C28.513,168.452 33.648,158.652 38,150 C38.873,148.424 39.766,146.86 40.688,145.312 C41.063,144.669 41.438,144.026 41.824,143.363 C42.212,142.913 42.6,142.464 43,142 Z"/>
  <path fill="#856350" d="M173,158 C174.65,158 176.3,158 178,158 C175.306,166.62 168.735,172.416 162,178 C160.726,179.122 159.456,180.247 158.188,181.375 C156.793,182.585 155.397,183.793 154,185 C153.189,185.713 152.378,186.426 151.543,187.16 C144.727,192.978 137.345,198.582 129,202 C125.582,201.711 125.582,201.711 123,201 C125.088,199.882 126.854,199.029 129.188,198.562 C129.786,198.377 130.384,198.191 131,198 C131.33,197.01 131.66,196.02 132,195 C133.996,194.321 135.996,193.654 138,193 C138.66,192.01 139.32,191.02 140,190 C140.99,190 141.98,190 143,190 C143.085,189.411 143.17,188.822 143.258,188.215 C144.21,185.374 145.544,184.411 147.875,182.562 C150.405,180.472 151.926,179.13 153.562,176.25 C155.658,172.971 158.452,172.394 162,171 C163.019,170.019 164.024,169.023 165,168 C165.66,167.917 166.32,167.835 167,167.75 C169.441,167.095 169.441,167.095 170.688,163.562 C171.121,162.387 171.554,161.211 172,160 C172.33,159.34 172.66,158.68 173,158 Z"/>
  <path fill="#8A6440" d="M133.375,44.688 C134.314,44.682 135.254,44.676 136.222,44.671 C141.524,44.726 145.984,45.266 151,47 C150.67,48.65 150.34,50.3 150,52 C149.295,51.835 148.59,51.669 147.864,51.499 C142.707,50.601 137.524,51.058 132.312,51.25 C131.179,51.277 130.045,51.304 128.877,51.332 C117.727,51.424 117.727,51.424 108,56 C105.667,56.041 103.333,56.042 101,56 C101,55.34 101,54.68 101,54 C100.34,53.67 99.68,53.34 99,53 C110.237,46.583 120.617,44.752 133.375,44.688 Z"/>
  <path fill="#8B6247" d="M97,54 C97.66,54.33 98.32,54.66 99,55 C98.812,57.812 98.812,57.812 98,61 C94.707,63.67 93.319,64 89,64 C89,64.66 89,65.32 89,66 C87.667,67.333 86.333,68.667 85,70 C83.765,72.133 83.765,72.133 83,74 C82.34,74 81.68,74 81,74 C81,74.66 81,75.32 81,76 C80.01,76 79.02,76 78,76 C76.134,79.588 74.575,83.278 73,87 C72.01,86.67 71.02,86.34 70,86 C73.117,74.051 79.727,63.695 90.375,56.938 C92.615,55.642 94.518,54.827 97,54 Z"/>
  <path fill="#9C7039" d="M185,97 C188.088,100.088 188.147,102.928 188.316,107.105 C188.379,108.58 188.379,108.58 188.443,110.084 C188.483,111.108 188.522,112.132 188.562,113.188 C188.606,114.223 188.649,115.259 188.693,116.326 C188.799,118.884 188.902,121.442 189,124 C189.66,123.34 190.32,122.68 191,122 C192.522,126.772 191.306,130.632 189.875,135.25 C189.649,136.003 189.422,136.755 189.189,137.531 C187.447,143.094 185.256,148.137 182,153 C181.01,152.67 180.02,152.34 179,152 C179.33,148.7 179.66,145.4 180,142 C180.66,142 181.32,142 182,142 C182,139.69 182,137.38 182,135 C183.485,134.505 183.485,134.505 185,134 C185.746,130.003 186.128,126.221 186.133,122.156 C186.134,121.075 186.135,119.993 186.137,118.879 C186.133,117.764 186.129,116.649 186.125,115.5 C186.129,114.385 186.133,113.27 186.137,112.121 C186.135,110.499 186.135,110.499 186.133,108.844 C186.132,107.866 186.131,106.888 186.129,105.881 C185.993,102.853 185.556,99.977 185,97 Z"/>
  <path fill="#85684F" d="M198,25 C198.495,26.98 198.495,26.98 199,29 C197.793,29.182 196.587,29.364 195.344,29.551 C193.729,29.804 192.115,30.058 190.5,30.312 C189.313,30.489 189.313,30.489 188.102,30.67 C184.128,31.305 180.474,32.096 176.719,33.562 C173.62,34.76 171.267,35.432 168,35.688 C166.855,35.786 166.855,35.786 165.688,35.887 C165.131,35.924 164.574,35.961 164,36 C163.946,34.542 163.907,33.084 163.875,31.625 C163.84,30.407 163.84,30.407 163.805,29.164 C164,27 164,27 166,25 C166.33,27.31 166.66,29.62 167,32 C167.713,31.662 168.426,31.325 169.16,30.977 C188.268,22.078 188.268,22.078 198,25 Z"/>
  <path fill="#D9A31C" d="M179,74 C181.624,77.061 182,77.732 182,82 C182.99,82.33 183.98,82.66 185,83 C185.061,84.276 185.121,85.552 185.184,86.867 C185.268,88.536 185.353,90.206 185.438,91.875 C185.477,92.717 185.516,93.559 185.557,94.426 C185.599,95.231 185.64,96.037 185.684,96.867 C185.72,97.611 185.757,98.354 185.795,99.121 C185.9,101.089 185.9,101.089 187,103 C187.244,107.078 187.185,111.165 187.188,115.25 C187.2,116.383 187.212,117.516 187.225,118.684 C187.228,120.333 187.228,120.333 187.23,122.016 C187.235,123.019 187.239,124.022 187.243,125.056 C186.973,128.327 186.252,130.97 185,134 C184.01,134.495 184.01,134.495 183,135 C182.593,137.322 182.256,139.657 182,142 C181.34,142 180.68,142 180,142 C180.021,143.279 180.041,144.557 180.062,145.875 C180.125,149.75 180.125,149.75 179,152 C179.66,152 180.32,152 181,152 C179.125,156.875 179.125,156.875 178,158 C176.334,158.041 174.666,158.043 173,158 C172.83,158.638 172.66,159.276 172.484,159.934 C172.242,160.76 172,161.586 171.75,162.438 C171.518,163.261 171.286,164.085 171.047,164.934 C170,167 170,167 167.891,167.785 C167.267,167.856 166.643,167.927 166,168 C166.619,166.948 167.238,165.896 167.875,164.812 C169.516,161.95 170.87,159.108 172,156 C173.65,156 175.3,156 177,156 C176.979,155.031 176.959,154.061 176.938,153.062 C177,150 177,150 178,149 C178.124,147.845 178.247,146.69 178.375,145.5 C178.9,140.751 180.356,136.467 182,132 C182.66,132 183.32,132 184,132 C185.141,126.542 185.149,121.235 185.125,115.688 C185.129,114.769 185.133,113.851 185.137,112.904 C185.135,111.596 185.135,111.596 185.133,110.262 C185.132,109.467 185.131,108.673 185.129,107.854 C185.203,105.984 185.203,105.984 184,105 C183.763,101.419 183.604,97.844 183.482,94.258 C183.307,90.387 183.192,88.288 181,85 C179.723,81.097 179,78.128 179,74 Z"/>
  <path fill="#8E7746" d="M214.562,17.5 C217,18 217,18 218.715,19.738 C220,22 220,22 219.812,24.262 C216.995,32.673 213.725,40.043 207,46 C206.01,45.67 205.02,45.34 204,45 C203.688,42.75 203.688,42.75 204,40 C204.722,39.443 205.444,38.886 206.188,38.312 C210.899,34.438 213.095,28.715 215,23 C212.69,22.67 210.38,22.34 208,22 C210.111,19.499 211.297,18.137 214.562,17.5 Z"/>
  <path fill="#83614C" d="M156,178 C157.32,178.33 158.64,178.66 160,179 C153.403,186.211 146.174,191.753 138,197 C137.135,197.565 136.27,198.129 135.379,198.711 C131.697,200.959 129.832,202.044 125.438,201.812 C124.633,201.544 123.829,201.276 123,201 C125.088,199.882 126.854,199.029 129.188,198.562 C129.786,198.377 130.384,198.191 131,198 C131.33,197.01 131.66,196.02 132,195 C133.996,194.321 135.996,193.654 138,193 C138.66,192.01 139.32,191.02 140,190 C140.99,190 141.98,190 143,190 C143,189.34 143,188.68 143,188 C143.928,187.876 143.928,187.876 144.875,187.75 C147.157,187.214 147.157,187.214 148,185.125 C148.33,184.424 148.66,183.723 149,183 C151.603,180.649 152.421,180 156,180 C156,179.34 156,178.68 156,178 Z"/>
  <path fill="#917C42" d="M193,37 C193.33,37.99 193.66,38.98 194,40 C191.976,42.738 190.965,43.006 187.5,43.562 C186.345,43.707 185.19,43.851 184,44 C183.01,44.66 182.02,45.32 181,46 C177.863,46.414 177.863,46.414 174.312,46.625 C172.543,46.737 172.543,46.737 170.738,46.852 C169.383,46.925 169.383,46.925 168,47 C168,45.68 168,44.36 168,43 C173.395,40.729 178.262,40.796 184,41 C184.33,40.01 184.66,39.02 185,38 C187.763,37.403 190.16,37 193,37 Z"/>
  <path fill="#896445" d="M122,45 C122.33,45.66 122.66,46.32 123,47 C123.66,46.67 124.32,46.34 125,46 C126.375,45.917 127.755,45.893 129.133,45.902 C129.938,45.906 130.744,45.909 131.574,45.912 C132.416,45.92 133.258,45.929 134.125,45.938 C134.974,45.942 135.824,45.947 136.699,45.951 C138.8,45.963 140.9,45.981 143,46 C143,46.33 143,46.66 143,47 C141.94,47.049 140.881,47.098 139.789,47.148 C138.401,47.223 137.013,47.299 135.625,47.375 C134.577,47.421 134.577,47.421 133.508,47.469 C129.298,47.595 129.298,47.595 126,50 C123.68,50.344 123.68,50.344 120.875,50.5 C116.021,50.852 111.676,51.677 107,53 C107,53.66 107,54.32 107,55 C105.68,55 104.36,55 103,55 C103,54.34 103,53.68 103,53 C102.34,52.67 101.68,52.34 101,52 C107.741,48.167 114.424,46.524 122,45 Z"/>
  <path fill="#7D5C47" d="M31,213 C32.479,212.973 33.958,212.954 35.438,212.938 C36.261,212.926 37.085,212.914 37.934,212.902 C40,213 40,213 41,214 C42.486,214.157 43.979,214.251 45.473,214.316 C46.821,214.379 46.821,214.379 48.197,214.443 C49.616,214.502 49.616,214.502 51.062,214.562 C52.012,214.606 52.961,214.649 53.939,214.693 C56.293,214.8 58.646,214.902 61,215 C61,215.66 61,216.32 61,217 C61.66,217.33 62.32,217.66 63,218 C55.409,222.715 43.718,218.705 35.582,216.914 C33,216 33,216 31,213 Z"/>
  <path fill="#BE8D28" d="M120,200 C120.495,200.99 120.495,200.99 121,202 C119.02,202 117.04,202 115,202 C114.67,202.99 114.34,203.98 114,205 C112.298,205.217 112.298,205.217 110.562,205.438 C107.192,205.612 107.192,205.612 106,207 C103.224,207.285 100.449,207.448 97.664,207.621 C94.778,207.836 94.778,207.836 92,210 C89.669,210.352 87.336,210.683 85,211 C82.986,211.623 80.98,212.276 79,213 C79,213.99 79,214.98 79,216 C77.02,216.33 75.04,216.66 73,217 C73,215.35 73,213.7 73,212 C77.455,211.505 77.455,211.505 82,211 C82,210.34 82,209.68 82,209 C85.3,208.67 88.6,208.34 92,208 C92,207.34 92,206.68 92,206 C92.759,205.939 93.519,205.879 94.301,205.816 C95.295,205.733 96.289,205.649 97.312,205.562 C98.299,205.481 99.285,205.4 100.301,205.316 C103.094,205.082 103.094,205.082 106,204 C108.333,203.96 110.667,203.956 113,204 C113.33,203.01 113.66,202.02 114,201 C115.98,200.67 117.96,200.34 120,200 Z"/>
  <path fill="#D19E2B" d="M60,124 C60.33,124.99 60.66,125.98 61,127 C60.01,128.485 60.01,128.485 59,130 C56.375,130.188 56.375,130.188 54,130 C54.041,131.279 54.083,132.557 54.125,133.875 C54.195,136.055 54.195,136.055 54,138 C53.34,138.66 52.68,139.32 52,140 C51.01,140 50.02,140 49,140 C49,141.98 49,143.96 49,146 C48.34,146 47.68,146 47,146 C46.67,147.32 46.34,148.64 46,150 C45.34,149.67 44.68,149.34 44,149 C44.99,145.535 44.99,145.535 46,142 C45.34,141.67 44.68,141.34 44,141 C44.99,140.34 45.98,139.68 47,139 C47.712,137.352 48.374,135.682 49,134 C50.25,131.25 50.25,131.25 52,129 C53.994,128.634 55.995,128.299 58,128 C59.436,126.048 59.436,126.048 60,124 Z"/>
  <path fill="#CA961F" d="M78,76 C78.33,77.32 78.66,78.64 79,80 C78.01,80.495 78.01,80.495 77,81 C76.344,83.527 76.344,83.527 76,86 C75.34,86 74.68,86 74,86 C74,87.65 74,89.3 74,91 C73.34,91 72.68,91 72,91 C71.856,91.969 71.711,92.939 71.562,93.938 C71,97 71,97 70,98 C69.769,99.347 69.588,100.704 69.438,102.062 C69.293,103.362 69.149,104.661 69,106 C68.34,106 67.68,106 67,106 C67.041,107.279 67.083,108.557 67.125,109.875 C67.195,112.055 67.195,112.055 67,114 C66.34,114.66 65.68,115.32 65,116 C63.962,118.316 62.958,120.649 62,123 C61.67,121.68 61.34,120.36 61,119 C61.66,119 62.32,119 63,119 C63,116.69 63,114.38 63,112 C63.99,111.505 63.99,111.505 65,111 C65.31,109.35 65.607,107.697 65.836,106.034 C67.376,94.86 71.756,85.366 78,76 Z"/>
  <path fill="#7F5A44" d="M188,97 C188.33,97 188.66,97 189,97 C189,100.3 189,103.6 189,107 C189.66,107 190.32,107 191,107 C191.33,106.34 191.66,105.68 192,105 C192.784,111.565 193.109,117.468 192,124 C191.34,124 190.68,124 190,124 C189.67,125.98 189.34,127.96 189,130 C188.67,130 188.34,130 188,130 C188,119.11 188,108.22 188,97 Z"/>
  <path fill="#986B3D" d="M66,102 C67.534,105.069 66.55,107.701 66,111 C65.01,111.33 64.02,111.66 63,112 C63,114.31 63,116.62 63,119 C62.34,119 61.68,119 61,119 C61.062,119.743 61.124,120.485 61.188,121.25 C60.963,124.549 60.366,125.716 58,128 C55.312,128.75 55.312,128.75 53,129 C53.608,125.451 54.312,122.199 56,119 C58.062,118.25 58.062,118.25 60,118 C60.33,117.67 60.66,117.34 61,117 C60.959,115.721 60.917,114.442 60.875,113.125 C60.82,109.23 60.82,109.23 62.375,107.25 C62.911,106.838 63.447,106.425 64,106 C65.176,103.9 65.176,103.9 66,102 Z"/>
  <path fill="#83614D" d="M176,64 C177.32,64 178.64,64 180,64 C186.22,74.48 189.473,81.635 187,94 C186.67,94 186.34,94 186,94 C186,89.71 186,85.42 186,81 C185.01,81 184.02,81 183,81 C182.876,79.866 182.753,78.731 182.625,77.562 C182.419,76.387 182.212,75.211 182,74 C181.34,73.67 180.68,73.34 180,73 C180,72.01 180,71.02 180,70 C179.34,70 178.68,70 178,70 C176,67 176,67 176,64 Z"/>
  <path fill="#87604E" d="M14,179 C14.66,179 15.32,179 16,179 C16.058,182.625 16.094,186.25 16.125,189.875 C16.142,190.908 16.159,191.94 16.176,193.004 C16.182,193.99 16.189,194.976 16.195,195.992 C16.206,196.903 16.216,197.815 16.227,198.753 C16,201 16,201 14,203 C11.288,196.898 10.131,191.688 11,185 C12.5,181.375 12.5,181.375 14,179 Z"/>
  <path fill="#978951" d="M215,23 C214.417,26.694 213.401,29.499 211.562,32.75 C210.915,33.918 210.915,33.918 210.254,35.109 C209,37 209,37 207,38 C208.333,34 209.667,30 211,26 C210.34,26 209.68,26 209,26 C209,25.34 209,24.68 209,24 C207.35,24 205.7,24 204,24 C204,24.99 204,25.98 204,27 C202.35,27.33 200.7,27.66 199,28 C199,27.34 199,26.68 199,26 C197.68,25.67 196.36,25.34 195,25 C201.32,21.208 208.032,21.973 215,23 Z"/>
  <path fill="#BB8B28" d="M33,210 C36.63,210.33 40.26,210.66 44,211 C44,211.99 44,212.98 44,214 C51.92,213.67 59.84,213.34 68,213 C68.495,214.98 68.495,214.98 69,217 C66.36,217 63.72,217 61,217 C61,216.34 61,215.68 61,215 C60.154,215.031 60.154,215.031 59.291,215.063 C56.694,215.147 54.098,215.199 51.5,215.25 C50.613,215.284 49.726,215.317 48.812,215.352 C42.418,215.446 38.506,214.267 33,211 C33,210.67 33,210.34 33,210 Z"/>
  <path fill="#BABF3B" d="M165,37 C166.65,37 168.3,37 170,37 C170,37.66 170,38.32 170,39 C176.93,39.495 176.93,39.495 184,40 C184,40.33 184,40.66 184,41 C183.348,41.049 182.695,41.098 182.023,41.148 C177.107,41.569 172.576,42.005 168,44 C167.67,44.66 167.34,45.32 167,46 C165.68,45.67 164.36,45.34 163,45 C163,43.35 163,41.7 163,40 C163.66,40 164.32,40 165,40 C165,39.01 165,38.02 165,37 Z"/>
  <path fill="#BD8D28" d="M130.5,49.812 C131.909,49.828 133.318,49.841 134.727,49.854 C138.151,49.889 141.576,49.938 145,50 C145,50.33 145,50.66 145,51 C144.265,51.015 143.529,51.029 142.772,51.044 C139.389,51.119 136.007,51.216 132.625,51.312 C131.469,51.335 130.312,51.358 129.121,51.381 C117.848,51.397 117.848,51.397 108,56 C105.667,56.041 103.333,56.042 101,56 C101,55.34 101,54.68 101,54 C100.34,53.67 99.68,53.34 99,53 C100.32,53 101.64,53 103,53 C103,53.66 103,54.32 103,55 C104.32,55 105.64,55 107,55 C107,54.34 107,53.68 107,53 C114.632,49.253 122.2,49.658 130.5,49.812 Z"/>
  <path fill="#B0812D" d="M165,168 C166,170 166,170 165.336,172.004 C163.674,174.487 162.408,174.934 159.625,175.938 C155.528,177.588 153.554,179.322 151,183 C150.34,183 149.68,183 149,183 C148.01,185.475 148.01,185.475 147,188 C145.68,187.67 144.36,187.34 143,187 C143.922,186.221 143.922,186.221 144.863,185.426 C146.076,184.38 146.076,184.38 147.312,183.312 C148.513,182.286 148.513,182.286 149.738,181.238 C152.097,179.094 152.097,179.094 153.574,176.332 C155.638,172.956 158.396,172.416 162,171 C163.88,169.46 163.88,169.46 165,168 Z"/>
  <path fill="#886856" d="M122,45 C122.33,45.66 122.66,46.32 123,47 C123.66,46.67 124.32,46.34 125,46 C126.375,45.917 127.755,45.893 129.133,45.902 C129.938,45.906 130.744,45.909 131.574,45.912 C132.416,45.92 133.258,45.929 134.125,45.938 C135.399,45.944 135.399,45.944 136.699,45.951 C138.8,45.963 140.9,45.981 143,46 C143,46.33 143,46.66 143,47 C141.94,47.049 140.881,47.098 139.789,47.148 C138.401,47.223 137.013,47.299 135.625,47.375 C134.577,47.421 134.577,47.421 133.508,47.469 C129.298,47.595 129.298,47.595 126,50 C123.18,49.977 123.18,49.977 119.875,49.625 C118.779,49.514 117.684,49.403 116.555,49.289 C115.29,49.146 115.29,49.146 114,49 C114,48.34 114,47.68 114,47 C116.64,46.34 119.28,45.68 122,45 Z"/>
  <path fill="#B1AF3E" d="M204,24 C204.33,25.32 204.66,26.64 205,28 C204.402,28.103 203.804,28.206 203.188,28.312 C200.933,28.793 200.933,28.793 199.832,30.5 C197.035,32.79 193.971,32.572 190.5,32.688 C189.485,32.739 189.485,32.739 188.449,32.791 C185.631,32.927 182.822,33 180,33 C180.33,32.34 180.66,31.68 181,31 C183.927,30.381 186.796,29.872 189.75,29.438 C191.37,29.187 192.99,28.936 194.609,28.684 C195.371,28.567 196.132,28.451 196.916,28.332 C199.292,27.954 201.647,27.502 204,27 C204,26.01 204,25.02 204,24 Z"/>
  <path fill="#E6AD11" d="M155,53 C155,53.33 155,53.66 155,54 C152.36,54 149.72,54 147,54 C147,53.34 147,52.68 147,52 C142.687,52.14 138.375,52.288 134.062,52.438 C132.85,52.477 131.638,52.516 130.389,52.557 C123.875,52.786 117.465,53.17 111,54 C111,53.67 111,53.34 111,53 C117.948,50.936 124.652,50.472 131.875,50.188 C132.995,50.124 134.115,50.06 135.27,49.994 C142.434,49.697 148.294,50.425 155,53 Z"/>
  <path fill="#8C7243" d="M201,48 C201,48.66 201,49.32 201,50 C201.66,50.33 202.32,50.66 203,51 C199.37,53.31 195.74,55.62 192,58 C191,54 191,54 192,51 C195.379,48.534 196.706,48 201,48 Z"/>
  <path fill="#AEAC3D" d="M200,48 C195.375,51 195.375,51 192,51 C191.67,51.99 191.34,52.98 191,54 C187.069,56.154 183.428,56.327 179,56.375 C177.804,56.403 176.607,56.432 175.375,56.461 C171.448,55.925 169.824,54.706 167,52 C171.875,52.875 171.875,52.875 173,54 C174.767,54.126 176.541,54.176 178.312,54.188 C179.278,54.202 180.244,54.216 181.238,54.23 C184.053,53.996 185.554,53.319 188,52 C188.99,52 189.98,52 191,52 C191,51.34 191,50.68 191,50 C191.99,50 192.98,50 194,50 C194,49.34 194,48.68 194,48 C196.491,46.755 197.411,47.223 200,48 Z"/>
  <path fill="#8E6F5E" d="M217,18 C218.875,19.688 218.875,19.688 220,22 C219.688,24.75 219.688,24.75 219,27 C218.01,27.33 217.02,27.66 216,28 C216,25.69 216,23.38 216,21 C214.02,21.66 212.04,22.32 210,23 C209.34,22.34 208.68,21.68 208,21 C211.008,18.327 212.954,17.274 217,18 Z"/>
  <path fill="#E4AE1C" d="M73,212 C73,213.65 73,215.3 73,217 C71.68,217 70.36,217 69,217 C68.67,216.01 68.34,215.02 68,214 C60.08,214 52.16,214 44,214 C44,213.67 44,213.34 44,213 C47.333,212.83 50.667,212.665 54,212.5 C54.935,212.452 55.869,212.405 56.832,212.355 C62.23,212.091 67.596,211.949 73,212 Z"/>
  <path fill="#76532F" d="M191,105 C191.33,105 191.66,105 192,105 C192.784,111.565 193.109,117.468 192,124 C191.01,124 190.02,124 189,124 C189.141,121.208 189.287,118.417 189.438,115.625 C189.477,114.831 189.516,114.037 189.557,113.219 C189.887,107.227 189.887,107.227 191,105 Z"/>
  <path fill="#7E6049" d="M212,21 C213.32,21 214.64,21 216,21 C216.144,21.928 216.289,22.856 216.438,23.812 C216.921,27.007 216.921,27.007 218,30 C216.562,33.188 216.562,33.188 215,36 C213,34 213,34 212.75,31.188 C212.997,28.037 213.663,25.841 215,23 C213.68,22.67 212.36,22.34 211,22 C211.33,21.67 211.66,21.34 212,21 Z"/>
  <path fill="#9C6D31" d="M37,159 C38,162 38,162 36.926,164.156 C36.393,164.93 35.861,165.703 35.312,166.5 C34.793,167.273 34.274,168.047 33.738,168.844 C32.003,170.997 30.278,172.451 28,174 C29,172 30,170 31,168 C29.68,167.67 28.36,167.34 27,167 C27.99,165.68 28.98,164.36 30,163 C30.66,163.33 31.32,163.66 32,164 C32,164.33 32,164.66 32,165 C32.66,165 33.32,165 34,165 C34.99,163.02 35.98,161.04 37,159 Z"/>
  <path fill="#DDA615" d="M67,102 C67.66,102 68.32,102 69,102 C69,103.32 69,104.64 69,106 C68.34,106 67.68,106 67,106 C67.041,107.279 67.082,108.558 67.125,109.875 C67.195,112.055 67.195,112.055 67,114 C66.34,114.66 65.68,115.32 65,116 C63.962,118.316 62.958,120.649 62,123 C61.67,121.68 61.34,120.36 61,119 C61.66,119 62.32,119 63,119 C63,116.69 63,114.38 63,112 C63.66,111.67 64.32,111.34 65,111 C65.687,108.882 65.687,108.882 66.125,106.438 C66.293,105.611 66.46,104.785 66.633,103.934 C66.754,103.296 66.875,102.657 67,102 Z"/>
  <path fill="#AC7E2E" d="M142,188 C142.33,188.66 142.66,189.32 143,190 C142.01,190.33 141.02,190.66 140,191 C139.546,191.66 139.092,192.32 138.625,193 C136.562,195.539 135.144,195.504 132,196 C131.67,196.66 131.34,197.32 131,198 C127.689,200.207 124.906,200.178 121,200 C121,199.67 121,199.34 121,199 C121.908,198.732 122.815,198.464 123.75,198.188 C126.961,197.197 126.961,197.197 129.125,195.375 C131,194 131,194 135,194 C135,193.34 135,192.68 135,192 C137.31,190.68 139.62,189.36 142,188 Z"/>
  <path fill="#937763" d="M14,179 C14.66,179 15.32,179 16,179 C16,180.32 16,181.64 16,183 C15.34,183 14.68,183 14,183 C14.035,183.626 14.07,184.253 14.105,184.898 C14.133,185.716 14.16,186.533 14.188,187.375 C14.222,188.187 14.257,188.999 14.293,189.836 C14.196,190.55 14.1,191.264 14,192 C13.01,192.66 12.02,193.32 11,194 C10.649,188.158 10.833,184.147 14,179 Z"/>
  <path fill="#8A6A41" d="M161,51 C164.123,51.486 166.996,51.999 170,53 C170.688,55.062 170.688,55.062 171,57 C167.531,56.542 164.326,56.109 161,55 C161,53.68 161,52.36 161,51 Z"/>
  <path fill="#BDA330" d="M160,46 C160.33,47.32 160.66,48.64 161,50 C162.98,50 164.96,50 167,50 C167,50.66 167,51.32 167,52 C164.03,51.505 164.03,51.505 161,51 C161,52.32 161,53.64 161,55 C161.99,55.33 162.98,55.66 164,56 C162.35,56 160.7,56 159,56 C158.67,54.68 158.34,53.36 158,52 C157.01,52 156.02,52 155,52 C156.375,50 156.375,50 158,48 C158.66,48 159.32,48 160,48 C160,47.34 160,46.68 160,46 Z"/>
  <path fill="#B68231" d="M183,134 C184.534,137.069 183.55,139.701 183,143 C182.34,143 181.68,143 181,143 C181,144.32 181,145.64 181,147 C181.99,147 182.98,147 184,147 C183.34,148.98 182.68,150.96 182,153 C181.01,152.67 180.02,152.34 179,152 C179.33,148.7 179.66,145.4 180,142 C180.66,142 181.32,142 182,142 C181.979,140.866 181.959,139.731 181.938,138.562 C182,135 182,135 183,134 Z"/>
  <path fill="#8D7142" d="M170,54 C170.66,54.33 171.32,54.66 172,55 C173.704,55.226 175.413,55.409 177.125,55.562 C178.035,55.646 178.945,55.73 179.883,55.816 C180.581,55.877 181.28,55.938 182,56 C182,56.33 182,56.66 182,57 C179.36,57.33 176.72,57.66 174,58 C176.475,60.97 176.475,60.97 179,64 C178.01,64 177.02,64 176,64 C175.67,64.66 175.34,65.32 175,66 C174.773,65.051 174.546,64.103 174.312,63.125 C173.309,59.807 173.309,59.807 170.375,58.625 C169.591,58.419 168.807,58.213 168,58 C168.66,56.68 169.32,55.36 170,54 Z"/>
  <path fill="#C29129" d="M97,54 C97.66,54.33 98.32,54.66 99,55 C98.812,57.812 98.812,57.812 98,61 C95.688,62.938 95.688,62.938 93,64 C90.688,63.688 90.688,63.688 89,63 C89.99,62.67 90.98,62.34 92,62 C92,61.34 92,60.68 92,60 C92.99,60 93.98,60 95,60 C95,58.35 95,56.7 95,55 C95.66,54.67 96.32,54.34 97,54 Z"/>
  <path fill="#866C47" d="M209,38 C210.32,38 211.64,38 213,38 C211.557,41.366 209.667,43.51 207,46 C206.34,45.67 205.68,45.34 205,45 C205,43.68 205,42.36 205,41 C205.99,41 206.98,41 208,41 C208.33,40.01 208.66,39.02 209,38 Z"/>
  <path fill="#A59C3F" d="M209,24 C210.65,24 212.3,24 214,24 C213.623,30.165 211.841,33.174 208,38 C208,34.985 208.52,33.131 209.5,30.312 C209.778,29.504 210.057,28.696 210.344,27.863 C210.56,27.248 210.777,26.634 211,26 C210.34,26 209.68,26 209,26 C209,25.34 209,24.68 209,24 Z"/>
  <path fill="#EAB219" d="M117,196 C118.32,196 119.64,196 121,196 C121,196.66 121,197.32 121,198 C121.99,198 122.98,198 124,198 C124,197.34 124,196.68 124,196 C125.65,196 127.3,196 129,196 C126.654,198.771 124.852,199.521 121.312,200.188 C120.504,200.346 119.696,200.505 118.863,200.668 C117.941,200.832 117.941,200.832 117,201 C117,199.35 117,197.7 117,196 Z"/>
  <path fill="#A87B33" d="M175,66 C176.485,66.99 176.485,66.99 178,68 C178,68.66 178,69.32 178,70 C178.66,70 179.32,70 180,70 C180,70.99 180,71.98 180,73 C180.99,73.33 181.98,73.66 183,74 C183,76.64 183,79.28 183,82 C182.734,81.446 182.469,80.891 182.195,80.32 C180.404,76.843 178.303,73.565 176.242,70.242 C175,68 175,68 175,66 Z"/>
  <path fill="#9C7237" d="M66,102 C67.534,105.069 66.55,107.701 66,111 C65.01,111.33 64.02,111.66 63,112 C63,113.65 63,115.3 63,117 C62.67,117 62.34,117 62,117 C61.043,111.692 61.043,111.692 61,109 C62.312,107.25 62.312,107.25 64,106 C65.176,103.9 65.176,103.9 66,102 Z"/>
  <path fill="#A67F45" d="M189,95 C189.66,95 190.32,95 191,95 C191.195,96.624 191.381,98.249 191.562,99.875 C191.667,100.78 191.771,101.685 191.879,102.617 C192,105 192,105 191,107 C190.34,107 189.68,107 189,107 C189,103.04 189,99.08 189,95 Z"/>
  <path fill="#B5B73C" d="M192,41 C192,41.99 192,42.98 192,44 C191.031,44.309 190.061,44.619 189.062,44.938 C186.159,45.695 186.159,45.695 185,47 C183.314,47.072 181.625,47.084 179.938,47.062 C179.018,47.053 178.099,47.044 177.152,47.035 C176.442,47.024 175.732,47.012 175,47 C175,46.67 175,46.34 175,46 C175.566,45.867 176.132,45.734 176.715,45.598 C177.815,45.333 177.815,45.333 178.938,45.062 C180.034,44.801 180.034,44.801 181.152,44.535 C183,44.161 183,44.161 184,43 C186.333,42.667 188.667,42.333 191,42 C191.33,41.67 191.66,41.34 192,41 Z"/>
  <path fill="#8A6649" d="M21,205 C23.688,206.438 23.688,206.438 26,208 C25.67,208.99 25.34,209.98 25,211 C22.625,210.75 22.625,210.75 20,210 C18.688,207.938 18.688,207.938 18,206 C18.99,205.67 19.98,205.34 21,205 Z"/>
  <path fill="#8C6745" d="M173,158 C174.65,158 176.3,158 178,158 C177.375,160.375 177.375,160.375 176,163 C172.875,164.312 172.875,164.312 170,165 C171.875,160.25 171.875,160.25 173,158 Z"/>
  <path fill="#8B684D" d="M95,55 C95,56.65 95,58.3 95,60 C94.01,60 93.02,60 92,60 C92,60.66 92,61.32 92,62 C90.68,61.67 89.36,61.34 88,61 C89.032,58.421 89.65,57.212 92.062,55.75 C94,55 94,55 95,55 Z"/>
  <path fill="#8F614A" d="M31,213 C33.97,213 36.94,213 40,213 C40.33,213.66 40.66,214.32 41,215 C40.34,215 39.68,215 39,215 C39,215.66 39,216.32 39,217 C36.125,216.688 36.125,216.688 33,216 C32.34,215.01 31.68,214.02 31,213 Z"/>
  <path fill="#D09B1D" d="M43,150 C43.33,151.32 43.66,152.64 44,154 C43.34,154 42.68,154 42,154 C42,155.65 42,157.3 42,159 C41.01,159.33 40.02,159.66 39,160 C39,160.99 39,161.98 39,163 C38.34,162.67 37.68,162.34 37,162 C40,153.429 40,153.429 43,150 Z"/>
  <path fill="#7A5540" d="M63,100 C63.66,100 64.32,100 65,100 C65.188,103.375 65.188,103.375 65,107 C64.01,107.66 63.02,108.32 62,109 C61.34,109.99 60.68,110.98 60,112 C60.508,107.682 61.197,103.967 63,100 Z"/>
  <path fill="#CD9B26" d="M165,56 C173.103,57.988 173.103,57.988 175,61 C175.188,63.688 175.188,63.688 175,66 C174.67,64.68 174.34,63.36 174,62 C172.68,61.67 171.36,61.34 170,61 C170,60.34 170,59.68 170,59 C168.35,59 166.7,59 165,59 C165,58.01 165,57.02 165,56 Z"/>
  <path fill="#DEA716" d="M155,53 C155,53.33 155,53.66 155,54 C152.36,54 149.72,54 147,54 C147,53.34 147,52.68 147,52 C143.37,52 139.74,52 136,52 C136,51.67 136,51.34 136,51 C143.201,49.722 148.162,50.473 155,53 Z"/>
  <path fill="#A17635" d="M165,168 C166,170 166,170 165.562,171.938 C163.139,175.136 159.745,175.851 156,177 C157.163,173.511 158.14,172.9 161.062,170.812 C161.796,170.283 162.529,169.753 163.285,169.207 C163.851,168.809 164.417,168.41 165,168 Z"/>
  <path fill="#BF8D25" d="M88,64 C88.33,64.66 88.66,65.32 89,66 C88.381,66.577 87.762,67.155 87.125,67.75 C85.187,69.802 84.1,71.434 83,74 C82.34,74 81.68,74 81,74 C81,74.66 81,75.32 81,76 C80.34,75.67 79.68,75.34 79,75 C79.33,74.01 79.66,73.02 80,72 C80.66,72 81.32,72 82,72 C82.247,71.423 82.495,70.845 82.75,70.25 C84.167,67.7 85.876,65.982 88,64 Z"/>
  <path fill="#B28A37" d="M73,212 C75.97,212.495 75.97,212.495 79,213 C79,213.99 79,214.98 79,216 C77.02,216.33 75.04,216.66 73,217 C73,215.35 73,213.7 73,212 Z"/>
  <path fill="#C69425" d="M45,140 C45.66,140 46.32,140 47,140 C47,140.66 47,141.32 47,142 C47.66,142 48.32,142 49,142 C49,143.32 49,144.64 49,146 C48.34,146 47.68,146 47,146 C46.67,147.32 46.34,148.64 46,150 C45.34,149.67 44.68,149.34 44,149 C44.66,146.69 45.32,144.38 46,142 C45.34,141.67 44.68,141.34 44,141 C44.33,140.67 44.66,140.34 45,140 Z"/>
  <path fill="#9F7849" d="M144,47 C146.31,47 148.62,47 151,47 C150.67,48.65 150.34,50.3 150,52 C148.02,51.34 146.04,50.68 144,50 C144,49.01 144,48.02 144,47 Z"/>
  <path fill="#8C6544" d="M66,95 C68,97 68,97 68.125,99.625 C68.084,100.409 68.043,101.192 68,102 C67.01,102.33 66.02,102.66 65,103 C65,102.01 65,101.02 65,100 C64.34,99.67 63.68,99.34 63,99 C63.33,98.34 63.66,97.68 64,97 C64.66,97 65.32,97 66,97 C66,96.34 66,95.68 66,95 Z"/>
  <path fill="#E1A913" d="M179,74 C181.648,77.13 183.005,80.019 184,84 C183.625,86.375 183.625,86.375 183,88 C180.015,83.523 179,79.362 179,74 Z"/>
  <path fill="#8F5E42" d="M160.688,175.375 C161.451,175.581 162.214,175.788 163,176 C162.67,176.66 162.34,177.32 162,178 C160.02,178 158.04,178 156,178 C156,178.66 156,179.32 156,180 C155.34,180 154.68,180 154,180 C155.288,176.135 156.517,174.793 160.688,175.375 Z"/>
  <path fill="#DDA41A" d="M60,124 C60.33,124.99 60.66,125.98 61,127 C60.01,128.485 60.01,128.485 59,130 C55.375,130.688 55.375,130.688 52,131 C52,130.34 52,129.68 52,129 C53.423,128.876 53.423,128.876 54.875,128.75 C58.105,128.349 58.105,128.349 59.375,125.938 C59.581,125.298 59.787,124.659 60,124 Z"/>
  <path fill="#C0C34C" d="M203,42 C203.33,42.99 203.66,43.98 204,45 C204.99,45 205.98,45 207,45 C206.25,46.938 206.25,46.938 205,49 C202.875,49.75 202.875,49.75 201,50 C201.33,49.423 201.66,48.845 202,48.25 C203.271,45.801 203.271,45.801 203,42 Z"/>
  <path fill="#98835D" d="M204,24 C204,24.99 204,25.98 204,27 C202.35,27.33 200.7,27.66 199,28 C199,27.34 199,26.68 199,26 C197.68,25.67 196.36,25.34 195,25 C198.196,23.935 200.657,23.926 204,24 Z"/>
  <path fill="#A97D31" d="M66,213 C66.99,213.33 67.98,213.66 69,214 C69,214.99 69,215.98 69,217 C66.36,217 63.72,217 61,217 C61,216.34 61,215.68 61,215 C62.32,215.33 63.64,215.66 65,216 C65.33,215.01 65.66,214.02 66,213 Z"/>
  <path fill="#B78729" d="M172,158 C172.33,158.66 172.66,159.32 173,160 C172.223,161.945 172.223,161.945 171.062,164.125 C170.682,164.849 170.302,165.574 169.91,166.32 C169.61,166.875 169.309,167.429 169,168 C168.01,167.67 167.02,167.34 166,167 C167.98,164.03 169.96,161.06 172,158 Z"/>
  <path fill="#7C5B46" d="M180.562,41.938 C181.769,41.968 181.769,41.968 183,42 C179.727,44.969 177.619,45.344 173.25,45.188 C172.265,45.16 171.28,45.133 170.266,45.105 C169.518,45.071 168.77,45.036 168,45 C168,44.67 168,44.34 168,44 C168.957,43.909 168.957,43.909 169.934,43.816 C171.173,43.691 171.173,43.691 172.438,43.562 C173.261,43.481 174.085,43.4 174.934,43.316 C177.638,42.902 177.657,42.008 180.562,41.938 Z"/>
  <path fill="#B2B23C" d="M190,35 C191.65,35 193.3,35 195,35 C195,36.98 195,38.96 195,41 C194.34,40.67 193.68,40.34 193,40 C193,39.01 193,38.02 193,37 C191.68,37.33 190.36,37.66 189,38 C189.33,37.01 189.66,36.02 190,35 Z"/>
  <path fill="#DBA419" d="M92,206 C94.64,206 97.28,206 100,206 C100,206.33 100,206.66 100,207 C95.496,208.757 91.824,209.193 87,209 C87,208.67 87,208.34 87,208 C88.65,208 90.3,208 92,208 C92,207.34 92,206.68 92,206 Z"/>
  <path fill="#896655" d="M127,201 C127,201.66 127,202.32 127,203 C123.492,204.604 120.856,205.22 117,205 C123,201 123,201 127,201 Z"/>
  <path fill="#7F5E49" d="M173,161 C173.66,162.32 174.32,163.64 175,165 C173.68,166.32 172.36,167.64 171,169 C170.67,167.68 170.34,166.36 170,165 C170.66,164.67 171.32,164.34 172,164 C172.33,163.01 172.66,162.02 173,161 Z"/>
  <path fill="#A47D49" d="M190,122 C190.66,122.66 191.32,123.32 192,124 C191.625,127.125 191.625,127.125 191,130 C190.34,130 189.68,130 189,130 C188.875,124.25 188.875,124.25 190,122 Z"/>
  <path fill="#9D7A53" d="M172,58 C175.367,59.393 176.986,60.979 179,64 C178.01,64 177.02,64 176,64 C175.67,64.66 175.34,65.32 175,66 C174.691,65.051 174.381,64.103 174.062,63.125 C173.126,60.139 173.126,60.139 172,58 Z"/>
  <path fill="#8D6D5D" d="M185,27 C182.64,29.36 181.221,29.491 178,30 C178,29.01 178,28.02 178,27 C181.133,25.956 181.99,26.066 185,27 Z"/>
  <path fill="#85655B" d="M160.688,18.75 C161.451,18.833 162.214,18.915 163,19 C161.35,20.65 159.7,22.3 158,24 C157.01,23.67 156.02,23.34 155,23 C157.338,19.062 157.338,19.062 160.688,18.75 Z"/>
</svg>
