<svg xmlns="http://www.w3.org/2000/svg" version="1.1" width="231" height="244">
  <defs/>
  <path fill="#994301" d="M177,14 C180.591,16.394 180.672,17.905 181.539,21.975 C181.691,22.746 181.843,23.518 182,24.312 C183.046,29.536 184.154,33.432 187,38 C187,39.32 187,40.64 187,42 C188.207,42.309 188.207,42.309 189.438,42.625 C190.283,43.079 191.129,43.533 192,44 C192.812,47.125 192.812,47.125 193,50 C193.598,50.062 194.196,50.124 194.812,50.188 C197.986,51.366 198.556,52.98 200,56 C200.491,57.637 200.977,59.276 201.41,60.93 C202.119,63.417 202.986,65.821 203.875,68.25 C204.391,69.677 204.391,69.677 204.918,71.133 C205.606,72.957 206.334,74.767 207.113,76.555 C209.526,82.327 210.477,87.679 210.875,93.875 C210.924,94.601 210.973,95.327 211.024,96.075 C211.209,100.266 210.726,103.203 209,107 C209.165,107.825 209.33,108.65 209.5,109.5 C210.123,112.617 209.365,114.189 208,117 C208.66,117 209.32,117 210,117 C210.716,131.152 210.716,131.152 207.062,137.164 C205.915,139.147 205.322,140.99 204.688,143.188 C201.739,152.351 197.759,161.363 189,166 C188.34,166 187.68,166 187,166 C187,166.66 187,167.32 187,168 C186.34,168 185.68,168 185,168 C184.835,168.722 184.67,169.444 184.5,170.188 C182.298,174.317 179.19,176.06 175,178 C172.794,178.59 170.599,179.005 168.352,179.41 C164.773,180.308 161.729,182.047 158.492,183.781 C156.052,184.975 153.738,185.718 151.125,186.438 C146.671,187.789 145.411,190.039 143,194 C140.25,194.875 140.25,194.875 138,195 C137.488,197.033 136.984,199.066 136.5,201.105 C135.111,206.889 135.111,206.889 134,208 C132,208.041 130,208.043 128,208 C128,208.66 128,209.32 128,210 C127.34,210 126.68,210 126,210 C126.083,210.866 126.165,211.732 126.25,212.625 C125.876,217.672 123.816,220.369 120.082,223.723 C106.628,234.557 94.357,239.844 77,238 C73.438,237.442 69.944,236.708 66.438,235.875 C65.617,235.687 64.797,235.5 63.952,235.307 C57.892,233.719 53.803,230.933 49,227 C47.885,226.235 46.761,225.483 45.625,224.75 C43,223 43,223 41,221 C40.34,220.885 39.68,220.771 39,220.652 C37,220 37,220 35.875,218.004 C35.586,217.198 35.298,216.393 35,215.562 C33.809,212.038 33.809,212.038 30.965,209.863 C30.316,209.578 29.668,209.294 29,209 C27.994,207.337 26.994,205.67 26,204 C24.832,203.105 24.832,203.105 23.641,202.191 C17.797,197.342 14.562,190.563 13.642,183.094 C12.817,169.604 13.072,155.408 19.688,143.25 C20.124,142.43 20.561,141.61 21.012,140.766 C21.501,139.892 21.501,139.892 22,139 C23.65,139 25.3,139 27,139 C27.433,137.639 27.433,137.639 27.875,136.25 C29.26,132.25 30.235,129.763 33.254,126.75 C35.555,124.446 37.676,122.069 39.793,119.597 C45.17,113.403 50.442,109.405 58,106 C59.033,105.449 59.033,105.449 60.086,104.887 C62.939,103.565 65.903,103.409 69,103 C70.691,101.309 70.166,99.005 70.25,96.688 C71.236,84.522 77.826,74.252 83.695,63.809 C84.252,62.816 84.252,62.816 84.821,61.802 C86.054,59.917 87.285,58.461 89,57 C89.66,57 90.32,57 91,57 C91.268,56.361 91.536,55.721 91.812,55.062 C93,53 93,53 96,52 C96,51.34 96,50.68 96,50 C103.669,43.045 112.353,38.901 122.688,37.5 C126.405,36.939 129.139,35.651 132.512,34.055 C136.86,32.212 141.424,31.129 146,30 C146,29.34 146,28.68 146,28 C147.723,26.668 147.723,26.668 150.062,25.188 C152.982,23.317 155.808,21.417 158.562,19.312 C164.256,15.237 169.939,13.308 177,14 Z"/>
  <path fill="#7D533E" d="M177,14 C180.591,16.394 180.672,17.905 181.539,21.975 C181.691,22.746 181.843,23.518 182,24.312 C183.046,29.536 184.154,33.432 187,38 C187,39.32 187,40.64 187,42 C188.207,42.309 188.207,42.309 189.438,42.625 C190.283,43.079 191.129,43.533 192,44 C192.812,47.125 192.812,47.125 193,50 C193.598,50.062 194.196,50.124 194.812,50.188 C197.986,51.366 198.556,52.98 200,56 C200.491,57.637 200.977,59.276 201.41,60.93 C202.119,63.417 202.986,65.821 203.875,68.25 C204.391,69.677 204.391,69.677 204.918,71.133 C205.606,72.957 206.334,74.767 207.113,76.555 C209.526,82.327 210.477,87.679 210.875,93.875 C210.924,94.601 210.973,95.327 211.024,96.075 C211.209,100.266 210.726,103.203 209,107 C209.165,107.825 209.33,108.65 209.5,109.5 C210.123,112.617 209.365,114.189 208,117 C208.66,117 209.32,117 210,117 C210.716,131.152 210.716,131.152 207.062,137.164 C205.915,139.147 205.322,140.99 204.688,143.188 C201.739,152.351 197.759,161.363 189,166 C188.34,166 187.68,166 187,166 C187,166.66 187,167.32 187,168 C186.34,168 185.68,168 185,168 C184.835,168.722 184.67,169.444 184.5,170.188 C182.298,174.317 179.19,176.06 175,178 C172.794,178.59 170.599,179.005 168.352,179.41 C164.773,180.308 161.729,182.047 158.492,183.781 C156.052,184.975 153.738,185.718 151.125,186.438 C146.671,187.789 145.411,190.039 143,194 C140.25,194.875 140.25,194.875 138,195 C137.488,197.033 136.984,199.066 136.5,201.105 C135.111,206.889 135.111,206.889 134,208 C132,208.041 130,208.043 128,208 C128,208.66 128,209.32 128,210 C127.34,210 126.68,210 126,210 C126.083,210.866 126.165,211.732 126.25,212.625 C125.876,217.672 123.816,220.369 120.082,223.723 C106.628,234.557 94.357,239.844 77,238 C73.438,237.442 69.944,236.708 66.438,235.875 C65.617,235.687 64.797,235.5 63.952,235.307 C57.892,233.719 53.803,230.933 49,227 C47.885,226.235 46.761,225.483 45.625,224.75 C43,223 43,223 41,221 C40.34,220.885 39.68,220.771 39,220.652 C37,220 37,220 35.875,218.004 C35.586,217.198 35.298,216.393 35,215.562 C33.809,212.038 33.809,212.038 30.965,209.863 C30.316,209.578 29.668,209.294 29,209 C27.994,207.337 26.994,205.67 26,204 C24.832,203.105 24.832,203.105 23.641,202.191 C17.797,197.342 14.562,190.563 13.642,183.094 C12.817,169.604 13.072,155.408 19.688,143.25 C20.124,142.43 20.561,141.61 21.012,140.766 C21.501,139.892 21.501,139.892 22,139 C23.65,139 25.3,139 27,139 C27.433,137.639 27.433,137.639 27.875,136.25 C29.26,132.25 30.235,129.763 33.254,126.75 C35.555,124.446 37.676,122.069 39.793,119.597 C45.17,113.403 50.442,109.405 58,106 C59.033,105.449 59.033,105.449 60.086,104.887 C62.939,103.565 65.903,103.409 69,103 C70.691,101.309 70.166,99.005 70.25,96.688 C71.236,84.522 77.826,74.252 83.695,63.809 C84.252,62.816 84.252,62.816 84.821,61.802 C86.054,59.917 87.285,58.461 89,57 C89.66,57 90.32,57 91,57 C91.268,56.361 91.536,55.721 91.812,55.062 C93,53 93,53 96,52 C96,51.34 96,50.68 96,50 C103.669,43.045 112.353,38.901 122.688,37.5 C126.405,36.939 129.139,35.651 132.512,34.055 C136.86,32.212 141.424,31.129 146,30 C146,29.34 146,28.68 146,28 C147.723,26.668 147.723,26.668 150.062,25.188 C152.982,23.317 155.808,21.417 158.562,19.312 C164.256,15.237 169.939,13.308 177,14 Z M158,25 C158,25.99 158,26.98 158,28 C157.381,28.289 156.762,28.577 156.125,28.875 C153.867,29.937 153.867,29.937 152,32 C149.617,32.633 149.617,32.633 146.875,33.125 C145.965,33.293 145.055,33.46 144.117,33.633 C143.419,33.754 142.72,33.875 142,34 C142,35.65 142,37.3 142,39 C138.957,39.519 135.918,40.011 132.859,40.43 C131.32,40.65 131.32,40.65 129.75,40.875 C128.714,41.017 127.677,41.159 126.609,41.305 C123.669,41.78 123.669,41.78 122,45 C119.426,45.738 119.426,45.738 116.312,46.312 C110.693,47.584 106.629,49.412 103,54 C103,54.66 103,55.32 103,56 C102.402,56.144 101.804,56.289 101.188,56.438 C99.438,56.887 97.713,57.429 96,58 C95.67,59.65 95.34,61.3 95,63 C94.01,63 93.02,63 92,63 C90.234,65.379 90.234,65.379 88.625,68.438 C88.015,69.531 87.406,70.624 86.777,71.75 C85.898,73.359 85.898,73.359 85,75 C84.506,75.866 84.013,76.732 83.504,77.625 C81.385,81.347 79.507,84.981 78,89 C77.67,89.33 77.34,89.66 77,90 C76.959,91.666 76.957,93.334 77,95 C76.34,95 75.68,95 75,95 C75,97.64 75,100.28 75,103 C80.28,103 85.56,103 91,103 C90.505,104.485 90.505,104.485 90,106 C88.868,105.977 87.736,105.954 86.57,105.93 C85.089,105.911 83.607,105.893 82.125,105.875 C81.005,105.85 81.005,105.85 79.863,105.824 C77.908,105.807 75.953,105.897 74,106 C73.01,106.99 73.01,106.99 72,108 C74.401,109.2 75.894,109.115 78.57,109.098 C79.914,109.093 79.914,109.093 81.285,109.088 C82.222,109.08 83.159,109.071 84.125,109.062 C85.07,109.058 86.015,109.053 86.988,109.049 C89.326,109.037 91.663,109.021 94,109 C94.33,109.99 94.66,110.98 95,112 C95.99,112 96.98,112 98,112 C98.495,116.95 98.495,116.95 99,122 C98.276,122.182 97.551,122.364 96.805,122.551 C87.645,124.772 87.645,124.772 80,130 C80,130.99 80,131.98 80,133 C79.153,133.116 79.153,133.116 78.289,133.234 C75.213,134.263 73.649,135.953 71.375,138.25 C70.599,139.018 69.823,139.787 69.023,140.578 C67,143 65.982,145.022 65,148 C64.01,148 63.02,148 62,148 C61.734,148.664 61.469,149.328 61.195,150.012 C60.13,152.674 59.065,155.337 58,158 C57.47,159.371 57.47,159.371 56.93,160.77 C56,163 56,163 55,164 C54.835,165.155 54.67,166.31 54.5,167.5 C54,171 54,171 53,172 C52.367,180.809 51.943,188.414 57,196 C57.99,196 58.98,196 60,196 C60,195.34 60,194.68 60,194 C61.65,194 63.3,194 65,194 C65.268,194.619 65.536,195.238 65.812,195.875 C66.956,198.3 66.956,198.3 70,200 C72.706,200.421 72.706,200.421 75.625,200.562 C80.902,200.902 80.902,200.902 82,202 C83.666,202.041 85.334,202.043 87,202 C87,201.01 87,200.02 87,199 C88.32,198.67 89.64,198.34 91,198 C91.082,197.381 91.165,196.762 91.25,196.125 C92,194 92,194 93.875,192.875 C94.927,192.442 94.927,192.442 96,192 C96.99,191.34 97.98,190.68 99,190 C101.043,189.586 101.043,189.586 103.188,189.375 C104.446,189.251 105.704,189.128 107,189 C107.268,188.092 107.536,187.185 107.812,186.25 C109,183 109,183 110.48,181.051 C116.205,173.325 116.322,161.284 117.685,152.033 C118.051,149.672 118.498,147.335 119,145 C117.515,144.505 117.515,144.505 116,144 C116,143.01 116,142.02 116,141 C116.66,140.67 117.32,140.34 118,140 C118.165,139.175 118.33,138.35 118.5,137.5 C118.665,136.675 118.83,135.85 119,135 C119.66,134.67 120.32,134.34 121,134 C121,133.34 121,132.68 121,132 C126.21,131.573 126.21,131.573 129,132 C130.75,134 130.75,134 132,137 C132.704,138.357 133.412,139.711 134.125,141.062 C135.465,143.686 136.371,146.119 137,149 C137.99,149 138.98,149 140,149 C140,151.64 140,154.28 140,157 C140.66,157 141.32,157 142,157 C142,163.6 142,170.2 142,177 C141.34,177 140.68,177 140,177 C140,179.97 140,182.94 140,186 C140.66,186 141.32,186 142,186 C142.144,184.866 142.289,183.731 142.438,182.562 C143,179 143,179 144,178 C144.254,173.902 144.185,169.792 144.188,165.688 C144.2,164.533 144.212,163.379 144.225,162.189 C144.227,161.079 144.228,159.968 144.23,158.824 C144.235,157.804 144.239,156.784 144.243,155.733 C143.995,152.939 143.347,151.417 142,149 C141.617,147.009 141.274,145.009 141,143 C140.34,143 139.68,143 139,143 C139.062,142.051 139.124,141.103 139.188,140.125 C139.126,139.094 139.064,138.062 139,137 C137.515,136.01 137.515,136.01 136,135 C135.312,132.375 135.312,132.375 135,130 C140.14,132.056 141.709,135.593 143.934,140.355 C145.351,143.869 146.207,147.298 147,151 C147.33,151.66 147.66,152.32 148,153 C148.085,154.959 148.107,156.922 148.098,158.883 C148.093,160.633 148.093,160.633 148.088,162.418 C148.075,164.253 148.075,164.253 148.062,166.125 C148.058,167.356 148.053,168.587 148.049,169.855 C148.037,172.904 148.021,175.952 148,179 C152.984,179.152 155.607,178.38 160,176 C162.719,174.973 165.339,174.117 168.203,173.609 C173.754,172.617 176.125,171.294 180,167 C181.052,166.526 182.104,166.051 183.188,165.562 C186.297,164.231 186.297,164.231 187.188,160.875 C187.456,159.926 187.724,158.977 188,158 C188.99,157.67 189.98,157.34 191,157 C192.377,154.8 193.548,152.692 194.688,150.375 C195.008,149.77 195.328,149.166 195.658,148.543 C197.829,144.202 198.328,140.815 198,136 C198.99,135.67 199.98,135.34 201,135 C203.332,130.027 203.322,125.175 203.336,119.797 C203.343,118.919 203.349,118.041 203.356,117.137 C203.366,115.284 203.371,113.432 203.371,111.58 C203.375,108.772 203.411,105.967 203.449,103.16 C203.507,93.934 203.394,86.327 199,78 C198.258,75.782 197.544,73.554 196.875,71.312 C196.384,69.677 196.384,69.677 195.883,68.008 C194.905,64.676 193.933,61.344 193,58 C192.34,58 191.68,58 191,58 C191.089,56.911 191.089,56.911 191.18,55.801 C190.965,52.449 190.024,50.927 188.125,48.188 C187.591,47.397 187.058,46.607 186.508,45.793 C186.01,45.201 185.513,44.61 185,44 C184.34,44 183.68,44 183,44 C182.67,43.01 182.34,42.02 182,41 C181.34,40.67 180.68,40.34 180,40 C177.717,34.886 176.629,30.464 176.309,24.883 C176.149,22.76 176.149,22.76 174,21 C168.123,20.118 163.253,22.674 158,25 Z"/>
  <path fill="#994506" d="M73.492,108.023 C74.691,108.075 75.89,108.127 77.125,108.18 C78.981,108.276 78.981,108.276 80.875,108.375 C82.136,108.432 83.396,108.488 84.695,108.547 C87.797,108.688 90.899,108.839 94,109 C94.495,109.99 94.495,109.99 95,111 C95.99,111.33 96.98,111.66 98,112 C100.283,115.245 100.176,118.125 100,122 C98.886,122.412 97.772,122.825 96.625,123.25 C95.903,123.525 95.181,123.799 94.438,124.082 C92.736,124.723 91.027,125.344 89.312,125.949 C87.982,126.438 87.982,126.438 86.625,126.938 C85.792,127.235 84.96,127.533 84.102,127.84 C81.574,129.235 81.126,130.406 80,133 C78.333,134 76.667,135 75,136 C71.572,139.021 68.595,142.001 66.25,145.938 C65.631,146.958 65.631,146.958 65,148 C64.01,148 63.02,148 62,148 C61.89,148.58 61.781,149.16 61.668,149.758 C59.484,160.516 59.484,160.516 56,164 C55.835,165.155 55.67,166.31 55.5,167.5 C55,171 55,171 54,172 C53.845,174.577 53.768,177.109 53.75,179.688 C53.729,180.396 53.709,181.104 53.688,181.834 C53.652,186.674 54.557,189.712 57,194 C57,194.66 57,195.32 57,196 C57.99,196 58.98,196 60,196 C60,195.34 60,194.68 60,194 C62.188,193.688 62.188,193.688 65,194 C65.701,194.804 66.402,195.609 67.125,196.438 C70.875,199.78 73.453,199.596 78.328,199.82 C81.454,200.031 84.103,200.826 87,202 C87,201.01 87,200.02 87,199 C87.959,198.598 87.959,198.598 88.938,198.188 C91.331,197.113 91.331,197.113 92,194 C94.634,191.289 97.455,189.221 101.242,188.68 C103.164,188.687 105.085,188.832 107,189 C106.917,188.278 106.835,187.556 106.75,186.812 C107,184 107,184 108.812,181.812 C114.25,174.821 114.722,165.224 115.91,156.689 C116.508,152.521 117.181,148.848 119,145 C117.02,144.505 117.02,144.505 115,144 C115.33,142.68 115.66,141.36 116,140 C116.66,140 117.32,140 118,140 C118,138.68 118,137.36 118,136 C116.68,135.67 115.36,135.34 114,135 C116.31,134.67 118.62,134.34 121,134 C121,133.34 121,132.68 121,132 C123.709,130.646 126.009,130.935 129,131 C129,131.99 129,132.98 129,134 C128.051,134.124 127.103,134.247 126.125,134.375 C122.913,134.717 122.913,134.717 121,137 C120.672,139.715 120.869,142.252 121,145 C121.33,145.33 121.66,145.66 122,146 C122.099,147.477 122.131,148.958 122.133,150.438 C122.134,151.332 122.135,152.227 122.137,153.148 C122.133,154.089 122.129,155.03 122.125,156 C122.129,156.941 122.133,157.882 122.137,158.852 C122.135,159.746 122.134,160.641 122.133,161.562 C122.132,162.389 122.131,163.215 122.129,164.066 C122,166 122,166 121,167 C120.856,168.134 120.711,169.269 120.562,170.438 C120,174 120,174 118,176 C117.545,177.489 117.132,178.991 116.75,180.5 C115.988,182.953 115.988,182.953 115,185 C111.938,186.25 111.938,186.25 109,187 C107.561,189.51 107.561,189.51 107,192 C106.01,192 105.02,192 104,192 C103.606,192.893 103.606,192.893 103.203,193.805 C101.942,196.105 100.729,197.422 98.75,199.125 C98.188,199.623 97.626,200.12 97.047,200.633 C91.319,204.458 85.188,204.354 78.57,204.479 C76.245,204.537 76.245,204.537 73,205 C69.932,209.602 70.747,214.228 71.5,219.5 C71.747,220.738 71.747,220.738 72,222 C75.868,223.289 79.534,223.145 83.562,223.125 C84.343,223.129 85.124,223.133 85.928,223.137 C90.097,223.235 90.097,223.235 94,222 C96.333,221.96 98.667,221.957 101,222 C101.495,220.515 101.495,220.515 102,219 C104.319,218.286 106.655,217.625 109,217 C112.212,215.289 112.212,215.289 115,213 C116.666,212.959 118.334,212.957 120,213 C119.618,215.442 119.277,216.724 117.504,218.492 C102.986,228.833 102.986,228.833 97,230 C97,230.66 97,231.32 97,232 C93.438,232.058 89.875,232.094 86.312,232.125 C85.305,232.142 84.298,232.159 83.26,232.176 C82.283,232.182 81.307,232.189 80.301,232.195 C79.405,232.206 78.51,232.216 77.587,232.227 C74.73,231.976 72.617,231.139 70,230 C67.768,229.7 67.768,229.7 65.562,229.625 C61.091,229.219 58.663,227.628 55,225 C52.681,224.147 50.409,223.578 48,223 C48,222.34 48,221.68 48,221 C47.072,220.814 47.072,220.814 46.125,220.625 C44,220 44,220 42,218 C42,217.01 42,216.02 42,215 C40.68,214.67 39.36,214.34 38,214 C38,213.01 38,212.02 38,211 C37.34,211 36.68,211 36,211 C33,204.375 33,204.375 33,201 C32.402,200.732 31.804,200.464 31.188,200.188 C28.982,198.99 27.564,197.955 26,196 C26,195.01 26,194.02 26,193 C25.01,192.67 24.02,192.34 23,192 C21.875,189.5 21.875,189.5 21,187 C20.67,186.67 20.34,186.34 20,186 C19.912,183.854 19.893,181.706 19.902,179.559 C19.906,178.253 19.909,176.948 19.912,175.604 C19.92,174.215 19.929,172.826 19.938,171.438 C19.943,170.045 19.947,168.652 19.951,167.26 C19.963,163.84 19.979,160.42 20,157 C20.66,157 21.32,157 22,157 C21.959,156.216 21.917,155.432 21.875,154.625 C22,152 22,152 24,150 C24.309,149.216 24.619,148.432 24.938,147.625 C26.001,144.999 27.122,143.113 29,141 C29.66,141 30.32,141 31,141 C30.938,140.216 30.876,139.432 30.812,138.625 C30.874,137.759 30.936,136.893 31,136 C31.99,135.34 32.98,134.68 34,134 C35.213,130.946 35.213,130.946 36,128 C36.66,128 37.32,128 38,128 C38,127.34 38,126.68 38,126 C38.531,125.769 39.062,125.539 39.609,125.301 C44.339,123.117 46.745,121.123 50,117 C53.25,115.688 53.25,115.688 56,115 C56,114.34 56,113.68 56,113 C57.65,112.67 59.3,112.34 61,112 C61,111.34 61,110.68 61,110 C65.385,108.307 68.808,107.8 73.492,108.023 Z"/>
  <path fill="#FCDAC0" d="M97,112.625 C99.613,115.032 99.959,115.724 100.5,119.375 C100.335,120.241 100.17,121.107 100,122 C98.886,122.412 97.772,122.825 96.625,123.25 C95.903,123.525 95.181,123.799 94.438,124.082 C92.736,124.723 91.027,125.344 89.312,125.949 C88.426,126.275 87.539,126.601 86.625,126.938 C85.792,127.235 84.96,127.533 84.102,127.84 C81.574,129.235 81.126,130.406 80,133 C78.333,134 76.667,135 75,136 C71.572,139.021 68.595,142.001 66.25,145.938 C65.631,146.958 65.631,146.958 65,148 C64.01,148 63.02,148 62,148 C61.836,148.87 61.836,148.87 61.668,149.758 C59.484,160.516 59.484,160.516 56,164 C55.835,165.155 55.67,166.31 55.5,167.5 C55,171 55,171 54,172 C53.361,180.887 53.024,188.31 58,196 C59,199 59,199 58,202 C55.248,202.135 52.503,202.234 49.75,202.312 C48.973,202.354 48.195,202.396 47.395,202.439 C41.608,202.563 41.608,202.563 38.469,199.656 C36.884,196.79 36.632,195.219 37,192 C36.34,192 35.68,192 35,192 C33.236,185.196 32.719,179.013 32.812,172 C32.813,171.047 32.814,170.095 32.814,169.113 C32.859,162.141 32.859,162.141 34,161 C34.231,159.653 34.412,158.296 34.562,156.938 C34.779,154.988 34.779,154.988 35,153 C36.485,152.505 36.485,152.505 38,152 C38.102,151.305 38.204,150.61 38.309,149.895 C39.117,146.509 40.467,143.777 42.062,140.688 C42.61,139.619 43.158,138.55 43.723,137.449 C44.144,136.641 44.566,135.833 45,135 C45.99,135 46.98,135 48,135 C48.083,134.443 48.165,133.886 48.25,133.312 C49.239,130.263 50.848,128.348 53,126 C53.66,126 54.32,126 55,126 C55,124.68 55,123.36 55,122 C59.111,118 59.111,118 63,118 C63.33,117.01 63.66,116.02 64,115 C64.99,115 65.98,115 67,115 C67.33,114.01 67.66,113.02 68,112 C76.252,108.8 89.391,107.435 97,112.625 Z"/>
  <path fill="#FCDAC0" d="M127.562,133 C131.982,134.813 133.635,137.269 135.75,141.5 C137,145 137,145 137,149 C137.66,149 138.32,149 139,149 C139.228,153.145 139.429,157.291 139.625,161.438 C139.689,162.602 139.754,163.767 139.82,164.967 C140.416,178.187 137.754,190.675 129,201 C128.01,201 127.02,201 126,201 C125.938,201.557 125.876,202.114 125.812,202.688 C124.634,206.041 122.622,207.602 120,210 C119.025,210.893 119.025,210.893 118.031,211.805 C110.459,218.614 110.459,218.614 104.812,219.5 C103.884,219.665 102.956,219.83 102,220 C101.67,220.66 101.34,221.32 101,222 C95.04,223.916 89.335,224.207 83.125,224.25 C82.001,224.264 82.001,224.264 80.854,224.278 C77.041,224.256 75.244,224.163 72,222 C69.833,217.21 69.584,213.159 70,208 C71.035,205.793 71.035,205.793 73,204 C75.692,203.617 78.057,203.44 80.75,203.438 C88.28,203.388 94.064,202.173 99.875,196.938 C100.45,196.431 101.025,195.924 101.617,195.402 C103.115,194.028 103.115,194.028 104,192 C104.99,192 105.98,192 107,192 C107.268,191.216 107.536,190.432 107.812,189.625 C109,187 109,187 112,185 C112.99,185 113.98,185 115,185 C115.121,184.374 115.242,183.747 115.367,183.102 C115.619,181.876 115.619,181.876 115.875,180.625 C116.037,179.813 116.2,179.001 116.367,178.164 C117,176 117,176 119,174 C119.368,171.672 119.702,169.338 120,167 C120.33,166.67 120.66,166.34 121,166 C121.099,164.523 121.131,163.042 121.133,161.562 C121.134,160.668 121.135,159.773 121.137,158.852 C121.131,157.44 121.131,157.44 121.125,156 C121.129,155.059 121.133,154.118 121.137,153.148 C121.135,151.807 121.135,151.807 121.133,150.438 C121.131,149.198 121.131,149.198 121.129,147.934 C121.213,145.993 121.213,145.993 120,145 C119.712,142.07 119.508,139.85 120,137 C122.456,134.123 123.739,133 127.562,133 Z"/>
  <path fill="#7F543F" d="M29,138 C29.33,138.99 29.66,139.98 30,141 C28.705,142.697 27.366,144.36 26,146 C24.359,149.556 23.212,153.278 22,157 C21.34,157 20.68,157 20,157 C20.093,161.094 20.2,165.187 20.317,169.28 C20.356,170.673 20.391,172.066 20.422,173.459 C20.467,175.46 20.527,177.46 20.586,179.461 C20.617,180.665 20.649,181.87 20.681,183.111 C20.709,186.126 20.709,186.126 23,188 C23.165,188.681 23.33,189.361 23.5,190.062 C23.665,190.702 23.83,191.341 24,192 C24.66,192.33 25.32,192.66 26,193 C26.454,193.784 26.907,194.568 27.375,195.375 C28.78,198.057 28.78,198.057 31,199.312 C34.032,201.871 34.947,205.242 36,209 C36,209.66 36,210.32 36,211 C36.66,211 37.32,211 38,211 C38.33,211.99 38.66,212.98 39,214 C40.485,214.495 40.485,214.495 42,215 C43,216.667 44,218.333 45,220 C45.99,220.33 46.98,220.66 48,221 C48,221.66 48,222.32 48,223 C49.031,223.082 50.062,223.165 51.125,223.25 C55,224 55,224 57.875,226 C61.406,228.26 63.66,228.537 67.754,228.727 C70,229 70,229 72.309,229.991 C75.129,231.048 77.303,231.309 80.301,231.414 C81.277,231.453 82.254,231.491 83.26,231.531 C84.267,231.562 85.275,231.593 86.312,231.625 C87.339,231.664 88.366,231.702 89.424,231.742 C91.949,231.836 94.474,231.922 97,232 C97,231.34 97,230.68 97,230 C97.58,229.685 98.16,229.371 98.758,229.047 C103.319,226.548 107.726,223.973 112,221 C112.623,220.586 113.245,220.172 113.887,219.746 C114.522,219.314 115.158,218.882 115.812,218.438 C116.396,218.044 116.98,217.651 117.582,217.246 C119.296,215.951 119.296,215.951 120,213 C118.515,212.505 118.515,212.505 117,212 C118.375,210.5 118.375,210.5 120,209 C120.66,209 121.32,209 122,209 C122.289,208.423 122.577,207.845 122.875,207.25 C123.917,205.167 124.958,203.083 126,201 C126.99,201 127.98,201 129,201 C129.371,200.227 129.371,200.227 129.75,199.438 C130.763,197.462 131.868,195.535 133,193.625 C138.776,183.527 139.288,172.784 139.125,161.438 C139.116,160.238 139.107,159.039 139.098,157.803 C139.074,154.868 139.042,151.934 139,149 C139.33,149 139.66,149 140,149 C140,151.64 140,154.28 140,157 C140.66,157 141.32,157 142,157 C142,163.6 142,170.2 142,177 C141.34,177 140.68,177 140,177 C140,180.3 140,183.6 140,187 C139.34,187 138.68,187 138,187 C138,188.32 138,189.64 138,191 C138.99,191 139.98,191 141,191 C141,190.34 141,189.68 141,189 C141.66,189 142.32,189 143,189 C143,187.02 143,185.04 143,183 C144.98,183 146.96,183 149,183 C148.378,186.328 147.18,188.526 145.188,191.25 C144.686,191.956 144.185,192.663 143.668,193.391 C142,195 142,195 138,195 C137.488,197.033 136.984,199.066 136.5,201.105 C135.111,206.889 135.111,206.889 134,208 C132,208.041 130,208.043 128,208 C128,208.66 128,209.32 128,210 C127.34,210 126.68,210 126,210 C126.082,210.866 126.165,211.732 126.25,212.625 C125.876,217.672 123.816,220.369 120.082,223.723 C106.628,234.557 94.357,239.844 77,238 C73.438,237.442 69.944,236.708 66.438,235.875 C65.617,235.687 64.797,235.5 63.952,235.307 C57.892,233.719 53.803,230.933 49,227 C47.885,226.235 46.761,225.483 45.625,224.75 C43,223 43,223 41,221 C40.34,220.885 39.68,220.771 39,220.652 C37,220 37,220 35.875,218.004 C35.586,217.198 35.298,216.393 35,215.562 C33.809,212.038 33.809,212.038 30.965,209.863 C30.316,209.578 29.668,209.294 29,209 C27.994,207.337 26.994,205.67 26,204 C24.832,203.105 24.832,203.105 23.641,202.191 C17.797,197.342 14.562,190.563 13.642,183.094 C12.811,169.504 12.992,154.13 20,142 C22.562,141 22.562,141 25,141 C25.66,141.33 26.32,141.66 27,142 C27.66,140.68 28.32,139.36 29,138 Z"/>
  <path fill="#AD510B" d="M154,43 C152.534,46.43 150.639,48.514 147.938,51.062 C138.879,59.932 128.47,70.981 124,83 C123.464,83.969 122.927,84.939 122.375,85.938 C120.224,90.728 120.926,95.86 121.188,100.988 C121.095,102.479 121.095,102.479 121,104 C120.01,104.66 119.02,105.32 118,106 C116,105 116,105 115,102 C114.931,99.939 114.915,97.875 114.938,95.812 C114.947,94.726 114.956,93.639 114.965,92.52 C114.976,91.688 114.988,90.857 115,90 C115.66,90 116.32,90 117,90 C116.897,88.866 116.794,87.731 116.688,86.562 C116.707,81.084 119.118,77.51 122,73 C122.519,72.121 123.039,71.242 123.574,70.336 C127.168,64.388 131.182,59.31 135.984,54.289 C138.009,51.989 139.509,49.67 141,47 C139.35,47.33 137.7,47.66 136,48 C135.67,48.99 135.34,49.98 135,51 C132.695,52.031 132.695,52.031 130,53 C123.299,56.742 117.805,61.759 112.285,67.023 C110,69 110,69 108,69 C108,69.66 108,70.32 108,71 C107.278,71.412 106.556,71.825 105.812,72.25 C101.498,74.935 97.59,79.086 96,84 C95.895,86.673 95.956,89.324 96,92 C95,93 95,93 92.438,93.062 C91.633,93.042 90.829,93.021 90,93 C89.046,83.142 93.156,77.32 99.25,69.875 C100.611,68.452 100.611,68.452 102,67 C102.66,67 103.32,67 104,67 C104,66.34 104,65.68 104,65 C104.639,64.732 105.279,64.464 105.938,64.188 C108.331,63.113 108.331,63.113 109,60 C112.708,56.472 116.32,54.197 120.934,52.035 C123.055,50.973 124.964,49.752 126.938,48.438 C134.62,43.571 145.016,40.286 154,43 Z"/>
  <path fill="#815239" d="M129,131 C129,131.99 129,132.98 129,134 C127.577,134.186 127.577,134.186 126.125,134.375 C122.913,134.717 122.913,134.717 121,137 C120.672,139.715 120.869,142.252 121,145 C121.495,145.495 121.495,145.495 122,146 C122.099,147.477 122.131,148.958 122.133,150.438 C122.134,151.332 122.135,152.227 122.137,153.148 C122.133,154.089 122.129,155.03 122.125,156 C122.129,156.941 122.133,157.882 122.137,158.852 C122.135,159.746 122.134,160.641 122.133,161.562 C122.132,162.389 122.131,163.215 122.129,164.066 C122,166 122,166 121,167 C120.856,168.134 120.711,169.269 120.562,170.438 C120,174 120,174 118,176 C117.545,177.489 117.132,178.991 116.75,180.5 C115.988,182.953 115.988,182.953 115,185 C111.938,186.25 111.938,186.25 109,187 C107.561,189.51 107.561,189.51 107,192 C106.01,192 105.02,192 104,192 C103.737,192.596 103.474,193.191 103.203,193.805 C101.942,196.105 100.729,197.422 98.75,199.125 C98.188,199.623 97.626,200.12 97.047,200.633 C91.329,204.452 85.177,204.365 78.57,204.566 C74.327,204.604 74.327,204.604 71,207 C71,205.68 71,204.36 71,203 C70.031,202.711 69.061,202.423 68.062,202.125 C65,201 65,201 64,199 C61.03,199.495 61.03,199.495 58,200 C58,198.68 58,197.36 58,196 C58.66,196 59.32,196 60,196 C60,195.34 60,194.68 60,194 C62.188,193.688 62.188,193.688 65,194 C66.052,195.207 66.052,195.207 67.125,196.438 C70.875,199.78 73.453,199.596 78.328,199.82 C81.454,200.031 84.103,200.826 87,202 C87,201.01 87,200.02 87,199 C87.639,198.732 88.279,198.464 88.938,198.188 C91.331,197.113 91.331,197.113 92,194 C94.634,191.289 97.455,189.221 101.242,188.68 C103.164,188.687 105.085,188.832 107,189 C106.917,188.278 106.835,187.556 106.75,186.812 C107,184 107,184 108.812,181.812 C114.25,174.821 114.722,165.224 115.91,156.689 C116.508,152.521 117.181,148.848 119,145 C117.68,144.67 116.36,144.34 115,144 C115.33,142.68 115.66,141.36 116,140 C116.66,140 117.32,140 118,140 C118,138.68 118,137.36 118,136 C116.68,135.67 115.36,135.34 114,135 C117.465,134.505 117.465,134.505 121,134 C121,133.34 121,132.68 121,132 C123.709,130.646 126.009,130.935 129,131 Z"/>
  <path fill="#AE520B" d="M164,50 C165.32,50.33 166.64,50.66 168,51 C167.34,51.66 166.68,52.32 166,53 C165.629,55.52 165.629,55.52 165.586,58.445 C165.547,59.522 165.509,60.598 165.469,61.707 C165.438,62.835 165.407,63.963 165.375,65.125 C165.336,66.261 165.298,67.396 165.258,68.566 C165.163,71.377 165.078,74.188 165,77 C165.66,76.67 166.32,76.34 167,76 C167.33,70.06 167.66,64.12 168,58 C168.33,58 168.66,58 169,58 C169.482,83.622 169.482,83.622 164.844,94.824 C163.771,97.59 162.962,100.405 162.125,103.25 C158.484,115.181 153.627,126.071 146,136 C144.35,135.67 142.7,135.34 141,135 C140.67,134.01 140.34,133.02 140,132 C141.812,129.312 141.812,129.312 144,127 C144.66,127 145.32,127 146,127 C146,125.68 146,124.36 146,123 C146.99,122.505 146.99,122.505 148,122 C148.656,119.473 148.656,119.473 149,117 C149.66,117 150.32,117 151,117 C151.155,115.732 151.155,115.732 151.312,114.438 C152.07,110.648 153.45,107.534 155,104 C155.689,101.673 156.355,99.339 157,97 C157.517,95.519 158.038,94.04 158.562,92.562 C159.571,89.602 160.235,86.86 160.562,83.75 C161,80 161,80 162.001,77.638 C163.135,74.645 163.316,72.237 163.414,69.043 C163.453,67.931 163.491,66.819 163.531,65.674 C163.562,64.523 163.593,63.373 163.625,62.188 C163.664,61.018 163.702,59.848 163.742,58.643 C163.836,55.762 163.922,52.881 164,50 Z"/>
  <path fill="#AD510B" d="M183,76 C185.415,79.775 185.472,83.714 185.688,88.062 C185.735,88.782 185.782,89.502 185.83,90.244 C186.014,93.49 186.038,95.887 185,99 C184.693,102.385 184.491,105.771 184.281,109.164 C184,112 184,112 183,113 C182.897,114.011 182.794,115.021 182.688,116.062 C182.001,119.992 180.889,122.518 179.031,125.969 C178.034,127.934 177.321,129.85 176.625,131.938 C175.161,136.039 172.906,139.38 170.402,142.922 C169.074,144.89 168.01,146.855 167,149 C166.01,149 165.02,149 164,149 C164,149.99 164,150.98 164,152 C162.68,152 161.36,152 160,152 C160.42,146.64 161.446,143.998 165,140 C165.33,139.01 165.66,138.02 166,137 C166.66,137 167.32,137 168,137 C168.124,136.01 168.124,136.01 168.25,135 C169.086,131.655 170.44,128.962 172.016,125.914 C174.212,121.644 175.336,117.758 176,113 C176.66,113 177.32,113 178,113 C177.959,111.783 177.917,110.566 177.875,109.312 C177.786,106.694 177.962,105.093 178.973,102.648 C180.206,99.47 180.38,96.71 180.562,93.312 C180.902,87.196 180.902,87.196 182,85 C182.225,83.463 182.408,81.92 182.562,80.375 C182.646,79.558 182.73,78.74 182.816,77.898 C182.907,76.959 182.907,76.959 183,76 Z"/>
  <path fill="#85563E" d="M100,122 C100,123.65 100,125.3 100,127 C94.397,129.854 88.777,132.604 83.008,135.105 C82.345,135.401 81.683,135.696 81,136 C80.263,136.318 79.525,136.637 78.766,136.965 C78.183,137.306 77.6,137.648 77,138 C76.876,138.784 76.753,139.568 76.625,140.375 C75.706,144.237 73.28,144.942 70,147 C66.862,150.307 65.741,152.555 65,157 C64.01,157.495 64.01,157.495 63,158 C62.593,160.322 62.256,162.657 62,165 C61.34,165 60.68,165 60,165 C59.814,166.207 59.814,166.207 59.625,167.438 C59.316,168.706 59.316,168.706 59,170 C58.01,170.495 58.01,170.495 57,171 C56.097,172.883 56.097,172.883 55.375,175.062 C55.115,175.796 54.854,176.529 54.586,177.285 C54.393,177.851 54.199,178.417 54,179 C55.32,179 56.64,179 58,179 C58,180.98 58,182.96 58,185 C57.34,185 56.68,185 56,185 C56,187.31 56,189.62 56,192 C56.66,192 57.32,192 58,192 C57.67,193.32 57.34,194.64 57,196 C51.943,188.414 52.367,180.809 53,172 C53.495,171.505 53.495,171.505 54,171 C54.144,169.866 54.289,168.731 54.438,167.562 C55,164 55,164 57,162 C57.559,160.394 58.052,158.765 58.5,157.125 C59.395,153.868 60.394,150.977 62,148 C62.99,148 63.98,148 65,148 C65.228,147.285 65.456,146.569 65.691,145.832 C67.273,142.41 69.265,140.336 71.938,137.688 C72.813,136.804 73.688,135.921 74.59,135.012 C77,133 77,133 80,133 C80.124,132.381 80.247,131.762 80.375,131.125 C81,129 81,129 83,127 C84.747,126.254 86.523,125.574 88.312,124.938 C89.257,124.596 90.202,124.254 91.176,123.902 C97.13,122 97.13,122 100,122 Z"/>
  <path fill="#7E5643" d="M29,138 C29.33,138.99 29.66,139.98 30,141 C28.705,142.697 27.366,144.36 26,146 C24.359,149.556 23.212,153.278 22,157 C21.34,157 20.68,157 20,157 C20.093,161.094 20.2,165.187 20.317,169.28 C20.356,170.673 20.391,172.066 20.422,173.459 C20.467,175.46 20.527,177.46 20.586,179.461 C20.617,180.665 20.649,181.87 20.681,183.111 C20.709,186.126 20.709,186.126 23,188 C23.852,190.059 23.852,190.059 24.625,192.438 C24.885,193.22 25.146,194.002 25.414,194.809 C26,197 26,197 26,200 C22,200 22,200 20,198.062 C14.709,189.96 13.381,183.337 13.562,173.688 C13.555,172.636 13.548,171.585 13.541,170.502 C13.618,160.89 15.121,150.444 20,142 C22.562,141 22.562,141 25,141 C25.66,141.33 26.32,141.66 27,142 C27.66,140.68 28.32,139.36 29,138 Z"/>
  <path fill="#AF530C" d="M153,48 C153.99,48.33 154.98,48.66 156,49 C155.667,50.334 155.334,51.667 155,53 C154.798,53.819 154.595,54.637 154.387,55.48 C153.22,59.996 151.988,64.273 150,68.5 C145.427,78.365 144.506,87.904 144.312,98.688 C144.278,99.954 144.244,101.221 144.209,102.525 C144.051,108.684 143.961,114.839 144,121 C143.01,121 142.02,121 141,121 C135.076,112.114 138.243,96.274 139,86 C140.485,85.505 140.485,85.505 142,85 C141.988,84.29 141.977,83.579 141.965,82.848 C141.956,81.929 141.947,81.009 141.938,80.062 C141.926,79.146 141.914,78.229 141.902,77.285 C142,75 142,75 143,74 C143.134,72.502 143.231,71.001 143.312,69.5 C144.103,60.978 147.879,54.685 153,48 Z"/>
  <path fill="#804F35" d="M135,130 C137.499,130.345 138.732,130.721 140.5,132.562 C144.184,138.549 146.463,144.141 148,151 C148.33,151.66 148.66,152.32 149,153 C149.096,154.705 149.131,156.413 149.133,158.121 C149.135,159.648 149.135,159.648 149.137,161.205 C149.133,162.272 149.129,163.338 149.125,164.438 C149.129,165.5 149.133,166.563 149.137,167.658 C149.135,168.677 149.134,169.696 149.133,170.746 C149.132,171.681 149.131,172.616 149.129,173.58 C149,176 149,176 148,179 C154.697,177.107 161.397,175.201 168,173 C168,173.99 168,174.98 168,176 C167.215,176.182 166.43,176.364 165.621,176.551 C158.651,178.174 158.651,178.174 152,180.75 C148.915,182.035 148.016,182.16 145,181 C143.032,182.968 143.338,186.348 143,189 C142.34,189 141.68,189 141,189 C141,189.66 141,190.32 141,191 C140.01,191 139.02,191 138,191 C138,189.68 138,188.36 138,187 C139.98,186.505 139.98,186.505 142,186 C141.979,184.866 141.959,183.731 141.938,182.562 C142,179 142,179 143,178 C143.254,173.902 143.185,169.792 143.188,165.688 C143.2,164.533 143.212,163.379 143.225,162.189 C143.227,161.079 143.228,159.968 143.23,158.824 C143.237,157.294 143.237,157.294 143.243,155.733 C142.995,152.943 142.311,151.428 141,149 C140.875,145.75 140.875,145.75 141,143 C140.34,143 139.68,143 139,143 C138.897,142.051 138.794,141.102 138.688,140.125 C138.315,136.709 138.315,136.709 135,135 C134.812,132.375 134.812,132.375 135,130 Z"/>
  <path fill="#AD510B" d="M107,142 C107.99,142 108.98,142 110,142 C112.395,151.855 112.451,158.141 107.189,166.965 C105.512,169.68 103.767,172.343 102,175 C101.327,176.02 100.654,177.039 99.961,178.09 C98.186,180.724 96.391,183.323 94.5,185.875 C93.649,187.047 93.649,187.047 92.781,188.242 C91,190 91,190 87,190 C87,188.02 87,186.04 87,184 C87.66,184 88.32,184 89,184 C89.268,183.216 89.536,182.432 89.812,181.625 C91,179 91,179 94,177 C95.308,174.831 95.308,174.831 96.438,172.312 C97.931,169.182 99.453,166.154 101.25,163.188 C102.826,160.318 103.61,158.218 104,155 C104.66,155 105.32,155 106,155 C105.988,154.145 105.977,153.291 105.965,152.41 C105.956,151.305 105.947,150.201 105.938,149.062 C105.926,147.96 105.914,146.858 105.902,145.723 C106,143 106,143 107,142 Z"/>
  <path fill="#AD510B" d="M92,145 C92.99,145 93.98,145 95,145 C95.779,151.103 94.071,153.948 90.527,158.867 C85.253,166.232 83.787,173.423 83.441,182.293 C82.955,185.273 82.344,186.181 80,188 C79.01,187.67 78.02,187.34 77,187 C77,182.38 77,177.76 77,173 C77.99,172.67 78.98,172.34 80,172 C79.897,170.866 79.794,169.731 79.688,168.562 C79.668,163.223 81.995,159.292 85,155 C86,154 87,153 88,152 C89.19,149.401 89.19,149.401 90,147 C90.66,147 91.32,147 92,147 C92,146.34 92,145.68 92,145 Z"/>
  <path fill="#86563E" d="M163,18 C161.883,21.35 161.253,21.793 158.438,23.688 C157.797,24.124 157.156,24.561 156.496,25.012 C156.002,25.338 155.509,25.664 155,26 C155.99,26.66 156.98,27.32 158,28 C153.007,33.125 149.059,33.847 142,34 C142,35.65 142,37.3 142,39 C134.583,41.125 127.523,42.392 119.812,42.789 C117.403,42.97 115.31,43.323 113,44 C113.875,41.625 113.875,41.625 116,39 C118.427,38.267 120.819,37.908 123.324,37.523 C125.969,37.006 128.016,36.223 130.438,35.062 C135.442,32.668 140.628,31.325 146,30 C146,29.34 146,28.68 146,28 C147.758,26.633 147.758,26.633 150.125,25.125 C150.944,24.599 151.762,24.073 152.605,23.531 C153.396,23.026 154.186,22.521 155,22 C156.148,21.211 157.294,20.42 158.438,19.625 C161,18 161,18 163,18 Z"/>
  <path fill="#884D28" d="M191,54 C191.33,54.66 191.66,55.32 192,56 C192.66,56 193.32,56 194,56 C195.171,59.981 196.257,63.916 197,68 C197.99,68.33 198.98,68.66 200,69 C200.124,69.969 200.247,70.939 200.375,71.938 C200.581,72.948 200.788,73.959 201,75 C201.66,75.33 202.32,75.66 203,76 C204.781,80.923 205.363,85.656 205.754,90.863 C205.882,93.05 205.882,93.05 207,95 C207.03,97.309 206.933,99.599 206.84,101.906 C206.788,104.223 206.788,104.223 209,106 C210.169,110.383 210.029,112.942 208,117 C208.66,117 209.32,117 210,117 C210,117.99 210,118.98 210,120 C208.515,119.505 208.515,119.505 207,119 C206.251,115.337 205.762,112.576 207,109 C206.34,108.67 205.68,108.34 205,108 C204.67,114.93 204.34,121.86 204,129 C203.67,129 203.34,129 203,129 C202.991,127.81 202.981,126.621 202.972,125.395 C202.932,120.94 202.866,116.486 202.792,112.032 C202.764,110.112 202.743,108.192 202.729,106.271 C202.716,91.656 202.716,91.656 198,78 C197.238,75.656 196.503,73.303 195.812,70.938 C194.958,67.171 194.958,67.171 193,64 C192.959,62 192.957,60 193,58 C192.34,58 191.68,58 191,58 C191,56.68 191,55.36 191,54 Z"/>
  <path fill="#7F4F36" d="M100,102 C100.66,102 101.32,102 102,102 C102,102.66 102,103.32 102,104 C102.722,103.938 103.444,103.876 104.188,103.812 C107.567,104.038 109.277,105.034 112,107 C112.33,107.66 112.66,108.32 113,109 C115.31,110.054 117.643,111.057 120,112 C120,112.99 120,113.98 120,115 C120.66,115 121.32,115 122,115 C122.99,116.485 122.99,116.485 124,118 C125.947,119.214 125.947,119.214 128.125,120.188 C128.849,120.532 129.574,120.876 130.32,121.23 C131.152,121.611 131.152,121.611 132,122 C132,123.98 132,125.96 132,128 C130.35,128 128.7,128 127,128 C127,127.01 127,126.02 127,125 C126.237,124.753 125.474,124.505 124.688,124.25 C122,123 122,123 120.625,121.125 C117.107,116.524 111.4,114.58 106,113 C106,112.01 106,111.02 106,110 C104.546,110.031 104.546,110.031 103.062,110.062 C100,110 100,110 99,109 C98.875,106 98.875,106 99,103 C99.33,102.67 99.66,102.34 100,102 Z"/>
  <path fill="#925E51" d="M139,149 C139.33,149 139.66,149 140,149 C140,151.64 140,154.28 140,157 C140.66,157 141.32,157 142,157 C142,163.6 142,170.2 142,177 C141.34,177 140.68,177 140,177 C140,180.3 140,183.6 140,187 C139.34,187 138.68,187 138,187 C138,188.32 138,189.64 138,191 C138.99,191 139.98,191 141,191 C141,190.34 141,189.68 141,189 C141.66,189 142.32,189 143,189 C143,187.02 143,185.04 143,183 C144.98,183 146.96,183 149,183 C148.378,186.328 147.18,188.526 145.188,191.25 C144.686,191.956 144.185,192.663 143.668,193.391 C142,195 142,195 138,195 C137.783,195.928 137.783,195.928 137.562,196.875 C137,199 137,199 136,201 C134.02,200.67 132.04,200.34 130,200 C130,200.99 130,201.98 130,203 C128.35,203.66 126.7,204.32 125,205 C125.33,203.68 125.66,202.36 126,201 C126.99,201 127.98,201 129,201 C129.247,200.484 129.495,199.969 129.75,199.438 C130.763,197.462 131.868,195.535 133,193.625 C138.776,183.527 139.288,172.784 139.125,161.438 C139.116,160.238 139.107,159.039 139.098,157.803 C139.074,154.868 139.042,151.934 139,149 Z"/>
  <path fill="#AF530C" d="M78,150 C78.66,150 79.32,150 80,150 C81.379,155.279 81.379,155.279 79.672,158.527 C78.721,159.72 78.721,159.72 77.75,160.938 C72.623,167.453 70.574,173.283 70.312,181.438 C70.278,182.169 70.244,182.901 70.209,183.654 C70.127,185.436 70.062,187.218 70,189 C68.68,189 67.36,189 66,189 C62.465,181.93 64.9,171.938 67.25,164.75 C69.383,158.404 69.383,158.404 72.172,156.578 C73.077,156.292 73.077,156.292 74,156 C74,155.01 74,154.02 74,153 C74.99,152.67 75.98,152.34 77,152 C77.33,151.34 77.66,150.68 78,150 Z"/>
  <path fill="#7E5B4B" d="M177,14 C180,16 180,16 180.73,18.102 C181.711,23.514 182.096,28.506 182,34 C182.33,34.99 182.66,35.98 183,37 C182.01,37 181.02,37 180,37 C177.857,33.523 177.787,30.788 177.875,26.75 C177.893,25.672 177.911,24.595 177.93,23.484 C177.953,22.665 177.976,21.845 178,21 C171.643,21.371 166.757,22.298 161,25 C160.01,25 159.02,25 158,25 C158,25.66 158,26.32 158,27 C156.68,26.67 155.36,26.34 154,26 C154.577,25.602 155.155,25.203 155.75,24.793 C156.492,24.263 157.235,23.733 158,23.188 C158.742,22.665 159.485,22.143 160.25,21.605 C160.827,21.076 161.405,20.546 162,20 C162,19.01 162,18.02 162,17 C167.245,14.791 171.205,13.432 177,14 Z"/>
  <path fill="#7E5E53" d="M123,213 C123.66,213.99 124.32,214.98 125,216 C121.386,224.87 111.356,231.05 103,235 C99.914,235.944 97.123,236.129 93.902,236.133 C92.453,236.135 92.453,236.135 90.975,236.137 C89.972,236.133 88.97,236.129 87.938,236.125 C86.931,236.129 85.925,236.133 84.889,236.137 C83.924,236.135 82.959,236.134 81.965,236.133 C81.084,236.132 80.204,236.131 79.297,236.129 C77,236 77,236 74,235 C74,234.34 74,233.68 74,233 C82.25,233 90.5,233 99,233 C99,232.34 99,231.68 99,231 C100.65,231 102.3,231 104,231 C104.33,230.01 104.66,229.02 105,228 C106.32,228 107.64,228 109,228 C109,227.34 109,226.68 109,226 C109.66,226 110.32,226 111,226 C111.206,225.423 111.412,224.845 111.625,224.25 C113.516,221.155 115.9,219.808 119,218 C119.66,218 120.32,218 121,218 C121.66,216.35 122.32,214.7 123,213 Z"/>
  <path fill="#854F38" d="M25,193 C25.577,193.763 26.155,194.526 26.75,195.312 C28.769,197.999 28.769,197.999 31.062,199.312 C34.025,201.893 34.956,205.276 36,209 C36,209.66 36,210.32 36,211 C36.66,211 37.32,211 38,211 C38.33,211.99 38.66,212.98 39,214 C39.99,214.33 40.98,214.66 42,215 C43.5,217.5 43.5,217.5 45,220 C45.99,220.33 46.98,220.66 48,221 C48,221.66 48,222.32 48,223 C48.99,223.33 49.98,223.66 51,224 C51.688,226.062 51.688,226.062 52,228 C48.001,226.075 44.157,224.157 41,221 C40.34,220.885 39.68,220.771 39,220.652 C37,220 37,220 35.875,218.004 C35.586,217.198 35.298,216.393 35,215.562 C33.811,212.04 33.811,212.04 30.969,209.867 C29.994,209.438 29.994,209.438 29,209 C27.981,207.345 26.982,205.677 26,204 C23.93,202.217 23.93,202.217 22,201 C22.33,200.01 22.66,199.02 23,198 C23.33,198.66 23.66,199.32 24,200 C24.66,200 25.32,200 26,200 C25.67,197.69 25.34,195.38 25,193 Z"/>
  <path fill="#97480E" d="M133,130 C133.247,130.598 133.495,131.196 133.75,131.812 C134.857,134.138 134.857,134.138 137.125,135.375 C139,137 139,137 139.25,140.188 C139.167,141.116 139.085,142.044 139,143 C139.66,143 140.32,143 141,143 C141.488,145.018 141.977,147.036 142.465,149.055 C142.948,151.059 142.948,151.059 144,153 C144.097,154.874 144.131,156.752 144.133,158.629 C144.135,160.304 144.135,160.304 144.137,162.014 C144.133,163.185 144.129,164.356 144.125,165.562 C144.129,166.737 144.133,167.912 144.137,169.123 C144.135,170.239 144.134,171.354 144.133,172.504 C144.132,173.533 144.131,174.563 144.129,175.623 C144,178 144,178 143,179 C142.632,181.328 142.298,183.662 142,186 C141.34,186 140.68,186 140,186 C140,183.03 140,180.06 140,177 C140.66,177 141.32,177 142,177 C142,170.4 142,163.8 142,157 C141.34,157 140.68,157 140,157 C140,154.36 140,151.72 140,149 C139.01,149 138.02,149 137,149 C136.746,148.252 136.492,147.505 136.23,146.734 C135.886,145.75 135.542,144.765 135.188,143.75 C134.851,142.775 134.515,141.801 134.168,140.797 C133.059,138.141 131.831,136.203 130,134 C130.99,134 131.98,134 133,134 C133,132.68 133,131.36 133,130 Z"/>
  <path fill="#8E634E" d="M65,146 C66.312,149.937 65.243,152.125 64,156 C63.34,156 62.68,156 62,156 C62,158.97 62,161.94 62,165 C61.34,165 60.68,165 60,165 C59.814,166.207 59.814,166.207 59.625,167.438 C59.419,168.283 59.213,169.129 59,170 C58.34,170.33 57.68,170.66 57,171 C56.097,172.883 56.097,172.883 55.375,175.062 C55.115,175.796 54.854,176.529 54.586,177.285 C54.393,177.851 54.199,178.417 54,179 C55.32,179 56.64,179 58,179 C58,180.98 58,182.96 58,185 C57.34,185 56.68,185 56,185 C56,187.31 56,189.62 56,192 C56.66,192 57.32,192 58,192 C57.67,193.32 57.34,194.64 57,196 C51.943,188.414 52.367,180.809 53,172 C53.33,171.67 53.66,171.34 54,171 C54.144,169.866 54.289,168.731 54.438,167.562 C55,164 55,164 57,162 C57.559,160.394 58.052,158.765 58.5,157.125 C59.395,153.868 60.394,150.977 62,148 C62.99,148 63.98,148 65,148 C65,147.34 65,146.68 65,146 Z"/>
  <path fill="#874D31" d="M174,21 C175.32,21 176.64,21 178,21 C178.061,21.82 178.121,22.64 178.184,23.484 C178.267,24.562 178.351,25.64 178.438,26.75 C178.519,27.817 178.6,28.885 178.684,29.984 C178.941,32.437 179.318,34.639 180,37 C180.66,36.67 181.32,36.34 182,36 C181.67,35.34 181.34,34.68 181,34 C180.866,31.328 180.957,28.677 181,26 C183.169,28.169 183.64,29.439 184.562,32.312 C184.824,33.114 185.086,33.916 185.355,34.742 C186,37 186,37 186.375,39.938 C186.581,40.618 186.788,41.299 187,42 C189.471,43.155 189.471,43.155 192,44 C193,47 193,47 192.062,49.188 C191.537,50.085 191.537,50.085 191,51 C190.67,50.01 190.34,49.02 190,48 C189.34,47.835 188.68,47.67 188,47.5 C187.34,47.335 186.68,47.17 186,47 C185.67,46.01 185.34,45.02 185,44 C184.34,44 183.68,44 183,44 C178.265,40.334 176.503,35.32 175.629,29.551 C175.466,27.997 175.325,26.441 175.211,24.883 C175.1,22.912 175.1,22.912 174,21 Z"/>
  <path fill="#925732" d="M129,131 C129,131.99 129,132.98 129,134 C128.051,134.124 127.103,134.247 126.125,134.375 C122.913,134.717 122.913,134.717 121,137 C120.672,139.715 120.869,142.252 121,145 C121.33,145.33 121.66,145.66 122,146 C122.099,147.477 122.131,148.958 122.133,150.438 C122.135,151.779 122.135,151.779 122.137,153.148 C122.133,154.089 122.129,155.03 122.125,156 C122.129,156.941 122.133,157.882 122.137,158.852 C122.135,159.746 122.134,160.641 122.133,161.562 C122.132,162.389 122.131,163.215 122.129,164.066 C122,166 122,166 121,167 C120.783,168.702 120.783,168.702 120.562,170.438 C120,174 120,174 118,176 C117.402,177.521 116.865,179.066 116.375,180.625 C116.115,181.442 115.854,182.26 115.586,183.102 C115.393,183.728 115.199,184.355 115,185 C114.34,184.67 113.68,184.34 113,184 C113.309,183.484 113.619,182.969 113.938,182.438 C115.291,179.333 115.614,176.349 116,173 C117.485,172.505 117.485,172.505 119,172 C119,169.36 119,166.72 119,164 C119.66,164 120.32,164 121,164 C121,159.38 121,154.76 121,150 C120.01,149.67 119.02,149.34 118,149 C118.33,147.68 118.66,146.36 119,145 C117.68,144.67 116.36,144.34 115,144 C115.33,142.68 115.66,141.36 116,140 C116.66,140 117.32,140 118,140 C118,138.68 118,137.36 118,136 C116.68,135.67 115.36,135.34 114,135 C117.465,134.505 117.465,134.505 121,134 C121,133.34 121,132.68 121,132 C123.709,130.646 126.009,130.935 129,131 Z"/>
  <path fill="#CD9265" d="M70,208 C70.33,208 70.66,208 71,208 C71.66,211.63 72.32,215.26 73,219 C76.556,219.711 79.523,220.164 83.082,220.316 C84.013,220.358 84.945,220.4 85.904,220.443 C86.864,220.483 87.824,220.522 88.812,220.562 C89.792,220.606 90.771,220.649 91.779,220.693 C94.186,220.799 96.593,220.901 99,221 C99,220.01 99,219.02 99,218 C101.31,218 103.62,218 106,218 C106,217.34 106,216.68 106,216 C107.65,216 109.3,216 111,216 C111.33,215.01 111.66,214.02 112,213 C112.66,213 113.32,213 114,213 C114,212.34 114,211.68 114,211 C115.32,211.33 116.64,211.66 118,212 C110.315,218.637 110.315,218.637 104.812,219.5 C103.884,219.665 102.956,219.83 102,220 C101.67,220.66 101.34,221.32 101,222 C95.04,223.916 89.335,224.207 83.125,224.25 C82.001,224.264 82.001,224.264 80.854,224.278 C77.041,224.256 75.244,224.163 72,222 C69.836,217.217 69.823,213.141 70,208 Z"/>
  <path fill="#805C4E" d="M112,44 C110.2,45.99 108.686,47.176 106.312,48.5 C105.549,48.995 104.786,49.49 104,50 C104,50.99 104,51.98 104,53 C103.34,53 102.68,53 102,53 C102,53.66 102,54.32 102,55 C100.68,55 99.36,55 98,55 C98,55.66 98,56.32 98,57 C97.103,57.34 97.103,57.34 96.188,57.688 C93.445,59.333 92.58,61.27 91,64 C90.34,64 89.68,64 89,64 C89.648,60.499 91.147,58.012 93,55 C93.33,54.01 93.66,53.02 94,52 C94.66,52 95.32,52 96,52 C96,51.34 96,50.68 96,50 C104.48,42.291 104.48,42.291 112,44 Z"/>
  <path fill="#745448" d="M62.848,229.902 C64.898,229.935 66.949,229.967 69,230 C69.33,230.99 69.66,231.98 70,233 C71.32,233 72.64,233 74,233 C74,233.66 74,234.32 74,235 C81.59,235.33 89.18,235.66 97,236 C93.347,238.435 90.547,238.384 86.312,238.375 C85.568,238.374 84.824,238.373 84.057,238.372 C78.539,238.258 73.357,237.501 68,236.188 C66.968,235.94 66.968,235.94 65.915,235.687 C64,235.168 64,235.168 61,234 C60.67,233.01 60.34,232.02 60,231 C61,230 61,230 62.848,229.902 Z"/>
  <path fill="#89491F" d="M107,125 C109.763,125.523 112.326,126.109 115,127 C115,127.66 115,128.32 115,129 C115.99,129 116.98,129 118,129 C119.125,131.312 119.125,131.312 120,134 C119.01,135.485 119.01,135.485 118,137 C114.5,137.312 114.5,137.312 111,137 C108.07,134.07 107.059,131.32 106.875,127.188 C106.916,126.466 106.957,125.744 107,125 Z"/>
  <path fill="#846559" d="M205,108 C205.99,108.33 206.98,108.66 208,109 C207.642,110.986 207.284,112.971 206.926,114.957 C206.766,117.103 206.766,117.103 208.469,118.406 C210,120 210,120 210.293,122.699 C210.258,123.685 210.223,124.671 210.188,125.688 C210.16,126.681 210.133,127.675 210.105,128.699 C210.071,129.458 210.036,130.218 210,131 C209.34,130.67 208.68,130.34 208,130 C206.68,132.64 205.36,135.28 204,138 C203.67,136.68 203.34,135.36 203,134 C203.33,133.67 203.66,133.34 204,133 C204.048,130.492 204.043,128.007 204,125.5 C203.942,119.576 204.16,113.877 205,108 Z"/>
  <path fill="#A0632A" d="M130,200 C131.65,200.33 133.3,200.66 135,201 C135.625,202.812 135.625,202.812 136,205 C135.01,206.485 135.01,206.485 134,208 C130.875,208.188 130.875,208.188 128,208 C128,208.66 128,209.32 128,210 C127.34,210 126.68,210 126,210 C125.67,210.99 125.34,211.98 125,213 C122.36,213 119.72,213 117,213 C118.375,211 118.375,211 120,209 C120.66,209 121.32,209 122,209 C122.206,208.381 122.412,207.762 122.625,207.125 C124.548,204.153 126.666,203.87 130,203 C130,202.01 130,201.02 130,200 Z"/>
  <path fill="#826153" d="M18,158 C18.33,158 18.66,158 19,158 C19,168.23 19,178.46 19,189 C15.846,184.795 15.638,184.149 15.812,179.25 C15.84,178.265 15.867,177.28 15.895,176.266 C15.947,175.144 15.947,175.144 16,174 C15.34,174 14.68,174 14,174 C14,171.36 14,168.72 14,166 C14.66,166 15.32,166 16,166 C16.217,164.577 16.217,164.577 16.438,163.125 C17,160 17,160 18,158 Z"/>
  <path fill="#D0A484" d="M79,131 C79.33,131.66 79.66,132.32 80,133 C79.319,133.351 78.639,133.701 77.938,134.062 C73.162,137.212 69.185,141.01 66.25,145.938 C65.838,146.618 65.425,147.299 65,148 C64.01,148 63.02,148 62,148 C61.89,148.58 61.781,149.16 61.668,149.758 C59.484,160.516 59.484,160.516 56,164 C55.835,165.155 55.67,166.31 55.5,167.5 C55,171 55,171 54,172 C53.765,174.35 53.586,176.706 53.438,179.062 C53.354,180.353 53.27,181.643 53.184,182.973 C53.123,183.972 53.062,184.971 53,186 C52.67,186 52.34,186 52,186 C51.973,183.521 51.953,181.042 51.938,178.562 C51.925,177.502 51.925,177.502 51.912,176.42 C51.903,174.613 51.948,172.806 52,171 C52.495,170.505 52.495,170.505 53,170 C53.232,168.485 53.412,166.962 53.562,165.438 C53.646,164.611 53.73,163.785 53.816,162.934 C53.877,162.296 53.938,161.657 54,161 C54.66,161 55.32,161 56,161 C56.33,158.69 56.66,156.38 57,154 C57.66,154 58.32,154 59,154 C59,152.68 59,151.36 59,150 C59.66,150 60.32,150 61,150 C61.062,149.443 61.124,148.886 61.188,148.312 C62.093,145.736 63.36,144.409 65.336,142.566 C68.297,139.779 71.082,136.809 73.914,133.891 C76,132 76,132 79,131 Z"/>
  <path fill="#7D513B" d="M93,53 C93.33,53.66 93.66,54.32 94,55 C93.06,56.701 92.051,58.365 91,60 C90.319,61.326 89.647,62.657 89,64 C89.66,64 90.32,64 91,64 C89.135,70.613 86.122,77.296 81,82 C80.67,79.69 80.34,77.38 80,75 C80.99,75.33 81.98,75.66 83,76 C83,75.34 83,74.68 83,74 C83.66,73.67 84.32,73.34 85,73 C85.731,70.686 86.401,68.352 87,66 C85.68,66.33 84.36,66.66 83,67 C86.118,59.13 86.118,59.13 89,57 C89.66,57 90.32,57 91,57 C91.66,55.68 92.32,54.36 93,53 Z"/>
  <path fill="#A54C09" d="M153,109 C154.255,112.766 153.371,114.372 152,118 C151.34,118 150.68,118 150,118 C150.083,118.743 150.165,119.485 150.25,120.25 C149.929,123.782 148.647,124.766 146,127 C146,125.68 146,124.36 146,123 C146.66,122.67 147.32,122.34 148,122 C148.656,119.473 148.656,119.473 149,117 C149.66,117 150.32,117 151,117 C151.217,115.577 151.217,115.577 151.438,114.125 C152,111 152,111 153,109 Z M157,111 C158.421,115.264 156.825,118.108 155,122 C152.305,126.897 149.414,131.57 146,136 C144.35,135.67 142.7,135.34 141,135 C140.67,134.01 140.34,133.02 140,132 C141.938,129.312 141.938,129.312 144,127 C144.66,127.33 145.32,127.66 146,128 C145.01,129.98 144.02,131.96 143,134 C143.99,134 144.98,134 146,134 C146.277,133.444 146.554,132.889 146.84,132.316 C147.64,130.718 148.445,129.122 149.254,127.527 C149.686,126.673 150.118,125.818 150.562,124.938 C150.997,124.08 151.431,123.223 151.879,122.34 C153.091,119.935 153.091,119.935 154,117 C154.66,117 155.32,117 156,117 C155.979,116.196 155.959,115.391 155.938,114.562 C156,112 156,112 157,111 Z"/>
  <path fill="#875437" d="M30,209 C32.763,209.523 35.326,210.109 38,211 C38.33,211.99 38.66,212.98 39,214 C39.99,214.33 40.98,214.66 42,215 C43,216.667 44,218.333 45,220 C45.99,220.33 46.98,220.66 48,221 C48,221.66 48,222.32 48,223 C48.99,223.33 49.98,223.66 51,224 C51.688,226.062 51.688,226.062 52,228 C48.001,226.075 44.157,224.157 41,221 C40.341,220.885 39.683,220.771 39.004,220.652 C37,220 37,220 35.84,218.004 C35.542,217.198 35.244,216.393 34.938,215.562 C33.606,212.001 33.305,211.203 30,209 Z"/>
  <path fill="#825137" d="M163,18 C161.883,21.35 161.253,21.793 158.438,23.688 C157.797,24.124 157.156,24.561 156.496,25.012 C156.002,25.338 155.509,25.664 155,26 C155.99,26.66 156.98,27.32 158,28 C154.124,31.611 154.124,31.611 152,33 C149.625,32.812 149.625,32.812 148,32 C148.66,32 149.32,32 150,32 C150,31.34 150,30.68 150,30 C149.237,30.516 148.474,31.031 147.688,31.562 C146.801,32.037 145.914,32.511 145,33 C144.01,32.67 143.02,32.34 142,32 C143.32,31.34 144.64,30.68 146,30 C146,29.34 146,28.68 146,28 C147.758,26.633 147.758,26.633 150.125,25.125 C150.944,24.599 151.762,24.073 152.605,23.531 C153.396,23.026 154.186,22.521 155,22 C156.148,21.211 157.294,20.42 158.438,19.625 C161,18 161,18 163,18 Z"/>
  <path fill="#785244" d="M204,127 C204.33,127 204.66,127 205,127 C205,129.333 205,131.667 205,134 C205.99,132.35 206.98,130.7 208,129 C208.688,130.625 208.688,130.625 209,133 C208.071,135.034 207.062,137.032 206,139 C205.649,140.072 205.299,141.145 204.938,142.25 C204,145 204,145 202,147 C201.34,146.67 200.68,146.34 200,146 C199.67,147.32 199.34,148.64 199,150 C197.722,146.113 198.625,143.987 200.168,140.23 C201.308,137.175 201.936,134.076 202.57,130.883 C203,129 203,129 204,127 Z"/>
  <path fill="#AF6F41" d="M55,164 C55.33,164 55.66,164 56,164 C56.054,165.75 56.093,167.5 56.125,169.25 C56.148,170.225 56.171,171.199 56.195,172.203 C55.999,175.02 55.446,176.609 54,179 C55.32,179 56.64,179 58,179 C58,180.98 58,182.96 58,185 C57.34,185 56.68,185 56,185 C56,187.31 56,189.62 56,192 C56.66,192 57.32,192 58,192 C57.67,193.32 57.34,194.64 57,196 C51.943,188.414 52.367,180.809 53,172 C53.33,171.67 53.66,171.34 54,171 C54.368,168.672 54.702,166.338 55,164 Z"/>
  <path fill="#8A491E" d="M55,224 C55.99,224 56.98,224 58,224 C58,224.66 58,225.32 58,226 C59.702,225.969 59.702,225.969 61.438,225.938 C65,226 65,226 66,227 C67.784,227.372 69.578,227.698 71.375,228 C74.382,228.508 77.102,229.034 80,230 C82.733,230.228 85.45,230.417 88.188,230.562 C88.937,230.606 89.687,230.649 90.459,230.693 C92.306,230.799 94.153,230.9 96,231 C96,230.34 96,229.68 96,229 C97.32,229.33 98.64,229.66 100,230 C99.01,230 98.02,230 97,230 C97,230.66 97,231.32 97,232 C93.438,232.058 89.875,232.094 86.312,232.125 C84.801,232.15 84.801,232.15 83.26,232.176 C82.283,232.182 81.307,232.189 80.301,232.195 C79.405,232.206 78.51,232.216 77.587,232.227 C74.73,231.976 72.617,231.139 70,230 C67.768,229.7 67.768,229.7 65.562,229.625 C60.987,229.212 58.533,227.899 55,225 C55,224.67 55,224.34 55,224 Z"/>
  <path fill="#925530" d="M37,123 C38,125 38,125 37.328,127.348 C36.794,128.691 36.794,128.691 36.25,130.062 C35.732,131.41 35.732,131.41 35.203,132.785 C34,135 34,135 31,136 C31,137.65 31,139.3 31,141 C30.34,140.34 29.68,139.68 29,139 C28.34,139.99 27.68,140.98 27,142 C23.875,142.188 23.875,142.188 21,142 C21.495,140.515 21.495,140.515 22,139 C23.65,139 25.3,139 27,139 C27.289,138.092 27.577,137.185 27.875,136.25 C29.745,130.848 31.803,127.982 36,124 C36.33,123.67 36.66,123.34 37,123 Z"/>
  <path fill="#C6895A" d="M139,149 C139.33,149 139.66,149 140,149 C140,151.64 140,154.28 140,157 C140.66,157 141.32,157 142,157 C142,163.6 142,170.2 142,177 C141.34,177 140.68,177 140,177 C140.083,178.052 140.165,179.104 140.25,180.188 C139.965,184.538 138.975,185.932 136,189 C136.579,186.009 137.241,183.103 138.031,180.156 C139.415,173.947 139.216,167.768 139.125,161.438 C139.111,159.638 139.111,159.638 139.098,157.803 C139.074,154.868 139.042,151.934 139,149 Z"/>
  <path fill="#B2550E" d="M100,132 C100,133.65 100,135.3 100,137 C94.974,138.571 90.239,139.449 85,140 C85,139.01 85,138.02 85,137 C85.99,137 86.98,137 88,137 C88.33,136.01 88.66,135.02 89,134 C92.448,131.48 95.866,131.841 100,132 Z"/>
  <path fill="#AB5F26" d="M68,108 C80.87,108.495 80.87,108.495 94,109 C94.495,109.99 94.495,109.99 95,111 C95.99,111.33 96.98,111.66 98,112 C97.67,112.66 97.34,113.32 97,114 C96.336,113.511 95.672,113.023 94.988,112.52 C91.317,110.653 88.206,110.585 84.188,110.688 C83.124,110.702 83.124,110.702 82.039,110.717 C77.049,110.84 72.681,111.281 68,113 C67.67,113.66 67.34,114.32 67,115 C66.01,115.33 65.02,115.66 64,116 C63.67,116.66 63.34,117.32 63,118 C60.938,118.625 60.938,118.625 59,119 C59,118.34 59,117.68 59,117 C59.99,117 60.98,117 62,117 C62.33,116.01 62.66,115.02 63,114 C63.99,114 64.98,114 66,114 C66.66,112.02 67.32,110.04 68,108 Z"/>
  <path fill="#E4B591" d="M36,152 C37.26,154.521 36.919,155.854 36.562,158.625 C36.41,159.851 36.41,159.851 36.254,161.102 C36.17,161.728 36.086,162.355 36,163 C35.34,163 34.68,163 34,163 C34.14,165.646 34.287,168.292 34.438,170.938 C34.477,171.692 34.516,172.447 34.557,173.225 C34.44,176.919 34.44,176.919 36,180 C36.072,181.853 36.084,183.708 36.062,185.562 C36.053,186.574 36.044,187.586 36.035,188.629 C36.024,189.411 36.012,190.194 36,191 C36.99,191.33 37.98,191.66 39,192 C39.73,194.066 39.73,194.066 40.188,196.562 C40.346,197.389 40.505,198.215 40.668,199.066 C40.832,200.024 40.832,200.024 41,201 C37.062,197.677 37.062,197.677 36.75,194.25 C36.833,193.508 36.915,192.765 37,192 C36.34,192 35.68,192 35,192 C33.236,185.196 32.719,179.013 32.812,172 C32.813,171.047 32.814,170.095 32.814,169.113 C32.859,162.141 32.859,162.141 34,161 C34.206,159.672 34.366,158.337 34.5,157 C34.889,153.111 34.889,153.111 36,152 Z"/>
  <path fill="#B8733E" d="M44,135 C44.33,135.99 44.66,136.98 45,138 C43.82,140.34 43.82,140.34 42.125,142.938 C40.126,146.02 38.872,148.458 38,152 C37.34,152.33 36.68,152.66 36,153 C35.572,154.863 35.572,154.863 35.438,157 C35.096,160.904 35.096,160.904 34,162 C33.843,163.559 33.749,165.125 33.684,166.691 C33.621,168.108 33.621,168.108 33.557,169.553 C33.517,170.546 33.478,171.539 33.438,172.562 C33.394,173.56 33.351,174.557 33.307,175.584 C33.2,178.056 33.098,180.528 33,183 C32.67,183 32.34,183 32,183 C32,175.08 32,167.16 32,159 C32.66,159 33.32,159 34,159 C33.959,157.907 33.917,156.814 33.875,155.688 C34,152 34,152 36,149 C36.385,147.344 36.728,145.678 37,144 C37.66,144 38.32,144 39,144 C39,143.34 39,142.68 39,142 C39.66,141.67 40.32,141.34 41,141 C42.048,139.025 43.052,137.025 44,135 Z"/>
  <path fill="#8A5E47" d="M100,122 C100,123.65 100,125.3 100,127 C97.36,127 94.72,127 92,127 C92,127.66 92,128.32 92,129 C90.422,129.217 90.422,129.217 88.812,129.438 C85.845,129.875 82.932,130.378 80,131 C82.294,127.328 84.305,126.178 88.375,124.812 C89.311,124.489 90.247,124.165 91.211,123.832 C97.352,122 97.352,122 100,122 Z"/>
  <path fill="#906650" d="M29,138 C29.33,138.99 29.66,139.98 30,141 C28.75,143.188 28.75,143.188 27,145 C26.01,145 25.02,145 24,145 C23.67,145.99 23.34,146.98 23,148 C22.34,148 21.68,148 21,148 C21,149.65 21,151.3 21,153 C20.01,153.495 20.01,153.495 19,154 C17.812,151.938 17.812,151.938 17,149 C18.062,145.25 18.062,145.25 20,142 C22.562,141 22.562,141 25,141 C25.66,141.33 26.32,141.66 27,142 C27.66,140.68 28.32,139.36 29,138 Z"/>
  <path fill="#805036" d="M72,107 C72,107.33 72,107.66 72,108 C68.177,109.423 65.087,110.24 61,110 C61,110.66 61,111.32 61,112 C59.35,112.33 57.7,112.66 56,113 C56,113.66 56,114.32 56,115 C53,117 53,117 50,117 C49.732,117.598 49.464,118.196 49.188,118.812 C47.975,121.046 47.053,122.499 45,124 C42.812,123.688 42.812,123.688 41,123 C41.66,123 42.32,123 43,123 C43,122.34 43,121.68 43,121 C44.375,119.375 44.375,119.375 46,118 C46.66,118 47.32,118 48,118 C48,117.34 48,116.68 48,116 C48.99,116 49.98,116 51,116 C51,115.34 51,114.68 51,114 C52.32,114 53.64,114 55,114 C55.33,113.01 55.66,112.02 56,111 C57.32,111 58.64,111 60,111 C60,110.34 60,109.68 60,109 C64.177,107.409 67.532,106.787 72,107 Z"/>
  <path fill="#7C5746" d="M145,176 C145.33,176 145.66,176 146,176 C146,177.98 146,179.96 146,182 C146.664,181.711 147.328,181.423 148.012,181.125 C148.895,180.754 149.778,180.383 150.688,180 C151.993,179.443 151.993,179.443 153.324,178.875 C156.057,177.981 158.147,177.836 161,178 C158.333,179.333 155.667,180.667 153,182 C154.32,182.33 155.64,182.66 157,183 C157,182.34 157,181.68 157,181 C158.65,181 160.3,181 162,181 C160.725,183.55 159.815,183.66 157.188,184.625 C156.5,184.885 155.813,185.146 155.105,185.414 C153,186 153,186 149,186 C149,185.01 149,184.02 149,183 C147.02,183 145.04,183 143,183 C143.66,180.69 144.32,178.38 145,176 Z"/>
  <path fill="#BC7845" d="M33,183 C35,185 35,185 35.125,188.625 C35.084,189.739 35.042,190.852 35,192 C35.66,192 36.32,192 37,192 C37.289,193.114 37.577,194.227 37.875,195.375 C38.692,199.003 38.692,199.003 41,201 C43.734,201.306 46.383,201.511 49.125,201.625 C49.879,201.664 50.633,201.702 51.41,201.742 C53.273,201.837 55.136,201.919 57,202 C57,202.33 57,202.66 57,203 C53.37,203 49.74,203 46,203 C46,203.66 46,204.32 46,205 C42.173,204.468 39.717,203.808 37,201 C34.187,195.061 33.388,189.523 33,183 Z"/>
  <path fill="#AB7959" d="M97,196 C98.32,196.33 99.64,196.66 101,197 C93.951,203.378 87.803,204.285 78.57,204.566 C74.327,204.604 74.327,204.604 71,207 C71,205.68 71,204.36 71,203 C73.52,202.661 76.041,202.329 78.562,202 C79.267,201.905 79.971,201.809 80.697,201.711 C85.174,201.133 89.487,200.905 94,201 C94,200.01 94,199.02 94,198 C94.99,198 95.98,198 97,198 C97,197.34 97,196.68 97,196 Z"/>
  <path fill="#BA8966" d="M120,145 C120.66,145.33 121.32,145.66 122,146 C122.029,149.312 122.047,152.625 122.062,155.938 C122.071,156.883 122.079,157.829 122.088,158.803 C122.091,159.702 122.094,160.601 122.098,161.527 C122.103,162.36 122.108,163.193 122.114,164.051 C122,166 122,166 121,167 C120.783,168.702 120.783,168.702 120.562,170.438 C120,174 120,174 118,176 C117.402,177.521 116.865,179.066 116.375,180.625 C116.115,181.442 115.854,182.26 115.586,183.102 C115.393,183.728 115.199,184.355 115,185 C114.34,184.67 113.68,184.34 113,184 C113.309,183.484 113.619,182.969 113.938,182.438 C115.291,179.333 115.614,176.349 116,173 C116.99,172.67 117.98,172.34 119,172 C119,169.36 119,166.72 119,164 C119.66,164 120.32,164 121,164 C120.67,157.73 120.34,151.46 120,145 Z"/>
  <path fill="#A3571F" d="M133,130 C133.247,130.598 133.495,131.196 133.75,131.812 C134.841,134.138 134.841,134.138 137.094,135.25 C139,137 139,137 139.172,139.918 C139.033,140.997 138.893,142.076 138.75,143.188 C138.621,144.274 138.492,145.361 138.359,146.48 C138.241,147.312 138.122,148.143 138,149 C136.993,146.991 135.991,144.981 135,142.965 C134.67,142.296 134.34,141.627 134,140.938 C133.67,140.266 133.34,139.594 133,138.902 C131.919,136.766 131.919,136.766 130,134 C130.99,134 131.98,134 133,134 C133,132.68 133,131.36 133,130 Z"/>
  <path fill="#7F523C" d="M92,127 C94.31,127 96.62,127 99,127 C98.464,127.247 97.927,127.495 97.375,127.75 C94.87,129.003 94.87,129.003 92.25,130.938 C88.558,133.281 85.12,134.558 81,136 C80.01,136.495 80.01,136.495 79,137 C78.67,135.68 78.34,134.36 78,133 C78.66,133 79.32,133 80,133 C80,132.34 80,131.68 80,131 C84.121,129.002 87.452,128.822 92,129 C92,128.34 92,127.68 92,127 Z"/>
  <path fill="#8F4918" d="M75,95 C75.33,95 75.66,95 76,95 C76,97.31 76,99.62 76,102 C81.61,102 87.22,102 93,102 C93,103.65 93,105.3 93,107 C92,108 92,108 90.051,108.114 C89.218,108.108 88.385,108.103 87.527,108.098 C86.628,108.094 85.729,108.091 84.803,108.088 C83.857,108.08 82.912,108.071 81.938,108.062 C80.988,108.058 80.039,108.053 79.061,108.049 C76.707,108.037 74.354,108.021 72,108 C74,106 74,106 77.695,105.805 C79.172,105.818 80.649,105.842 82.125,105.875 C82.879,105.884 83.633,105.893 84.41,105.902 C86.274,105.926 88.137,105.962 90,106 C90.33,105.01 90.66,104.02 91,103 C85.72,103 80.44,103 75,103 C75,100.36 75,97.72 75,95 Z"/>
  <path fill="#805744" d="M80,77 C80.33,77 80.66,77 81,77 C81.181,81.606 80.928,84.822 79,89 C78.322,90.996 77.653,92.995 77,95 C76.01,94.67 75.02,94.34 74,94 C76.221,80.779 76.221,80.779 80,77 Z"/>
  <path fill="#EEC5A5" d="M136,145 C136.33,146.32 136.66,147.64 137,149 C137.66,149 138.32,149 139,149 C139.198,153.187 139.382,157.375 139.562,161.562 C139.619,162.744 139.675,163.925 139.732,165.143 C139.975,170.912 140.125,176.324 139,182 C138.67,182 138.34,182 138,182 C137.975,181.127 137.95,180.253 137.924,179.354 C137.829,176.124 137.73,172.894 137.628,169.665 C137.584,168.265 137.543,166.865 137.503,165.466 C137.445,163.457 137.381,161.449 137.316,159.441 C137.28,158.232 137.243,157.022 137.205,155.776 C137.311,153.093 137.311,153.093 136,152 C135.959,149.667 135.958,147.333 136,145 Z"/>
  <path fill="#6C4D3E" d="M200,146 C200.99,146.33 201.98,146.66 203,147 C201.882,149.316 200.756,151.628 199.625,153.938 C199.149,154.927 199.149,154.927 198.664,155.936 C196.227,160.887 196.227,160.887 194,162 C194.779,151.442 194.779,151.442 197,147 C197.66,147.66 198.32,148.32 199,149 C199.33,148.01 199.66,147.02 200,146 Z"/>
  <path fill="#8E4715" d="M82,134 C82.66,134.33 83.32,134.66 84,135 C82.71,136.376 81.373,137.708 80,139 C79.34,139 78.68,139 78,139 C77.905,140.079 77.905,140.079 77.809,141.18 C76.74,144.908 74.874,146.487 72.062,149.125 C69.341,151.702 67.083,153.876 65,157 C64.726,153.976 64.727,152.425 66.391,149.832 C67.004,149.166 67.618,148.499 68.25,147.812 C68.853,147.138 69.457,146.464 70.078,145.77 C71.973,144.025 73.709,143.123 76,142 C76.144,141.381 76.289,140.762 76.438,140.125 C77.276,136.956 79.415,135.856 82,134 Z"/>
  <path fill="#8E5F46" d="M188,48 C188.66,48 189.32,48 190,48 C190.66,48.66 191.32,49.32 192,50 C194.571,50.648 194.571,50.648 197,51 C196.979,51.722 196.959,52.444 196.938,53.188 C196.998,55.919 197.393,58.343 198,61 C196.68,61.33 195.36,61.66 194,62 C194,60.02 194,58.04 194,56 C193.34,56 192.68,56 192,56 C188,51.647 188,51.647 188,48 Z"/>
  <path fill="#87675B" d="M74,233 C81.26,233 88.52,233 96,233 C96,233.66 96,234.32 96,235 C92.734,236.633 89.147,236.143 85.562,236.125 C84.786,236.129 84.009,236.133 83.209,236.137 C79.889,236.131 77.17,236.057 74,235 C74,234.34 74,233.68 74,233 Z"/>
  <path fill="#8E491B" d="M65,194 C65.66,194 66.32,194 67,194 C67,194.66 67,195.32 67,196 C70.311,197.001 73.301,197.104 76.75,197.062 C77.735,197.053 78.72,197.044 79.734,197.035 C80.482,197.024 81.23,197.012 82,197 C82.33,198.32 82.66,199.64 83,201 C84.32,201.33 85.64,201.66 87,202 C85.334,202.043 83.666,202.041 82,202 C81.67,201.67 81.34,201.34 81,201 C79.252,200.868 77.501,200.769 75.75,200.688 C71.032,200.307 68.249,199.697 65,196 C65,195.34 65,194.68 65,194 Z"/>
  <path fill="#8C481A" d="M184,164 C182.613,166.774 180.657,167.43 178,169 C177.216,169.701 176.432,170.402 175.625,171.125 C172.357,173.459 169.966,173.59 166,174 C163.635,174.585 161.331,175.286 159,176 C159,175.34 159,174.68 159,174 C159.804,173.876 160.609,173.753 161.438,173.625 C162.283,173.419 163.129,173.212 164,173 C164.33,172.34 164.66,171.68 165,171 C167.64,171 170.28,171 173,171 C173,170.34 173,169.68 173,169 C173.99,169 174.98,169 176,169 C176,168.34 176,167.68 176,167 C178.34,163.797 180.16,163.689 184,164 Z"/>
  <path fill="#755347" d="M14,174 C14.66,174 15.32,174 16,174 C16.073,175.121 16.073,175.121 16.148,176.266 C16.223,177.25 16.298,178.235 16.375,179.25 C16.445,180.225 16.514,181.199 16.586,182.203 C16.989,184.923 17.721,186.607 19,189 C19.125,191.75 19.125,191.75 19,194 C19.66,194 20.32,194 21,194 C21,194.99 21,195.98 21,197 C20.34,197 19.68,197 19,197 C14.668,189.141 13.297,182.949 14,174 Z"/>
  <path fill="#8A491F" d="M25,146 C25.33,146 25.66,146 26,146 C26.125,148.375 26.125,148.375 26,151 C25.34,151.66 24.68,152.32 24,153 C21.729,159.926 21.574,166.756 21.375,174 C21.336,175.156 21.298,176.313 21.258,177.504 C21.164,180.336 21.078,183.168 21,186 C20.67,186 20.34,186 20,186 C20,176.43 20,166.86 20,157 C20.66,157 21.32,157 22,157 C21.959,156.216 21.917,155.432 21.875,154.625 C22,152 22,152 24,150 C24.643,147.931 24.643,147.931 25,146 Z"/>
  <path fill="#7C5341" d="M115,39 C115.99,39.66 116.98,40.32 118,41 C116.02,41.99 116.02,41.99 114,43 C118.455,42.505 118.455,42.505 123,42 C122.01,43.485 122.01,43.485 121,45 C119,45.323 116.995,45.637 114.977,45.816 C112.91,46.008 110.991,46.419 109,47 C109.66,46.34 110.32,45.68 111,45 C109.68,44.67 108.36,44.34 107,44 C107,43.34 107,42.68 107,42 C108.264,41.442 109.536,40.904 110.812,40.375 C111.52,40.073 112.228,39.772 112.957,39.461 C113.631,39.309 114.305,39.157 115,39 Z"/>
  <path fill="#8F4B1C" d="M174,21 C174,21.33 174,21.66 174,22 C173.466,22.135 172.933,22.271 172.383,22.41 C164.91,24.569 158.513,28.487 153,34 C149.375,34.125 149.375,34.125 146,34 C146,33.67 146,33.34 146,33 C147.093,32.732 148.186,32.464 149.312,32.188 C152.732,31.086 153.776,30.575 156,28 C156.66,28 157.32,28 158,28 C158,27.01 158,26.02 158,25 C168.374,20.408 168.374,20.408 174,21 Z"/>
  <path fill="#B66E3D" d="M134,192 C135.206,194.332 136.165,196.496 137,199 C136.67,199.66 136.34,200.32 136,201 C133.03,200.505 133.03,200.505 130,200 C130,200.99 130,201.98 130,203 C128.35,203.66 126.7,204.32 125,205 C125.33,203.68 125.66,202.36 126,201 C126.99,201 127.98,201 129,201 C129.268,200.443 129.536,199.886 129.812,199.312 C131.101,196.803 132.529,194.407 134,192 Z"/>
  <path fill="#D9A47C" d="M92,110 C92,110.33 92,110.66 92,111 C91.071,111.049 90.141,111.098 89.184,111.148 C79.899,111.601 79.899,111.601 71,114 C70.67,114.66 70.34,115.32 70,116 C68.68,116 67.36,116 66,116 C66,116.66 66,117.32 66,118 C65.01,118 64.02,118 63,118 C63.33,117.01 63.66,116.02 64,115 C64.99,115 65.98,115 67,115 C67.33,114.01 67.66,113.02 68,112 C75.636,109.039 83.941,109.824 92,110 Z"/>
  <path fill="#966233" d="M75,94 C75.054,95.625 75.093,97.25 75.125,98.875 C75.148,99.78 75.171,100.685 75.195,101.617 C75,104 75,104 73,106 C71.68,106 70.36,106 69,106 C69.66,102.37 70.32,98.74 71,95 C74,94 74,94 75,94 Z"/>
  <path fill="#705144" d="M202,69 C202.66,69 203.32,69 204,69 C204.648,70.749 205.294,72.499 205.938,74.25 C206.297,75.225 206.657,76.199 207.027,77.203 C207.814,79.465 208.473,81.668 209,84 C208.01,84 207.02,84 206,84 C205.567,82.886 205.134,81.772 204.688,80.625 C203.301,76.825 203.301,76.825 200,75 C200.66,73.02 201.32,71.04 202,69 Z"/>
  <path fill="#6D4C3D" d="M181,26 C183.172,28.172 183.679,29.5 184.625,32.375 C184.885,33.146 185.146,33.917 185.414,34.711 C186,37 186,37 186,41 C183,41 183,41 180,39 C180,38.34 180,37.68 180,37 C180.66,36.67 181.32,36.34 182,36 C181.67,35.34 181.34,34.68 181,34 C180.866,31.328 180.957,28.677 181,26 Z"/>
  <path fill="#7C513C" d="M108,127 C110.97,127.495 110.97,127.495 114,128 C114,128.66 114,129.32 114,130 C114.99,130 115.98,130 117,130 C117,130.99 117,131.98 117,133 C117.66,133 118.32,133 119,133 C119,133.66 119,134.32 119,135 C117.02,135 115.04,135 113,135 C112.732,134.196 112.464,133.391 112.188,132.562 C111.796,131.717 111.404,130.871 111,130 C110.01,129.67 109.02,129.34 108,129 C108,128.34 108,127.68 108,127 Z"/>
  <path fill="#894A20" d="M125,119 C125.598,119.309 126.196,119.619 126.812,119.938 C129.09,121.102 129.09,121.102 132,122 C132,123.98 132,125.96 132,128 C130.35,128 128.7,128 127,128 C127,127.01 127,126.02 127,125 C126.01,124.67 125.02,124.34 124,124 C124.66,123.67 125.32,123.34 126,123 C125.67,121.68 125.34,120.36 125,119 Z"/>
  <path fill="#806053" d="M106,43 C108.97,43.495 108.97,43.495 112,44 C110.2,45.99 108.686,47.176 106.312,48.5 C105.168,49.243 105.168,49.243 104,50 C104,50.99 104,51.98 104,53 C103.34,53 102.68,53 102,53 C102,53.66 102,54.32 102,55 C101.01,55 100.02,55 99,55 C99.3,51.397 99.681,50.271 102.5,47.875 C103.325,47.256 104.15,46.638 105,46 C105.33,45.01 105.66,44.02 106,43 Z"/>
  <path fill="#7F4F35" d="M174,21 C175.32,21 176.64,21 178,21 C178.073,22.195 178.073,22.195 178.148,23.414 C178.617,31.412 178.617,31.412 181,39 C181.66,39.33 182.32,39.66 183,40 C182.67,40.66 182.34,41.32 182,42 C178.087,39.391 177.188,36.372 176,32 C175.638,29.625 175.386,27.278 175.211,24.883 C175.1,22.912 175.1,22.912 174,21 Z"/>
  <path fill="#8C4A1E" d="M191,54 C191.33,54.66 191.66,55.32 192,56 C192.66,56 193.32,56 194,56 C194.268,56.969 194.536,57.939 194.812,58.938 C195.631,61.832 196.569,64.661 197.562,67.5 C198.869,71.347 199.571,74.965 200,79 C198,78 198,78 196.965,75.094 C196.456,73.315 196.456,73.315 195.938,71.5 C195.056,67.442 195.056,67.442 193,64 C192.959,62 192.957,60 193,58 C192.34,58 191.68,58 191,58 C191,56.68 191,55.36 191,54 Z"/>
  <path fill="#E5BEA1" d="M121,136 C123.148,140.297 123.123,145.115 123.098,149.836 C123.094,150.899 123.091,151.963 123.088,153.059 C123.08,154.153 123.071,155.247 123.062,156.375 C123.058,157.493 123.053,158.61 123.049,159.762 C123.037,162.508 123.021,165.254 123,168 C122.01,167.67 121.02,167.34 120,167 C120.33,166.67 120.66,166.34 121,166 C121.099,164.523 121.131,163.042 121.133,161.562 C121.134,160.668 121.135,159.773 121.137,158.852 C121.133,157.911 121.129,156.97 121.125,156 C121.131,154.588 121.131,154.588 121.137,153.148 C121.135,152.254 121.134,151.359 121.133,150.438 C121.132,149.611 121.131,148.785 121.129,147.934 C121.213,145.993 121.213,145.993 120,145 C119.867,143.188 119.867,143.188 119.875,141 C119.872,140.278 119.87,139.556 119.867,138.812 C120,137 120,137 121,136 Z"/>
  <path fill="#75513C" d="M180,166 C180.99,166 181.98,166 183,166 C183,166.66 183,167.32 183,168 C183.66,168 184.32,168 185,168 C184.094,171.962 182.474,173.647 179.188,175.812 C176.012,177.663 173.745,178.585 170,178 C170.66,177.34 171.32,176.68 172,176 C173.32,176 174.64,176 176,176 C176.33,175.01 176.66,174.02 177,173 C178.333,172.333 179.667,171.667 181,171 C181.33,170.01 181.66,169.02 182,168 C181.01,167.67 180.02,167.34 179,167 C179.33,166.67 179.66,166.34 180,166 Z"/>
  <path fill="#7F523B" d="M61,158 C61.33,158 61.66,158 62,158 C62,160.31 62,162.62 62,165 C61.34,165 60.68,165 60,165 C59.67,166.65 59.34,168.3 59,170 C58.01,170.33 57.02,170.66 56,171 C56,168.69 56,166.38 56,164 C56.66,163.67 57.32,163.34 58,163 C59.012,161.341 60.013,159.674 61,158 Z"/>
  <path fill="#A56533" d="M139,184 C139.33,184.99 139.66,185.98 140,187 C139.34,187 138.68,187 138,187 C138.99,189.64 139.98,192.28 141,195 C140.01,195 139.02,195 138,195 C137.67,195.99 137.34,196.98 137,198 C135,196 135,196 134.625,193.25 C135.085,189.261 136.594,187.158 139,184 Z"/>
  <path fill="#8E6149" d="M51,114 C51,114.66 51,115.32 51,116 C50.01,116 49.02,116 48,116 C48,116.66 48,117.32 48,118 C47.34,118 46.68,118 46,118 C45.67,118.99 45.34,119.98 45,121 C44.34,121 43.68,121 43,121 C43,121.66 43,122.32 43,123 C42.34,123 41.68,123 41,123 C40.67,123.99 40.34,124.98 40,126 C39.34,126 38.68,126 38,126 C38,126.66 38,127.32 38,128 C37.34,127.67 36.68,127.34 36,127 C37.372,122.061 39.714,120.605 44,118 C45.361,116.886 45.361,116.886 46.75,115.75 C49,114 49,114 51,114 Z"/>
  <path fill="#965532" d="M206,104 C209,106 209,106 209.812,108.812 C210.011,112.192 209.497,114.006 208,117 C208.66,117 209.32,117 210,117 C210,117.99 210,118.98 210,120 C209.01,119.67 208.02,119.34 207,119 C206.251,115.337 205.762,112.576 207,109 C206.34,108.67 205.68,108.34 205,108 C205.33,106.68 205.66,105.36 206,104 Z"/>
  <path fill="#8A6052" d="M123,213 C123.66,213.99 124.32,214.98 125,216 C123.557,219.366 121.667,221.51 119,224 C118.01,223.67 117.02,223.34 116,223 C116.812,221.062 116.812,221.062 118,219 C118.99,218.67 119.98,218.34 121,218 C122.219,215.496 122.219,215.496 123,213 Z"/>
  <path fill="#E4B591" d="M114,211 C115.32,211.33 116.64,211.66 118,212 C113.225,216.124 109.531,218.832 103.25,220.125 C102.451,220.293 101.652,220.46 100.828,220.633 C100.225,220.754 99.622,220.875 99,221 C99,220.01 99,219.02 99,218 C101.31,218 103.62,218 106,218 C106,217.34 106,216.68 106,216 C107.65,216 109.3,216 111,216 C111.33,215.01 111.66,214.02 112,213 C112.66,213 113.32,213 114,213 C114,212.34 114,211.68 114,211 Z"/>
  <path fill="#836355" d="M163,176 C165.062,176.438 165.062,176.438 167,177 C166,180 166,180 164,181 C161.667,181.04 159.333,181.043 157,181 C157,181.66 157,182.32 157,183 C155.02,183 153.04,183 151,183 C153.145,180.855 154.791,180.108 157.562,178.938 C160.509,177.815 160.509,177.815 163,176 Z"/>
  <path fill="#77594C" d="M99,231 C101.97,231 104.94,231 108,231 C103.658,235.342 99.864,235.744 94,236 C94.66,235.67 95.32,235.34 96,235 C96,234.34 96,233.68 96,233 C96.99,233 97.98,233 99,233 C99,232.34 99,231.68 99,231 Z"/>
  <path fill="#7F5542" d="M68,200 C72.29,200 76.58,200 81,200 C81.33,200.99 81.66,201.98 82,203 C78.04,203 74.08,203 70,203 C70,202.34 70,201.68 70,201 C69.34,200.67 68.68,200.34 68,200 Z"/>
  <path fill="#894A20" d="M106,189 C106,189.33 106,189.66 106,190 C104.36,190.433 104.36,190.433 102.688,190.875 C98.96,191.819 98.96,191.819 96,194 C95.67,194.99 95.34,195.98 95,197 C90.657,201 90.657,201 87,201 C87,200.34 87,199.68 87,199 C87.959,198.598 87.959,198.598 88.938,198.188 C91.331,197.113 91.331,197.113 92,194 C96.263,189.725 99.902,188.378 106,189 Z"/>
  <path fill="#9B5A2C" d="M54,179 C55.32,179 56.64,179 58,179 C58,180.98 58,182.96 58,185 C57.34,185 56.68,185 56,185 C56,187.31 56,189.62 56,192 C56.66,192 57.32,192 58,192 C57.67,193.32 57.34,194.64 57,196 C54.575,192.363 54.613,190.143 54.375,185.812 C54.3,184.54 54.225,183.268 54.148,181.957 C54.099,180.981 54.05,180.005 54,179 Z"/>
  <path fill="#8C4819" d="M100,102 C100.66,102 101.32,102 102,102 C102,102.66 102,103.32 102,104 C102.722,103.938 103.444,103.876 104.188,103.812 C107.567,104.038 109.277,105.034 112,107 C112.33,107.66 112.66,108.32 113,109 C115.31,110.054 117.643,111.057 120,112 C119.67,112.66 119.34,113.32 119,114 C116.36,112.68 113.72,111.36 111,110 C111,109.34 111,108.68 111,108 C110.361,107.856 109.721,107.711 109.062,107.562 C107,107 107,107 106,106 C103.672,105.632 101.338,105.298 99,105 C99.33,104.01 99.66,103.02 100,102 Z"/>
  <path fill="#995C2E" d="M43,219 C45.625,219.938 45.625,219.938 48,221 C48,221.66 48,222.32 48,223 C48.99,223.33 49.98,223.66 51,224 C51.688,226.062 51.688,226.062 52,228 C43.655,223.982 43.655,223.982 41,220 C41.66,219.67 42.32,219.34 43,219 Z"/>
  <path fill="#7E5338" d="M130,200 C132.475,200.495 132.475,200.495 135,201 C135.625,202.812 135.625,202.812 136,205 C135.01,206.485 135.01,206.485 134,208 C133.01,208 132.02,208 131,208 C129.646,205.291 129.935,202.991 130,200 Z"/>
  <path fill="#896250" d="M114,176 C114.66,176 115.32,176 116,176 C115.436,179.949 114.343,182.756 112,186 C111.01,186.33 110.02,186.66 109,187 C108.67,187.66 108.34,188.32 108,189 C108.547,185.625 109.055,183.918 111,181 C111.66,181 112.32,181 113,181 C113.33,179.35 113.66,177.7 114,176 Z"/>
  <path fill="#E0B595" d="M94,113 C96.867,113.573 97.861,113.861 100,116 C100.125,119.125 100.125,119.125 100,122 C98.023,122.731 96.019,123.394 94,124 C93.34,123.67 92.68,123.34 92,123 C92.66,122.34 93.32,121.68 94,121 C95.32,121 96.64,121 98,121 C98,119.35 98,117.7 98,116 C96.68,116 95.36,116 94,116 C94,115.01 94,114.02 94,113 Z"/>
  <path fill="#A74D08" d="M100,132 C100.043,133.666 100.041,135.334 100,137 C99,138 99,138 95.938,138.062 C94.968,138.042 93.999,138.021 93,138 C93,137.67 93,137.34 93,137 C94.65,136.67 96.3,136.34 98,136 C98.33,135.01 98.66,134.02 99,133 C95.37,134.32 91.74,135.64 88,137 C89,134 89,134 90.625,132.812 C93.804,131.725 96.667,131.872 100,132 Z M85,137 C85.99,137.33 86.98,137.66 88,138 C87.34,138 86.68,138 86,138 C85.67,138.66 85.34,139.32 85,140 C85,139.01 85,138.02 85,137 Z"/>
  <path fill="#8B5839" d="M104,50 C104.33,51.32 104.66,52.64 105,54 C104.34,54 103.68,54 103,54 C103,54.66 103,55.32 103,56 C100.353,57.461 99.106,58 96,58 C95.67,59.65 95.34,61.3 95,63 C94.01,63 93.02,63 92,63 C91.67,63.66 91.34,64.32 91,65 C91.596,61.66 92.683,59.495 95,57 C95.99,57 96.98,57 98,57 C98,56.34 98,55.68 98,55 C99.32,55 100.64,55 102,55 C102,54.34 102,53.68 102,53 C102.66,53 103.32,53 104,53 C104,52.01 104,51.02 104,50 Z"/>
  <path fill="#8A624B" d="M150,30 C150,30.66 150,31.32 150,32 C146.865,33.858 144.625,34.201 141,34 C141,34.99 141,35.98 141,37 C138.69,37 136.38,37 134,37 C136.125,34.5 136.125,34.5 139,32 C142.125,31.812 142.125,31.812 145,32 C148,30 148,30 150,30 Z"/>
  <path fill="#88685C" d="M172.75,13.688 C173.864,13.842 173.864,13.842 175,14 C175,14.66 175,15.32 175,16 C175.99,16.33 176.98,16.66 178,17 C178,17.66 178,18.32 178,19 C177.34,19 176.68,19 176,19 C176,18.34 176,17.68 176,17 C175.01,17.33 174.02,17.66 173,18 C173.33,18.66 173.66,19.32 174,20 C171.36,19.67 168.72,19.34 166,19 C169.323,14.077 169.323,14.077 172.75,13.688 Z"/>
  <path fill="#B77442" d="M129,131 C129,131.99 129,132.98 129,134 C128.051,134.124 127.103,134.247 126.125,134.375 C122.913,134.717 122.913,134.717 121,137 C120.6,139.323 120.26,141.657 120,144 C119.67,144 119.34,144 119,144 C118.706,135.186 118.706,135.186 121,132 C123.709,130.646 126.009,130.935 129,131 Z"/>
  <path fill="#916449" d="M205,108 C205.99,108.33 206.98,108.66 208,109 C207.74,110.986 207.479,112.971 207.219,114.957 C206.947,117.155 206.947,117.155 207,120 C206.34,120 205.68,120 205,120 C205,122.31 205,124.62 205,127 C204.67,127 204.34,127 204,127 C203.879,120.567 204.176,114.382 205,108 Z"/>
  <path fill="#805D4F" d="M203,77 C205.349,79.136 206.696,81.112 208,84 C208.33,84.66 208.66,85.32 209,86 C208.721,87.677 208.392,89.346 208,91 C207.34,91 206.68,91 206,91 C205.493,89.419 204.995,87.835 204.5,86.25 C204.222,85.368 203.943,84.487 203.656,83.578 C203,81 203,81 203,77 Z"/>
  <path fill="#A74C07" d="M176,113 C176.66,113.33 177.32,113.66 178,114 C177.584,120.383 175.346,125.558 172,131 C171.34,131.33 170.68,131.66 170,132 C170.944,128.369 171.852,125.29 173.562,121.938 C175.048,118.902 175.603,116.338 176,113 Z"/>
  <path fill="#8E4E23" d="M141,34 C141.33,34 141.66,34 142,34 C142,35.65 142,37.3 142,39 C140.106,39.507 138.21,40.006 136.312,40.5 C135.257,40.778 134.201,41.057 133.113,41.344 C130.289,41.939 127.872,42.128 125,42 C128.329,38.987 130.819,38.553 135.25,38.312 C136.328,38.247 137.405,38.181 138.516,38.113 C139.745,38.057 139.745,38.057 141,38 C141,36.68 141,35.36 141,34 Z"/>
  <path fill="#7F5F53" d="M200,139 C200.99,139 201.98,139 203,139 C203.625,141.875 203.625,141.875 204,145 C203.34,145.66 202.68,146.32 202,147 C201.34,146.67 200.68,146.34 200,146 C199.67,147.32 199.34,148.64 199,150 C197.399,145.998 198.707,142.954 200,139 Z"/>
  <path fill="#7D503A" d="M84.625,102.938 C85.851,102.951 85.851,102.951 87.102,102.965 C88.041,102.982 88.041,102.982 89,103 C89,103.99 89,104.98 89,106 C85.37,106 81.74,106 78,106 C78,105.34 78,104.68 78,104 C80.405,102.797 81.95,102.899 84.625,102.938 Z"/>
  <path fill="#A44A06" d="M146,75 C146.33,75 146.66,75 147,75 C147.027,76.646 147.046,78.292 147.062,79.938 C147.074,80.854 147.086,81.771 147.098,82.715 C147,85 147,85 146,86 C145.763,88.526 145.578,91.031 145.438,93.562 C145.394,94.273 145.351,94.984 145.307,95.717 C145.2,97.478 145.1,99.239 145,101 C144.67,101 144.34,101 144,101 C143.631,83.144 143.631,83.144 146,75 Z"/>
  <path fill="#BF7C4A" d="M44,135 C45,138 45,138 43.855,140.34 C43.03,141.626 43.03,141.626 42.188,142.938 C40.302,145.908 38.512,148.821 37,152 C37,149.36 37,146.72 37,144 C37.66,144 38.32,144 39,144 C39,143.34 39,142.68 39,142 C39.66,141.67 40.32,141.34 41,141 C42.048,139.025 43.052,137.025 44,135 Z"/>
  <path fill="#7E5B4B" d="M87,65 C87,68.38 86.125,70.835 85,74 C84.34,74 83.68,74 83,74 C83,74.66 83,75.32 83,76 C82.34,76 81.68,76 81,76 C81.351,75.072 81.701,74.144 82.062,73.188 C83.324,70.02 83.324,70.02 82,67 C83.65,66.34 85.3,65.68 87,65 Z"/>
  <path fill="#996444" d="M108,190 C107.67,190.66 107.34,191.32 107,192 C106.01,192 105.02,192 104,192 C103.34,193.32 102.68,194.64 102,196 C101.34,195.01 100.68,194.02 100,193 C99.34,192.67 98.68,192.34 98,192 C100.793,189.207 104.345,188.172 108,190 Z"/>
  <path fill="#C19B83" d="M119,168 C119.33,168 119.66,168 120,168 C120.125,170.875 120.125,170.875 120,174 C119.34,174.66 118.68,175.32 118,176 C117.402,177.521 116.865,179.066 116.375,180.625 C115.984,181.851 115.984,181.851 115.586,183.102 C115.393,183.728 115.199,184.355 115,185 C114.34,184.67 113.68,184.34 113,184 C113.309,183.484 113.619,182.969 113.938,182.438 C115.291,179.333 115.614,176.349 116,173 C116.99,172.67 117.98,172.34 119,172 C119,170.68 119,169.36 119,168 Z"/>
  <path fill="#A64B07" d="M79,155 C79.99,155.495 79.99,155.495 81,156 C80.01,156.495 80.01,156.495 79,157 C79,156.34 79,155.68 79,155 Z M77,157 C77.66,157.33 78.32,157.66 79,158 C76.69,161.96 74.38,165.92 72,170 C71,167 71,167 71.707,165.027 C72.072,164.338 72.437,163.648 72.812,162.938 C73.17,162.245 73.527,161.553 73.895,160.84 C75,159 75,159 77,157 Z"/>
  <path fill="#89491F" d="M92,127 C94.31,127 96.62,127 99,127 C98.464,127.247 97.927,127.495 97.375,127.75 C94.837,129.022 94.837,129.022 92.062,131.062 C89.19,132.88 87.327,133.609 84,134 C84,133.34 84,132.68 84,132 C89.75,129 89.75,129 92,129 C92,128.34 92,127.68 92,127 Z"/>
  <path fill="#B56E38" d="M115,213 C115.66,213.33 116.32,213.66 117,214 C116.34,215.32 115.68,216.64 115,218 C113.35,218 111.7,218 110,218 C110,218.66 110,219.32 110,220 C105.545,220.495 105.545,220.495 101,221 C101.33,220.34 101.66,219.68 102,219 C104.332,218.327 106.665,217.662 109,217 C112.212,215.289 112.212,215.289 115,213 Z"/>
  <path fill="#775444" d="M121,212 C122.65,212.33 124.3,212.66 126,213 C126,213.99 126,214.98 126,216 C124.68,216 123.36,216 122,216 C119.749,217.917 119.749,217.917 118,220 C117.34,219.67 116.68,219.34 116,219 C116.454,218.587 116.908,218.175 117.375,217.75 C119.06,215.936 119.993,214.247 121,212 Z"/>
  <path fill="#81603F" d="M123,39 C123,39.99 123,40.98 123,42 C119.7,42.66 116.4,43.32 113,44 C115.651,39.077 117.403,37.263 123,39 Z"/>
  <path fill="#A35534" d="M131,37 C130.01,37.495 130.01,37.495 129,38 C128.67,38.99 128.34,39.98 128,41 C125.625,41.625 125.625,41.625 123,42 C122.34,41.34 121.68,40.68 121,40 C127.625,35.875 127.625,35.875 131,37 Z"/>
  <path fill="#6B5147" d="M157,181 C158.65,181 160.3,181 162,181 C160.717,183.565 159.772,183.665 157.125,184.625 C156.426,184.885 155.728,185.146 155.008,185.414 C153,186 153,186 150,186 C150,185.01 150,184.02 150,183 C152.31,183 154.62,183 157,183 C157,182.34 157,181.68 157,181 Z"/>
  <path fill="#805E4E" d="M19,145 C19.66,145 20.32,145 21,145 C21,145.66 21,146.32 21,147 C21.66,147.33 22.32,147.66 23,148 C22.34,148 21.68,148 21,148 C21,149.65 21,151.3 21,153 C20.01,153.495 20.01,153.495 19,154 C17.875,151.75 17.875,151.75 17,149 C17.875,146.688 17.875,146.688 19,145 Z"/>
  <path fill="#884C27" d="M202,129 C203.56,132.119 202.636,134.647 202,138 C200.938,140.438 200.938,140.438 200,142 C199.34,142 198.68,142 198,142 C198,140.02 198,138.04 198,136 C198.66,135.67 199.32,135.34 200,135 C200.727,133.021 201.398,131.02 202,129 Z"/>
  <path fill="#704D3C" d="M47,112 C47.66,112.33 48.32,112.66 49,113 C47.903,114.319 46.797,115.63 45.688,116.938 C45.073,117.668 44.458,118.399 43.824,119.152 C42,121 42,121 39,122 C40.651,117.708 43.738,115.121 47,112 Z"/>
  <path fill="#6E503F" d="M209,85 C209.33,85 209.66,85 210,85 C210.33,88.96 210.66,92.92 211,97 C210.34,97 209.68,97 209,97 C207.086,93.491 206.957,92.186 207.875,88.188 C208.246,87.136 208.617,86.084 209,85 Z"/>
  <path fill="#5C3D2F" d="M93,53 C93.33,53.66 93.66,54.32 94,55 C92.238,58.617 90.357,60.801 87,63 C86.34,62.67 85.68,62.34 85,62 C86.281,60.292 87.618,58.626 89,57 C89.66,57 90.32,57 91,57 C91.66,55.68 92.32,54.36 93,53 Z"/>
  <path fill="#825236" d="M16,156 C16.66,156 17.32,156 18,156 C17.542,159.469 17.109,162.674 16,166 C15.34,166 14.68,166 14,166 C14.14,164.52 14.288,163.041 14.438,161.562 C14.519,160.739 14.6,159.915 14.684,159.066 C15,157 15,157 16,156 Z"/>
  <path fill="#745140" d="M51,228 C53.97,228.33 56.94,228.66 60,229 C60.33,230.32 60.66,231.64 61,233 C56.248,232.568 54.08,231.672 51,228 Z"/>
  <path fill="#7F5036" d="M66,146 C66.99,146.33 67.98,146.66 69,147 C68.711,147.536 68.423,148.072 68.125,148.625 C66.887,151.08 66.887,151.08 66.062,154.188 C65.712,155.116 65.361,156.044 65,157 C64.01,157.33 63.02,157.66 62,158 C62,157.34 62,156.68 62,156 C62.66,156 63.32,156 64,156 C63.959,155.092 63.917,154.185 63.875,153.25 C63.995,150.122 64.391,148.614 66,146 Z"/>
  <path fill="#7B5342" d="M65.625,103.875 C67.296,103.937 67.296,103.937 69,104 C69,104.66 69,105.32 69,106 C69.99,106.33 70.98,106.66 72,107 C69.69,107.33 67.38,107.66 65,108 C65,107.34 65,106.68 65,106 C63.35,106 61.7,106 60,106 C62,104 62,104 65.625,103.875 Z"/>
  <path fill="#C3885C" d="M131,197 C131.33,197.66 131.66,198.32 132,199 C132.66,199 133.32,199 134,199 C134,199.66 134,200.32 134,201 C132.68,200.67 131.36,200.34 130,200 C130,200.99 130,201.98 130,203 C128.35,203.66 126.7,204.32 125,205 C125.33,203.68 125.66,202.36 126,201 C126.99,201 127.98,201 129,201 C129.66,199.68 130.32,198.36 131,197 Z"/>
  <path fill="#9B5B31" d="M186,161 C186.33,161.99 186.66,162.98 187,164 C187.99,164.33 188.98,164.66 190,165 C189.01,165.33 188.02,165.66 187,166 C187,166.66 187,167.32 187,168 C185.68,168 184.36,168 183,168 C183.33,166.68 183.66,165.36 184,164 C184.66,164 185.32,164 186,164 C186,163.01 186,162.02 186,161 Z"/>
  <path fill="#836052" d="M62.188,105.75 C63.116,105.832 64.044,105.915 65,106 C65,106.66 65,107.32 65,108 C63.35,108.33 61.7,108.66 60,109 C60,109.66 60,110.32 60,111 C58.68,110.67 57.36,110.34 56,110 C57.823,106.759 58.362,106.05 62.188,105.75 Z"/>
  <path fill="#A44A06" d="M105,71 C105.66,71.33 106.32,71.66 107,72 C105.9,73.296 104.795,74.586 103.688,75.875 C103.073,76.594 102.458,77.314 101.824,78.055 C100,80 100,80 97,82 C98.364,79.008 99.949,76.71 102.125,74.25 C102.664,73.636 103.203,73.023 103.758,72.391 C104.373,71.702 104.373,71.702 105,71 Z"/>
  <path fill="#A64B07" d="M149,53 C149.625,54.875 149.625,54.875 150,57 C149.34,57.66 148.68,58.32 148,59 C147.402,60.521 146.865,62.066 146.375,63.625 C146.115,64.442 145.854,65.26 145.586,66.102 C145.393,66.728 145.199,67.355 145,68 C144.096,65.493 143.908,64.283 144.742,61.711 C145.303,60.555 145.303,60.555 145.875,59.375 C146.244,58.599 146.612,57.823 146.992,57.023 C147.66,55.682 148.33,54.341 149,53 Z"/>
  <path fill="#8F4B1D" d="M117,213 C117.99,213 118.98,213 120,213 C119.427,215.867 119.139,216.861 117,219 C116.01,218.67 115.02,218.34 114,218 C115.312,215.5 115.312,215.5 117,213 Z"/>
  <path fill="#866354" d="M25,201 C26.32,201 27.64,201 29,201 C29,201.66 29,202.32 29,203 C29.66,203 30.32,203 31,203 C31,203.99 31,204.98 31,206 C27.73,205.436 26.174,204.5 24,202 C24.33,201.67 24.66,201.34 25,201 Z"/>
  <path fill="#854B28" d="M99,105 C101.31,105 103.62,105 106,105 C104.02,105.99 104.02,105.99 102,107 C103.32,107.99 104.64,108.98 106,110 C104.02,110 102.04,110 100,110 C99.67,108.35 99.34,106.7 99,105 Z"/>
  <path fill="#674534" d="M115,39 C115.99,39.66 116.98,40.32 118,41 C111.5,44 111.5,44 107,44 C107,43.34 107,42.68 107,42 C108.264,41.442 109.536,40.904 110.812,40.375 C111.52,40.073 112.228,39.772 112.957,39.461 C113.631,39.309 114.305,39.157 115,39 Z"/>
  <path fill="#975F32" d="M30,209 C32.763,209.523 35.326,210.109 38,211 C38.688,213.062 38.688,213.062 39,215 C37.125,214.688 37.125,214.688 35,214 C34.34,213.01 33.68,212.02 33,211 C32.01,210.34 31.02,209.68 30,209 Z"/>
  <path fill="#8C5644" d="M28,206 C29.98,206 31.96,206 34,206 C34.66,207.65 35.32,209.3 36,211 C32.562,210.188 32.562,210.188 29,209 C28.67,208.01 28.34,207.02 28,206 Z"/>
  <path fill="#93533F" d="M190,159 C190.33,159.66 190.66,160.32 191,161 C191.99,161 192.98,161 194,161 C194,161.66 194,162.32 194,163 C191.69,163.33 189.38,163.66 187,164 C187.33,163.01 187.66,162.02 188,161 C188.66,161 189.32,161 190,161 C190,160.34 190,159.68 190,159 Z"/>
  <path fill="#E8BB99" d="M125,133 C127.625,133.188 127.625,133.188 130,134 C130.33,134.66 130.66,135.32 131,136 C128.03,136 125.06,136 122,136 C122.99,135.01 123.98,134.02 125,133 Z"/>
  <path fill="#A64C07" d="M162,97 C163.61,100.221 162.068,102.682 161,106 C160.358,107.676 159.701,109.348 159,111 C157.559,108.117 158.507,106.492 159.375,103.438 C159.651,102.446 159.927,101.455 160.211,100.434 C161,98 161,98 162,97 Z"/>
  <path fill="#705142" d="M102,45 C104.125,45.375 104.125,45.375 106,46 C103.312,48.252 101.354,49.882 98,51 C99.152,48.532 100.048,46.952 102,45 Z"/>
  <path fill="#BA7C4E" d="M124,205 C124,206.667 124,208.333 124,210 C123.01,210 122.02,210 121,210 C121,210.99 121,211.98 121,213 C119.68,212.67 118.36,212.34 117,212 C118.375,210.5 118.375,210.5 120,209 C120.66,209 121.32,209 122,209 C122.66,207.68 123.32,206.36 124,205 Z"/>
  <path fill="#A64B07" d="M101,164 C102,167 102,167 101.004,169.043 C100.528,169.751 100.053,170.458 99.562,171.188 C99.089,171.903 98.616,172.618 98.129,173.355 C97.756,173.898 97.384,174.441 97,175 C96.34,174.67 95.68,174.34 95,174 C96.98,170.7 98.96,167.4 101,164 Z"/>
  <path fill="#E5B693" d="M136,145 C136.33,146.32 136.66,147.64 137,149 C137.66,149 138.32,149 139,149 C139,151.64 139,154.28 139,157 C138.691,156.361 138.381,155.721 138.062,155.062 C137.165,153.064 137.165,153.064 136,152 C135.959,149.667 135.958,147.333 136,145 Z"/>
  <path fill="#8B5E46" d="M70,140 C70.934,143.01 71.045,143.867 70,147 C68.68,146.34 67.36,145.68 66,145 C67.32,143.35 68.64,141.7 70,140 Z"/>
  <path fill="#9F7761" d="M87,126 C87,126.99 87,127.98 87,129 C84,131 84,131 81.812,130.625 C81.214,130.419 80.616,130.212 80,130 C82.174,127.5 83.73,126.564 87,126 Z"/>
  <path fill="#644736" d="M205,76 C205.66,76 206.32,76 207,76 C207.66,78.64 208.32,81.28 209,84 C208.01,84 207.02,84 206,84 C205.34,81.69 204.68,79.38 204,77 C204.33,76.67 204.66,76.34 205,76 Z"/>
  <path fill="#9C6138" d="M183,41 C185.475,41.99 185.475,41.99 188,43 C188,43.66 188,44.32 188,45 C188.66,45.33 189.32,45.66 190,46 C188.68,46.33 187.36,46.66 186,47 C185.67,46.01 185.34,45.02 185,44 C184.34,44 183.68,44 183,44 C183,43.01 183,42.02 183,41 Z"/>
  <path fill="#EFC8A9" d="M121,136 C122.217,138.434 122.32,140.418 122.562,143.125 C122.646,144.035 122.73,144.945 122.816,145.883 C122.877,146.581 122.938,147.28 123,148 C121.066,146.382 120.086,145.526 119.672,142.992 C119.889,137.111 119.889,137.111 121,136 Z"/>
  <path fill="#A54B07" d="M152,57 C153.45,59.901 152.454,61.56 151.562,64.625 C151.275,65.628 150.988,66.631 150.691,67.664 C150.463,68.435 150.235,69.206 150,70 C149.67,70 149.34,70 149,70 C148.684,64.739 149.334,61.554 152,57 Z"/>
  <path fill="#8F6D5F" d="M101,49 C101.99,49.33 102.98,49.66 104,50 C104,50.99 104,51.98 104,53 C103.34,53 102.68,53 102,53 C102,53.66 102,54.32 102,55 C101.01,55 100.02,55 99,55 C99.875,50.125 99.875,50.125 101,49 Z"/>
  <path fill="#76533D" d="M163,18 C162,21 162,21 158.938,22.688 C157.968,23.121 156.999,23.554 156,24 C156.25,22.125 156.25,22.125 157,20 C159.147,18.615 160.439,18 163,18 Z"/>
  <path fill="#866556" d="M130,203 C131.32,203 132.64,203 134,203 C134,204.65 134,206.3 134,208 C133.01,208 132.02,208 131,208 C130.67,206.35 130.34,204.7 130,203 Z"/>
  <path fill="#9B6A4C" d="M97,196 C98.32,196.33 99.64,196.66 101,197 C96.25,201 96.25,201 94,201 C94,200.01 94,199.02 94,198 C94.99,198 95.98,198 97,198 C97,197.34 97,196.68 97,196 Z"/>
  <path fill="#9D6036" d="M60,194 C61.65,194 63.3,194 65,194 C64.01,194.66 63.02,195.32 62,196 C60.808,198.05 60.808,198.05 60,200 C59.34,199.67 58.68,199.34 58,199 C58,198.01 58,197.02 58,196 C58.66,196 59.32,196 60,196 C60,195.34 60,194.68 60,194 Z"/>
  <path fill="#EDC4A4" d="M38,148 C38.33,148 38.66,148 39,148 C39.293,154.055 39.293,154.055 39,156 C38.01,156.66 37.02,157.32 36,158 C36.537,154.623 37.111,151.303 38,148 Z"/>
</svg>
