<svg xmlns="http://www.w3.org/2000/svg" version="1.1" width="235" height="237">
  <defs/>
  <path fill="#A529A1" d="M99.312,15.688 C100.278,15.65 101.244,15.613 102.238,15.574 C105.864,16.133 106.787,17.094 109,20 C109.406,22.657 109.581,24.918 109.574,27.574 C109.588,28.299 109.603,29.023 109.617,29.769 C109.659,32.076 109.674,34.381 109.688,36.688 C109.717,39.004 109.751,41.321 109.79,43.638 C109.813,45.078 109.828,46.518 109.837,47.958 C109.586,51.262 109.586,51.262 111,54 C110.897,54.763 110.794,55.526 110.688,56.312 C110.791,57.199 110.894,58.086 111,59 C113.199,60.754 113.199,60.754 115.023,61.781 C126.758,69.017 134.594,78.968 141,91 C141,91.99 141,92.98 141,94 C141.66,94 142.32,94 143,94 C144.349,96.367 145.679,98.742 147,101.125 C147.382,101.79 147.763,102.455 148.156,103.141 C150.424,107.272 151.483,110.158 151,115 C151.523,114.704 152.047,114.407 152.586,114.102 C160.698,110.4 170.178,109.451 179,110 C179.33,107.69 179.66,105.38 180,103 C180.66,103 181.32,103 182,103 C182.371,101.67 182.371,101.67 182.75,100.312 C184.14,96.628 184.943,94.522 188,92 C191.512,91.614 194.685,91.749 198,93 C201.804,97.235 201.387,101.816 201.25,107.188 C201.245,108.007 201.24,108.826 201.234,109.67 C201.155,115.69 201.155,115.69 200,118 C201.063,118.951 201.063,118.951 202.148,119.922 C205.756,123.537 208.112,127.839 210.625,132.25 C211.34,133.462 211.34,133.462 212.07,134.699 C216.192,141.855 219.381,148.611 219,157 C219.311,158.671 219.641,160.339 220,162 C220,162.99 220,163.98 220,165 C220.33,165.66 220.66,166.32 221,167 C221.122,168.809 221.175,170.624 221.188,172.438 C221.202,173.406 221.216,174.374 221.23,175.371 C221,178 221,178 219,181 C218.541,182.425 218.13,183.865 217.75,185.312 C215.115,194.376 212.002,204.377 205,211 C204.01,211.33 203.02,211.66 202,212 C201.546,212.763 201.092,213.526 200.625,214.312 C196.68,220.837 188.931,224.384 182,227 C179.191,227.329 176.677,227.342 173.863,227.113 C173.248,227.076 172.634,227.039 172,227 C171.67,227.33 171.34,227.66 171,228 C151.428,230.796 132.549,228.301 116.352,216.379 C110.256,211.645 105.99,207.674 104,200 C103.01,199.67 102.02,199.34 101,199 C100.086,197.188 100.086,197.188 99.375,195 C98.589,192.257 98.589,192.257 97,190 C94.612,189.877 92.249,189.814 89.859,189.789 C88.382,189.761 86.904,189.732 85.426,189.703 C83.091,189.662 80.756,189.625 78.421,189.599 C76.171,189.571 73.922,189.525 71.672,189.477 C70.979,189.473 70.286,189.47 69.572,189.467 C65.165,189.356 62.634,188.42 59,186 C58.01,186 57.02,186 56,186 C54.659,185.699 53.326,185.36 52,185 C50.66,184.693 50.66,184.693 49.293,184.379 C37.587,181.302 25.73,175.006 18.883,164.691 C18,163 18,163 17,160 C15.546,159.258 15.546,159.258 14.062,158.5 C10.192,155.34 9.816,153.499 9.184,148.664 C8.605,137.12 8.033,124.296 14,114 C14.99,114 15.98,114 17,114 C17,112.35 17,110.7 17,109 C18.485,108.505 18.485,108.505 20,108 C20.725,106.358 21.378,104.684 22,103 C26.582,94.175 32.988,86.834 39.562,79.438 C40.104,78.805 40.646,78.173 41.205,77.521 C45.226,73.091 45.226,73.091 49.402,72.598 C50.26,72.73 51.117,72.863 52,73 C52.66,71.68 53.32,70.36 54,69 C56.97,69.495 56.97,69.495 60,70 C60.087,69.103 60.087,69.103 60.176,68.188 C61.37,65.017 63.199,64.484 66.188,63 C69.435,61.338 72.574,59.721 75.562,57.625 C78,56 78,56 80,56 C80.371,55.072 80.371,55.072 80.75,54.125 C82.206,51.649 83.378,51.049 86,50 C86,49.01 86,48.02 86,47 C86.067,44.86 86.141,42.721 86.219,40.582 C86.264,39.328 86.309,38.075 86.355,36.783 C86.403,35.473 86.451,34.163 86.5,32.812 C86.548,31.477 86.596,30.142 86.645,28.807 C86.763,25.538 86.881,22.269 87,19 C88.454,18.536 88.454,18.536 89.938,18.062 C96.585,15.756 96.585,15.756 99.312,15.688 Z"/>
  <path fill="#E92361" d="M184,112 C185.98,112 187.96,112 190,112 C190,113.98 190,115.96 190,118 C190.66,118 191.32,118 192,118 C192.184,118.534 192.369,119.067 192.559,119.617 C194.499,124.601 196.782,128.073 200.5,131.938 C204.915,136.613 207.166,140.88 209,147 C209.223,147.655 209.446,148.31 209.676,148.984 C212.785,159.22 211.125,171.488 210,182 C209.67,182.33 209.34,182.66 209,183 C208.893,184.332 208.815,185.666 208.75,187 C208.233,192.462 205.92,196.443 203,201 C202.01,201 201.02,201 200,201 C200,201.66 200,202.32 200,203 C195.694,206.828 192.807,209 187,209 C187,209.99 187,210.98 187,212 C183.626,214.603 181.231,215.363 177,215 C177,215.99 177,216.98 177,218 C172.319,218.025 167.637,218.043 162.956,218.055 C161.362,218.06 159.768,218.067 158.175,218.075 C155.889,218.088 153.602,218.093 151.316,218.098 C150.6,218.103 149.883,218.108 149.145,218.113 C147.429,218.113 145.714,218.062 144,218 C143.67,217.67 143.34,217.34 143,217 C141.441,216.841 139.877,216.723 138.312,216.625 C133.947,216.243 130.798,215.299 127,213 C127,212.34 127,211.68 127,211 C125.68,211 124.36,211 123,211 C123,210.01 123,209.02 123,208 C122.361,207.732 121.721,207.464 121.062,207.188 C119,206 119,206 118,203 C117.34,202.67 116.68,202.34 116,202 C116,201.34 116,200.68 116,200 C115.406,199.913 114.813,199.827 114.201,199.738 C110.55,198.514 109.223,195.892 107.235,192.728 C105.032,187.861 105.251,183.13 105.438,177.875 C105.439,176.83 105.441,175.784 105.443,174.707 C105.546,168.674 106.297,164.378 109,159 C109.124,157.928 109.247,156.855 109.375,155.75 C110,153 110,153 112.5,151.312 C113.325,150.879 114.15,150.446 115,150 C115.33,149.01 115.66,148.02 116,147 C116.99,146.505 116.99,146.505 118,146 C118.268,145.237 118.536,144.474 118.812,143.688 C120.796,139.199 124.479,137.251 128.625,134.938 C131.855,133.311 131.855,133.311 133.363,131.508 C135.557,129.487 137.741,128.865 140.562,127.938 C144.682,126.634 144.682,126.634 148,124 C150.392,123.106 152.749,122.307 155.188,121.562 C155.894,121.343 156.601,121.123 157.329,120.897 C163.45,119.052 169.598,117.776 175.891,116.676 C178.629,116.081 180.648,115.495 183,114 C183.33,113.34 183.66,112.68 184,112 Z"/>
  <path fill="#FBD3C0" d="M184,112 C185.98,112 187.96,112 190,112 C190,113.98 190,115.96 190,118 C190.66,118 191.32,118 192,118 C192.184,118.534 192.369,119.067 192.559,119.617 C194.499,124.601 196.782,128.073 200.5,131.938 C204.915,136.613 207.166,140.88 209,147 C209.223,147.655 209.446,148.31 209.676,148.984 C212.785,159.22 211.125,171.488 210,182 C209.67,182.33 209.34,182.66 209,183 C208.893,184.332 208.815,185.666 208.75,187 C208.233,192.462 205.92,196.443 203,201 C202.01,201 201.02,201 200,201 C200,201.66 200,202.32 200,203 C195.694,206.828 192.807,209 187,209 C187,209.99 187,210.98 187,212 C183.626,214.603 181.231,215.363 177,215 C177,215.99 177,216.98 177,218 C172.319,218.025 167.637,218.043 162.956,218.055 C161.362,218.06 159.768,218.067 158.175,218.075 C155.889,218.088 153.602,218.093 151.316,218.098 C150.6,218.103 149.883,218.108 149.145,218.113 C147.429,218.113 145.714,218.062 144,218 C143.67,217.67 143.34,217.34 143,217 C141.441,216.841 139.877,216.723 138.312,216.625 C133.947,216.243 130.798,215.299 127,213 C127,212.34 127,211.68 127,211 C125.68,211 124.36,211 123,211 C123,210.01 123,209.02 123,208 C122.361,207.732 121.721,207.464 121.062,207.188 C119,206 119,206 118,203 C117.34,202.67 116.68,202.34 116,202 C116,201.34 116,200.68 116,200 C115.406,199.913 114.813,199.827 114.201,199.738 C110.55,198.514 109.223,195.892 107.235,192.728 C105.032,187.861 105.251,183.13 105.438,177.875 C105.439,176.83 105.441,175.784 105.443,174.707 C105.546,168.674 106.297,164.378 109,159 C109.124,157.928 109.247,156.855 109.375,155.75 C110,153 110,153 112.5,151.312 C113.325,150.879 114.15,150.446 115,150 C115.33,149.01 115.66,148.02 116,147 C116.99,146.505 116.99,146.505 118,146 C118.268,145.237 118.536,144.474 118.812,143.688 C120.796,139.199 124.479,137.251 128.625,134.938 C131.855,133.311 131.855,133.311 133.363,131.508 C135.557,129.487 137.741,128.865 140.562,127.938 C144.682,126.634 144.682,126.634 148,124 C150.392,123.106 152.749,122.307 155.188,121.562 C155.894,121.343 156.601,121.123 157.329,120.897 C163.45,119.052 169.598,117.776 175.891,116.676 C178.629,116.081 180.648,115.495 183,114 C183.33,113.34 183.66,112.68 184,112 Z M162,128 C162,128.99 162,129.98 162,131 C161.134,130.917 160.268,130.835 159.375,130.75 C155.167,131.062 153.405,132.568 150,135 C148.928,135.432 147.855,135.864 146.75,136.309 C142.642,138.021 139.385,140.468 135.938,143.25 C135.323,143.741 134.709,144.232 134.076,144.738 C126.904,150.57 118.663,158.482 117,168 C116.388,177.139 117.31,185.258 120,194 C120.66,194 121.32,194 122,194 C123.206,196.332 124.165,198.496 125,201 C131.365,205.203 137.437,206.158 145,205 C148.805,203.246 148.805,203.246 150.812,199.812 C150.874,199.214 150.936,198.616 151,198 C151.99,198.33 152.98,198.66 154,199 C154.688,201.062 154.688,201.062 155,203 C155.66,203 156.32,203 157,203 C157.33,203.99 157.66,204.98 158,206 C162.163,209.104 166.72,210.626 171.941,210.32 C179.542,209.138 186.267,205.556 193,202 C193,200.68 193,199.36 193,198 C193.66,198 194.32,198 195,198 C195.416,196.935 195.416,196.935 195.84,195.848 C196.202,194.929 196.564,194.009 196.938,193.062 C197.297,192.146 197.657,191.229 198.027,190.285 C199,188 199,188 200,187 C200.978,179.758 201.099,172.424 201.125,165.125 C201.13,164.424 201.134,163.724 201.139,163.002 C201.119,156.257 200.643,150.563 197.438,144.562 C196.982,143.698 196.527,142.833 196.059,141.941 C195.535,140.98 195.535,140.98 195,140 C194.34,140 193.68,140 193,140 C192.598,139.103 192.598,139.103 192.188,138.188 C189.383,133.021 184.484,129.826 179,128 C173.353,127.393 167.659,127.708 162,128 Z"/>
  <path fill="#834F5C" d="M200,120 C200.99,120 201.98,120 203,120 C204.379,121.661 204.379,121.661 205.777,123.988 C206.289,124.835 206.801,125.682 207.329,126.554 C207.86,127.464 208.391,128.375 208.938,129.312 C209.477,130.228 210.017,131.143 210.573,132.086 C219.659,147.774 219.659,147.774 219,157 C219.311,158.671 219.641,160.339 220,162 C220,162.99 220,163.98 220,165 C220.33,165.66 220.66,166.32 221,167 C221.122,168.809 221.175,170.624 221.188,172.438 C221.202,173.406 221.216,174.374 221.23,175.371 C221,178 221,178 219,181 C218.541,182.425 218.13,183.865 217.75,185.312 C215.115,194.376 212.002,204.377 205,211 C203.515,211.495 203.515,211.495 202,212 C201.546,212.763 201.092,213.526 200.625,214.312 C196.68,220.837 188.931,224.384 182,227 C179.191,227.329 176.677,227.342 173.863,227.113 C173.248,227.076 172.634,227.039 172,227 C171.67,227.33 171.34,227.66 171,228 C152.522,230.64 133.676,228.772 118.156,217.683 C116.298,216.286 114.485,214.849 112.688,213.375 C112.13,212.92 111.572,212.465 110.997,211.996 C108.513,209.833 107.105,208.35 106.145,205.164 C106.097,204.45 106.049,203.736 106,203 C109.847,203 112.006,203.136 114.965,205.707 C116.3,207.132 117.63,208.564 118.953,210 C121.435,212.425 123.883,213.75 127.043,215.113 C129,216 129,216 131.438,217.504 C140.502,222.796 151.278,222.43 161.458,222.622 C167.01,222.75 171.749,223.156 177,225 C177.236,224.384 177.472,223.768 177.715,223.133 C179.336,220.443 180.663,219.983 183.562,218.875 C186.992,217.747 186.992,217.747 189,215 C190.651,213.974 192.32,212.977 194,212 C196.35,210.455 197.737,209.527 199,207 C200.234,204.533 201.814,203.639 204,202 C206.354,198.413 206.607,194.478 207.062,190.312 C207.876,183.124 207.876,183.124 209,182 C210.988,163.421 209.751,149.286 201.812,132.312 C200.085,128.484 199.262,125.193 199,121 C199.33,120.67 199.66,120.34 200,120 Z"/>
  <path fill="#AD3AA4" d="M123,131 C123,132.65 123,134.3 123,136 C122.34,136 121.68,136 121,136 C121.495,138.475 121.495,138.475 122,141 C121.34,141 120.68,141 120,141 C119.34,142.98 118.68,144.96 118,147 C117.34,147 116.68,147 116,147 C115.876,147.619 115.753,148.238 115.625,148.875 C115,151 115,151 113,153 C112.01,153 111.02,153 110,153 C110.062,153.846 110.124,154.691 110.188,155.562 C110,159 110,159 108.523,161.973 C106.243,167.096 106.448,172.353 106.438,177.875 C106.401,178.913 106.364,179.95 106.326,181.02 C106.284,188.386 107.785,193.606 113,199 C113.99,199.33 114.98,199.66 116,200 C116,200.66 116,201.32 116,202 C116.99,202.33 117.98,202.66 119,203 C119.699,204.316 120.367,205.65 121,207 C121.99,207.495 121.99,207.495 123,208 C123,208.99 123,209.98 123,211 C124.32,211 125.64,211 127,211 C127.33,211.66 127.66,212.32 128,213 C132.1,215.248 136.317,215.422 140.891,215.754 C143,216 143,216 144,217 C146.446,217.16 148.867,217.259 151.316,217.316 C152.047,217.337 152.779,217.358 153.532,217.379 C155.875,217.445 158.219,217.504 160.562,217.562 C162.148,217.606 163.733,217.649 165.318,217.693 C169.212,217.801 173.106,217.902 177,218 C177,217.01 177,216.02 177,215 C180.311,213.871 183.59,212.787 187,212 C187,211.01 187,210.02 187,209 C187.543,208.818 188.085,208.636 188.645,208.449 C189.36,208.198 190.075,207.946 190.812,207.688 C191.52,207.444 192.228,207.2 192.957,206.949 C195.149,205.931 196.328,204.71 198,203 C198.66,203 199.32,203 200,203 C200,202.34 200,201.68 200,201 C200.99,201 201.98,201 203,201 C203.289,200.237 203.577,199.474 203.875,198.688 C205,196 205,196 207,193 C207.567,197.822 205.921,200.245 203,204 C202.01,204.66 201.02,205.32 200,206 C199.598,206.897 199.598,206.897 199.188,207.812 C197.391,211.122 195.036,212.77 192,215 C191.01,215 190.02,215 189,215 C188.67,215.99 188.34,216.98 188,218 C186.004,219.062 186.004,219.062 183.562,220 C180.025,221.363 179.193,221.711 177,225 C174.196,225.244 171.819,225.215 169.09,224.498 C166.82,223.957 164.768,223.841 162.438,223.789 C138.805,223.079 138.805,223.079 129,217 C127.734,216.426 126.463,215.863 125.188,215.312 C121.755,213.657 119.575,211.673 117,208.875 C113.176,204.778 110.408,204.044 105,203 C104.67,202.01 104.34,201.02 104,200 C103.01,199.67 102.02,199.34 101,199 C100.086,197.188 100.086,197.188 99.375,195 C98.589,192.257 98.589,192.257 97,190 C94.612,189.877 92.249,189.814 89.859,189.789 C88.382,189.761 86.904,189.732 85.426,189.703 C83.091,189.662 80.756,189.625 78.421,189.599 C76.171,189.571 73.922,189.525 71.672,189.477 C70.979,189.473 70.286,189.47 69.572,189.467 C65.228,189.357 62.517,188.559 59,186 C59.99,185.505 59.99,185.505 61,185 C61,184.34 61,183.68 61,183 C76.909,182.824 76.909,182.824 83.973,183.773 C88.756,184.308 93.417,184.528 98,183 C98.039,181.225 98.039,181.225 98.078,179.414 C98.362,170.493 98.902,163.078 103,155 C103.287,154.27 103.575,153.541 103.871,152.789 C106.959,144.965 113.804,131 123,131 Z"/>
  <path fill="#CCDB39" d="M99.312,15.688 C100.278,15.65 101.244,15.613 102.238,15.574 C105.864,16.133 106.787,17.094 109,20 C109.406,22.657 109.581,24.918 109.574,27.574 C109.588,28.299 109.603,29.023 109.617,29.769 C109.659,32.076 109.674,34.381 109.688,36.688 C109.717,39.004 109.751,41.321 109.79,43.638 C109.813,45.078 109.828,46.518 109.837,47.958 C109.586,51.262 109.586,51.262 111,54 C111.041,55.666 111.043,57.334 111,59 C109.35,59 107.7,59 106,59 C105.01,56.03 104.02,53.06 103,50 C98.38,50 93.76,50 89,50 C88.34,51.32 87.68,52.64 87,54 C85,56.75 85,56.75 83,59 C82.34,59 81.68,59 81,59 C80.738,59.594 80.477,60.189 80.207,60.801 C77.797,65.191 73.841,68.452 69.062,69.875 C68.382,69.916 67.701,69.958 67,70 C67,70.66 67,71.32 67,72 C64.125,72.125 64.125,72.125 61,72 C60.34,71.34 59.68,70.68 59,70 C60.479,66.01 62.518,64.876 66.25,63 C69.473,61.336 72.59,59.705 75.562,57.625 C78,56 78,56 80,56 C80.247,55.381 80.495,54.763 80.75,54.125 C82.206,51.649 83.378,51.049 86,50 C86,49.01 86,48.02 86,47 C86.067,44.86 86.141,42.721 86.219,40.582 C86.264,39.328 86.309,38.075 86.355,36.783 C86.427,34.818 86.427,34.818 86.5,32.812 C86.548,31.477 86.596,30.142 86.645,28.807 C86.763,25.538 86.881,22.269 87,19 C88.454,18.536 88.454,18.536 89.938,18.062 C96.585,15.756 96.585,15.756 99.312,15.688 Z"/>
  <path fill="#85525F" d="M112,60 C125.14,67.589 133.926,77.714 141,91 C141,91.99 141,92.98 141,94 C141.66,94 142.32,94 143,94 C144.349,96.367 145.679,98.742 147,101.125 C147.382,101.79 147.763,102.455 148.156,103.141 C150.424,107.272 151.483,110.158 151,115 C151.785,114.555 151.785,114.555 152.586,114.102 C160.698,110.4 170.178,109.451 179,110 C179.33,107.69 179.66,105.38 180,103 C180.66,103 181.32,103 182,103 C182.371,101.67 182.371,101.67 182.75,100.312 C184.14,96.628 184.943,94.522 188,92 C191.512,91.614 194.685,91.749 198,93 C201.848,97.257 201.354,101.908 201.188,107.312 C201.167,108.566 201.167,108.566 201.146,109.846 C201.111,111.897 201.058,113.949 201,116 C199.515,116.495 199.515,116.495 198,117 C196.515,116.01 196.515,116.01 195,115 C194.659,112.845 194.659,112.845 194.707,110.211 C194.717,109.27 194.726,108.329 194.736,107.359 C194.761,106.375 194.787,105.39 194.812,104.375 C194.826,103.382 194.84,102.39 194.854,101.367 C194.889,98.911 194.938,96.456 195,94 C194.01,94 193.02,94 192,94 C191.711,94.784 191.423,95.568 191.125,96.375 C190,99 190,99 188,101 C187.602,102.988 187.262,104.989 187,107 C186.01,107 185.02,107 184,107 C183.67,107.99 183.34,108.98 183,110 C181.35,110.33 179.7,110.66 178,111 C177.899,111.626 177.799,112.253 177.695,112.898 C177,115 177,115 173.875,116.625 C168.598,118.403 163.103,118.829 157.586,119.375 C153.884,120.02 151.3,121.26 148,123 C147.01,123 146.02,123 145,123 C145,123.66 145,124.32 145,125 C141.218,126.837 139.054,127.158 135,126 C135.188,123.688 135.188,123.688 136,121 C139.611,118.008 142.396,117.679 147,118 C147,117.01 147,116.02 147,115 C146.34,115 145.68,115 145,115 C143.821,112.22 142.885,109.555 142.125,106.625 C140.906,102.697 139.146,99.467 137,96 C135.913,94.231 134.83,92.46 133.75,90.688 C133.229,89.846 132.708,89.004 132.172,88.137 C131,86 131,86 131,84 C129.68,83.34 128.36,82.68 127,82 C127,81.34 127,80.68 127,80 C126.34,80 125.68,80 125,80 C123.311,78.356 121.647,76.686 120,75 C119.113,74.299 118.226,73.598 117.312,72.875 C115,71 115,71 113,68 C112.01,67.67 111.02,67.34 110,67 C109.875,64.625 109.875,64.625 110,62 C110.66,61.34 111.32,60.68 112,60 Z"/>
  <path fill="#896762" d="M54,69 C55.32,69.66 56.64,70.32 58,71 C58,72.32 58,73.64 58,75 C56.68,75 55.36,75 54,75 C54,75.66 54,76.32 54,77 C53.01,77.33 52.02,77.66 51,78 C49.732,79.463 49.732,79.463 48.625,81.25 C45.499,85.822 42.25,89.861 37,92 C37,92.99 37,93.98 37,95 C35.125,97.188 35.125,97.188 33,99 C32.34,99 31.68,99 31,99 C30.814,99.99 30.629,100.98 30.438,102 C29.055,106.934 25.743,110.601 22,114 C21.34,114 20.68,114 20,114 C20.023,114.626 20.046,115.253 20.07,115.898 C20.097,117.124 20.097,117.124 20.125,118.375 C20.148,119.187 20.171,119.999 20.195,120.836 C20,123 20,123 18,125 C17.721,128.11 17.721,128.11 17.805,131.758 C17.808,132.421 17.81,133.084 17.813,133.767 C17.824,135.887 17.85,138.006 17.875,140.125 C17.885,141.561 17.894,142.997 17.902,144.434 C17.924,147.956 17.959,151.478 18,155 C17.34,155 16.68,155 16,155 C16,155.66 16,156.32 16,157 C14.35,156.67 12.7,156.34 11,156 C7.494,143.628 7.428,127.138 13.16,115.449 C13.437,114.971 13.714,114.493 14,114 C14.99,114 15.98,114 17,114 C17,112.35 17,110.7 17,109 C18.485,108.505 18.485,108.505 20,108 C20.725,106.358 21.378,104.684 22,103 C26.582,94.175 32.988,86.834 39.562,79.438 C40.375,78.489 40.375,78.489 41.205,77.521 C45.226,73.091 45.226,73.091 49.402,72.598 C50.26,72.73 51.117,72.863 52,73 C52.66,71.68 53.32,70.36 54,69 Z"/>
  <path fill="#804C58" d="M123,131 C123,132.65 123,134.3 123,136 C122.34,136 121.68,136 121,136 C121,137.32 121,138.64 121,140 C120.443,140.206 119.886,140.413 119.312,140.625 C115.225,143.055 112.495,146.514 111,151 C110.01,151 109.02,151 108,151 C105.876,154.541 105.535,157.95 105,162 C104.505,162.495 104.505,162.495 104,163 C103.842,164.998 103.749,167.001 103.684,169.004 C103.621,170.826 103.621,170.826 103.557,172.686 C103.517,173.965 103.478,175.244 103.438,176.562 C103.373,178.487 103.373,178.487 103.307,180.451 C103.2,183.634 103.098,186.817 103,190 C102.01,190 101.02,190 100,190 C99.505,190.99 99.505,190.99 99,192 C98.34,191.34 97.68,190.68 97,190 C94.553,189.791 92.21,189.699 89.762,189.691 C88.287,189.666 86.812,189.641 85.338,189.615 C83.014,189.587 80.69,189.563 78.366,189.544 C76.123,189.522 73.88,189.483 71.637,189.441 C70.947,189.441 70.257,189.441 69.547,189.441 C65.204,189.352 62.513,188.558 59,186 C59.99,185.505 59.99,185.505 61,185 C61,184.34 61,183.68 61,183 C76.909,182.824 76.909,182.824 83.973,183.773 C88.756,184.308 93.417,184.528 98,183 C98.039,181.225 98.039,181.225 98.078,179.414 C98.362,170.493 98.902,163.078 103,155 C103.287,154.27 103.575,153.541 103.871,152.789 C106.959,144.965 113.804,131 123,131 Z"/>
  <path fill="#A22E9A" d="M200,120 C200.99,120 201.98,120 203,120 C204.379,121.661 204.379,121.661 205.777,123.988 C206.289,124.835 206.801,125.682 207.329,126.554 C207.86,127.464 208.391,128.375 208.938,129.312 C209.477,130.228 210.017,131.143 210.573,132.086 C219.659,147.774 219.659,147.774 219,157 C219.206,157.846 219.413,158.691 219.625,159.562 C220.103,162.67 219.337,164.185 218,167 C216.7,169.906 215.986,172.123 215.625,175.312 C214.971,179.17 213.747,181.734 211.922,185.133 C210.814,187.377 210.31,189.523 210,192 C209.34,192 208.68,192 208,192 C207.973,190.521 207.954,189.042 207.938,187.562 C207.926,186.739 207.914,185.915 207.902,185.066 C208,183 208,183 209,182 C210.988,163.421 209.751,149.286 201.812,132.312 C200.085,128.484 199.262,125.193 199,121 C199.33,120.67 199.66,120.34 200,120 Z"/>
  <path fill="#865F56" d="M87,27 C88.666,26.957 90.334,26.959 92,27 C93.948,28.948 93.185,32.536 93.188,35.188 C93.202,36.501 93.216,37.815 93.23,39.168 C93,43 93,43 91,49 C95.29,49 99.58,49 104,49 C104,47.35 104,45.7 104,44 C104.66,43.34 105.32,42.68 106,42 C106.99,42 107.98,42 109,42 C109.061,42.782 109.121,43.565 109.184,44.371 C109.267,45.383 109.351,46.395 109.438,47.438 C109.519,48.447 109.6,49.456 109.684,50.496 C109.732,52.936 109.732,52.936 111,54 C111.041,55.666 111.043,57.334 111,59 C109.35,59 107.7,59 106,59 C105.01,56.03 104.02,53.06 103,50 C98.38,50 93.76,50 89,50 C88.34,51.32 87.68,52.64 87,54 C85,56.75 85,56.75 83,59 C82.34,59 81.68,59 81,59 C80.738,59.594 80.477,60.189 80.207,60.801 C77.797,65.191 73.841,68.452 69.062,69.875 C68.382,69.916 67.701,69.958 67,70 C67,70.66 67,71.32 67,72 C64.125,72.125 64.125,72.125 61,72 C60.34,71.34 59.68,70.68 59,70 C60.479,66.01 62.518,64.876 66.25,63 C69.473,61.336 72.59,59.705 75.562,57.625 C78,56 78,56 80,56 C80.247,55.381 80.495,54.763 80.75,54.125 C82.206,51.649 83.378,51.049 86,50 C86,49.01 86,48.02 86,47 C86.066,45.444 86.139,43.888 86.219,42.332 C86.286,40.993 86.286,40.993 86.355,39.627 C86.403,38.698 86.451,37.769 86.5,36.812 C86.572,35.402 86.572,35.402 86.645,33.963 C86.762,31.642 86.881,29.321 87,27 Z"/>
  <path fill="#865B5C" d="M106,203 C110.192,202.911 112.138,203.291 115.434,206 C121.557,212.113 121.557,212.113 123,215 C123.99,215.33 124.98,215.66 126,216 C126,216.66 126,217.32 126,218 C126.784,217.959 127.567,217.917 128.375,217.875 C131,218 131,218 133,220 C135.069,220.643 135.069,220.643 137,221 C137,221.66 137,222.32 137,223 C145.25,223.33 153.5,223.66 162,224 C162,224.99 162,225.98 162,227 C162.66,227.33 163.32,227.66 164,228 C155.794,232.103 140.386,228.11 132.027,225.348 C124.801,222.529 118.64,218.257 112.688,213.375 C112.13,212.92 111.572,212.465 110.997,211.996 C108.513,209.833 107.105,208.35 106.145,205.164 C106.097,204.45 106.049,203.736 106,203 Z"/>
  <path fill="#88625C" d="M200,120 C200.99,120 201.98,120 203,120 C204.379,121.661 204.379,121.661 205.777,123.988 C206.29,124.835 206.802,125.682 207.329,126.554 C207.86,127.464 208.391,128.375 208.938,129.312 C209.477,130.228 210.016,131.143 210.571,132.086 C219.264,147.111 219.264,147.111 218.75,154.688 C218.503,155.451 218.255,156.214 218,157 C214.036,155.248 212.458,153.96 210.559,149.98 C209.7,147.697 208.872,145.401 208.078,143.094 C206.614,138.172 206.614,138.172 203,135 C200.548,130.668 198.207,126.074 199,121 C199.33,120.67 199.66,120.34 200,120 Z"/>
  <path fill="#A64598" d="M195,94 C194.999,94.615 194.998,95.23 194.997,95.864 C195.009,98.661 195.066,101.454 195.125,104.25 C195.122,105.218 195.12,106.186 195.117,107.184 C195.083,112.273 195.083,112.273 197.394,116.564 C199.199,117.834 199.199,117.834 202,119 C201.34,119.66 200.68,120.32 200,121 C200.252,124.397 200.593,127.187 202.125,130.25 C202.414,130.827 202.702,131.405 203,132 C202.67,132.99 202.34,133.98 202,135 C196.387,129.772 194.058,125.262 192.605,117.734 C192.029,115.129 191.504,113.202 190,111 C186.438,110.181 186.438,110.181 183,110 C183.33,109.01 183.66,108.02 184,107 C184.99,107 185.98,107 187,107 C186.897,106.154 186.794,105.309 186.688,104.438 C187.145,99.401 189.462,94 195,94 Z"/>
  <path fill="#926E6F" d="M195.66,92.117 C198,93 198,93 199.797,94.988 C201.465,99.164 201.324,102.865 201.188,107.312 C201.167,108.566 201.167,108.566 201.146,109.846 C201.111,111.897 201.058,113.949 201,116 C200.01,116.33 199.02,116.66 198,117 C197.01,116.34 196.02,115.68 195,115 C194.659,112.845 194.659,112.845 194.707,110.211 C194.717,109.27 194.726,108.329 194.736,107.359 C194.761,106.375 194.787,105.39 194.812,104.375 C194.833,102.886 194.833,102.886 194.854,101.367 C194.889,98.911 194.938,96.456 195,94 C194.01,94 193.02,94 192,94 C191.567,95.176 191.567,95.176 191.125,96.375 C190,99 190,99 188,101 C187.352,103.571 187.352,103.571 187,106 C185.68,106 184.36,106 183,106 C182.67,106.99 182.34,107.98 182,109 C181.01,109 180.02,109 179,109 C179.33,107.02 179.66,105.04 180,103 C180.66,103 181.32,103 182,103 C182.247,102.113 182.495,101.226 182.75,100.312 C185.582,92.808 187.887,91.393 195.66,92.117 Z"/>
  <path fill="#F06A88" d="M118,164 C118.33,164 118.66,164 119,164 C119,170.93 119,177.86 119,185 C119.66,185 120.32,185 121,185 C121,187.31 121,189.62 121,192 C121.66,192 122.32,192 123,192 C124.014,193.658 125.011,195.327 126,197 C129.384,201.085 132.711,202.632 137.988,203.223 C142.493,203.418 145.579,203.006 149,200 C149.887,197.409 149.887,197.409 150,195 C151.98,195 153.96,195 156,195 C156,196.65 156,198.3 156,200 C156.99,200 157.98,200 159,200 C159.928,201.454 159.928,201.454 160.875,202.938 C162.63,206.137 162.63,206.137 165.242,206.695 C173.959,207.658 181.15,206.883 188.195,201.473 C188.791,200.987 189.386,200.501 190,200 C190.99,199.34 191.98,198.68 193,198 C193,199.32 193,200.64 193,202 C192.113,202.433 191.226,202.866 190.312,203.312 C187.095,204.875 187.095,204.875 184.625,206.562 C179.17,209.55 172.191,211.188 166,210 C162.83,208.581 159.912,206.888 157,205 C157,204.34 157,203.68 157,203 C156.34,203 155.68,203 155,203 C154.845,202.041 154.845,202.041 154.688,201.062 C154.461,200.382 154.234,199.701 154,199 C153.01,198.67 152.02,198.34 151,198 C150.907,198.897 150.907,198.897 150.812,199.812 C149.644,202.957 147.966,203.534 145,205 C138.477,205.999 132.31,205.575 126.559,202.215 C124.302,200.456 123.103,198.619 122,196 C122,195.34 122,194.68 122,194 C121.34,194 120.68,194 120,194 C117.062,184.453 115.018,173.811 118,164 Z"/>
  <path fill="#84674E" d="M99.312,15.688 C100.278,15.65 101.244,15.613 102.238,15.574 C105,16 105,16 107.34,17.41 C109.89,21.388 109.427,25.135 109.25,29.75 C109.232,30.638 109.214,31.526 109.195,32.441 C109.148,34.629 109.083,36.814 109,39 C107.35,38.34 105.7,37.68 104,37 C104.33,35.35 104.66,33.7 105,32 C104.34,32 103.68,32 103,32 C102.67,29.03 102.34,26.06 102,23 C99.03,22.67 96.06,22.34 93,22 C92.34,23.32 91.68,24.64 91,26 C90.01,26 89.02,26 88,26 C87.67,23.69 87.34,21.38 87,19 C88.454,18.536 88.454,18.536 89.938,18.062 C96.585,15.756 96.585,15.756 99.312,15.688 Z"/>
  <path fill="#82505B" d="M26,161 C27.068,162.965 28.066,164.969 29,167 C31.519,169.356 33.613,170.395 37,171 C37,171.66 37,172.32 37,173 C37.557,173.124 38.114,173.247 38.688,173.375 C41.221,174.06 43.579,174.991 46,176 C46,176.66 46,177.32 46,178 C46.66,178 47.32,178 48,178 C48.33,179.32 48.66,180.64 49,182 C43.788,183.464 41.367,182.137 36.762,179.652 C29.218,175.139 22.473,170.712 18,163 C18,162.34 18,161.68 18,161 C21.387,159.871 22.682,159.756 26,161 Z"/>
  <path fill="#AC429E" d="M119,140 C119.99,140.33 120.98,140.66 122,141 C121.34,141 120.68,141 120,141 C119.34,142.98 118.68,144.96 118,147 C117.34,147 116.68,147 116,147 C115.876,147.619 115.753,148.238 115.625,148.875 C115,151 115,151 113,153 C112.01,153 111.02,153 110,153 C110.062,154.33 110.062,154.33 110.125,155.688 C110,159.003 109.507,161.07 108,164 C107.34,164.33 106.68,164.66 106,165 C105.975,165.777 105.95,166.554 105.924,167.355 C105.808,170.862 105.686,174.368 105.562,177.875 C105.504,179.71 105.504,179.71 105.443,181.582 C105.401,182.749 105.36,183.915 105.316,185.117 C105.261,186.735 105.261,186.735 105.205,188.386 C105,191 105,191 104,193 C104.66,193 105.32,193 106,193 C105.67,195.31 105.34,197.62 105,200 C103.062,199.625 103.062,199.625 101,199 C99.522,196.043 99.94,193.258 100,190 C100.99,190 101.98,190 103,190 C102.995,189.187 102.99,188.375 102.984,187.537 C102.963,183.879 102.95,180.221 102.938,176.562 C102.925,174.643 102.925,174.643 102.912,172.686 C102.909,171.471 102.906,170.256 102.902,169.004 C102.897,167.878 102.892,166.752 102.886,165.592 C103,163 103,163 104,162 C104.186,160.36 104.186,160.36 104.375,158.688 C104.984,155.097 105.41,153.49 108,151 C108.99,151 109.98,151 111,151 C111.093,150.196 111.093,150.196 111.188,149.375 C112.523,145.47 115.263,141.868 119,140 Z"/>
  <path fill="#834B5D" d="M15,117 C15.99,117 16.98,117 18,117 C17.856,118.128 17.711,119.256 17.562,120.418 C16.088,132.66 15.779,144.678 16,157 C14.35,156.67 12.7,156.34 11,156 C8.275,145.98 9.217,136.216 10,126 C10.66,126 11.32,126 12,126 C12.99,123.03 13.98,120.06 15,117 Z"/>
  <path fill="#995579" d="M23,104 C23.33,105.32 23.66,106.64 24,108 C24.66,108 25.32,108 26,108 C26,107.34 26,106.68 26,106 C26.66,106.33 27.32,106.66 28,107 C27.049,108.173 26.089,109.338 25.125,110.5 C24.324,111.475 24.324,111.475 23.508,112.469 C23.01,112.974 22.513,113.479 22,114 C21.34,114 20.68,114 20,114 C20.023,114.626 20.046,115.253 20.07,115.898 C20.097,117.124 20.097,117.124 20.125,118.375 C20.148,119.187 20.171,119.999 20.195,120.836 C20,123 20,123 18,125 C17.721,128.11 17.721,128.11 17.805,131.758 C17.808,132.421 17.81,133.084 17.813,133.767 C17.824,135.887 17.85,138.006 17.875,140.125 C17.885,141.561 17.894,142.997 17.902,144.434 C17.924,147.956 17.959,151.478 18,155 C17.34,155 16.68,155 16,155 C14.15,142.741 13.686,128.733 18,117 C17.01,117 16.02,117 15,117 C14.876,118.073 14.752,119.145 14.625,120.25 C14.104,123.379 13.599,125.335 12,128 C12,127.34 12,126.68 12,126 C11.34,126 10.68,126 10,126 C11.485,120.555 11.485,120.555 13,115 C14.32,114.67 15.64,114.34 17,114 C17,112.35 17,110.7 17,109 C17.99,108.67 18.98,108.34 20,108 C20,107.34 20,106.68 20,106 C20.99,105.34 21.98,104.68 23,104 Z"/>
  <path fill="#B1539C" d="M190,110 C193.883,113.641 194.159,119.904 195,125 C194.34,124.67 193.68,124.34 193,124 C192.375,120.938 192.375,120.938 192,118 C191.34,118 190.68,118 190,118 C190,116.02 190,114.04 190,112 C188.02,112 186.04,112 184,112 C183.67,112.99 183.34,113.98 183,115 C179.71,117.217 176.105,117.638 172.25,118.312 C166.544,119.383 160.99,120.74 155.438,122.438 C154.784,122.631 154.13,122.824 153.456,123.023 C149.09,124.4 145.763,126.443 142,129 C138.125,129.75 138.125,129.75 135,130 C135.33,129.34 135.66,128.68 136,128 C138.066,127.367 138.066,127.367 140.562,126.875 C141.389,126.707 142.215,126.54 143.066,126.367 C143.704,126.246 144.343,126.125 145,126 C145,125.01 145,124.02 145,123 C151.641,119.292 157.95,118.351 165.449,117.492 C169.773,116.893 173.103,115.948 177,114 C177.33,113.01 177.66,112.02 178,111 C181.715,109.142 185.953,109.434 190,110 Z"/>
  <path fill="#993488" d="M105,146 C105.66,146.33 106.32,146.66 107,147 C106.024,149.814 105.045,152.626 104.062,155.438 C103.785,156.24 103.507,157.042 103.221,157.869 C102.819,159.015 102.819,159.015 102.41,160.184 C102.164,160.891 101.918,161.598 101.664,162.326 C101,164 101,164 100,165 C99.844,166.34 99.75,167.688 99.684,169.035 C99.621,170.248 99.621,170.248 99.557,171.486 C99.517,172.336 99.478,173.187 99.438,174.062 C99.373,175.344 99.373,175.344 99.307,176.65 C99.2,178.767 99.1,180.883 99,183 C91.45,187.249 80.755,184.681 72.438,184 C71.238,183.905 70.039,183.809 68.803,183.711 C65.868,183.477 62.934,183.24 60,183 C60,182.67 60,182.34 60,182 C72.21,182 84.42,182 97,182 C97,175.4 97,168.8 97,162 C97.66,161.67 98.32,161.34 99,161 C99.309,159.907 99.619,158.814 99.938,157.688 C100.926,154.255 101.85,152.711 104,150 C104.705,147.853 104.705,147.853 105,146 Z"/>
  <path fill="#7D5550" d="M135,82 C141,89.2 141,89.2 141,94 C141.66,94 142.32,94 143,94 C144.346,96.389 145.677,98.785 147,101.188 C147.382,101.861 147.763,102.535 148.156,103.229 C150.191,106.952 151.543,109.629 151,114 C149.35,113.67 147.7,113.34 146,113 C146,111.35 146,109.7 146,108 C145.01,108 144.02,108 143,108 C142.587,106.783 142.175,105.566 141.75,104.312 C140.681,101.406 139.812,99.769 137.812,97.312 C135.665,94.573 135.643,93.39 136,90 C136,87.16 135.597,84.763 135,82 Z"/>
  <path fill="#AF41A3" d="M106,164 C107.287,166.575 107.02,168.255 106.887,171.129 C106.856,172.165 106.826,173.2 106.795,174.268 C106.724,176.438 106.634,178.607 106.521,180.775 C106.365,187.64 107.336,191.795 111.406,197.371 C113.008,199.257 113.008,199.257 116,200 C116,200.66 116,201.32 116,202 C116.99,202.33 117.98,202.66 119,203 C119.699,204.316 120.367,205.65 121,207 C121.66,207.33 122.32,207.66 123,208 C122.67,208.66 122.34,209.32 122,210 C120.728,209.378 119.457,208.752 118.188,208.125 C117.126,207.603 117.126,207.603 116.043,207.07 C114,206 114,206 111,204 C109.01,203.61 107.01,203.268 105,203 C105.33,199.7 105.66,196.4 106,193 C105.34,193 104.68,193 104,193 C104.118,189.03 104.242,185.061 104.372,181.092 C104.416,179.741 104.457,178.39 104.497,177.038 C104.555,175.1 104.619,173.161 104.684,171.223 C104.72,170.055 104.757,168.887 104.795,167.684 C105,165 105,165 106,164 Z"/>
  <path fill="#835D57" d="M61,183 C66.28,183 71.56,183 77,183 C76.01,183.66 75.02,184.32 74,185 C75.683,186.683 77.82,186.228 80.129,186.316 C81.681,186.379 81.681,186.379 83.264,186.443 C84.352,186.483 85.441,186.522 86.562,186.562 C87.655,186.606 88.747,186.649 89.873,186.693 C92.582,186.8 95.291,186.902 98,187 C98,186.34 98,185.68 98,185 C98.99,185.33 99.98,185.66 101,186 C100.67,187.98 100.34,189.96 100,192 C99.01,191.34 98.02,190.68 97,190 C94.521,189.796 92.144,189.699 89.664,189.691 C88.193,189.666 86.721,189.641 85.25,189.615 C82.937,189.587 80.624,189.562 78.312,189.544 C76.075,189.522 73.838,189.483 71.602,189.441 C70.915,189.441 70.228,189.441 69.521,189.441 C65.188,189.352 62.506,188.55 59,186 C59.66,185.67 60.32,185.34 61,185 C61,184.34 61,183.68 61,183 Z"/>
  <path fill="#A13594" d="M116,207 C123.818,209.545 123.818,209.545 127,211 C127.33,211.66 127.66,212.32 128,213 C132.419,215.348 137.099,215.594 142,216 C142,216.99 142,217.98 142,219 C143.98,219 145.96,219 148,219 C148.495,220.485 148.495,220.485 149,222 C155.93,222 162.86,222 170,222 C166.802,224.132 166.168,224.236 162.535,224.082 C161.658,224.046 160.781,224.01 159.877,223.973 C158.948,223.92 158.019,223.867 157.062,223.812 C156.117,223.762 155.171,223.712 154.197,223.66 C145.016,223.082 136.902,221.901 129,217 C127.672,216.384 126.339,215.779 125,215.188 C120.851,213.168 118.696,210.707 116,207 Z"/>
  <path fill="#B7B841" d="M93,21 C95.031,21.086 95.031,21.086 97.5,21.375 C98.315,21.465 99.129,21.555 99.969,21.648 C102,22 102,22 103,23 C103.072,24.519 103.084,26.042 103.062,27.562 C103.053,28.389 103.044,29.215 103.035,30.066 C103.024,30.704 103.012,31.343 103,32 C103.66,32 104.32,32 105,32 C104.67,33.65 104.34,35.3 104,37 C105.65,37.66 107.3,38.32 109,39 C109,39.99 109,40.98 109,42 C108.361,42.227 107.721,42.454 107.062,42.688 C106.382,43.121 105.701,43.554 105,44 C104.67,45.65 104.34,47.3 104,49 C99.71,49 95.42,49 91,49 C91.33,47.02 91.66,45.04 92,43 C92.067,40.364 92.096,37.759 92.062,35.125 C92.058,34.437 92.053,33.748 92.049,33.039 C92.037,31.359 92.019,29.68 92,28 C90.35,27.67 88.7,27.34 87,27 C88.32,26.67 89.64,26.34 91,26 C91.144,25.361 91.289,24.721 91.438,24.062 C92,22 92,22 93,21 Z M93,23 C92.67,23.66 92.34,24.32 92,25 C92.66,25 93.32,25 94,25 C94,32.59 94,40.18 94,48 C96.64,48 99.28,48 102,48 C102.124,47.031 102.247,46.061 102.375,45.062 C102.581,44.052 102.787,43.041 103,42 C103.66,41.67 104.32,41.34 105,41 C105,40.34 105,39.68 105,39 C104.34,38.67 103.68,38.34 103,38 C102.688,35.451 102.487,32.996 102.375,30.438 C102.336,29.727 102.298,29.016 102.258,28.283 C102.163,26.523 102.081,24.761 102,23 C99.03,23 96.06,23 93,23 Z"/>
  <path fill="#7E604A" d="M87,27 C88.666,26.957 90.334,26.959 92,27 C93.965,28.965 93.185,32.635 93.188,35.312 C93.2,35.99 93.212,36.667 93.225,37.365 C93.235,41.045 93.184,43.949 91,47 C88.875,47.75 88.875,47.75 87,48 C86.175,45.166 85.921,42.831 86.121,39.891 C86.169,39.137 86.218,38.382 86.268,37.605 C86.324,36.828 86.38,36.051 86.438,35.25 C86.49,34.457 86.542,33.664 86.596,32.848 C86.725,30.898 86.862,28.949 87,27 Z"/>
  <path fill="#8E665F" d="M211,195 C211.33,195 211.66,195 212,195 C212.857,200.57 210.69,203.612 207.703,208.047 C205.908,210.106 204.439,210.859 202,212 C200.994,213.663 199.994,215.33 199,217 C195.478,220.427 192.883,221.546 188,222 C188.495,220.515 188.495,220.515 189,219 C189.99,219 190.98,219 192,219 C192,218.34 192,217.68 192,217 C193.32,217 194.64,217 196,217 C196.33,216.01 196.66,215.02 197,214 C197.66,214 198.32,214 199,214 C199,213.01 199,212.02 199,211 C198.01,210.67 197.02,210.34 196,210 C196.66,209.67 197.32,209.34 198,209 C198.66,208.01 199.32,207.02 200,206 C200,206.99 200,207.98 200,209 C200.99,208.67 201.98,208.34 203,208 C203.33,207.01 203.66,206.02 204,205 C205.438,203.312 205.438,203.312 207,202 C207.66,202 208.32,202 209,202 C209.144,201.031 209.289,200.061 209.438,199.062 C210,196 210,196 211,195 Z"/>
  <path fill="#943A7F" d="M54,69 C55.32,69.66 56.64,70.32 58,71 C58,72.32 58,73.64 58,75 C56.68,75 55.36,75 54,75 C54,75.66 54,76.32 54,77 C53.01,77.33 52.02,77.66 51,78 C49.732,79.463 49.732,79.463 48.625,81.25 C45.499,85.822 42.25,89.861 37,92 C37,92.99 37,93.98 37,95 C35.125,97.188 35.125,97.188 33,99 C32.34,99 31.68,99 31,99 C30.34,101.31 29.68,103.62 29,106 C28.67,106 28.34,106 28,106 C27.625,102.646 27.857,101.228 29.68,98.324 C30.404,97.454 31.129,96.584 31.875,95.688 C32.954,94.363 32.954,94.363 34.055,93.012 C34.697,92.348 35.339,91.684 36,91 C36.66,91 37.32,91 38,91 C38,90.01 38,89.02 38,88 C39.621,86.611 41.297,85.287 43,84 C47.115,80.643 47.115,80.643 48.312,75.688 C48.209,74.801 48.106,73.914 48,73 C49.32,73 50.64,73 52,73 C52.66,71.68 53.32,70.36 54,69 Z"/>
  <path fill="#85605E" d="M219,165 C221,167 221,167 221.266,169.496 C221.26,170.467 221.255,171.437 221.25,172.438 C221.255,173.406 221.26,174.374 221.266,175.371 C221,178 221,178 219,181 C218.691,182.031 218.381,183.062 218.062,184.125 C217.712,185.074 217.361,186.022 217,187 C216.01,187.33 215.02,187.66 214,188 C213.121,181.848 213.121,181.848 213,180 C213.33,179.67 213.66,179.34 214,179 C214.496,176.229 214.9,173.45 215.305,170.664 C216.041,167.844 216.763,166.797 219,165 Z"/>
  <path fill="#894369" d="M123,131 C123,132.65 123,134.3 123,136 C122.34,136 121.68,136 121,136 C121,137.32 121,138.64 121,140 C120.443,140.206 119.886,140.413 119.312,140.625 C115.225,143.055 112.495,146.514 111,151 C110.34,150.67 109.68,150.34 109,150 C109.99,148.02 110.98,146.04 112,144 C111.01,143.67 110.02,143.34 109,143 C110.102,141.56 111.206,140.123 112.312,138.688 C112.927,137.887 113.542,137.086 114.176,136.262 C118.42,131 118.42,131 123,131 Z"/>
  <path fill="#F06988" d="M118,164 C118.33,164 118.66,164 119,164 C119,170.93 119,177.86 119,185 C119.66,185 120.32,185 121,185 C121,187.31 121,189.62 121,192 C121.66,192 122.32,192 123,192 C124.014,193.658 125.011,195.327 126,197 C128.968,200.582 131.467,201.954 136,203 C138.693,203.153 141.296,203.089 144,203 C144.99,203 145.98,203 147,203 C144.365,205.635 143.048,205.329 139.375,205.375 C133.78,205.274 129.469,204.483 125,201 C122,197.062 122,197.062 122,194 C121.34,194 120.68,194 120,194 C117.062,184.453 115.018,173.811 118,164 Z"/>
  <path fill="#8E5C58" d="M26,161 C26.33,162.32 26.66,163.64 27,165 C25.68,164.34 24.36,163.68 23,163 C22.67,163.66 22.34,164.32 22,165 C22.99,165.33 23.98,165.66 25,166 C25,166.66 25,167.32 25,168 C25.66,168 26.32,168 27,168 C27,168.66 27,169.32 27,170 C27.784,170.309 28.568,170.619 29.375,170.938 C32,172 32,172 34,173 C34,173.66 34,174.32 34,175 C34.577,175.124 35.155,175.247 35.75,175.375 C38.023,176.006 39.925,176.889 42,178 C42,178.66 42,179.32 42,180 C34.013,179.156 27.342,174.546 21.891,168.762 C18,163.695 18,163.695 18,161 C21.29,159.903 22.713,160.2 26,161 Z"/>
  <path fill="#83505D" d="M110,62 C112.475,62.99 112.475,62.99 115,64 C115,64.66 115,65.32 115,66 C117.475,66.99 117.475,66.99 120,68 C120,68.66 120,69.32 120,70 C120.66,70 121.32,70 122,70 C122,70.66 122,71.32 122,72 C122.99,72 123.98,72 125,72 C125.864,73.62 126.716,75.246 127.562,76.875 C128.038,77.78 128.514,78.685 129.004,79.617 C129.333,80.404 129.661,81.19 130,82 C129.67,82.66 129.34,83.32 129,84 C128.34,82.68 127.68,81.36 127,80 C126.34,80 125.68,80 125,80 C123.311,78.356 121.647,76.686 120,75 C119.113,74.299 118.226,73.598 117.312,72.875 C115,71 115,71 113,68 C112.01,67.67 111.02,67.34 110,67 C110,65.35 110,63.7 110,62 Z"/>
  <path fill="#865952" d="M12,132 C12.33,132 12.66,132 13,132 C13,137.28 13,142.56 13,148 C13.99,148.33 14.98,148.66 16,149 C16,151.64 16,154.28 16,157 C14.35,156.67 12.7,156.34 11,156 C9.364,148.889 8.333,142.208 10,135 C10.66,134.01 11.32,133.02 12,132 Z"/>
  <path fill="#825157" d="M46,73 C46.66,73 47.32,73 48,73 C48.688,75.812 48.688,75.812 49,79 C47.688,80.875 47.688,80.875 46,82 C45.34,82 44.68,82 44,82 C43.752,82.619 43.505,83.238 43.25,83.875 C41.794,86.351 40.622,86.951 38,88 C38,88.99 38,89.98 38,91 C36.379,92.711 34.705,94.373 33,96 C30.026,99.305 28.509,101.548 28,106 C27.34,106 26.68,106 26,106 C25.67,106.66 25.34,107.32 25,108 C25,106.02 25,104.04 25,102 C25.66,102 26.32,102 27,102 C27.124,101.196 27.124,101.196 27.25,100.375 C28.276,97.127 29.966,94.712 32,92 C32.66,92 33.32,92 34,92 C34.268,91.361 34.536,90.721 34.812,90.062 C36,88 36,88 39,87 C39.268,86.299 39.536,85.598 39.812,84.875 C41.451,80.907 44.123,78.139 47,75 C46.34,74.67 45.68,74.34 45,74 C45.33,73.67 45.66,73.34 46,73 Z"/>
  <path fill="#AA3F9C" d="M206,193 C206.33,193 206.66,193 207,193 C207.567,197.822 205.921,200.245 203,204 C202.01,204.66 201.02,205.32 200,206 C199.732,206.598 199.464,207.196 199.188,207.812 C197.391,211.122 195.036,212.77 192,215 C191.01,215 190.02,215 189,215 C188.67,215.99 188.34,216.98 188,218 C186.004,219.133 186.004,219.133 183.562,220.125 C182.759,220.458 181.956,220.79 181.129,221.133 C180.426,221.419 179.724,221.705 179,222 C178.34,222.33 177.68,222.66 177,223 C178.152,220.532 179.048,218.952 181,217 C181,216.67 181,216.34 181,216 C182.65,216 184.3,216 186,216 C186,215.34 186,214.68 186,214 C187.65,214 189.3,214 191,214 C191,213.01 191,212.02 191,211 C191.66,211 192.32,211 193,211 C193,210.34 193,209.68 193,209 C193.969,208.196 194.939,207.391 195.938,206.562 C199.194,204.293 199.194,204.293 200,201 C200.99,201 201.98,201 203,201 C204.075,198.348 205.095,195.716 206,193 Z"/>
  <path fill="#9D8F4E" d="M95,18 C95.33,18.66 95.66,19.32 96,20 C98.327,20.374 100.661,20.708 103,21 C104,22 104,22 104.098,24.066 C104.086,24.89 104.074,25.714 104.062,26.562 C104.053,27.389 104.044,28.215 104.035,29.066 C104.024,29.704 104.012,30.343 104,31 C106.475,31.495 106.475,31.495 109,32 C109,34.31 109,36.62 109,39 C107.35,38.34 105.7,37.68 104,37 C104.33,35.35 104.66,33.7 105,32 C104.34,32 103.68,32 103,32 C102.67,29.03 102.34,26.06 102,23 C99.03,22.67 96.06,22.34 93,22 C92.34,23.32 91.68,24.64 91,26 C90.01,26 89.02,26 88,26 C87.67,23.69 87.34,21.38 87,19 C89.709,17.646 92.009,17.935 95,18 Z"/>
  <path fill="#A42A9E" d="M194,98 C194,103.94 194,109.88 194,116 C191,114 191,114 190,111 C187.69,110.67 185.38,110.34 183,110 C183.33,109.01 183.66,108.02 184,107 C184.99,106.67 185.98,106.34 187,106 C187.309,105.216 187.619,104.433 187.938,103.625 C188.982,101.045 190.803,98 194,98 Z"/>
  <path fill="#F79DA3" d="M196,143 C196.66,143 197.32,143 198,143 C201.258,147.17 201.49,150.903 202,156 C202.33,156.33 202.66,156.66 203,157 C203.086,158.343 203.107,159.69 203.098,161.035 C203.093,162.248 203.093,162.248 203.088,163.486 C203.08,164.336 203.071,165.187 203.062,166.062 C203.058,166.917 203.053,167.771 203.049,168.65 C203.037,170.767 203.019,172.883 203,175 C202.34,175 201.68,175 201,175 C201.035,175.953 201.07,176.905 201.105,177.887 C201.133,179.141 201.16,180.395 201.188,181.688 C201.222,182.929 201.257,184.17 201.293,185.449 C200.985,189.186 200.181,191.006 198,194 C197.34,193.67 196.68,193.34 196,193 C197.875,188.125 197.875,188.125 199,187 C199.978,179.758 200.099,172.424 200.125,165.125 C200.132,164.074 200.132,164.074 200.139,163.002 C200.122,157.181 199.944,151.403 197.438,146.062 C196.963,145.052 196.489,144.041 196,143 Z"/>
  <path fill="#7F5A54" d="M176,110 C176.33,110.99 176.66,111.98 177,113 C174.949,113.228 172.898,113.456 170.848,113.684 C168.989,113.819 168.989,113.819 168,115 C165.941,115.28 163.883,115.447 161.812,115.621 C161.214,115.746 160.616,115.871 160,116 C159.67,116.66 159.34,117.32 159,118 C156.36,118 153.72,118 151,118 C151.52,116.141 151.52,116.141 153,114 C155.623,113.037 157.983,112.345 160.688,111.75 C161.383,111.577 162.078,111.405 162.795,111.227 C167.296,110.167 171.381,109.83 176,110 Z"/>
  <path fill="#974081" d="M107,153 C107,156.422 106.562,159.627 106,163 C105.67,163.33 105.34,163.66 105,164 C104.841,166.144 104.749,168.293 104.684,170.441 C104.642,171.747 104.6,173.052 104.557,174.396 C104.517,175.785 104.477,177.174 104.438,178.562 C104.394,179.955 104.351,181.348 104.307,182.74 C104.2,186.16 104.098,189.58 104,193 C104.66,193 105.32,193 106,193 C105.67,195.31 105.34,197.62 105,200 C103.062,199.625 103.062,199.625 101,199 C99.522,196.043 99.94,193.258 100,190 C100.99,190 101.98,190 103,190 C102.995,189.187 102.99,188.375 102.984,187.537 C102.963,183.879 102.95,180.221 102.938,176.562 C102.925,174.643 102.925,174.643 102.912,172.686 C102.909,171.471 102.906,170.256 102.902,169.004 C102.897,167.878 102.892,166.752 102.886,165.592 C103,163 103,163 104,162 C104.144,160.866 104.289,159.731 104.438,158.562 C105,155 105,155 107,153 Z"/>
  <path fill="#8C575B" d="M190.75,91.688 C191.864,91.842 191.864,91.842 193,92 C191.68,92.33 190.36,92.66 189,93 C189,93.66 189,94.32 189,95 C189.99,95.33 190.98,95.66 192,96 C191.361,96.722 190.721,97.444 190.062,98.188 C188.013,100.982 187.387,102.617 187,106 C185.68,106 184.36,106 183,106 C182.67,106.99 182.34,107.98 182,109 C181.01,109 180.02,109 179,109 C179.33,107.02 179.66,105.04 180,103 C180.66,103 181.32,103 182,103 C182.247,102.113 182.495,101.226 182.75,100.312 C185.792,92.251 185.792,92.251 190.75,91.688 Z"/>
  <path fill="#E0A1B7" d="M110,153 C110.66,153.33 111.32,153.66 112,154 C111.691,154.928 111.381,155.856 111.062,156.812 C107.83,168.437 108.892,181.052 109,193 C106.804,191.26 106.061,190.379 105.612,187.567 C105.608,186.622 105.605,185.677 105.602,184.703 C105.598,183.662 105.594,182.62 105.59,181.547 C105.601,180.459 105.613,179.371 105.625,178.25 C105.613,177.178 105.602,176.105 105.59,175 C105.613,168.828 106.175,164.484 109,159 C109.398,157.012 109.755,155.013 110,153 Z"/>
  <path fill="#F1633A" d="M185,151 C186.354,153.709 186.065,156.009 186,159 C184.35,159 182.7,159 181,159 C181,159.66 181,160.32 181,161 C179.02,161 177.04,161 175,161 C175,158.69 175,156.38 175,154 C178.73,151.966 180.669,151 185,151 Z"/>
  <path fill="#DD9BB6" d="M207,146 C209.143,147.677 209.942,148.796 210.688,151.438 C211.575,161.551 211.08,171.911 210,182 C209.505,182.495 209.505,182.495 209,183 C208.893,184.332 208.815,185.666 208.75,187 C208.233,192.462 205.92,196.443 203,201 C202.34,200.67 201.68,200.34 201,200 C201.375,198.062 201.375,198.062 202,196 C202.99,195.505 202.99,195.505 204,195 C205.779,192.112 206.302,189.668 206.562,186.312 C206.9,182.1 206.9,182.1 208,181 C208.1,178.84 208.131,176.678 208.133,174.516 C208.134,173.863 208.135,173.21 208.136,172.538 C208.136,171.153 208.135,169.767 208.13,168.382 C208.125,166.273 208.13,164.164 208.137,162.055 C208.136,160.708 208.135,159.362 208.133,158.016 C208.132,156.791 208.131,155.567 208.129,154.306 C208.016,151.404 207.672,148.817 207,146 Z"/>
  <path fill="#914B6C" d="M68.312,63.312 C68.869,63.539 69.426,63.766 70,64 C69.67,64.33 69.34,64.66 69,65 C72.625,65.201 74.865,64.858 78,63 C75.422,65.648 73.084,67.944 70,70 C69.01,70 68.02,70 67,70 C67,70.66 67,71.32 67,72 C64.125,72.125 64.125,72.125 61,72 C60.34,71.34 59.68,70.68 59,70 C60.61,65.755 63.508,62.663 68.312,63.312 Z"/>
  <path fill="#855C5C" d="M84,53 C84.66,53 85.32,53 86,53 C85.75,54.875 85.75,54.875 85,57 C83.675,57.684 82.341,58.35 81,59 C80.691,59.639 80.381,60.279 80.062,60.938 C78.582,63.812 76.901,64.651 74,66 C71.188,66.188 71.188,66.188 69,66 C69,63 69,63 70.688,61 C73.041,58.965 75.201,57.364 78,56 C78.99,56.33 79.98,56.66 81,57 C81.33,56.34 81.66,55.68 82,55 C82.66,55 83.32,55 84,55 C84,54.34 84,53.68 84,53 Z"/>
  <path fill="#DB98B9" d="M127,211 C128.918,211.464 128.918,211.464 130.875,211.938 C135.255,212.932 139.553,213.38 144.031,213.656 C145.006,213.826 145.006,213.826 146,214 C146.33,214.66 146.66,215.32 147,216 C161.85,216.495 161.85,216.495 177,217 C177,217.33 177,217.66 177,218 C172.319,218.025 167.637,218.043 162.956,218.055 C161.362,218.06 159.768,218.067 158.175,218.075 C155.889,218.088 153.602,218.093 151.316,218.098 C150.6,218.103 149.883,218.108 149.145,218.113 C147.429,218.113 145.714,218.062 144,218 C143.67,217.67 143.34,217.34 143,217 C141.441,216.841 139.877,216.723 138.312,216.625 C133.947,216.243 130.798,215.299 127,213 C127,212.34 127,211.68 127,211 Z"/>
  <path fill="#9E498E" d="M214,156 C215.65,156.33 217.3,156.66 219,157 C220.175,161.111 219.82,163.169 218,167 C216.659,169.997 215.967,172.269 215.562,175.562 C214.982,179.108 214.209,180.308 212,183 C212.144,181.889 212.289,180.778 212.438,179.633 C213.437,171.705 214.254,164.008 214,156 Z"/>
  <path fill="#845453" d="M214,140 C217.067,143.067 218.048,146.82 219,151 C218.688,154.562 218.688,154.562 218,157 C215.625,156.062 215.625,156.062 213,154 C211.254,149.569 210.559,145.586 212,141 C212.33,141.66 212.66,142.32 213,143 C213.33,142.01 213.66,141.02 214,140 Z"/>
  <path fill="#884767" d="M122,213 C122.713,213.338 123.426,213.675 124.16,214.023 C129.386,216.457 134.397,218.572 140,220 C141.309,220.501 141.309,220.501 142.645,221.012 C146.76,222.224 150.608,222.451 154.875,222.625 C155.659,222.664 156.443,222.702 157.25,222.742 C159.166,222.836 161.083,222.919 163,223 C162.67,223.66 162.34,224.32 162,225 C158.208,224.862 154.417,224.713 150.625,224.562 C149.545,224.523 148.465,224.484 147.352,224.443 C146.32,224.401 145.289,224.36 144.227,224.316 C143.273,224.28 142.32,224.243 141.338,224.205 C139,224 139,224 137,223 C137,222.34 137,221.68 137,221 C136.299,220.876 135.598,220.753 134.875,220.625 C131.823,219.962 128.947,219.028 126,218 C126,217.34 126,216.68 126,216 C124.68,215.67 123.36,215.34 122,215 C122,214.34 122,213.68 122,213 Z"/>
  <path fill="#F06184" d="M197,147 C199.547,148.883 199.989,149.944 200.59,153.113 C201.014,157.133 201.152,161.089 201.125,165.125 C201.121,165.86 201.117,166.595 201.113,167.352 C200.961,182.416 200.961,182.416 200,187 C199.01,187.66 198.02,188.32 197,189 C197,187.68 197,186.36 197,185 C197.66,185 198.32,185 199,185 C199,173.78 199,162.56 199,151 C198.34,151 197.68,151 197,151 C197,149.68 197,148.36 197,147 Z"/>
  <path fill="#963883" d="M19,114 C19.33,114 19.66,114 20,114 C20.054,115.458 20.093,116.916 20.125,118.375 C20.148,119.187 20.171,119.999 20.195,120.836 C20,123 20,123 18,125 C17.721,128.11 17.721,128.11 17.805,131.758 C17.809,132.752 17.809,132.752 17.813,133.767 C17.824,135.887 17.85,138.006 17.875,140.125 C17.885,141.561 17.894,142.997 17.902,144.434 C17.924,147.956 17.959,151.478 18,155 C17.34,155 16.68,155 16,155 C13.953,141.439 13.983,126.871 19,114 Z"/>
  <path fill="#F47530" d="M125,180 C126.98,180 128.96,180 131,180 C131.81,182.915 132.218,184.461 131.062,187.312 C130.537,188.148 130.537,188.148 130,189 C128.02,189 126.04,189 124,189 C123.19,186.085 122.782,184.539 123.938,181.688 C124.288,181.131 124.639,180.574 125,180 Z"/>
  <path fill="#995C75" d="M180,220 C182.062,220.438 182.062,220.438 184,221 C183.361,221.289 182.721,221.577 182.062,221.875 C179.848,222.828 179.848,222.828 179,225 C179.99,225.33 180.98,225.66 182,226 C178.613,227.042 175.523,227 172,227 C171.67,227.33 171.34,227.66 171,228 C164.475,228.237 164.475,228.237 162,227 C162.33,226.01 162.66,225.02 163,224 C168.489,222.88 171.834,223.208 177,225 C177.309,224.361 177.619,223.721 177.938,223.062 C179,221 179,221 180,220 Z"/>
  <path fill="#BA55A9" d="M198,203 C198.66,203.33 199.32,203.66 200,204 C198.377,205.709 196.707,207.374 195,209 C194.34,209 193.68,209 193,209 C193,209.66 193,210.32 193,211 C192.34,211 191.68,211 191,211 C191,211.99 191,212.98 191,214 C189.35,214 187.7,214 186,214 C186,214.66 186,215.32 186,216 C181.545,216.495 181.545,216.495 177,217 C177,216.34 177,215.68 177,215 C180.311,213.871 183.59,212.787 187,212 C187,211.01 187,210.02 187,209 C187.543,208.818 188.085,208.636 188.645,208.449 C189.36,208.198 190.075,207.946 190.812,207.688 C191.52,207.444 192.228,207.2 192.957,206.949 C195.145,205.933 196.409,204.792 198,203 Z"/>
  <path fill="#F58229" d="M174,168 C175.98,168 177.96,168 180,168 C180,168.66 180,169.32 180,170 C180.99,170 181.98,170 183,170 C183,171.65 183,173.3 183,175 C180.085,175.81 178.539,176.218 175.688,175.062 C175.131,174.712 174.574,174.361 174,174 C174,172.02 174,170.04 174,168 Z"/>
  <path fill="#934579" d="M183,106 C184.32,106.33 185.64,106.66 187,107 C186.01,107 185.02,107 184,107 C183.67,107.99 183.34,108.98 183,110 C181.35,110.33 179.7,110.66 178,111 C177.91,111.624 177.82,112.248 177.727,112.891 C177,115 177,115 175.398,116.047 C170.718,117.673 166.955,118.31 162,118 C162,117.34 162,116.68 162,116 C162.969,115.691 163.939,115.381 164.938,115.062 C167.841,114.305 167.841,114.305 169,113 C171.671,112.859 174.324,112.958 177,113 C176.67,112.01 176.34,111.02 176,110 C176.969,109.711 177.939,109.423 178.938,109.125 C182.107,108.358 182.107,108.358 183,106 Z"/>
  <path fill="#7D5356" d="M135,82 C141,89.2 141,89.2 141,94 C141.66,94 142.32,94 143,94 C143,94.66 143,95.32 143,96 C142.67,96.33 142.34,96.66 142,97 C141.638,98.326 141.303,99.659 141,101 C136.083,95.714 136.083,95.714 135.688,92.312 C135.791,91.549 135.894,90.786 136,90 C136,87.16 135.597,84.763 135,82 Z"/>
  <path fill="#8D3F71" d="M105,146 C105.66,146.33 106.32,146.66 107,147 C106.024,149.814 105.045,152.626 104.062,155.438 C103.785,156.24 103.507,157.042 103.221,157.869 C102.953,158.633 102.686,159.397 102.41,160.184 C102.164,160.891 101.918,161.598 101.664,162.326 C101,164 101,164 100,165 C99.844,166.34 99.75,167.688 99.684,169.035 C99.621,170.248 99.621,170.248 99.557,171.486 C99.517,172.336 99.478,173.187 99.438,174.062 C99.394,174.917 99.351,175.771 99.307,176.65 C99.2,178.767 99.1,180.883 99,183 C98.67,183 98.34,183 98,183 C97.882,179.688 97.812,176.376 97.75,173.062 C97.716,172.136 97.683,171.21 97.648,170.256 C97.554,163.54 98.9,158.908 102,153 C102.595,151.651 103.18,150.297 103.75,148.938 C104.162,147.968 104.575,146.999 105,146 Z"/>
  <path fill="#9B368B" d="M132,217 C132.568,217.144 133.137,217.289 133.723,217.438 C138.623,218.615 142.965,219.214 148,219 C148.33,219.99 148.66,220.98 149,222 C155.93,222 162.86,222 170,222 C166.802,224.132 166.168,224.236 162.535,224.082 C161.658,224.046 160.78,224.01 159.876,223.973 C158.948,223.92 158.019,223.867 157.062,223.812 C155.647,223.737 155.647,223.737 154.204,223.66 C147.392,223.231 140.326,222.777 134,220 C133.34,219.01 132.68,218.02 132,217 Z"/>
  <path fill="#EF5B81" d="M192,198 C192.33,199.32 192.66,200.64 193,202 C192.113,202.433 191.226,202.866 190.312,203.312 C187.095,204.875 187.095,204.875 184.625,206.562 C178.747,209.781 172.586,210.568 166,210 C165.34,209.01 164.68,208.02 164,207 C164.713,207.023 165.426,207.046 166.16,207.07 C175.645,207.249 183.688,205.798 190.938,199.25 C191.463,198.631 191.463,198.631 192,198 Z"/>
  <path fill="#F0593F" d="M162.625,142.875 C163.409,142.916 164.193,142.958 165,143 C165.042,145.333 165.041,147.667 165,150 C164,151 164,151 161.562,151.188 C159,151 159,151 157,149 C157.479,145.17 158.506,143.071 162.625,142.875 Z"/>
  <path fill="#B650A6" d="M190,110 C193.883,113.641 194.159,119.904 195,125 C194.34,124.67 193.68,124.34 193,124 C192.375,120.938 192.375,120.938 192,118 C191.34,118 190.68,118 190,118 C189.67,116.02 189.34,114.04 189,112 C186.03,111.505 186.03,111.505 183,111 C182.67,111.99 182.34,112.98 182,114 C179.669,115.608 178.572,116.095 175.75,115.625 C175.173,115.419 174.595,115.213 174,115 C174.99,114.67 175.98,114.34 177,114 C177.33,113.01 177.66,112.02 178,111 C181.715,109.142 185.953,109.434 190,110 Z"/>
  <path fill="#8B476A" d="M202,130 C202.742,130.763 203.485,131.526 204.25,132.312 C206.761,134.941 206.761,134.941 209.094,136.363 C211.509,138.437 211.74,139.769 212.25,142.875 C212.4,143.718 212.549,144.561 212.703,145.43 C212.998,147.979 213.055,150.436 213,153 C210.616,148.358 208.558,143.567 206.438,138.801 C205.299,135.903 205.299,135.903 203,135 C202.375,132.438 202.375,132.438 202,130 Z"/>
  <path fill="#A53998" d="M127,125 C128.98,125 130.96,125 133,125 C133,125.66 133,126.32 133,127 C137.03,126.447 141.02,125.844 145,125 C141.929,127.598 139.258,128.698 135.375,129.688 C134.413,129.939 133.452,130.19 132.461,130.449 C130,131 130,131 128,131 C127.67,129.02 127.34,127.04 127,125 Z"/>
  <path fill="#954080" d="M195,94 C195.025,94.626 195.05,95.251 195.076,95.896 C195.192,98.723 195.315,101.549 195.438,104.375 C195.477,105.36 195.516,106.345 195.557,107.359 C195.619,108.771 195.619,108.771 195.684,110.211 C195.72,111.08 195.757,111.95 195.795,112.845 C195.874,115.048 195.874,115.048 197,117 C196.01,116.67 195.02,116.34 194,116 C193.67,110.39 193.34,104.78 193,99 C189.007,101.963 189.007,101.963 187,106 C186.298,101.367 188.043,98.976 190.613,95.355 C192,94 192,94 195,94 Z"/>
  <path fill="#F8951D" d="M148,183 C148.188,185.875 148.188,185.875 148,189 C144.772,191.152 143.716,191.201 140,191 C140.365,188.298 140.699,186.416 142.312,184.188 C144,183 144,183 148,183 Z"/>
  <path fill="#8B6761" d="M89,47 C89.66,47 90.32,47 91,47 C91,47.66 91,48.32 91,49 C94.96,49 98.92,49 103,49 C103,49.33 103,49.66 103,50 C98.38,50 93.76,50 89,50 C88.34,51.32 87.68,52.64 87,54 C86.01,53.67 85.02,53.34 84,53 C84,53.66 84,54.32 84,55 C83.34,55 82.68,55 82,55 C81.67,55.99 81.34,56.98 81,58 C80.34,57.67 79.68,57.34 79,57 C80.932,53.329 82.219,51.654 86,50 C86.536,49.464 87.073,48.928 87.625,48.375 C88.079,47.921 88.533,47.467 89,47 Z"/>
  <path fill="#9D6280" d="M54,69 C55.32,69.66 56.64,70.32 58,71 C58,72.32 58,73.64 58,75 C56.68,75 55.36,75 54,75 C54,75.66 54,76.32 54,77 C52.02,77 50.04,77 48,77 C48,75.68 48,74.36 48,73 C49.32,73 50.64,73 52,73 C52.66,71.68 53.32,70.36 54,69 Z"/>
  <path fill="#83545A" d="M196,96 C196.33,96 196.66,96 197,96 C197,100.95 197,105.9 197,111 C197.66,111 198.32,111 199,111 C198.67,112.65 198.34,114.3 198,116 C197.01,115.67 196.02,115.34 195,115 C194.973,112.021 194.953,109.042 194.938,106.062 C194.929,105.212 194.921,104.362 194.912,103.486 C194.909,102.677 194.906,101.869 194.902,101.035 C194.897,100.286 194.892,99.537 194.886,98.766 C195,97 195,97 196,96 Z"/>
  <path fill="#F47A2D" d="M135,173 C137.31,173 139.62,173 142,173 C142.382,174.656 142.714,176.325 143,178 C142,179 142,179 138.438,179.062 C137.303,179.042 136.169,179.021 135,179 C135,177.02 135,175.04 135,173 Z"/>
  <path fill="#795E4E" d="M101,16 C103.569,16.347 105.51,16.658 107.656,18.156 C109.609,20.836 109.293,22.918 109.188,26.188 C109.16,27.274 109.133,28.361 109.105,29.48 C109.071,30.312 109.036,31.143 109,32 C107.35,31.67 105.7,31.34 104,31 C104.66,27.37 105.32,23.74 106,20 C104.35,18.68 102.7,17.36 101,16 Z"/>
  <path fill="#904A66" d="M61,183 C66.28,183 71.56,183 77,183 C77,183.33 77,183.66 77,184 C74.36,184.33 71.72,184.66 69,185 C68.67,185.99 68.34,186.98 68,188 C66.25,188.875 66.25,188.875 64,189 C61.25,187.562 61.25,187.562 59,186 C59.66,185.67 60.32,185.34 61,185 C61,184.34 61,183.68 61,183 Z"/>
  <path fill="#874F63" d="M200,120 C200.99,120.33 201.98,120.66 203,121 C202.34,121 201.68,121 201,121 C201.65,122.156 201.65,122.156 202.312,123.336 C203.148,124.84 203.148,124.84 204,126.375 C204.835,127.872 204.835,127.872 205.688,129.398 C207,132 207,132 207,134 C207.66,134 208.32,134 209,134 C208.67,135.32 208.34,136.64 208,138 C206,135.333 204,132.667 202,130 C201.444,129.308 200.889,128.616 200.316,127.902 C198.628,125.462 198.686,123.907 199,121 C199.33,120.67 199.66,120.34 200,120 Z"/>
  <path fill="#EE4E46" d="M188.562,182.938 C189.769,182.968 189.769,182.968 191,183 C191,183.66 191,184.32 191,185 C191.66,185 192.32,185 193,185 C193,185.99 193,186.98 193,188 C192.34,188 191.68,188 191,188 C191,188.66 191,189.32 191,190 C189.35,189.67 187.7,189.34 186,189 C185.618,187.344 185.286,185.675 185,184 C186,183 186,183 188.562,182.938 Z"/>
  <path fill="#ED4978" d="M118,164 C118.33,164 118.66,164 119,164 C119,170.93 119,177.86 119,185 C119.66,185 120.32,185 121,185 C120.67,186.32 120.34,187.64 120,189 C116.903,185.903 117.034,182.87 116.867,178.59 C116.87,177.385 116.872,176.179 116.875,174.938 C116.872,173.73 116.87,172.522 116.867,171.277 C116.974,168.633 117.213,166.505 118,164 Z"/>
  <path fill="#F4792E" d="M177.625,136.875 C178.409,136.916 179.193,136.958 180,137 C180.043,139 180.041,141 180,143 C179,144 179,144 176.438,144.062 C175.231,144.032 175.231,144.032 174,144 C173.375,141.625 173.375,141.625 173,139 C175,137 175,137 177.625,136.875 Z"/>
  <path fill="#F06385" d="M151,134 C151.66,134.33 152.32,134.66 153,135 C152.67,135.66 152.34,136.32 152,137 C150.68,137 149.36,137 148,137 C148,137.66 148,138.32 148,139 C147.457,139.242 146.915,139.485 146.355,139.734 C140.809,142.309 140.809,142.309 137,147 C135.68,146.67 134.36,146.34 133,146 C138.697,141.19 144.066,136.848 151,134 Z"/>
  <path fill="#A02F96" d="M191,212 C191.99,212.33 192.98,212.66 194,213 C193.34,213.66 192.68,214.32 192,215 C191.01,215 190.02,215 189,215 C188.67,215.99 188.34,216.98 188,218 C186.004,219.133 186.004,219.133 183.562,220.125 C182.759,220.458 181.956,220.79 181.129,221.133 C180.426,221.419 179.724,221.705 179,222 C178.01,222.495 178.01,222.495 177,223 C178.152,220.532 179.048,218.952 181,217 C181,216.67 181,216.34 181,216 C182.65,216 184.3,216 186,216 C186,215.34 186,214.68 186,214 C187.65,214 189.3,214 191,214 C191,213.34 191,212.68 191,212 Z"/>
  <path fill="#886A63" d="M27,170 C31.75,171.875 31.75,171.875 34,173 C34,173.66 34,174.32 34,175 C34.866,175.186 34.866,175.186 35.75,175.375 C38.023,176.006 39.925,176.889 42,178 C42,178.66 42,179.32 42,180 C36.991,179.523 33.93,178.144 30,175 C28.125,172.25 28.125,172.25 27,170 Z"/>
  <path fill="#B64DA7" d="M211,155 C211.66,155 212.32,155 213,155 C213.027,157.312 213.046,159.625 213.062,161.938 C213.074,163.225 213.086,164.513 213.098,165.84 C213,169 213,169 212,170 C211.767,171.682 211.587,173.371 211.438,175.062 C211.354,175.982 211.27,176.901 211.184,177.848 C211.123,178.558 211.062,179.268 211,180 C210.67,180 210.34,180 210,180 C209.878,171.602 210.157,163.357 211,155 Z"/>
  <path fill="#F9B7B0" d="M196,143 C196.66,143 197.32,143 198,143 C201.258,147.17 201.49,150.903 202,156 C202.33,156.33 202.66,156.66 203,157 C203.086,158.343 203.107,159.69 203.098,161.035 C203.093,162.248 203.093,162.248 203.088,163.486 C203.08,164.336 203.071,165.187 203.062,166.062 C203.058,166.917 203.053,167.771 203.049,168.65 C203.037,170.767 203.019,172.883 203,175 C202.67,175 202.34,175 202,175 C201.939,173.784 201.879,172.569 201.816,171.316 C201.732,169.732 201.647,168.147 201.562,166.562 C201.523,165.76 201.484,164.958 201.443,164.131 C201.595,160.248 201.595,160.248 200,157 C199.876,155.969 199.753,154.938 199.625,153.875 C198.955,149.723 197.774,146.78 196,143 Z"/>
  <path fill="#814A59" d="M119,131 C120.32,131 121.64,131 123,131 C123,132.65 123,134.3 123,136 C122.01,136 121.02,136 120,136 C120,136.66 120,137.32 120,138 C118.039,139.389 116.038,140.726 114,142 C114.512,138.215 115.208,136.559 118,134 C118.33,133.01 118.66,132.02 119,131 Z"/>
  <path fill="#8C665E" d="M219,168 C219.66,168.33 220.32,168.66 221,169 C221.081,170.437 221.139,171.874 221.188,173.312 C221.222,174.113 221.257,174.914 221.293,175.738 C220.938,178.479 220.106,179.292 218,181 C216,178 216,178 216.207,175.773 C216.407,174.982 216.607,174.19 216.812,173.375 C217.005,172.578 217.197,171.782 217.395,170.961 C218,169 218,169 219,168 Z"/>
  <path fill="#F68427" d="M134.562,157.938 C135.769,157.968 135.769,157.968 137,158 C137.625,160.375 137.625,160.375 138,163 C137.34,163.66 136.68,164.32 136,165 C133.875,164.625 133.875,164.625 132,164 C131.618,162.344 131.286,160.675 131,159 C132,158 132,158 134.562,157.938 Z"/>
  <path fill="#8E774C" d="M87,27 C88.666,26.957 90.334,26.959 92,27 C93.965,28.965 93.185,32.635 93.188,35.312 C93.2,35.99 93.212,36.667 93.225,37.365 C93.235,41.045 93.184,43.949 91,47 C88.875,47.75 88.875,47.75 87,48 C87,47.01 87,46.02 87,45 C87.655,44.407 88.31,43.814 88.984,43.203 C91.658,40.281 91.419,38.64 91.25,34.75 C91.214,33.672 91.178,32.595 91.141,31.484 C91.094,30.665 91.048,29.845 91,29 C89.68,28.34 88.36,27.68 87,27 Z"/>
  <path fill="#F8981C" d="M150,152 C152.475,152.99 152.475,152.99 155,154 C155,155.98 155,157.96 155,160 C153.35,160 151.7,160 150,160 C149.619,157.674 149.287,155.339 149,153 C149.33,152.67 149.66,152.34 150,152 Z"/>
  <path fill="#D18AAE" d="M183,111 C184.98,111 186.96,111 189,111 C189,111.33 189,111.66 189,112 C187.35,112 185.7,112 184,112 C183.67,112.99 183.34,113.98 183,115 C179.544,117.366 175.419,117.866 171.375,118.625 C170.694,118.759 170.014,118.893 169.312,119.031 C164.311,120 164.311,120 162,120 C162,119.34 162,118.68 162,118 C163.134,117.856 164.269,117.711 165.438,117.562 C168.808,117.388 168.808,117.388 170,116 C171.997,115.771 173.995,115.542 175.992,115.312 C178.322,114.95 180.048,114.328 182,113 C182.33,112.34 182.66,111.68 183,111 Z"/>
  <path fill="#933B7E" d="M110,62 C110.33,62.99 110.66,63.98 111,65 C111.619,65.309 112.238,65.619 112.875,65.938 C115,67 115,67 116.438,68.938 C117.913,71.157 117.913,71.157 120.438,72.438 C123.369,74.225 124.99,76.245 127,79 C126.34,79.33 125.68,79.66 125,80 C124.278,79.257 123.556,78.515 122.812,77.75 C120.106,75.007 120.106,75.007 117.312,72.875 C115,71 115,71 113,68 C112.01,67.67 111.02,67.34 110,67 C110,65.35 110,63.7 110,62 Z"/>
  <path fill="#A730A1" d="M130,214 C135.94,214.99 135.94,214.99 142,216 C142,216.99 142,217.98 142,219 C143.65,219 145.3,219 147,219 C147,219.33 147,219.66 147,220 C145.103,219.912 143.208,219.804 141.312,219.688 C140.257,219.629 139.201,219.571 138.113,219.512 C134.741,218.957 132.721,218.045 130,216 C130,215.34 130,214.68 130,214 Z"/>
  <path fill="#F78E21" d="M170,187 C171.675,187.286 173.344,187.618 175,188 C175,189.98 175,191.96 175,194 C173.35,194 171.7,194 170,194 C169.619,192.009 169.287,190.007 169,188 C169.33,187.67 169.66,187.34 170,187 Z"/>
  <path fill="#8F6869" d="M14,114 C14.99,114 15.98,114 17,114 C17,114.66 17,115.32 17,116 C16.34,116 15.68,116 15,116 C15.062,117.299 15.062,117.299 15.125,118.625 C14.995,122.124 14.24,124.746 13,128 C12.67,127.34 12.34,126.68 12,126 C11.34,126 10.68,126 10,126 C10.475,124.186 10.955,122.374 11.438,120.562 C11.704,119.553 11.971,118.544 12.246,117.504 C13,115 13,115 14,114 Z"/>
  <path fill="#AC39A3" d="M193,116 C194.32,116.33 195.64,116.66 197,117 C197.33,121.29 197.66,125.58 198,130 C194.716,126.716 194.486,125.714 193.812,121.312 C193.654,120.319 193.495,119.325 193.332,118.301 C193.222,117.542 193.113,116.782 193,116 Z"/>
  <path fill="#95625F" d="M199,97 C199.66,97.33 200.32,97.66 201,98 C201,103.94 201,109.88 201,116 C200.01,116.33 199.02,116.66 198,117 C198.33,115.02 198.66,113.04 199,111 C198.34,111 197.68,111 197,111 C197.33,110.01 197.66,109.02 198,108 C198.222,106.108 198.406,104.211 198.562,102.312 C198.646,101.319 198.73,100.325 198.816,99.301 C198.877,98.542 198.938,97.782 199,97 Z"/>
  <path fill="#988264" d="M95,18 C93.667,20.667 92.333,23.333 91,26 C90.01,26 89.02,26 88,26 C87.67,23.69 87.34,21.38 87,19 C89.709,17.646 92.009,17.935 95,18 Z"/>
  <path fill="#7D4F51" d="M101,165 C101.33,165 101.66,165 102,165 C101.886,167.626 101.76,170.25 101.625,172.875 C101.594,173.621 101.563,174.368 101.531,175.137 C101.227,180.773 101.227,180.773 99,183 C98.946,180.375 98.906,177.751 98.875,175.125 C98.858,174.379 98.841,173.632 98.824,172.863 C98.807,170.908 98.897,168.953 99,167 C99.66,166.34 100.32,165.68 101,165 Z"/>
  <path fill="#7E5C58" d="M14,122 C14.33,122 14.66,122 15,122 C15.125,128.625 15.125,128.625 14,132 C13.34,132 12.68,132 12,132 C11.67,132.99 11.34,133.98 11,135 C10.67,135 10.34,135 10,135 C10,132.03 10,129.06 10,126 C10.66,126 11.32,126 12,126 C12.66,124.68 13.32,123.36 14,122 Z"/>
  <path fill="#F99C1A" d="M188,166 C190.31,166 192.62,166 195,166 C195,167.65 195,169.3 195,171 C192.69,171 190.38,171 188,171 C188,169.35 188,167.7 188,166 Z"/>
  <path fill="#835E60" d="M145,103 C145.99,103 146.98,103 148,103 C150.153,106.858 151.393,109.551 151,114 C149.68,113.67 148.36,113.34 147,113 C147,111.02 147,109.04 147,107 C146.34,107 145.68,107 145,107 C145,105.68 145,104.36 145,103 Z"/>
  <path fill="#F78C23" d="M158,188 C160.475,188.495 160.475,188.495 163,189 C163,190.98 163,192.96 163,195 C161.35,194.67 159.7,194.34 158,194 C158,192.02 158,190.04 158,188 Z"/>
  <path fill="#ED404D" d="M148,183 C148.66,183 149.32,183 150,183 C149.708,186.79 149.455,189.351 147.25,192.5 C145,194 145,194 142.25,193.75 C141.508,193.503 140.765,193.255 140,193 C140,192.34 140,191.68 140,191 C142.31,190.34 144.62,189.68 147,189 C147.33,187.02 147.66,185.04 148,183 Z"/>
  <path fill="#C46EAF" d="M209,180 C209,188.321 207.533,193.925 203,201 C202.34,200.67 201.68,200.34 201,200 C201.375,198.062 201.375,198.062 202,196 C202.66,195.67 203.32,195.34 204,195 C206.215,191.408 206.382,188.145 206.656,184.023 C207,182 207,182 209,180 Z"/>
  <path fill="#FBAD10" d="M177,154 C179.31,154 181.62,154 184,154 C184,155.32 184,156.64 184,158 C181.36,158 178.72,158 176,158 C176.33,156.68 176.66,155.36 177,154 Z"/>
  <path fill="#8D6C66" d="M214,145 C215.938,145.562 215.938,145.562 218,147 C218.875,150.438 218.875,150.438 219,154 C218.01,155.485 218.01,155.485 217,157 C216.492,155.753 215.994,154.503 215.5,153.25 C215.222,152.554 214.943,151.858 214.656,151.141 C214,149 214,149 214,145 Z"/>
  <path fill="#B95FA1" d="M203,135 C206,136 206,136 207.387,138.223 C210.099,144.145 211.615,148.48 211,155 C210.67,155 210.34,155 210,155 C209.629,153.329 209.629,153.329 209.25,151.625 C207.822,145.872 205.651,140.302 203,135 Z"/>
  <path fill="#F16F8B" d="M162,128 C164.73,127.892 167.456,127.813 170.188,127.75 C170.956,127.716 171.725,127.683 172.518,127.648 C176.646,127.578 178.502,127.671 182.051,130.016 C182.694,130.67 183.337,131.325 184,132 C181.625,132.125 181.625,132.125 179,132 C178.34,131.34 177.68,130.68 177,130 C174.419,129.855 171.951,129.813 169.375,129.875 C168.669,129.884 167.962,129.893 167.234,129.902 C165.489,129.926 163.745,129.962 162,130 C162,129.34 162,128.68 162,128 Z"/>
  <path fill="#93407D" d="M143,108 C143.99,108 144.98,108 146,108 C146,109.65 146,111.3 146,113 C147.65,113.33 149.3,113.66 151,114 C151,114.99 151,115.98 151,117 C149.68,117.33 148.36,117.66 147,118 C147,117.01 147,116.02 147,115 C146.34,115 145.68,115 145,115 C144.34,112.69 143.68,110.38 143,108 Z"/>
  <path fill="#BD5DA9" d="M114,200 C114.66,200 115.32,200 116,200 C116,200.66 116,201.32 116,202 C116.99,202.33 117.98,202.66 119,203 C119.699,204.316 120.367,205.65 121,207 C121.66,207.33 122.32,207.66 123,208 C122.67,208.66 122.34,209.32 122,210 C119.36,208.68 116.72,207.36 114,206 C114.33,205.34 114.66,204.68 115,204 C114.601,201.902 114.601,201.902 114,200 Z"/>
  <path fill="#9F3791" d="M210,180 C212,183 212,183 211.758,185.262 C211.549,186.062 211.34,186.863 211.125,187.688 C210.921,188.496 210.718,189.304 210.508,190.137 C210.256,191.059 210.256,191.059 210,192 C209.34,192 208.68,192 208,192 C207.946,190.563 207.907,189.125 207.875,187.688 C207.852,186.887 207.829,186.086 207.805,185.262 C208,183 208,183 210,180 Z"/>
  <path fill="#F57E2B" d="M158,168 C160.475,168.495 160.475,168.495 163,169 C163,170.65 163,172.3 163,174 C161.35,174 159.7,174 158,174 C158,172.02 158,170.04 158,168 Z"/>
  <path fill="#73544E" d="M162,226 C162.66,226.66 163.32,227.32 164,228 C161.475,229.262 159.688,229.099 156.875,229.062 C155.965,229.053 155.055,229.044 154.117,229.035 C153.419,229.024 152.72,229.012 152,229 C152,228.34 152,227.68 152,227 C155.386,225.958 158.467,225.77 162,226 Z"/>
  <path fill="#825857" d="M146,224 C151.28,224 156.56,224 162,224 C162,224.66 162,225.32 162,226 C157.545,226.495 157.545,226.495 153,227 C153,226.34 153,225.68 153,225 C150.69,225 148.38,225 146,225 C146,224.67 146,224.34 146,224 Z"/>
  <path fill="#963A82" d="M88,52 C88.812,53.688 88.812,53.688 89,56 C86.083,59.603 83.417,61.612 79,63 C80.559,59.173 83.032,56.82 86,54 C86.66,53.34 87.32,52.68 88,52 Z"/>
  <path fill="#816559" d="M91,30 C91.188,33.375 91.188,33.375 91,37 C90.01,37.66 89.02,38.32 88,39 C86.646,36.291 86.935,33.991 87,31 C90,30 90,30 91,30 Z"/>
  <path fill="#F58E9B" d="M192,198 C192.33,199.32 192.66,200.64 193,202 C192.113,202.433 191.226,202.866 190.312,203.312 C187.043,204.905 187.043,204.905 184.312,206.75 C183.168,207.369 183.168,207.369 182,208 C181.01,207.67 180.02,207.34 179,207 C179.687,206.602 180.374,206.203 181.082,205.793 C181.983,205.263 182.884,204.733 183.812,204.188 C184.706,203.665 185.599,203.143 186.52,202.605 C188.668,201.215 190.294,199.888 192,198 Z"/>
  <path fill="#886760" d="M98,185 C98.99,185.33 99.98,185.66 101,186 C101,187.32 101,188.64 101,190 C100.01,189.67 99.02,189.34 98,189 C95.607,188.774 93.211,188.592 90.812,188.438 C89.54,188.354 88.268,188.27 86.957,188.184 C85.981,188.123 85.005,188.062 84,188 C84,187.67 84,187.34 84,187 C88.62,187 93.24,187 98,187 C98,186.34 98,185.68 98,185 Z"/>
  <path fill="#90736D" d="M11,136 C11.33,136 11.66,136 12,136 C12,140.29 12,144.58 12,149 C11.34,149 10.68,149 10,149 C9.67,146.03 9.34,143.06 9,140 C9.66,140 10.32,140 11,140 C11,138.68 11,137.36 11,136 Z"/>
  <path fill="#9C2F90" d="M194,98 C194,101.3 194,104.6 194,108 C193.34,107.67 192.68,107.34 192,107 C191.375,104.938 191.375,104.938 191,103 C190.01,103.33 189.02,103.66 188,104 C188.904,101.289 190.622,98 194,98 Z"/>
  <path fill="#C0BF42" d="M103,41 C103.66,41.33 104.32,41.66 105,42 C104.34,44.31 103.68,46.62 103,49 C99.04,49 95.08,49 91,49 C91,48.01 91,47.02 91,46 C91.99,46 92.98,46 94,46 C94,46.66 94,47.32 94,48 C96.64,48 99.28,48 102,48 C101.979,47.031 101.959,46.061 101.938,45.062 C102,42 102,42 103,41 Z"/>
  <path fill="#DC99B6" d="M198,203 C198.66,203.33 199.32,203.66 200,204 C196.624,207.674 193.609,210.054 189,212 C188.34,212 187.68,212 187,212 C187,211.01 187,210.02 187,209 C187.543,208.818 188.085,208.636 188.645,208.449 C189.718,208.072 189.718,208.072 190.812,207.688 C191.52,207.444 192.228,207.2 192.957,206.949 C195.145,205.933 196.409,204.792 198,203 Z"/>
  <path fill="#EE527D" d="M196,190 C197,193 197,193 196.375,195.5 C194.2,199.454 191.163,200.612 187,202 C187,200 187,200 189.375,197.375 C192,195 192,195 194,195 C194.66,193.35 195.32,191.7 196,190 Z"/>
  <path fill="#905171" d="M26,161 C26.33,162.32 26.66,163.64 27,165 C25.68,164.34 24.36,163.68 23,163 C22.67,163.66 22.34,164.32 22,165 C20.68,164.34 19.36,163.68 18,163 C18,162.34 18,161.68 18,161 C21.29,159.903 22.713,160.2 26,161 Z"/>
  <path fill="#C97AAA" d="M145,123 C147.31,123 149.62,123 152,123 C151.464,123.247 150.928,123.495 150.375,123.75 C147.846,125.006 147.846,125.006 145.188,127.062 C141.676,129.197 139.06,129.675 135,130 C135.33,129.34 135.66,128.68 136,128 C138.066,127.367 138.066,127.367 140.562,126.875 C141.389,126.707 142.215,126.54 143.066,126.367 C144.024,126.185 144.024,126.185 145,126 C145,125.01 145,124.02 145,123 Z"/>
  <path fill="#935775" d="M103,50 C103.99,50.33 104.98,50.66 106,51 C106,51.66 106,52.32 106,53 C106.99,53.33 107.98,53.66 109,54 C109.33,55.65 109.66,57.3 110,59 C108.68,59 107.36,59 106,59 C105.01,56.03 104.02,53.06 103,50 Z"/>
  <path fill="#7F5453" d="M199,211 C199,214 199,214 197.75,215.688 C196,217 196,217 192,217 C192,217.66 192,218.32 192,219 C191.01,218.67 190.02,218.34 189,218 C189.66,218 190.32,218 191,218 C191,217.34 191,216.68 191,216 C195.405,211 195.405,211 199,211 Z"/>
  <path fill="#B07A78" d="M89,47 C89.66,47 90.32,47 91,47 C91,47.66 91,48.32 91,49 C94.96,49 98.92,49 103,49 C103,49.33 103,49.66 103,50 C98.38,50 93.76,50 89,50 C88.67,50.99 88.34,51.98 88,53 C87.67,52.01 87.34,51.02 87,50 C87.66,49.01 88.32,48.02 89,47 Z"/>
  <path fill="#8E744E" d="M106,42 C106.99,42 107.98,42 109,42 C108.67,44.64 108.34,47.28 108,50 C105,50 105,50 103,49 C104.875,43.125 104.875,43.125 106,42 Z"/>
  <path fill="#B0AC41" d="M104,37 C106.475,37.99 106.475,37.99 109,39 C109,39.99 109,40.98 109,42 C108.361,42.227 107.721,42.454 107.062,42.688 C104.728,43.853 104.728,43.853 104.25,46.625 C104.168,47.409 104.085,48.193 104,49 C103.67,49 103.34,49 103,49 C102.911,45.163 103.145,41.741 104,38 C104,37.67 104,37.34 104,37 Z"/>
  <path fill="#7F5355" d="M22,161 C23.152,161.93 24.297,162.869 25.438,163.812 C26.076,164.335 26.714,164.857 27.371,165.395 C29,167 29,167 30,170 C29.01,170 28.02,170 27,170 C27,169.34 27,168.68 27,168 C26.34,168 25.68,168 25,168 C23.375,166.75 23.375,166.75 22,165 C22,163.68 22,162.36 22,161 Z"/>
  <path fill="#EB3753" d="M137,158 C137.66,158 138.32,158 139,158 C139.098,164.152 139.098,164.152 139,166 C138,167 138,167 135.438,167.062 C134.633,167.042 133.829,167.021 133,167 C133,166.01 133,165.02 133,164 C134.32,163.67 135.64,163.34 137,163 C137,161.35 137,159.7 137,158 Z"/>
  <path fill="#F8981C" d="M160,144 C160.99,144 161.98,144 163,144 C163.33,145.65 163.66,147.3 164,149 C162.68,149.33 161.36,149.66 160,150 C158.875,146.25 158.875,146.25 160,144 Z"/>
  <path fill="#FBC0B5" d="M169,125 C173.939,124.663 174.785,124.839 179,128 C175.37,128 171.74,128 168,128 C168.33,127.01 168.66,126.02 169,125 Z"/>
  <path fill="#ECB8BC" d="M173,117 C173,117.99 173,118.98 173,120 C170.69,120 168.38,120 166,120 C166,120.66 166,121.32 166,122 C163.69,122 161.38,122 159,122 C162.015,119.99 164.215,119.274 167.688,118.375 C169.178,117.984 169.178,117.984 170.699,117.586 C171.458,117.393 172.218,117.199 173,117 Z"/>
  <path fill="#805655" d="M84,53 C84.66,53 85.32,53 86,53 C85.75,54.875 85.75,54.875 85,57 C82.938,58.25 82.938,58.25 81,59 C81,59.66 81,60.32 81,61 C79.68,60.67 78.36,60.34 77,60 C77.66,60 78.32,60 79,60 C79,59.34 79,58.68 79,58 C80.375,56.375 80.375,56.375 82,55 C82.66,55 83.32,55 84,55 C84,54.34 84,53.68 84,53 Z"/>
  <path fill="#84615A" d="M122,217 C125.775,218.091 128.47,218.908 131,222 C128.36,221.67 125.72,221.34 123,221 C122.67,219.68 122.34,218.36 122,217 Z"/>
  <path fill="#8D5E6D" d="M199,206 C199.33,206.99 199.66,207.98 200,209 C201.98,208.01 203.96,207.02 206,206 C205.34,207.32 204.68,208.64 204,210 C203.34,210 202.68,210 202,210 C202,210.66 202,211.32 202,212 C199.03,211.505 199.03,211.505 196,211 C196.99,209.35 197.98,207.7 199,206 Z"/>
  <path fill="#A13694" d="M206,193 C206.33,193 206.66,193 207,193 C207.566,197.813 205.902,200.245 203,204 C202.01,204.495 202.01,204.495 201,205 C201,203.68 201,202.36 201,201 C201.66,201 202.32,201 203,201 C204.075,198.348 205.095,195.716 206,193 Z"/>
  <path fill="#EB3455" d="M158,187 C159.65,187 161.3,187 163,187 C163.33,187.99 163.66,188.98 164,190 C164.66,190 165.32,190 166,190 C166.33,190.99 166.66,191.98 167,193 C165.02,193.99 165.02,193.99 163,195 C162.917,194.051 162.835,193.102 162.75,192.125 C162.349,188.895 162.349,188.895 159.938,187.625 C159.298,187.419 158.659,187.212 158,187 Z"/>
  <path fill="#77564F" d="M169,110 C171.31,110 173.62,110 176,110 C176.33,110.99 176.66,111.98 177,113 C174.36,113 171.72,113 169,113 C169,112.01 169,111.02 169,110 Z"/>
  <path fill="#84595D" d="M140,95 C141.98,95.99 141.98,95.99 144,97 C144,100.63 144,104.26 144,108 C140.66,101.319 140.66,101.319 142,97 C141.34,97 140.68,97 140,97 C140,96.34 140,95.68 140,95 Z"/>
  <path fill="#A953A0" d="M16,155 C17.938,155.75 17.938,155.75 20,157 C20.75,159.125 20.75,159.125 21,161 C17.73,160.436 16.174,159.5 14,157 C14.66,157 15.32,157 16,157 C16,156.34 16,155.68 16,155 Z"/>
  <path fill="#E2A6B8" d="M139,130 C135.436,133.15 132.593,135.514 128,137 C135.031,128.016 135.031,128.016 139,130 Z"/>
  <path fill="#98637C" d="M100,190 C100.99,190 101.98,190 103,190 C103.125,192.875 103.125,192.875 103,196 C102.34,196.66 101.68,197.32 101,198 C100,197 100,197 99.938,193.438 C99.958,192.303 99.979,191.169 100,190 Z"/>
  <path fill="#FAB8B0" d="M200,182 C200.33,182 200.66,182 201,182 C201.295,187.023 200.985,189.895 198,194 C197.34,193.67 196.68,193.34 196,193 C196.289,192.299 196.577,191.598 196.875,190.875 C198.021,187.945 199.026,184.991 200,182 Z"/>
  <path fill="#F05840" d="M125,180 C126.98,180 128.96,180 131,180 C131,180.66 131,181.32 131,182 C130.237,182.247 129.474,182.495 128.688,182.75 C125.764,184.11 124.7,185.316 123,188 C123.523,185.237 124.109,182.674 125,180 Z"/>
  <path fill="#8E5E73" d="M52,181 C53.32,181 54.64,181 56,181 C56,182.65 56,184.3 56,186 C53.133,185.427 52.139,185.139 50,183 C50.66,183 51.32,183 52,183 C52,182.34 52,181.68 52,181 Z"/>
  <path fill="#956073" d="M215,158 C216.65,158 218.3,158 220,158 C219.67,159.65 219.34,161.3 219,163 C217.68,162.34 216.36,161.68 215,161 C215,160.01 215,159.02 215,158 Z"/>
  <path fill="#6B4C49" d="M135,82 C139.429,87.143 139.429,87.143 140,91 C138.02,91.99 138.02,91.99 136,93 C136.206,92.237 136.413,91.474 136.625,90.688 C137.334,87.781 137.334,87.781 135,85 C135,84.01 135,83.02 135,82 Z"/>
  <path fill="#943781" d="M130,84 C133.35,87.812 135.17,91.333 137,96 C136.34,96 135.68,96 135,96 C134.159,94.567 133.327,93.128 132.5,91.688 C131.804,90.487 131.804,90.487 131.094,89.262 C130,87 130,87 130,84 Z"/>
  <path fill="#866C66" d="M73,59 C73.99,59.33 74.98,59.66 76,60 C76,60.66 76,61.32 76,62 C73.688,63.688 73.688,63.688 71,65 C70.01,64.67 69.02,64.34 68,64 C69.65,62.35 71.3,60.7 73,59 Z"/>
  <path fill="#A52AA0" d="M148,219 C153.538,218.631 153.538,218.631 155.875,220.5 C156.246,220.995 156.617,221.49 157,222 C154.36,222 151.72,222 149,222 C148.67,221.01 148.34,220.02 148,219 Z"/>
  <path fill="#7F5554" d="M109,204 C109.33,204.66 109.66,205.32 110,206 C110.598,206.124 111.196,206.247 111.812,206.375 C114.702,207.201 116.016,208.804 118,211 C113.945,211 112.152,209.451 109,207 C109,206.01 109,205.02 109,204 Z"/>
  <path fill="#F05C3E" d="M174,168 C175.98,168 177.96,168 180,168 C180,168.66 180,169.32 180,170 C178.68,170 177.36,170 176,170 C176,171.32 176,172.64 176,174 C175.34,174 174.68,174 174,174 C174,172.02 174,170.04 174,168 Z"/>
  <path fill="#8E6C6E" d="M12,150 C12.66,150.33 13.32,150.66 14,151 C14,152.32 14,153.64 14,155 C14.66,155 15.32,155 16,155 C16,155.66 16,156.32 16,157 C14.35,156.67 12.7,156.34 11,156 C11.33,154.02 11.66,152.04 12,150 Z"/>
  <path fill="#8F3C77" d="M120,136 C120.33,137.32 120.66,138.64 121,140 C120.423,140.247 119.845,140.495 119.25,140.75 C116.7,142.167 114.982,143.876 113,146 C114.173,142.663 115.189,140.226 118,138 C118.66,138 119.32,138 120,138 C120,137.34 120,136.68 120,136 Z"/>
  <path fill="#904176" d="M202,130 C205.536,133.173 207.586,135.167 208,140 C206,139 206,139 205,136 C204.34,135.67 203.68,135.34 203,135 C202.375,132.438 202.375,132.438 202,130 Z"/>
  <path fill="#94387F" d="M137,96 C139.632,98.456 141.815,100.554 143,104 C142.625,106.25 142.625,106.25 142,108 C141.546,106.866 141.092,105.731 140.625,104.562 C139.429,100.953 139.429,100.953 137,100 C137,98.68 137,97.36 137,96 Z"/>
  <path fill="#8D6965" d="M67,65 C66.67,65.99 66.34,66.98 66,68 C64.68,68 63.36,68 62,68 C62,68.66 62,69.32 62,70 C61.34,70 60.68,70 60,70 C60.375,68.062 60.375,68.062 61,66 C63,65 63,65 67,65 Z"/>
  <path fill="#FBAD10" d="M127,182 C127.99,182 128.98,182 130,182 C130,183.65 130,185.3 130,187 C128.68,187 127.36,187 126,187 C126.33,185.35 126.66,183.7 127,182 Z"/>
  <path fill="#FBAF0F" d="M176,138 C176.99,138 177.98,138 179,138 C179,139.65 179,141.3 179,143 C177.68,143 176.36,143 175,143 C175.33,141.35 175.66,139.7 176,138 Z"/>
  <path fill="#7D5250" d="M203,127 C207,131.75 207,131.75 207,134 C207.66,134 208.32,134 209,134 C208.67,135.32 208.34,136.64 208,138 C207.155,136.926 206.324,135.84 205.5,134.75 C205.036,134.147 204.572,133.543 204.094,132.922 C203,131 203,131 203,127 Z"/>
  <path fill="#8A6A63" d="M184,222 C184.99,222 185.98,222 187,222 C186.34,223.32 185.68,224.64 185,226 C182.03,225.505 182.03,225.505 179,225 C179.639,224.691 180.279,224.381 180.938,224.062 C182.936,223.165 182.936,223.165 184,222 Z"/>
  <path fill="#85655A" d="M199,212 C199.66,212 200.32,212 201,212 C200.602,214.886 200.21,215.822 197.938,217.75 C197.298,218.163 196.659,218.575 196,219 C196.33,217.35 196.66,215.7 197,214 C197.66,214 198.32,214 199,214 C199,213.34 199,212.68 199,212 Z"/>
  <path fill="#8C6F67" d="M62,185 C64.31,185 66.62,185 69,185 C68.67,185.99 68.34,186.98 68,188 C67.01,188.33 66.02,188.66 65,189 C65,188.34 65,187.68 65,187 C64.01,187 63.02,187 62,187 C62,186.34 62,185.68 62,185 Z"/>
  <path fill="#FDB60B" d="M136,174 C137.98,174 139.96,174 142,174 C142,174.99 142,175.98 142,177 C140.02,177 138.04,177 136,177 C136,176.01 136,175.02 136,174 Z"/>
  <path fill="#8C6C63" d="M209,134 C210.5,135.375 210.5,135.375 212,137 C212,137.66 212,138.32 212,139 C212.66,139 213.32,139 214,139 C214,140.65 214,142.3 214,144 C211.661,141.873 210.193,139.938 209,137 C209,136.01 209,135.02 209,134 Z"/>
  <path fill="#8E3E74" d="M127,125 C129.475,125.495 129.475,125.495 132,126 C131.67,126.99 131.34,127.98 131,129 C129.68,129 128.36,129 127,129 C127,127.68 127,126.36 127,125 Z"/>
  <path fill="#8A7160" d="M94,16 C96.31,16 98.62,16 101,16 C101,16.66 101,17.32 101,18 C99.35,18 97.7,18 96,18 C95.67,18.66 95.34,19.32 95,20 C94.34,19.67 93.68,19.34 93,19 C93.33,18.01 93.66,17.02 94,16 Z"/>
  <path fill="#B764B1" d="M172,222 C173.65,222 175.3,222 177,222 C177,222.99 177,223.98 177,225 C175.02,225 173.04,225 171,225 C171.33,224.01 171.66,223.02 172,222 Z"/>
  <path fill="#D389B5" d="M184,212 C184.99,212.33 185.98,212.66 187,213 C186.34,213 185.68,213 185,213 C185,213.99 185,214.98 185,216 C182.36,216.33 179.72,216.66 177,217 C177,216.34 177,215.68 177,215 C178.454,214.536 178.454,214.536 179.938,214.062 C182.841,213.305 182.841,213.305 184,212 Z"/>
  <path fill="#DC9ABA" d="M109,193 C109.66,193 110.32,193 111,193 C111,193.66 111,194.32 111,195 C111.99,195 112.98,195 114,195 C114,196.65 114,198.3 114,200 C110.185,197.538 110.185,197.538 109.25,194.812 C109.168,194.214 109.085,193.616 109,193 Z"/>
  <path fill="#F68526" d="M187,184 C187.99,184 188.98,184 190,184 C190,185.65 190,187.3 190,189 C188.68,188.67 187.36,188.34 186,188 C186.33,186.68 186.66,185.36 187,184 Z"/>
  <path fill="#886968" d="M43,180 C44.98,180 46.96,180 49,180 C48.67,180.99 48.34,181.98 48,183 C45.03,182.505 45.03,182.505 42,182 C42.33,181.34 42.66,180.68 43,180 Z"/>
  <path fill="#FBAE10" d="M176,170 C178.475,170.495 178.475,170.495 181,171 C181,171.99 181,172.98 181,174 C179.35,173.67 177.7,173.34 176,173 C176,172.01 176,171.02 176,170 Z"/>
  <path fill="#875667" d="M219,165 C219.66,166.32 220.32,167.64 221,169 C219.68,169 218.36,169 217,169 C216.67,170.65 216.34,172.3 216,174 C215,172 215,172 215.812,169.5 C217,167 217,167 219,165 Z"/>
  <path fill="#EF5F83" d="M162,131 C160.875,132.5 160.875,132.5 159,134 C155.812,134.188 155.812,134.188 153,134 C155.61,130.52 157.831,130.722 162,131 Z"/>
  <path fill="#F8AAA9" d="M179,128 C180.32,128 181.64,128 183,128 C183,128.66 183,129.32 183,130 C184.65,130.33 186.3,130.66 188,131 C188,131.66 188,132.32 188,133 C184.129,132.426 181.918,130.513 179,128 Z"/>
  <path fill="#B1A380" d="M91,20 C91.66,20 92.32,20 93,20 C92.34,21.98 91.68,23.96 91,26 C90.01,26 89.02,26 88,26 C88,24.68 88,23.36 88,22 C88.99,22 89.98,22 91,22 C91,21.34 91,20.68 91,20 Z"/>
</svg>
