<svg xmlns="http://www.w3.org/2000/svg" version="1.1" width="249" height="274">
  <defs/>
  <path fill="#775548" d="M77.599,248.866 C78.492,248.862 79.385,248.858 80.305,248.853 C81.755,248.854 81.755,248.854 83.235,248.855 C84.777,248.85 84.777,248.85 86.35,248.845 C89.745,248.835 93.14,248.833 96.535,248.832 C98.895,248.829 101.255,248.825 103.615,248.822 C108.558,248.816 113.502,248.814 118.446,248.815 C124.787,248.815 131.127,248.801 137.468,248.784 C142.34,248.773 147.212,248.771 152.084,248.771 C154.422,248.77 156.761,248.766 159.099,248.758 C162.364,248.748 165.629,248.751 168.895,248.757 C169.864,248.751 170.833,248.746 171.831,248.74 C172.721,248.744 173.611,248.748 174.528,248.753 C175.3,248.752 176.071,248.752 176.866,248.751 C179.275,249.032 180.908,249.803 183,251 C183,251.66 183,252.32 183,253 C183.66,253 184.32,253 185,253 C185.366,259.337 185.366,259.337 183.785,262.202 C182,264 182,264 179.828,264.506 C178.554,264.51 178.554,264.51 177.256,264.515 C176.28,264.527 175.304,264.54 174.299,264.553 C172.695,264.543 172.695,264.543 171.059,264.533 C169.932,264.542 168.805,264.551 167.643,264.56 C163.908,264.582 160.173,264.575 156.438,264.566 C153.848,264.572 151.259,264.578 148.67,264.585 C143.239,264.596 137.809,264.591 132.378,264.576 C126.098,264.559 119.819,264.575 113.539,264.608 C107.5,264.638 101.46,264.64 95.421,264.63 C92.85,264.629 90.279,264.636 87.708,264.651 C84.119,264.668 80.531,264.654 76.941,264.631 C75.872,264.643 74.803,264.654 73.701,264.667 C71.038,264.632 68.602,264.567 66,264 C63.512,261.294 62.974,260.079 63.062,256.438 C64.223,253.42 65.45,251.984 68,250 C71.234,249.174 74.269,248.874 77.599,248.866 Z"/>
  <path fill="#927971" d="M0,236 C82.17,236 164.34,236 249,236 C249,236.33 249,236.66 249,237 C166.83,237 84.66,237 0,237 C0,236.67 0,236.34 0,236 Z"/>
  <path fill="#BFB7B4" d="M0,179 C82.17,179 164.34,179 249,179 C249,179.33 249,179.66 249,180 C166.83,180 84.66,180 0,180 C0,179.67 0,179.34 0,179 Z"/>
  <path fill="#D0CFCF" d="M0,80 C82.17,80 164.34,80 249,80 C249,80.33 249,80.66 249,81 C166.83,81 84.66,81 0,81 C0,80.67 0,80.34 0,80 Z"/>
  <path fill="#D8D8D8" d="M0,19 C82.17,19 164.34,19 249,19 C249,19.33 249,19.66 249,20 C166.83,20 84.66,20 0,20 C0,19.67 0,19.34 0,19 Z"/>
  <path fill="#856559" d="M95,249 C95.33,249.66 95.66,250.32 96,251 C107.22,251 118.44,251 130,251 C130.33,250.34 130.66,249.68 131,249 C132.98,249 134.96,249 137,249 C137.495,250.485 137.495,250.485 138,252 C123.81,252 109.62,252 95,252 C95,251.01 95,250.02 95,249 Z"/>
  <path fill="#836559" d="M69,252 C69,252.66 69,253.32 69,254 C68.34,254 67.68,254 67,254 C67,255.98 67,257.96 67,260 C67.66,260 68.32,260 69,260 C69,260.66 69,261.32 69,262 C69.66,262.33 70.32,262.66 71,263 C69.02,263 67.04,263 65,263 C63.463,260.56 62.979,259.293 63.188,256.375 C64.24,253.297 65.648,252 69,252 Z"/>
  <path fill="#85675D" d="M181,253 C182.32,253 183.64,253 185,253 C185,255.31 185,257.62 185,260 C184.01,260 183.02,260 182,260 C181.67,260.99 181.34,261.98 181,263 C180.34,263 179.68,263 179,263 C179,262.34 179,261.68 179,261 C179.66,261 180.32,261 181,261 C181,258.36 181,255.72 181,253 Z"/>
  <path fill="#805D53" d="M130,249 C132.31,249 134.62,249 137,249 C137.33,249.99 137.66,250.98 138,252 C135.36,252 132.72,252 130,252 C130,251.01 130,250.02 130,249 Z"/>
</svg>
