<svg xmlns="http://www.w3.org/2000/svg" version="1.1" width="219" height="225">
  <defs/>
  <path fill="#775447" d="M116.312,28.625 C120.783,29.08 121.995,29.679 125,33 C130,41.54 130,41.54 130,45 C130.66,45 131.32,45 132,45 C132.716,46.725 133.432,48.451 134.148,50.176 C135.068,52.265 135.068,52.265 137,55 C137,56.32 137,57.64 137,59 C137.66,59 138.32,59 139,59 C139.329,59.681 139.657,60.361 139.996,61.062 C143.31,67.816 146.866,74.369 150.594,80.901 C153.844,86.633 156.802,92.479 159.688,98.402 C160.763,100.867 160.763,100.867 162,102 C162.532,106.299 162.683,109.852 160.438,113.625 C156.928,115.605 154.817,115.041 151,114 C143.633,107.929 139.71,95.496 135.603,87.082 C133.824,83.471 132.066,79.96 129.785,76.637 C128.267,74.394 127.356,72.674 126.562,70.125 C125.238,66.318 123.342,63.194 121.141,59.832 C119.783,57.652 118.834,55.426 118,53 C113.719,56.776 113.719,56.776 112,62 C111.34,62 110.68,62 110,62 C109.83,62.58 109.66,63.16 109.484,63.758 C107.914,68.82 106.015,72.606 103,77 C102.104,78.739 101.232,80.491 100.375,82.25 C97.682,87.74 94.788,93.096 91.812,98.438 C91.384,99.207 90.956,99.976 90.515,100.769 C89.351,102.85 88.176,104.925 87,107 C86.468,107.96 85.935,108.921 85.387,109.91 C84,112 84,112 81,114 C74.728,114.56 74.728,114.56 72.328,112.715 C70.415,110.245 70.231,107.908 70.32,104.848 C71.57,99.613 74.737,95.277 77.613,90.797 C79.761,87.45 81.579,84.02 83.312,80.438 C85.276,76.381 87.478,72.739 90,69 C90.683,67.375 91.364,65.748 92.023,64.113 C93.823,60.22 96.12,56.598 98.309,52.914 C99.644,50.614 100.86,48.336 102,45.938 C110.039,29.335 110.039,29.335 116.312,28.625 Z"/>
  <path fill="#694633" d="M141,95 C144.285,97.792 146.013,101.232 148,105 C148,105.66 148,106.32 148,107 C147.34,107 146.68,107 146,107 C145.159,105.567 144.327,104.128 143.5,102.688 C142.804,101.487 142.804,101.487 142.094,100.262 C141,98 141,98 141,95 Z"/>
</svg>
