<svg xmlns="http://www.w3.org/2000/svg" version="1.1" width="319" height="475">
  <defs/>
  <path fill="#FCF9BE" d="M187,16.312 C192.014,17.462 194.035,20.662 196.938,24.688 C198.484,29.508 197.302,33.208 196,38 C194.259,44.42 193.333,50.736 192.5,57.34 C192.102,60.25 191.621,63.07 191,65.938 C189.988,70.724 189.39,75.531 188.818,80.387 C188.378,84.082 187.896,87.759 187.312,91.434 C185.456,103.253 184.295,115.082 183.312,127 C183.213,128.206 183.213,128.206 183.111,129.436 C182.921,131.749 182.735,134.062 182.551,136.375 C182.495,137.07 182.439,137.765 182.381,138.481 C182.109,141.996 181.94,145.474 182,149 C188.105,129.373 193.829,109.852 198.125,89.738 C200.439,78.908 202.879,68.122 205.538,57.371 C205.882,55.978 206.225,54.585 206.565,53.191 C212.948,27.099 212.948,27.099 222.312,19 C226.282,17.523 229.827,17.214 234,18 C237.261,19.679 239.428,21.897 241.133,25.184 C251.642,59.314 224.133,110.869 212.226,142.874 C207.825,153.689 207.825,153.689 206,165 C206.909,164.674 207.818,164.348 208.754,164.012 C221.642,159.481 233.932,156.757 247.625,156.5 C249.048,156.454 249.048,156.454 250.5,156.407 C257.351,156.405 257.351,156.405 260.793,159.559 C261.521,160.364 262.25,161.17 263,162 C265.763,162.237 265.763,162.237 268.688,161.562 C274.701,160.827 279.659,161.42 285.5,162.75 C286.265,162.92 287.031,163.089 287.819,163.264 C291.971,164.264 295.566,165.342 299,168 C299.875,171.312 299.875,171.312 299,175 C293.225,180.135 285.655,183.313 278.75,186.625 C267.73,191.915 259.565,197.002 255.248,209.109 C253.623,214.351 252.311,219.673 251,225 C248.146,235.988 248.146,235.988 244,240 C243.34,240 242.68,240 242,240 C242.227,240.887 242.454,241.774 242.688,242.688 C243.077,246.818 242.587,247.786 240,251 C237.413,253.434 234.74,255.741 232,258 C232.871,258.461 233.743,258.923 234.641,259.398 C246.483,265.822 256.435,273.483 265,284 C272.229,292.803 280.097,298.774 290.285,303.859 C292,305 292,305 293,308 C294.073,307.918 295.145,307.835 296.25,307.75 C300,308 300,308 302.5,309.688 C304,312 304,312 304.25,314.375 C301.158,320.868 294.553,323.367 288.125,325.75 C279.053,328.907 270.097,330.189 260.562,330.875 C252.285,331.538 252.285,331.538 244.438,334.125 C232.364,339.258 214.682,336.741 202.854,332.171 C198.17,330.253 193.574,328.168 189,326 C188.887,326.727 188.773,327.454 188.656,328.203 C186.421,337.731 178.467,346.421 170.443,351.675 C167.196,354.765 167.135,356.799 166.672,361.215 C166.553,362.254 166.553,362.254 166.431,363.314 C166.183,365.52 165.966,367.728 165.75,369.938 C165.513,372.142 165.269,374.346 165.026,376.55 C164.808,378.552 164.604,380.555 164.401,382.558 C164.067,385.426 163.586,388.177 163,391 C162.9,392.958 162.818,394.916 162.75,396.875 C162.296,403.677 161.104,410.21 159.688,416.875 C159.487,417.849 159.286,418.824 159.079,419.828 C155.717,435.049 146.979,445.991 134.055,454.477 C127.58,457.705 121.53,458.356 114.375,457.938 C113.651,457.923 112.926,457.908 112.18,457.893 C106.559,457.592 103.858,456.128 100,452 C98.054,447.69 97.447,443.529 99.062,439.062 C102.454,435.452 104.661,434.091 109.688,433.75 C114.475,433.933 119.242,434.454 124,435 C128.67,429.13 131.259,422.947 134,416 C134.33,415.34 134.66,414.68 135,414 C137.603,399.751 138.46,385.451 138,371 C124.503,374.34 124.503,374.34 115,384 C113.844,385.466 112.688,386.932 111.523,388.391 C106.606,394.604 102.11,401.089 97.755,407.707 C94.414,412.699 94.414,412.699 91.891,414.531 C88.644,417.053 87.422,421.037 85.82,424.73 C83.587,429.559 81.3,432.034 77,435 C73.828,436.025 71.213,435.857 68,435 C62.857,431.875 58.958,427.751 57,422 C56.577,418.546 56.755,416.573 58.125,413.375 C60,411 60,411 62.809,409.25 C66.296,406.791 68.55,404.091 70.938,400.625 C71.574,399.72 71.574,399.72 72.224,398.796 C76.515,392.535 79.838,385.89 83,379 C81.783,378.732 80.566,378.464 79.312,378.188 C75.77,377.283 72.876,376.353 70,374 C69.188,371.312 69.188,371.312 69,369 C71.346,367.108 73.686,365.228 76.125,363.457 C92.26,351.547 96.205,333.263 99.188,314.312 C99.365,313.217 99.542,312.122 99.725,310.994 C100.155,308.33 100.58,305.666 101,303 C100.273,303.08 99.547,303.16 98.798,303.243 C90.69,304.072 82.626,304.503 75.375,300.125 C73.008,298.007 72.223,297.123 72,294 C71.34,294.33 70.68,294.66 70,295 C67.25,295.375 67.25,295.375 64,295 C61.062,292.625 61.062,292.625 59.785,291.289 C57.892,289.764 57.892,289.764 54.703,289.094 C48.893,287.378 44.424,283.741 39.61,280.186 C38.136,279.1 36.643,278.039 35.148,276.98 C28.974,272.401 25.593,267.72 22,261 C20.878,259.248 19.753,257.498 18.625,255.75 C16.395,252.036 15.115,249.426 16,245 C18,243 18,243 19.888,242.912 C20.646,242.984 21.403,243.055 22.184,243.129 C23.444,243.23 23.444,243.23 24.73,243.332 C25.623,243.408 26.517,243.484 27.438,243.562 C34.416,244.053 40.194,244.052 46.875,241.672 C49,241 49,241 52.375,241.312 C53.241,241.209 54.107,241.106 55,241 C56.38,239.003 57.482,236.917 58.633,234.781 C59.084,234.193 59.535,233.606 60,233 C63.812,232.5 63.812,232.5 67,233 C67.33,232.134 67.66,231.268 68,230.375 C72.449,222.867 80.886,218.655 89,216 C93.952,214.971 98.966,214.455 104,214 C103.676,212.947 103.353,211.894 103.02,210.809 C99.853,198.98 102.512,183.457 107.883,172.508 C109,171 109,171 111.75,169.938 C112.493,169.958 113.235,169.979 114,170 C114.08,169.3 114.16,168.6 114.242,167.879 C115.177,164.328 117.003,161.86 119.125,158.938 C124.212,151.649 128.372,143.918 132.5,136.062 C144.468,113.326 144.468,113.326 151.296,104.283 C155.669,98.153 156.399,91.773 157.438,84.438 C163.103,48.63 163.103,48.63 173,33 C173.529,32.08 174.057,31.159 174.602,30.211 C181.928,17.475 181.928,17.475 187,16.312 Z"/>
  <path fill="#7D604A" d="M166.688,199.625 C169,200 169,200 170,201 C170.701,206.326 168.876,210.544 166.973,215.414 C166.148,217.606 165.509,219.718 165,222 C166.65,222.33 168.3,222.66 170,223 C170,223.66 170,224.32 170,225 C170.598,225.041 171.196,225.083 171.812,225.125 C174,226 174,226 175.625,228.5 C179.394,238.093 179.556,247.833 180,258 C181.65,258 183.3,258 185,258 C185.99,259.98 185.99,259.98 187,262 C187.99,261.34 188.98,260.68 190,260 C191.878,259.577 191.878,259.577 193.992,259.324 C195.164,259.17 195.164,259.17 196.36,259.012 C197.19,258.905 198.02,258.798 198.875,258.688 C212.01,256.784 223.434,253.192 232.625,243.125 C235,241 235,241 238.312,240.688 C239.199,240.791 240.086,240.894 241,241 C240.484,240.484 239.969,239.969 239.438,239.438 C237.396,235.976 238.096,233.826 239,230 C239.99,228.515 239.99,228.515 241,227 C243.64,227.33 246.28,227.66 249,228 C248.589,233.241 247.76,236.24 244,240 C243.34,240 242.68,240 242,240 C242.34,241.33 242.34,241.33 242.688,242.688 C243.077,246.818 242.587,247.786 240,251 C237.413,253.434 234.74,255.741 232,258 C232.871,258.461 233.743,258.923 234.641,259.398 C246.483,265.822 256.435,273.483 265,284 C272.229,292.804 280.097,298.774 290.285,303.859 C292,305 292,305 293,308 C294.073,307.918 295.145,307.835 296.25,307.75 C300,308 300,308 302.5,309.688 C304,312 304,312 304.25,314.375 C301.158,320.868 294.553,323.367 288.125,325.75 C279.053,328.907 270.097,330.189 260.562,330.875 C252.285,331.538 252.285,331.538 244.438,334.125 C232.364,339.258 214.682,336.741 202.854,332.171 C198.17,330.253 193.574,328.168 189,326 C188.887,326.727 188.773,327.454 188.656,328.203 C186.421,337.731 178.467,346.421 170.443,351.675 C167.196,354.765 167.135,356.799 166.672,361.215 C166.593,361.908 166.513,362.6 166.431,363.314 C166.183,365.52 165.966,367.728 165.75,369.938 C165.513,372.142 165.269,374.346 165.026,376.55 C164.808,378.552 164.604,380.555 164.401,382.558 C164.067,385.426 163.586,388.177 163,391 C162.9,392.958 162.818,394.916 162.75,396.875 C162.296,403.677 161.104,410.21 159.688,416.875 C159.487,417.849 159.286,418.824 159.079,419.828 C155.717,435.049 146.979,445.991 134.055,454.477 C127.58,457.705 121.53,458.356 114.375,457.938 C113.288,457.915 113.288,457.915 112.18,457.893 C106.559,457.592 103.858,456.128 100,452 C98.054,447.69 97.447,443.529 99.062,439.062 C102.454,435.452 104.661,434.091 109.688,433.75 C114.475,433.933 119.242,434.454 124,435 C128.67,429.13 131.259,422.947 134,416 C134.33,415.34 134.66,414.68 135,414 C137.603,399.751 138.46,385.451 138,371 C124.503,374.34 124.503,374.34 115,384 C113.844,385.466 112.688,386.932 111.523,388.391 C106.606,394.604 102.11,401.089 97.755,407.707 C94.414,412.699 94.414,412.699 91.891,414.531 C88.644,417.053 87.422,421.037 85.82,424.73 C83.587,429.559 81.3,432.034 77,435 C73.828,436.025 71.213,435.857 68,435 C62.857,431.875 58.958,427.751 57,422 C56.577,418.546 56.755,416.573 58.125,413.375 C60,411 60,411 62.809,409.25 C66.296,406.791 68.55,404.091 70.938,400.625 C71.362,400.022 71.787,399.418 72.224,398.796 C76.515,392.535 79.838,385.89 83,379 C81.783,378.732 80.566,378.464 79.312,378.188 C75.77,377.283 72.876,376.353 70,374 C69.188,371.312 69.188,371.312 69,369 C71.346,367.108 73.686,365.228 76.125,363.457 C92.26,351.547 96.205,333.263 99.188,314.312 C99.365,313.217 99.542,312.122 99.725,310.994 C100.155,308.33 100.58,305.666 101,303 C100.273,303.08 99.547,303.16 98.798,303.243 C90.69,304.072 82.626,304.503 75.375,300.125 C73.008,298.007 72.223,297.123 72,294 C72.66,294 73.32,294 74,294 C74,293.34 74,292.68 74,292 C76.312,291.375 76.312,291.375 79,291 C80.485,291.99 80.485,291.99 82,293 C83.978,293.306 83.978,293.306 86.125,293.266 C86.914,293.268 87.703,293.271 88.516,293.273 C89.335,293.266 90.155,293.258 91,293.25 C91.82,293.258 92.64,293.265 93.484,293.273 C94.273,293.271 95.062,293.268 95.875,293.266 C96.954,293.262 96.954,293.262 98.055,293.259 C100.324,293.102 100.324,293.102 103,291 C104.072,291.082 105.145,291.165 106.25,291.25 C110.838,290.944 111.849,289.703 115.043,286.668 C119.916,282.515 125.542,279.609 132,280 C132.144,279.361 132.289,278.721 132.438,278.062 C133,276 133,276 134,275 C136.938,274.812 136.938,274.812 140,275 C142,277 142,277 142.125,279.625 C142.084,280.409 142.042,281.193 142,282 C139.291,283.354 136.991,283.065 134,283 C133.938,283.598 133.876,284.196 133.812,284.812 C132.664,287.904 130.846,288.414 128,290 C119.821,294.562 114.467,298.568 110,307 C109.206,310.207 109.206,310.207 108.754,313.699 C108.556,314.992 108.358,316.284 108.154,317.615 C107.857,319.644 107.565,321.673 107.273,323.703 C106.068,331.986 104.572,339.409 101,347 C100.279,348.644 100.279,348.644 99.543,350.32 C95.752,358.165 91.129,363.908 85,370 C86.439,369.716 87.876,369.423 89.312,369.125 C90.113,368.963 90.914,368.8 91.738,368.633 C94.253,368.055 94.253,368.055 97,366 C99.625,365.812 99.625,365.812 102,366 C103,367 103,367 103.062,370.062 C103.042,371.032 103.021,372.001 103,373 C103.66,373.33 104.32,373.66 105,374 C105.33,372.35 105.66,370.7 106,369 C107.039,368.746 108.078,368.492 109.148,368.23 C112.771,367.34 116.389,366.43 120.004,365.508 C121.636,365.093 123.269,364.684 124.902,364.277 C131.52,362.486 137.09,359.423 143,356 C144.141,355.377 145.282,354.755 146.457,354.113 C159.361,347.043 173.377,337.691 180,324 C182.251,312.511 182.511,301.049 177.094,290.516 C175.905,287.781 175.995,285.935 176,283 C173.589,281.337 173.589,281.337 171,280 C170.67,279.01 170.34,278.02 170,277 C168.515,277.495 168.515,277.495 167,278 C165.294,278.093 163.584,278.13 161.875,278.125 C160.986,278.128 160.096,278.13 159.18,278.133 C157,278 157,278 156,277 C155.134,277.165 154.268,277.33 153.375,277.5 C149.456,276.919 148.841,276.285 146.312,273.375 C138.712,262.596 138.819,247.552 140.387,234.871 C141.109,230.9 141.733,228.401 144,225 C147.125,224.812 147.125,224.812 150,225 C150.495,223.515 150.495,223.515 151,222 C152.98,221.67 154.96,221.34 157,221 C157,218.03 157,215.06 157,212 C157.66,212 158.32,212 159,212 C159.083,210.948 159.165,209.896 159.25,208.812 C160.192,204.022 161.466,200.354 166.688,199.625 Z"/>
  <path fill="#3F0404" d="M187,16.312 C192.014,17.462 194.035,20.662 196.938,24.688 C198.484,29.508 197.302,33.208 196,38 C194.259,44.42 193.333,50.736 192.5,57.34 C192.102,60.25 191.621,63.07 191,65.938 C189.988,70.724 189.39,75.531 188.818,80.387 C188.378,84.082 187.896,87.759 187.312,91.434 C185.456,103.253 184.295,115.082 183.312,127 C183.246,127.804 183.179,128.608 183.111,129.436 C182.921,131.749 182.735,134.062 182.551,136.375 C182.467,137.418 182.467,137.418 182.381,138.481 C182.109,141.996 181.94,145.474 182,149 C188.105,129.373 193.829,109.852 198.125,89.738 C200.439,78.908 202.879,68.122 205.538,57.371 C205.882,55.978 206.225,54.585 206.565,53.191 C212.948,27.099 212.948,27.099 222.312,19 C226.282,17.523 229.827,17.214 234,18 C237.261,19.679 239.428,21.897 241.133,25.184 C251.642,59.314 224.133,110.869 212.226,142.874 C207.825,153.689 207.825,153.689 206,165 C206.909,164.674 207.818,164.348 208.754,164.012 C221.642,159.481 233.932,156.757 247.625,156.5 C249.048,156.454 249.048,156.454 250.5,156.407 C258.002,156.405 258.002,156.405 261.148,159.531 C261.759,160.346 262.37,161.161 263,162 C262.01,162.33 261.02,162.66 260,163 C259.67,163.99 259.34,164.98 259,166 C257.852,166.075 257.852,166.075 256.68,166.152 C253.161,166.386 249.643,166.63 246.125,166.875 C244.921,166.954 243.717,167.032 242.477,167.113 C221.426,168.601 199.057,174.403 184.477,190.703 C183,192 183,192 180,192 C180.021,192.804 180.041,193.609 180.062,194.438 C180,197 180,197 179,198 C176,198.125 176,198.125 173,198 C172,197 172,197 171.875,194.5 C172,192 172,192 173,191 C174.666,190.959 176.334,190.957 178,191 C178,190.01 178,189.02 178,188 C177.381,187.876 176.762,187.753 176.125,187.625 C174,187 174,187 172,185 C171.405,181.732 171.044,178.463 170.66,175.164 C169.976,171.887 169.003,170.578 167,168 C167.312,164.25 167.312,164.25 168,161 C166.35,160.34 164.7,159.68 163,159 C163,157.02 163,155.04 163,153 C164.32,152.34 165.64,151.68 167,151 C166.67,149.68 166.34,148.36 166,147 C165.216,146.917 164.432,146.835 163.625,146.75 C161,146 161,146 159.906,144.34 C155.966,134.166 156.458,122.601 158,112 C151.735,120.545 146.748,129.424 142.087,138.917 C137.033,149.19 131.107,158.565 124.48,167.906 C123.293,169.585 122.141,171.289 121,173 C118.375,173.188 118.375,173.188 116,173 C115.845,174.794 115.845,174.794 115.688,176.625 C115.241,180.8 114.392,184.788 113.438,188.875 C110.923,198.996 110.923,198.996 113.02,208.836 C114.476,210.62 114.476,210.62 117,213 C117.495,213.866 117.99,214.732 118.5,215.625 C120.271,218.43 122.337,220.056 125,222 C124.125,226.875 124.125,226.875 123,228 C116.74,228.472 116.74,228.472 113.75,226.562 C113.173,226.047 112.595,225.531 112,225 C102.892,221.964 93.535,224.267 85,228 C79.66,230.607 79.66,230.607 76,235 C74.35,235 72.7,235 71,235 C71,234.34 71,233.68 71,233 C70.01,232.67 69.02,232.34 68,232 C69.336,226.324 73.307,223.923 78,221 C86.41,216.11 94.457,214.863 104,214 C103.515,212.42 103.515,212.42 103.02,210.809 C99.853,198.98 102.512,183.457 107.883,172.508 C109,171 109,171 111.75,169.938 C112.493,169.958 113.235,169.979 114,170 C114.08,169.3 114.16,168.6 114.242,167.879 C115.177,164.328 117.003,161.86 119.125,158.938 C124.212,151.649 128.372,143.918 132.5,136.062 C144.468,113.326 144.468,113.326 151.296,104.283 C155.669,98.153 156.399,91.773 157.438,84.438 C163.103,48.63 163.103,48.63 173,33 C173.529,32.08 174.057,31.159 174.602,30.211 C181.928,17.475 181.928,17.475 187,16.312 Z"/>
  <path fill="#FBF8BD" d="M227,261 C227.144,261.908 227.289,262.815 227.438,263.75 C229.504,268.049 231.796,268.665 236.102,270.336 C236.728,270.555 237.355,270.774 238,271 C238,271.66 238,272.32 238,273 C238.742,273.247 239.485,273.495 240.25,273.75 C243.262,275.119 244.748,276.607 247,279 C247.804,279.639 248.609,280.279 249.438,280.938 C253.844,284.484 257.518,288.581 261.25,292.812 C269.745,302.233 278.085,309.793 291,312 C291,312.99 291,313.98 291,315 C289.292,315.626 287.584,316.251 285.875,316.875 C284.924,317.223 283.972,317.571 282.992,317.93 C282.005,318.283 281.017,318.636 280,319 C279.123,319.351 278.247,319.701 277.344,320.062 C272.493,321.422 267.635,321.731 262.625,322.125 C261.603,322.211 260.581,322.298 259.527,322.387 C257.019,322.598 254.51,322.802 252,323 C251.2,326.287 250.903,327.71 252,331 C250.68,331 249.36,331 248,331 C247.67,329.35 247.34,327.7 247,326 C242.859,325.79 242.859,325.79 239,327 C212.741,328.2 212.741,328.2 202.046,321.94 C199.722,320.872 197.806,320.605 195.266,320.379 C194.464,320.304 193.663,320.228 192.837,320.151 C192.231,320.101 191.625,320.051 191,320 C190.986,318.814 190.972,317.628 190.957,316.406 C190.749,307.973 190.189,300.078 187.625,292 C187.311,291.005 187.311,291.005 186.991,289.99 C185.86,286.692 184.849,284.104 182,282 C181.01,281.67 180.02,281.34 179,281 C178.322,278.67 177.656,276.336 177,274 C176.01,273.34 175.02,272.68 174,272 C174.66,271.34 175.32,270.68 176,270 C176.99,270 177.98,270 179,270 C179.33,269.01 179.66,268.02 180,267 C181.134,266.876 182.269,266.753 183.438,266.625 C185.201,266.316 185.201,266.316 187,266 C187.33,265.34 187.66,264.68 188,264 C188.99,265.485 188.99,265.485 190,267 C203.774,269.243 214.279,261 227,261 Z"/>
  <path fill="#3E0404" d="M163,356 C164.32,356 165.64,356 167,356 C166.552,365.195 165.458,374.167 164.082,383.261 C163.358,388.146 162.828,392.935 162.625,397.875 C162.244,404.342 161.025,410.55 159.688,416.875 C159.487,417.851 159.286,418.826 159.079,419.832 C155.715,435.051 146.978,445.992 134.055,454.477 C127.58,457.705 121.53,458.356 114.375,457.938 C113.651,457.923 112.926,457.908 112.18,457.893 C106.559,457.592 103.858,456.128 100,452 C98.054,447.69 97.447,443.529 99.062,439.062 C102.454,435.452 104.661,434.091 109.688,433.75 C114.475,433.933 119.242,434.454 124,435 C128.67,429.13 131.259,422.947 134,416 C134.495,415.01 134.495,415.01 135,414 C137.603,399.751 138.46,385.451 138,371 C137.34,370.67 136.68,370.34 136,370 C136.93,369.598 136.93,369.598 137.879,369.188 C143.75,366.59 149.463,363.771 155.125,360.75 C155.788,360.397 156.452,360.044 157.135,359.68 C160.263,358.12 160.263,358.12 163,356 Z"/>
  <path fill="#785646" d="M165,93 C168.941,97.16 170.276,99.941 170.234,105.676 C169.979,108.203 169.329,110.289 168.5,112.688 C166.114,120.025 165.984,127.993 168.062,135.438 C169.428,140.625 168.656,144.397 166,149 C166,148.34 166,147.68 166,147 C165.216,146.917 164.432,146.835 163.625,146.75 C161,146 161,146 159.906,144.34 C155.966,134.166 156.458,122.601 158,112 C151.735,120.545 146.748,129.424 142.087,138.917 C137.033,149.19 131.107,158.565 124.48,167.906 C123.293,169.585 122.141,171.289 121,173 C118.375,173.188 118.375,173.188 116,173 C115.897,174.196 115.794,175.393 115.688,176.625 C115.241,180.8 114.392,184.788 113.438,188.875 C110.923,198.996 110.923,198.996 113.02,208.836 C114.476,210.62 114.476,210.62 117,213 C117.495,213.866 117.99,214.732 118.5,215.625 C120.271,218.43 122.337,220.056 125,222 C124.125,226.875 124.125,226.875 123,228 C116.74,228.472 116.74,228.472 113.75,226.562 C113.173,226.047 112.595,225.531 112,225 C102.892,221.964 93.535,224.267 85,228 C79.66,230.607 79.66,230.607 76,235 C74.35,235 72.7,235 71,235 C71,234.34 71,233.68 71,233 C70.01,232.67 69.02,232.34 68,232 C69.336,226.324 73.307,223.923 78,221 C86.41,216.11 94.457,214.863 104,214 C103.515,212.42 103.515,212.42 103.02,210.809 C99.853,198.98 102.512,183.457 107.883,172.508 C109,171 109,171 111.75,169.938 C112.493,169.958 113.235,169.979 114,170 C114.08,169.3 114.16,168.6 114.242,167.879 C115.177,164.328 117.003,161.86 119.125,158.938 C124.212,151.649 128.372,143.918 132.5,136.062 C137.323,126.9 142.282,117.922 147.918,109.23 C150.3,105.534 152.497,101.752 154.648,97.918 C157.365,94.064 160.236,92.047 165,93 Z"/>
  <path fill="#3E0404" d="M72,296 C72.876,296.445 72.876,296.445 73.77,296.898 C82.109,301.017 89.346,301.248 98.5,301.008 C99.655,301.005 100.81,301.003 102,301 C102.495,301.495 102.495,301.495 103,302 C102.933,304.319 102.633,306.591 102.363,308.895 C102.115,311.013 101.906,313.136 101.73,315.262 C100.94,323.153 99.198,330.347 96.75,337.875 C96.475,338.742 96.199,339.61 95.916,340.503 C91.894,352.315 84.642,361.95 73.504,367.762 C72.759,368.375 72.759,368.375 72,369 C72,370.32 72,371.64 72,373 C81.308,377.198 89.196,378.41 99,375 C101.332,374.925 103.669,374.907 106,375 C106,375.66 106,376.32 106,377 C111.28,376.34 116.56,375.68 122,375 C119.699,378.835 117.997,381.21 115,384.312 C110.449,389.264 106.721,394.582 102.967,400.152 C93.448,414.276 93.448,414.276 90,416 C88.554,418.846 87.208,421.713 85.918,424.633 C83.695,429.358 81.323,432.022 77,435 C73.828,436.025 71.213,435.857 68,435 C62.857,431.875 58.958,427.751 57,422 C56.577,418.546 56.755,416.573 58.125,413.375 C60,411 60,411 62.809,409.25 C66.296,406.791 68.55,404.091 70.938,400.625 C71.362,400.022 71.787,399.418 72.224,398.796 C76.515,392.535 79.838,385.89 83,379 C81.783,378.732 80.566,378.464 79.312,378.188 C75.77,377.283 72.876,376.353 70,374 C69.188,371.312 69.188,371.312 69,369 C71.346,367.108 73.686,365.228 76.125,363.457 C92.26,351.547 96.205,333.263 99.188,314.312 C99.365,313.217 99.542,312.122 99.725,310.994 C100.155,308.33 100.58,305.666 101,303 C100.273,303.08 99.547,303.16 98.798,303.243 C90.683,304.073 82.548,304.571 75.375,300 C73,298 73,298 72,296 Z"/>
  <path fill="#755645" d="M241,227 C243.64,227.33 246.28,227.66 249,228 C248.589,233.241 247.76,236.24 244,240 C243.34,240 242.68,240 242,240 C242.227,240.887 242.454,241.774 242.688,242.688 C243.077,246.818 242.587,247.786 240,251 C237.413,253.434 234.74,255.741 232,258 C232.871,258.461 233.743,258.923 234.641,259.398 C246.483,265.822 256.435,273.483 265,284 C272.229,292.804 280.097,298.774 290.285,303.859 C292,305 292,305 293,308 C294.073,307.918 295.145,307.835 296.25,307.75 C300,308 300,308 302.5,309.688 C304,312 304,312 304.25,314.375 C301.158,320.868 294.553,323.367 288.125,325.75 C282.467,327.636 276.895,329.109 271,330 C269.051,330.309 269.051,330.309 267.062,330.625 C262.121,331.171 256.931,331.697 252,331 C250,328 250,328 250.312,325.375 C251,323 251,323 252,322 C253.456,321.833 254.919,321.724 256.383,321.641 C266.956,320.93 276.367,319.807 286.297,316.023 C289,315 289,315 291,315 C291,314.01 291,313.02 291,312 C289.907,311.959 288.814,311.918 287.688,311.875 C275.487,310.187 267.558,301.118 259.54,292.618 C258.124,291.13 256.669,289.678 255.211,288.23 C253,286 253,286 251,283.375 C248.857,280.831 246.862,279.646 244,278 C242.647,276.686 241.311,275.356 240,274 C239.01,273.505 239.01,273.505 238,273 C238,272.34 238,271.68 238,271 C237.299,270.918 236.598,270.835 235.875,270.75 C232.228,269.799 229.887,268.417 227,266 C226.832,263.359 226.832,263.359 227,261 C226.082,261.338 225.164,261.675 224.219,262.023 C220.489,263.379 216.749,264.699 213,266 C212.279,266.257 211.559,266.513 210.816,266.777 C204.241,268.784 196.79,268.548 190,268 C189.01,267.34 188.02,266.68 187,266 C185.989,266 184.979,266 183.938,266 C182.968,266 181.999,266 181,266 C180.34,265.34 179.68,264.68 179,264 C179.375,261.375 179.375,261.375 180,259 C181.65,258.67 183.3,258.34 185,258 C185.66,259.32 186.32,260.64 187,262 C187.99,261.34 188.98,260.68 190,260 C191.878,259.577 191.878,259.577 193.992,259.324 C194.774,259.221 195.555,259.118 196.36,259.012 C197.19,258.905 198.02,258.798 198.875,258.688 C212.01,256.784 223.434,253.192 232.625,243.125 C235,241 235,241 238.312,240.688 C239.199,240.791 240.086,240.894 241,241 C240.484,240.484 239.969,239.969 239.438,239.438 C237.396,235.976 238.096,233.826 239,230 C239.66,229.01 240.32,228.02 241,227 Z"/>
  <path fill="#7A5B48" d="M136.938,274.812 C140,275 140,275 142,277 C142.125,279.625 142.125,279.625 142,282 C139.291,283.354 136.991,283.065 134,283 C133.907,283.897 133.907,283.897 133.812,284.812 C132.664,287.904 130.846,288.414 128,290 C119.821,294.562 114.467,298.568 110,307 C109.206,310.207 109.206,310.207 108.754,313.699 C108.556,314.992 108.358,316.284 108.154,317.615 C107.857,319.644 107.565,321.673 107.273,323.703 C106.068,331.986 104.572,339.409 101,347 C100.279,348.644 100.279,348.644 99.543,350.32 C95.752,358.165 91.129,363.908 85,370 C86.439,369.716 87.876,369.423 89.312,369.125 C90.113,368.963 90.914,368.8 91.738,368.633 C94.253,368.055 94.253,368.055 97,366 C99.625,365.812 99.625,365.812 102,366 C103,367 103,367 103.062,370.062 C103.042,371.032 103.021,372.001 103,373 C103.99,373.495 103.99,373.495 105,374 C105.33,372.35 105.66,370.7 106,369 C107.039,368.746 108.078,368.492 109.148,368.23 C113.438,367.176 117.721,366.095 122,365 C123.402,364.642 123.402,364.642 124.832,364.277 C130.907,362.595 136.387,360.027 142.02,357.207 C144.968,356.013 146.863,355.739 150,356 C150.33,356.99 150.66,357.98 151,359 C150.041,359.588 150.041,359.588 149.062,360.188 C146.751,361.823 146.751,361.823 146.645,364.484 C146,367 146,367 144.102,368.223 C142.876,368.638 142.876,368.638 141.625,369.062 C140.721,369.381 139.818,369.699 138.887,370.027 C137.934,370.348 136.981,370.669 136,371 C134.146,371.708 132.292,372.416 130.438,373.125 C122.126,376.09 114.838,377.332 106,377 C106,376.34 106,375.68 106,375 C104.395,375.31 102.791,375.623 101.188,375.938 C99.848,376.199 99.848,376.199 98.48,376.465 C95.886,376.977 95.886,376.977 93,378 C85.234,378.826 77.528,377.352 71,373 C71.296,369.786 71.536,368.396 74.039,366.262 C74.892,365.742 75.746,365.223 76.625,364.688 C89.97,355.854 95.423,342.121 99,327 C101.459,314.593 101.459,314.593 102,302 C100.877,302.035 99.754,302.07 98.598,302.105 C89.37,302.306 81.542,302.379 73.438,297.438 C72.963,296.963 72.489,296.489 72,296 C72,295.34 72,294.68 72,294 C72.66,294 73.32,294 74,294 C74,293.34 74,292.68 74,292 C76.312,291.375 76.312,291.375 79,291 C79.99,291.66 80.98,292.32 82,293 C83.978,293.306 83.978,293.306 86.125,293.266 C86.914,293.268 87.703,293.271 88.516,293.273 C89.335,293.266 90.155,293.258 91,293.25 C91.82,293.258 92.64,293.265 93.484,293.273 C94.273,293.271 95.062,293.268 95.875,293.266 C96.954,293.262 96.954,293.262 98.055,293.259 C100.324,293.102 100.324,293.102 103,291 C104.072,291.082 105.145,291.165 106.25,291.25 C110.838,290.944 111.849,289.703 115.043,286.668 C119.916,282.515 125.542,279.609 132,280 C132.144,279.361 132.289,278.721 132.438,278.062 C133.308,274.87 133.49,275.033 136.938,274.812 Z"/>
  <path fill="#FDF775" d="M161.625,223.812 C163.067,223.822 163.067,223.822 164.539,223.832 C167,224 167,224 169,225 C169,225.66 169,226.32 169,227 C169.99,227.33 170.98,227.66 172,228 C172,229.65 172,231.3 172,233 C172.66,233 173.32,233 174,233 C177.731,239.179 178.41,244.425 178.438,251.5 C178.447,252.294 178.457,253.089 178.467,253.907 C178.39,259.381 177.853,265.208 175,270 C172.892,270.748 172.892,270.748 171,271 C171,272.32 171,273.64 171,275 C168.249,275.917 166.641,276.109 163.812,276.062 C162.554,276.042 161.296,276.021 160,276 C159.602,275.043 159.602,275.043 159.195,274.066 C158.842,273.24 158.489,272.414 158.125,271.562 C157.777,270.739 157.429,269.915 157.07,269.066 C156.176,266.843 156.176,266.843 154,266 C154,265.34 154,264.68 154,264 C153.01,264 152.02,264 151,264 C148.378,258.049 148.705,252.123 148.75,245.75 C148.742,244.649 148.735,243.548 148.727,242.414 C148.729,241.365 148.732,240.315 148.734,239.234 C148.737,238.278 148.739,237.321 148.741,236.335 C149,234 149,234 151,232 C151.124,231.01 151.247,230.02 151.375,229 C152,226 152,226 153.688,224.824 C156.458,223.837 158.688,223.769 161.625,223.812 Z"/>
  <path fill="#755444" d="M167,149 C172.862,153.274 172.862,153.274 173.5,156.625 C173,159 173,159 171,162 C171.742,162.165 172.485,162.33 173.25,162.5 C177.238,164.675 178.624,167.75 180,172 C180.427,174.664 180.718,177.314 181,180 C181.941,179.313 182.882,178.626 183.852,177.918 C185.109,177.008 186.367,176.097 187.625,175.188 C188.242,174.736 188.86,174.284 189.496,173.818 C199.721,166.446 199.721,166.446 206,167 C206,166.34 206,165.68 206,165 C219.788,160.052 232.906,156.776 247.625,156.5 C248.574,156.469 249.523,156.439 250.5,156.407 C258.002,156.405 258.002,156.405 261.148,159.531 C261.759,160.346 262.37,161.161 263,162 C262.01,162.33 261.02,162.66 260,163 C259.67,163.99 259.34,164.98 259,166 C258.234,166.05 257.469,166.1 256.68,166.152 C253.161,166.386 249.643,166.63 246.125,166.875 C244.921,166.954 243.717,167.032 242.477,167.113 C221.426,168.601 199.057,174.403 184.477,190.703 C183,192 183,192 180,192 C180.021,192.804 180.041,193.609 180.062,194.438 C180,197 180,197 179,198 C176,198.125 176,198.125 173,198 C172,197 172,197 171.875,194.5 C172,192 172,192 173,191 C174.666,190.959 176.334,190.957 178,191 C178,190.01 178,189.02 178,188 C177.072,187.814 177.072,187.814 176.125,187.625 C174,187 174,187 172,185 C171.405,181.732 171.044,178.463 170.66,175.164 C169.976,171.887 169.003,170.578 167,168 C167.312,164.25 167.312,164.25 168,161 C165.525,160.01 165.525,160.01 163,159 C163,157.02 163,155.04 163,153 C164.32,152.34 165.64,151.68 167,151 C167,150.34 167,149.68 167,149 Z"/>
  <path fill="#795A48" d="M130,158 C128.5,161.116 126.82,164.06 125,167 C124.381,168.093 123.762,169.186 123.125,170.312 C121,173 121,173 118.25,173.375 C117.507,173.251 116.765,173.128 116,173 C115.897,174.196 115.794,175.393 115.688,176.625 C115.241,180.8 114.392,184.788 113.438,188.875 C110.923,198.996 110.923,198.996 113.02,208.836 C114.476,210.62 114.476,210.62 117,213 C117.495,213.866 117.99,214.732 118.5,215.625 C120.271,218.43 122.337,220.056 125,222 C124.125,226.875 124.125,226.875 123,228 C116.74,228.472 116.74,228.472 113.75,226.562 C113.173,226.047 112.595,225.531 112,225 C102.892,221.964 93.535,224.267 85,228 C79.66,230.607 79.66,230.607 76,235 C74.35,235 72.7,235 71,235 C71,234.34 71,233.68 71,233 C70.01,232.67 69.02,232.34 68,232 C69.336,226.324 73.307,223.923 78,221 C85.476,216.653 92.443,215.219 100.91,214.359 C103.906,214.189 103.906,214.189 106,213 C105.678,212.488 105.355,211.976 105.023,211.449 C101.619,203.302 103.85,192.124 105.75,183.75 C105.907,183.036 106.064,182.321 106.225,181.585 C107.698,175.69 110.072,173.285 115,170 C115.289,169.237 115.577,168.474 115.875,167.688 C117.801,163.087 120.608,160.573 125.188,158.688 C128,158 128,158 130,158 Z"/>
  <path fill="#735344" d="M271.414,160.98 C293.398,162.398 293.398,162.398 299,168 C299.688,171.25 299.688,171.25 299,175 C293.28,180.164 285.633,183.323 278.75,186.625 C267.846,191.859 259.567,196.965 255.298,208.976 C253.989,213.269 252.953,217.615 252,222 C248.625,222.188 248.625,222.188 245,222 C242.75,218.625 242.835,217.251 243.48,213.355 C246.029,201.799 251.724,191.824 261.156,184.574 C277.884,174 277.884,174 284,174 C284,173.34 284,172.68 284,172 C282.645,171.818 282.645,171.818 281.262,171.633 C279.492,171.381 279.492,171.381 277.688,171.125 C276.516,170.963 275.344,170.8 274.137,170.633 C271,170 271,170 268,168 C267.75,164.938 267.75,164.938 268,162 C269,161 269,161 271.414,160.98 Z"/>
  <path fill="#FBF999" d="M166.688,199.625 C169,200 169,200 170,201 C170.701,206.326 168.876,210.544 166.973,215.414 C166.148,217.606 165.509,219.718 165,222 C166.65,222.33 168.3,222.66 170,223 C170,223.66 170,224.32 170,225 C170.598,225.041 171.196,225.083 171.812,225.125 C174,226 174,226 175.625,228.5 C178.526,235.885 179.287,243.089 179.754,250.984 C179.937,253.966 179.937,253.966 180.555,256.715 C181.08,259.41 180.678,261.362 180,264 C181.65,264.66 183.3,265.32 185,266 C185,266.33 185,266.66 185,267 C184.196,267.124 183.391,267.247 182.562,267.375 C181.294,267.684 181.294,267.684 180,268 C179.67,268.66 179.34,269.32 179,270 C176.938,271.125 176.938,271.125 175,272 C175.99,272.99 175.99,272.99 177,274 C175.02,274.495 175.02,274.495 173,275 C172.67,276.65 172.34,278.3 172,280 C171.34,279.01 170.68,278.02 170,277 C168.515,277.495 168.515,277.495 167,278 C165.294,278.093 163.584,278.13 161.875,278.125 C160.986,278.128 160.096,278.13 159.18,278.133 C157,278 157,278 156,277 C155.134,277.165 154.268,277.33 153.375,277.5 C149.456,276.919 148.841,276.285 146.312,273.375 C138.712,262.596 138.819,247.552 140.387,234.871 C141.109,230.9 141.733,228.401 144,225 C147.125,224.812 147.125,224.812 150,225 C150.33,224.01 150.66,223.02 151,222 C152.98,221.67 154.96,221.34 157,221 C157,218.03 157,215.06 157,212 C157.66,212 158.32,212 159,212 C159.083,210.948 159.165,209.896 159.25,208.812 C160.192,204.022 161.466,200.354 166.688,199.625 Z M152,226 C150.77,229.512 150.77,229.512 150,233 C149.67,233.33 149.34,233.66 149,234 C148.746,237.889 148.815,241.791 148.812,245.688 C148.8,246.777 148.788,247.867 148.775,248.99 C148.766,254.368 148.78,258.989 151,264 C151.99,264 152.98,264 154,264 C154,264.66 154,265.32 154,266 C154.99,266.66 155.98,267.32 157,268 C157.949,269.945 157.949,269.945 158.688,272.125 C158.939,272.849 159.19,273.574 159.449,274.32 C159.631,274.875 159.813,275.429 160,276 C161.258,276.021 162.516,276.041 163.812,276.062 C164.52,276.074 165.228,276.086 165.957,276.098 C168.203,276.083 168.203,276.083 171,275 C171,273.68 171,272.36 171,271 C171.784,270.835 172.568,270.67 173.375,270.5 C176.377,269.174 176.377,269.174 177.141,265.496 C178.165,260.849 178.383,256.309 178.375,251.562 C178.376,250.729 178.378,249.896 178.379,249.038 C178.272,242.831 177.25,238.383 174,233 C173.34,233 172.68,233 172,233 C172,231.35 172,229.7 172,228 C171.01,227.67 170.02,227.34 169,227 C169,226.34 169,225.68 169,225 C166.427,223.713 164.498,223.832 161.625,223.812 C160.669,223.798 159.712,223.784 158.727,223.77 C155.905,224.008 154.31,224.376 152,226 Z"/>
  <path fill="#6D4D3E" d="M54,241 C55,242 55,242 55.062,245.562 C55.042,246.697 55.021,247.831 55,249 C46.093,253.148 38.641,253.468 29,253 C36.154,265.052 42.93,271.782 54.996,278.801 C57,280 57,280 58,281 C58.141,283.671 58.042,286.324 58,289 C53.026,289.399 50.778,288.624 46.875,285.562 C45.929,284.828 44.983,284.093 44.008,283.336 C43.015,282.565 42.023,281.794 41,281 C39.966,280.291 38.932,279.582 37.867,278.852 C30.536,273.762 26.294,268.758 22,261 C20.854,259.229 19.708,257.458 18.562,255.688 C16.364,251.999 15.123,249.384 16,245 C18,243 18,243 19.888,242.912 C20.646,242.984 21.403,243.055 22.184,243.129 C23.024,243.196 23.864,243.263 24.73,243.332 C26.07,243.446 26.07,243.446 27.438,243.562 C34.362,244.05 40.19,244.123 46.809,241.691 C49.323,240.898 51.379,240.816 54,241 Z"/>
  <path fill="#100000" d="M234,18 C237.261,19.679 239.428,21.897 241.133,25.184 C251.285,58.154 225.576,107.111 213.995,138.051 C213.708,138.818 213.421,139.585 213.125,140.375 C212.851,141.105 212.578,141.834 212.296,142.586 C209.458,150.269 207.192,158.112 205,166 C204.34,166 203.68,166 203,166 C203.546,158.9 205.637,152.689 208,146 C208.311,145.054 208.621,144.108 208.941,143.133 C210.568,138.319 212.389,133.583 214.219,128.844 C221.948,108.671 229.155,88.3 234.562,67.375 C234.885,66.139 235.207,64.902 235.539,63.629 C241.215,43.094 241.215,43.094 237,23 C233.878,20.057 232.32,20 228,20 C223.646,20.792 221.703,22.421 219,26 C214.36,33.775 212.088,42.037 209.875,50.75 C209.541,52.018 209.207,53.287 208.863,54.594 C206.323,64.357 204.173,74.178 202.179,84.065 C198.733,101.145 195.071,117.992 189.625,134.562 C189.3,135.553 189.3,135.553 188.968,136.563 C185.275,147.723 185.275,147.723 183,152 C182.34,151.67 181.68,151.34 181,151 C181.407,149.788 181.407,149.788 181.823,148.551 C189.248,126.326 195.068,104.103 199.964,81.181 C201.688,73.213 203.58,65.289 205.537,57.376 C205.882,55.981 206.225,54.585 206.565,53.19 C212.948,27.099 212.948,27.099 222.312,19 C226.282,17.523 229.827,17.214 234,18 Z"/>
  <path fill="#755645" d="M192,319 C197.115,319.29 200.766,320.225 205.375,322.5 C210.761,325.05 215.076,325.901 221,326 C221.713,326.014 222.425,326.027 223.16,326.042 C232.357,326.78 232.357,326.78 241,325 C244.062,324.875 244.062,324.875 247,325 C248,326 248,326 248.062,328.562 C248.042,329.367 248.021,330.171 248,331 C248.99,331.495 248.99,331.495 250,332 C237.54,338.402 221.772,337.401 208.477,334.133 C201.76,331.944 195.376,329.022 189,326 C188.867,326.757 188.734,327.513 188.598,328.293 C187.887,331.513 186.55,334.103 185,337 C184.34,336.01 183.68,335.02 183,334 C183.454,333.278 183.908,332.556 184.375,331.812 C185.855,329.251 186.972,326.767 188,324 C188.99,324 189.98,324 191,324 C191.33,322.35 191.66,320.7 192,319 Z"/>
  <path fill="#7E5F49" d="M144,225 C146.5,224.688 146.5,224.688 149,225 C151,227 151,227 151.188,230.062 C151,233 151,233 150,234 C149.689,237.825 149.721,241.664 149.688,245.5 C149.658,246.565 149.629,247.63 149.6,248.727 C149.532,257.207 151.322,262.983 156,270 C156.188,272.625 156.188,272.625 156,275 C155,276 155,276 152.312,276.562 C148.669,275.944 148.114,275.573 145.812,272.875 C138.349,261.709 138.539,245.029 140.875,232.188 C141.546,229.094 142.179,227.732 144,225 Z"/>
  <path fill="#100000" d="M164,357 C164.99,357.33 165.98,357.66 167,358 C166.594,361.896 166.185,365.792 165.773,369.688 C165.565,371.661 165.36,373.634 165.154,375.607 C164.956,377.478 164.956,377.478 164.754,379.387 C164.633,380.534 164.513,381.68 164.389,382.862 C164.047,385.617 163.556,388.282 163,391 C162.9,392.958 162.818,394.916 162.75,396.875 C162.296,403.677 161.104,410.21 159.688,416.875 C159.487,417.849 159.286,418.824 159.079,419.828 C155.717,435.049 146.979,445.991 134.055,454.477 C127.58,457.705 121.53,458.356 114.375,457.938 C113.651,457.923 112.926,457.908 112.18,457.893 C106.559,457.592 103.858,456.128 100,452 C98.054,447.69 97.447,443.529 99.062,439.062 C102.454,435.452 104.661,434.091 109.688,433.75 C114.475,433.933 119.242,434.454 124,435 C128.67,429.13 131.259,422.947 134,416 C134.495,415.01 134.495,415.01 135,414 C137.603,399.751 138.46,385.451 138,371 C138.66,371 139.32,371 140,371 C142.788,380.421 140.917,391.173 139.75,400.75 C139.641,401.708 139.532,402.665 139.419,403.652 C138.548,410.283 136.688,415.898 134,422 C133.557,423.154 133.113,424.307 132.656,425.496 C132.275,426.467 131.893,427.437 131.5,428.438 C130.928,429.921 130.928,429.921 130.344,431.434 C128.845,434.296 127.732,435.328 125,437 C122.773,437.277 122.773,437.277 120.375,437.152 C119.504,437.125 118.632,437.097 117.734,437.068 C115.911,436.981 114.088,436.89 112.266,436.795 C107.021,436.567 107.021,436.567 102.371,438.723 C100.353,442.075 100.841,444.14 101.449,447.875 C102.133,450.515 102.99,452.145 105,454 C112.333,456.444 122.584,456.294 129.973,454.129 C132.21,452.925 134.055,451.631 136,450 C137.002,449.238 137.002,449.238 138.023,448.461 C153.183,436.206 157.33,420.548 160,402 C160.459,397.442 160.677,392.886 160.824,388.309 C161,385 161,385 162,382 C162.216,380.083 162.389,378.162 162.535,376.238 C162.622,375.12 162.709,374.002 162.799,372.85 C162.886,371.682 162.973,370.515 163.062,369.312 C163.153,368.134 163.244,366.955 163.338,365.74 C163.562,362.827 163.783,359.914 164,357 Z"/>
  <path fill="#0F0000" d="M187,16.312 C192.014,17.462 194.035,20.662 196.938,24.688 C198.484,29.508 197.302,33.208 196,38 C194.259,44.42 193.333,50.736 192.5,57.34 C192.102,60.25 191.621,63.07 191,65.938 C189.988,70.724 189.39,75.531 188.818,80.387 C188.378,84.082 187.896,87.759 187.312,91.434 C185.203,104.88 184.059,118.343 183.09,131.913 C182.975,133.433 182.861,134.953 182.746,136.473 C182.7,137.173 182.655,137.873 182.607,138.594 C182.333,142.154 181.905,144.944 180,148 C179.973,145.813 179.953,143.625 179.938,141.438 C179.926,140.219 179.914,139.001 179.902,137.746 C179.998,134.078 180.468,130.627 181,127 C181.147,124.311 181.271,121.628 181.375,118.938 C181.718,111.59 182.498,104.349 183.5,97.062 C183.631,96.109 183.761,95.156 183.896,94.174 C184.4,90.642 184.869,87.392 186,84 C186.341,81.5 186.652,79.006 186.938,76.5 C187.501,71.733 188.13,67.024 189.062,62.312 C189.834,58.377 190.171,54.567 190.375,50.562 C190.662,45.911 191.505,42.117 193.125,37.75 C195.142,32.295 195.135,28.674 194,23 C193.34,23 192.68,23 192,23 C190.627,21.708 189.29,20.376 188,19 C184.487,19.95 183.212,20.683 181.156,23.758 C180.61,24.869 180.063,25.98 179.5,27.125 C177.579,30.925 175.7,34.599 173.312,38.125 C170.348,42.752 168.667,47.79 167,53 C166.765,53.731 166.53,54.461 166.288,55.214 C164.417,61.212 163.057,67.196 161.938,73.375 C161.768,74.285 161.599,75.196 161.425,76.134 C160.205,82.743 159.045,89.361 158,96 C157.34,96 156.68,96 156,96 C157.909,74.513 161.822,51.695 173,33 C173.509,32.111 174.018,31.221 174.543,30.305 C182.002,17.458 182.002,17.458 187,16.312 Z"/>
  <path fill="#7D6049" d="M222,253 C222.144,253.742 222.289,254.485 222.438,255.25 C222.902,257.521 223.429,259.755 224,262 C212.374,266.402 202.514,269.009 190,268 C189.01,267.34 188.02,266.68 187,266 C185.989,266 184.979,266 183.938,266 C182.968,266 181.999,266 181,266 C180.34,265.34 179.68,264.68 179,264 C179.375,261.375 179.375,261.375 180,259 C181.65,258.67 183.3,258.34 185,258 C185.66,259.32 186.32,260.64 187,262 C187.99,261.34 188.98,260.68 190,260 C191.91,259.561 191.91,259.561 194.062,259.289 C194.855,259.181 195.647,259.072 196.463,258.96 C197.3,258.85 198.137,258.739 199,258.625 C205.696,257.669 211.786,256.386 218.066,253.77 C220,253 220,253 222,253 Z"/>
  <path fill="#705243" d="M104,214 C104.495,214.99 104.495,214.99 105,216 C102.69,216.66 100.38,217.32 98,218 C98,218.99 98,219.98 98,221 C99.65,221 101.3,221 103,221 C103.495,221.99 103.495,221.99 104,223 C103.105,223.159 102.211,223.317 101.289,223.48 C92.667,225.144 84.087,226.913 77.688,233.312 C76,235 76,235 73.25,235.25 C72.507,235.167 71.765,235.085 71,235 C71,234.34 71,233.68 71,233 C70.01,232.67 69.02,232.34 68,232 C69.336,226.324 73.307,223.923 78,221 C86.41,216.11 94.457,214.863 104,214 Z"/>
  <path fill="#80604C" d="M182,336 C182.66,336.66 183.32,337.32 184,338 C178.956,343.787 173.895,349.087 168,354 C167.67,354.66 167.34,355.32 167,356 C165.343,356.69 163.674,357.351 162,358 C158.63,359.84 155.295,361.733 151.961,363.637 C149,365 149,365 146,364 C146.312,362.062 146.312,362.062 147,360 C147.99,359.67 148.98,359.34 150,359 C149.67,358.34 149.34,357.68 149,357 C147.02,357 145.04,357 143,357 C145.388,354.313 147.864,352.918 151.062,351.312 C156.959,348.191 161.942,344.323 167,340 C167.33,341.32 167.66,342.64 168,344 C166.68,344.99 165.36,345.98 164,347 C164.33,347.66 164.66,348.32 165,349 C164.34,349 163.68,349 163,349 C163.99,350.485 163.99,350.485 165,352 C171.384,347.17 176.98,342.25 182,336 Z"/>
  <path fill="#0F0000" d="M118,378 C118.66,378.33 119.32,378.66 120,379 C119.564,379.41 119.127,379.819 118.677,380.241 C114.191,384.57 110.564,389.105 107.062,394.25 C106.024,395.746 104.985,397.242 103.945,398.738 C103.196,399.824 103.196,399.824 102.431,400.932 C100.457,403.785 98.457,406.617 96.438,409.438 C95.838,410.282 95.239,411.126 94.621,411.996 C93,414 93,414 90,416 C88.505,418.856 87.161,421.73 85.869,424.682 C83.669,429.398 81.309,432.03 77,435 C73.828,436.025 71.213,435.857 68,435 C62.857,431.875 58.958,427.751 57,422 C56.577,418.546 56.755,416.573 58.125,413.375 C60,411 60,411 62.809,409.25 C66.296,406.791 68.55,404.091 70.938,400.625 C71.574,399.72 71.574,399.72 72.224,398.796 C76.515,392.535 79.838,385.89 83,379 C83.66,379.33 84.32,379.66 85,380 C81.921,391.7 72.887,404.408 63.438,411.75 C61.406,413.431 60.207,414.438 59.293,416.918 C58.865,422.068 61.128,425.516 64.355,429.363 C66.491,431.489 68.015,432.478 71,433 C74.676,432.923 76.518,432.35 79.5,430.188 C82.708,426.682 84.448,422.229 86.375,417.938 C88.192,414.653 90.344,412.648 93,410 C95.174,407.053 97.172,403.994 99.188,400.938 C112.862,380.569 112.862,380.569 118,378 Z"/>
  <path fill="#795A48" d="M32,259 C34.021,260.819 35.273,262.455 36.688,264.812 C41.334,271.217 48.249,274.876 54.996,278.801 C57,280 57,280 58,281 C58.141,283.671 58.042,286.324 58,289 C51.703,287.509 47.13,283.738 42,280 C41.286,279.528 40.572,279.056 39.836,278.57 C35.107,275.437 35.107,275.437 34.504,272.98 C34.135,270.607 34.135,270.607 31,269 C30.73,265.284 30.819,262.543 32,259 Z"/>
  <path fill="#543025" d="M156,96 C156.66,96.33 157.32,96.66 158,97 C155.064,103.143 151.697,108.613 147.799,114.18 C144.899,118.411 142.543,122.748 140.297,127.358 C134.594,138.973 128.571,150.573 120.609,160.805 C119.024,162.968 117.88,165.074 116.75,167.5 C115.106,170.787 114.197,172.295 111,174 C110.34,174 109.68,174 109,174 C103.622,194.103 103.622,194.103 107,214 C106.01,213.67 105.02,213.34 104,213 C98.742,202.485 102.641,187.712 105.914,177.012 C106.783,174.796 107.584,172.911 109,171 C111.75,169.938 111.75,169.938 114,170 C114.08,169.3 114.16,168.6 114.242,167.879 C115.177,164.328 117.003,161.86 119.125,158.938 C124.212,151.649 128.372,143.918 132.5,136.062 C137.929,125.749 143.67,115.785 150,106 C152.026,102.682 154.021,99.346 156,96 Z"/>
  <path fill="#513126" d="M72,296 C72.584,296.296 73.168,296.593 73.77,296.898 C82.109,301.017 89.346,301.248 98.5,301.008 C99.655,301.005 100.81,301.003 102,301 C102.495,301.495 102.495,301.495 103,302 C102.933,304.319 102.633,306.591 102.363,308.895 C102.115,311.013 101.906,313.136 101.73,315.262 C100.94,323.153 99.198,330.347 96.75,337.875 C96.475,338.742 96.199,339.61 95.916,340.503 C91.894,352.315 84.642,361.95 73.504,367.762 C73.008,368.17 72.511,368.579 72,369 C72,370.32 72,371.64 72,373 C78.664,376.49 85.597,377.127 93,378 C93,378.33 93,378.66 93,379 C84.844,379.505 78.265,378.965 71,375 C70.34,374.34 69.68,373.68 69,373 C69.02,370.648 69.02,370.648 70,368 C72.512,365.789 72.512,365.789 75.688,363.625 C91.452,352.388 95.568,335.859 98.701,317.456 C99.495,312.641 100.261,307.823 101,303 C100.273,303.08 99.547,303.16 98.798,303.243 C90.683,304.073 82.548,304.571 75.375,300 C73,298 73,298 72,296 Z"/>
  <path fill="#7E6049" d="M254,192 C256.233,196.465 256.68,201.863 255.172,206.602 C254.438,208.272 253.689,209.936 252.926,211.594 C251.536,215.205 251.717,218.173 252,222 C248.625,222.188 248.625,222.188 245,222 C242.754,218.631 242.843,217.266 243.465,213.375 C245.333,205.086 248.461,198.443 254,192 Z"/>
  <path fill="#7E644B" d="M241,227 C243.64,227.33 246.28,227.66 249,228 C248.589,233.241 247.76,236.24 244,240 C243.34,240 242.68,240 242,240 C242.34,241.145 242.34,241.145 242.688,242.312 C243,245 243,245 242.062,246.75 C239.829,248.103 238.502,248.287 235.938,248.562 C231.998,248.585 231.998,248.585 230,251 C228.68,251 227.36,251 226,251 C226,251.66 226,252.32 226,253 C224.68,252.67 223.36,252.34 222,252 C222.52,251.625 223.039,251.25 223.574,250.863 C226.89,248.43 229.839,246.176 232.625,243.125 C235,241 235,241 238.312,240.688 C239.643,240.842 239.643,240.842 241,241 C240.484,240.484 239.969,239.969 239.438,239.438 C237.396,235.976 238.096,233.826 239,230 C239.66,229.01 240.32,228.02 241,227 Z"/>
  <path fill="#7E5C4A" d="M150,356 C150.33,356.99 150.66,357.98 151,359 C150.361,359.392 149.721,359.784 149.062,360.188 C146.751,361.823 146.751,361.823 146.645,364.484 C146,367 146,367 144.102,368.223 C143.284,368.5 142.467,368.777 141.625,369.062 C140.729,369.377 139.833,369.692 138.91,370.016 C137.95,370.34 136.989,370.665 136,371 C134.513,371.58 134.513,371.58 132.996,372.172 C125.389,375.13 125.389,375.13 122,374 C124.97,372.68 127.94,371.36 131,370 C130.224,366.925 130.224,366.925 128,365 C128.99,364.67 129.98,364.34 131,364 C131.446,363.54 131.892,363.08 132.352,362.605 C134.48,360.533 136.677,359.543 139.375,358.312 C140.311,357.876 141.247,357.439 142.211,356.988 C145.021,355.993 147.047,355.801 150,356 Z"/>
  <path fill="#7A5E46" d="M169,200 C170,201 170,201 170.215,203.637 C169.971,207.455 168.991,210.271 167.562,213.812 C167.11,214.953 166.658,216.094 166.191,217.27 C165,220 165,220 164,221 C161.5,221.125 161.5,221.125 159,221 C158,220 158,220 157.75,216.5 C157.818,211.147 158.971,205.457 162.441,201.254 C164.646,199.48 166.254,199.711 169,200 Z"/>
  <path fill="#7A5C3B" d="M146,226 C147.65,226.33 149.3,226.66 151,227 C151.043,229 151.041,231 151,233 C150.67,233.33 150.34,233.66 150,234 C148.84,239.979 148.884,245.864 148.938,251.938 C148.942,252.908 148.947,253.878 148.951,254.877 C148.963,257.251 148.979,259.626 149,262 C148.01,261.67 147.02,261.34 146,261 C145.67,258.36 145.34,255.72 145,253 C144.01,253.66 143.02,254.32 142,255 C141.064,251.845 140.894,249.034 140.938,245.75 C140.947,244.858 140.956,243.966 140.965,243.047 C140.976,242.371 140.988,241.696 141,241 C141.66,242.32 142.32,243.64 143,245 C143.66,245 144.32,245 145,245 C145,242.03 145,239.06 145,236 C144.67,236.66 144.34,237.32 144,238 C143.34,238 142.68,238 142,238 C141.629,232.435 141.629,232.435 143.438,230.312 C144.211,229.663 144.211,229.663 145,229 C145.33,228.01 145.66,227.02 146,226 Z"/>
  <path fill="#F3EB91" d="M178,260 C178.414,260.951 178.414,260.951 178.836,261.922 C180.39,264.695 182.043,265.066 185,266 C185,266.33 185,266.66 185,267 C184.196,267.124 183.391,267.247 182.562,267.375 C181.717,267.581 180.871,267.788 180,268 C179.67,268.66 179.34,269.32 179,270 C176.938,271.125 176.938,271.125 175,272 C175.66,272.66 176.32,273.32 177,274 C175.68,274.33 174.36,274.66 173,275 C172.67,276.65 172.34,278.3 172,280 C171.34,279.01 170.68,278.02 170,277 C169.01,277.33 168.02,277.66 167,278 C165.294,278.093 163.584,278.13 161.875,278.125 C160.541,278.129 160.541,278.129 159.18,278.133 C157,278 157,278 156,277 C154,276.959 152,276.957 150,277 C150,276.67 150,276.34 150,276 C151.65,275.67 153.3,275.34 155,275 C154.532,270.944 154.12,267.534 152,264 C152.66,264 153.32,264 154,264 C154,264.66 154,265.32 154,266 C154.619,266.186 155.238,266.371 155.875,266.562 C159.056,268.714 159.195,271.375 160,275 C163.63,275 167.26,275 171,275 C171,273.68 171,272.36 171,271 C171.624,270.765 172.248,270.531 172.891,270.289 C175.603,268.632 175.89,267.386 176.75,264.375 C176.992,263.558 177.235,262.74 177.484,261.898 C177.655,261.272 177.825,260.645 178,260 Z"/>
  <path fill="#54372B" d="M231,259 C244.318,260.909 256.829,274.006 265,284 C272.231,292.802 280.096,298.774 290.285,303.859 C292,305 292,305 293,308 C292.34,308 291.68,308 291,308 C290.566,307.557 290.131,307.113 289.684,306.656 C287.653,304.658 285.627,303.735 283.062,302.5 C273.047,297.155 265.624,288.808 258.188,280.402 C250.995,272.503 243.137,266.994 233.93,261.75 C232.963,261.172 231.996,260.595 231,260 C231,259.67 231,259.34 231,259 Z"/>
  <path fill="#775746" d="M171,338 C171.66,338.33 172.32,338.66 173,339 C173,339.66 173,340.32 173,341 C174.98,340.67 176.96,340.34 179,340 C174.613,345.625 170.089,349.306 164,353 C163.34,351.02 162.68,349.04 162,347 C165,344 168,341 171,338 Z"/>
  <path fill="#947C5D" d="M182,336 C182.66,336.66 183.32,337.32 184,338 C178.956,343.787 173.895,349.087 168,354 C167.67,354.66 167.34,355.32 167,356 C165.345,356.694 163.675,357.356 162,358 C159.116,359.576 156.271,361.211 153.426,362.855 C152.625,363.233 151.825,363.611 151,364 C150.34,363.67 149.68,363.34 149,363 C149.86,362.478 150.72,361.956 151.605,361.418 C162.949,354.404 173.743,346.616 182,336 Z"/>
  <path fill="#785D45" d="M136.938,274.812 C140,275 140,275 142,277 C142.125,279.625 142.125,279.625 142,282 C139.291,283.354 136.991,283.065 134,283 C133.67,283.99 133.34,284.98 133,286 C133,284.68 133,283.36 133,282 C129.37,282.33 125.74,282.66 122,283 C125.006,279.994 127.824,280.404 132,280 C132.144,279.361 132.289,278.721 132.438,278.062 C133.308,274.87 133.49,275.033 136.938,274.812 Z"/>
  <path fill="#7E6548" d="M241,227 C243.64,227.33 246.28,227.66 249,228 C248.562,232.557 248.15,235.577 245,239 C244.34,238.67 243.68,238.34 243,238 C243.33,237.01 243.66,236.02 244,235 C243.34,234.67 242.68,234.34 242,234 C242,234.66 242,235.32 242,236 C240.68,236.33 239.36,236.66 238,237 C238.75,230.375 238.75,230.375 241,227 Z"/>
  <path fill="#755742" d="M104,214 C104.33,214.66 104.66,215.32 105,216 C102.69,216.66 100.38,217.32 98,218 C98,218.99 98,219.98 98,221 C99.65,221 101.3,221 103,221 C103.33,221.66 103.66,222.32 104,223 C102.042,223.195 100.084,223.38 98.125,223.562 C97.034,223.667 95.944,223.771 94.82,223.879 C92,224 92,224 90,223 C89.172,220.516 89,218.648 89,216 C93.95,215.34 98.9,214.68 104,214 Z"/>
  <path fill="#847051" d="M63,286 C66.716,285.799 67.772,285.848 71,288 C71.688,291.125 71.688,291.125 72,294 C69.125,295.437 67.181,295.382 64,295 C61.625,292.5 61.625,292.5 60,290 C60.66,290 61.32,290 62,290 C62.33,288.68 62.66,287.36 63,286 Z"/>
  <path fill="#755D4A" d="M60,233 C62.339,233.287 64.674,233.619 67,234 C66.67,236.31 66.34,238.62 66,241 C62.305,241.95 59.695,241.95 56,241 C58.875,234.125 58.875,234.125 60,233 Z"/>
  <path fill="#EEE48F" d="M157,212 C157.33,212 157.66,212 158,212 C158.33,214.64 158.66,217.28 159,220 C160.98,220 162.96,220 165,220 C164.67,221.32 164.34,222.64 164,224 C162.762,224.144 161.525,224.289 160.25,224.438 C157.435,224.787 154.73,225.204 152,226 C152,227.98 152,229.96 152,232 C151.67,232 151.34,232 151,232 C150.34,229.69 149.68,227.38 149,225 C150.75,223 150.75,223 153,221 C154.32,221 155.64,221 157,221 C157,218.03 157,215.06 157,212 Z"/>
  <path fill="#826853" d="M233,260 C234.875,261.562 234.875,261.562 236,263 C235.67,263.66 235.34,264.32 235,265 C234.34,265 233.68,265 233,265 C233,265.99 233,266.98 233,268 C233.66,268 234.32,268 235,268 C235,268.66 235,269.32 235,270 C229.25,268.25 229.25,268.25 227,266 C226.875,263.375 226.875,263.375 227,261 C226.34,260.67 225.68,260.34 225,260 C227.937,258.532 229.868,259.233 233,260 Z"/>
  <path fill="#6C483D" d="M134,363 C135.625,365 135.625,365 137,367 C137.66,366.67 138.32,366.34 139,366 C139.33,366.99 139.66,367.98 140,369 C138.129,369.821 136.253,370.631 134.375,371.438 C132.809,372.116 132.809,372.116 131.211,372.809 C128.113,373.958 125.268,374.573 122,375 C124.647,372.353 127.562,371.401 131,370 C130.224,366.925 130.224,366.925 128,365 C131.75,363 131.75,363 134,363 Z"/>
  <path fill="#81634D" d="M122,283 C122,283.66 122,284.32 122,285 C123.65,285 125.3,285 127,285 C127,285.99 127,286.98 127,288 C126.01,288.33 125.02,288.66 124,289 C124.33,289.66 124.66,290.32 125,291 C122.69,290.67 120.38,290.34 118,290 C118,289.34 118,288.68 118,288 C116.02,288.66 114.04,289.32 112,290 C118.816,283 118.816,283 122,283 Z"/>
  <path fill="#846F4E" d="M129.438,227.812 C132,228 132,228 134,230 C133.444,234.556 133.444,234.556 132,236 C129.562,236.188 129.562,236.188 127,236 C126.34,235.34 125.68,234.68 125,234 C125.72,228.098 125.72,228.098 129.438,227.812 Z"/>
  <path fill="#81694B" d="M178,189 C178.33,189.66 178.66,190.32 179,191 C181.025,191.652 181.025,191.652 183,192 C182.01,192 181.02,192 180,192 C180.021,192.804 180.041,193.609 180.062,194.438 C180,197 180,197 179,198 C176,198.125 176,198.125 173,198 C172,197 172,197 171.875,194.5 C172,192 172,192 173,191 C174.666,190.959 176.334,190.957 178,191 C178,190.34 178,189.68 178,189 Z"/>
  <path fill="#EAE384" d="M178,260 C178.276,260.634 178.552,261.268 178.836,261.922 C180.39,264.695 182.043,265.066 185,266 C185,266.33 185,266.66 185,267 C184.196,267.124 183.391,267.247 182.562,267.375 C181.294,267.684 181.294,267.684 180,268 C179.67,268.66 179.34,269.32 179,270 C176.938,271.125 176.938,271.125 175,272 C175.66,272.66 176.32,273.32 177,274 C175.68,274.33 174.36,274.66 173,275 C172.67,276.65 172.34,278.3 172,280 C171.67,280 171.34,280 171,280 C171,277.03 171,274.06 171,271 C172.32,270.34 173.64,269.68 175,269 C176.123,266.837 176.123,266.837 176.75,264.375 C176.992,263.558 177.235,262.74 177.484,261.898 C177.655,261.272 177.825,260.645 178,260 Z"/>
  <path fill="#5D362B" d="M125,150 C125.66,150.66 126.32,151.32 127,152 C126.203,153.052 126.203,153.052 125.391,154.125 C120.596,160.521 120.596,160.521 116.75,167.5 C115.103,170.794 114.23,172.333 111,174 C110.01,174 109.02,174 108,174 C108.66,172.68 109.32,171.36 110,170 C111.32,170 112.64,170 114,170 C114.061,169.336 114.121,168.672 114.184,167.988 C115.326,163.805 117.605,160.72 120.062,157.188 C120.535,156.495 121.007,155.802 121.494,155.088 C122.655,153.387 123.827,151.693 125,150 Z"/>
  <path fill="#7C6149" d="M75,226 C77.625,227.438 77.625,227.438 80,229 C78.987,232.039 78.505,233.121 76,235 C73.312,235.188 73.312,235.188 71,235 C71,234.34 71,233.68 71,233 C70.01,232.67 69.02,232.34 68,232 C68.639,231.732 69.279,231.464 69.938,231.188 C72.331,230.113 72.331,230.113 73,227 C73.66,226.67 74.32,226.34 75,226 Z M75,228 C75.33,228.66 75.66,229.32 76,230 C76.33,229.34 76.66,228.68 77,228 C76.34,228 75.68,228 75,228 Z"/>
  <path fill="#765545" d="M150,356 C150.33,356.99 150.66,357.98 151,359 C150.361,359.392 149.721,359.784 149.062,360.188 C146.562,362.385 146.35,363.758 146,367 C145.34,366.67 144.68,366.34 144,366 C144,365.01 144,364.02 144,363 C143.01,362.67 142.02,362.34 141,362 C141.33,360.35 141.66,358.7 142,357 C144.928,356.024 146.956,355.918 150,356 Z"/>
  <path fill="#624938" d="M269,161 C277.04,161.049 284.447,162.289 292,165 C288.487,166.171 286.745,165.442 283.273,164.48 C279.527,163.689 275.809,163.841 272,164 C271.67,165.32 271.34,166.64 271,168 C270.01,168 269.02,168 268,168 C267.957,166 267.959,164 268,162 C268.33,161.67 268.66,161.34 269,161 Z"/>
  <path fill="#6D513B" d="M192,320 C193.32,320 194.64,320 196,320 C195.875,321.875 195.875,321.875 195,324 C191.938,325.25 191.938,325.25 189,326 C188.897,326.701 188.794,327.402 188.688,328.125 C187.906,331.391 186.579,334.047 185,337 C184.34,336.01 183.68,335.02 183,334 C183.454,333.278 183.908,332.556 184.375,331.812 C185.855,329.251 186.972,326.767 188,324 C188.99,324 189.98,324 191,324 C191.33,322.68 191.66,321.36 192,320 Z"/>
  <path fill="#7C644A" d="M52,279 C56.875,279.875 56.875,279.875 58,281 C58.141,283.671 58.042,286.324 58,289 C57.01,288.67 56.02,288.34 55,288 C54.312,285.938 54.312,285.938 54,284 C53.34,284 52.68,284 52,284 C52,282.35 52,280.7 52,279 Z"/>
  <path fill="#765443" d="M141,241 C141.66,242.32 142.32,243.64 143,245 C143.99,245 144.98,245 146,245 C146.25,247.75 146.25,247.75 146,251 C144,253.375 144,253.375 142,255 C141.064,251.845 140.894,249.034 140.938,245.75 C140.947,244.858 140.956,243.966 140.965,243.047 C140.976,242.371 140.988,241.696 141,241 Z"/>
  <path fill="#E8DBB0" d="M116,173 C117.65,173.33 119.3,173.66 121,174 C120.423,177.892 118.5,180.045 116,183 C115.34,183.99 114.68,184.98 114,186 C114.142,184.583 114.289,183.166 114.438,181.75 C114.519,180.961 114.6,180.172 114.684,179.359 C114.976,177.176 115.421,175.123 116,173 Z"/>
  <path fill="#7A5F4E" d="M246,228 C246.99,228 247.98,228 249,228 C248.562,232.557 248.15,235.577 245,239 C244.34,238.67 243.68,238.34 243,238 C243.33,237.01 243.66,236.02 244,235 C243.34,234.34 242.68,233.68 242,233 C242.99,232.34 243.98,231.68 245,231 C245.33,230.01 245.66,229.02 246,228 Z"/>
  <path fill="#5D4137" d="M283,182 C283.99,182.33 284.98,182.66 286,183 C283.38,184.364 280.754,185.716 278.125,187.062 C277.005,187.647 277.005,187.647 275.863,188.244 C275.148,188.608 274.432,188.972 273.695,189.348 C272.706,189.858 272.706,189.858 271.696,190.379 C271.136,190.584 270.577,190.789 270,191 C269.34,190.67 268.68,190.34 268,190 C270.251,186.398 271.976,185.354 276.062,184.312 C279.624,183.402 279.624,183.402 283,182 Z"/>
  <path fill="#8F753F" d="M148,241 C148.33,241 148.66,241 149,241 C149.049,242.134 149.098,243.269 149.148,244.438 C149.224,245.958 149.299,247.479 149.375,249 C149.406,249.744 149.437,250.488 149.469,251.254 C149.738,256.406 150.611,261.03 152,266 C151.01,265.67 150.02,265.34 149,265 C147.883,262.108 147.883,259.307 147.902,256.234 C147.906,255.345 147.909,254.455 147.912,253.539 C147.925,252.158 147.925,252.158 147.938,250.75 C147.942,249.814 147.947,248.878 147.951,247.914 C147.963,245.609 147.979,243.305 148,241 Z"/>
  <path fill="#F2EDA8" d="M157,212 C157.33,212 157.66,212 158,212 C158.33,215.63 158.66,219.26 159,223 C154,225 154,225 150,225 C150.33,224.01 150.66,223.02 151,222 C152.98,221.67 154.96,221.34 157,221 C157,218.03 157,215.06 157,212 Z"/>
  <path fill="#92795E" d="M242,234 C242.99,234.33 243.98,234.66 245,235 C244.67,236.65 244.34,238.3 244,240 C243.34,240 242.68,240 242,240 C242,240.66 242,241.32 242,242 C239.03,242.66 236.06,243.32 233,244 C233.66,243.01 234.32,242.02 235,241 C238.125,240.812 238.125,240.812 241,241 C240.34,239.68 239.68,238.36 239,237 C239.99,236.67 240.98,236.34 242,236 C242,235.34 242,234.68 242,234 Z"/>
  <path fill="#897254" d="M192,319 C196.714,319.479 200.666,319.968 205,322 C201.598,324.094 198.947,324.179 195,324 C195.33,322.68 195.66,321.36 196,320 C194.68,319.67 193.36,319.34 192,319 Z"/>
  <path fill="#7B643E" d="M179,260 C179.99,260.495 179.99,260.495 181,261 C181.99,260.67 182.98,260.34 184,260 C184.66,260.66 185.32,261.32 186,262 C185.625,264.125 185.625,264.125 185,266 C183.35,265.67 181.7,265.34 180,265 C179.67,263.35 179.34,261.7 179,260 Z"/>
  <path fill="#896C56" d="M161,108 C162.019,111.891 162.168,113.606 160.562,117.375 C160.047,118.241 159.531,119.107 159,120 C158.174,117.108 158,115.113 158,112 C157.01,112.495 157.01,112.495 156,113 C156,112.01 156,111.02 156,110 C159,108 159,108 161,108 Z"/>
  <path fill="#A28C6C" d="M133,276 C133.33,276 133.66,276 134,276 C135.25,282.625 135.25,282.625 133,286 C133,284.68 133,283.36 133,282 C129.37,282.33 125.74,282.66 122,283 C125.006,279.994 127.824,280.404 132,280 C132.33,278.68 132.66,277.36 133,276 Z"/>
  <path fill="#97835D" d="M181,258 C182.65,258.33 184.3,258.66 186,259 C186.33,259.99 186.66,260.98 187,262 C187.66,262 188.32,262 189,262 C188.67,263.32 188.34,264.64 188,266 C187.01,265.67 186.02,265.34 185,265 C184.312,262.938 184.312,262.938 184,261 C182.68,261.33 181.36,261.66 180,262 C180.33,260.68 180.66,259.36 181,258 Z"/>
  <path fill="#CFAA98" d="M163,354 C163.66,354.33 164.32,354.66 165,355 C160.775,358.802 156.433,362.116 151,364 C150.34,363.67 149.68,363.34 149,363 C151.286,361.469 153.578,359.95 155.875,358.438 C156.851,357.781 156.851,357.781 157.848,357.111 C159.526,356.012 161.26,354.999 163,354 Z"/>
  <path fill="#563D32" d="M104,214 C104.33,214.66 104.66,215.32 105,216 C99.239,217.298 93.913,218.257 88,218 C88.33,217.34 88.66,216.68 89,216 C91.54,215.524 94.001,215.16 96.562,214.875 C97.273,214.789 97.984,214.702 98.717,214.613 C100.477,214.401 102.238,214.199 104,214 Z"/>
  <path fill="#6D5146" d="M63,289 C64.485,289.99 64.485,289.99 66,291 C66.99,290.67 67.98,290.34 69,290 C69,291.65 69,293.3 69,295 C67.35,295 65.7,295 64,295 C62.938,293.125 62.938,293.125 62,291 C62.33,290.34 62.66,289.68 63,289 Z"/>
  <path fill="#81614D" d="M89,357 C90,360 90,360 89,363 C89.66,363.33 90.32,363.66 91,364 C89.68,364.99 88.36,365.98 87,367 C85.875,364.688 85.875,364.688 85,362 C85.66,361.01 86.32,360.02 87,359 C87.66,359 88.32,359 89,359 C89,358.34 89,357.68 89,357 Z"/>
  <path fill="#82693B" d="M152,267 C152.99,267.33 153.98,267.66 155,268 C155.33,270.31 155.66,272.62 156,275 C154.35,275.33 152.7,275.66 151,276 C151.66,275.67 152.32,275.34 153,275 C152.67,272.36 152.34,269.72 152,267 Z"/>
  <path fill="#947F60" d="M163,153 C166.875,155.625 166.875,155.625 168,159 C168.66,159.33 169.32,159.66 170,160 C169.67,160.99 169.34,161.98 169,163 C168.67,162.34 168.34,161.68 168,161 C166.356,160.278 164.689,159.606 163,159 C163,157.02 163,155.04 163,153 Z"/>
  <path fill="#8E7B59" d="M144,225 C146.625,224.812 146.625,224.812 149,225 C148.01,225.33 147.02,225.66 146,226 C145.783,226.866 145.783,226.866 145.562,227.75 C144.795,230.821 143.041,232.63 141,235 C141.75,228.375 141.75,228.375 144,225 Z"/>
  <path fill="#EEE593" d="M178,260 C178.34,260.928 178.34,260.928 178.688,261.875 C180.379,264.614 181.992,265.05 185,266 C185,266.33 185,266.66 185,267 C184.196,267.124 183.391,267.247 182.562,267.375 C181.294,267.684 181.294,267.684 180,268 C179.67,268.66 179.34,269.32 179,270 C178.34,269.67 177.68,269.34 177,269 C176.902,262.848 176.902,262.848 177,261 C177.33,260.67 177.66,260.34 178,260 Z"/>
  <path fill="#EBDEB3" d="M189,256 C189.33,256.99 189.66,257.98 190,259 C192.31,259 194.62,259 197,259 C197,259.33 197,259.66 197,260 C195.36,260.217 195.36,260.217 193.688,260.438 C190.069,260.883 190.069,260.883 187,262 C186.34,260.68 185.68,259.36 185,258 C186.32,257.34 187.64,256.68 189,256 Z"/>
  <path fill="#E3D479" d="M149,249 C150.93,252.859 152.125,255.261 152.062,259.625 C152.053,260.442 152.044,261.26 152.035,262.102 C152.024,262.728 152.012,263.355 152,264 C150.07,260.141 148.875,257.739 148.938,253.375 C148.947,252.558 148.956,251.74 148.965,250.898 C148.976,250.272 148.988,249.645 149,249 Z"/>
  <path fill="#FDFDA9" d="M163,222 C164.98,222 166.96,222 169,222 C169.33,222.99 169.66,223.98 170,225 C172.015,225.733 172.015,225.733 174,226 C174.33,227.32 174.66,228.64 175,230 C174.602,229.55 174.203,229.1 173.793,228.637 C171.748,226.77 169.858,225.883 167.312,224.812 C166.504,224.468 165.696,224.124 164.863,223.77 C164.248,223.516 163.634,223.262 163,223 C163,222.67 163,222.34 163,222 Z"/>
  <path fill="#785C42" d="M167,149 C167.99,150.32 168.98,151.64 170,153 C168.68,154.32 167.36,155.64 166,157 C165.34,156.34 164.68,155.68 164,155 C164.375,152.875 164.375,152.875 165,151 C165.66,151 166.32,151 167,151 C167,150.34 167,149.68 167,149 Z"/>
  <path fill="#A1886C" d="M182,282 C180.68,282 179.36,282 178,282 C178,282.99 178,283.98 178,285 C178.66,285.33 179.32,285.66 180,286 C179.34,286 178.68,286 178,286 C177.67,286.99 177.34,287.98 177,289 C176.67,288.67 176.34,288.34 176,288 C176.041,287.196 176.083,286.391 176.125,285.562 C176.063,284.294 176.063,284.294 176,283 C175.01,282.34 174.02,281.68 173,281 C176.779,279.95 178.649,279.89 182,282 Z"/>
  <path fill="#84704D" d="M134,275 C136.875,274.875 136.875,274.875 140,275 C142,277 142,277 142.125,279.625 C142.084,280.409 142.042,281.193 142,282 C141.34,282 140.68,282 140,282 C139.938,281.381 139.876,280.763 139.812,280.125 C139.171,277.722 139.171,277.722 136.438,276.75 C135.633,276.503 134.829,276.255 134,276 C134,275.67 134,275.34 134,275 Z"/>
  <path fill="#E4D8AE" d="M125,222 C125.33,222 125.66,222 126,222 C126,230.375 126,230.375 124,234 C123.67,232.68 123.34,231.36 123,230 C121.35,229.67 119.7,229.34 118,229 C118,228.67 118,228.34 118,228 C119.454,227.629 119.454,227.629 120.938,227.25 C122.453,226.631 122.453,226.631 124,226 C124.969,223.968 124.969,223.968 125,222 Z"/>
  <path fill="#E3D5AD" d="M213,174 C204.532,179.323 204.532,179.323 200.848,178.547 C200.238,178.366 199.628,178.186 199,178 C200.575,177.131 202.161,176.28 203.75,175.438 C204.632,174.962 205.513,174.486 206.422,173.996 C209.207,172.92 210.27,172.935 213,174 Z"/>
  <path fill="#D2C89E" d="M55,241 C57.97,241.33 60.94,241.66 64,242 C60,243 60,243 57,243 C56.67,244.65 56.34,246.3 56,248 C55.67,248 55.34,248 55,248 C55,245.69 55,243.38 55,241 Z"/>
  <path fill="#573B2A" d="M103,302 C103,303.65 103,305.3 103,307 C102.01,307.495 102.01,307.495 101,308 C101,306.35 101,304.7 101,303 C98.69,303 96.38,303 94,303 C97.351,300.89 99.221,300.95 103,302 Z"/>
  <path fill="#DDCCAB" d="M158,111 C158.33,111 158.66,111 159,111 C158.67,113.97 158.34,116.94 158,120 C157.34,119.01 156.68,118.02 156,117 C155.01,117.66 154.02,118.32 153,119 C154.37,116.049 155.932,113.517 158,111 Z"/>
  <path fill="#755743" d="M132,229 C131.67,230.65 131.34,232.3 131,234 C129.68,234 128.36,234 127,234 C126.67,233.01 126.34,232.02 126,231 C129,229 129,229 132,229 Z"/>
  <path fill="#E6DCAF" d="M197,179 C197.66,179.33 198.32,179.66 199,180 C193.857,185.571 193.857,185.571 190,186 C194.75,180.125 194.75,180.125 197,179 Z"/>
  <path fill="#F0E2BD" d="M276,171 C278.64,171.33 281.28,171.66 284,172 C284,172.66 284,173.32 284,174 C282.02,174.66 280.04,175.32 278,176 C278.33,174.68 278.66,173.36 279,172 C278.01,171.67 277.02,171.34 276,171 Z"/>
  <path fill="#543C31" d="M114,167 C114.66,167.99 115.32,168.98 116,170 C111.375,174 111.375,174 108,174 C108.66,172.68 109.32,171.36 110,170 C111.32,170 112.64,170 114,170 C114,169.01 114,168.02 114,167 Z"/>
  <path fill="#2C0000" d="M179,146 C181,148 181,148 181,152 C181.66,152.33 182.32,152.66 183,153 C181.02,153.99 181.02,153.99 179,155 C178.121,148.848 178.121,148.848 178,147 C178.33,146.67 178.66,146.34 179,146 Z"/>
  <path fill="#F4E9BE" d="M157,116 C157,119.96 157,123.92 157,128 C156.67,128 156.34,128 156,128 C156,125.36 156,122.72 156,120 C154.68,120.33 153.36,120.66 152,121 C152,120.34 152,119.68 152,119 C155.577,116 155.577,116 157,116 Z"/>
  <path fill="#63362D" d="M108,374 C108,374.66 108,375.32 108,376 C110.64,376 113.28,376 116,376 C116,376.33 116,376.66 116,377 C112.7,377 109.4,377 106,377 C106,376.34 106,375.68 106,375 C104.68,374.67 103.36,374.34 102,374 C105,373 105,373 108,374 Z"/>
  <path fill="#E2D6AB" d="M90,225 C90.66,225.33 91.32,225.66 92,226 C89.69,227.65 87.38,229.3 85,231 C84.01,230.34 83.02,229.68 82,229 C83.287,228.303 84.579,227.618 85.875,226.938 C86.594,226.555 87.314,226.172 88.055,225.777 C88.697,225.521 89.339,225.264 90,225 Z"/>
  <path fill="#917C59" d="M162,202 C162.66,202.99 163.32,203.98 164,205 C163.01,206.485 163.01,206.485 162,208 C162,208.66 162,209.32 162,210 C161.01,210.33 160.02,210.66 159,211 C159.498,207.265 159.875,205.188 162,202 Z"/>
  <path fill="#DECBA5" d="M249,324 C250.206,326.332 251.165,328.496 252,331 C250.68,331 249.36,331 248,331 C247.67,329.02 247.34,327.04 247,325 C247.66,324.67 248.32,324.34 249,324 Z"/>
  <path fill="#DED1A6" d="M100,347 C100.33,347 100.66,347 101,347 C101.312,349.75 101.312,349.75 101,353 C98.5,355.375 98.5,355.375 96,357 C97.333,353.667 98.667,350.333 100,347 Z"/>
  <path fill="#897356" d="M167,340 C167.33,341.32 167.66,342.64 168,344 C165.525,345.485 165.525,345.485 163,347 C162.34,346.34 161.68,345.68 161,345 C162.98,343.35 164.96,341.7 167,340 Z"/>
  <path fill="#FDF9AC" d="M180,267 C180.33,267.99 180.66,268.98 181,270 C179.68,271.32 178.36,272.64 177,274 C176.01,273.34 175.02,272.68 174,272 C174.66,271.34 175.32,270.68 176,270 C176.99,270 177.98,270 179,270 C179.33,269.01 179.66,268.02 180,267 Z"/>
  <path fill="#81664B" d="M147,121 C147.99,121.33 148.98,121.66 150,122 C148.25,127.75 148.25,127.75 146,130 C146,128.35 146,126.7 146,125 C146.66,125 147.32,125 148,125 C148,124.34 148,123.68 148,123 C147.34,122.67 146.68,122.34 146,122 C146.33,121.67 146.66,121.34 147,121 Z"/>
  <path fill="#604339" d="M247,231 C247.66,231.66 248.32,232.32 249,233 C247.02,235.97 247.02,235.97 245,239 C244.34,238.67 243.68,238.34 243,238 C243.33,237.01 243.66,236.02 244,235 C244.66,235 245.32,235 246,235 C246.33,233.68 246.66,232.36 247,231 Z"/>
  <path fill="#8C7757" d="M254,192 C254.33,192.66 254.66,193.32 255,194 C254.062,196.625 254.062,196.625 253,199 C252.01,199 251.02,199 250,199 C251.074,196.085 251.778,194.222 254,192 Z"/>
  <path fill="#95805F" d="M267,181 C267.66,181.33 268.32,181.66 269,182 C266.166,185.254 264.314,186.521 260,187 C262.257,184.665 264.281,182.813 267,181 Z"/>
  <path fill="#7C664A" d="M199,175 C200.32,175.66 201.64,176.32 203,177 C197.25,180 197.25,180 195,180 C195.33,179.01 195.66,178.02 196,177 C196.99,177 197.98,177 199,177 C199,176.34 199,175.68 199,175 Z"/>
</svg>
