<svg xmlns="http://www.w3.org/2000/svg" version="1.1" width="225" height="247">
  <defs/>
  <path fill="#E81F61" d="M172.875,17.625 C176.283,18.637 179.001,20.077 182,22 C183.196,22.495 184.393,22.99 185.625,23.5 C188.517,24.785 190.054,25.596 192,28 C190.586,32.167 188.576,35.02 185.75,38.375 C184.946,39.339 184.141,40.303 183.312,41.297 C181.485,43.433 179.627,45.533 177.75,47.625 C174.961,50.824 173.02,54.321 171.078,58.082 C170,60 170,60 168,62 C167.357,64.069 167.357,64.069 167,66 C168.918,65.845 168.918,65.845 170.875,65.688 C177.834,65.688 183.481,68.781 188.625,73.312 C189.409,74.199 190.193,75.086 191,76 C191.626,76.575 192.253,77.15 192.898,77.742 C200.339,84.629 203.606,92.651 207.203,101.969 C207.973,104.022 207.973,104.022 209,106 C210.512,120.055 211.439,134.839 206.109,148.125 C204.466,152.384 203.27,156.763 202.027,161.152 C201.014,163.962 200.047,165.835 198,168 C195.312,168.25 195.312,168.25 193,168 C191.68,165.36 190.36,162.72 189,160 C188.34,160.66 187.68,161.32 187,162 C186.314,162.677 186.314,162.677 185.613,163.367 C184.439,164.556 183.294,165.774 182.168,167.008 C178.896,170.506 176.311,173.2 171.688,174.688 C167.298,176.25 167.209,177.112 165,181 C162.159,183.548 159.088,185.763 156,188 C155.188,188.603 154.376,189.207 153.539,189.828 C146.014,195.288 138.477,200.382 129,201 C128.773,201.763 128.546,202.526 128.312,203.312 C126.671,206.674 125.253,207.2 122,209 C120.898,209.628 119.796,210.256 118.66,210.902 C116.861,211.921 115.062,212.938 113.26,213.951 C110.434,215.554 107.714,217.193 105.02,219.016 C101.654,221.227 98.244,223.059 94.625,224.812 C94.004,225.137 93.382,225.461 92.742,225.795 C87.673,228.24 84.509,227.852 79,227 C78.01,227.66 77.02,228.32 76,229 C74.824,229.33 73.649,229.66 72.438,230 C68.969,230.71 68.969,230.71 67,233 C57.963,236.305 46.185,238.331 36.938,234.812 C30.671,230.946 26.823,225.742 24,219 C23.875,215.688 23.875,215.688 24,213 C23.464,212.319 22.928,211.639 22.375,210.938 C21.694,209.978 21.694,209.978 21,209 C21.435,207.987 21.435,207.987 21.879,206.953 C23.413,202.913 23.422,199.1 23.562,194.812 C23.879,186.241 23.879,186.241 25,184 C25.286,181.574 25.522,179.164 25.719,176.73 C25.781,175.99 25.844,175.249 25.908,174.486 C26.111,172.054 26.306,169.621 26.5,167.188 C26.568,166.362 26.635,165.537 26.705,164.687 C27.736,152.027 28.419,139.401 28.621,126.7 C28.656,125.035 28.656,125.035 28.691,123.336 C28.704,122.372 28.716,121.408 28.729,120.416 C29,118 29,118 31,115 C31.015,112.186 30.939,109.432 30.812,106.625 C30.533,91.891 37.473,80.26 45,68 C45.66,67.34 46.32,66.68 47,66 C46.169,65.602 46.169,65.602 45.32,65.195 C44.596,64.842 43.871,64.489 43.125,64.125 C42.046,63.603 42.046,63.603 40.945,63.07 C39,62 39,62 37,60 C37.33,56.703 37.623,55.377 40,53 C42.521,52.28 45.01,51.646 47.562,51.062 C49.024,50.711 50.485,50.356 51.945,50 C52.648,49.829 53.351,49.657 54.075,49.48 C59.711,48.074 64.606,46.309 69.625,43.375 C73.446,41.149 76.562,40.419 81,40 C83.004,39.346 85.004,38.679 87,38 C97.101,35.183 105.139,35.422 115,39 C115.915,39.317 116.83,39.634 117.773,39.961 C124.048,42.333 129.639,45.429 135.25,49.062 C135.919,49.486 136.587,49.91 137.276,50.346 C139.141,51.598 139.141,51.598 142,54 C142,55.32 142,56.64 142,58 C151.855,53.072 157.358,44.883 162,35 C163.289,31.108 164.202,27.156 165.078,23.152 C166.581,18.012 167.443,16.749 172.875,17.625 Z"/>
  <path fill="#CAD839" d="M172.875,17.625 C176.283,18.637 179.001,20.077 182,22 C183.196,22.495 184.393,22.99 185.625,23.5 C188.517,24.785 190.054,25.596 192,28 C190.586,32.167 188.576,35.02 185.75,38.375 C184.946,39.339 184.141,40.303 183.312,41.297 C181.485,43.433 179.627,45.533 177.75,47.625 C174.961,50.824 173.02,54.321 171.078,58.082 C170,60 170,60 168,62 C167.357,64.069 167.357,64.069 167,66 C168.918,65.845 168.918,65.845 170.875,65.688 C177.834,65.688 183.481,68.781 188.625,73.312 C189.409,74.199 190.193,75.086 191,76 C191.626,76.575 192.253,77.15 192.898,77.742 C200.339,84.629 203.606,92.651 207.203,101.969 C207.973,104.022 207.973,104.022 209,106 C210.512,120.055 211.439,134.839 206.109,148.125 C204.466,152.384 203.27,156.763 202.027,161.152 C201.014,163.962 200.047,165.835 198,168 C195.312,168.25 195.312,168.25 193,168 C191.68,165.36 190.36,162.72 189,160 C188.34,160.66 187.68,161.32 187,162 C186.317,162.673 186.317,162.673 185.621,163.359 C184.421,164.574 183.251,165.819 182.098,167.078 C176.749,172.786 176.749,172.786 172.5,174 C171.675,174 170.85,174 170,174 C170,170 170,170 171.938,167.938 C172.618,167.298 173.299,166.659 174,166 C174.33,165.01 174.66,164.02 175,163 C176.582,161.116 177.682,160.119 180,159.25 C183.169,157.269 183.722,154.451 185,151 C184.216,151.041 183.432,151.083 182.625,151.125 C180,151 180,151 178,149 C177.32,147.005 176.655,145.004 176,143 C174.511,139.752 172.972,136.962 170.875,134.062 C168.766,130.618 168.466,127.965 168,124 C167.34,123.67 166.68,123.34 166,123 C166,121.02 166,119.04 166,117 C163.771,117.865 163.771,117.865 162.812,120.375 C160.384,123.892 158.001,124.666 154,126 C152.68,126 151.36,126 150,126 C150,126.66 150,127.32 150,128 C147.249,128.917 145.641,129.109 142.812,129.062 C141.554,129.042 140.296,129.021 139,129 C139,129.66 139,130.32 139,131 C138.218,131.133 137.435,131.266 136.629,131.402 C135.111,131.667 135.111,131.667 133.562,131.938 C132.048,132.199 132.048,132.199 130.504,132.465 C128.071,132.748 128.071,132.748 127,134 C124.47,134.073 121.967,134.092 119.438,134.062 C118.371,134.056 118.371,134.056 117.283,134.049 C115.522,134.037 113.761,134.019 112,134 C112,134.66 112,135.32 112,136 C105.25,136.125 105.25,136.125 103,135 C103,132.36 103,129.72 103,127 C102.34,127 101.68,127 101,127 C100.939,126.157 100.879,125.314 100.816,124.445 C100.733,123.35 100.649,122.254 100.562,121.125 C100.481,120.034 100.4,118.944 100.316,117.82 C100.17,115.053 100.17,115.053 99,113 C98.916,111.406 98.893,109.808 98.902,108.211 C98.906,107.27 98.909,106.329 98.912,105.359 C98.925,103.882 98.925,103.882 98.938,102.375 C98.942,101.382 98.947,100.39 98.951,99.367 C98.963,96.911 98.979,94.456 99,92 C99.66,91.67 100.32,91.34 101,91 C101.652,88.975 101.652,88.975 102,87 C102.66,87 103.32,87 104,87 C104,86.01 104,85.02 104,84 C103.099,83.962 103.099,83.962 102.18,83.924 C99.474,83.808 96.768,83.686 94.062,83.562 C93.117,83.523 92.171,83.484 91.197,83.443 C90.298,83.401 89.399,83.36 88.473,83.316 C87.64,83.28 86.807,83.243 85.949,83.205 C84,83 84,83 83,82 C81.886,81.918 80.772,81.835 79.625,81.75 C74.026,81.111 68.768,78.978 64,76 C62.875,73.957 62.875,73.957 62,72 C60.969,71.34 59.938,70.68 58.875,70 C57.926,69.34 56.978,68.68 56,68 C56,66.68 56,65.36 56,64 C55.34,64 54.68,64 54,64 C54,63.34 54,62.68 54,62 C52.35,62 50.7,62 49,62 C48.34,60.35 47.68,58.7 47,57 C47.615,56.951 48.23,56.902 48.863,56.852 C49.672,56.777 50.48,56.702 51.312,56.625 C52.513,56.521 52.513,56.521 53.738,56.414 C56.272,56.104 56.272,56.104 59,54 C61.332,53.661 63.666,53.328 66,53 C69.363,51.728 69.916,51.126 72,48 C72.949,47.753 73.897,47.505 74.875,47.25 C78.356,46.282 78.356,46.282 79.5,42.562 C80.972,39.581 81.847,39.057 85.043,37.875 C96.02,35.428 104.447,35.171 115,39 C115.915,39.317 116.83,39.634 117.773,39.961 C124.048,42.333 129.639,45.429 135.25,49.062 C135.919,49.486 136.587,49.91 137.276,50.346 C139.141,51.598 139.141,51.598 142,54 C142,55.32 142,56.64 142,58 C151.855,53.072 157.358,44.883 162,35 C163.289,31.108 164.202,27.156 165.078,23.152 C166.581,18.012 167.443,16.749 172.875,17.625 Z"/>
  <path fill="#CBD939" d="M83,40 C83.495,40.99 83.495,40.99 84,42 C84.99,42 85.98,42 87,42 C87,41.34 87,40.68 87,40 C87.66,40 88.32,40 89,40 C89.495,41.485 89.495,41.485 90,43 C91.666,43.043 93.334,43.041 95,43 C95.33,42.67 95.66,42.34 96,42 C102.942,41.284 108.577,42.492 115,45 C116.763,45.588 116.763,45.588 118.562,46.188 C119.367,46.456 120.171,46.724 121,47 C121,47.66 121,48.32 121,49 C122.083,49.062 122.083,49.062 123.188,49.125 C126,50 126,50 131,56 C116.48,56.33 101.96,56.66 87,57 C86.67,59.31 86.34,61.62 86,64 C86.99,63.67 87.98,63.34 89,63 C91.804,62.915 94.583,62.884 97.387,62.902 C98.204,62.904 99.021,62.905 99.863,62.907 C102.471,62.912 105.079,62.925 107.688,62.938 C109.456,62.943 111.225,62.947 112.994,62.951 C117.329,62.962 121.665,62.979 126,63 C126,63.99 126,64.98 126,66 C125.01,66 124.02,66 123,66 C123,66.66 123,67.32 123,68 C122.361,68.124 121.721,68.247 121.062,68.375 C120.382,68.581 119.701,68.787 119,69 C118.67,69.66 118.34,70.32 118,71 C117.01,71 116.02,71 115,71 C115,71.66 115,72.32 115,73 C113.68,73.33 112.36,73.66 111,74 C110.67,75.98 110.34,77.96 110,80 C108.354,80.027 106.708,80.046 105.062,80.062 C103.688,80.08 103.688,80.08 102.285,80.098 C100,80 100,80 99,79 C96.308,78.763 93.635,78.578 90.938,78.438 C90.179,78.394 89.42,78.351 88.639,78.307 C86.759,78.2 84.88,78.1 83,78 C83,77.34 83,76.68 83,76 C80.69,76 78.38,76 76,76 C75.67,75.34 75.34,74.68 75,74 C72.679,73.721 72.679,73.721 69.938,73.688 C64.526,73.292 59.827,72.069 56,68 C56,66.68 56,65.36 56,64 C55.34,64 54.68,64 54,64 C54,63.34 54,62.68 54,62 C52.35,62 50.7,62 49,62 C48.34,60.35 47.68,58.7 47,57 C47.615,56.951 48.23,56.902 48.863,56.852 C49.672,56.777 50.48,56.702 51.312,56.625 C52.113,56.555 52.914,56.486 53.738,56.414 C56.272,56.104 56.272,56.104 59,54 C61.332,53.661 63.666,53.328 66,53 C69.363,51.728 69.916,51.126 72,48 C72.969,47.711 73.939,47.423 74.938,47.125 C78.655,45.759 79.24,44.433 81,41 C81.66,40.67 82.32,40.34 83,40 Z"/>
  <path fill="#A59540" d="M64,72 C67.63,72.33 71.26,72.66 75,73 C75.33,73.99 75.66,74.98 76,76 C78.31,76 80.62,76 83,76 C83,76.66 83,77.32 83,78 C88.28,78 93.56,78 99,78 C99.495,79.485 99.495,79.485 100,81 C102.64,81 105.28,81 108,81 C108.75,83.062 108.75,83.062 109,86 C108.041,87.485 108.041,87.485 107.062,89 C104.21,93.755 104.332,98.514 104.25,103.938 C104.206,105.393 104.206,105.393 104.16,106.877 C104.09,109.251 104.037,111.625 104,114 C103.34,114 102.68,114 102,114 C102,116.31 102,118.62 102,121 C103.65,121.33 105.3,121.66 107,122 C107.11,122.566 107.219,123.132 107.332,123.715 C107.491,124.448 107.649,125.182 107.812,125.938 C107.963,126.668 108.114,127.399 108.27,128.152 C108.511,128.762 108.752,129.372 109,130 C109.99,130.33 110.98,130.66 112,131 C112,130.34 112,129.68 112,129 C114.271,128.832 116.542,128.666 118.812,128.5 C120.709,128.361 120.709,128.361 122.645,128.219 C124.76,128.081 126.88,128 129,128 C130.418,127.821 131.834,127.633 133.25,127.438 C137.412,126.947 140.895,127.214 145,128 C145,127.34 145,126.68 145,126 C145.66,126 146.32,126 147,126 C147,125.34 147,124.68 147,124 C148.247,123.349 149.498,122.704 150.75,122.062 C151.794,121.523 151.794,121.523 152.859,120.973 C154.902,120.044 156.811,119.468 159,119 C159.186,118.041 159.186,118.041 159.375,117.062 C159.581,116.382 159.788,115.701 160,115 C160.66,114.67 161.32,114.34 162,114 C161.836,112.743 161.673,111.486 161.504,110.191 C160.901,104.764 160.888,99.393 160.938,93.938 C160.942,92.977 160.947,92.016 160.951,91.025 C160.963,88.684 160.979,86.342 161,84 C162.65,84 164.3,84 166,84 C165.99,84.933 165.99,84.933 165.981,85.886 C165.933,101.756 167.73,115.843 175.084,130.102 C176.473,132.979 176.447,135.827 176.656,138.977 C176.837,141.223 176.837,141.223 179,143 C179,143.99 179,144.98 179,146 C180.32,146 181.64,146 183,146 C183,147.65 183,149.3 183,151 C181.188,150.938 181.188,150.938 179,150 C177.851,147.657 176.91,145.429 176,143 C174.482,139.766 172.972,136.961 170.875,134.062 C168.766,130.618 168.466,127.965 168,124 C167.34,123.67 166.68,123.34 166,123 C166,121.02 166,119.04 166,117 C163.771,117.865 163.771,117.865 162.812,120.375 C160.384,123.892 158.001,124.666 154,126 C152.68,126 151.36,126 150,126 C150,126.66 150,127.32 150,128 C147.249,128.917 145.641,129.109 142.812,129.062 C141.554,129.042 140.296,129.021 139,129 C139,129.66 139,130.32 139,131 C138.218,131.133 137.435,131.266 136.629,131.402 C135.617,131.579 134.605,131.756 133.562,131.938 C132.553,132.112 131.544,132.286 130.504,132.465 C128.071,132.748 128.071,132.748 127,134 C124.47,134.073 121.967,134.092 119.438,134.062 C118.727,134.058 118.016,134.053 117.283,134.049 C115.522,134.037 113.761,134.019 112,134 C112,134.66 112,135.32 112,136 C105.25,136.125 105.25,136.125 103,135 C103,132.36 103,129.72 103,127 C102.34,127 101.68,127 101,127 C100.939,126.157 100.879,125.314 100.816,124.445 C100.733,123.35 100.649,122.254 100.562,121.125 C100.481,120.034 100.4,118.944 100.316,117.82 C100.17,115.053 100.17,115.053 99,113 C98.916,111.406 98.893,109.808 98.902,108.211 C98.906,107.27 98.909,106.329 98.912,105.359 C98.925,103.882 98.925,103.882 98.938,102.375 C98.942,101.382 98.947,100.39 98.951,99.367 C98.963,96.911 98.979,94.456 99,92 C99.66,91.67 100.32,91.34 101,91 C101.652,88.975 101.652,88.975 102,87 C102.66,87 103.32,87 104,87 C104,86.01 104,85.02 104,84 C103.399,83.975 102.799,83.95 102.18,83.924 C99.474,83.808 96.768,83.686 94.062,83.562 C93.117,83.523 92.171,83.484 91.197,83.443 C89.849,83.381 89.849,83.381 88.473,83.316 C87.224,83.261 87.224,83.261 85.949,83.205 C84,83 84,83 83,82 C81.886,81.917 80.772,81.835 79.625,81.75 C73.926,81.139 69.074,78.528 64,76 C64,74.68 64,73.36 64,72 Z"/>
  <path fill="#B93B5C" d="M30,117 C31.32,117.66 32.64,118.32 34,119 C34.136,134.163 33.95,149.313 33.627,164.473 C33.584,166.496 33.543,168.519 33.503,170.542 C33.446,173.413 33.382,176.285 33.316,179.156 C33.3,180.034 33.283,180.912 33.266,181.817 C33.115,187.885 33.115,187.885 32,189 C31.718,191.287 31.552,193.574 31.379,195.871 C31,198 31,198 29,200 C28.694,202.569 28.489,205.048 28.375,207.625 C28.336,208.331 28.298,209.038 28.258,209.766 C28.164,211.51 28.081,213.255 28,215 C28.66,215 29.32,215 30,215 C30,215.66 30,216.32 30,217 C30.99,217 31.98,217 33,217 C33,218.98 33,220.96 33,223 C33.66,223 34.32,223 35,223 C35,224.65 35,226.3 35,228 C38.038,229.013 40.112,229.129 43.289,229.133 C44.824,229.135 44.824,229.135 46.391,229.137 C47.992,229.131 47.992,229.131 49.625,229.125 C51.238,229.131 51.238,229.131 52.883,229.137 C53.904,229.135 54.925,229.134 55.977,229.133 C56.916,229.132 57.855,229.131 58.823,229.129 C60.978,229.243 60.978,229.243 62,228 C64.333,227.959 66.667,227.958 69,228 C69,228.99 69,229.98 69,231 C63.909,236.091 54.515,236.229 47.688,236.375 C40.788,236.2 36.803,235.269 31.375,230.875 C26.712,225.23 23.653,220.462 24,213 C23.464,212.319 22.927,211.639 22.375,210.938 C21.694,209.978 21.694,209.978 21,209 C21.29,208.325 21.58,207.649 21.879,206.953 C23.413,202.913 23.422,199.1 23.562,194.812 C23.879,186.241 23.879,186.241 25,184 C25.286,181.574 25.522,179.164 25.719,176.73 C25.813,175.619 25.813,175.619 25.908,174.486 C26.111,172.053 26.306,169.621 26.5,167.188 C26.567,166.363 26.635,165.538 26.704,164.689 C27.735,151.971 28.421,139.281 28.709,126.524 C28.735,125.408 28.762,124.291 28.789,123.141 C28.807,122.166 28.824,121.192 28.842,120.188 C29,118 29,118 30,117 Z"/>
  <path fill="#8C6D53" d="M171.043,17.145 C173.029,17.763 175.014,18.382 177,19 C176.01,19.33 175.02,19.66 174,20 C174,21.32 174,22.64 174,24 C173.01,24.33 172.02,24.66 171,25 C170.186,26.997 170.186,26.997 169.688,29.438 C168.338,34.474 166.178,38.351 163.305,42.676 C161.866,44.949 161.866,44.949 161.508,47.605 C160.913,50.409 160.102,51.134 158,53 C156.68,54.829 155.432,56.696 154.184,58.574 C153.793,59.045 153.402,59.515 153,60 C152.34,60 151.68,60 151,60 C151,60.66 151,61.32 151,62 C149.35,62 147.7,62 146,62 C146,61.34 146,60.68 146,60 C145.397,59.974 144.793,59.948 144.172,59.922 C137.528,59.45 137.528,59.45 134.875,57.188 C134.256,56.466 133.637,55.744 133,55 C129.239,52.477 125.255,50.547 121,49 C121,48.34 121,47.68 121,47 C120.237,47.041 119.474,47.083 118.688,47.125 C116,47 116,47 113,45 C107.348,42.924 102.008,42.505 96,43 C95.67,43.33 95.34,43.66 95,44 C93.334,44.041 91.666,44.043 90,44 C89.67,42.68 89.34,41.36 89,40 C88.34,40 87.68,40 87,40 C87,40.66 87,41.32 87,42 C85.02,41.67 83.04,41.34 81,41 C81.33,40.34 81.66,39.68 82,39 C93.832,35.457 103.452,34.81 115,39 C115.915,39.317 116.83,39.634 117.773,39.961 C124.048,42.333 129.639,45.429 135.25,49.062 C135.919,49.486 136.587,49.91 137.276,50.346 C139.141,51.598 139.141,51.598 142,54 C142,55.32 142,56.64 142,58 C151.855,53.072 157.358,44.883 162,35 C163.289,31.108 164.202,27.156 165.078,23.152 C166.92,16.853 166.92,16.853 171.043,17.145 Z"/>
  <path fill="#806146" d="M81,41 C79.875,43.875 79.875,43.875 78,47 C74.938,48.188 74.938,48.188 72,49 C71.34,49.99 70.68,50.98 70,52 C67.42,53.72 65.559,54.062 62.438,54.5 C58.887,54.765 58.887,54.765 56,57 C53.738,57.195 53.738,57.195 51.312,57.125 C50.504,57.107 49.696,57.089 48.863,57.07 C48.248,57.047 47.634,57.024 47,57 C47.66,58.65 48.32,60.3 49,62 C50.65,62 52.3,62 54,62 C54,62.66 54,63.32 54,64 C54.66,64 55.32,64 56,64 C56,64.66 56,65.32 56,66 C54.68,66 53.36,66 52,66 C52,67.65 52,69.3 52,71 C51.01,71 50.02,71 49,71 C48.741,71.684 48.482,72.369 48.215,73.074 C46.827,76.417 45.213,79.592 43.562,82.812 C39.428,91.011 36.734,98.585 34.746,107.559 C34.5,108.364 34.254,109.17 34,110 C33.01,110.495 33.01,110.495 32,111 C28.714,94.572 36.637,81.621 45,68 C45.66,67.34 46.32,66.68 47,66 C46.446,65.734 45.891,65.469 45.32,65.195 C44.596,64.842 43.871,64.489 43.125,64.125 C42.406,63.777 41.686,63.429 40.945,63.07 C39,62 39,62 37,60 C37.33,56.703 37.623,55.377 40,53 C42.521,52.28 45.01,51.646 47.562,51.062 C49.024,50.711 50.485,50.356 51.945,50 C53,49.743 53,49.743 54.075,49.48 C59.741,48.066 64.605,46.306 69.625,43.312 C73.704,40.918 76.326,40.503 81,41 Z"/>
  <path fill="#885A53" d="M162,176 C162.99,176 163.98,176 165,176 C165.242,178.289 165.242,178.289 165,181 C163.383,182.773 163.383,182.773 161.125,184.375 C160.301,184.968 159.478,185.561 158.629,186.172 C157.328,187.077 157.328,187.077 156,188 C155.184,188.603 154.368,189.207 153.527,189.828 C146.021,195.301 138.468,200.383 129,201 C128.66,202.145 128.66,202.145 128.312,203.312 C126.671,206.674 125.253,207.2 122,209 C120.898,209.628 119.796,210.256 118.66,210.902 C116.861,211.921 115.062,212.938 113.26,213.951 C110.435,215.553 107.721,217.189 105.031,219.016 C101.609,221.256 98.127,223.062 94.438,224.812 C93.791,225.137 93.145,225.461 92.479,225.795 C88.595,227.64 86.131,228.419 82,227 C82,224.688 82,224.688 83,222 C84.988,220.96 86.94,220.312 89.09,219.676 C91.206,219.082 91.206,219.082 93,217 C94.277,216.522 95.572,216.088 96.875,215.688 C100.014,214.585 100.873,214.163 103,211.438 C105.904,207.898 108.564,207.813 113,207 C113,206.34 113,205.68 113,205 C113.664,204.818 114.328,204.636 115.012,204.449 C119.793,203.088 123.781,201.685 128,199 C128.99,199 129.98,199 131,199 C131,198.01 131,197.02 131,196 C134.665,193.09 137.394,192.679 142,193 C142,192.34 142,191.68 142,191 C142.66,191 143.32,191 144,191 C144.33,190.01 144.66,189.02 145,188 C146.738,187.279 148.478,186.561 150.234,185.887 C152.867,184.565 154.188,182.28 156,180 C159.25,178.688 159.25,178.688 162,178 C162,177.34 162,176.68 162,176 Z"/>
  <path fill="#836645" d="M204,123 C204.99,123 205.98,123 207,123 C207.928,132.729 205.342,140.992 202,150 C201.505,150.495 201.505,150.495 201,151 C200.876,152.196 200.753,153.393 200.625,154.625 C200.296,157.676 199.662,160.09 198.375,162.875 C197.921,163.906 197.467,164.938 197,166 C197.33,166.66 197.66,167.32 198,168 C196.35,168 194.7,168 193,168 C191.68,165.36 190.36,162.72 189,160 C188.34,160.66 187.68,161.32 187,162 C186.545,162.449 186.09,162.897 185.621,163.359 C184.421,164.574 183.251,165.819 182.098,167.078 C176.749,172.786 176.749,172.786 172.5,174 C171.675,174 170.85,174 170,174 C170,170 170,170 171.938,167.938 C172.618,167.298 173.299,166.659 174,166 C174.33,165.01 174.66,164.02 175,163 C176.578,161.122 177.847,160.074 180.062,159 C182.332,158.027 182.332,158.027 184,155 C186.63,154.118 189.232,153.881 192,154 C194,155.438 194,155.438 195,157 C196.448,153.911 197.163,151.178 197.5,147.812 C198,144 198,144 200,142 C200.352,139.869 200.352,139.869 200.438,137.438 C200.843,132.278 202.151,127.813 204,123 Z"/>
  <path fill="#8E7144" d="M161,84 C162.65,84 164.3,84 166,84 C165.994,84.622 165.987,85.245 165.981,85.886 C165.933,101.756 167.73,115.843 175.084,130.102 C176.472,132.979 176.447,135.827 176.656,138.977 C176.837,141.223 176.837,141.223 179,143 C179,143.99 179,144.98 179,146 C180.32,146 181.64,146 183,146 C183,147.65 183,149.3 183,151 C181.188,150.938 181.188,150.938 179,150 C177.851,147.657 176.91,145.429 176,143 C174.482,139.766 172.972,136.961 170.875,134.062 C168.766,130.618 168.466,127.965 168,124 C167.34,123.67 166.68,123.34 166,123 C166,121.02 166,119.04 166,117 C165.481,117.433 164.961,117.866 164.426,118.312 C163.728,118.869 163.031,119.426 162.312,120 C161.628,120.557 160.944,121.114 160.238,121.688 C157.612,123.227 155.994,123.252 153,123 C153,123.66 153,124.32 153,125 C151.02,125 149.04,125 147,125 C154.714,119 154.714,119 159,119 C159.124,118.361 159.247,117.721 159.375,117.062 C159.581,116.382 159.788,115.701 160,115 C160.66,114.67 161.32,114.34 162,114 C161.754,112.115 161.754,112.115 161.504,110.191 C160.901,104.764 160.888,99.393 160.938,93.938 C160.942,92.977 160.947,92.016 160.951,91.025 C160.963,88.684 160.979,86.342 161,84 Z"/>
  <path fill="#814B4A" d="M30,117 C30.66,117.33 31.32,117.66 32,118 C32.077,125.269 32.129,132.538 32.165,139.808 C32.18,142.27 32.2,144.732 32.226,147.194 C32.648,187.704 32.648,187.704 28,197 C26.68,197 25.36,197 24,197 C23.973,195.208 23.954,193.417 23.938,191.625 C23.926,190.627 23.914,189.63 23.902,188.602 C24,186 24,186 25,184 C25.286,181.574 25.522,179.164 25.719,176.73 C25.813,175.619 25.813,175.619 25.908,174.486 C26.111,172.053 26.306,169.621 26.5,167.188 C26.601,165.951 26.601,165.951 26.704,164.689 C27.735,151.971 28.421,139.281 28.709,126.524 C28.735,125.408 28.762,124.291 28.789,123.141 C28.807,122.166 28.824,121.192 28.842,120.188 C29,118 29,118 30,117 Z"/>
  <path fill="#A0963F" d="M144,68 C145.65,68 147.3,68 149,68 C149.386,70.626 149.385,72.384 147.957,74.668 C146.625,76.312 146.625,76.312 144,79 C143.34,79 142.68,79 142,79 C141.34,80.65 140.68,82.3 140,84 C139.34,84 138.68,84 138,84 C137.845,85.485 137.845,85.485 137.688,87 C137.075,91.276 135.621,95.018 134,99 C133.773,99.669 133.546,100.338 133.312,101.027 C132.625,102.938 132.625,102.938 131,106 C128.398,106.691 128.398,106.691 126,107 C125.618,93.896 125.618,93.896 128,89 C128.66,88.67 129.32,88.34 130,88 C131.379,85.685 132.699,83.359 134,81 C135.008,79.18 136.029,77.368 137.062,75.562 C137.548,74.698 138.034,73.833 138.535,72.941 C139.019,72.301 139.502,71.66 140,71 C140.99,71 141.98,71 143,71 C143.33,70.01 143.66,69.02 144,68 Z"/>
  <path fill="#927E42" d="M95.961,55.832 C96.862,55.829 97.764,55.825 98.693,55.822 C100.604,55.817 102.516,55.815 104.428,55.815 C107.356,55.813 110.283,55.794 113.211,55.775 C115.065,55.772 116.919,55.77 118.773,55.77 C119.652,55.762 120.53,55.755 121.435,55.748 C122.252,55.751 123.069,55.754 123.912,55.757 C124.63,55.756 125.349,55.754 126.089,55.753 C128,56 128,56 131,58 C131,59.32 131,60.64 131,62 C115.82,62 100.64,62 85,62 C86.55,54.25 88.922,55.841 95.961,55.832 Z"/>
  <path fill="#885350" d="M24,216 C25.65,216 27.3,216 29,216 C32,222.625 32,222.625 32,226 C32.804,226.309 33.609,226.619 34.438,226.938 C37,228 37,228 38,229 C39.696,229.099 41.395,229.131 43.094,229.133 C44.124,229.134 45.154,229.135 46.215,229.137 C47.299,229.133 48.383,229.129 49.5,229.125 C51.126,229.131 51.126,229.131 52.785,229.137 C53.815,229.135 54.845,229.134 55.906,229.133 C56.858,229.132 57.81,229.131 58.791,229.129 C60.975,229.247 60.975,229.247 62,228 C64.333,227.959 66.667,227.958 69,228 C69,228.99 69,229.98 69,231 C63.909,236.091 54.515,236.229 47.688,236.375 C40.788,236.2 36.803,235.269 31.375,230.875 C27.838,226.593 24,221.707 24,216 Z"/>
  <path fill="#BA3C55" d="M161,120 C161.66,120.33 162.32,120.66 163,121 C158.776,124.442 155.499,126 150,126 C150,126.66 150,127.32 150,128 C147.249,128.917 145.641,129.109 142.812,129.062 C140.925,129.032 140.925,129.032 139,129 C139,129.66 139,130.32 139,131 C137.826,131.199 137.826,131.199 136.629,131.402 C135.617,131.579 134.605,131.756 133.562,131.938 C132.553,132.112 131.544,132.286 130.504,132.465 C128.071,132.748 128.071,132.748 127,134 C124.47,134.073 121.967,134.092 119.438,134.062 C118.727,134.058 118.016,134.053 117.283,134.049 C115.522,134.037 113.761,134.019 112,134 C112,134.66 112,135.32 112,136 C105.25,136.125 105.25,136.125 103,135 C103,132.36 103,129.72 103,127 C102.34,127 101.68,127 101,127 C101,125.02 101,123.04 101,121 C102.65,121 104.3,121 106,121 C106.273,121.957 106.273,121.957 106.551,122.934 C106.802,123.76 107.054,124.586 107.312,125.438 C107.556,126.261 107.8,127.085 108.051,127.934 C108.521,128.956 108.521,128.956 109,130 C109.99,130.33 110.98,130.66 112,131 C112,130.34 112,129.68 112,129 C114.271,128.832 116.542,128.666 118.812,128.5 C120.709,128.361 120.709,128.361 122.645,128.219 C124.76,128.081 126.88,128 129,128 C130.418,127.821 131.834,127.633 133.25,127.438 C137.412,126.947 140.895,127.214 145,128 C145,127.34 145,126.68 145,126 C147.709,124.646 150.009,124.935 153,125 C153,124.34 153,123.68 153,123 C154.134,122.691 155.269,122.381 156.438,122.062 C159.788,121.371 159.788,121.371 161,120 Z"/>
  <path fill="#948042" d="M171.562,50.938 C172.769,50.968 172.769,50.968 174,51 C173.25,54.886 171.553,57.153 169.156,60.219 C167.909,62.14 167.431,63.765 167,66 C168.279,65.897 169.557,65.794 170.875,65.688 C176.734,65.641 181.042,68.102 186,71 C186,74 186,74 185,76 C180.652,75.341 177.026,73.725 173,72 C172.092,71.876 171.185,71.753 170.25,71.625 C168,71 168,71 166.188,68.438 C165.796,67.633 165.404,66.829 165,66 C164.01,67.485 164.01,67.485 163,69 C161.68,68.67 160.36,68.34 159,68 C158.385,62.924 160.383,60.17 163,56 C163.99,56 164.98,56 166,56 C166.309,55.361 166.619,54.721 166.938,54.062 C168.509,51.012 168.509,51.012 171.562,50.938 Z"/>
  <path fill="#8E5C55" d="M127,204 C125.969,206.85 125.206,207.876 122.566,209.457 C121.079,210.128 121.079,210.128 119.562,210.812 C115.385,212.787 111.526,214.867 107.688,217.438 C103.303,220.29 98.83,222.73 94.125,225 C93.494,225.315 92.863,225.63 92.214,225.955 C88.416,227.734 86.022,228.346 82,227 C82,226.01 82,225.02 82,224 C87.891,221.408 93.627,219.125 100,218 C100,217.34 100,216.68 100,216 C101.32,216 102.64,216 104,216 C104.1,215.384 104.201,214.768 104.304,214.134 C105.484,210.517 108.927,209.398 112.125,207.75 C112.777,207.386 113.43,207.023 114.102,206.648 C118.556,204.297 121.859,203.599 127,204 Z"/>
  <path fill="#866A49" d="M191,80 C194.286,80.274 195.699,80.699 198.062,83.062 C201.965,88.979 204.607,95.307 207.168,101.898 C207.969,104.01 207.969,104.01 209,106 C209.07,107.54 209.085,109.083 209.062,110.625 C209.053,111.442 209.044,112.26 209.035,113.102 C209.024,113.728 209.012,114.355 209,115 C207.02,114.67 205.04,114.34 203,114 C203,111.03 203,108.06 203,105 C202.34,105 201.68,105 201,105 C198.546,99.327 196.538,94.182 196,88 C195.34,88 194.68,88 194,88 C191.256,85.045 191,84.225 191,80 Z"/>
  <path fill="#897045" d="M178,21 C183.177,22.035 188.595,23.794 192,28 C190.581,32.198 188.536,35.062 185.688,38.438 C184.888,39.391 184.089,40.345 183.266,41.328 C182.518,42.21 181.77,43.092 181,44 C179.978,45.228 178.957,46.457 177.938,47.688 C177.298,48.451 176.659,49.214 176,50 C175.67,49.34 175.34,48.68 175,48 C174.34,48 173.68,48 173,48 C173,46.68 173,45.36 173,44 C173.99,44 174.98,44 176,44 C176.103,43.278 176.206,42.556 176.312,41.812 C177.436,37.217 179.061,34.626 183,32 C183,31.34 183,30.68 183,30 C181.762,29.381 181.762,29.381 180.5,28.75 C179.675,28.173 178.85,27.595 178,27 C177.688,23.812 177.688,23.812 178,21 Z"/>
  <path fill="#865853" d="M50,67 C50.66,67 51.32,67 52,67 C52,68.32 52,69.64 52,71 C51.01,71 50.02,71 49,71 C48.741,71.684 48.482,72.369 48.215,73.074 C46.827,76.417 45.213,79.592 43.562,82.812 C39.428,91.011 36.734,98.585 34.746,107.559 C34.5,108.364 34.254,109.17 34,110 C33.01,110.495 33.01,110.495 32,111 C29.283,97.415 33.687,87.433 40.57,75.73 C41.042,75.159 41.514,74.588 42,74 C42.99,74 43.98,74 45,74 C45.33,73.34 45.66,72.68 46,72 C46.66,72 47.32,72 48,72 C48,71.01 48,70.02 48,69 C48.66,69 49.32,69 50,69 C50,68.34 50,67.68 50,67 Z"/>
  <path fill="#8B714A" d="M171.043,17.145 C173.029,17.763 175.014,18.382 177,19 C176.01,19.33 175.02,19.66 174,20 C174,21.32 174,22.64 174,24 C173.01,24.33 172.02,24.66 171,25 C170.186,26.997 170.186,26.997 169.688,29.438 C168.333,34.46 166.196,38.409 163.402,42.773 C162.124,44.802 161.032,46.838 160,49 C158.35,49 156.7,49 155,49 C156.398,45.315 158.08,41.911 159.938,38.438 C162.604,33.208 164.14,28.244 165.262,22.496 C166.253,19.143 167.258,16.877 171.043,17.145 Z"/>
  <path fill="#8D7543" d="M169,78 C171.375,78.25 171.375,78.25 174,79 C175.125,81 175.125,81 176,83 C176.99,83.33 177.98,83.66 179,84 C180.316,86.363 180.316,86.363 181.562,89.312 C181.976,90.278 182.39,91.244 182.816,92.238 C183.207,93.15 183.598,94.061 184,95 C184.369,95.691 184.737,96.382 185.117,97.094 C186.089,99.192 186.36,100.892 186.562,103.188 C186.575,106.782 186.575,106.782 188,108 C188.041,109.666 188.043,111.334 188,113 C186.68,113 185.36,113 184,113 C182.517,109.157 181.114,105.405 180,101.438 C177.848,94.04 174.518,86.518 169,81 C169,80.01 169,79.02 169,78 Z"/>
  <path fill="#917A43" d="M161,84 C162.65,84 164.3,84 166,84 C166.025,84.717 166.05,85.433 166.076,86.171 C166.192,89.406 166.315,92.641 166.438,95.875 C166.477,97.003 166.516,98.131 166.557,99.293 C166.599,100.369 166.64,101.446 166.684,102.555 C166.72,103.55 166.757,104.545 166.795,105.57 C166.85,108.008 166.85,108.008 168,110 C168.07,111.874 168.084,113.75 168.062,115.625 C168.053,116.628 168.044,117.631 168.035,118.664 C168.024,119.435 168.012,120.206 168,121 C167.67,121 167.34,121 167,121 C167,119.35 167,117.7 167,116 C164.36,116.33 161.72,116.66 159,117 C159.752,116.381 159.752,116.381 160.519,115.75 C162.186,114.143 162.186,114.143 162.076,112.127 C161.949,111.427 161.822,110.726 161.691,110.004 C160.89,104.623 160.888,99.369 160.938,93.938 C160.942,92.977 160.947,92.016 160.951,91.025 C160.963,88.684 160.979,86.342 161,84 Z"/>
  <path fill="#D52A60" d="M39,90 C39.33,90 39.66,90 40,90 C40.043,92 40.041,94 40,96 C39.67,96.33 39.34,96.66 39,97 C38.632,99.328 38.298,101.662 38,104 C37.34,104 36.68,104 36,104 C36.005,105.255 36.01,106.511 36.016,107.804 C36.034,112.495 36.045,117.186 36.055,121.877 C36.06,123.901 36.067,125.925 36.075,127.949 C36.088,130.871 36.093,133.793 36.098,136.715 C36.103,137.609 36.108,138.503 36.113,139.424 C36.114,151.109 36.114,151.109 35,156 C34.01,156.99 34.01,156.99 33,158 C32.79,144.984 33.424,132 34,119 C33.01,118.67 32.02,118.34 31,118 C31.488,113.317 32.495,109.477 34.242,105.117 C35.3,102.161 35.891,99.159 36.473,96.078 C37.038,93.849 37.906,92.016 39,90 Z"/>
  <path fill="#918063" d="M81,41 C79.75,43.938 79.75,43.938 78,47 C75.812,47.875 75.812,47.875 74,48 C74,47.34 74,46.68 74,46 C74.99,46 75.98,46 77,46 C76.505,45.01 76.505,45.01 76,44 C75.513,44.398 75.025,44.797 74.523,45.207 C68.661,49.588 63.315,51.127 56.137,52.359 C53.343,52.93 51.482,53.687 49,55 C46.675,55.387 44.341,55.73 42,56 C41.67,57.32 41.34,58.64 41,60 C41.66,60.33 42.32,60.66 43,61 C43,61.66 43,62.32 43,63 C40.133,62.427 39.139,62.139 37,60 C37.33,56.703 37.623,55.377 40,53 C42.521,52.28 45.01,51.646 47.562,51.062 C49.024,50.711 50.485,50.356 51.945,50 C53,49.743 53,49.743 54.075,49.48 C59.741,48.066 64.605,46.306 69.625,43.312 C73.704,40.918 76.326,40.503 81,41 Z"/>
  <path fill="#886D44" d="M132,64 C132,65.65 132,67.3 132,69 C131.01,69.33 130.02,69.66 129,70 C129,70.66 129,71.32 129,72 C127.68,72 126.36,72 125,72 C125,72.66 125,73.32 125,74 C124.01,74.33 123.02,74.66 122,75 C121.67,75.66 121.34,76.32 121,77 C119.68,77 118.36,77 117,77 C117,77.66 117,78.32 117,79 C115.02,79 113.04,79 111,79 C111.33,77.35 111.66,75.7 112,74 C112.99,73.67 113.98,73.34 115,73 C115,72.34 115,71.68 115,71 C115.99,71 116.98,71 118,71 C118.33,70.01 118.66,69.02 119,68 C120.32,68 121.64,68 123,68 C123,67.34 123,66.68 123,66 C126.135,64.142 128.375,63.799 132,64 Z"/>
  <path fill="#8D635B" d="M184,155 C186.625,154.812 186.625,154.812 189,155 C189.312,157.188 189.312,157.188 189,160 C187,162.312 187,162.312 185.621,163.535 C183.901,165.046 183.901,165.046 182.098,167.059 C176.789,172.774 176.789,172.774 172.5,174 C171.675,174 170.85,174 170,174 C170,170 170,170 171.938,167.938 C172.618,167.298 173.299,166.659 174,166 C174.33,165.01 174.66,164.02 175,163 C176.578,161.122 177.847,160.074 180.062,159 C182.332,158.027 182.332,158.027 184,155 Z"/>
  <path fill="#B7B85E" d="M207,123 C207.99,123 208.98,123 210,123 C209.601,140.028 209.601,140.028 206.113,148.297 C204.379,152.509 203.201,156.88 201.93,161.25 C201,164 201,164 199,167 C197.68,166.67 196.36,166.34 195,166 C195.99,165.505 195.99,165.505 197,165 C198.382,161.668 199.021,158.787 199.375,155.188 C199.804,151.096 201.276,147.905 203.016,144.211 C206.027,137.447 206.489,130.311 207,123 Z"/>
  <path fill="#AA8F43" d="M75,47 C75.66,47.33 76.32,47.66 77,48 C76.34,48.66 75.68,49.32 75,50 C74.01,50 73.02,50 72,50 C71.691,50.639 71.381,51.279 71.062,51.938 C70,54 70,54 69,55 C67.481,55.072 65.958,55.084 64.438,55.062 C63.198,55.049 63.198,55.049 61.934,55.035 C61.296,55.024 60.657,55.012 60,55 C60,55.66 60,56.32 60,57 C58.35,57.66 56.7,58.32 55,59 C55.495,59.412 55.99,59.825 56.5,60.25 C58,62 58,62 58,66 C60.31,66 62.62,66 65,66 C65,67.32 65,68.64 65,70 C66.32,70 67.64,70 69,70 C69,70.66 69,71.32 69,72 C66.033,72.941 63.937,73.434 61.043,72.094 C57.501,69.728 57.501,69.728 56,68 C56,66.68 56,65.36 56,64 C55.34,64 54.68,64 54,64 C54,63.34 54,62.68 54,62 C52.35,62 50.7,62 49,62 C48.34,60.35 47.68,58.7 47,57 C47.615,56.951 48.23,56.902 48.863,56.852 C49.672,56.777 50.48,56.702 51.312,56.625 C52.113,56.555 52.914,56.486 53.738,56.414 C56.272,56.104 56.272,56.104 59,54 C61.332,53.661 63.666,53.328 66,53 C69.363,51.728 69.916,51.126 72,48 C72.99,47.67 73.98,47.34 75,47 Z"/>
  <path fill="#BBA141" d="M158,117 C158.495,117.99 158.495,117.99 159,119 C157.567,119.841 156.128,120.673 154.688,121.5 C153.487,122.196 153.487,122.196 152.262,122.906 C150,124 150,124 147,124 C147,124.66 147,125.32 147,126 C146.34,126 145.68,126 145,126 C145,126.66 145,127.32 145,128 C144.432,127.988 143.863,127.977 143.277,127.965 C138.404,127.908 133.827,128.228 129,129 C123.333,129 117.667,129 112,129 C112,129.66 112,130.32 112,131 C110.68,130.67 109.36,130.34 108,130 C108.33,129.01 108.66,128.02 109,127 C109.855,126.939 110.709,126.879 111.59,126.816 C112.695,126.733 113.799,126.649 114.938,126.562 C116.04,126.481 117.142,126.4 118.277,126.316 C120.911,126.296 120.911,126.296 122,125 C123.519,124.928 125.042,124.916 126.562,124.938 C127.389,124.947 128.215,124.956 129.066,124.965 C129.704,124.976 130.343,124.988 131,125 C131.33,125.66 131.66,126.32 132,127 C132.66,126.34 133.32,125.68 134,125 C136.383,124.805 136.383,124.805 139.125,124.875 C140.035,124.893 140.945,124.911 141.883,124.93 C142.581,124.953 143.28,124.976 144,125 C144,124.34 144,123.68 144,123 C145.32,123 146.64,123 148,123 C148.33,122.01 148.66,121.02 149,120 C151.066,119.051 151.066,119.051 153.562,118.312 C154.389,118.061 155.215,117.81 156.066,117.551 C156.704,117.369 157.343,117.187 158,117 Z"/>
  <path fill="#8B5A52" d="M30,117 C30.66,117.33 31.32,117.66 32,118 C31.908,124.478 31.8,130.956 31.683,137.434 C31.644,139.637 31.609,141.841 31.578,144.045 C31.532,147.212 31.474,150.38 31.414,153.547 C31.403,154.532 31.391,155.518 31.379,156.533 C31.359,157.454 31.339,158.375 31.319,159.323 C31.306,160.132 31.292,160.94 31.278,161.773 C30.973,164.218 30.22,165.875 29,168 C26.95,164.924 26.744,164.335 26.812,160.875 C26.819,160.171 26.825,159.467 26.832,158.742 C26.967,156.533 27.208,154.33 27.48,152.133 C28.329,144.778 28.362,137.366 28.552,129.971 C28.604,128.022 28.661,126.074 28.719,124.125 C28.764,122.396 28.764,122.396 28.811,120.633 C29,118 29,118 30,117 Z"/>
  <path fill="#D42C5C" d="M74,80 C75.48,80.14 76.959,80.288 78.438,80.438 C79.673,80.559 79.673,80.559 80.934,80.684 C83,81 83,81 84,82 C86.421,82.213 88.824,82.377 91.25,82.5 C95.573,82.725 99.77,83.016 104,84 C104,84.99 104,85.98 104,87 C103.34,87 102.68,87 102,87 C101.67,88.65 101.34,90.3 101,92 C100.34,92 99.68,92 99,92 C99.139,95.417 99.287,98.833 99.438,102.25 C99.477,103.218 99.516,104.186 99.557,105.184 C99.599,106.118 99.64,107.053 99.684,108.016 C99.72,108.874 99.757,109.733 99.795,110.618 C99.987,112.85 100.388,114.85 101,117 C100.34,117 99.68,117 99,117 C97.643,114.286 97.888,112.152 97.902,109.117 C97.906,107.951 97.909,106.784 97.912,105.582 C97.92,104.359 97.929,103.135 97.938,101.875 C97.942,100.644 97.947,99.413 97.951,98.145 C97.963,95.096 97.979,92.048 98,89 C98.66,89 99.32,89 100,89 C100,88.34 100,87.68 100,87 C97.36,87 94.72,87 92,87 C92,86.34 92,85.68 92,85 C88.7,85 85.4,85 82,85 C81.67,84.01 81.34,83.02 81,82 C78.69,82 76.38,82 74,82 C74,81.34 74,80.68 74,80 Z"/>
  <path fill="#845E46" d="M102,121 C104.475,121.495 104.475,121.495 107,122 C107.164,122.849 107.164,122.849 107.332,123.715 C107.491,124.448 107.649,125.182 107.812,125.938 C107.963,126.668 108.114,127.399 108.27,128.152 C108.511,128.762 108.752,129.372 109,130 C109.99,130.33 110.98,130.66 112,131 C112,130.34 112,129.68 112,129 C114.271,128.832 116.542,128.666 118.812,128.5 C120.709,128.361 120.709,128.361 122.645,128.219 C124.76,128.081 126.88,128 129,128 C129.66,128.66 130.32,129.32 131,130 C130.095,130.073 130.095,130.073 129.172,130.148 C128.373,130.223 127.573,130.298 126.75,130.375 C125.961,130.445 125.172,130.514 124.359,130.586 C121.979,130.888 121.979,130.888 119.938,132.031 C117.002,133.499 114.222,133.124 111,133 C111,133.66 111,134.32 111,135 C108.69,134.67 106.38,134.34 104,134 C103.856,132.783 103.711,131.566 103.562,130.312 C103.172,127.173 102.676,124.092 102,121 Z"/>
  <path fill="#A44350" d="M131,196 C131.33,196 131.66,196 132,196 C132,197.65 132,199.3 132,201 C131.01,201 130.02,201 129,201 C128.34,202.32 127.68,203.64 127,205 C125.511,204.882 125.511,204.882 123.992,204.762 C119.175,205.049 116.257,206.481 112.125,208.812 C111.112,209.347 111.112,209.347 110.078,209.893 C106.006,212.013 106.006,212.013 104,216 C102.68,216 101.36,216 100,216 C100,216.66 100,217.32 100,218 C99.319,218.268 98.639,218.536 97.938,218.812 C95.792,219.68 93.669,220.605 91.562,221.562 C88.299,222.879 85.476,223.576 82,224 C83,222 83,222 84.777,221.219 C85.49,220.982 86.203,220.744 86.938,220.5 C89.705,219.576 90.891,219.109 93,217 C94.277,216.522 95.572,216.088 96.875,215.688 C100.014,214.585 100.873,214.163 103,211.438 C105.904,207.898 108.564,207.813 113,207 C113,206.34 113,205.68 113,205 C113.664,204.818 114.328,204.636 115.012,204.449 C119.793,203.088 123.781,201.685 128,199 C128.99,199 129.98,199 131,199 C131,198.01 131,197.02 131,196 Z"/>
  <path fill="#934B4C" d="M64,72 C65.65,72 67.3,72 69,72 C69,72.66 69,73.32 69,74 C70.65,74 72.3,74 74,74 C74.33,74.66 74.66,75.32 75,76 C78.029,76.658 78.029,76.658 81,77 C81,77.66 81,78.32 81,79 C83.64,79.33 86.28,79.66 89,80 C89,80.66 89,81.32 89,82 C91.97,82 94.94,82 98,82 C98,82.33 98,82.66 98,83 C95.688,83.027 93.375,83.046 91.062,83.062 C89.775,83.074 88.487,83.086 87.16,83.098 C84,83 84,83 83,82 C81.886,81.917 80.772,81.835 79.625,81.75 C73.926,81.139 69.074,78.528 64,76 C64,74.68 64,73.36 64,72 Z"/>
  <path fill="#876D53" d="M160,48 C160.33,48.66 160.66,49.32 161,50 C160.558,50.419 160.116,50.838 159.66,51.27 C157.51,53.51 155.898,55.994 154.184,58.574 C153.598,59.28 153.598,59.28 153,60 C152.34,60 151.68,60 151,60 C151,60.66 151,61.32 151,62 C149.35,62 147.7,62 146,62 C146,61.34 146,60.68 146,60 C145.362,59.951 144.724,59.902 144.066,59.852 C143.24,59.777 142.414,59.702 141.562,59.625 C140.739,59.555 139.915,59.486 139.066,59.414 C138.384,59.277 137.703,59.141 137,59 C136.67,58.34 136.34,57.68 136,57 C137.299,57.165 138.599,57.33 139.938,57.5 C144.528,57.551 146.405,56.194 149.688,53.062 C150.422,52.332 151.157,51.601 151.914,50.848 C154.504,48.554 156.556,48 160,48 Z"/>
  <path fill="#876B48" d="M76,43 C76.33,43.99 76.66,44.98 77,46 C76.01,46 75.02,46 74,46 C74,46.66 74,47.32 74,48 C70.449,52.058 67.776,53.751 62.438,54.5 C58.887,54.765 58.887,54.765 56,57 C53.738,57.195 53.738,57.195 51.312,57.125 C50.504,57.107 49.696,57.089 48.863,57.07 C47.941,57.036 47.941,57.036 47,57 C47.66,58.32 48.32,59.64 49,61 C47.68,60.34 46.36,59.68 45,59 C46.21,55.369 47.76,54.612 51.043,52.84 C53.944,51.595 56.879,51.383 60,51 C65.936,49.336 70.913,46.423 76,43 Z"/>
  <path fill="#84564F" d="M24,216 C25.65,216 27.3,216 29,216 C32,222.625 32,222.625 32,226 C32.804,226.268 33.609,226.536 34.438,226.812 C35.283,227.204 36.129,227.596 37,228 C37.33,228.99 37.66,229.98 38,231 C39.98,231 41.96,231 44,231 C43.01,231.33 42.02,231.66 41,232 C41,232.66 41,233.32 41,234 C33.275,233.175 33.275,233.175 30.395,230.52 C29.112,228.733 28.032,226.942 27,225 C26.402,223.928 25.804,222.855 25.188,221.75 C24,219 24,219 24,216 Z"/>
  <path fill="#934F4B" d="M105,83 C105.33,83 105.66,83 106,83 C106.201,86.716 106.152,87.772 104,91 C103.634,93.319 103.634,93.319 103.586,95.887 C103.547,96.825 103.509,97.762 103.469,98.729 C103.438,99.705 103.407,100.681 103.375,101.688 C103.336,102.676 103.298,103.664 103.258,104.682 C103.164,107.121 103.078,109.56 103,112 C101.68,112.33 100.36,112.66 99,113 C99,106.07 99,99.14 99,92 C99.66,91.67 100.32,91.34 101,91 C101.652,88.975 101.652,88.975 102,87 C102.66,87 103.32,87 104,87 C104.33,85.68 104.66,84.36 105,83 Z"/>
  <path fill="#C2345A" d="M168,170 C168.66,170.33 169.32,170.66 170,171 C169.426,174.871 167.513,177.082 165,180 C165,178.68 165,177.36 165,176 C164.01,176 163.02,176 162,176 C162,176.66 162,177.32 162,178 C160.948,178.557 159.896,179.114 158.812,179.688 C156.179,181.177 154.567,182.433 152.375,184.625 C149.944,187.056 148.176,187.853 145,189 C144.67,189.66 144.34,190.32 144,191 C143.34,191 142.68,191 142,191 C142,191.66 142,192.32 142,193 C135.375,195 135.375,195 132,195 C132.99,193.515 132.99,193.515 134,192 C137.125,191.812 137.125,191.812 140,192 C140,191.34 140,190.68 140,190 C140.99,190 141.98,190 143,190 C143.33,189.01 143.66,188.02 144,187 C147.562,185.812 147.562,185.812 151,185 C151,184.01 151,183.02 151,182 C151.66,182 152.32,182 153,182 C153,181.34 153,180.68 153,180 C155.561,177.704 156.48,177 160,177 C160.33,176.01 160.66,175.02 161,174 C164.562,172.812 164.562,172.812 168,172 C168,171.34 168,170.68 168,170 Z"/>
  <path fill="#937266" d="M112,38 C112,38.66 112,39.32 112,40 C104.74,40 97.48,40 90,40 C89.67,40.99 89.34,41.98 89,43 C89,42.01 89,41.02 89,40 C88.34,40 87.68,40 87,40 C87,40.66 87,41.32 87,42 C84.03,41.505 84.03,41.505 81,41 C81.33,40.34 81.66,39.68 82,39 C92.259,35.928 101.804,34.529 112,38 Z"/>
  <path fill="#865D47" d="M167,116 C167.33,117.65 167.66,119.3 168,121 C168.66,121 169.32,121 170,121 C170,122.98 170,124.96 170,127 C170.66,127 171.32,127 172,127 C172,129.64 172,132.28 172,135 C168.826,131.55 168.601,128.549 168,124 C167.34,123.67 166.68,123.34 166,123 C166,121.02 166,119.04 166,117 C165.481,117.433 164.961,117.866 164.426,118.312 C163.728,118.869 163.031,119.426 162.312,120 C161.286,120.835 161.286,120.835 160.238,121.688 C157.612,123.227 155.994,123.252 153,123 C153,123.66 153,124.32 153,125 C151.02,125 149.04,125 147,125 C154.714,119 154.714,119 159,119 C159,118.34 159,117.68 159,117 C161.709,115.646 164.009,115.935 167,116 Z"/>
  <path fill="#977763" d="M193,80 C199.784,82.86 202.335,90.316 205.086,96.746 C206.462,100.14 207.748,103.558 209,107 C207.68,106.67 206.36,106.34 205,106 C205,104.68 205,103.36 205,102 C204.34,102 203.68,102 203,102 C202.697,101.227 202.394,100.453 202.082,99.656 C199.777,93.927 197.416,88.625 193.918,83.523 C193,82 193,82 193,80 Z"/>
  <path fill="#83674F" d="M164,29 C164.33,29 164.66,29 165,29 C165.53,36.069 165.72,41.729 161.445,47.641 C160,49 160,49 157.188,49.5 C156.466,49.335 155.744,49.17 155,49 C156.466,45.162 158.196,41.534 160.062,37.875 C161.573,34.913 162.948,32.155 164,29 Z"/>
  <path fill="#876C44" d="M136,84 C136,85.98 136,87.96 136,90 C135.34,90 134.68,90 134,90 C133.878,90.715 133.755,91.431 133.629,92.168 C132.989,95.051 132.064,97.586 130.938,100.312 C130.575,101.196 130.213,102.079 129.84,102.988 C129.424,103.984 129.424,103.984 129,105 C128.34,105 127.68,105 127,105 C126.648,99.139 126.841,95.149 130,90 C130.516,89.072 131.031,88.144 131.562,87.188 C133.657,84 133.657,84 136,84 Z"/>
  <path fill="#7A564F" d="M68,229 C67.67,230.32 67.34,231.64 67,233 C65.127,233.509 63.252,234.007 61.375,234.5 C60.331,234.778 59.287,235.057 58.211,235.344 C55.043,235.991 52.223,236.116 49,236 C49,235.34 49,234.68 49,234 C48.01,233.67 47.02,233.34 46,233 C50.98,231.376 55.639,230.638 60.863,230.246 C63.617,229.929 65.114,229 68,229 Z"/>
  <path fill="#C13A5E" d="M72,224 C73.65,224 75.3,224 77,224 C77.495,225.98 77.495,225.98 78,228 C75.009,229.495 72.258,229.054 68.938,229 C66.625,228.962 64.312,228.953 62,229 C61.67,229.33 61.34,229.66 61,230 C57.216,230.28 53.418,230.232 49.625,230.25 C48.024,230.281 48.024,230.281 46.391,230.312 C44.855,230.32 44.855,230.32 43.289,230.328 C42.348,230.337 41.406,230.347 40.436,230.356 C37.605,229.942 36.744,229.207 35,227 C36.32,227 37.64,227 39,227 C39,227.66 39,228.32 39,229 C42.48,228.862 45.959,228.713 49.438,228.562 C50.431,228.523 51.424,228.484 52.447,228.443 C53.392,228.401 54.336,228.36 55.309,228.316 C56.183,228.28 57.058,228.243 57.959,228.205 C59.993,228.218 59.993,228.218 61,227 C62.853,226.928 64.708,226.916 66.562,226.938 C67.574,226.947 68.586,226.956 69.629,226.965 C70.411,226.976 71.194,226.988 72,227 C72,226.01 72,225.02 72,224 Z"/>
  <path fill="#B9B94E" d="M83,40 C83.33,40.66 83.66,41.32 84,42 C84.99,42 85.98,42 87,42 C87,41.34 87,40.68 87,40 C87.66,40 88.32,40 89,40 C89.33,40.99 89.66,41.98 90,43 C91.666,43.043 93.334,43.041 95,43 C95.33,42.67 95.66,42.34 96,42 C102.031,41.503 107.302,42.018 113,44 C113,44.33 113,44.66 113,45 C106.848,45.098 106.848,45.098 105,45 C104.67,44.67 104.34,44.34 104,44 C101.672,43.632 99.338,43.298 97,43 C97,43.66 97,44.32 97,45 C91.39,45 85.78,45 80,45 C80,45.66 80,46.32 80,47 C79.34,46.67 78.68,46.34 78,46 C80.75,41.125 80.75,41.125 83,40 Z"/>
  <path fill="#856647" d="M189,154 C190.32,154.33 191.64,154.66 193,155 C193,156.32 193,157.64 193,159 C194.32,159 195.64,159 197,159 C196.979,160.114 196.959,161.227 196.938,162.375 C196.736,165.832 196.736,165.832 198,168 C196.35,168 194.7,168 193,168 C188.408,158.59 188.408,158.59 189,154 Z"/>
  <path fill="#A59D3E" d="M136,87 C137.553,91.733 135.847,94.602 134,99 C133.771,99.673 133.541,100.346 133.305,101.039 C132.625,102.938 132.625,102.938 131,106 C128.398,106.691 128.398,106.691 126,107 C125.631,94.33 125.631,94.33 128,89 C128.33,89 128.66,89 129,89 C129.043,91 129.041,93 129,95 C128.67,95.33 128.34,95.66 128,96 C127.768,97.515 127.588,99.038 127.438,100.562 C127.354,101.389 127.27,102.215 127.184,103.066 C127.123,103.704 127.062,104.343 127,105 C127.66,105 128.32,105 129,105 C129.268,103.824 129.536,102.649 129.812,101.438 C130.814,97.394 132.266,93.783 134,90 C134.66,90 135.32,90 136,90 C136,89.01 136,88.02 136,87 Z"/>
  <path fill="#A69F3E" d="M189,75 C190.65,76.65 192.3,78.3 194,80 C193.01,80 192.02,80 191,80 C191.309,80.763 191.619,81.526 191.938,82.312 C192.679,84.188 193.362,86.087 194,88 C194.66,88 195.32,88 196,88 C196.193,88.603 196.387,89.207 196.586,89.828 C196.846,90.627 197.107,91.427 197.375,92.25 C197.63,93.039 197.885,93.828 198.148,94.641 C198.944,97.011 198.944,97.011 200.125,99.156 C201,101 201,101 200.625,103.25 C200.419,103.827 200.212,104.405 200,105 C200,104.01 200,103.02 200,102 C199.01,102 198.02,102 197,102 C195.409,97.823 194.787,94.468 195,90 C194.34,90 193.68,90 193,90 C191.981,88.345 190.982,86.677 190,85 C189.34,84.67 188.68,84.34 188,84 C188,82.35 188,80.7 188,79 C188.66,79 189.32,79 190,79 C189.67,77.68 189.34,76.36 189,75 Z"/>
  <path fill="#8B7545" d="M183,32 C183,34.621 182.687,36.509 182,39 C181.34,39 180.68,39 180,39 C180,39.99 180,40.98 180,42 C180.66,42.33 181.32,42.66 182,43 C180.02,45.31 178.04,47.62 176,50 C175.67,49.34 175.34,48.68 175,48 C174.34,48 173.68,48 173,48 C173,46.68 173,45.36 173,44 C173.99,44 174.98,44 176,44 C176.103,43.278 176.206,42.556 176.312,41.812 C177.436,37.217 179.061,34.626 183,32 Z"/>
  <path fill="#907C42" d="M169,78 C171.375,78.25 171.375,78.25 174,79 C175.125,81 175.125,81 176,83 C176.99,83.33 177.98,83.66 179,84 C180.203,85.777 180.203,85.777 181.25,87.938 C181.606,88.648 181.962,89.358 182.328,90.09 C182.55,90.72 182.772,91.351 183,92 C182.67,92.66 182.34,93.32 182,94 C180.68,92.02 179.36,90.04 178,88 C177.01,89.485 177.01,89.485 176,91 C175.662,90.446 175.325,89.891 174.977,89.32 C174.531,88.596 174.085,87.871 173.625,87.125 C172.964,86.046 172.964,86.046 172.289,84.945 C171.015,82.882 171.015,82.882 169,81 C169,80.01 169,79.02 169,78 Z"/>
  <path fill="#7E6244" d="M171.562,50.938 C172.769,50.968 172.769,50.968 174,51 C173.393,54.153 172.358,56.189 170.438,58.75 C169.755,59.67 169.755,59.67 169.059,60.609 C168.709,61.068 168.36,61.527 168,62 C167.34,61.67 166.68,61.34 166,61 C165.67,61.66 165.34,62.32 165,63 C164.34,63 163.68,63 163,63 C162.67,63.99 162.34,64.98 162,66 C161.75,63.75 161.75,63.75 162,61 C163.29,59.624 164.627,58.292 166,57 C167.19,54.401 167.19,54.401 168,52 C169,51 169,51 171.562,50.938 Z"/>
  <path fill="#9F4E59" d="M181,159 C182,161 182,161 181.312,163.375 C179.881,166.239 178.473,167.977 176,170 C175.01,170 174.02,170 173,170 C173.33,171.32 173.66,172.64 174,174 C172.35,173.67 170.7,173.34 169,173 C170.309,170.079 171.756,168.244 174,166 C174.33,165.01 174.66,164.02 175,163 C177.001,160.635 177.968,160.011 181,159 Z"/>
  <path fill="#8B7243" d="M144,70 C145.32,70 146.64,70 148,70 C147.468,73.828 146.651,76.16 144,79 C141.028,81.08 139.662,82 136,82 C137.65,78.7 139.3,75.4 141,72 C141.99,72 142.98,72 144,72 C144,71.34 144,70.68 144,70 Z"/>
  <path fill="#9E9240" d="M166,54 C166.33,54.99 166.66,55.98 167,57 C166.34,57.619 165.68,58.237 165,58.875 C162.772,60.756 162.772,60.756 163,63 C163.66,63 164.32,63 165,63 C165.33,62.01 165.66,61.02 166,60 C166.33,60 166.66,60 167,60 C167.33,62.97 167.66,65.94 168,69 C167.01,68.01 166.02,67.02 165,66 C164.01,67.485 164.01,67.485 163,69 C161.68,68.67 160.36,68.34 159,68 C158.385,62.924 160.383,60.17 163,56 C163.99,56 164.98,56 166,56 C166,55.34 166,54.68 166,54 Z"/>
  <path fill="#B2B13C" d="M75,47 C75.66,47.33 76.32,47.66 77,48 C76.34,48.66 75.68,49.32 75,50 C74.01,50 73.02,50 72,50 C71.691,50.639 71.381,51.279 71.062,51.938 C70,54 70,54 69,55 C67.481,55.072 65.958,55.084 64.438,55.062 C63.611,55.053 62.785,55.044 61.934,55.035 C61.296,55.024 60.657,55.012 60,55 C60,55.66 60,56.32 60,57 C58.35,57.66 56.7,58.32 55,59 C55,59.66 55,60.32 55,61 C53.35,61 51.7,61 50,61 C50,59.68 50,58.36 50,57 C50.566,56.867 51.132,56.734 51.715,56.598 C52.815,56.333 52.815,56.333 53.938,56.062 C54.668,55.888 55.399,55.714 56.152,55.535 C58,55.161 58,55.161 59,54 C60.093,53.856 61.186,53.711 62.312,53.562 C65.471,53.081 67.39,52.74 70,51 C70.66,50.01 71.32,49.02 72,48 C72.99,47.67 73.98,47.34 75,47 Z"/>
  <path fill="#968444" d="M94,41 C96.729,40.973 99.458,40.953 102.188,40.938 C102.956,40.929 103.725,40.921 104.518,40.912 C108.485,40.895 112.126,41.014 116,42 C116.33,43.32 116.66,44.64 117,46 C118.65,46 120.3,46 122,46 C122,46.66 122,47.32 122,48 C122.99,48.33 123.98,48.66 125,49 C123.68,49 122.36,49 121,49 C121,48.34 121,47.68 121,47 C119.855,47.062 119.855,47.062 118.688,47.125 C116,47 116,47 113,45 C107.348,42.924 102.008,42.505 96,43 C95.67,43.33 95.34,43.66 95,44 C93.334,44.041 91.666,44.043 90,44 C91.32,43.67 92.64,43.34 94,43 C94,42.34 94,41.68 94,41 Z"/>
  <path fill="#A9A259" d="M202,147 C203.886,150.183 204.23,152.325 204,156 C203.301,158.641 203.301,158.641 202.312,161.25 C201.843,162.557 201.843,162.557 201.363,163.891 C200,166 200,166 197.355,166.797 C196.19,166.897 196.19,166.897 195,167 C195.66,166.34 196.32,165.68 197,165 C198.364,161.629 199.118,158.469 199.5,154.875 C199.92,151.621 200.298,149.722 202,147 Z"/>
  <path fill="#BFC53A" d="M124.066,124.902 C125.302,124.92 125.302,124.92 126.562,124.938 C127.389,124.947 128.215,124.956 129.066,124.965 C129.704,124.976 130.343,124.988 131,125 C131.33,125.99 131.66,126.98 132,128 C130.02,127.34 128.04,126.68 126,126 C126,126.99 126,127.98 126,129 C121.38,129 116.76,129 112,129 C112,129.66 112,130.32 112,131 C110.68,130.67 109.36,130.34 108,130 C108.33,129.01 108.66,128.02 109,127 C109.855,126.939 110.709,126.879 111.59,126.816 C113.247,126.691 113.247,126.691 114.938,126.562 C116.04,126.481 117.142,126.4 118.277,126.316 C121.052,125.994 121.464,125.025 124.066,124.902 Z"/>
  <path fill="#EB3852" d="M82.062,117.938 C83.517,117.968 83.517,117.968 85,118 C85,120.64 85,123.28 85,126 C83.009,126.381 81.007,126.713 79,127 C78,126 78,126 77.875,122.5 C78.035,118.02 78.035,118.02 82.062,117.938 Z"/>
  <path fill="#917C43" d="M200,142 C200.562,143.938 200.562,143.938 201,146 C200.67,146.33 200.34,146.66 200,147 C199.979,148.896 200.009,150.792 200.062,152.688 C200.111,157.214 199.867,160.799 198,165 C197.67,165 197.34,165 197,165 C197,163.02 197,161.04 197,159 C195.68,159 194.36,159 193,159 C193.33,158.34 193.66,157.68 194,157 C194.33,156.319 194.66,155.639 195,154.938 C196,153 196,153 197,152 C197.225,149.972 197.448,147.943 197.621,145.91 C198,144 198,144 200,142 Z"/>
  <path fill="#B03B54" d="M74,80 C75.48,80.14 76.959,80.288 78.438,80.438 C79.673,80.559 79.673,80.559 80.934,80.684 C83,81 83,81 84,82 C86.421,82.213 88.824,82.377 91.25,82.5 C95.573,82.725 99.77,83.016 104,84 C104,84.99 104,85.98 104,87 C103.34,87 102.68,87 102,87 C101.67,88.65 101.34,90.3 101,92 C99.667,89.333 100.329,87.833 101,85 C99.712,84.939 98.424,84.879 97.098,84.816 C95.419,84.732 93.741,84.647 92.062,84.562 C91.212,84.523 90.362,84.484 89.486,84.443 C88.273,84.381 88.273,84.381 87.035,84.316 C86.286,84.28 85.537,84.243 84.766,84.205 C83,84 83,84 82,83 C80.653,82.769 79.296,82.588 77.938,82.438 C76.638,82.293 75.339,82.149 74,82 C74,81.34 74,80.68 74,80 Z"/>
  <path fill="#BB9F4A" d="M179,144 C181.31,144.33 183.62,144.66 186,145 C186.33,147.31 186.66,149.62 187,152 C188.98,152 190.96,152 193,152 C192.67,152.99 192.34,153.98 192,155 C190.02,155.33 188.04,155.66 186,156 C185.67,154.35 185.34,152.7 185,151 C184.34,151 183.68,151 183,151 C183,149.35 183,147.7 183,146 C181.68,146 180.36,146 179,146 C179,145.34 179,144.68 179,144 Z"/>
  <path fill="#BD3959" d="M52,66 C53.32,66 54.64,66 56,66 C56.33,66.99 56.66,67.98 57,69 C56.01,69 55.02,69 54,69 C53.67,69.99 53.34,70.98 53,72 C52.01,72 51.02,72 50,72 C49.845,73.145 49.845,73.145 49.688,74.312 C49,77 49,77 47.594,78.375 C45.682,80.324 44.867,82.179 43.812,84.688 C43.296,85.9 43.296,85.9 42.77,87.137 C42.389,88.059 42.389,88.059 42,89 C41.34,88.67 40.68,88.34 40,88 C41.123,85.728 42.248,83.457 43.375,81.188 C43.692,80.545 44.009,79.902 44.336,79.24 C45.765,76.368 47.218,73.673 49,71 C49.99,71 50.98,71 52,71 C52,69.35 52,67.7 52,66 Z"/>
  <path fill="#B0A662" d="M178,21 C183.177,22.035 188.595,23.794 192,28 C191.67,28.99 191.34,29.98 191,31 C190.01,30.67 189.02,30.34 188,30 C188,29.34 188,28.68 188,28 C186.68,27.67 185.36,27.34 184,27 C184,26.34 184,25.68 184,25 C182.02,25 180.04,25 178,25 C178,23.68 178,22.36 178,21 Z"/>
  <path fill="#B1B03D" d="M168,33 C168.33,34.32 168.66,35.64 169,37 C168.34,37 167.68,37 167,37 C167.062,37.887 167.124,38.774 167.188,39.688 C166.979,43.365 166.218,45.1 164,48 C163.34,48 162.68,48 162,48 C161.67,49.32 161.34,50.64 161,52 C160.34,52 159.68,52 159,52 C159,52.66 159,53.32 159,54 C158.34,53.67 157.68,53.34 157,53 C157.99,51.515 157.99,51.515 159,50 C159.66,50 160.32,50 161,50 C160.917,49.319 160.835,48.639 160.75,47.938 C161.086,43.992 162.927,41.263 165,38 C165.577,37.031 166.155,36.061 166.75,35.062 C167.163,34.382 167.575,33.701 168,33 Z"/>
  <path fill="#EE4948" d="M61,185 C62.98,185 64.96,185 67,185 C67,187.64 67,190.28 67,193 C65.02,193 63.04,193 61,193 C61,190.36 61,187.72 61,185 Z"/>
  <path fill="#835951" d="M27,178 C27.33,178 27.66,178 28,178 C28.198,184.705 28.308,190.652 26,197 C25.34,197 24.68,197 24,197 C23.646,189.874 24.043,184.529 27,178 Z"/>
  <path fill="#B7B93B" d="M106,90 C106.562,91.938 106.562,91.938 107,94 C106.67,94.33 106.34,94.66 106,95 C105.843,96.486 105.749,97.979 105.684,99.473 C105.642,100.372 105.6,101.271 105.557,102.197 C105.517,103.143 105.478,104.088 105.438,105.062 C105.394,106.012 105.351,106.961 105.307,107.939 C105.2,110.293 105.098,112.646 105,115 C104.34,115 103.68,115 103,115 C103,115.99 103,116.98 103,118 C104.32,118.66 105.64,119.32 107,120 C106.67,120.66 106.34,121.32 106,122 C104.68,121.67 103.36,121.34 102,121 C102,118.69 102,116.38 102,114 C102.66,114 103.32,114 104,114 C103.99,113.38 103.979,112.759 103.968,112.12 C103.927,109.309 103.901,106.498 103.875,103.688 C103.858,102.711 103.841,101.735 103.824,100.729 C103.818,99.791 103.811,98.853 103.805,97.887 C103.794,97.023 103.784,96.159 103.773,95.268 C104,93 104,93 106,90 Z"/>
  <path fill="#AD445B" d="M103,212 C103.66,212.33 104.32,212.66 105,213 C104.67,213.99 104.34,214.98 104,216 C102.68,216 101.36,216 100,216 C100,216.66 100,217.32 100,218 C99.319,218.268 98.639,218.536 97.938,218.812 C95.792,219.68 93.669,220.605 91.562,221.562 C88.299,222.879 85.476,223.576 82,224 C83,222 83,222 84.777,221.219 C85.49,220.982 86.203,220.744 86.938,220.5 C89.705,219.576 90.891,219.109 93,217 C95.014,216.161 97.058,215.48 99.125,214.781 C101.196,214.058 101.196,214.058 103,212 Z"/>
  <path fill="#BABD45" d="M174,20 C175.32,20 176.64,20 178,20 C178.144,21.114 178.289,22.228 178.438,23.375 C178.784,26.821 178.784,26.821 180,29 C178.35,28.67 176.7,28.34 175,28 C175,27.01 175,26.02 175,25 C174.01,25 173.02,25 172,25 C171.67,26.98 171.34,28.96 171,31 C170.34,31 169.68,31 169,31 C169.66,28.69 170.32,26.38 171,24 C171.99,24 172.98,24 174,24 C174,22.68 174,21.36 174,20 Z"/>
  <path fill="#836246" d="M102,96 C102.33,96 102.66,96 103,96 C103,101.28 103,106.56 103,112 C102.01,112 101.02,112 100,112 C99.946,109.709 99.907,107.417 99.875,105.125 C99.852,103.849 99.829,102.573 99.805,101.258 C100,98 100,98 102,96 Z"/>
  <path fill="#A59C3F" d="M132,64 C132,65.65 132,67.3 132,69 C131.01,69.33 130.02,69.66 129,70 C129,70.66 129,71.32 129,72 C127.68,72 126.36,72 125,72 C125,72.66 125,73.32 125,74 C124.01,74.33 123.02,74.66 122,75 C121.67,75.66 121.34,76.32 121,77 C119.68,76.67 118.36,76.34 117,76 C118.764,74.658 120.537,73.327 122.312,72 C123.299,71.257 124.285,70.515 125.301,69.75 C128,68 128,68 131,68 C131,67.01 131,66.02 131,65 C128.36,65.99 125.72,66.98 123,68 C123,67.34 123,66.68 123,66 C126.135,64.142 128.375,63.799 132,64 Z"/>
  <path fill="#B8BB3E" d="M175,39 C175.66,39.33 176.32,39.66 177,40 C176.67,41.32 176.34,42.64 176,44 C175.01,44 174.02,44 173,44 C173,45.32 173,46.64 173,48 C173.66,48 174.32,48 175,48 C175,48.99 175,49.98 175,51 C172.36,51.66 169.72,52.32 167,53 C167.33,51.35 167.66,49.7 168,48 C168.66,48 169.32,48 170,48 C170,46.68 170,45.36 170,44 C171.65,43.67 173.3,43.34 175,43 C175,41.68 175,40.36 175,39 Z"/>
  <path fill="#978073" d="M103,37 C103,37.66 103,38.32 103,39 C96.565,39.495 96.565,39.495 90,40 C89.67,40.99 89.34,41.98 89,43 C89,42.01 89,41.02 89,40 C88.34,40 87.68,40 87,40 C87,40.66 87,41.32 87,42 C84.03,41.505 84.03,41.505 81,41 C81.33,40.34 81.66,39.68 82,39 C88.78,37.435 96.05,36.913 103,37 Z"/>
  <path fill="#958342" d="M204,123 C204.99,123 205.98,123 207,123 C207.054,124.75 207.093,126.5 207.125,128.25 C207.148,129.225 207.171,130.199 207.195,131.203 C206.999,134.02 206.446,135.609 205,138 C204.67,136.02 204.34,134.04 204,132 C203.01,133.32 202.02,134.64 201,136 C201.656,131.515 202.701,127.331 204,123 Z"/>
  <path fill="#B6B83B" d="M201,130 C202.289,132.579 201.966,134.145 201.688,137 C201.57,138.33 201.57,138.33 201.449,139.688 C201,142 201,142 199,144 C198.771,145.962 198.545,147.925 198.352,149.891 C197.846,152.926 196.522,155.354 195,158 C194.34,157.67 193.68,157.34 193,157 C193,156.34 193,155.68 193,155 C193.66,155 194.32,155 195,155 C195.66,150.38 196.32,145.76 197,141 C197.99,140.67 198.98,140.34 200,140 C199.988,139.362 199.977,138.724 199.965,138.066 C199.956,137.24 199.947,136.414 199.938,135.562 C199.926,134.739 199.914,133.915 199.902,133.066 C200,131 200,131 201,130 Z"/>
  <path fill="#846F56" d="M204,102 C204.66,103.32 205.32,104.64 206,106 C206.99,106.33 207.98,106.66 209,107 C209,109.64 209,112.28 209,115 C207.35,114.67 205.7,114.34 204,114 C204,110.04 204,106.08 204,102 Z"/>
  <path fill="#967563" d="M40,53 C42.164,53.023 42.164,53.023 44.625,53.375 C45.851,53.541 45.851,53.541 47.102,53.711 C47.728,53.806 48.355,53.902 49,54 C49,54.33 49,54.66 49,55 C46.69,55.33 44.38,55.66 42,56 C41.67,57.32 41.34,58.64 41,60 C41.66,60.33 42.32,60.66 43,61 C43,61.66 43,62.32 43,63 C40.133,62.427 39.139,62.139 37,60 C37.33,56.703 37.623,55.377 40,53 Z"/>
  <path fill="#BCC044" d="M160,59 C160.66,59.33 161.32,59.66 162,60 C161.01,61.485 161.01,61.485 160,63 C159.833,65.625 159.833,65.625 160,68 C160.99,68 161.98,68 163,68 C163.66,67.01 164.32,66.02 165,65 C168,68.75 168,68.75 168,71 C169.65,71 171.3,71 173,71 C173,71.33 173,71.66 173,72 C169.625,72.125 169.625,72.125 166,72 C165.34,71.34 164.68,70.68 164,70 C162.334,69.959 160.666,69.957 159,70 C158,69 158,69 157.812,65.625 C158,62 158,62 160,59 Z"/>
  <path fill="#F05F3C" d="M101,143 C102.65,143 104.3,143 106,143 C106.33,144.65 106.66,146.3 107,148 C106.34,148 105.68,148 105,148 C104.67,148.99 104.34,149.98 104,151 C103.01,151 102.02,151 101,151 C101,148.36 101,145.72 101,143 Z"/>
  <path fill="#8F7846" d="M55.312,52.125 C57,53 57,53 59,55 C55.796,57.136 54.981,57.231 51.312,57.125 C50.504,57.107 49.696,57.089 48.863,57.07 C47.941,57.036 47.941,57.036 47,57 C47.66,58.32 48.32,59.64 49,61 C47.68,60.34 46.36,59.68 45,59 C46.281,55.156 47.783,54.571 51.219,52.727 C53,52 53,52 55.312,52.125 Z"/>
  <path fill="#9F4754" d="M65.562,227.938 C66.697,227.958 67.831,227.979 69,228 C69,228.99 69,229.98 69,231 C68.67,230.34 68.34,229.68 68,229 C67.298,229.326 66.596,229.652 65.872,229.988 C62.724,231.097 60.371,231.229 57.043,231.195 C55.931,231.189 54.819,231.182 53.674,231.176 C52.523,231.159 51.373,231.142 50.188,231.125 C49.018,231.116 47.848,231.107 46.643,231.098 C43.762,231.074 40.881,231.041 38,231 C38,230.67 38,230.34 38,230 C38.692,229.975 39.383,229.95 40.095,229.924 C43.21,229.808 46.324,229.686 49.438,229.562 C51.07,229.504 51.07,229.504 52.736,229.443 C53.771,229.401 54.805,229.36 55.871,229.316 C56.829,229.28 57.788,229.243 58.775,229.205 C62.066,228.902 61.731,228.005 65.562,227.938 Z"/>
  <path fill="#F05D3D" d="M104,193 C104.99,193.33 105.98,193.66 107,194 C107,195.98 107,197.96 107,200 C105.02,200.33 103.04,200.66 101,201 C100.631,196.446 100.631,196.446 102.5,194.188 C102.995,193.796 103.49,193.404 104,193 Z"/>
  <path fill="#8F4C4F" d="M152,187 C151.34,187.66 150.68,188.32 150,189 C149.01,189 148.02,189 147,189 C146.67,189.99 146.34,190.98 146,192 C145.01,192 144.02,192 143,192 C143,192.66 143,193.32 143,194 C142.361,194.124 141.721,194.247 141.062,194.375 C140.382,194.581 139.701,194.788 139,195 C138.67,195.66 138.34,196.32 138,197 C136.68,197 135.36,197 134,197 C134.66,195.68 135.32,194.36 136,193 C137.98,193 139.96,193 142,193 C142,192.34 142,191.68 142,191 C142.66,191 143.32,191 144,191 C144.33,190.01 144.66,189.02 145,188 C149.443,185.722 149.443,185.722 152,187 Z"/>
  <path fill="#F0603C" d="M62,147 C63.65,147 65.3,147 67,147 C67,149.64 67,152.28 67,155 C66.01,155 65.02,155 64,155 C62,153 62,153 61.875,149.875 C61.916,148.926 61.958,147.977 62,147 Z"/>
  <path fill="#91504B" d="M163,116 C164.32,116 165.64,116 167,116 C167.33,117.65 167.66,119.3 168,121 C168.66,121 169.32,121 170,121 C170,122.98 170,124.96 170,127 C170.66,127 171.32,127 172,127 C172,129.64 172,132.28 172,135 C168.826,131.55 168.601,128.549 168,124 C167.34,123.67 166.68,123.34 166,123 C166,121.02 166,119.04 166,117 C165.01,117.33 164.02,117.66 163,118 C163,117.34 163,116.68 163,116 Z"/>
  <path fill="#845A47" d="M78,77 C78.99,77 79.98,77 81,77 C81,77.66 81,78.32 81,79 C83.64,79.33 86.28,79.66 89,80 C89,80.66 89,81.32 89,82 C91.97,82 94.94,82 98,82 C98,82.33 98,82.66 98,83 C84.037,83.689 84.037,83.689 80.125,81.125 C79.424,80.424 78.723,79.723 78,79 C78,78.34 78,77.68 78,77 Z"/>
  <path fill="#8F4A4E" d="M50,67 C50.66,67 51.32,67 52,67 C52,68.32 52,69.64 52,71 C51.01,71 50.02,71 49,71 C48.752,71.722 48.505,72.444 48.25,73.188 C46.89,76.247 45.171,78.467 43,81 C42.34,79.02 41.68,77.04 41,75 C41.639,74.876 42.279,74.753 42.938,74.625 C43.618,74.419 44.299,74.213 45,74 C45.33,73.34 45.66,72.68 46,72 C46.66,72 47.32,72 48,72 C48,71.01 48,70.02 48,69 C48.66,69 49.32,69 50,69 C50,68.34 50,67.68 50,67 Z"/>
  <path fill="#B3B23C" d="M166,84 C166.33,84 166.66,84 167,84 C167,91.26 167,98.52 167,106 C167.66,106 168.32,106 169,106 C169,108.97 169,111.94 169,115 C168.67,115 168.34,115 168,115 C165.639,108.521 165.769,102.402 165.875,95.562 C165.884,94.449 165.893,93.336 165.902,92.189 C165.926,89.459 165.959,86.73 166,84 Z"/>
  <path fill="#A7A04A" d="M153,56 C153.66,56.33 154.32,56.66 155,57 C154.01,58.485 154.01,58.485 153,60 C152.34,60 151.68,60 151,60 C151,60.66 151,61.32 151,62 C149.35,62 147.7,62 146,62 C146,61.34 146,60.68 146,60 C145.362,59.951 144.724,59.902 144.066,59.852 C143.24,59.777 142.414,59.702 141.562,59.625 C140.739,59.555 139.915,59.486 139.066,59.414 C138.384,59.277 137.703,59.141 137,59 C136.67,58.34 136.34,57.68 136,57 C141.28,57.33 146.56,57.66 152,58 C152.33,57.34 152.66,56.68 153,56 Z"/>
  <path fill="#845E48" d="M112,38 C112.99,38.66 113.98,39.32 115,40 C114.34,40 113.68,40 113,40 C113,40.66 113,41.32 113,42 C106.73,41.67 100.46,41.34 94,41 C94,41.66 94,42.32 94,43 C92.68,43 91.36,43 90,43 C90,42.01 90,41.02 90,40 C97.26,40 104.52,40 112,40 C112,39.34 112,38.68 112,38 Z"/>
  <path fill="#EF5244" d="M84,165 C85.98,165 87.96,165 90,165 C90,166.98 90,168.96 90,171 C88.02,171 86.04,171 84,171 C84,169.02 84,167.04 84,165 Z"/>
  <path fill="#816245" d="M162,85 C162.99,85 163.98,85 165,85 C164.887,87.48 164.76,89.958 164.625,92.438 C164.594,93.145 164.563,93.852 164.531,94.58 C164.427,96.392 164.221,98.198 164,100 C163.01,100.495 163.01,100.495 162,101 C162,95.72 162,90.44 162,85 Z"/>
  <path fill="#946D68" d="M49,64 C49.66,64 50.32,64 51,64 C50.67,65.65 50.34,67.3 50,69 C49.34,69 48.68,69 48,69 C48,69.99 48,70.98 48,72 C47.34,72 46.68,72 46,72 C45.67,72.99 45.34,73.98 45,75 C44.01,74.67 43.02,74.34 42,74 C42.783,72.661 43.577,71.329 44.375,70 C44.816,69.257 45.257,68.515 45.711,67.75 C46.136,67.173 46.562,66.595 47,66 C47.66,66 48.32,66 49,66 C49,65.34 49,64.68 49,64 Z"/>
  <path fill="#A39766" d="M61,50 C60.67,50.66 60.34,51.32 60,52 C57.673,52.374 55.339,52.708 53,53 C52.67,53.33 52.34,53.66 52,54 C50,54.041 48,54.043 46,54 C46,53.34 46,52.68 46,52 C47.558,51.465 49.121,50.947 50.688,50.438 C51.558,50.147 52.428,49.857 53.324,49.559 C56.246,48.949 58.144,49.223 61,50 Z"/>
  <path fill="#F1603C" d="M92,202 C92,203.98 92,205.96 92,208 C90.02,208.33 88.04,208.66 86,209 C85.812,206.625 85.812,206.625 86,204 C89,202 89,202 92,202 Z"/>
  <path fill="#B7BA3B" d="M182,91 C182.66,91 183.32,91 184,91 C187.333,98.424 189.287,104.809 189,113 C188.67,113 188.34,113 188,113 C186.501,109.003 185.793,105.338 185.352,101.102 C184.753,97.525 183.374,94.346 182,91 Z"/>
  <path fill="#886A5E" d="M113,213 C110.626,215.624 108.151,217.386 105,219 C103.68,219 102.36,219 101,219 C101,218.34 101,217.68 101,217 C101.99,217 102.98,217 104,217 C104,216.01 104,215.02 104,214 C109.625,211.875 109.625,211.875 113,213 Z"/>
  <path fill="#EF5144" d="M156.562,134.938 C157.769,134.968 157.769,134.968 159,135 C159,136.98 159,138.96 159,141 C157.35,141 155.7,141 154,141 C153.618,139.344 153.286,137.675 153,136 C154,135 154,135 156.562,134.938 Z"/>
  <path fill="#BD365B" d="M39,90 C39.33,90 39.66,90 40,90 C40.043,92 40.041,94 40,96 C39.67,96.33 39.34,96.66 39,97 C38.632,99.328 38.298,101.662 38,104 C37.34,104 36.68,104 36,104 C35.67,105.65 35.34,107.3 35,109 C33.784,105.353 34.352,103.746 35.312,100.062 C35.577,99.022 35.841,97.982 36.113,96.91 C36.875,94.411 37.742,92.279 39,90 Z"/>
  <path fill="#F16439" d="M69,94 C69.99,94.33 70.98,94.66 72,95 C72,97.31 72,99.62 72,102 C70.35,102 68.7,102 67,102 C66.799,98.284 66.848,97.228 69,94 Z"/>
  <path fill="#8B6960" d="M31,228 C35.29,228.99 39.58,229.98 44,231 C43.01,231.33 42.02,231.66 41,232 C41,232.66 41,233.32 41,234 C36.545,233.01 36.545,233.01 32,232 C31.67,230.68 31.34,229.36 31,228 Z"/>
  <path fill="#F16439" d="M55,166 C57.062,166.438 57.062,166.438 59,167 C59,168.98 59,170.96 59,173 C57.35,173 55.7,173 54,173 C53.957,171 53.959,169 54,167 C54.33,166.67 54.66,166.34 55,166 Z"/>
  <path fill="#875A54" d="M30,147 C30.33,147 30.66,147 31,147 C31.054,149.75 31.094,152.499 31.125,155.25 C31.15,156.416 31.15,156.416 31.176,157.605 C31.237,164.724 31.237,164.724 29,168 C27,165 27,165 27.375,162.812 C27.581,162.214 27.788,161.616 28,161 C28.33,161 28.66,161 29,161 C29.33,156.38 29.66,151.76 30,147 Z"/>
  <path fill="#F05F3C" d="M158,153 C159.675,153.286 161.344,153.618 163,154 C162.34,155.65 161.68,157.3 161,159 C159.35,159 157.7,159 156,159 C156.875,154.125 156.875,154.125 158,153 Z"/>
  <path fill="#B6B93B" d="M136,87 C137.049,90.167 136.984,91.816 135.688,94.875 C135.406,95.563 135.125,96.252 134.836,96.961 C134.56,97.634 134.284,98.307 134,99 C133.323,100.996 132.652,102.995 132,105 C131.67,105 131.34,105 131,105 C130.685,99.01 131.318,95.364 134,90 C134.66,90 135.32,90 136,90 C136,89.01 136,88.02 136,87 Z"/>
  <path fill="#B8BC3B" d="M100.625,41.812 C105.133,41.845 108.757,42.524 113,44 C113,44.33 113,44.66 113,45 C106.848,45.098 106.848,45.098 105,45 C104.67,44.67 104.34,44.34 104,44 C101.672,43.632 99.338,43.298 97,43 C97,43.66 97,44.32 97,45 C94.36,45 91.72,45 89,45 C89.33,44.34 89.66,43.68 90,43 C91.207,43.031 91.207,43.031 92.438,43.062 C95.48,42.988 97.316,41.837 100.625,41.812 Z"/>
  <path fill="#EF5840" d="M118,175 C119.32,175 120.64,175 122,175 C122,176.98 122,178.96 122,181 C120.02,181 118.04,181 116,181 C116,179.68 116,178.36 116,177 C116.66,177 117.32,177 118,177 C118,176.34 118,175.68 118,175 Z"/>
  <path fill="#94746B" d="M28,148 C28.66,148 29.32,148 30,148 C30,152.29 30,156.58 30,161 C29.01,161 28.02,161 27,161 C27.33,156.71 27.66,152.42 28,148 Z"/>
  <path fill="#998661" d="M201,94 C205.555,97.94 207.155,101.269 209,107 C207.68,106.67 206.36,106.34 205,106 C205,104.68 205,103.36 205,102 C204.34,102 203.68,102 203,102 C202.34,99.36 201.68,96.72 201,94 Z"/>
  <path fill="#B44B51" d="M175,140 C177,141.312 177,141.312 179,143 C179,143.99 179,144.98 179,146 C180.32,146 181.64,146 183,146 C183,147.65 183,149.3 183,151 C181.188,150.938 181.188,150.938 179,150 C177.361,146.721 176.158,143.473 175,140 Z"/>
  <path fill="#AF3955" d="M28,215 C28.66,215 29.32,215 30,215 C30,215.66 30,216.32 30,217 C30.99,217 31.98,217 33,217 C33,218.98 33,220.96 33,223 C33.66,223 34.32,223 35,223 C34.67,224.32 34.34,225.64 34,227 C31.049,225.524 30.931,223.499 29.875,220.438 C29.522,219.426 29.169,218.414 28.805,217.371 C28.539,216.589 28.274,215.806 28,215 Z"/>
  <path fill="#916962" d="M24,216 C25.32,216 26.64,216 28,216 C28.66,219.3 29.32,222.6 30,226 C27,225 27,225 25.312,222.125 C24,219 24,219 24,216 Z"/>
  <path fill="#A69B3F" d="M158,117 C158.33,117.66 158.66,118.32 159,119 C157.567,119.841 156.128,120.673 154.688,121.5 C153.887,121.964 153.086,122.428 152.262,122.906 C150,124 150,124 147,124 C147,124.66 147,125.32 147,126 C146.34,126 145.68,126 145,126 C145.33,125.01 145.66,124.02 146,123 C146.66,123 147.32,123 148,123 C148.33,122.01 148.66,121.02 149,120 C151.066,119.051 151.066,119.051 153.562,118.312 C154.389,118.061 155.215,117.81 156.066,117.551 C156.704,117.369 157.343,117.187 158,117 Z"/>
  <path fill="#DE6086" d="M34,109 C34.33,109 34.66,109 35,109 C35,112.3 35,115.6 35,119 C33.68,118.67 32.36,118.34 31,118 C31.75,111.25 31.75,111.25 34,109 Z"/>
  <path fill="#B2B23C" d="M179,98 C181,99 181,99 182.062,102.125 C182.94,105.75 183.547,109.301 184,113 C185.32,113.33 186.64,113.66 188,114 C186.35,114 184.7,114 183,114 C179.823,108.751 179.343,103.985 179,98 Z"/>
  <path fill="#8B7449" d="M171.625,50.875 C172.409,50.916 173.193,50.958 174,51 C173.403,54.342 172.264,56.464 170,59 C169.34,59 168.68,59 168,59 C168,58.01 168,57.02 168,56 C168.66,56 169.32,56 170,56 C169.167,53.833 169.167,53.833 167,53 C169,51 169,51 171.625,50.875 Z"/>
  <path fill="#947C58" d="M74,41 C76.31,41 78.62,41 81,41 C79.75,43.938 79.75,43.938 78,47 C75.812,47.875 75.812,47.875 74,48 C74,47.34 74,46.68 74,46 C74.99,46 75.98,46 77,46 C76.67,45.34 76.34,44.68 76,44 C74.68,44.33 73.36,44.66 72,45 C72.66,43.68 73.32,42.36 74,41 Z"/>
  <path fill="#785748" d="M169,20 C169.99,20 170.98,20 172,20 C172,20.99 172,21.98 172,23 C170.68,23.33 169.36,23.66 168,24 C168,26.31 168,28.62 168,31 C167.01,30.34 166.02,29.68 165,29 C165.33,26.69 165.66,24.38 166,22 C166.66,22 167.32,22 168,22 C168.33,21.34 168.66,20.68 169,20 Z"/>
  <path fill="#9E8965" d="M169,17 C170.848,17.34 170.848,17.34 173.062,17.938 C174.163,18.229 174.163,18.229 175.285,18.527 C176.134,18.761 176.134,18.761 177,19 C176.01,19.33 175.02,19.66 174,20 C173.267,22.015 173.267,22.015 173,24 C173,22.68 173,21.36 173,20 C171.68,20 170.36,20 169,20 C168.67,20.99 168.34,21.98 168,23 C167.34,22.67 166.68,22.34 166,22 C167.875,18.125 167.875,18.125 169,17 Z"/>
  <path fill="#964A4D" d="M102,122 C102.99,122 103.98,122 105,122 C105,125.63 105,129.26 105,133 C106.98,133 108.96,133 111,133 C111,133.66 111,134.32 111,135 C108.69,134.67 106.38,134.34 104,134 C103.856,132.762 103.711,131.525 103.562,130.25 C103.213,127.435 102.796,124.73 102,122 Z"/>
  <path fill="#B1B140" d="M201,105 C201.66,105 202.32,105 203,105 C203,107.97 203,110.94 203,114 C205.97,114.495 205.97,114.495 209,115 C209,115.66 209,116.32 209,117 C207,117.043 205,117.041 203,117 C201.26,115.26 201.628,112.806 201.438,110.438 C201.354,109.426 201.27,108.414 201.184,107.371 C201.123,106.589 201.062,105.806 201,105 Z"/>
  <path fill="#8C4C4E" d="M38,85 C38.99,85 39.98,85 41,85 C40.28,89.609 38.687,93.672 37,98 C36.67,98 36.34,98 36,98 C35.833,93.079 35.752,89.497 38,85 Z"/>
  <path fill="#94786B" d="M172,67 C173.438,67.115 174.876,67.242 176.312,67.375 C177.513,67.479 177.513,67.479 178.738,67.586 C181,68 181,68 184,70 C184,70.66 184,71.32 184,72 C182.562,71.689 181.125,71.377 179.688,71.062 C178.887,70.888 178.086,70.714 177.262,70.535 C175,70 175,70 172,69 C172,68.34 172,67.68 172,67 Z"/>
  <path fill="#8B5F5C" d="M22,205 C23.65,205 25.3,205 27,205 C27,206.65 27,208.3 27,210 C25.35,210.33 23.7,210.66 22,211 C20.875,207.25 20.875,207.25 22,205 Z"/>
  <path fill="#BF3259" d="M116,204 C116.66,204.33 117.32,204.66 118,205 C115.861,207.333 113.833,208.787 111,210.188 C110.319,210.532 109.639,210.876 108.938,211.23 C107,212 107,212 104,212 C104.33,211.01 104.66,210.02 105,209 C106.848,208.27 106.848,208.27 109.062,207.812 C109.796,207.654 110.529,207.495 111.285,207.332 C112.134,207.168 112.134,207.168 113,207 C113,206.34 113,205.68 113,205 C113.99,204.67 114.98,204.34 116,204 Z"/>
  <path fill="#F26C35" d="M137,163 C138.32,163 139.64,163 141,163 C140.312,165.375 140.312,165.375 139,168 C136.375,169.312 136.375,169.312 134,170 C134.33,168.35 134.66,166.7 135,165 C135.66,165 136.32,165 137,165 C137,164.34 137,163.68 137,163 Z"/>
  <path fill="#8F7943" d="M199,98 C200.938,98.312 200.938,98.312 203,99 C204.095,102.285 204.1,104.737 204.062,108.188 C204.053,109.274 204.044,110.361 204.035,111.48 C204.024,112.312 204.012,113.143 204,114 C203.67,114 203.34,114 203,114 C203,111.03 203,108.06 203,105 C202.34,105 201.68,105 201,105 C200.34,102.69 199.68,100.38 199,98 Z"/>
  <path fill="#8F7743" d="M83,79 C88.152,78.91 92.919,79.153 98,80 C98,80.99 98,81.98 98,83 C95.03,82.67 92.06,82.34 89,82 C89,81.34 89,80.68 89,80 C87.02,80 85.04,80 83,80 C83,79.67 83,79.34 83,79 Z"/>
  <path fill="#81654F" d="M175,70 C179.445,69.877 182.808,70.603 187,72 C186,74 186,74 184.375,74.875 C180.544,75.077 178.194,73.027 175,71 C175,70.67 175,70.34 175,70 Z"/>
  <path fill="#8C6754" d="M186,33 C186.99,33.33 187.98,33.66 189,34 C188.075,35.342 187.134,36.673 186.188,38 C185.665,38.743 185.143,39.485 184.605,40.25 C184.076,40.827 183.546,41.405 183,42 C182.01,42 181.02,42 180,42 C180,39 180,39 181.375,37.312 C183,36 183,36 185,36 C185.33,35.01 185.66,34.02 186,33 Z"/>
  <path fill="#815C47" d="M184,28 C185.32,28 186.64,28 188,28 C188,28.66 188,29.32 188,30 C188.99,30.33 189.98,30.66 191,31 C190.67,31.66 190.34,32.32 190,33 C188.667,33.333 187.333,33.667 186,34 C185.67,34.66 185.34,35.32 185,36 C184.01,35.67 183.02,35.34 182,35 C182.66,34.01 183.32,33.02 184,32 C184.66,32 185.32,32 186,32 C186,31.01 186,30.02 186,29 C185.34,28.67 184.68,28.34 184,28 Z"/>
  <path fill="#F05940" d="M82,145 C82,146.32 82,147.64 82,149 C80.02,149 78.04,149 76,149 C76,147.68 76,146.36 76,145 C78.491,143.755 79.411,144.223 82,145 Z"/>
  <path fill="#BCB13D" d="M62,66 C62.99,66 63.98,66 65,66 C65,67.32 65,68.64 65,70 C66.32,70 67.64,70 69,70 C69,70.66 69,71.32 69,72 C67.009,72.381 65.007,72.713 63,73 C62,72 62,72 61.938,68.938 C61.958,67.968 61.979,66.999 62,66 Z"/>
  <path fill="#8F776A" d="M129,48 C133.842,48.45 136.497,49.6 140,53 C140,53.66 140,54.32 140,55 C135.25,53.125 135.25,53.125 133,52 C133,51.34 133,50.68 133,50 C131.68,49.67 130.36,49.34 129,49 C129,48.67 129,48.34 129,48 Z"/>
  <path fill="#915D5C" d="M138,195 C138.99,195 139.98,195 141,195 C140,198 140,198 138.188,199.188 C136,200 136,200 132,200 C132,198.68 132,197.36 132,196 C134.97,196.495 134.97,196.495 138,197 C138,196.34 138,195.68 138,195 Z"/>
  <path fill="#EF5840" d="M39,162 C39.99,162 40.98,162 42,162 C42,164.31 42,166.62 42,169 C40.68,168.67 39.36,168.34 38,168 C37.957,166.334 37.959,164.666 38,163 C38.33,162.67 38.66,162.34 39,162 Z"/>
  <path fill="#A49A3F" d="M108,127 C113.94,127.33 119.88,127.66 126,128 C126,128.33 126,128.66 126,129 C121.38,129 116.76,129 112,129 C112,129.66 112,130.32 112,131 C110.68,130.67 109.36,130.34 108,130 C108,129.01 108,128.02 108,127 Z"/>
  <path fill="#F26936" d="M79,120 C80.32,120 81.64,120 83,120 C82.67,122.31 82.34,124.62 82,127 C81.01,127 80.02,127 79,127 C79,124.69 79,122.38 79,120 Z"/>
  <path fill="#ED444B" d="M85,96 C86.32,96.66 87.64,97.32 89,98 C89,99.32 89,100.64 89,102 C87.35,102 85.7,102 84,102 C83.957,100.334 83.959,98.666 84,97 C84.33,96.67 84.66,96.34 85,96 Z"/>
  <path fill="#7B5E4B" d="M159,41 C159.33,41 159.66,41 160,41 C160,43.64 160,46.28 160,49 C158.35,49 156.7,49 155,49 C156.125,46.028 157.223,43.666 159,41 Z"/>
  <path fill="#9A8B47" d="M176,40 C178,43 178,43 177.75,45.562 C177,48 177,48 175,50 C175,49.34 175,48.68 175,48 C174.34,48 173.68,48 173,48 C173,46.68 173,45.36 173,44 C173.99,44 174.98,44 176,44 C176,42.68 176,41.36 176,40 Z"/>
  <path fill="#8F6A64" d="M39,81 C39.33,82.32 39.66,83.64 40,85 C39.34,85 38.68,85 38,85 C37.67,86.65 37.34,88.3 37,90 C36.01,89.67 35.02,89.34 34,89 C36.75,82.125 36.75,82.125 39,81 Z"/>
  <path fill="#8D695F" d="M56.066,231.902 C57.302,231.92 57.302,231.92 58.562,231.938 C59.389,231.947 60.215,231.956 61.066,231.965 C61.704,231.976 62.343,231.988 63,232 C63,232.66 63,233.32 63,234 C56.945,234.977 56.945,234.977 55,235 C54.34,234.34 53.68,233.68 53,233 C54,232 54,232 56.066,231.902 Z"/>
  <path fill="#F1613B" d="M52,218 C53.65,218 55.3,218 57,218 C57,219.65 57,221.3 57,223 C55.35,222.67 53.7,222.34 52,222 C52,220.68 52,219.36 52,218 Z"/>
  <path fill="#ED454B" d="M47,148 C48.65,148 50.3,148 52,148 C51.67,149.65 51.34,151.3 51,153 C49.68,153 48.36,153 47,153 C47,151.35 47,149.7 47,148 Z"/>
  <path fill="#9D434F" d="M131,130 C126.164,133.224 123.731,133.092 118,133 C121.783,129.052 125.921,129.707 131,130 Z"/>
  <path fill="#ED464A" d="M47,103 C48.98,103 50.96,103 53,103 C53,104.32 53,105.64 53,107 C51.02,107 49.04,107 47,107 C47,105.68 47,104.36 47,103 Z"/>
  <path fill="#8C6845" d="M64,72 C65.65,72 67.3,72 69,72 C69,72.66 69,73.32 69,74 C70.65,74 72.3,74 74,74 C74.33,74.99 74.66,75.98 75,77 C74.01,77 73.02,77 72,77 C72,76.34 72,75.68 72,75 C69.69,75 67.38,75 65,75 C64.67,74.01 64.34,73.02 64,72 Z"/>
  <path fill="#88634E" d="M54,62 C54,62.66 54,63.32 54,64 C54.66,64 55.32,64 56,64 C56,64.66 56,65.32 56,66 C54.02,66.33 52.04,66.66 50,67 C50.33,66.01 50.66,65.02 51,64 C50.34,64 49.68,64 49,64 C48.67,64.66 48.34,65.32 48,66 C47.67,65.01 47.34,64.02 47,63 C49.491,62.313 51.379,62 54,62 Z"/>
  <path fill="#BCC040" d="M128,52 C133.875,54.75 133.875,54.75 135,57 C134.01,57 133.02,57 132,57 C132,58.65 132,60.3 132,62 C131.897,61.361 131.794,60.721 131.688,60.062 C131.461,59.382 131.234,58.701 131,58 C130.01,57.67 129.02,57.34 128,57 C128,55.333 128,53.667 128,52 Z"/>
  <path fill="#92766A" d="M113,40 C115.64,40.33 118.28,40.66 121,41 C121.33,41.99 121.66,42.98 122,44 C122.66,44.33 123.32,44.66 124,45 C120.194,44.328 116.648,43.273 113,42 C113,41.34 113,40.68 113,40 Z"/>
  <path fill="#F16539" d="M44,123 C45.32,123 46.64,123 48,123 C48,124.65 48,126.3 48,128 C46.68,128.33 45.36,128.66 44,129 C44,127.02 44,125.04 44,123 Z"/>
  <path fill="#A59C3F" d="M119,68 C120.32,68.33 121.64,68.66 123,69 C119.25,72 119.25,72 117,72 C117,72.66 117,73.32 117,74 C115.35,74.33 113.7,74.66 112,75 C112.33,74.34 112.66,73.68 113,73 C113.66,73 114.32,73 115,73 C115,72.34 115,71.68 115,71 C115.99,71 116.98,71 118,71 C118.33,70.01 118.66,69.02 119,68 Z"/>
  <path fill="#9A8B58" d="M166,60 C166.33,60 166.66,60 167,60 C167.33,62.97 167.66,65.94 168,69 C167.01,68.01 166.02,67.02 165,66 C164.34,66.66 163.68,67.32 163,68 C163,66.35 163,64.7 163,63 C163.66,63 164.32,63 165,63 C165.33,62.01 165.66,61.02 166,60 Z"/>
  <path fill="#9C9363" d="M178,21 C180.386,21.576 182.667,22.222 185,23 C184.67,24.32 184.34,25.64 184,27 C184,26.34 184,25.68 184,25 C182.02,25 180.04,25 178,25 C178,23.68 178,22.36 178,21 Z"/>
  <path fill="#F57E2A" d="M64,186 C64.66,186 65.32,186 66,186 C66,187.98 66,189.96 66,192 C64.68,192.33 63.36,192.66 62,193 C62.875,188.25 62.875,188.25 64,186 Z"/>
  <path fill="#8E6B63" d="M27,178 C27.33,178 27.66,178 28,178 C28.125,185.625 28.125,185.625 27,189 C26.34,189 25.68,189 25,189 C25.141,187.541 25.288,186.083 25.438,184.625 C25.519,183.813 25.6,183.001 25.684,182.164 C26,180 26,180 27,178 Z"/>
  <path fill="#F37430" d="M74,165 C74.99,165 75.98,165 77,165 C77,166.98 77,168.96 77,171 C75.35,170.67 73.7,170.34 72,170 C72.66,168.35 73.32,166.7 74,165 Z"/>
  <path fill="#907943" d="M102,121 C104.475,121.495 104.475,121.495 107,122 C107.66,124.97 108.32,127.94 109,131 C108.34,131 107.68,131 107,131 C105.502,127.629 105,125.796 105,122 C104.01,121.67 103.02,121.34 102,121 Z"/>
  <path fill="#B6B73B" d="M195,94 C198,95 198,95 199.75,97.812 C200.986,100.964 201.282,101.969 200,105 C200,104.01 200,103.02 200,102 C199.01,102 198.02,102 197,102 C196.34,99.36 195.68,96.72 195,94 Z"/>
  <path fill="#B4B452" d="M189,75 C190.65,76.65 192.3,78.3 194,80 C192.68,80 191.36,80 190,80 C190,81.32 190,82.64 190,84 C189.34,84 188.68,84 188,84 C188,82.35 188,80.7 188,79 C188.66,79 189.32,79 190,79 C189.67,77.68 189.34,76.36 189,75 Z"/>
  <path fill="#8C6650" d="M168,66 C170.64,66 173.28,66 176,66 C174.68,66.33 173.36,66.66 172,67 C172,67.66 172,68.32 172,69 C172.99,69.33 173.98,69.66 175,70 C173.02,70 171.04,70 169,70 C168.67,68.68 168.34,67.36 168,66 Z"/>
  <path fill="#BDC43A" d="M50,57 C52.64,57 55.28,57 58,57 C57.505,57.474 57.01,57.949 56.5,58.438 C54.885,59.759 54.885,59.759 55,61 C53.35,61 51.7,61 50,61 C50,59.68 50,58.36 50,57 Z"/>
  <path fill="#EB3753" d="M159,150 C160.65,150.33 162.3,150.66 164,151 C164,152.65 164,154.3 164,156 C162,155 160,154 158,153 C158.33,152.01 158.66,151.02 159,150 Z"/>
  <path fill="#B48246" d="M103,107 C103.33,107 103.66,107 104,107 C104,109.31 104,111.62 104,114 C103.34,114 102.68,114 102,114 C102,116.31 102,118.62 102,121 C101.67,121 101.34,121 101,121 C100.67,118.03 100.34,115.06 100,112 C100.99,112 101.98,112 103,112 C103,110.35 103,108.7 103,107 Z"/>
  <path fill="#9A444F" d="M69,77 C70.439,77.087 71.876,77.196 73.312,77.312 C74.113,77.371 74.914,77.429 75.738,77.488 C78.363,78.082 79.308,78.958 81,81 C76.123,81.348 73.229,80.417 69,78 C69,77.67 69,77.34 69,77 Z"/>
  <path fill="#8E764B" d="M160,48 C160.33,48.66 160.66,49.32 161,50 C159,52 157,54 155,56 C155.33,54.68 155.66,53.36 156,52 C155.34,51.67 154.68,51.34 154,51 C154.33,50.34 154.66,49.68 155,49 C157.562,48.375 157.562,48.375 160,48 Z"/>
  <path fill="#98895E" d="M90,39 C89.67,40.32 89.34,41.64 89,43 C89,42.01 89,41.02 89,40 C88.34,40 87.68,40 87,40 C87,40.66 87,41.32 87,42 C84.03,41.505 84.03,41.505 81,41 C83.014,36.971 86.276,38.094 90,39 Z"/>
  <path fill="#C56176" d="M24,210 C24.99,210 25.98,210 27,210 C27.33,211.98 27.66,213.96 28,216 C27.01,216 26.02,216 25,216 C24.34,214.35 23.68,212.7 23,211 C23.33,210.67 23.66,210.34 24,210 Z"/>
  <path fill="#EE4849" d="M37,207 C38.65,207 40.3,207 42,207 C42,208.32 42,209.64 42,211 C40.35,211 38.7,211 37,211 C37,209.68 37,208.36 37,207 Z"/>
  <path fill="#F05E3D" d="M87,185 C87.99,185.33 88.98,185.66 90,186 C89.67,187.65 89.34,189.3 89,191 C88.01,190.67 87.02,190.34 86,190 C86.33,188.35 86.66,186.7 87,185 Z"/>
  <path fill="#F26539" d="M42,183 C43.32,183 44.64,183 46,183 C46,184.65 46,186.3 46,188 C44.68,188 43.36,188 42,188 C42,186.35 42,184.7 42,183 Z"/>
  <path fill="#ED4948" d="M109,167 C110.65,167 112.3,167 114,167 C114,168.32 114,169.64 114,171 C112.35,171 110.7,171 109,171 C109,169.68 109,168.36 109,167 Z"/>
  <path fill="#C2C03C" d="M104,113 C104.33,113.66 104.66,114.32 105,115 C104.34,115 103.68,115 103,115 C103,115.99 103,116.98 103,118 C104.32,118.66 105.64,119.32 107,120 C106.67,120.66 106.34,121.32 106,122 C104.68,121.67 103.36,121.34 102,121 C102,118.69 102,116.38 102,114 C102.66,113.67 103.32,113.34 104,113 Z"/>
  <path fill="#C7436B" d="M131,196 C131.33,196 131.66,196 132,196 C132,197.65 132,199.3 132,201 C131.01,201 130.02,201 129,201 C129,201.66 129,202.32 129,203 C128.01,203 127.02,203 126,203 C126,202.01 126,201.02 126,200 C127.65,199.67 129.3,199.34 131,199 C131,198.01 131,197.02 131,196 Z"/>
  <path fill="#BD3556" d="M169,131 C171.8,132.4 172.568,134.266 174,137 C174,137.99 174,138.98 174,140 C172.062,139.438 172.062,139.438 170,138 C169.25,134.375 169.25,134.375 169,131 Z"/>
  <path fill="#7D5B47" d="M204,102 C204.33,102 204.66,102 205,102 C205,104.31 205,106.62 205,109 C205.66,109 206.32,109 207,109 C207,110.32 207,111.64 207,113 C206.01,113 205.02,113 204,113 C204,109.37 204,105.74 204,102 Z"/>
  <path fill="#855F56" d="M68,229 C67.67,230.32 67.34,231.64 67,233 C65.35,232.67 63.7,232.34 62,232 C64.625,229 64.625,229 68,229 Z"/>
  <path fill="#B8B460" d="M199,161 C199.99,161.33 200.98,161.66 202,162 C200.515,164.475 200.515,164.475 199,167 C197.68,166.67 196.36,166.34 195,166 C195.66,165.67 196.32,165.34 197,165 C198.133,162.983 198.133,162.983 199,161 Z"/>
  <path fill="#F26B35" d="M134,146 C134.66,146 135.32,146 136,146 C135.67,147.65 135.34,149.3 135,151 C133.68,151 132.36,151 131,151 C131,150.01 131,149.02 131,148 C131.99,148 132.98,148 134,148 C134,147.34 134,146.68 134,146 Z"/>
  <path fill="#9E676A" d="M35,104 C34.34,106.31 33.68,108.62 33,111 C32.34,110.34 31.68,109.68 31,109 C31,107.68 31,106.36 31,105 C33,104 33,104 35,104 Z"/>
  <path fill="#896F65" d="M33,93 C33.66,93 34.32,93 35,93 C34.125,97.75 34.125,97.75 33,100 C32.34,100 31.68,100 31,100 C31.875,94.125 31.875,94.125 33,93 Z"/>
  <path fill="#86524E" d="M42,74 C43.32,74 44.64,74 46,74 C45.25,78.75 45.25,78.75 43,81 C42.34,79.02 41.68,77.04 41,75 C41.33,74.67 41.66,74.34 42,74 Z"/>
  <path fill="#915153" d="M111,209 C111.33,209.66 111.66,210.32 112,211 C110.812,212.5 110.812,212.5 109,214 C106.312,214.188 106.312,214.188 104,214 C106.363,211.474 107.665,210.112 111,209 Z"/>
  <path fill="#B5B05E" d="M207,123 C207.99,123 208.98,123 210,123 C210,124.65 210,126.3 210,128 C209.34,128 208.68,128 208,128 C207.67,128.66 207.34,129.32 207,130 C207,127.69 207,125.38 207,123 Z"/>
  <path fill="#7F5F45" d="M184,102 C184.33,102 184.66,102 185,102 C185.66,105.3 186.32,108.6 187,112 C186.01,112 185.02,112 184,112 C184,108.7 184,105.4 184,102 Z"/>
</svg>
