<svg xmlns="http://www.w3.org/2000/svg" version="1.1" width="198" height="217">
  <defs/>
  <path fill="#E71E62" d="M137,18 C139,21 139,21 138.625,23.688 C138.419,24.451 138.212,25.214 138,26 C136.35,26.33 134.7,26.66 133,27 C132.856,28.279 132.711,29.557 132.562,30.875 C132.294,33.257 132.078,34.845 131,37 C130.792,39.462 130.626,41.909 130.5,44.375 C130.129,51.55 130.129,51.55 129.495,53.762 C128.787,56.963 128.817,60.144 128.797,63.406 C128.791,64.127 128.785,64.847 128.78,65.59 C128.77,67.116 128.764,68.643 128.76,70.169 C128.75,72.465 128.719,74.759 128.688,77.055 C128.606,88.221 130.014,98.07 134.5,108.438 C135.103,109.859 135.103,109.859 135.719,111.309 C136.962,114.05 136.962,114.05 138.656,116.66 C140,119 140,119 140,122 C140.784,122.082 141.568,122.165 142.375,122.25 C145,123 145,123 146.312,125.062 C146.539,125.702 146.766,126.341 147,127 C147.99,126.34 148.98,125.68 150,125 C154.043,124.844 157.835,125.402 161.438,127.25 C163,129 163,129 163.812,131.562 C164.857,134.424 164.857,134.424 168.625,135.312 C169.739,135.539 170.853,135.766 172,136 C172,137.65 172,139.3 172,141 C172.614,141.249 173.227,141.498 173.859,141.754 C177.206,143.702 177.931,146.069 179.234,149.621 C181.633,160.205 181.586,172.478 176,182 C175.361,183.093 174.721,184.186 174.062,185.312 C169.153,191.71 163.329,197.136 155.115,198.468 C151.999,198.633 148.931,198.634 145.812,198.562 C144.759,198.573 143.705,198.584 142.619,198.596 C136.366,198.537 132.838,197.987 128,194 C126.577,193.629 126.577,193.629 125.125,193.25 C118.027,190.411 113.382,183.871 109.961,177.246 C108.524,173.887 107.752,170.573 107,167 C106.67,166.34 106.34,165.68 106,165 C105.077,155.466 108.495,146.184 114.355,138.594 C119.615,133.497 126.043,130.101 133,128 C132.031,126.004 131.04,124.065 129.887,122.168 C125.707,115.265 123.121,107.759 121,100 C120.712,98.956 120.712,98.956 120.418,97.891 C118.648,90.459 118.73,83.011 118.794,75.421 C118.813,73.175 118.815,70.928 118.814,68.682 C118.854,57.216 118.854,57.216 120,52 C120.136,50.527 120.242,49.051 120.316,47.574 C120.358,46.778 120.4,45.982 120.443,45.162 C120.483,44.345 120.522,43.529 120.562,42.688 C120.627,41.434 120.627,41.434 120.693,40.154 C120.799,38.103 120.9,36.052 121,34 C120.186,34.632 120.186,34.632 119.355,35.277 C118.64,35.825 117.925,36.373 117.188,36.938 C116.48,37.483 115.772,38.028 115.043,38.59 C113,40 113,40 110,41 C110,41.66 110,42.32 110,43 C108.357,44.69 106.685,46.352 105,48 C103.286,49.977 101.628,51.955 100,54 C99.526,54.585 99.051,55.17 98.562,55.773 C94.945,60.389 92.109,65.223 89.375,70.406 C88.263,72.503 87.101,74.532 85.875,76.562 C83.931,80.126 82.454,83.694 81,87.477 C80.084,89.787 79.067,92.007 78,94.25 C75.703,99.316 74.296,104.605 72.832,109.961 C72.277,111.99 71.665,114.004 71,116 C70.419,119.143 70.259,121.875 71,125 C74.068,128.609 77.683,130.613 82.188,131.938 C86.271,133.48 87.839,136.416 90,140 C90.469,140.696 90.938,141.392 91.422,142.109 C94.992,147.765 95.801,152.373 95,159 C94.807,159.736 94.613,160.472 94.414,161.23 C94.277,161.814 94.141,162.398 94,163 C94.33,163.33 94.66,163.66 95,164 C95.906,169.891 93.386,175.269 90,180 C89.325,180.159 88.649,180.317 87.953,180.48 C86.986,180.738 86.986,180.738 86,181 C85.298,182.652 84.635,184.321 84,186 C82.117,187.914 82.117,187.914 79.875,189.625 C79.151,190.195 78.426,190.765 77.68,191.352 C70.938,195.499 64.905,196.483 57.062,196.375 C56.22,196.387 55.378,196.398 54.51,196.41 C45.253,196.367 37.379,193.595 30,188 C27.48,185.323 27,184.709 27,181 C26.361,180.691 25.721,180.381 25.062,180.062 C23,179 23,179 22,178 C21.959,175.667 21.958,173.333 22,171 C21.361,170.856 20.721,170.711 20.062,170.562 C18,170 18,170 17,169 C15.565,156.037 18.116,147.249 25.73,136.574 C27.312,134.625 27.312,134.625 30,132 C30.66,132 31.32,132 32,132 C32,131.34 32,130.68 32,130 C35.47,126.352 37.626,124.764 42.688,124.375 C43.807,124.356 43.807,124.356 44.949,124.336 C47.509,123.917 48.369,122.958 50,121 C50.99,121.33 51.98,121.66 53,122 C55.333,122.04 57.667,122.044 60,122 C60.133,121.218 60.266,120.435 60.402,119.629 C60.579,118.617 60.756,117.605 60.938,116.562 C61.112,115.553 61.286,114.544 61.465,113.504 C62,111 62,111 63,110 C63.103,109.031 63.206,108.061 63.312,107.062 C63.845,102.928 65.34,99.392 66.953,95.57 C68.256,92.371 69.286,89.116 70.289,85.812 C71,84 71,84 73,82 C73.628,80.329 74.205,78.638 74.75,76.938 C76.443,72.106 78.586,68.242 81.539,64.082 C83.584,61.168 85.278,58.113 87,55 C87.66,55 88.32,55 89,55 C89.073,54.479 89.147,53.958 89.223,53.422 C90.334,49.958 92.367,47.198 94.438,44.25 C95.049,43.347 95.049,43.347 95.674,42.426 C96.727,40.91 97.858,39.45 99,38 C99.66,38 100.32,38 101,38 C101,37.34 101,36.68 101,36 C103.082,34.055 103.082,34.055 105.812,31.875 C106.706,31.151 107.599,30.426 108.52,29.68 C111,28 111,28 114,28 C113.959,27.051 113.917,26.103 113.875,25.125 C114,22 114,22 116,20 C122.849,18.269 129.96,17.432 137,18 Z"/>
  <path fill="#E71E62" d="M52.918,121.145 C53.997,121.365 55.076,121.585 56.188,121.812 C57.818,122.132 57.818,122.132 59.48,122.457 C60.312,122.636 61.143,122.815 62,123 C61.34,125.31 60.68,127.62 60,130 C62.97,130 65.94,130 69,130 C69,127.69 69,125.38 69,123 C71.512,125.01 74.012,127.01 76.438,129.125 C78.907,131.168 78.907,131.168 82,131.812 C86.172,133.464 87.773,136.308 90,140 C90.469,140.696 90.938,141.392 91.422,142.109 C94.992,147.765 95.801,152.373 95,159 C94.807,159.736 94.613,160.472 94.414,161.23 C94.277,161.814 94.141,162.398 94,163 C94.33,163.33 94.66,163.66 95,164 C95.906,169.891 93.386,175.269 90,180 C89.325,180.159 88.649,180.317 87.953,180.48 C87.309,180.652 86.664,180.823 86,181 C85.298,182.652 84.635,184.321 84,186 C82.117,187.914 82.117,187.914 79.875,189.625 C79.151,190.195 78.426,190.765 77.68,191.352 C70.938,195.499 64.905,196.483 57.062,196.375 C56.22,196.387 55.378,196.398 54.51,196.41 C45.253,196.367 37.379,193.595 30,188 C27.48,185.323 27,184.709 27,181 C26.361,180.691 25.721,180.381 25.062,180.062 C23,179 23,179 22,178 C21.959,175.667 21.958,173.333 22,171 C21.361,170.856 20.721,170.711 20.062,170.562 C18,170 18,170 17,169 C15.565,156.037 18.116,147.249 25.73,136.574 C27.312,134.625 27.312,134.625 30,132 C30.66,132 31.32,132 32,132 C32,131.34 32,130.68 32,130 C35.47,126.352 37.626,124.764 42.688,124.375 C43.807,124.356 43.807,124.356 44.949,124.336 C47.116,124.204 47.116,124.204 48.383,122.426 C50,121 50,121 52.918,121.145 Z"/>
  <path fill="#79564A" d="M137,18 C139,21 139,21 138.625,23.688 C138.419,24.451 138.212,25.214 138,26 C136.35,26.33 134.7,26.66 133,27 C132.856,28.279 132.711,29.557 132.562,30.875 C132.294,33.257 132.078,34.845 131,37 C130.792,39.462 130.626,41.909 130.5,44.375 C130.129,51.55 130.129,51.55 129.495,53.762 C128.787,56.963 128.817,60.144 128.797,63.406 C128.791,64.127 128.785,64.847 128.78,65.59 C128.77,67.116 128.764,68.643 128.76,70.169 C128.75,72.465 128.719,74.759 128.688,77.055 C128.606,88.221 130.014,98.07 134.5,108.438 C135.103,109.859 135.103,109.859 135.719,111.309 C136.962,114.05 136.962,114.05 138.656,116.66 C140,119 140,119 140,122 C140.784,122.082 141.568,122.165 142.375,122.25 C145,123 145,123 146.312,125.062 C146.539,125.702 146.766,126.341 147,127 C147.99,126.34 148.98,125.68 150,125 C154.114,124.841 157.899,125.436 161.562,127.312 C163,129 163,129 163,133 C160.69,133 158.38,133 156,133 C156,132.01 156,131.02 156,130 C153.03,129.67 150.06,129.34 147,129 C146.01,130.98 146.01,130.98 145,133 C142.36,133 139.72,133 137,133 C136.897,132.361 136.794,131.721 136.688,131.062 C136.461,130.382 136.234,129.701 136,129 C134.515,128.505 134.515,128.505 133,128 C131.957,126.176 131.957,126.176 131,124 C130.449,123.093 130.449,123.093 129.887,122.168 C125.707,115.265 123.121,107.759 121,100 C120.808,99.304 120.616,98.608 120.418,97.891 C118.648,90.459 118.73,83.011 118.794,75.421 C118.813,73.175 118.815,70.928 118.814,68.682 C118.854,57.216 118.854,57.216 120,52 C120.136,50.527 120.242,49.051 120.316,47.574 C120.379,46.38 120.379,46.38 120.443,45.162 C120.483,44.345 120.522,43.529 120.562,42.688 C120.627,41.434 120.627,41.434 120.693,40.154 C120.799,38.103 120.9,36.052 121,34 C120.186,34.632 120.186,34.632 119.355,35.277 C118.64,35.825 117.925,36.373 117.188,36.938 C116.48,37.483 115.772,38.028 115.043,38.59 C113,40 113,40 110,41 C110,41.66 110,42.32 110,43 C108.357,44.69 106.685,46.352 105,48 C103.286,49.977 101.628,51.955 100,54 C99.526,54.585 99.051,55.17 98.562,55.773 C94.945,60.389 92.109,65.223 89.375,70.406 C88.263,72.503 87.101,74.532 85.875,76.562 C83.931,80.126 82.454,83.694 81,87.477 C80.084,89.787 79.067,92.007 78,94.25 C72.939,105.602 70.947,117.818 69,130 C63.375,131.125 63.375,131.125 60,130 C60.875,125.25 60.875,125.25 62,123 C61.34,122.67 60.68,122.34 60,122 C60.308,120.187 60.621,118.374 60.938,116.562 C61.112,115.553 61.286,114.544 61.465,113.504 C62,111 62,111 63,110 C63.103,109.031 63.206,108.061 63.312,107.062 C63.845,102.928 65.34,99.392 66.953,95.57 C68.256,92.371 69.286,89.116 70.289,85.812 C71,84 71,84 73,82 C73.628,80.329 74.205,78.638 74.75,76.938 C76.443,72.106 78.586,68.242 81.539,64.082 C83.584,61.168 85.278,58.113 87,55 C87.66,55 88.32,55 89,55 C89.073,54.479 89.147,53.958 89.223,53.422 C90.334,49.958 92.367,47.198 94.438,44.25 C95.049,43.347 95.049,43.347 95.674,42.426 C96.727,40.91 97.858,39.45 99,38 C99.66,38 100.32,38 101,38 C101,37.34 101,36.68 101,36 C103.082,34.055 103.082,34.055 105.812,31.875 C106.706,31.151 107.599,30.426 108.52,29.68 C111,28 111,28 114,28 C113.959,27.051 113.917,26.103 113.875,25.125 C114,22 114,22 116,20 C122.849,18.269 129.96,17.432 137,18 Z"/>
  <path fill="#904A4C" d="M81,132 C84.581,132.469 85.003,133.004 87.438,136 C88.306,137.324 89.159,138.658 90,140 C90.472,140.697 90.944,141.395 91.43,142.113 C94.988,147.773 95.801,152.374 95,159 C94.807,159.736 94.613,160.472 94.414,161.23 C94.277,161.814 94.141,162.398 94,163 C94.33,163.33 94.66,163.66 95,164 C95.906,169.891 93.386,175.269 90,180 C89.325,180.159 88.649,180.317 87.953,180.48 C87.309,180.652 86.664,180.823 86,181 C85.298,182.652 84.635,184.321 84,186 C82.117,187.914 82.117,187.914 79.875,189.625 C79.151,190.195 78.426,190.765 77.68,191.352 C70.938,195.499 64.905,196.483 57.062,196.375 C56.22,196.387 55.378,196.398 54.51,196.41 C45.547,196.369 36.962,193.839 30,188 C28.5,185.188 28.5,185.188 28,183 C31,182 31,182 34,183 C34.33,183.66 34.66,184.32 35,185 C41.894,189.522 48.944,189.552 56.938,189.375 C58.64,189.373 58.64,189.373 60.377,189.371 C66.258,189.715 66.258,189.715 71,187 C71.99,187 72.98,187 74,187 C74,186.34 74,185.68 74,185 C75.65,185 77.3,185 79,185 C79.144,184.423 79.289,183.845 79.438,183.25 C80.219,180.125 80.219,180.125 81,177 C81.99,177 82.98,177 84,177 C84,176.01 84,175.02 84,174 C84.66,174 85.32,174 86,174 C86,172.02 86,170.04 86,168 C86.99,167.67 87.98,167.34 89,167 C89.381,165.009 89.713,163.007 90,161 C89.67,160.67 89.34,160.34 89,160 C88.754,157.981 88.528,155.96 88.312,153.938 C87.317,146.973 84.897,142.897 80,138 C79.875,135.5 79.875,135.5 80,133 C80.33,132.67 80.66,132.34 81,132 Z"/>
  <path fill="#82534C" d="M173,144 C174.955,144.22 174.955,144.22 177,145 C179.882,150.816 180.518,155.947 180.438,162.375 C180.431,163.21 180.425,164.045 180.419,164.905 C180.258,171.259 179.253,176.455 176,182 C175.041,183.64 175.041,183.64 174.062,185.312 C169.141,191.725 163.318,197.148 155.083,198.468 C151.936,198.633 148.837,198.634 145.688,198.562 C144.617,198.573 143.546,198.584 142.443,198.596 C134.598,198.522 134.598,198.522 131.667,195.965 C131.117,195.316 130.567,194.668 130,194 C132,192 132,192 133.86,191.896 C134.601,191.962 135.342,192.027 136.105,192.094 C137.334,192.185 137.334,192.185 138.588,192.277 C140.302,192.424 142.015,192.573 143.729,192.723 C148.967,193.107 152.972,192.811 158,191 C159.118,190.609 159.118,190.609 160.258,190.211 C165.835,187.714 168.376,184.442 171,179 C171.536,177.984 172.072,176.968 172.625,175.922 C174.664,171.098 174.325,166.213 174.188,161.062 C174.174,160.092 174.16,159.122 174.146,158.123 C174.111,155.748 174.062,153.374 174,151 C173.34,150.67 172.68,150.34 172,150 C171.957,148.334 171.959,146.666 172,145 C172.33,144.67 172.66,144.34 173,144 Z"/>
  <path fill="#855249" d="M127,130 C127.66,130.33 128.32,130.66 129,131 C129.375,133.188 129.375,133.188 129,136 C126.188,138.812 126.188,138.812 123,141 C122.01,141 121.02,141 120,141 C115.534,149.651 112.918,158.186 113,168 C113.33,168.33 113.66,168.66 114,169 C114.041,171.333 114.042,173.667 114,176 C112.68,176 111.36,176 110,176 C109.795,175.374 109.59,174.747 109.379,174.102 C109.109,173.284 108.84,172.467 108.562,171.625 C108.296,170.813 108.029,170.001 107.754,169.164 C107.048,166.99 107.048,166.99 106,165 C105.077,155.463 108.499,146.211 114.34,138.605 C118.008,135.058 122.427,132.239 127,130 Z"/>
  <path fill="#7D514A" d="M43,125 C41.866,130.292 39.713,132.47 35.559,135.605 C33.717,137.021 33.717,137.021 33,140 C32.01,140 31.02,140 30,140 C29.723,140.585 29.446,141.17 29.16,141.773 C28,144 28,144 26.746,145.727 C21.499,153.339 22.106,162.091 22,171 C18.125,170.125 18.125,170.125 17,169 C15.565,156.037 18.116,147.249 25.73,136.574 C27.312,134.625 27.312,134.625 30,132 C30.66,132 31.32,132 32,132 C32,131.34 32,130.68 32,130 C37.889,124.248 37.889,124.248 43,125 Z"/>
  <path fill="#7D534C" d="M173,144 C174.955,144.22 174.955,144.22 177,145 C179.882,150.816 180.517,155.947 180.438,162.375 C180.432,163.206 180.427,164.038 180.421,164.894 C180.271,170.971 179.666,176.924 176,182 C174.515,182.495 174.515,182.495 173,183 C172.875,175.375 172.875,175.375 174,172 C174.081,170.373 174.108,168.742 174.098,167.113 C174.094,166.175 174.091,165.238 174.088,164.271 C174.08,163.295 174.071,162.319 174.062,161.312 C174.056,159.83 174.056,159.83 174.049,158.318 C174.037,155.879 174.021,153.439 174,151 C173.34,150.67 172.68,150.34 172,150 C171.957,148.334 171.959,146.666 172,145 C172.33,144.67 172.66,144.34 173,144 Z"/>
  <path fill="#89685D" d="M92,48 C92.99,48 93.98,48 95,48 C95,48.99 95,49.98 95,51 C94.34,51 93.68,51 93,51 C92.897,51.598 92.794,52.196 92.688,52.812 C91.899,55.322 90.83,56.17 89,58 C88.286,60.103 88.286,60.103 88,62 C87.34,62 86.68,62 86,62 C85.67,63.32 85.34,64.64 85,66 C84.34,66 83.68,66 83,66 C82.876,66.557 82.753,67.114 82.625,67.688 C81.939,70.226 80.986,72.563 80,75 C79.322,76.996 78.653,78.995 78,81 C77.34,81 76.68,81 76,81 C75.67,82.98 75.34,84.96 75,87 C74.34,87 73.68,87 73,87 C73.083,87.681 73.165,88.361 73.25,89.062 C72.901,93.169 71.182,95.523 69,99 C67.891,97.352 67.891,97.352 67,95 C67.609,92.273 67.609,92.273 68.75,89.375 C69.116,88.413 69.482,87.452 69.859,86.461 C71,84 71,84 73,82 C73.628,80.329 74.205,78.638 74.75,76.938 C76.443,72.106 78.586,68.242 81.539,64.082 C83.584,61.168 85.278,58.113 87,55 C87.66,55 88.32,55 89,55 C89.124,54.402 89.247,53.804 89.375,53.188 C90,51 90,51 92,48 Z"/>
  <path fill="#7F5049" d="M29,182 C31.5,182.312 31.5,182.312 34,183 C34.33,183.66 34.66,184.32 35,185 C39.739,187.554 44.864,189.42 50,191 C50,191.66 50,192.32 50,193 C51.181,192.977 52.362,192.954 53.578,192.93 C55.135,192.911 56.693,192.893 58.25,192.875 C59.027,192.858 59.805,192.841 60.605,192.824 C67.724,192.763 67.724,192.763 71,195 C66.437,196.291 62.026,196.222 57.312,196.25 C56.452,196.271 55.592,196.291 54.705,196.312 C45.624,196.367 37.063,193.924 30,188 C28.5,185.188 28.5,185.188 28,183 C28.33,182.67 28.66,182.34 29,182 Z"/>
  <path fill="#C3315A" d="M30,140 C30.33,141.32 30.66,142.64 31,144 C30.34,144 29.68,144 29,144 C27.193,147.975 26.58,151.69 26,156 C25.67,156.33 25.34,156.66 25,157 C24.763,159.526 24.578,162.031 24.438,164.562 C24.394,165.273 24.351,165.984 24.307,166.717 C24.2,168.478 24.1,170.239 24,172 C25.32,172.33 26.64,172.66 28,173 C28,174.98 28,176.96 28,179 C29.65,179 31.3,179 33,179 C33,179.99 33,180.98 33,182 C33.66,182 34.32,182 35,182 C35.33,182.66 35.66,183.32 36,184 C38.31,185.054 40.643,186.057 43,187 C41.312,187.688 41.312,187.688 39,188 C36.25,186.688 36.25,186.688 34,185 C34,184.34 34,183.68 34,183 C30.371,182.849 30.371,182.849 27,184 C27,183.01 27,182.02 27,181 C26.361,180.691 25.721,180.381 25.062,180.062 C23,179 23,179 22,178 C21.632,174.031 21.628,170.047 21.562,166.062 C21.517,164.958 21.471,163.854 21.424,162.717 C21.312,154.514 23.153,149.565 28,143 C28.66,142.01 29.32,141.02 30,140 Z"/>
  <path fill="#AB3952" d="M163,132 C163.66,132.66 164.32,133.32 165,134 C167.318,134.719 169.651,135.391 172,136 C172,137.65 172,139.3 172,141 C173.32,141.66 174.64,142.32 176,143 C176,143.66 176,144.32 176,145 C175.01,145 174.02,145 173,145 C172.67,146.65 172.34,148.3 172,150 C172.99,150.33 173.98,150.66 175,151 C175.088,154.354 175.141,157.708 175.188,161.062 C175.225,162.477 175.225,162.477 175.264,163.92 C175.325,169.766 174.741,173.813 172,179 C171.67,179 171.34,179 171,179 C170.957,177 170.959,175 171,173 C171.495,172.505 171.495,172.505 172,172 C172.156,170.587 172.251,169.166 172.316,167.746 C172.358,166.892 172.4,166.038 172.443,165.158 C172.502,163.811 172.502,163.811 172.562,162.438 C172.606,161.536 172.649,160.634 172.693,159.705 C172.8,157.47 172.902,155.235 173,153 C172.34,153 171.68,153 171,153 C171,151.02 171,149.04 171,147 C170.34,147 169.68,147 169,147 C168.67,145.02 168.34,143.04 168,141 C167.34,141 166.68,141 166,141 C166,140.34 166,139.68 166,139 C165.01,139 164.02,139 163,139 C163,138.01 163,137.02 163,136 C162.34,136 161.68,136 161,136 C161,135.01 161,134.02 161,133 C161.66,132.67 162.32,132.34 163,132 Z"/>
  <path fill="#7F544D" d="M81,132 C84.581,132.469 85.003,133.004 87.438,136 C88.307,137.323 89.16,138.658 90,140 C90.472,140.709 90.944,141.418 91.43,142.148 C94.876,147.698 95.516,151.496 95,158 C93.35,157.67 91.7,157.34 90,157 C89.773,156.031 89.546,155.061 89.312,154.062 C87.817,148.817 85.298,143.238 81.355,139.398 C80,138 80,138 79.75,135.375 C80,133 80,133 81,132 Z"/>
  <path fill="#794B44" d="M127,130 C127.66,130.33 128.32,130.66 129,131 C129.375,133.188 129.375,133.188 129,136 C126.188,138.812 126.188,138.812 123,141 C122.01,141 121.02,141 120,141 C119.34,142.32 118.68,143.64 118,145 C116.68,144.67 115.36,144.34 114,144 C112.125,147.868 112.125,147.868 113,152 C111.68,152.33 110.36,152.66 109,153 C108.582,146.815 111.236,142.745 115,138 C118.709,134.852 122.646,132.177 127,130 Z"/>
  <path fill="#85544F" d="M43,125 C41.866,130.292 39.713,132.47 35.559,135.605 C33.717,137.021 33.717,137.021 33,140 C32.01,140 31.02,140 30,140 C29.34,141.32 28.68,142.64 28,144 C27.01,144 26.02,144 25,144 C24.67,143.34 24.34,142.68 24,142 C24.66,141.237 25.32,140.474 26,139.688 C28.299,137.157 28.299,137.157 28,134 C29.32,133.34 30.64,132.68 32,132 C32,131.34 32,130.68 32,130 C37.889,124.248 37.889,124.248 43,125 Z"/>
  <path fill="#854B45" d="M133,125 C134.32,125 135.64,125 137,125 C137.33,127.31 137.66,129.62 138,132 C140.352,131.401 142.686,130.731 145,130 C145.33,129.34 145.66,128.68 146,128 C147.32,128 148.64,128 150,128 C150,127.01 150,126.02 150,125 C158.018,125.497 158.018,125.497 161.562,127.312 C163,129 163,129 163,133 C160.69,133 158.38,133 156,133 C156,132.01 156,131.02 156,130 C153.03,129.67 150.06,129.34 147,129 C146.34,130.32 145.68,131.64 145,133 C142.36,133 139.72,133 137,133 C136.897,132.361 136.794,131.721 136.688,131.062 C136.461,130.382 136.234,129.701 136,129 C135.01,128.67 134.02,128.34 133,128 C133,127.01 133,126.02 133,125 Z"/>
  <path fill="#893F46" d="M115,178 C117.625,178.938 117.625,178.938 120,180 C120,180.66 120,181.32 120,182 C120.66,182 121.32,182 122,182 C124.625,184.125 124.625,184.125 127,187 C127.312,190.312 127.312,190.312 127,193 C122.743,192.494 120.742,191.288 117.75,188.25 C117.064,187.575 116.378,186.899 115.672,186.203 C113.816,183.757 113.359,182.018 113,179 C113.66,178.67 114.32,178.34 115,178 Z"/>
  <path fill="#8B6D63" d="M116,23 C116.33,23 116.66,23 117,23 C117.188,26.375 117.188,26.375 117,30 C114,32 114,32 110,32 C110,32.66 110,33.32 110,34 C108.32,35.621 108.32,35.621 106.125,37.438 C103.538,39.584 101.888,41.168 100,44 C99.34,44 98.68,44 98,44 C97.67,44.99 97.34,45.98 97,47 C96.01,46.67 95.02,46.34 94,46 C94.783,44.661 95.577,43.329 96.375,42 C96.816,41.257 97.257,40.515 97.711,39.75 C98.136,39.173 98.562,38.595 99,38 C99.66,38 100.32,38 101,38 C101,37.34 101,36.68 101,36 C103.047,34.09 103.047,34.09 105.75,31.938 C106.632,31.225 107.513,30.512 108.422,29.777 C110.752,28.171 112.244,27.419 115,27 C115.33,25.68 115.66,24.36 116,23 Z"/>
  <path fill="#BE3059" d="M170,179 C170.495,179.99 170.495,179.99 171,181 C167.191,187.475 163.011,190.349 156,193 C148.755,194.751 141.726,193.951 134.418,193.023 C131.734,192.771 131.734,192.771 129,195 C128.67,194.34 128.34,193.68 128,193 C131.269,190.047 133.359,189.646 137.719,189.742 C138.816,189.756 139.913,189.771 141.043,189.785 C142.184,189.815 143.325,189.844 144.5,189.875 C146.76,189.918 149.021,189.958 151.281,189.992 C152.282,190.017 153.283,190.041 154.314,190.066 C156.734,190.007 158.696,189.702 161,189 C161,188.34 161,187.68 161,187 C161.603,186.908 162.207,186.817 162.828,186.723 C165.533,185.823 166.208,184.793 167.75,182.438 C168.178,181.797 168.606,181.156 169.047,180.496 C169.519,179.756 169.519,179.756 170,179 Z"/>
  <path fill="#83544A" d="M91,163 C92.32,163.33 93.64,163.66 95,164 C95.776,169.895 93.553,175.341 90,180 C87.324,180.793 87.324,180.793 85,181 C85.659,176.65 87.239,173.016 89,169 C89.688,167.007 90.363,165.01 91,163 Z"/>
  <path fill="#B63956" d="M89,151 C89.33,151 89.66,151 90,151 C90.124,152.423 90.124,152.423 90.25,153.875 C90.651,157.105 90.651,157.105 93.062,158.375 C93.702,158.581 94.341,158.788 95,159 C94.67,160.65 94.34,162.3 94,164 C93.01,164 92.02,164 91,164 C90.807,164.759 90.613,165.519 90.414,166.301 C90.154,167.295 89.893,168.289 89.625,169.312 C89.37,170.299 89.115,171.285 88.852,172.301 C88,175 88,175 86,178 C85.833,180.625 85.833,180.625 86,183 C84.02,182.67 82.04,182.34 80,182 C80.33,180.35 80.66,178.7 81,177 C81.99,177 82.98,177 84,177 C84,176.01 84,175.02 84,174 C84.66,174 85.32,174 86,174 C86,172.02 86,170.04 86,168 C86.99,167.67 87.98,167.34 89,167 C89.381,165.009 89.713,163.007 90,161 C89.67,160.67 89.34,160.34 89,160 C88.928,158.481 88.916,156.958 88.938,155.438 C88.947,154.611 88.956,153.785 88.965,152.934 C88.976,152.296 88.988,151.657 89,151 Z"/>
  <path fill="#7A5E52" d="M130,31 C131.062,32.875 131.062,32.875 132,35 C131.67,35.66 131.34,36.32 131,37 C130.816,39.31 130.678,41.623 130.562,43.938 C130.201,50.41 129.359,56.653 128,63 C127.34,63 126.68,63 126,63 C125.973,60.187 125.953,57.375 125.938,54.562 C125.929,53.76 125.921,52.958 125.912,52.131 C125.903,50.087 125.948,48.043 126,46 C126.33,45.67 126.66,45.34 127,45 C127.285,41.931 127.449,38.862 127.621,35.785 C128,33 128,33 130,31 Z"/>
  <path fill="#C5375F" d="M69,123 C69.681,123.557 70.361,124.114 71.062,124.688 C73.761,126.902 73.761,126.902 75.891,128.168 C77.767,129.346 79.425,130.439 81,132 C81.188,135.062 81.188,135.062 81,138 C82.896,140.146 82.896,140.146 85,142 C85.75,144.25 85.75,144.25 86,146 C85.34,146 84.68,146 84,146 C81.167,143.021 79.125,140.178 78.688,136.062 C78.791,135.382 78.894,134.701 79,134 C78.01,133.67 77.02,133.34 76,133 C76,132.34 76,131.68 76,131 C74.68,131 73.36,131 72,131 C72,130.34 72,129.68 72,129 C71.34,129 70.68,129 70,129 C70,129.66 70,130.32 70,131 C67,133 67,133 64.375,132.75 C63.591,132.503 62.807,132.255 62,132 C61.67,131.34 61.34,130.68 61,130 C63.64,130 66.28,130 69,130 C69,127.69 69,125.38 69,123 Z"/>
  <path fill="#CA476D" d="M50,121 C52.82,121.242 52.82,121.242 56.125,121.875 C57.221,122.079 58.316,122.282 59.445,122.492 C60.288,122.66 61.131,122.827 62,123 C61.67,123.99 61.34,124.98 61,126 C58.36,126 55.72,126 53,126 C52.67,126.99 52.34,127.98 52,129 C51.34,128.67 50.68,128.34 50,128 C48,127.96 46,127.957 44,128 C43.67,128.99 43.34,129.98 43,131 C42.34,130.67 41.68,130.34 41,130 C41.688,127.625 41.688,127.625 43,125 C45.5,123.812 45.5,123.812 48,123 C48.66,122.34 49.32,121.68 50,121 Z"/>
  <path fill="#866358" d="M122,46 C122.33,46 122.66,46 123,46 C123.356,57.781 122.259,69.3 121,81 C120.67,81 120.34,81 120,81 C119.741,77.231 119.523,73.46 119.312,69.688 C119.24,68.635 119.167,67.582 119.092,66.498 C118.706,59.113 119.617,52.999 122,46 Z"/>
  <path fill="#C93F68" d="M163,132 C163.66,132.66 164.32,133.32 165,134 C167.318,134.719 169.651,135.391 172,136 C172,138.667 172,141.333 172,144 C171.34,144 170.68,144 170,144 C169.67,144.99 169.34,145.98 169,147 C168.67,145.02 168.34,143.04 168,141 C167.34,141 166.68,141 166,141 C166,140.34 166,139.68 166,139 C165.01,139 164.02,139 163,139 C163,138.01 163,137.02 163,136 C162.34,136 161.68,136 161,136 C161,135.01 161,134.02 161,133 C161.66,132.67 162.32,132.34 163,132 Z"/>
  <path fill="#7E6156" d="M137,18 C139,21 139,21 138.625,23.688 C138.316,24.832 138.316,24.832 138,26 C136,25 136,25 135,22 C129.39,22 123.78,22 118,22 C124.116,18.942 130.083,16.713 137,18 Z"/>
  <path fill="#836459" d="M132,106 C135.326,108.692 136.406,112.119 138,116 C138.99,117.485 138.99,117.485 140,119 C140,119.99 140,120.98 140,122 C140.99,122.33 141.98,122.66 143,123 C143.66,123.99 144.32,124.98 145,126 C143.68,126 142.36,126 141,126 C141,125.34 141,124.68 141,124 C140.01,123.67 139.02,123.34 138,123 C138,122.34 138,121.68 138,121 C137.34,121 136.68,121 136,121 C133.255,116.996 130.716,113.131 131.375,108.188 C131.581,107.466 131.788,106.744 132,106 Z"/>
  <path fill="#7F5F56" d="M126,85 C126.66,85 127.32,85 128,85 C129.333,91.667 130.667,98.333 132,105 C131.01,105.33 130.02,105.66 129,106 C128.801,105.043 128.801,105.043 128.598,104.066 C128.421,103.24 128.244,102.414 128.062,101.562 C127.888,100.739 127.714,99.915 127.535,99.066 C127.192,97.023 127.192,97.023 126,96 C125.928,94.147 125.916,92.292 125.938,90.438 C125.947,89.426 125.956,88.414 125.965,87.371 C125.976,86.589 125.988,85.806 126,85 Z"/>
  <path fill="#85655B" d="M178,160 C178.33,160 178.66,160 179,160 C178.988,160.615 178.977,161.23 178.965,161.863 C178.956,162.672 178.947,163.48 178.938,164.312 C178.926,165.113 178.914,165.914 178.902,166.738 C178.903,169.169 178.903,169.169 180,172 C179.328,174.445 179.328,174.445 178.25,177.125 C177.732,178.459 177.732,178.459 177.203,179.82 C176,182 176,182 173,183 C174.229,175.215 175.704,167.544 178,160 Z"/>
  <path fill="#A74051" d="M79,182 C80.65,182 82.3,182 84,182 C84.33,182.66 84.66,183.32 85,184 C80.25,188.875 80.25,188.875 78,190 C75.995,189.701 73.994,189.366 72,189 C71.01,189 70.02,189 69,189 C69.66,188.34 70.32,187.68 71,187 C71.99,187 72.98,187 74,187 C74,186.34 74,185.68 74,185 C75.65,185 77.3,185 79,185 C79,184.01 79,183.02 79,182 Z"/>
  <path fill="#93484F" d="M127,130 C127.66,130.33 128.32,130.66 129,131 C129.375,133.188 129.375,133.188 129,136 C126.188,138.812 126.188,138.812 123,141 C122.01,141 121.02,141 120,141 C119.34,142.32 118.68,143.64 118,145 C118,142 118,142 119,140 C119.66,140 120.32,140 121,140 C121.062,139.278 121.124,138.556 121.188,137.812 C122.245,134.153 124.205,132.508 127,130 Z"/>
  <path fill="#B73052" d="M112,158 C112.33,158 112.66,158 113,158 C112.988,158.71 112.977,159.421 112.965,160.152 C112.956,161.071 112.947,161.991 112.938,162.938 C112.926,163.854 112.914,164.771 112.902,165.715 C112.741,167.966 112.741,167.966 114,169 C114.041,171.333 114.042,173.667 114,176 C112.68,176 111.36,176 110,176 C109.34,173.69 108.68,171.38 108,169 C109.32,168.34 110.64,167.68 112,167 C112,164.03 112,161.06 112,158 Z"/>
  <path fill="#825C52" d="M21,151 C21.043,153 21.041,155 21,157 C20.67,157.33 20.34,157.66 20,158 C19.927,160.186 19.916,162.375 19.938,164.562 C19.947,165.76 19.956,166.958 19.965,168.191 C19.976,169.118 19.988,170.045 20,171 C19.01,170.34 18.02,169.68 17,169 C16.697,166.241 16.582,163.755 16.625,161 C16.613,160.263 16.602,159.525 16.59,158.766 C16.602,156.625 16.602,156.625 17,153 C20,151 20,151 21,151 Z"/>
  <path fill="#91494E" d="M42,126 C41.916,128.865 41.474,130.534 39.41,132.562 C38.156,133.588 36.884,134.592 35.594,135.57 C33.721,137.013 33.721,137.013 33,140 C32.34,139.67 31.68,139.34 31,139 C36.222,126 36.222,126 42,126 Z"/>
  <path fill="#7D493F" d="M155,193 C156.98,193 158.96,193 161,193 C161,193.33 161,193.66 161,194 C159.35,194 157.7,194 156,194 C156,194.66 156,195.32 156,196 C157.32,196.33 158.64,196.66 160,197 C155.895,199.053 150.637,198.273 146.125,198.312 C145.023,198.342 143.921,198.371 142.785,198.4 C141.194,198.413 141.194,198.413 139.57,198.426 C138.599,198.44 137.627,198.455 136.625,198.47 C133.304,197.875 132.128,196.543 130,194 C130.949,194.476 130.949,194.476 131.918,194.961 C136.053,196.355 139.976,196.461 144.312,196.625 C145.148,196.664 145.984,196.702 146.846,196.742 C148.897,196.836 150.948,196.919 153,197 C153.66,195.68 154.32,194.36 155,193 Z"/>
  <path fill="#984750" d="M114,143 C114.33,143.66 114.66,144.32 115,145 C115.66,145 116.32,145 117,145 C116.513,148.116 115.69,150.848 114.5,153.75 C112.797,158.104 112.311,162.36 112,167 C111.67,167 111.34,167 111,167 C110.827,157.459 110.827,157.459 111.562,153 C112.28,150.083 112.28,150.083 111,148 C112.438,145.375 112.438,145.375 114,143 Z"/>
  <path fill="#825752" d="M29,182 C31.438,182.25 31.438,182.25 34,183 C36,186 36,186 36,189 C37.32,189.66 38.64,190.32 40,191 C38.375,191.75 38.375,191.75 36,192 C32.439,190.148 30.437,188.873 28.625,185.25 C28.419,184.508 28.212,183.765 28,183 C28.33,182.67 28.66,182.34 29,182 Z"/>
  <path fill="#734E44" d="M89,140 C90.023,141.316 91.018,142.654 92,144 C92.557,144.722 93.114,145.444 93.688,146.188 C95.531,150.138 95.252,153.711 95,158 C93.68,158 92.36,158 91,158 C91,155.69 91,153.38 91,151 C91.66,151 92.32,151 93,151 C92.34,149.928 91.68,148.855 91,147.75 C89.117,144.69 89,143.866 89,140 Z"/>
  <path fill="#954E55" d="M133,125 C134.32,125 135.64,125 137,125 C137.33,127.31 137.66,129.62 138,132 C140.352,131.401 142.686,130.731 145,130 C145.33,129.34 145.66,128.68 146,128 C147.32,128 148.64,128 150,128 C150.33,127.01 150.66,126.02 151,125 C151.33,126.32 151.66,127.64 152,129 C150.35,129 148.7,129 147,129 C146.34,130.32 145.68,131.64 145,133 C142.36,133 139.72,133 137,133 C136.897,132.361 136.794,131.721 136.688,131.062 C136.461,130.382 136.234,129.701 136,129 C135.01,128.67 134.02,128.34 133,128 C133,127.01 133,126.02 133,125 Z"/>
  <path fill="#693C35" d="M61,193 C64.3,193.33 67.6,193.66 71,194 C67.33,195.835 66.203,196.255 62.375,196.266 C61.068,196.269 61.068,196.269 59.734,196.273 C58.832,196.266 57.93,196.258 57,196.25 C56.098,196.258 55.195,196.265 54.266,196.273 C53.394,196.271 52.523,196.268 51.625,196.266 C50.438,196.262 50.438,196.262 49.227,196.259 C47,196 47,196 43,194 C48.94,194.33 54.88,194.66 61,195 C61,194.34 61,193.68 61,193 Z"/>
  <path fill="#87645A" d="M67,100 C67.33,100 67.66,100 68,100 C68.043,102 68.041,104 68,106 C67.67,106.33 67.34,106.66 67,107 C66.876,108.134 66.753,109.269 66.625,110.438 C66.419,111.613 66.213,112.789 66,114 C65.01,114.66 64.02,115.32 63,116 C62.618,114.344 62.286,112.675 62,111 C62.33,110.67 62.66,110.34 63,110 C63.368,107.672 63.702,105.338 64,103 C64.99,102.67 65.98,102.34 67,102 C67,101.34 67,100.68 67,100 Z"/>
  <path fill="#C6305A" d="M87,167 C87.66,167.33 88.32,167.66 89,168 C88.67,168.33 88.34,168.66 88,169 C87.602,170.971 87.256,172.952 86.938,174.938 C86.673,176.56 86.673,176.56 86.402,178.215 C85.952,180.861 85.952,180.861 86,183 C83.03,182.505 83.03,182.505 80,182 C80.33,180.35 80.66,178.7 81,177 C81.99,177 82.98,177 84,177 C84,176.01 84,175.02 84,174 C84.66,174 85.32,174 86,174 C85.979,173.031 85.959,172.061 85.938,171.062 C86,168 86,168 87,167 Z"/>
  <path fill="#C9315E" d="M132,129 C133.32,129 134.64,129 136,129 C136.33,129.99 136.66,130.98 137,132 C138.279,132.062 139.557,132.124 140.875,132.188 C141.594,132.222 142.314,132.257 143.055,132.293 C144.018,132.148 144.018,132.148 145,132 C145.66,131.01 146.32,130.02 147,129 C149.97,129.33 152.94,129.66 156,130 C156,130.33 156,130.66 156,131 C154.886,131.124 153.772,131.247 152.625,131.375 C148.969,131.647 148.969,131.647 147,134 C144.398,134.195 144.398,134.195 141.375,134.125 C139.871,134.098 139.871,134.098 138.336,134.07 C137.565,134.047 136.794,134.024 136,134 C135.67,133.01 135.34,132.02 135,131 C134.01,131 133.02,131 132,131 C132,130.34 132,129.68 132,129 Z"/>
  <path fill="#8D4C4E" d="M133.794,191.962 C134.559,192.003 135.325,192.044 136.113,192.086 C136.949,192.13 137.785,192.174 138.646,192.219 C139.526,192.27 140.406,192.322 141.312,192.375 C142.181,192.419 143.049,192.463 143.943,192.508 C147.765,192.719 151.3,192.97 155,194 C151.374,195.813 146.86,195.032 142.854,194.961 C139.622,194.925 137.09,194.97 134,196 C133.01,195.01 132.02,194.02 131,193 C132,192 132,192 133.794,191.962 Z"/>
  <path fill="#82574F" d="M116,182 C117.294,182.62 118.585,183.246 119.875,183.875 C120.954,184.397 120.954,184.397 122.055,184.93 C124,186 124,186 126,188 C126,189.32 126,190.64 126,192 C121.864,190.409 118.768,187.395 116,184 C116,183.34 116,182.68 116,182 Z"/>
  <path fill="#896059" d="M66,117 C66.99,117 67.98,117 69,117 C70.016,121.629 69.838,125.345 69,130 C68.34,130 67.68,130 67,130 C66.128,127.005 65.892,124.364 65.938,121.25 C65.947,120.451 65.956,119.652 65.965,118.828 C65.976,118.225 65.988,117.622 66,117 Z"/>
  <path fill="#CB2B5B" d="M67,187 C68.32,187.33 69.64,187.66 71,188 C69,190 69,190 66.478,190.227 C65.441,190.217 64.404,190.206 63.336,190.195 C62.214,190.189 61.093,190.182 59.938,190.176 C58.762,190.159 57.586,190.142 56.375,190.125 C54.6,190.111 54.6,190.111 52.789,190.098 C49.859,190.074 46.93,190.041 44,190 C43.67,189.34 43.34,188.68 43,188 C50.92,188.33 58.84,188.66 67,189 C67,188.34 67,187.68 67,187 Z"/>
  <path fill="#96464F" d="M115,178 C117.625,178.938 117.625,178.938 120,180 C120,180.66 120,181.32 120,182 C120.66,182 121.32,182 122,182 C122.33,182.99 122.66,183.98 123,185 C119.7,184.01 116.4,183.02 113,182 C113,181.01 113,180.02 113,179 C113.66,178.67 114.32,178.34 115,178 Z"/>
  <path fill="#92444A" d="M81,132 C82.32,132.66 83.64,133.32 85,134 C83.68,134 82.36,134 81,134 C81.33,134.99 81.66,135.98 82,137 C82.66,136.67 83.32,136.34 84,136 C84,136.99 84,137.98 84,139 C84.66,139 85.32,139 86,139 C86.66,141.64 87.32,144.28 88,147 C84.797,144.864 83.879,143.268 82,140 C81.34,139.34 80.68,138.68 80,138 C79.812,135.438 79.812,135.438 80,133 C80.33,132.67 80.66,132.34 81,132 Z"/>
  <path fill="#967168" d="M132,19 C132,19.66 132,20.32 132,21 C128.851,22.05 126.612,22.101 123.312,22.062 C122.319,22.053 121.325,22.044 120.301,22.035 C119.162,22.018 119.162,22.018 118,22 C127.364,17.217 127.364,17.217 132,19 Z"/>
  <path fill="#836058" d="M173,144 C174.891,144.215 174.891,144.215 177,145 C178.047,147.066 178.047,147.066 178.75,149.562 C178.992,150.389 179.235,151.215 179.484,152.066 C179.655,152.704 179.825,153.343 180,154 C179.01,154.495 179.01,154.495 178,155 C174.718,153.359 174.254,150.307 173,147 C173,146.01 173,145.02 173,144 Z"/>
  <path fill="#905857" d="M154,127 C157.123,127.486 159.996,127.999 163,129 C163,130.32 163,131.64 163,133 C160.69,133 158.38,133 156,133 C155.856,132.381 155.711,131.762 155.562,131.125 C155.068,128.967 155.068,128.967 154,127 Z"/>
  <path fill="#89685E" d="M127,47 C127.33,47 127.66,47 128,47 C128.826,52.606 129.068,57.423 128,63 C127.34,63 126.68,63 126,63 C125.973,60.521 125.953,58.042 125.938,55.562 C125.925,54.502 125.925,54.502 125.912,53.42 C125.903,51.613 125.948,49.806 126,48 C126.33,47.67 126.66,47.34 127,47 Z"/>
  <path fill="#B33853" d="M33,180 C33,180.66 33,181.32 33,182 C33.66,182 34.32,182 35,182 C35.33,182.66 35.66,183.32 36,184 C38.31,185.054 40.643,186.057 43,187 C41.312,187.688 41.312,187.688 39,188 C36.25,186.688 36.25,186.688 34,185 C34,184.34 34,183.68 34,183 C30.371,182.849 30.371,182.849 27,184 C27,183.01 27,182.02 27,181 C29,180 29,180 33,180 Z"/>
  <path fill="#7D504B" d="M106,158 C106.66,158 107.32,158 108,158 C108.99,160.97 109.98,163.94 111,167 C109.68,167 108.36,167 107,167 C105.522,164.043 105.94,161.258 106,158 Z"/>
  <path fill="#8E5957" d="M61,117 C61.66,117 62.32,117 63,117 C63,121.29 63,125.58 63,130 C62.01,130 61.02,130 60,130 C60.875,125.25 60.875,125.25 62,123 C61.34,122.67 60.68,122.34 60,122 C60.33,120.35 60.66,118.7 61,117 Z"/>
  <path fill="#896B61" d="M125,30 C125.054,31.416 125.093,32.833 125.125,34.25 C125.148,35.039 125.171,35.828 125.195,36.641 C124.983,39.207 124.287,40.792 123,43 C122.963,42.301 122.925,41.603 122.887,40.883 C122.821,39.973 122.755,39.063 122.688,38.125 C122.629,37.22 122.571,36.315 122.512,35.383 C122.212,32.638 122.212,32.638 119,31 C121,30 121,30 125,30 Z"/>
  <path fill="#6D3E39" d="M43,125 C42.415,125.258 41.83,125.516 41.227,125.781 C38.825,127.096 37.268,128.532 35.375,130.5 C34.489,131.413 34.489,131.413 33.586,132.344 C33.063,132.89 32.539,133.437 32,134 C31.34,134.66 30.68,135.32 30,136 C29.34,135.34 28.68,134.68 28,134 C29.32,133.34 30.64,132.68 32,132 C32,131.34 32,130.68 32,130 C37.889,124.248 37.889,124.248 43,125 Z"/>
  <path fill="#876B5B" d="M126,85 C126.66,85 127.32,85 128,85 C128.66,87.97 129.32,90.94 130,94 C129.34,94 128.68,94 128,94 C128,94.66 128,95.32 128,96 C127.34,96 126.68,96 126,96 C126,92.37 126,88.74 126,85 Z"/>
  <path fill="#7F6055" d="M83,76 C83.66,76.99 84.32,77.98 85,79 C83.688,81.938 83.688,81.938 82,85 C81.01,85.33 80.02,85.66 79,86 C80.714,78.286 80.714,78.286 83,76 Z"/>
  <path fill="#D6275F" d="M127,187 C127.66,187 128.32,187 129,187 C129,187.66 129,188.32 129,189 C131.31,189 133.62,189 136,189 C135.381,189.289 134.762,189.577 134.125,189.875 C131.867,190.937 131.867,190.937 130,193 C129.01,193 128.02,193 127,193 C127,191.02 127,189.04 127,187 Z"/>
  <path fill="#9A3B53" d="M22,173 C24.475,173.99 24.475,173.99 27,175 C26.67,176.65 26.34,178.3 26,180 C24.68,179.34 23.36,178.68 22,178 C22,176.35 22,174.7 22,173 Z"/>
  <path fill="#8C5855" d="M91,163 C93.062,163.438 93.062,163.438 95,164 C95,165.32 95,166.64 95,168 C94.34,168 93.68,168 93,168 C92.34,169.32 91.68,170.64 91,172 C90.121,165.848 90.121,165.848 90,164 C90.33,163.67 90.66,163.34 91,163 Z"/>
  <path fill="#7E5F55" d="M178,160 C178.33,160 178.66,160 179,160 C178.988,160.615 178.977,161.23 178.965,161.863 C178.956,162.672 178.947,163.48 178.938,164.312 C178.926,165.113 178.914,165.914 178.902,166.738 C178.903,169.169 178.903,169.169 180,172 C179.34,172.66 178.68,173.32 178,174 C176,172 176,172 175.75,169.812 C176.056,166.373 176.968,163.288 178,160 Z"/>
  <path fill="#876659" d="M130,31 C131.125,32.625 131.125,32.625 132,35 C131.125,38.25 131.125,38.25 130,41 C129.34,41 128.68,41 128,41 C127.805,34.945 127.805,34.945 128,33 C128.66,32.34 129.32,31.68 130,31 Z"/>
  <path fill="#8C5B4E" d="M123,20 C121.35,20.33 119.7,20.66 118,21 C118,21.66 118,22.32 118,23 C117.34,23 116.68,23 116,23 C115.67,24.65 115.34,26.3 115,28 C114.67,28 114.34,28 114,28 C113.875,25.125 113.875,25.125 114,22 C116.672,19.328 119.483,18.242 123,20 Z"/>
  <path fill="#D5265B" d="M114,172 C114.33,172 114.66,172 115,172 C115,173.65 115,175.3 115,177 C116.65,177 118.3,177 120,177 C119.67,177.99 119.34,178.98 119,180 C118.402,179.814 117.804,179.629 117.188,179.438 C114.836,178.779 114.836,178.779 112,180 C111.67,179.01 111.34,178.02 111,177 C111.66,176.67 112.32,176.34 113,176 C113.652,173.975 113.652,173.975 114,172 Z"/>
  <path fill="#704A41" d="M90,166 C90.66,167.32 91.32,168.64 92,170 C92.33,169.34 92.66,168.68 93,168 C93.66,168 94.32,168 95,168 C94.01,170.97 93.02,173.94 92,177 C91.67,176.01 91.34,175.02 91,174 C90.34,173.67 89.68,173.34 89,173 C89.33,170.69 89.66,168.38 90,166 Z"/>
  <path fill="#C3305A" d="M79,132 C79.99,132.495 79.99,132.495 81,133 C80.918,133.742 80.835,134.485 80.75,135.25 C81.075,138.82 82.448,139.602 85,142 C85.75,144.25 85.75,144.25 86,146 C84,146 84,146 82.711,144.715 C79.441,140.364 78.427,137.619 79,132 Z"/>
  <path fill="#964F54" d="M167,135 C169.475,135.495 169.475,135.495 172,136 C171.67,137.32 171.34,138.64 171,140 C169.68,140 168.36,140 167,140 C167,138.35 167,136.7 167,135 Z"/>
  <path fill="#AD3750" d="M50,121 C51.32,121.66 52.64,122.32 54,123 C53.67,123.66 53.34,124.32 53,125 C50.715,125.414 50.715,125.414 47.938,125.625 C47.018,125.7 46.099,125.775 45.152,125.852 C44.087,125.925 44.087,125.925 43,126 C43.624,125.704 44.248,125.407 44.891,125.102 C47.038,123.98 48.381,122.781 50,121 Z"/>
  <path fill="#806154" d="M78,87 C78.66,87.99 79.32,88.98 80,90 C79.192,91.336 78.378,92.669 77.562,94 C76.884,95.114 76.884,95.114 76.191,96.25 C75.798,96.827 75.405,97.405 75,98 C74.67,98 74.34,98 74,98 C74,96.35 74,94.7 74,93 C74.66,93 75.32,93 76,93 C76.144,92.196 76.289,91.391 76.438,90.562 C77,88 77,88 78,87 Z"/>
  <path fill="#816054" d="M94,56 C94.66,56 95.32,56 96,56 C95.67,57.65 95.34,59.3 95,61 C94.01,61.33 93.02,61.66 92,62 C90.791,64 90.791,64 90,66 C89.67,65.01 89.34,64.02 89,63 C89.66,63 90.32,63 91,63 C91.309,62.216 91.619,61.432 91.938,60.625 C93,58 93,58 94,56 Z"/>
  <path fill="#D03062" d="M42,126 C45.63,126 49.26,126 53,126 C52.67,126.99 52.34,127.98 52,129 C51.34,128.67 50.68,128.34 50,128 C48,127.96 46,127.957 44,128 C43.67,128.99 43.34,129.98 43,131 C42.34,130.67 41.68,130.34 41,130 C41.33,128.68 41.66,127.36 42,126 Z"/>
  <path fill="#8C685A" d="M99,38 C99.66,38 100.32,38 101,38 C100.711,38.557 100.423,39.114 100.125,39.688 C98.959,42.085 97.966,44.516 97,47 C96.01,46.67 95.02,46.34 94,46 C94.783,44.661 95.577,43.329 96.375,42 C96.816,41.257 97.257,40.515 97.711,39.75 C98.136,39.173 98.562,38.595 99,38 Z"/>
  <path fill="#83655A" d="M111,36 C111.99,36.33 112.98,36.66 114,37 C113.375,38.875 113.375,38.875 112,41 C108.875,42.25 108.875,42.25 106,43 C106.33,42.01 106.66,41.02 107,40 C107.66,40 108.32,40 109,40 C109,39.34 109,38.68 109,38 C109.66,38 110.32,38 111,38 C111,37.34 111,36.68 111,36 Z"/>
  <path fill="#E04170" d="M163,132 C163.33,133.32 163.66,134.64 164,136 C164.66,136 165.32,136 166,136 C166,136.99 166,137.98 166,139 C165.01,139 164.02,139 163,139 C163,138.01 163,137.02 163,136 C162.34,136 161.68,136 161,136 C161,135.01 161,134.02 161,133 C161.66,132.67 162.32,132.34 163,132 Z"/>
  <path fill="#856459" d="M109,154 C109.33,154 109.66,154 110,154 C110,156.64 110,159.28 110,162 C109.01,162.495 109.01,162.495 108,163 C108,161.35 108,159.7 108,158 C107.34,157.67 106.68,157.34 106,157 C106.66,157 107.32,157 108,157 C108.33,156.01 108.66,155.02 109,154 Z"/>
  <path fill="#C52C59" d="M128,130 C128.99,130.33 129.98,130.66 131,131 C130.67,133.31 130.34,135.62 130,138 C128.35,138.33 126.7,138.66 125,139 C125.495,138.629 125.99,138.258 126.5,137.875 C128.598,135.253 128.217,133.262 128,130 Z"/>
  <path fill="#7F6456" d="M77,72 C77.33,72.66 77.66,73.32 78,74 C78.66,74.33 79.32,74.66 80,75 C79.01,75.33 78.02,75.66 77,76 C75.775,79.008 75.775,79.008 75,82 C74.312,80.375 74.312,80.375 74,78 C75.438,74.75 75.438,74.75 77,72 Z"/>
  <path fill="#935155" d="M39,126 C39.99,126 40.98,126 42,126 C41.625,128.438 41.625,128.438 41,131 C40.01,131.495 40.01,131.495 39,132 C39,131.34 39,130.68 39,130 C38.34,129.34 37.68,128.68 37,128 C37.66,127.34 38.32,126.68 39,126 Z"/>
  <path fill="#815E52" d="M130,118 C130.66,118 131.32,118 132,118 C135,122.385 135,122.385 135,125 C133.68,124.67 132.36,124.34 131,124 C130.67,122.02 130.34,120.04 130,118 Z"/>
  <path fill="#89695C" d="M121,87 C123,89 123,89 123.125,92.625 C123.084,93.739 123.043,94.853 123,96 C122.67,95.01 122.34,94.02 122,93 C121.34,93 120.68,93 120,93 C120.33,91.02 120.66,89.04 121,87 Z"/>
  <path fill="#7D5E54" d="M131,25 C131.66,25.33 132.32,25.66 133,26 C133.125,28.875 133.125,28.875 133,32 C132.34,32.66 131.68,33.32 131,34 C130.34,32.68 129.68,31.36 129,30 C129.66,30 130.32,30 131,30 C131,28.35 131,26.7 131,25 Z"/>
</svg>
