<svg xmlns="http://www.w3.org/2000/svg" version="1.1" width="187" height="220">
  <defs/>
  <path fill="#FEEF98" d="M134,3 C136.438,3.375 136.438,3.375 139,4 C141.485,8.97 140.658,16.862 139.539,22.199 C137.01,28.581 132.295,35.095 126,38 C124.346,38.698 122.683,39.375 121,40 C121.519,40.364 122.039,40.727 122.574,41.102 C130.43,46.764 137.54,54.207 139.395,64.105 C139.45,64.751 139.505,65.397 139.562,66.062 C139.957,69.611 140.366,70.943 141.938,73.938 C144.943,80.209 145.121,87.119 145.787,93.943 C146.588,101.671 147.889,108.872 151,116 C151.264,116.67 151.529,117.341 151.801,118.031 C153.764,122.804 156.228,126.936 159.062,131.25 C163.1,137.674 164.835,143.557 166,151 C166.175,151.813 166.351,152.627 166.531,153.465 C167.534,158.951 166.344,162.568 163.91,167.543 C162.825,170.029 162.825,170.029 163.02,172.977 C162.963,181.75 155.283,189.554 149.578,195.559 C145.994,198.953 142.264,201.542 138,204 C137.317,204.438 136.634,204.877 135.93,205.328 C129.398,209.329 122.358,211.071 115,213 C114.01,213.33 113.02,213.66 112,214 C109.142,214.133 106.309,214.212 103.449,214.238 C102.599,214.246 101.748,214.254 100.872,214.263 C99.066,214.277 97.259,214.287 95.453,214.295 C93.629,214.307 91.805,214.327 89.981,214.357 C76.015,214.585 63.031,214.021 51,206 C51,205.34 51,204.68 51,204 C50.412,203.745 49.824,203.49 49.219,203.227 C41.983,199.227 37.675,191.104 35.182,183.507 C32.849,175.083 32.614,167.142 32.75,158.438 C32.756,157.072 32.762,155.707 32.766,154.342 C32.845,144.466 32.845,144.466 34,141 C34.66,141 35.32,141 36,141 C36.075,140.178 36.15,139.355 36.227,138.508 C37.155,130.627 38.843,124.208 44,118 C44.66,118 45.32,118 46,118 C46.264,117.413 46.529,116.827 46.801,116.223 C48.043,113.92 49.396,112.335 51.188,110.438 C61.299,98.968 66.27,85.405 71.371,71.207 C76.059,58.342 81.976,50.202 93,42 C93.33,41.67 93.66,41.34 94,41 C96,40.959 98,40.957 100,41 C99.569,36.904 99.099,33.318 97.875,29.375 C96.94,25.769 97.064,23.574 98,20 C99,19 99,19 101.145,18.867 C102.025,18.87 102.905,18.872 103.812,18.875 C104.685,18.872 105.558,18.87 106.457,18.867 C109,19 109,19 110.968,19.648 C111.638,19.764 112.309,19.88 113,20 C115.322,18.301 117.343,16.634 119.438,14.688 C123.171,11.272 126.155,8.71 131,7 C132.803,4.987 132.803,4.987 134,3 Z"/>
  <path fill="#CBD83B" d="M134,3 C136.438,3.375 136.438,3.375 139,4 C141.485,8.97 140.658,16.862 139.539,22.199 C137.01,28.581 132.295,35.095 126,38 C124.346,38.698 122.683,39.375 121,40 C121.519,40.364 122.039,40.727 122.574,41.102 C130.43,46.764 137.54,54.207 139.395,64.105 C139.45,64.751 139.505,65.397 139.562,66.062 C139.957,69.611 140.366,70.943 141.938,73.938 C144.943,80.209 145.121,87.119 145.787,93.943 C146.588,101.671 147.889,108.872 151,116 C151.264,116.67 151.529,117.341 151.801,118.031 C153.764,122.804 156.228,126.936 159.062,131.25 C163.1,137.674 164.835,143.557 166,151 C166.175,151.813 166.351,152.627 166.531,153.465 C167.534,158.951 166.344,162.568 163.91,167.543 C162.825,170.029 162.825,170.029 163.02,172.977 C162.963,181.75 155.283,189.554 149.578,195.559 C145.994,198.953 142.264,201.542 138,204 C137.317,204.438 136.634,204.877 135.93,205.328 C129.398,209.329 122.358,211.071 115,213 C114.01,213.33 113.02,213.66 112,214 C109.142,214.133 106.309,214.212 103.449,214.238 C102.599,214.246 101.748,214.254 100.872,214.263 C99.066,214.277 97.259,214.287 95.453,214.295 C93.629,214.307 91.805,214.327 89.981,214.357 C76.015,214.585 63.031,214.021 51,206 C51,205.34 51,204.68 51,204 C50.412,203.745 49.824,203.49 49.219,203.227 C41.983,199.227 37.675,191.104 35.182,183.507 C32.849,175.083 32.614,167.142 32.75,158.438 C32.756,157.072 32.762,155.707 32.766,154.342 C32.845,144.466 32.845,144.466 34,141 C34.66,141 35.32,141 36,141 C36.075,140.178 36.15,139.355 36.227,138.508 C37.155,130.627 38.843,124.208 44,118 C44.66,118 45.32,118 46,118 C46.264,117.413 46.529,116.827 46.801,116.223 C48.043,113.92 49.396,112.335 51.188,110.438 C61.299,98.968 66.27,85.405 71.371,71.207 C76.059,58.342 81.976,50.202 93,42 C93.33,41.67 93.66,41.34 94,41 C96,40.959 98,40.957 100,41 C99.569,36.904 99.099,33.318 97.875,29.375 C96.94,25.769 97.064,23.574 98,20 C99,19 99,19 101.145,18.867 C102.025,18.87 102.905,18.872 103.812,18.875 C104.685,18.872 105.558,18.87 106.457,18.867 C109,19 109,19 110.968,19.648 C111.638,19.764 112.309,19.88 113,20 C115.322,18.301 117.343,16.634 119.438,14.688 C123.171,11.272 126.155,8.71 131,7 C132.803,4.987 132.803,4.987 134,3 Z M98,56 C96.389,58.182 96.389,58.182 95,61 C93.173,63.268 91.312,65.5 89.426,67.719 C87.763,70.379 87.713,71.92 88,75 C87.34,75 86.68,75 86,75 C85.963,75.557 85.925,76.114 85.887,76.688 C85.411,82.211 84.111,86.879 82,92 C81.603,93.073 81.206,94.145 80.797,95.25 C80.369,96.405 79.941,97.56 79.5,98.75 C79.098,99.838 78.696,100.926 78.281,102.047 C77.108,104.751 75.79,106.69 74,109 C74,109.66 74,110.32 74,111 C73.01,111 72.02,111 71,111 C68.654,114.204 68.654,114.204 68,118 C67.34,118 66.68,118 66,118 C63.704,120.561 63,121.48 63,125 C62.402,125.227 61.804,125.454 61.188,125.688 C58.415,127.351 57.567,129.207 56,132 C55.484,132.495 54.969,132.99 54.438,133.5 C51.817,136.234 51.041,139.086 50.875,142.812 C50.916,143.534 50.957,144.256 51,145 C49.515,145.495 49.515,145.495 48,146 C48,148.31 48,150.62 48,153 C47.34,153 46.68,153 46,153 C45.359,165.39 45.359,165.39 49,177 C49.522,178.137 50.044,179.274 50.582,180.445 C54.427,188.762 54.427,188.762 61,195 C61.743,195.577 62.485,196.155 63.25,196.75 C67.165,198.53 70.766,198.249 75,198 C75.33,198.99 75.66,199.98 76,201 C81.536,201.025 87.072,201.043 92.608,201.055 C94.492,201.06 96.377,201.067 98.262,201.075 C100.965,201.088 103.668,201.093 106.371,201.098 C107.219,201.103 108.067,201.108 108.941,201.113 C110.961,201.113 112.981,201.062 115,201 C115.33,200.67 115.66,200.34 116,200 C117.732,199.783 117.732,199.783 119.5,199.562 C120.655,199.377 121.81,199.191 123,199 C123.33,198.34 123.66,197.68 124,197 C125.671,196.783 125.671,196.783 127.375,196.562 C130.893,196.293 130.893,196.293 132.938,194.625 C134.274,192.905 134.274,192.905 134,190 C134.835,189.66 134.835,189.66 135.688,189.312 C142.183,185.626 145.042,180.193 147.125,173.25 C147.414,172.178 147.702,171.105 148,170 C148.33,169.34 148.66,168.68 149,168 C149.069,166.627 149.085,165.25 149.062,163.875 C149.042,162.596 149.021,161.318 149,160 C149.66,160 150.32,160 151,160 C151.237,152.965 150.788,146.817 149,140 C148.01,140 147.02,140 146,140 C145.881,139.424 145.763,138.848 145.641,138.254 C144.962,135.866 143.984,134.088 142.75,131.938 C137.011,120.577 134.718,108.208 134.377,95.589 C134.045,86.016 132.229,76.141 127,68 C126.312,65.688 126.312,65.688 126,64 C125.34,64 124.68,64 124,64 C123.598,62.793 123.598,62.793 123.188,61.562 C122.6,60.294 122.6,60.294 122,59 C121.01,58.67 120.02,58.34 119,58 C119,57.34 119,56.68 119,56 C118.34,56 117.68,56 117,56 C117,55.34 117,54.68 117,54 C110.284,51.761 104.069,52.549 98,56 Z"/>
  <path fill="#6F3101" d="M103,131 C103,131.66 103,132.32 103,133 C103.722,132.917 104.444,132.835 105.188,132.75 C108.854,133.076 110.266,134.625 113,137 C113.99,137.33 114.98,137.66 116,138 C117.688,139.312 117.688,139.312 119,141 C119,142.32 119,143.64 119,145 C119.99,145.33 120.98,145.66 122,146 C122.136,149.002 122.235,151.997 122.312,155 C122.354,155.839 122.396,156.678 122.439,157.543 C122.566,164.053 121.004,167.909 117,173 C116.349,173.835 115.698,174.671 115.027,175.531 C108.496,181.684 102.494,181.715 93.957,181.584 C89.793,181.408 86.626,181.223 83,179 C82.67,178.34 82.34,177.68 82,177 C81.361,176.876 80.721,176.753 80.062,176.625 C78,176 78,176 76.75,174.188 C76,172 76,172 76,168 C75.01,168 74.02,168 73,168 C73,166.68 73,165.36 73,164 C72.34,164 71.68,164 71,164 C71,159.71 71,155.42 71,151 C71.66,151 72.32,151 73,151 C73,149.35 73,147.7 73,146 C73.99,145.67 74.98,145.34 76,145 C76.681,143.108 76.681,143.108 77,141 C77.33,140.01 77.66,139.02 78,138 C78.99,138 79.98,138 81,138 C81,137.01 81,136.02 81,135 C82.65,135 84.3,135 86,135 C86,134.34 86,133.68 86,133 C91.644,130.559 96.978,130.807 103,131 Z"/>
  <path fill="#866B46" d="M134,3 C136.438,3.375 136.438,3.375 139,4 C141.485,8.97 140.658,16.862 139.539,22.199 C137.01,28.581 132.295,35.095 126,38 C124.346,38.698 122.683,39.375 121,40 C121.519,40.364 122.039,40.727 122.574,41.102 C130.825,47.049 137.612,54.561 139.535,64.867 C139.775,67.251 139.944,69.605 140,72 C137,72 137,72 135.414,70.816 C133.687,68.598 133.144,66.638 132.375,63.938 C129.629,56.003 124.228,49.598 116.938,45.375 C115.968,44.921 114.999,44.467 114,44 C114,43.34 114,42.68 114,42 C113.01,42.66 112.02,43.32 111,44 C108.879,44.266 108.879,44.266 106.562,44.25 C105.801,44.255 105.039,44.26 104.254,44.266 C101.786,43.975 100.142,43.23 98,42 C98,43.32 98,44.64 98,46 C96.68,46 95.36,46 94,46 C93.732,46.639 93.464,47.279 93.188,47.938 C92,50 92,50 89,51 C89,51.99 89,52.98 89,54 C88.34,54 87.68,54 87,54 C86.917,54.577 86.835,55.155 86.75,55.75 C85.793,58.621 84.126,59.874 82,62 C80.262,65.201 79.912,67.931 79.688,71.5 C79.265,76.264 77.363,77.637 74,81 C73.272,83.484 72.866,85.934 72.457,88.488 C71.809,92.047 70.699,94.806 69,98 C67.515,98.495 67.515,98.495 66,99 C65.869,99.54 65.737,100.08 65.602,100.637 C64.694,104.201 62.507,106.879 60.375,109.812 C59.924,110.442 59.472,111.071 59.007,111.72 C56.159,115.62 53.15,118.944 49.59,122.211 C46.86,125.283 45.221,128.959 43.457,132.645 C41.868,135.213 40.79,135.966 38,137 C36.646,132.939 37.578,129.901 39,126 C40.448,123.176 41.969,120.447 44,118 C44.66,118 45.32,118 46,118 C46.264,117.413 46.529,116.827 46.801,116.223 C48.043,113.92 49.396,112.335 51.188,110.438 C61.299,98.968 66.27,85.405 71.371,71.207 C76.059,58.342 81.976,50.202 93,42 C93.33,41.67 93.66,41.34 94,41 C96,40.959 98,40.957 100,41 C99.569,36.904 99.099,33.318 97.875,29.375 C96.94,25.769 97.064,23.574 98,20 C99,19 99,19 101.145,18.867 C102.025,18.87 102.905,18.872 103.812,18.875 C104.685,18.872 105.558,18.87 106.457,18.867 C109,19 109,19 110.968,19.648 C111.638,19.764 112.309,19.88 113,20 C115.322,18.301 117.343,16.634 119.438,14.688 C123.171,11.272 126.155,8.71 131,7 C132.803,4.987 132.803,4.987 134,3 Z"/>
  <path fill="#8A664C" d="M142,78 C142.66,78.33 143.32,78.66 144,79 C144.434,81.622 144.752,84.172 145,86.812 C145.166,88.37 145.334,89.927 145.504,91.484 C145.587,92.253 145.669,93.022 145.754,93.814 C146.628,101.587 147.865,108.818 151,116 C151.396,117.005 151.396,117.005 151.801,118.031 C153.764,122.804 156.228,126.936 159.062,131.25 C163.1,137.674 164.835,143.557 166,151 C166.175,151.813 166.351,152.627 166.531,153.465 C167.534,158.951 166.344,162.568 163.91,167.543 C162.825,170.029 162.825,170.029 163.02,172.977 C162.963,181.75 155.283,189.554 149.578,195.559 C145.994,198.953 142.264,201.542 138,204 C137.317,204.438 136.634,204.877 135.93,205.328 C129.398,209.329 122.358,211.071 115,213 C114.01,213.33 113.02,213.66 112,214 C110.665,214.08 109.326,214.108 107.988,214.098 C107.231,214.094 106.474,214.091 105.693,214.088 C104.908,214.08 104.122,214.071 103.312,214.062 C102.515,214.058 101.718,214.053 100.896,214.049 C98.931,214.037 96.965,214.019 95,214 C95.66,212.02 96.32,210.04 97,208 C98.132,207.939 99.264,207.879 100.43,207.816 C101.911,207.732 103.393,207.647 104.875,207.562 C105.621,207.523 106.368,207.484 107.137,207.443 C111.2,207.284 111.2,207.284 115,206 C122.304,205.768 122.304,205.768 126,207 C126,205.68 126,204.36 126,203 C127.758,201.402 127.758,201.402 130.125,199.938 C130.947,199.423 131.77,198.909 132.617,198.379 C135.354,196.795 138.173,195.414 141,194 C142.702,192.713 144.371,191.379 146,190 C146.866,189.381 147.732,188.762 148.625,188.125 C151.449,185.598 152.492,183.474 154,180 C154.33,179.294 154.66,178.587 155,177.859 C158.496,170.303 160.284,163.365 160.625,155.062 C160.664,154.283 160.702,153.504 160.742,152.701 C160.835,150.801 160.919,148.901 161,147 C160.34,147 159.68,147 159,147 C158.505,143.535 158.505,143.535 158,140 C157.34,140 156.68,140 156,140 C151.714,132.571 151.714,132.571 150,129 C149.34,129 148.68,129 148,129 C145.583,124.771 144.652,121.877 145,117 C144.34,117 143.68,117 143,117 C142.321,112.71 141.659,108.418 141,104.125 C140.809,102.921 140.618,101.717 140.422,100.477 C139.374,93.59 138.71,86.967 139,80 C139.99,80 140.98,80 142,80 C142,79.34 142,78.68 142,78 Z"/>
  <path fill="#998764" d="M134,3 C136.438,3.375 136.438,3.375 139,4 C141.482,8.964 140.71,16.965 139.469,22.27 C137.865,26.131 135.406,29.599 133,33 C132.34,32.67 131.68,32.34 131,32 C131,31.34 131,30.68 131,30 C129.928,30.66 128.855,31.32 127.75,32 C122.319,34.774 116.955,34.357 111,34 C111.012,33.374 111.023,32.747 111.035,32.102 C111.044,31.284 111.053,30.467 111.062,29.625 C111.074,28.813 111.086,28.001 111.098,27.164 C111.145,24.951 111.145,24.951 110,23 C108.375,22.946 106.75,22.907 105.125,22.875 C104.22,22.852 103.315,22.829 102.383,22.805 C99.812,22.757 99.812,22.757 98,25 C97.67,24.01 97.34,23.02 97,22 C97.99,20.515 97.99,20.515 99,19 C101.242,18.672 101.242,18.672 103.875,18.75 C105.171,18.773 105.171,18.773 106.492,18.797 C109,19 109,19 110.966,19.653 C111.637,19.767 112.308,19.882 113,20 C115.322,18.301 117.343,16.634 119.438,14.688 C123.171,11.272 126.155,8.71 131,7 C132.803,4.987 132.803,4.987 134,3 Z"/>
  <path fill="#85694B" d="M105,21.75 C105.887,21.724 106.774,21.698 107.688,21.672 C108.451,21.78 109.214,21.888 110,22 C112.236,25.353 112.173,25.907 111.625,29.688 C111.459,30.9 111.459,30.9 111.289,32.137 C111.194,32.752 111.098,33.366 111,34 C112.897,33.912 114.792,33.804 116.688,33.688 C117.743,33.629 118.799,33.571 119.887,33.512 C123.249,32.959 125.156,31.807 128,30 C128.99,30 129.98,30 131,30 C131.688,31.812 131.688,31.812 132,34 C129.943,36.584 127.898,37.625 124.812,38.688 C124.097,38.939 123.382,39.19 122.645,39.449 C122.102,39.631 121.559,39.813 121,40 C121.519,40.364 122.039,40.727 122.574,41.102 C130.825,47.049 137.612,54.561 139.535,64.867 C139.775,67.251 139.944,69.605 140,72 C137,72 137,72 135.414,70.816 C133.687,68.598 133.144,66.638 132.375,63.938 C129.629,56.003 124.228,49.598 116.938,45.375 C115.968,44.921 114.999,44.467 114,44 C114,43.34 114,42.68 114,42 C113.01,42.66 112.02,43.32 111,44 C108.738,44.195 108.738,44.195 106.312,44.125 C105.504,44.107 104.696,44.089 103.863,44.07 C103.248,44.047 102.634,44.024 102,44 C102,43.01 102,42.02 102,41 C101.34,41 100.68,41 100,41 C99.876,39.824 99.753,38.649 99.625,37.438 C99.271,34.501 98.723,32.063 97.875,29.188 C97,26 97,26 98,23 C100.468,21.766 102.247,21.798 105,21.75 Z"/>
  <path fill="#927866" d="M34,141 C35.65,141 37.3,141 39,141 C39.025,142.146 39.05,143.292 39.076,144.472 C39.17,148.709 39.27,152.944 39.372,157.18 C39.416,159.017 39.457,160.853 39.497,162.689 C39.555,165.323 39.619,167.956 39.684,170.59 C39.7,171.416 39.717,172.242 39.734,173.093 C39.478,176.855 39.478,176.855 41,180 C41.235,185.529 41.235,185.529 40,188 C41.32,188 42.64,188 44,188 C45.257,190.906 46,192.796 46,196 C46.536,196.083 47.073,196.165 47.625,196.25 C50.873,197.276 53.288,198.966 56,201 C56,201.66 56,202.32 56,203 C61.347,205.772 65.741,207.257 71.812,207.625 C72.974,207.7 74.135,207.775 75.332,207.852 C76.653,207.925 76.653,207.925 78,208 C78.33,209.65 78.66,211.3 79,213 C69.086,214.96 59.296,211.53 51,206 C51,205.34 51,204.68 51,204 C50.412,203.745 49.824,203.49 49.219,203.227 C41.983,199.227 37.675,191.104 35.182,183.507 C32.849,175.083 32.614,167.142 32.75,158.438 C32.756,157.072 32.762,155.707 32.766,154.342 C32.845,144.466 32.845,144.466 34,141 Z"/>
  <path fill="#EDE877" d="M128,71 C130.646,73.646 131.176,76.473 132.062,80 C132.241,80.706 132.419,81.411 132.603,82.138 C134.038,88.256 134.422,94.215 134.644,100.476 C135.057,110.715 137.492,119.822 142,129 C145.233,136.163 145.233,136.163 146,140 C146.99,140 147.98,140 149,140 C150.788,146.817 151.237,152.965 151,160 C150.34,160 149.68,160 149,160 C149.041,161.258 149.083,162.516 149.125,163.812 C149.239,167.291 149.059,167.911 147,171 C146.327,173.332 145.662,175.665 145,178 C142.993,183.822 140.931,186.538 136,190 C135.34,190 134.68,190 134,190 C133.876,190.619 133.753,191.238 133.625,191.875 C133,194 133,194 131,196 C128.345,196.565 125.709,196.738 123,197 C123,196.34 123,195.68 123,195 C124.65,195 126.3,195 128,195 C128,194.01 128,193.02 128,192 C128.66,192 129.32,192 130,192 C130,191.34 130,190.68 130,190 C130.99,190 131.98,190 133,190 C133,189.34 133,188.68 133,188 C134.485,187.505 134.485,187.505 136,187 C137.219,184.496 137.219,184.496 138,182 C138.66,182 139.32,182 140,182 C140,181.34 140,180.68 140,180 C140.99,180 141.98,180 143,180 C143.99,174.06 143.99,174.06 145,168 C145.66,168 146.32,168 147,168 C146.948,163.791 146.853,159.583 146.75,155.375 C146.736,154.185 146.722,152.995 146.707,151.77 C146.481,143.681 145.748,139.748 140,134 C140,133.01 140,132.02 140,131 C139.34,131 138.68,131 138,131 C135.483,125.966 134.572,121.752 134.211,116.137 C134.123,113.949 134.123,113.949 133,112 C132.736,108.803 132.556,105.613 132.395,102.41 C132.236,98.579 132.236,98.579 131,95 C130.724,91.626 130.553,88.252 130.379,84.871 C130.254,83.924 130.129,82.976 130,82 C129.34,81.67 128.68,81.34 128,81 C128,77.7 128,74.4 128,71 Z"/>
  <path fill="#C6D13A" d="M131,10 C131.66,10 132.32,10 133,10 C133.369,21.522 133.369,21.522 131,27 C132.32,26.34 133.64,25.68 135,25 C135.33,25.99 135.66,26.98 136,28 C134.562,30.688 134.562,30.688 133,33 C132.34,32.67 131.68,32.34 131,32 C131,31.34 131,30.68 131,30 C129.36,30.99 129.36,30.99 127.688,32 C122.531,34.629 117.662,34.375 112,34 C112,32.68 112,31.36 112,30 C112.99,29.34 113.98,28.68 115,28 C116.019,26.345 117.018,24.677 118,23 C119.703,20.988 121.122,19.931 123.438,18.625 C126.918,16.418 129.161,13.678 131,10 Z"/>
  <path fill="#8F6B5B" d="M61,96 C61.66,96.33 62.32,96.66 63,97 C62.67,97.66 62.34,98.32 62,99 C62.66,99 63.32,99 64,99 C64.33,98.34 64.66,97.68 65,97 C65.164,105.552 60.382,110.719 55,117 C53.79,118.207 52.564,119.398 51.312,120.562 C47.611,124.024 45.628,128.109 43.457,132.645 C41.868,135.213 40.79,135.966 38,137 C36.646,132.939 37.578,129.901 39,126 C40.448,123.176 41.969,120.447 44,118 C44.66,118 45.32,118 46,118 C46.263,117.415 46.526,116.83 46.797,116.227 C48.054,113.9 49.438,112.293 51.25,110.375 C55.21,105.974 58.118,101.152 61,96 Z"/>
  <path fill="#E2E463" d="M76,106 C76.33,106 76.66,106 77,106 C77,107.98 77,109.96 77,112 C76.216,112.227 75.433,112.454 74.625,112.688 C71.248,114.376 71.31,115.532 70,119 C68.174,121.493 66.25,123.878 64,126 C63.34,126 62.68,126 62,126 C62,126.99 62,127.98 62,129 C61.34,129 60.68,129 60,129 C59.67,130.65 59.34,132.3 59,134 C58.34,134 57.68,134 57,134 C57,134.66 57,135.32 57,136 C56.01,136 55.02,136 54,136 C53.876,136.681 53.753,137.361 53.625,138.062 C53,141 53,141 52,143.812 C50.304,149.684 50.528,155.874 50.375,161.938 C50.336,163.194 50.298,164.45 50.258,165.744 C50.164,168.829 50.078,171.914 50,175 C50.66,175 51.32,175 52,175 C52,176.65 52,178.3 52,180 C52.99,180.33 53.98,180.66 55,181 C56.062,182.961 56.062,182.961 57,185.375 C58.258,188.593 59.393,190.704 62,193 C61.505,193.99 61.505,193.99 61,195 C54.612,190.802 51.522,184.026 49,177 C48.464,175.907 47.927,174.814 47.375,173.688 C44.882,167.211 45.777,159.816 46,153 C46.66,153 47.32,153 48,153 C48,150.69 48,148.38 48,146 C49.485,145.505 49.485,145.505 51,145 C50.907,143.979 50.907,143.979 50.812,142.938 C51.056,139.116 52.27,136.396 54,133 C54.99,132.34 55.98,131.68 57,131 C57.495,130.154 57.99,129.309 58.5,128.438 C60,126 60,126 63,125 C63.601,123.098 63.601,123.098 64,121 C64.66,120.01 65.32,119.02 66,118 C66.66,118 67.32,118 68,118 C68.309,117.216 68.619,116.433 68.938,115.625 C70,113 70,113 71,111 C71.99,111 72.98,111 74,111 C74.66,109.35 75.32,107.7 76,106 Z"/>
  <path fill="#86614A" d="M151,119 C158.661,128.847 164.156,138.556 166,151 C166.174,151.811 166.348,152.622 166.527,153.457 C167.551,159.025 166.229,162.62 163.914,167.715 C162.775,170.562 162.931,172.961 163,176 C161.5,179.375 161.5,179.375 160,182 C159.34,181.67 158.68,181.34 158,181 C158,179.68 158,178.36 158,177 C158.66,177 159.32,177 160,177 C159.722,175.453 159.722,175.453 159.438,173.875 C159.013,170.114 159.373,167.691 160,164 C160.254,161.045 160.409,158.087 160.562,155.125 C160.606,154.341 160.649,153.557 160.693,152.75 C160.799,150.833 160.9,148.917 161,147 C160.34,147 159.68,147 159,147 C159.009,146.334 159.018,145.667 159.027,144.98 C158.793,137.684 156.837,133.314 152.594,127.41 C151.105,125.158 150.322,123.659 150,121 C150.33,120.34 150.66,119.68 151,119 Z"/>
  <path fill="#6F3303" d="M110,22 C110,28.93 110,35.86 110,43 C107.36,43 104.72,43 102,43 C102,42.34 102,41.68 102,41 C101.34,41 100.68,41 100,41 C99.876,39.824 99.753,38.649 99.625,37.438 C99.271,34.501 98.723,32.063 97.875,29.188 C97,26 97,26 98,23 C100,22 100,22 110,22 Z"/>
  <path fill="#8C6D51" d="M76,64 C77.16,67.479 76.775,68.342 75.562,71.688 C75.275,72.496 74.988,73.304 74.691,74.137 C74.463,74.752 74.235,75.366 74,76 C73.34,76 72.68,76 72,76 C72,76.99 72,77.98 72,79 C74.439,77.074 76.801,75.199 79,73 C78.605,75.766 78.246,76.793 76.062,78.625 C73.349,81.749 73.168,84.447 72.492,88.453 C71.804,92.012 70.703,94.799 69,98 C67.515,98.495 67.515,98.495 66,99 C65.267,101.015 65.267,101.015 65,103 C64.67,101.68 64.34,100.36 64,99 C63.34,99 62.68,99 62,99 C62.552,93.387 64.072,88.842 66.312,83.688 C66.948,82.192 67.584,80.696 68.219,79.199 C68.526,78.482 68.832,77.764 69.148,77.025 C70.583,73.615 71.882,70.153 73.176,66.688 C74,65 74,65 76,64 Z"/>
  <path fill="#F0E97D" d="M117,54 C117,54.66 117,55.32 117,56 C117.66,56 118.32,56 119,56 C119,56.66 119,57.32 119,58 C120.32,58.66 121.64,59.32 123,60 C122.67,60.66 122.34,61.32 122,62 C120.68,61.34 119.36,60.68 118,60 C118,59.01 118,58.02 118,57 C117.01,57 116.02,57 115,57 C115,56.34 115,55.68 115,55 C111.37,55 107.74,55 104,55 C103.34,56.32 102.68,57.64 102,59 C100.382,60.958 98.71,62.871 97,64.75 C96.549,65.257 96.098,65.763 95.633,66.285 C94.466,67.565 93.237,68.788 92,70 C91.34,70 90.68,70 90,70 C90,71.98 90,73.96 90,76 C89.01,76.33 88.02,76.66 87,77 C87.021,78.299 87.041,79.599 87.062,80.938 C87.084,82.292 87.071,83.648 87,85 C86.505,85.495 86.505,85.495 86,86 C85.769,87.347 85.588,88.704 85.438,90.062 C85.293,91.362 85.149,92.661 85,94 C83.515,94.495 83.515,94.495 82,95 C82.062,95.887 82.124,96.774 82.188,97.688 C81.98,101.345 81.084,103.048 79,106 C78.34,105.67 77.68,105.34 77,105 C77.489,103.732 77.489,103.732 77.988,102.438 C78.893,100.09 79.794,97.741 80.691,95.391 C81.43,93.477 82.179,91.567 82.965,89.672 C84.957,84.795 85.65,80.207 86,75 C86.66,75 87.32,75 88,75 C87.92,74.279 87.84,73.559 87.758,72.816 C88.076,69.113 89.459,67.719 91.875,64.938 C94.802,61.59 94.802,61.59 97.062,57.801 C98.394,55.243 100.382,54.536 102.996,53.531 C107.598,52.311 112.473,52.491 117,54 Z"/>
  <path fill="#866844" d="M110,23 C110.66,23.66 111.32,24.32 112,25 C111.977,27.164 111.977,27.164 111.625,29.625 C111.459,30.851 111.459,30.851 111.289,32.102 C111.146,33.041 111.146,33.041 111,34 C112.897,33.912 114.792,33.804 116.688,33.688 C118.271,33.6 118.271,33.6 119.887,33.512 C123.249,32.959 125.156,31.807 128,30 C128.99,30 129.98,30 131,30 C131.688,31.812 131.688,31.812 132,34 C128.776,38.073 123.834,39.569 119,41 C116.223,41.29 113.799,41.207 111,41 C111,41.99 111,42.98 111,44 C108.03,44 105.06,44 102,44 C102,43.67 102,43.34 102,43 C104.64,43 107.28,43 110,43 C109.814,41.927 109.629,40.855 109.438,39.75 C108.709,34.125 109.392,28.612 110,23 Z"/>
  <path fill="#936F44" d="M125,10 C125.66,10.33 126.32,10.66 127,11 C126.67,11.33 126.34,11.66 126,12 C126.66,12.66 127.32,13.32 128,14 C127.241,14.736 126.481,15.472 125.699,16.23 C124.695,17.216 123.691,18.202 122.688,19.188 C122.188,19.67 121.688,20.153 121.174,20.65 C118.219,23.566 116.109,26.45 114,30 C113.34,30 112.68,30 112,30 C111.67,31.32 111.34,32.64 111,34 C111.012,33.374 111.023,32.747 111.035,32.102 C111.044,31.284 111.053,30.467 111.062,29.625 C111.074,28.813 111.086,28.001 111.098,27.164 C111.145,24.951 111.145,24.951 110,23 C108.375,22.946 106.75,22.907 105.125,22.875 C104.22,22.852 103.315,22.829 102.383,22.805 C99.812,22.757 99.812,22.757 98,25 C97.67,24.01 97.34,23.02 97,22 C97.66,21.01 98.32,20.02 99,19 C101.242,18.672 101.242,18.672 103.875,18.75 C105.171,18.773 105.171,18.773 106.492,18.797 C109,19 109,19 110.93,19.824 C113.325,20.249 113.325,20.249 116.016,17.91 C117.105,16.974 118.183,16.024 119.25,15.062 C119.804,14.581 120.359,14.1 120.93,13.604 C122.296,12.414 123.65,11.208 125,10 Z"/>
  <path fill="#8C7557" d="M34,141 C35.65,141 37.3,141 39,141 C39,152.55 39,164.1 39,176 C38.67,176 38.34,176 38,176 C36.833,167.33 36.903,158.726 37,150 C35.449,151.551 35.87,153.031 35.867,155.184 C35.865,156.451 35.865,156.451 35.863,157.744 C35.867,158.633 35.871,159.522 35.875,160.438 C35.871,161.322 35.867,162.207 35.863,163.119 C35.865,163.965 35.866,164.812 35.867,165.684 C35.868,166.463 35.869,167.242 35.871,168.045 C35.879,170.08 35.879,170.08 37,172 C37.07,173.54 37.085,175.083 37.062,176.625 C37.053,177.442 37.044,178.26 37.035,179.102 C37.024,179.728 37.012,180.355 37,181 C36.34,181 35.68,181 35,181 C33.425,176.12 32.752,172.039 32.77,166.859 C32.771,165.542 32.773,164.225 32.775,162.867 C32.782,162.191 32.788,161.516 32.794,160.819 C32.813,158.741 32.815,156.664 32.814,154.586 C32.859,144.422 32.859,144.422 34,141 Z"/>
  <path fill="#836855" d="M142,78 C142.66,78.33 143.32,78.66 144,79 C144.434,81.622 144.752,84.172 145,86.812 C145.163,88.361 145.329,89.909 145.496,91.457 C145.578,92.225 145.661,92.993 145.746,93.784 C146.086,101.922 146.086,101.922 149,109 C149.233,110.682 149.413,112.371 149.562,114.062 C149.646,114.982 149.73,115.901 149.816,116.848 C149.877,117.558 149.938,118.268 150,119 C149.34,119 148.68,119 148,119 C145.904,113.306 144.55,108.048 144,102 C143.34,102 142.68,102 142,102 C139.843,94.527 138.535,87.79 139,80 C139.99,80 140.98,80 142,80 C142,79.34 142,78.68 142,78 Z"/>
  <path fill="#826853" d="M123,206 C122.67,207.65 122.34,209.3 122,211 C113.104,214.672 104.431,214.295 95,214 C95.66,212.02 96.32,210.04 97,208 C98.132,207.939 99.264,207.879 100.43,207.816 C101.911,207.732 103.393,207.647 104.875,207.562 C105.621,207.523 106.368,207.484 107.137,207.443 C112.733,207.116 117.303,205.908 123,206 Z"/>
  <path fill="#F4EB85" d="M64,195 C64.99,195.33 65.98,195.66 67,196 C69.059,196.223 71.122,196.407 73.188,196.562 C74.274,196.646 75.361,196.73 76.48,196.816 C77.728,196.907 77.728,196.907 79,197 C79,197.66 79,198.32 79,199 C89.23,199 99.46,199 110,199 C110,198.34 110,197.68 110,197 C114.29,197 118.58,197 123,197 C123,197.66 123,198.32 123,199 C121.298,199.217 121.298,199.217 119.562,199.438 C116.192,199.612 116.192,199.612 115,201 C112.116,201.089 109.255,201.115 106.371,201.098 C105.075,201.096 105.075,201.096 103.752,201.093 C100.981,201.088 98.209,201.075 95.438,201.062 C93.563,201.057 91.689,201.053 89.814,201.049 C85.21,201.038 80.605,201.021 76,201 C75.67,200.01 75.34,199.02 75,198 C74.06,198.052 74.06,198.052 73.102,198.105 C72.284,198.133 71.467,198.16 70.625,198.188 C69.813,198.222 69.001,198.257 68.164,198.293 C67.45,198.196 66.736,198.1 66,198 C65.34,197.01 64.68,196.02 64,195 Z"/>
  <path fill="#B3B43D" d="M133,65 C133.103,65.639 133.206,66.279 133.312,66.938 C133.539,67.618 133.766,68.299 134,69 C134.99,69.33 135.98,69.66 137,70 C137,70.66 137,71.32 137,72 C138.32,71.67 139.64,71.34 141,71 C141.33,73.97 141.66,76.94 142,80 C141.01,80 140.02,80 139,80 C139.096,80.706 139.192,81.412 139.291,82.14 C139.723,85.342 140.143,88.546 140.562,91.75 C140.714,92.861 140.865,93.972 141.021,95.117 C141.16,96.187 141.299,97.257 141.441,98.359 C141.638,99.836 141.638,99.836 141.838,101.343 C142,104 142,104 141,108 C140.67,105.03 140.34,102.06 140,99 C139.34,99 138.68,99 138,99 C136.852,96.703 136.884,95.417 136.902,92.867 C136.907,91.659 136.907,91.659 136.912,90.426 C136.92,89.584 136.929,88.742 136.938,87.875 C136.942,87.026 136.947,86.176 136.951,85.301 C136.963,83.2 136.981,81.1 137,79 C137.99,79 138.98,79 140,79 C140,78.34 140,77.68 140,77 C138.35,77 136.7,77 135,77 C135,75.35 135,73.7 135,72 C134.34,72 133.68,72 133,72 C133,69.69 133,67.38 133,65 Z"/>
  <path fill="#AAA440" d="M43,132 C43.33,133.32 43.66,134.64 44,136 C43.01,136.66 42.02,137.32 41,138 C40.721,140.874 40.628,143.529 40.672,146.402 C40.674,147.236 40.676,148.069 40.678,148.928 C40.684,150.693 40.698,152.457 40.719,154.221 C40.75,156.923 40.76,159.624 40.766,162.326 C40.775,164.039 40.785,165.752 40.797,167.465 C40.801,168.274 40.805,169.084 40.81,169.918 C40.851,173.192 40.958,175.873 42,179 C42.128,181.674 42.044,184.321 42,187 C42.99,187 43.98,187 45,187 C45,187.99 45,188.98 45,190 C45.66,190 46.32,190 47,190 C47,191.32 47,192.64 47,194 C47.639,194.289 48.279,194.577 48.938,194.875 C51,196 51,196 52,198 C49.125,197.312 49.125,197.312 46,196 C44.355,193.083 44,191.353 44,188 C42.68,188 41.36,188 40,188 C40.033,185.949 40.065,183.898 40.098,181.848 C40.206,179.983 40.206,179.983 39,179 C38.911,176.188 38.885,173.401 38.902,170.59 C38.904,169.748 38.905,168.906 38.907,168.038 C38.912,165.338 38.925,162.638 38.938,159.938 C38.943,158.111 38.947,156.285 38.951,154.459 C38.962,149.973 38.979,145.486 39,141 C38.01,141 37.02,141 36,141 C37.555,137.183 40.036,134.808 43,132 Z"/>
  <path fill="#E0E35F" d="M128,71 C130.646,73.646 131.176,76.473 132.062,80 C132.241,80.706 132.419,81.411 132.603,82.138 C134.037,88.252 134.433,94.209 134.637,100.468 C134.895,107.227 136.261,113.47 138,120 C138.346,121.664 138.684,123.33 139,125 C138.67,124.34 138.34,123.68 138,123 C137.34,123 136.68,123 136,123 C135.867,122.374 135.734,121.747 135.598,121.102 C135.421,120.284 135.244,119.467 135.062,118.625 C134.888,117.813 134.714,117.001 134.535,116.164 C134.077,113.971 134.077,113.971 133,112 C132.736,108.803 132.556,105.613 132.395,102.41 C132.236,98.579 132.236,98.579 131,95 C130.724,91.626 130.553,88.252 130.379,84.871 C130.254,83.924 130.129,82.976 130,82 C129.34,81.67 128.68,81.34 128,81 C128,77.7 128,74.4 128,71 Z"/>
  <path fill="#82614D" d="M37,142 C37.33,142 37.66,142 38,142 C37.99,142.659 37.979,143.318 37.968,143.997 C37.449,161.627 37.449,161.627 40,179 C40.33,179.33 40.66,179.66 41,180 C41.041,181.666 41.043,183.334 41,185 C38.525,185.495 38.525,185.495 36,186 C35.67,184.35 35.34,182.7 35,181 C35.66,181 36.32,181 37,181 C36.859,179.541 36.712,178.083 36.562,176.625 C36.481,175.813 36.4,175.001 36.316,174.164 C36.109,171.957 36.109,171.957 35,170 C34.905,168.564 34.869,167.123 34.867,165.684 C34.866,164.837 34.865,163.991 34.863,163.119 C34.867,162.234 34.871,161.349 34.875,160.438 C34.871,159.549 34.867,158.66 34.863,157.744 C34.865,156.899 34.866,156.054 34.867,155.184 C34.868,154.406 34.869,153.628 34.871,152.826 C35,151 35,151 36,150 C36.231,148.653 36.412,147.296 36.562,145.938 C36.707,144.638 36.851,143.339 37,142 Z"/>
  <path fill="#967D4B" d="M111,41 C122.822,40.139 122.822,40.139 126.438,43.125 C127.283,44.074 128.129,45.022 129,46 C129.725,46.773 129.725,46.773 130.465,47.562 C134,51.48 134,51.48 134,55 C129.711,53.411 127.677,50.569 125,47 C125,46.34 125,45.68 125,45 C124.01,45.33 123.02,45.66 122,46 C123.65,47.65 125.3,49.3 127,51 C126.67,51.66 126.34,52.32 126,53 C124.979,51.886 124.979,51.886 123.938,50.75 C120.969,47.756 117.713,45.966 114,44 C114,43.34 114,42.68 114,42 C113.01,42.33 112.02,42.66 111,43 C111,42.34 111,41.68 111,41 Z"/>
  <path fill="#BA9550" d="M76,142 C76.33,143.32 76.66,144.64 77,146 C76.34,146 75.68,146 75,146 C75,152.93 75,159.86 75,167 C75.66,167 76.32,167 77,167 C77.082,167.577 77.165,168.155 77.25,168.75 C78.205,171.616 79.785,172.999 82,175 C80.02,175.495 80.02,175.495 78,176 C76.235,172.912 76,171.767 76,168 C75.01,168 74.02,168 73,168 C73,166.68 73,165.36 73,164 C72.34,164 71.68,164 71,164 C71,159.71 71,155.42 71,151 C71.66,151 72.32,151 73,151 C73,149.35 73,147.7 73,146 C73.99,145.67 74.98,145.34 76,145 C76,144.01 76,143.02 76,142 Z"/>
  <path fill="#8C735E" d="M95.848,40.902 C97.898,40.935 99.949,40.967 102,41 C101.67,41.66 101.34,42.32 101,43 C98.614,43.58 96.242,43.965 93.812,44.312 C91.318,45.259 91.101,46.651 90,49 C89.01,49.33 88.02,49.66 87,50 C87,50.66 87,51.32 87,52 C85.625,53.625 85.625,53.625 84,55 C83.34,55 82.68,55 82,55 C82,55.99 82,56.98 82,58 C81.34,58 80.68,58 80,58 C79.938,58.784 79.876,59.567 79.812,60.375 C79.41,61.674 79.41,61.674 79,63 C76.438,64.312 76.438,64.312 74,65 C78.659,54.966 84.036,48.511 93,42 C94,41 94,41 95.848,40.902 Z"/>
  <path fill="#D8E051" d="M49,145 C49.66,145.33 50.32,145.66 51,146 C50.67,146.33 50.34,146.66 50,147 C49.835,148.155 49.67,149.31 49.5,150.5 C49,154 49,154 48,155 C48,156.974 48.003,158.948 48.031,160.922 C47.994,163.371 47.593,165.627 47,168 C47.66,168 48.32,168 49,168 C49,170.31 49,172.62 49,175 C49.99,175 50.98,175 52,175 C52,176.65 52,178.3 52,180 C52.99,180.33 53.98,180.66 55,181 C56.062,182.961 56.062,182.961 57,185.375 C58.258,188.593 59.393,190.704 62,193 C61.67,193.66 61.34,194.32 61,195 C54.612,190.802 51.522,184.026 49,177 C48.464,175.907 47.928,174.814 47.375,173.688 C44.882,167.211 45.777,159.816 46,153 C46.66,153 47.32,153 48,153 C47.979,151.866 47.959,150.731 47.938,149.562 C48,146 48,146 49,145 Z"/>
  <path fill="#85684C" d="M42,188 C42.66,188 43.32,188 44,188 C45.257,190.906 46,192.796 46,196 C46.536,196.083 47.073,196.165 47.625,196.25 C50.873,197.276 53.288,198.966 56,201 C56,201.66 56,202.32 56,203 C62.359,206.316 68.883,208.243 76,209 C76,209.66 76,210.32 76,211 C73.79,210.743 71.582,210.469 69.375,210.188 C68.145,210.037 66.915,209.886 65.648,209.73 C60.429,208.686 56.995,207.492 54,203 C51.941,202.276 51.941,202.276 50,202 C50,201.34 50,200.68 50,200 C49.01,199.67 48.02,199.34 47,199 C47,198.34 47,197.68 47,197 C46.34,197 45.68,197 45,197 C42.568,193.633 42,192.266 42,188 Z"/>
  <path fill="#ABA552" d="M76,64 C77.16,67.479 76.775,68.342 75.562,71.688 C75.275,72.496 74.988,73.304 74.691,74.137 C74.463,74.752 74.235,75.366 74,76 C73.34,76 72.68,76 72,76 C72,76.99 72,77.98 72,79 C74.439,77.074 76.801,75.199 79,73 C78.605,75.766 78.246,76.793 76.062,78.625 C72.928,82.235 72.672,86.364 72,91 C71.67,91 71.34,91 71,91 C71,88.03 71,85.06 71,82 C70.01,82 69.02,82 68,82 C68.66,77.996 69.883,74.495 71.438,70.75 C72.085,69.164 72.085,69.164 72.746,67.547 C74,65 74,65 76,64 Z"/>
  <path fill="#B58F4B" d="M110,136 C116.923,138 116.923,138 119,141 C119,142.32 119,143.64 119,145 C119.99,145.33 120.98,145.66 122,146 C122.136,149.002 122.235,151.997 122.312,155 C122.375,156.259 122.375,156.259 122.439,157.543 C122.562,163.875 121.176,168.162 117,173 C116.01,173.66 115.02,174.32 114,175 C115.057,172.804 116.091,170.878 117.559,168.922 C119.559,164.867 119.365,161.391 119.25,156.938 C119.245,156.135 119.24,155.333 119.234,154.506 C119.185,150.823 118.998,147.563 118,144 C117.34,144 116.68,144 116,144 C115.753,143.216 115.505,142.432 115.25,141.625 C113.846,138.677 112.993,138.098 110,137 C110,136.67 110,136.34 110,136 Z"/>
  <path fill="#8C7448" d="M144,191 C144.66,191.33 145.32,191.66 146,192 C146,192.99 146,193.98 146,195 C141.786,199.109 137.299,201.54 132,204 C130.845,204.577 129.69,205.155 128.5,205.75 C127.262,206.369 127.262,206.369 126,207 C126,205.68 126,204.36 126,203 C127.758,201.402 127.758,201.402 130.125,199.938 C130.945,199.424 131.765,198.911 132.609,198.383 C135.349,196.798 138.17,195.415 141,194 C142.816,192.439 142.816,192.439 144,191 Z"/>
  <path fill="#8E7165" d="M151,119 C153.909,122.66 156.243,126.614 158.625,130.625 C159.032,131.306 159.44,131.986 159.859,132.688 C163.078,138.081 164.117,140.68 164,147 C163.34,147 162.68,147 162,147 C161.83,146.336 161.66,145.672 161.484,144.988 C160.043,139.735 158.675,136.121 155,132 C150.441,124.969 150.441,124.969 150,121 C150.33,120.34 150.66,119.68 151,119 Z"/>
  <path fill="#AF8745" d="M103,131 C103,131.66 103,132.32 103,133 C104.176,132.907 104.176,132.907 105.375,132.812 C106.674,132.905 106.674,132.905 108,133 C108.99,134.485 108.99,134.485 110,136 C109.367,135.847 108.734,135.693 108.082,135.535 C103.96,134.819 99.862,134.639 95.688,134.438 C94.852,134.394 94.016,134.351 93.154,134.307 C91.103,134.201 89.052,134.1 87,134 C86.67,134.99 86.34,135.98 86,137 C84.68,137 83.36,137 82,137 C82,137.66 82,138.32 82,139 C81.34,139 80.68,139 80,139 C79.67,139.99 79.34,140.98 79,142 C78.34,141.67 77.68,141.34 77,141 C77.33,140.01 77.66,139.02 78,138 C78.99,138 79.98,138 81,138 C81,137.01 81,136.02 81,135 C82.65,135 84.3,135 86,135 C86,134.34 86,133.68 86,133 C91.644,130.559 96.978,130.807 103,131 Z"/>
  <path fill="#A9A33E" d="M155,137 C155.33,137.99 155.66,138.98 156,140 C156.66,140 157.32,140 158,140 C158.33,142.31 158.66,144.62 159,147 C159.66,147 160.32,147 161,147 C161.054,149.688 161.094,152.374 161.125,155.062 C161.142,155.815 161.159,156.567 161.176,157.342 C161.229,163.53 160.513,168.731 157,174 C156.67,175.031 156.34,176.062 156,177.125 C155,180 155,180 153,181 C156,172 156,172 157.031,169.125 C158.064,165.792 158.632,162.577 159.125,159.125 C159.293,157.973 159.46,156.82 159.633,155.633 C159.754,154.764 159.875,153.895 160,153 C159.34,153 158.68,153 158,153 C157.039,150.118 156.894,148.301 156.938,145.312 C156.947,144.504 156.956,143.696 156.965,142.863 C156.982,141.941 156.982,141.941 157,141 C156.34,141 155.68,141 155,141 C155,139.68 155,138.36 155,137 Z"/>
  <path fill="#957A66" d="M144,196 C144.66,196.66 145.32,197.32 146,198 C143.522,200.805 140.797,202.33 137.5,204.062 C134.556,205.618 131.773,207.151 129,209 C126.679,209.708 124.346,210.38 122,211 C122,209.68 122,208.36 122,207 C122.58,206.83 123.16,206.66 123.758,206.484 C128.788,204.924 132.685,203.096 137,200 C139.311,198.624 141.653,197.314 144,196 Z"/>
  <path fill="#7E664D" d="M98,209 C102.95,209 107.9,209 113,209 C111.02,209.99 111.02,209.99 109,211 C109.99,211.99 110.98,212.98 112,214 C107.38,214 102.76,214 98,214 C98,212.35 98,210.7 98,209 Z"/>
  <path fill="#E1C879" d="M116,173 C116,176 116,176 114.688,177.688 C113,179 113,179 110,179 C109.67,179.99 109.34,180.98 109,182 C103.396,184.878 97.126,184.178 91,184 C91,183.01 91,182.02 91,181 C92.051,181.009 93.101,181.018 94.184,181.027 C102.594,180.914 108.145,180.475 114.594,174.496 C115.29,173.756 115.29,173.756 116,173 Z"/>
  <path fill="#8F7847" d="M63,103 C63,108.547 58.403,112.846 55,117 C52.757,119.205 50.497,121.075 48,123 C49.247,118.012 51.524,114.691 54.66,110.734 C56.064,109.032 56.064,109.032 57,107 C58.648,105.97 60.315,104.969 62,104 C62.33,103.67 62.66,103.34 63,103 Z"/>
  <path fill="#876C4A" d="M49,117 C49.66,117 50.32,117 51,117 C50.732,117.516 50.464,118.031 50.188,118.562 C49.281,120.424 48.463,122.33 47.688,124.25 C45.922,128.423 43.653,132.326 41,136 C40.67,136 40.34,136 40,136 C40,133.69 40,131.38 40,129 C40.66,129 41.32,129 42,129 C42.124,128.423 42.248,127.845 42.375,127.25 C43.006,124.977 43.889,123.075 45,121 C45.66,121 46.32,121 47,121 C47.66,119.68 48.32,118.36 49,117 Z"/>
  <path fill="#855322" d="M110,23 C112,25 112,25 112.195,28.258 C112.161,30.172 112.161,30.172 112.125,32.125 C112.107,33.406 112.089,34.688 112.07,36.008 C112.047,36.995 112.024,37.983 112,39 C114.64,38.67 117.28,38.34 120,38 C119.67,38.99 119.34,39.98 119,41 C116.36,41 113.72,41 111,41 C111,41.99 111,42.98 111,44 C108.03,44 105.06,44 102,44 C102,43.67 102,43.34 102,43 C104.64,43 107.28,43 110,43 C109.814,41.927 109.629,40.855 109.438,39.75 C108.709,34.125 109.392,28.612 110,23 Z"/>
  <path fill="#ECE876" d="M51,145 C51,148.073 50.897,151.128 50.781,154.199 C50.736,155.408 50.691,156.616 50.645,157.861 C50.597,159.124 50.549,160.387 50.5,161.688 C50.452,162.962 50.405,164.236 50.355,165.549 C50.237,168.699 50.119,171.85 50,175 C49.67,175 49.34,175 49,175 C49,172.69 49,170.38 49,168 C48.34,168 47.68,168 47,168 C46.973,165.854 46.954,163.708 46.938,161.562 C46.926,160.368 46.914,159.173 46.902,157.941 C47,155 47,155 48,154 C48.144,152.866 48.289,151.731 48.438,150.562 C49,147 49,147 51,145 Z"/>
  <path fill="#DFE35D" d="M118.125,197.938 C119.035,197.947 119.945,197.956 120.883,197.965 C121.931,197.982 121.931,197.982 123,198 C123,198.33 123,198.66 123,199 C121.298,199.217 121.298,199.217 119.562,199.438 C116.192,199.612 116.192,199.612 115,201 C112.116,201.089 109.255,201.115 106.371,201.098 C105.075,201.096 105.075,201.096 103.752,201.093 C100.981,201.088 98.209,201.075 95.438,201.062 C93.563,201.057 91.689,201.053 89.814,201.049 C85.21,201.038 80.605,201.021 76,201 C75.67,200.34 75.34,199.68 75,199 C76.08,199.005 77.16,199.01 78.273,199.016 C82.272,199.034 86.272,199.045 90.271,199.055 C92.003,199.06 93.736,199.067 95.468,199.075 C97.955,199.088 100.443,199.093 102.93,199.098 C104.095,199.105 104.095,199.105 105.285,199.113 C109.843,199.114 113.593,197.879 118.125,197.938 Z"/>
  <path fill="#B4B254" d="M133,65 C133.103,65.639 133.206,66.279 133.312,66.938 C133.539,67.618 133.766,68.299 134,69 C134.99,69.33 135.98,69.66 137,70 C137,70.66 137,71.32 137,72 C138.32,71.67 139.64,71.34 141,71 C141.33,73.97 141.66,76.94 142,80 C141.01,79.67 140.02,79.34 139,79 C139.33,78.34 139.66,77.68 140,77 C138.35,77 136.7,77 135,77 C135,75.35 135,73.7 135,72 C134.34,72 133.68,72 133,72 C133,69.69 133,67.38 133,65 Z"/>
  <path fill="#9E9156" d="M82,208 C84.97,208 87.94,208 91,208 C91.043,209.666 91.041,211.334 91,213 C90,214 90,214 88.152,214.098 C86.102,214.065 84.051,214.033 82,214 C82,212.02 82,210.04 82,208 Z"/>
  <path fill="#E2E362" d="M147,140 C147.66,140 148.32,140 149,140 C150.788,146.817 151.237,152.965 151,160 C150.34,160 149.68,160 149,160 C149,162.64 149,165.28 149,168 C148.67,168 148.34,168 148,168 C147.67,158.76 147.34,149.52 147,140 Z"/>
  <path fill="#E8E66F" d="M117,54 C117,54.66 117,55.32 117,56 C117.66,56 118.32,56 119,56 C119,56.66 119,57.32 119,58 C120.32,58.66 121.64,59.32 123,60 C122.67,60.66 122.34,61.32 122,62 C120.68,61.34 119.36,60.68 118,60 C118,59.01 118,58.02 118,57 C117.01,57 116.02,57 115,57 C115,56.34 115,55.68 115,55 C113.082,55.06 111.166,55.149 109.25,55.25 C107.649,55.32 107.649,55.32 106.016,55.391 C102.476,56.106 101.261,57.256 99,60 C98.34,59.67 97.68,59.34 97,59 C98,56 98,56 101.062,54.312 C106.223,52.285 111.707,52.236 117,54 Z"/>
  <path fill="#A5793A" d="M110,175 C110.99,175.33 111.98,175.66 113,176 C109.503,179.653 107.305,181.327 102.18,181.559 C100.411,181.544 98.642,181.503 96.875,181.438 C95.535,181.429 95.535,181.429 94.168,181.42 C86.476,181.276 86.476,181.276 83,179 C82.67,178.01 82.34,177.02 82,176 C84.31,176.33 86.62,176.66 89,177 C89,177.66 89,178.32 89,179 C91.75,179.054 94.499,179.094 97.25,179.125 C98.416,179.15 98.416,179.15 99.605,179.176 C105.083,179.26 105.083,179.26 110,177 C110,176.34 110,175.68 110,175 Z"/>
  <path fill="#B8BB3B" d="M56,201 C58.97,201.495 58.97,201.495 62,202 C62,202.66 62,203.32 62,204 C64.31,204 66.62,204 69,204 C69.33,204.99 69.66,205.98 70,207 C72.64,207 75.28,207 78,207 C78,207.33 78,207.66 78,208 C64.193,208.553 64.193,208.553 59,205 C58.01,204.34 57.02,203.68 56,203 C56,202.34 56,201.68 56,201 Z"/>
  <path fill="#A49A6D" d="M160,165 C161.32,165.33 162.64,165.66 164,166 C163.835,166.536 163.67,167.072 163.5,167.625 C162.884,170.065 162.884,170.065 163.125,172.875 C162.977,176.575 161.82,178.815 160,182 C159.34,181.67 158.68,181.34 158,181 C158,179.68 158,178.36 158,177 C158.66,177 159.32,177 160,177 C159.722,175.422 159.722,175.422 159.438,173.812 C159.049,170.429 159.118,168.236 160,165 Z"/>
  <path fill="#AEAB3D" d="M130,19 C130.99,19 131.98,19 133,19 C132.34,21.64 131.68,24.28 131,27 C132.32,26.34 133.64,25.68 135,25 C135.33,25.99 135.66,26.98 136,28 C134.562,30.688 134.562,30.688 133,33 C132.34,32.67 131.68,32.34 131,32 C131,31.34 131,30.68 131,30 C129.02,30.66 127.04,31.32 125,32 C125.66,31.01 126.32,30.02 127,29 C127.99,29 128.98,29 130,29 C130,25.7 130,22.4 130,19 Z"/>
  <path fill="#846745" d="M134,6 C134.99,6.33 135.98,6.66 137,7 C137.081,9.27 137.139,11.541 137.188,13.812 C137.222,15.077 137.257,16.342 137.293,17.645 C137,21 137,21 134,24 C134,18.06 134,12.12 134,6 Z"/>
  <path fill="#937768" d="M46,119 C46.33,119.66 46.66,120.32 47,121 C46.34,121 45.68,121 45,121 C44.876,121.577 44.752,122.155 44.625,122.75 C43.994,125.023 43.111,126.925 42,129 C41.34,129 40.68,129 40,129 C40,131.64 40,134.28 40,137 C39.34,137 38.68,137 38,137 C36.653,132.959 37.619,129.892 39,126 C42.239,120.254 42.239,120.254 46,119 Z"/>
  <path fill="#907667" d="M133,56 C133.99,56 134.98,56 136,56 C139.177,61.249 139.657,66.015 140,72 C139.01,72 138.02,72 137,72 C135.862,67.734 135,64.435 135,60 C134.34,60 133.68,60 133,60 C133,58.68 133,57.36 133,56 Z"/>
  <path fill="#764723" d="M97,23 C97.99,23 98.98,23 100,23 C102.613,28.879 102.183,34.707 102,41 C101.34,41 100.68,41 100,41 C99.876,39.824 99.753,38.649 99.625,37.438 C99.141,33.485 98.124,29.821 97,26 C97,25.01 97,24.02 97,23 Z"/>
  <path fill="#E4E467" d="M50,175 C50.66,175 51.32,175 52,175 C52,176.65 52,178.3 52,180 C52.99,180.33 53.98,180.66 55,181 C56.062,182.961 56.062,182.961 57,185.375 C58.258,188.593 59.393,190.704 62,193 C61.67,193.66 61.34,194.32 61,195 C55.57,191.432 52.041,186.165 50.465,179.859 C50.232,178.249 50.104,176.624 50,175 Z"/>
  <path fill="#9A8675" d="M163,148 C163.66,148 164.32,148 165,148 C166.496,153.103 167.467,156.743 166,162 C165.34,162.99 164.68,163.98 164,165 C163.007,159.293 162.895,153.786 163,148 Z"/>
  <path fill="#98682C" d="M74,147 C74.33,147 74.66,147 75,147 C75,153.6 75,160.2 75,167 C75.66,167 76.32,167 77,167 C77.082,167.577 77.165,168.155 77.25,168.75 C78.205,171.616 79.785,172.999 82,175 C80.68,175.33 79.36,175.66 78,176 C76.235,172.912 76,171.767 76,168 C75.34,168 74.68,168 74,168 C72.667,153.219 72.667,153.219 74,147 Z"/>
  <path fill="#A69F3E" d="M142,108 C144.146,111.22 145.359,114.444 146.625,118.062 C146.854,118.7 147.084,119.337 147.32,119.994 C149,124.738 149,124.738 149,127 C149.66,127 150.32,127 151,127 C151.66,128.98 152.32,130.96 153,133 C152.01,132.34 151.02,131.68 150,131 C150,130.34 150,129.68 150,129 C149.34,129 148.68,129 148,129 C145.583,124.771 144.652,121.877 145,117 C144.34,117 143.68,117 143,117 C142.67,114.03 142.34,111.06 142,108 Z"/>
  <path fill="#A1935A" d="M137,12 C137.99,12 138.98,12 140,12 C140.315,17.99 139.682,21.636 137,27 C136.34,26.67 135.68,26.34 135,26 C135.217,25.041 135.217,25.041 135.438,24.062 C136.172,20.062 136.586,16.045 137,12 Z"/>
  <path fill="#B5B63F" d="M127,200 C128.32,200.33 129.64,200.66 131,201 C129.35,201.66 127.7,202.32 126,203 C126,204.32 126,205.64 126,207 C121.71,207 117.42,207 113,207 C113.66,206.01 114.32,205.02 115,204 C117,203.677 119.005,203.363 121.023,203.184 C123.09,202.992 125.009,202.581 127,202 C127,201.34 127,200.68 127,200 Z"/>
  <path fill="#816249" d="M98,43 C98,43.99 98,44.98 98,46 C96.68,46 95.36,46 94,46 C93.753,46.598 93.505,47.196 93.25,47.812 C91.819,50.316 90.431,51.481 88,53 C87.34,53 86.68,53 86,53 C86,53.99 86,54.98 86,56 C85.01,56 84.02,56 83,56 C82.67,56.99 82.34,57.98 82,59 C82,57.68 82,56.36 82,55 C82.66,55 83.32,55 84,55 C84.33,54.01 84.66,53.02 85,52 C85.66,52 86.32,52 87,52 C87,51.34 87,50.68 87,50 C93.3,43 93.3,43 98,43 Z"/>
  <path fill="#98756A" d="M156,182 C156.66,182 157.32,182 158,182 C157.716,186.687 155.486,189.209 152.57,192.645 C151,194 151,194 148,194 C148,193.34 148,192.68 148,192 C148.66,192 149.32,192 150,192 C150.309,191.216 150.619,190.432 150.938,189.625 C152,187 152,187 153,185 C153.66,185 154.32,185 155,185 C155.33,184.01 155.66,183.02 156,182 Z"/>
  <path fill="#8C7447" d="M152,130 C152.99,130 153.98,130 155,130 C158.91,134.356 159.399,137.648 159.141,143.242 C159.094,143.822 159.048,144.402 159,145 C158.67,145 158.34,145 158,145 C158,143.35 158,141.7 158,140 C157.34,140 156.68,140 156,140 C153.679,136.751 152.563,133.941 152,130 Z"/>
  <path fill="#A07A5B" d="M99,19 C101.383,18.707 101.383,18.707 104.125,18.812 C105.035,18.84 105.945,18.867 106.883,18.895 C107.581,18.929 108.28,18.964 109,19 C109.33,19.99 109.66,20.98 110,22 C108.952,22.073 108.952,22.073 107.883,22.148 C106.973,22.223 106.063,22.298 105.125,22.375 C104.22,22.445 103.315,22.514 102.383,22.586 C99.821,22.796 99.821,22.796 98,25 C97.67,24.01 97.34,23.02 97,22 C97.66,21.01 98.32,20.02 99,19 Z"/>
  <path fill="#F4EB85" d="M147,142 C147.33,142 147.66,142 148,142 C148.058,146.562 148.094,151.125 148.125,155.688 C148.15,157.628 148.15,157.628 148.176,159.607 C148.182,160.855 148.189,162.102 148.195,163.387 C148.206,164.534 148.216,165.68 148.227,166.862 C148.001,169.992 147.335,172.181 146,175 C145.67,175 145.34,175 145,175 C145,172.69 145,170.38 145,168 C145.66,168 146.32,168 147,168 C147,159.42 147,150.84 147,142 Z"/>
  <path fill="#977161" d="M121,43 C126.711,44.028 129.248,45.791 132.934,50.246 C134,52 134,52 134,55 C129.711,53.411 127.677,50.569 125,47 C125,46.34 125,45.68 125,45 C123.68,44.67 122.36,44.34 121,44 C121,43.67 121,43.34 121,43 Z"/>
  <path fill="#928047" d="M119,207 C117,209 117,209 115.029,209.227 C114.243,209.217 113.458,209.206 112.648,209.195 C111.798,209.189 110.947,209.182 110.07,209.176 C108.736,209.151 108.736,209.151 107.375,209.125 C106.029,209.111 106.029,209.111 104.656,209.098 C102.437,209.074 100.219,209.041 98,209 C98,210.65 98,212.3 98,214 C97.01,213.67 96.02,213.34 95,213 C95.66,211.35 96.32,209.7 97,208 C98.132,207.939 99.264,207.879 100.43,207.816 C101.911,207.732 103.393,207.647 104.875,207.562 C105.621,207.523 106.368,207.484 107.137,207.443 C118.299,206.79 118.299,206.79 119,207 Z"/>
  <path fill="#F3EB84" d="M103,55 C103,58 103,58 101.609,59.684 C100.996,60.262 100.382,60.841 99.75,61.438 C98.797,62.35 98.797,62.35 97.824,63.281 C97.222,63.848 96.62,64.416 96,65 C94.793,66.207 94.793,66.207 93.562,67.438 C93.047,67.953 92.531,68.469 92,69 C92.608,63.529 92.608,63.529 94.25,61.312 C96.404,59.697 98.682,58.367 101,57 C101.66,56.34 102.32,55.68 103,55 Z"/>
  <path fill="#907A47" d="M144,191 C144.66,191.33 145.32,191.66 146,192 C146,192.99 146,193.98 146,195 C142.802,197.665 140.814,198.94 136.625,199.25 C135.759,199.167 134.893,199.085 134,199 C135.496,196.008 138.061,195.47 141,194 C142.816,192.439 142.816,192.439 144,191 Z"/>
  <path fill="#886954" d="M110,20 C112.31,20 114.62,20 117,20 C115.375,26.75 115.375,26.75 112,29 C111.34,26.03 110.68,23.06 110,20 Z"/>
  <path fill="#BEC43A" d="M96.312,46.188 C96.869,46.456 97.426,46.724 98,47 C97.361,47.248 96.721,47.495 96.062,47.75 C95.382,48.162 94.701,48.575 94,49 C93.876,49.619 93.753,50.237 93.625,50.875 C92.624,54.279 89.928,55.255 87,57 C87,56.01 87,55.02 87,54 C87.66,54 88.32,54 89,54 C89,53.01 89,52.02 89,51 C93.147,45.931 93.147,45.931 96.312,46.188 Z"/>
  <path fill="#938054" d="M142,78 C142.66,78.33 143.32,78.66 144,79 C144,79.99 144,80.98 144,82 C142.68,82 141.36,82 140,82 C140.33,82.99 140.66,83.98 141,85 C141.069,86.895 141.085,88.792 141.062,90.688 C141.053,91.681 141.044,92.675 141.035,93.699 C141.024,94.458 141.012,95.218 141,96 C140.67,96 140.34,96 140,96 C138.871,90.639 138.903,85.447 139,80 C139.99,80 140.98,80 142,80 C142,79.34 142,78.68 142,78 Z"/>
  <path fill="#97665A" d="M143,90 C143.66,90.33 144.32,90.66 145,91 C145.633,93.723 145.633,93.723 146.125,97.062 C146.293,98.167 146.46,99.272 146.633,100.41 C146.754,101.265 146.875,102.119 147,103 C146.34,103 145.68,103 145,103 C144.466,101.588 143.948,100.17 143.438,98.75 C143.147,97.961 142.857,97.172 142.559,96.359 C141.955,93.809 142.153,92.447 143,90 Z"/>
  <path fill="#8C715A" d="M162,148 C162.33,148 162.66,148 163,148 C163.33,153.94 163.66,159.88 164,166 C162.68,165.34 161.36,164.68 160,164 C160.66,158.72 161.32,153.44 162,148 Z"/>
  <path fill="#8B7064" d="M145,107 C146.953,107.68 146.953,107.68 149,109 C149.609,111.383 149.609,111.383 149.75,114.125 C149.807,115.035 149.863,115.945 149.922,116.883 C149.948,117.581 149.973,118.28 150,119 C149.34,119 148.68,119 148,119 C147.494,117.564 146.996,116.126 146.5,114.688 C146.222,113.887 145.943,113.086 145.656,112.262 C145,110 145,110 145,107 Z"/>
  <path fill="#836850" d="M61,96 C61.66,96.33 62.32,96.66 63,97 C62.67,97.66 62.34,98.32 62,99 C62.66,99 63.32,99 64,99 C64.33,98.34 64.66,97.68 65,97 C64.568,101.752 63.672,103.92 60,107 C59.34,106.67 58.68,106.34 58,106 C58.516,105.423 59.031,104.845 59.562,104.25 C61.271,102.135 61.271,102.135 60.625,99.875 C60.316,98.947 60.316,98.947 60,98 C60.33,97.34 60.66,96.68 61,96 Z"/>
  <path fill="#EAE772" d="M91,66 C91.33,67.32 91.66,68.64 92,70 C91.34,70 90.68,70 90,70 C90,71.98 90,73.96 90,76 C89.01,76.33 88.02,76.66 87,77 C86.267,79.015 86.267,79.015 86,81 C86,79.02 86,77.04 86,75 C86.66,75 87.32,75 88,75 C87.938,74.257 87.876,73.515 87.812,72.75 C88.031,69.546 88.902,68.36 91,66 Z"/>
  <path fill="#A09154" d="M134,69 C134.99,69.33 135.98,69.66 137,70 C137,70.66 137,71.32 137,72 C138.32,71.67 139.64,71.34 141,71 C141.33,72.65 141.66,74.3 142,76 C140.02,76 138.04,76 136,76 C135.34,73.69 134.68,71.38 134,69 Z"/>
  <path fill="#ADA434" d="M98,42 C103.94,42.99 103.94,42.99 110,44 C109.01,44.33 108.02,44.66 107,45 C107,45.66 107,46.32 107,47 C105.68,47 104.36,47 103,47 C103,46.34 103,45.68 103,45 C101.35,45.33 99.7,45.66 98,46 C98,44.68 98,43.36 98,42 Z"/>
  <path fill="#B4B43C" d="M155,137 C155.33,137.99 155.66,138.98 156,140 C156.66,140 157.32,140 158,140 C158.339,141.415 158.671,142.832 159,144.25 C159.186,145.039 159.371,145.828 159.562,146.641 C160,149 160,149 160,153 C159.34,153 158.68,153 158,153 C157.039,150.118 156.894,148.301 156.938,145.312 C156.947,144.504 156.956,143.696 156.965,142.863 C156.982,141.941 156.982,141.941 157,141 C156.34,141 155.68,141 155,141 C155,139.68 155,138.36 155,137 Z"/>
  <path fill="#DBE155" d="M85,81 C86.111,84.332 85.963,84.747 84.688,87.812 C84.266,88.859 84.266,88.859 83.836,89.926 C83.56,90.61 83.284,91.295 83,92 C82.323,93.996 81.652,95.995 81,98 C80.67,98 80.34,98 80,98 C80.307,91.378 81.743,86.779 85,81 Z"/>
  <path fill="#9A8B70" d="M38,185 C38.99,185.33 39.98,185.66 41,186 C40.67,186.66 40.34,187.32 40,188 C40.66,188 41.32,188 42,188 C42,189.98 42,191.96 42,194 C41.34,194 40.68,194 40,194 C39.01,191.36 38.02,188.72 37,186 C37.33,185.67 37.66,185.34 38,185 Z"/>
  <path fill="#998942" d="M133,10 C133.33,10 133.66,10 134,10 C134.33,14.95 134.66,19.9 135,25 C133.02,25.99 133.02,25.99 131,27 C131.66,21.39 132.32,15.78 133,10 Z"/>
  <path fill="#C3CC39" d="M157,150 C157.33,150.99 157.66,151.98 158,153 C158.66,153 159.32,153 160,153 C160,155.64 160,158.28 160,161 C159.34,161 158.68,161 158,161 C156.797,158.595 156.899,157.05 156.938,154.375 C156.947,153.558 156.956,152.74 156.965,151.898 C156.976,151.272 156.988,150.645 157,150 Z"/>
  <path fill="#ABA44F" d="M43,132 C43.33,133.32 43.66,134.64 44,136 C43.01,136.66 42.02,137.32 41,138 C40.67,138.99 40.34,139.98 40,141 C38.68,141 37.36,141 36,141 C37.555,137.183 40.036,134.808 43,132 Z"/>
  <path fill="#937F43" d="M88,52 C88.33,52.66 88.66,53.32 89,54 C88.34,54 87.68,54 87,54 C86.938,54.577 86.876,55.155 86.812,55.75 C85.68,58.887 83.658,60.092 81,62 C80.67,60.68 80.34,59.36 80,58 C80.66,58 81.32,58 82,58 C82.33,57.34 82.66,56.68 83,56 C83.99,56 84.98,56 86,56 C86,55.01 86,54.02 86,53 C86.66,52.67 87.32,52.34 88,52 Z"/>
  <path fill="#8F6C57" d="M96.047,40.668 C98.034,40.686 100.019,40.835 102,41 C101.67,41.66 101.34,42.32 101,43 C99.343,43.379 97.673,43.702 96,44 C93.993,44.644 91.991,45.306 90,46 C92.892,41.18 92.892,41.18 96.047,40.668 Z"/>
  <path fill="#B8BB3B" d="M112,30 C112.66,30 113.32,30 114,30 C114,30.99 114,31.98 114,33 C116.31,33 118.62,33 121,33 C121,32.34 121,31.68 121,31 C122.32,31.33 123.64,31.66 125,32 C123,34 123,34 120.398,34.195 C119.401,34.172 118.403,34.149 117.375,34.125 C115.871,34.098 115.871,34.098 114.336,34.07 C113.565,34.047 112.794,34.024 112,34 C112,32.68 112,31.36 112,30 Z"/>
  <path fill="#B09E4F" d="M134,25 C134.66,25.33 135.32,25.66 136,26 C135.34,27.98 134.68,29.96 134,32 C133.01,32 132.02,32 131,32 C130.812,29.625 130.812,29.625 131,27 C131.99,26.34 132.98,25.68 134,25 Z"/>
  <path fill="#ECE876" d="M64,195 C64.99,195.33 65.98,195.66 67,196 C69.059,196.223 71.122,196.407 73.188,196.562 C74.274,196.646 75.361,196.73 76.48,196.816 C77.728,196.907 77.728,196.907 79,197 C79,197.99 79,198.98 79,200 C76.873,199.745 74.748,199.471 72.625,199.188 C71.442,199.037 70.258,198.886 69.039,198.73 C66,198 66,198 64,195 Z"/>
  <path fill="#9D6655" d="M51,111 C51,114.645 50.142,116.093 48,119 C45.812,119.812 45.812,119.812 44,120 C44,119.34 44,118.68 44,118 C44.66,118 45.32,118 46,118 C46.268,117.402 46.536,116.804 46.812,116.188 C47.985,114.028 49.194,112.642 51,111 Z"/>
  <path fill="#A3993F" d="M69,91 C69.66,91.33 70.32,91.66 71,92 C70.188,94.938 70.188,94.938 69,98 C68.01,98.33 67.02,98.66 66,99 C65.267,101.015 65.267,101.015 65,103 C64.67,102.34 64.34,101.68 64,101 C64.938,98.375 64.938,98.375 66,96 C66.66,96 67.32,96 68,96 C68.33,94.35 68.66,92.7 69,91 Z"/>
  <path fill="#DDE25A" d="M145,175 C145,178.959 143.787,181.49 142,185 C139.812,186.438 139.812,186.438 138,187 C139.383,184.131 140.921,181.44 142.625,178.75 C143.071,178.044 143.517,177.337 143.977,176.609 C144.314,176.078 144.652,175.547 145,175 Z"/>
  <path fill="#8F796F" d="M160,138 C161.98,138.99 161.98,138.99 164,140 C164,142.31 164,144.62 164,147 C163.34,147 162.68,147 162,147 C161.34,144.03 160.68,141.06 160,138 Z"/>
  <path fill="#AEAB3D" d="M83,60 C84.255,63.766 83.371,65.372 82,69 C81.34,69 80.68,69 80,69 C79.67,70.32 79.34,71.64 79,73 C78.652,68.123 79.549,65.216 82,61 C82.33,60.67 82.66,60.34 83,60 Z"/>
  <path fill="#8D7465" d="M112.562,209.938 C113.697,209.958 114.831,209.979 116,210 C116.33,210.66 116.66,211.32 117,212 C113.625,212.625 113.625,212.625 110,213 C109.34,212.34 108.68,211.68 108,211 C109,210 109,210 112.562,209.938 Z"/>
  <path fill="#DFE25C" d="M133,191 C133,191.99 133,192.98 133,194 C129.994,197.006 127.176,196.596 123,197 C123,196.34 123,195.68 123,195 C123.908,194.711 124.815,194.423 125.75,194.125 C128.322,193.235 130.613,192.285 133,191 Z"/>
  <path fill="#937E73" d="M160,171 C161.551,173.464 162.03,174.681 161.75,177.625 C161,180 161,180 159,182 C158.67,180.35 158.34,178.7 158,177 C158.66,177 159.32,177 160,177 C160,175.02 160,173.04 160,171 Z"/>
  <path fill="#8B7157" d="M125,10 C125.66,10.33 126.32,10.66 127,11 C126.34,12.32 125.68,13.64 125,15 C124.01,15 123.02,15 122,15 C121.67,15.99 121.34,16.98 121,18 C120.34,17.67 119.68,17.34 119,17 C120.229,13.312 121.939,12.276 125,10 Z"/>
  <path fill="#9F9340" d="M58,203 C62.95,203.99 62.95,203.99 68,205 C68.33,205.99 68.66,206.98 69,208 C65.448,207.391 62.267,206.543 59,205 C58.67,204.34 58.34,203.68 58,203 Z"/>
  <path fill="#997E73" d="M35,172 C35.66,172 36.32,172 37,172 C37,174.97 37,177.94 37,181 C36.34,181 35.68,181 35,181 C34.155,177.622 33.892,175.325 35,172 Z"/>
  <path fill="#8A7246" d="M141,100 C141.33,100.66 141.66,101.32 142,102 C142.66,102 143.32,102 144,102 C145.159,105.478 144.708,107.459 144,111 C141.434,107.151 141.449,104.565 141,100 Z"/>
  <path fill="#94815D" d="M79,58 C79.33,58.99 79.66,59.98 80,61 C78.68,62.32 77.36,63.64 76,65 C75.34,64.67 74.68,64.34 74,64 C76.75,59.125 76.75,59.125 79,58 Z"/>
  <path fill="#856849" d="M125,13 C125.99,13.33 126.98,13.66 128,14 C125.69,16.31 123.38,18.62 121,21 C120.67,20.34 120.34,19.68 120,19 C120.938,16.875 120.938,16.875 122,15 C122.99,15 123.98,15 125,15 C125,14.34 125,13.68 125,13 Z"/>
  <path fill="#9C6D31" d="M82,176 C84.31,176.33 86.62,176.66 89,177 C89,177.66 89,178.32 89,179 C89.66,179.33 90.32,179.66 91,180 C88.36,179.67 85.72,179.34 83,179 C82.67,178.01 82.34,177.02 82,176 Z"/>
  <path fill="#948142" d="M63,103 C63,106.396 62.478,107.066 60.5,109.688 C60.036,110.31 59.572,110.933 59.094,111.574 C58.733,112.045 58.372,112.515 58,113 C57,111 57,111 57.125,109.125 C58.358,106.132 60.415,104.856 63,103 Z"/>
  <path fill="#89745B" d="M136,64 C136.99,64.33 137.98,64.66 139,65 C139.33,67.31 139.66,69.62 140,72 C139.01,72 138.02,72 137,72 C136,66.25 136,66.25 136,64 Z"/>
  <path fill="#EBE774" d="M76,106 C76.33,106 76.66,106 77,106 C77,107.98 77,109.96 77,112 C75.35,112.66 73.7,113.32 72,114 C73.32,111.36 74.64,108.72 76,106 Z"/>
  <path fill="#917B45" d="M74,72 C74.66,72.66 75.32,73.32 76,74 C76.66,73.67 77.32,73.34 78,73 C76.951,75.622 76.351,76.794 73.875,78.25 C73.256,78.497 72.637,78.745 72,79 C72,78.01 72,77.02 72,76 C72.66,76 73.32,76 74,76 C74,74.68 74,73.36 74,72 Z"/>
  <path fill="#EAE773" d="M123,62 C123.33,62.66 123.66,63.32 124,64 C124.66,64 125.32,64 126,64 C126.66,66.31 127.32,68.62 128,71 C127.01,71 126.02,71 125,71 C123.502,67.629 123,65.796 123,62 Z"/>
  <path fill="#92796C" d="M128,49 C130.867,49.573 131.861,49.861 134,52 C134,52.99 134,53.98 134,55 C131.378,53.951 130.206,53.351 128.75,50.875 C128.503,50.256 128.255,49.638 128,49 Z"/>
  <path fill="#897440" d="M125,36 C125.33,36.66 125.66,37.32 126,38 C124.02,38.66 122.04,39.32 120,40 C120,39.34 120,38.68 120,38 C119.34,37.67 118.68,37.34 118,37 C120.463,35.769 122.28,35.928 125,36 Z"/>
  <path fill="#7F5E4B" d="M134,6 C134.99,6.33 135.98,6.66 137,7 C137,9.64 137,12.28 137,15 C134.875,11.812 134.498,9.735 134,6 Z"/>
  <path fill="#83644C" d="M140,198 C140,198.66 140,199.32 140,200 C137.646,201.429 136.52,202.087 133.75,201.625 C133.173,201.419 132.595,201.212 132,201 C132.66,201 133.32,201 134,201 C134,200.34 134,199.68 134,199 C136,198 136,198 140,198 Z"/>
  <path fill="#A68361" d="M34,141 C35.65,141 37.3,141 39,141 C38.01,141.495 38.01,141.495 37,142 C37,143.32 37,144.64 37,146 C35.68,145.34 34.36,144.68 33,144 C33.33,143.01 33.66,142.02 34,141 Z"/>
  <path fill="#B0AE3C" d="M128,55 C131.092,57.53 131.909,60.225 133,64 C132.01,64 131.02,64 130,64 C130,62.35 130,60.7 130,59 C129.34,59 128.68,59 128,59 C128,57.68 128,56.36 128,55 Z"/>
  <path fill="#A09440" d="M94,46 C96.312,46.188 96.312,46.188 98,47 C93.605,51.004 93.605,51.004 92,52 C91.01,51.67 90.02,51.34 89,51 C91.25,48.438 91.25,48.438 94,46 Z"/>
  <path fill="#926B4B" d="M99,19 C101.164,18.707 101.164,18.707 103.625,18.812 C104.442,18.84 105.26,18.867 106.102,18.895 C107.041,18.947 107.041,18.947 108,19 C108,19.33 108,19.66 108,20 C106.721,20.083 105.442,20.165 104.125,20.25 C101.947,20.459 101.947,20.459 100,21 C98.41,22.921 98.41,22.921 98,25 C97.67,24.01 97.34,23.02 97,22 C97.66,21.01 98.32,20.02 99,19 Z"/>
</svg>
