<svg xmlns="http://www.w3.org/2000/svg" version="1.1" width="193" height="214">
  <defs/>
  <path fill="#FCBF08" d="M144.188,15.875 C145.089,15.893 145.99,15.911 146.918,15.93 C147.605,15.953 148.292,15.976 149,16 C152.658,22.614 153.984,28.448 153,36 C151.977,38.828 151.977,38.828 151,41 C151.598,41.238 152.196,41.477 152.812,41.723 C159.765,45.782 162.827,56.684 165,64 C168.661,80.474 164.895,99.604 161.423,115.843 C161.028,117.856 160.789,119.898 160.562,121.938 C159.945,125.301 159.452,125.831 157,128 C155.111,131.249 153.999,134.005 153.188,137.688 C150.713,148.251 143.09,158.89 135,166 C134.34,166 133.68,166 133,166 C132.67,166.99 132.34,167.98 132,169 C130.363,170.648 130.363,170.648 128.312,172.375 C127.589,172.985 126.866,173.594 126.121,174.223 C125.421,174.809 124.721,175.396 124,176 C123.182,176.741 123.182,176.741 122.348,177.496 C119.058,180.437 116.159,181.677 112,183 C111.34,183.99 110.68,184.98 110,186 C107.723,186.879 107.723,186.879 105.062,187.562 C101.782,188.418 99.872,189.085 97,191 C94.997,191.226 92.994,191.451 90.988,191.652 C88.24,192.133 86.32,193.495 84,195 C72.048,197.993 56.443,196.366 45.754,190.133 C45.175,189.759 44.596,189.385 44,189 C43.349,188.626 42.698,188.252 42.027,187.867 C34.642,183.114 29.716,175.481 27.113,167.168 C26.467,161.431 28.523,156.888 31.875,152.312 C38.614,144.172 48.707,142.374 58.527,139.879 C67.543,137.483 75.956,133.749 82.625,127.125 C86.832,123 86.832,123 89,123 C89.247,122.423 89.495,121.845 89.75,121.25 C91.183,118.671 92.784,116.939 95,115 C95.66,115 96.32,115 97,115 C97.103,114.484 97.206,113.969 97.312,113.438 C98.815,108.11 101.365,103.201 103.905,98.306 C106.694,92.923 109.268,87.687 111.062,81.875 C114.774,69.899 121.859,54.9 131,46 C131.707,44.35 132.379,42.684 133,41 C133.495,40.505 133.495,40.505 134,40 C134.026,36.473 133.971,32.959 133.873,29.434 C133.811,25.196 133.843,21.788 136,18 C139.314,15.791 140.345,15.775 144.188,15.875 Z"/>
  <path fill="#C18F23" d="M136,67 C136.99,67 137.98,67 139,67 C139.027,68.458 139.046,69.917 139.062,71.375 C139.074,72.187 139.086,72.999 139.098,73.836 C139,76 139,76 138,78 C137.692,80.331 137.491,82.662 137.281,85.004 C137,87 137,87 136,88 C135.669,89.408 135.387,90.827 135.125,92.25 C134.305,96.466 133.468,100.676 132.562,104.875 C132.224,106.48 132.224,106.48 131.879,108.117 C130.991,111.028 130.081,112.796 128,115 C127.34,115 126.68,115 126,115 C125.67,116.32 125.34,117.64 125,119 C124.34,119 123.68,119 123,119 C122.569,119.864 122.569,119.864 122.129,120.746 C121.412,122.178 120.691,123.608 119.965,125.035 C119.456,126.039 119.456,126.039 118.938,127.062 C118.425,128.07 118.425,128.07 117.902,129.098 C116.885,131.143 116.885,131.143 116,134 C115.01,134 114.02,134 113,134 C113,134.66 113,135.32 113,136 C112.01,136 111.02,136 110,136 C109.773,136.681 109.546,137.361 109.312,138.062 C107.688,141.699 105.672,145.028 103,148 C102.34,148 101.68,148 101,148 C101,148.99 101,149.98 101,151 C100.34,151 99.68,151 99,151 C99,151.99 99,152.98 99,154 C97.515,154.495 97.515,154.495 96,155 C95.67,155.66 95.34,156.32 95,157 C94.01,157 93.02,157 92,157 C92,157.66 92,158.32 92,159 C91.01,159 90.02,159 89,159 C89,159.66 89,160.32 89,161 C86.095,163.042 84.599,164 81,164 C81,164.66 81,165.32 81,166 C80.113,166.268 79.226,166.536 78.312,166.812 C75.046,167.862 75.046,167.862 72.5,169.5 C67.526,172.484 63.038,173.248 57.289,173.195 C56.045,173.189 54.801,173.182 53.52,173.176 C52.234,173.159 50.949,173.142 49.625,173.125 C48.317,173.116 47.008,173.107 45.66,173.098 C42.44,173.074 39.22,173.041 36,173 C36,172.34 36,171.68 36,171 C35.237,171.021 34.474,171.041 33.688,171.062 C31,171 31,171 28,170 C27.919,168.23 27.861,166.459 27.812,164.688 C27.778,163.701 27.743,162.715 27.707,161.699 C28,159 28,159 29.352,157.164 C31.665,155.53 33.234,155.645 36,156 C38.495,158.495 38.359,159.673 38.625,163.125 C38.7,164.035 38.775,164.945 38.852,165.883 C38.925,166.931 38.925,166.931 39,168 C43.062,168.058 47.125,168.094 51.188,168.125 C52.913,168.15 52.913,168.15 54.674,168.176 C55.786,168.182 56.897,168.189 58.043,168.195 C59.064,168.206 60.085,168.216 61.137,168.227 C67.108,167.753 71.175,164.623 75.914,161.242 C78,160 78,160 81,160 C81,159.34 81,158.68 81,158 C81.969,157.753 82.939,157.505 83.938,157.25 C84.948,156.837 85.959,156.425 87,156 C87.969,153.968 87.969,153.968 88,152 C88.66,152 89.32,152 90,152 C90,151.34 90,150.68 90,150 C90.99,150 91.98,150 93,150 C93,149.34 93,148.68 93,148 C94.658,146.986 96.327,145.989 98,145 C99.353,143.687 100.689,142.355 102,141 C102.99,140.34 103.98,139.68 105,139 C106.213,135.946 106.213,135.946 107,133 C107.99,133 108.98,133 110,133 C110.66,130.69 111.32,128.38 112,126 C112.99,126 113.98,126 115,126 C115.278,125.435 115.557,124.871 115.844,124.289 C117.021,121.959 118.245,119.664 119.5,117.375 C119.923,116.599 120.346,115.823 120.781,115.023 C122,113 122,113 124,111 C124.648,108.429 124.648,108.429 125,106 C125.66,106 126.32,106 127,106 C126.951,105.272 126.902,104.543 126.852,103.793 C127.02,100.626 127.812,99.045 129.375,96.312 C131.708,91.917 132.866,87.93 133.641,83.031 C134,81 134,81 135,79 C135.229,76.963 135.41,74.92 135.562,72.875 C135.688,71.231 135.688,71.231 135.816,69.555 C135.877,68.712 135.938,67.869 136,67 Z"/>
  <path fill="#866148" d="M154,43 C162.253,49.725 164.572,60.982 166,71 C167.417,85.619 164.479,101.549 161.423,115.843 C161.028,117.856 160.789,119.898 160.562,121.938 C159.945,125.301 159.452,125.831 157,128 C155.111,131.249 153.999,134.005 153.188,137.688 C150.713,148.251 143.09,158.89 135,166 C134.34,166 133.68,166 133,166 C132.67,166.99 132.34,167.98 132,169 C129.499,171.519 126.717,173.718 124,176 C123.182,176.758 123.182,176.758 122.348,177.531 C119.009,180.578 116.506,181.678 112,182 C111.762,179.707 111.762,179.707 112,177 C113.645,175.199 113.645,175.199 115.812,173.688 C116.52,173.176 117.228,172.664 117.957,172.137 C120,171 120,171 123,171 C123,170.34 123,169.68 123,169 C128.357,164 128.357,164 132,164 C132.247,163.423 132.495,162.845 132.75,162.25 C134,160 134,160 135.926,158.188 C138.19,155.8 139.188,153.778 140.438,150.75 C145.968,138.016 145.968,138.016 150,136 C150,134.02 150,132.04 150,130 C151.98,129.505 151.98,129.505 154,129 C154,128.34 154,127.68 154,127 C153.34,127 152.68,127 152,127 C152,125.02 152,123.04 152,121 C152.66,121 153.32,121 154,121 C154.33,117.37 154.66,113.74 155,110 C155.66,110 156.32,110 157,110 C157.186,108.484 157.186,108.484 157.375,106.938 C158,103 158,103 159.022,99.743 C160.05,95.809 160.29,92.2 160.266,88.168 C160.268,87.45 160.269,86.732 160.271,85.993 C160.273,84.489 160.269,82.986 160.261,81.483 C160.25,79.176 160.261,76.871 160.273,74.564 C160.272,73.099 160.27,71.633 160.266,70.168 C160.27,69.478 160.274,68.789 160.278,68.078 C160.341,64.094 160.341,64.094 158,61 C158,59.68 158,58.36 158,57 C157.01,56.67 156.02,56.34 155,56 C155,54.35 155,52.7 155,51 C154.34,51 153.68,51 153,51 C152.34,48.69 151.68,46.38 151,44 C151.99,43.67 152.98,43.34 154,43 Z"/>
  <path fill="#896E5C" d="M92,118 C92.99,118 93.98,118 95,118 C95.201,121.716 95.152,122.772 93,126 C92.34,126 91.68,126 91,126 C91,126.99 91,127.98 91,129 C89.369,130.215 87.732,131.427 86.02,132.523 C83.832,134.019 83.832,134.019 81.758,136.465 C78.401,139.55 75.321,140.744 71.062,142.188 C70.372,142.434 69.682,142.681 68.971,142.936 C65.85,144.045 62.727,145.083 59.559,146.051 C56.854,146.723 56.854,146.723 56,149 C54.066,149.267 52.13,149.524 50.188,149.711 C47.724,149.974 47.724,149.974 44.375,151.125 C40.787,152.055 38.566,151.87 35,151 C37.848,146.895 39.846,145.286 44.656,143.973 C45.762,143.655 46.868,143.337 48.008,143.01 C49.16,142.697 50.313,142.385 51.5,142.062 C62.804,138.951 74.118,135.575 82.625,127.125 C86.832,123 86.832,123 89,123 C89.309,122.361 89.619,121.721 89.938,121.062 C91,119 91,119 92,118 Z"/>
  <path fill="#86624C" d="M155,110 C155.66,110 156.32,110 157,110 C156.34,115.28 155.68,120.56 155,126 C155.66,126 156.32,126 157,126 C156.353,128.34 155.685,130.671 155,133 C154.805,133.687 154.611,134.374 154.41,135.082 C150.891,146.641 144.138,157.969 135,166 C134.34,166 133.68,166 133,166 C132.67,166.99 132.34,167.98 132,169 C129.499,171.519 126.717,173.718 124,176 C123.182,176.758 123.182,176.758 122.348,177.531 C119.009,180.578 116.506,181.678 112,182 C111.762,179.707 111.762,179.707 112,177 C113.645,175.199 113.645,175.199 115.812,173.688 C116.52,173.176 117.228,172.664 117.957,172.137 C120,171 120,171 123,171 C123,170.34 123,169.68 123,169 C128.357,164 128.357,164 132,164 C132.247,163.423 132.495,162.845 132.75,162.25 C134,160 134,160 135.926,158.188 C138.19,155.8 139.188,153.778 140.438,150.75 C145.968,138.016 145.968,138.016 150,136 C150,134.02 150,132.04 150,130 C151.32,129.67 152.64,129.34 154,129 C154,128.34 154,127.68 154,127 C153.34,127 152.68,127 152,127 C152,125.02 152,123.04 152,121 C152.66,121 153.32,121 154,121 C154.33,117.37 154.66,113.74 155,110 Z"/>
  <path fill="#AD813B" d="M34,178 C39.737,177.541 42.504,178.423 47,182 C48,183 49,184 50,185 C53.084,186.839 55.626,187.315 59.188,187.562 C63.901,187.901 63.901,187.901 65,189 C66.452,189.12 67.91,189.179 69.367,189.211 C70.696,189.253 70.696,189.253 72.051,189.297 C73.926,189.349 75.801,189.393 77.676,189.43 C78.564,189.461 79.452,189.492 80.367,189.523 C81.183,189.543 81.999,189.563 82.839,189.583 C85.439,190.085 86.343,190.988 88,193 C75.635,198.246 62.011,196.593 49.551,192.121 C47.586,191.198 45.815,190.189 44,189 C43.279,188.533 42.559,188.067 41.816,187.586 C37.903,184.865 35.143,182.859 34,178 Z"/>
  <path fill="#835C47" d="M144.188,15.875 C145.089,15.893 145.99,15.911 146.918,15.93 C147.605,15.953 148.292,15.976 149,16 C152.619,22.543 154.102,28.505 153,36 C152.34,36.66 151.68,37.32 151,38 C150.01,38 149.02,38 148,38 C148,33.71 148,29.42 148,25 C145.36,25.33 142.72,25.66 140,26 C140,30.95 140,35.9 140,41 C138.02,41.99 138.02,41.99 136,43 C135.67,43.66 135.34,44.32 135,45 C134.01,45 133.02,45 132,45 C132.875,41.125 132.875,41.125 134,40 C134.026,36.473 133.971,32.959 133.873,29.434 C133.811,25.196 133.843,21.788 136,18 C139.314,15.791 140.345,15.775 144.188,15.875 Z"/>
  <path fill="#8D664B" d="M128,49 C129.32,49 130.64,49 132,49 C132,50.32 132,51.64 132,53 C131.34,53 130.68,53 130,53 C129.809,53.851 129.809,53.851 129.613,54.719 C127.983,60.784 125.597,65.699 121,70 C118.118,74.611 117.07,79.462 115.809,84.684 C114.957,88.178 114.081,91.657 113.125,95.125 C112.839,96.2 112.553,97.275 112.258,98.383 C111,101 111,101 108.492,102.43 C106,103 106,103 104,102 C104.361,98.39 105.12,95.547 106.812,92.375 C108.544,89.11 109.723,85.906 110.812,82.375 C113.992,72.539 118.968,63.51 124.188,54.625 C124.82,53.545 125.453,52.465 126.105,51.352 C127.043,50.188 127.043,50.188 128,49 Z"/>
  <path fill="#AD7F2E" d="M36,156 C38,158 38,158 39,168 C53.85,168.495 53.85,168.495 69,169 C67.68,169.33 66.36,169.66 65,170 C64.67,170.99 64.34,171.98 64,173 C54.76,173 45.52,173 36,173 C36,172.34 36,171.68 36,171 C35.237,171.021 34.474,171.041 33.688,171.062 C31,171 31,171 28,170 C27.919,168.23 27.861,166.459 27.812,164.688 C27.778,163.701 27.743,162.715 27.707,161.699 C28,159 28,159 29.352,157.164 C31.665,155.53 33.234,155.645 36,156 Z"/>
  <path fill="#A97B2F" d="M136,67 C136.99,67 137.98,67 139,67 C139.027,68.458 139.046,69.917 139.062,71.375 C139.074,72.187 139.086,72.999 139.098,73.836 C139,76 139,76 138,78 C137.692,80.331 137.491,82.662 137.281,85.004 C137,87 137,87 136,88 C135.669,89.408 135.387,90.827 135.125,92.25 C134.305,96.466 133.468,100.676 132.562,104.875 C132.224,106.48 132.224,106.48 131.879,108.117 C130.991,111.028 130.081,112.796 128,115 C127.34,115 126.68,115 126,115 C125.67,116.32 125.34,117.64 125,119 C124.34,119 123.68,119 123,119 C122.773,119.516 122.546,120.031 122.312,120.562 C120.502,123.924 118.26,126.929 116,130 C115.34,129.34 114.68,128.68 114,128 C115.772,123.1 118.453,119.122 121.344,114.816 C123.038,111.935 124.058,109.198 125,106 C125.66,106 126.32,106 127,106 C126.951,105.272 126.902,104.543 126.852,103.793 C127.02,100.626 127.812,99.045 129.375,96.312 C131.708,91.917 132.866,87.93 133.641,83.031 C134,81 134,81 135,79 C135.229,76.963 135.41,74.92 135.562,72.875 C135.646,71.779 135.73,70.684 135.816,69.555 C135.907,68.29 135.907,68.29 136,67 Z"/>
  <path fill="#BD8B25" d="M148,25 C148,29.29 148,33.58 148,38 C148.99,38 149.98,38 151,38 C151,38.99 151,39.98 151,41 C151.99,41.33 152.98,41.66 154,42 C154,42.66 154,43.32 154,44 C153.01,44 152.02,44 151,44 C151.66,44.99 152.32,45.98 153,47 C153,48.32 153,49.64 153,51 C153.66,51 154.32,51 155,51 C155.124,51.804 155.247,52.609 155.375,53.438 C155.581,54.283 155.788,55.129 156,56 C156.66,56.33 157.32,56.66 158,57 C158.702,58.652 159.37,60.319 160,62 C160.33,62.33 160.66,62.66 161,63 C161.246,67.501 161.229,72.008 161.24,76.515 C161.25,78.765 161.281,81.014 161.312,83.264 C161.375,91.937 160.674,99.655 158,108 C157.67,108 157.34,108 157,108 C157.153,106.877 157.307,105.754 157.465,104.598 C158.319,96.911 158.366,89.163 158.562,81.438 C158.606,79.84 158.649,78.243 158.693,76.646 C158.799,72.764 158.901,68.882 159,65 C158.34,65 157.68,65 157,65 C155.829,61.019 154.743,57.084 154,53 C153.34,53 152.68,53 152,53 C151.495,51.231 150.996,49.459 150.5,47.688 C150.222,46.701 149.943,45.715 149.656,44.699 C149,42 149,42 149,39 C147.68,38.67 146.36,38.34 145,38 C145.33,34.37 145.66,30.74 146,27 C144.35,27 142.7,27 141,27 C141,31.95 141,36.9 141,42 C140.01,42 139.02,42 138,42 C137.67,43.65 137.34,45.3 137,47 C135.68,47 134.36,47 133,47 C133,49.31 133,51.62 133,54 C132.34,54 131.68,54 131,54 C131,55.65 131,57.3 131,59 C129.515,59.495 129.515,59.495 128,60 C128,60.99 128,61.98 128,63 C127.34,62.67 126.68,62.34 126,62 C127.199,58.917 128.477,55.937 130,53 C130.66,53 131.32,53 132,53 C132,51.68 132,50.36 132,49 C131.01,48.67 130.02,48.34 129,48 C130.312,46.5 130.312,46.5 132,45 C132.99,45 133.98,45 135,45 C135.66,43.68 136.32,42.36 137,41 C137.99,41 138.98,41 140,41 C140,36.05 140,31.1 140,26 C142,25 142,25 148,25 Z"/>
  <path fill="#87644F" d="M80,134 C79.67,134.99 79.34,135.98 79,137 C77.02,137.33 75.04,137.66 73,138 C73,138.66 73,139.32 73,140 C70.69,140 68.38,140 66,140 C65.67,140.99 65.34,141.98 65,143 C61.982,145.052 58.577,145.616 55.062,146.43 C52.734,147.011 52.734,147.011 49.688,148.562 C44.828,150.457 40.174,150.729 35,151 C37.855,146.883 39.876,145.274 44.691,143.938 C45.802,143.615 46.912,143.293 48.057,142.961 C49.214,142.644 50.371,142.327 51.562,142 C59.297,139.829 66.515,137.544 73.676,133.855 C76.291,132.893 77.432,133.034 80,134 Z"/>
  <path fill="#B2832A" d="M112,126 C112.99,126 113.98,126 115,126 C115.33,126.99 115.66,127.98 116,129 C116.66,128.34 117.32,127.68 118,127 C117.424,129.386 116.778,131.667 116,134 C115.01,134 114.02,134 113,134 C113,134.66 113,135.32 113,136 C112.01,136 111.02,136 110,136 C109.773,136.681 109.546,137.361 109.312,138.062 C107.688,141.699 105.672,145.028 103,148 C102.34,148 101.68,148 101,148 C101,148.99 101,149.98 101,151 C100.34,151 99.68,151 99,151 C99,151.99 99,152.98 99,154 C97.68,154.33 96.36,154.66 95,155 C95,154.34 95,153.68 95,153 C95.66,153 96.32,153 97,153 C97.33,151.68 97.66,150.36 98,149 C97.34,149 96.68,149 96,149 C96,149.66 96,150.32 96,151 C92.04,152.98 92.04,152.98 88,155 C88,154.01 88,153.02 88,152 C88.66,152 89.32,152 90,152 C90,151.34 90,150.68 90,150 C90.99,150 91.98,150 93,150 C93,149.34 93,148.68 93,148 C94.658,146.986 96.327,145.989 98,145 C99.353,143.687 100.689,142.355 102,141 C102.99,140.34 103.98,139.68 105,139 C106.213,135.946 106.213,135.946 107,133 C107.99,133 108.98,133 110,133 C110.66,130.69 111.32,128.38 112,126 Z"/>
  <path fill="#835D42" d="M53,189 C59.152,188.902 59.152,188.902 61,189 C61.33,189.33 61.66,189.66 62,190 C63.852,190.158 65.709,190.251 67.566,190.316 C69.253,190.379 69.253,190.379 70.975,190.443 C72.751,190.502 72.751,190.502 74.562,190.562 C75.75,190.606 76.938,190.649 78.162,190.693 C81.108,190.8 84.054,190.902 87,191 C87.495,191.99 87.495,191.99 88,193 C76.737,197.778 66.488,196.422 55,193 C55,192.34 55,191.68 55,191 C54.34,190.34 53.68,189.68 53,189 Z"/>
  <path fill="#7F5A44" d="M36,156 C38,158 38,158 38.195,160.82 C38.161,162.456 38.161,162.456 38.125,164.125 C38.107,165.221 38.089,166.316 38.07,167.445 C38.047,168.288 38.024,169.131 38,170 C32.375,170.25 32.375,170.25 29,168 C28.67,168.66 28.34,169.32 28,170 C27.919,168.23 27.861,166.459 27.812,164.688 C27.778,163.701 27.743,162.715 27.707,161.699 C28,159 28,159 29.352,157.164 C31.665,155.53 33.234,155.645 36,156 Z"/>
  <path fill="#BF8D24" d="M141,66 C141.027,68.312 141.046,70.625 141.062,72.938 C141.074,74.225 141.086,75.513 141.098,76.84 C141,80 141,80 140,81 C139.633,82.492 139.305,83.994 139,85.5 C138.111,89.889 138.111,89.889 137,91 C136.876,92.134 136.753,93.269 136.625,94.438 C136.419,95.613 136.212,96.789 136,98 C135.01,98.66 134.02,99.32 133,100 C133.308,98.02 133.621,96.041 133.938,94.062 C134.112,92.96 134.286,91.858 134.465,90.723 C135,88 135,88 136,87 C136.208,85.526 136.367,84.045 136.5,82.562 C136.89,78.219 136.89,78.219 138,76 C138.225,74.463 138.408,72.92 138.562,71.375 C138.646,70.558 138.73,69.74 138.816,68.898 C138.877,68.272 138.938,67.645 139,67 C138.01,67 137.02,67 136,67 C136.023,67.82 136.046,68.64 136.07,69.484 C136.088,70.562 136.106,71.64 136.125,72.75 C136.148,73.817 136.171,74.885 136.195,75.984 C136,79.002 135.425,80.409 134,83 C133.555,85.126 133.555,85.126 133.375,87.25 C133.251,88.488 133.128,89.725 133,91 C132.67,91 132.34,91 132,91 C132,87.04 132,83.08 132,79 C132.66,79 133.32,79 134,79 C134,74.71 134,70.42 134,66 C136.667,64.667 138.167,65.329 141,66 Z"/>
  <path fill="#A57830" d="M136,67 C136.99,67 137.98,67 139,67 C139.027,68.458 139.046,69.917 139.062,71.375 C139.074,72.187 139.086,72.999 139.098,73.836 C139,76 139,76 138,78 C137.692,80.331 137.491,82.662 137.281,85.004 C137,87 137,87 136,88 C135.627,89.574 135.301,91.16 135,92.75 C134.753,94.042 134.753,94.042 134.5,95.359 C134.165,97.128 133.865,98.903 133.598,100.684 C132.741,104.004 130.744,105.101 128,107 C127.957,105.334 127.959,103.666 128,102 C128.495,101.505 128.495,101.505 129,101 C129.144,99.886 129.289,98.772 129.438,97.625 C130,94 130,94 132,91 C132.415,89.326 132.765,87.636 133.062,85.938 C133.907,81.187 133.907,81.187 135,79 C135.229,76.963 135.41,74.92 135.562,72.875 C135.646,71.779 135.73,70.684 135.816,69.555 C135.877,68.712 135.938,67.869 136,67 Z"/>
  <path fill="#906F62" d="M139,16 C141.383,15.707 141.383,15.707 144.125,15.812 C145.035,15.84 145.945,15.867 146.883,15.895 C147.581,15.929 148.28,15.964 149,16 C152.751,22.781 153.518,28.305 153,36 C151.02,36.99 151.02,36.99 149,38 C149,32.06 149,26.12 149,20 C148.34,20 147.68,20 147,20 C147,19.34 147,18.68 147,18 C146.092,18.351 145.185,18.701 144.25,19.062 C141.122,19.965 139.948,20.134 137,19 C137.66,18.01 138.32,17.02 139,16 Z"/>
  <path fill="#D9A31F" d="M147,25 C147,29.62 147,34.24 147,39 C146.34,38.67 145.68,38.34 145,38 C145.33,34.37 145.66,30.74 146,27 C144.35,27 142.7,27 141,27 C141,31.95 141,36.9 141,42 C140.01,42 139.02,42 138,42 C137.67,43.65 137.34,45.3 137,47 C135.68,47 134.36,47 133,47 C133,49.31 133,51.62 133,54 C132.34,54 131.68,54 131,54 C131,55.65 131,57.3 131,59 C129.515,59.495 129.515,59.495 128,60 C128,60.99 128,61.98 128,63 C127.34,62.67 126.68,62.34 126,62 C127.199,58.917 128.477,55.937 130,53 C130.66,53 131.32,53 132,53 C132,51.68 132,50.36 132,49 C131.01,48.67 130.02,48.34 129,48 C130.312,46.5 130.312,46.5 132,45 C132.99,45 133.98,45 135,45 C135.66,43.68 136.32,42.36 137,41 C137.99,41 138.98,41 140,41 C140,36.05 140,31.1 140,26 C142,25 142,25 147,25 Z"/>
  <path fill="#B18B43" d="M155,110 C155.66,110 156.32,110 157,110 C156.34,115.28 155.68,120.56 155,126 C155.66,126 156.32,126 157,126 C155.507,131.397 153.803,136.699 152,142 C151.34,142 150.68,142 150,142 C150,141.01 150,140.02 150,139 C149.01,139.33 148.02,139.66 147,140 C147.495,138.515 147.495,138.515 148,137 C148.66,136.67 149.32,136.34 150,136 C150,134.02 150,132.04 150,130 C151.32,129.67 152.64,129.34 154,129 C154,128.34 154,127.68 154,127 C153.34,127 152.68,127 152,127 C152,125.02 152,123.04 152,121 C152.66,121 153.32,121 154,121 C154.33,117.37 154.66,113.74 155,110 Z"/>
  <path fill="#8D6D5A" d="M110,181 C110.33,182.32 110.66,183.64 111,185 C109.804,185.433 108.607,185.866 107.375,186.312 C104.687,187.311 102.255,188.38 99.688,189.688 C97,191 97,191 94,191 C94,189.35 94,187.7 94,186 C94.99,186 95.98,186 97,186 C97.33,185.01 97.66,184.02 98,183 C102.075,181.511 105.665,180.737 110,181 Z"/>
  <path fill="#967166" d="M163,91 C163.66,91.33 164.32,91.66 165,92 C163.108,108.224 163.108,108.224 161.43,115.879 C161.016,117.922 160.774,119.928 160.562,122 C160.284,123.485 160.284,123.485 160,125 C159.01,125.66 158.02,126.32 157,127 C156.34,126.34 155.68,125.68 155,125 C155.66,125 156.32,125 157,125 C157.987,121.622 158.23,118.382 158.438,114.875 C159.029,106.63 160.597,98.895 163,91 Z"/>
  <path fill="#906443" d="M128,166 C127.67,167.32 127.34,168.64 127,170 C126.34,170 125.68,170 125,170 C124.732,170.639 124.464,171.279 124.188,171.938 C123,174 123,174 120,175 C120,175.66 120,176.32 120,177 C120.66,177.33 121.32,177.66 122,178 C118.797,180.834 116.219,181.521 112,182 C111.762,179.707 111.762,179.707 112,177 C113.645,175.199 113.645,175.199 115.812,173.688 C116.52,173.176 117.228,172.664 117.957,172.137 C120,171 120,171 123,171 C123,170.34 123,169.68 123,169 C125.538,166 125.538,166 128,166 Z"/>
  <path fill="#AB7D2E" d="M82,134 C82.495,134.99 82.495,134.99 83,136 C79.466,139.067 75.466,140.505 71.125,142.062 C70.43,142.318 69.735,142.574 69.02,142.838 C65.88,143.988 62.753,145.076 59.555,146.059 C56.853,146.723 56.853,146.723 56,149 C54.071,149.266 52.141,149.523 50.203,149.715 C48.083,149.989 46.169,150.448 44.125,151.062 C41,152 41,152 39,152 C39,151.34 39,150.68 39,150 C39.969,149.917 40.939,149.835 41.938,149.75 C45.919,149.195 49.175,147.686 52.789,145.984 C55.803,144.642 58.809,143.83 62,143 C62.99,142.67 63.98,142.34 65,142 C65.33,141.34 65.66,140.68 66,140 C68.31,140 70.62,140 73,140 C73,139.34 73,138.68 73,138 C74.114,137.526 75.228,137.051 76.375,136.562 C78.267,135.747 80.157,134.921 82,134 Z"/>
  <path fill="#9D7544" d="M47,186 C49,185.957 51,185.959 53,186 C53.33,186.33 53.66,186.66 54,187 C55.662,187.208 57.33,187.367 59,187.5 C63.889,187.889 63.889,187.889 65,189 C66.486,189.157 67.979,189.251 69.473,189.316 C70.821,189.379 70.821,189.379 72.197,189.443 C73.616,189.502 73.616,189.502 75.062,189.562 C76.012,189.606 76.961,189.649 77.939,189.693 C80.293,189.8 82.646,189.902 85,190 C85,190.33 85,190.66 85,191 C81.188,191.029 77.375,191.047 73.562,191.062 C72.474,191.071 71.385,191.079 70.264,191.088 C69.229,191.091 68.195,191.094 67.129,191.098 C66.171,191.103 65.212,191.108 64.225,191.114 C62,191 62,191 61,190 C59,189.959 57,189.957 55,190 C55,190.99 55,191.98 55,193 C52.688,192.875 52.688,192.875 50,192 C48.188,188.938 48.188,188.938 47,186 Z"/>
  <path fill="#E0A815" d="M29,169 C31.31,169.66 33.62,170.32 36,171 C36,171.66 36,172.32 36,173 C40.48,172.918 44.958,172.806 49.438,172.688 C51.328,172.654 51.328,172.654 53.256,172.619 C60.445,172.413 66.322,171.711 73,169 C70.916,172.127 70.41,172.811 67,174 C64.353,174.168 61.816,174.233 59.172,174.195 C58.048,174.191 58.048,174.191 56.902,174.187 C54.518,174.176 52.134,174.15 49.75,174.125 C48.13,174.115 46.51,174.106 44.891,174.098 C40.927,174.076 36.964,174.041 33,174 C33.33,174.99 33.66,175.98 34,177 C34.66,177.33 35.32,177.66 36,178 C35.01,178 34.02,178 33,178 C29,172.857 29,172.857 29,169 Z"/>
  <path fill="#D9A218" d="M38,159 C38.33,159 38.66,159 39,159 C39,161.64 39,164.28 39,167 C47.91,167 56.82,167 66,167 C66,166.34 66,165.68 66,165 C67.32,165.33 68.64,165.66 70,166 C66.551,169.449 62.885,169.128 58.176,169.133 C57.065,169.134 55.955,169.135 54.811,169.137 C53.079,169.131 53.079,169.131 51.312,169.125 C50.147,169.129 48.981,169.133 47.779,169.137 C46.673,169.135 45.566,169.134 44.426,169.133 C42.901,169.131 42.901,169.131 41.345,169.129 C39,169 39,169 38,168 C37.928,166.481 37.916,164.958 37.938,163.438 C37.947,162.611 37.956,161.785 37.965,160.934 C37.976,160.296 37.988,159.657 38,159 Z"/>
  <path fill="#9C7C63" d="M58,192 C70.87,192.495 70.87,192.495 84,193 C84,193.66 84,194.32 84,195 C74.922,197.067 65.962,196.221 57,194 C57.33,193.34 57.66,192.68 58,192 Z"/>
  <path fill="#946C3E" d="M149,139 C149.427,143.52 148.226,145.822 145.75,149.562 C145.147,150.492 144.543,151.421 143.922,152.379 C142.115,154.843 140.222,156.911 138,159 C137.34,158.67 136.68,158.34 136,158 C136.65,156.954 136.65,156.954 137.312,155.887 C139.629,151.924 141.537,147.791 143.5,143.645 C146.134,139 146.134,139 149,139 Z"/>
  <path fill="#DCA519" d="M47,183 C48.32,183 49.64,183 51,183 C51,183.66 51,184.32 51,185 C58.425,185.99 58.425,185.99 66,187 C66,187.66 66,188.32 66,189 C68.313,188.86 70.625,188.713 72.938,188.562 C74.225,188.481 75.513,188.4 76.84,188.316 C79.86,188.351 79.86,188.351 81,187 C83.375,186.625 83.375,186.625 86,187 C87.812,189.5 87.812,189.5 89,192 C88.438,191.841 87.875,191.682 87.296,191.518 C84.908,190.979 82.714,190.81 80.27,190.719 C78.942,190.663 78.942,190.663 77.588,190.605 C75.726,190.535 73.864,190.464 72.002,190.395 C71.121,190.357 70.24,190.32 69.332,190.281 C68.525,190.251 67.718,190.221 66.886,190.189 C65,190 65,190 64,189 C62.461,188.867 60.918,188.769 59.375,188.688 C54.268,188.247 51.221,186.845 47,184 C47,183.67 47,183.34 47,183 Z"/>
  <path fill="#9B763D" d="M137,24 C140.3,24 143.6,24 147,24 C147,24.33 147,24.66 147,25 C144.69,25.33 142.38,25.66 140,26 C140,30.95 140,35.9 140,41 C138.02,41.99 138.02,41.99 136,43 C135.67,43.66 135.34,44.32 135,45 C134.01,45 133.02,45 132,45 C132.312,43.125 132.312,43.125 133,41 C136,39 136,39 139,39 C139,35.7 139,32.4 139,29 C138.34,29 137.68,29 137,29 C137,27.35 137,25.7 137,24 Z"/>
  <path fill="#C29022" d="M125,63 C125.33,64.32 125.66,65.64 126,67 C125.34,67 124.68,67 124,67 C123.67,68.32 123.34,69.64 123,71 C122.34,71 121.68,71 121,71 C121,72.98 121,74.96 121,77 C120.34,77 119.68,77 119,77 C118.856,77.969 118.711,78.939 118.562,79.938 C118,83 118,83 117,84 C116.769,85.347 116.588,86.704 116.438,88.062 C116.293,89.362 116.149,90.661 116,92 C115.01,92 114.02,92 113,92 C114.68,83.462 117.047,74.303 122,67 C122.99,66.67 123.98,66.34 125,66 C125,65.01 125,64.02 125,63 Z"/>
  <path fill="#907468" d="M149,139 C151,142 151,142 150.828,143.848 C148.184,150.719 143.514,157.154 138,162 C138,157.258 138.765,156.723 141.812,153.312 C145.622,148.775 147.667,144.747 149,139 Z"/>
  <path fill="#BD8B25" d="M129,98 C130,101 130,101 130,104 C130.66,103.67 131.32,103.34 132,103 C131.261,111.87 131.261,111.87 128,115 C127.34,115 126.68,115 126,115 C125.67,116.32 125.34,117.64 125,119 C124.34,118.67 123.68,118.34 123,118 C123.66,116.35 124.32,114.7 125,113 C125.66,113 126.32,113 127,113 C127,111.35 127,109.7 127,108 C126.34,108 125.68,108 125,108 C125,107.34 125,106.68 125,106 C125.66,106 126.32,106 127,106 C126.959,105.237 126.918,104.474 126.875,103.688 C127,101 127,101 129,98 Z"/>
  <path fill="#A47831" d="M114,80 C114.99,80 115.98,80 117,80 C116.379,82.564 115.754,85.126 115.125,87.688 C114.951,88.409 114.777,89.13 114.598,89.873 C112.701,97.566 112.701,97.566 111,101 C108.5,102.375 108.5,102.375 106,103 C105.34,102.67 104.68,102.34 104,102 C104,101.01 104,100.02 104,99 C105.98,98.67 107.96,98.34 110,98 C110.121,97.287 110.242,96.574 110.367,95.84 C111.311,90.448 112.374,85.228 114,80 Z"/>
  <path fill="#B3832A" d="M132,91 C132.99,91.33 133.98,91.66 135,92 C134.674,94.001 134.339,96.001 134,98 C133.917,98.866 133.835,99.732 133.75,100.625 C132.712,103.912 130.774,105.079 128,107 C127.957,105.334 127.959,103.666 128,102 C128.33,101.67 128.66,101.34 129,101 C129.144,99.886 129.289,98.772 129.438,97.625 C130,94 130,94 132,91 Z"/>
  <path fill="#CE9B21" d="M107.062,179.938 C108.517,179.968 108.517,179.968 110,180 C110,180.33 110,180.66 110,181 C109.145,181.193 108.291,181.387 107.41,181.586 C106.305,181.846 105.201,182.107 104.062,182.375 C102.96,182.63 101.858,182.885 100.723,183.148 C99.375,183.57 99.375,183.57 98,184 C97.67,184.66 97.34,185.32 97,186 C96.01,186 95.02,186 94,186 C94,187.65 94,189.3 94,191 C92.68,191 91.36,191 90,191 C90,189.35 90,187.7 90,186 C91.65,185.67 93.3,185.34 95,185 C95,184.01 95,183.02 95,182 C97.051,181.772 99.102,181.544 101.152,181.316 C104.058,180.819 103.642,180.007 107.062,179.938 Z"/>
  <path fill="#E1A913" d="M140,66 C140.33,66 140.66,66 141,66 C141.027,68.312 141.046,70.625 141.062,72.938 C141.074,74.225 141.086,75.513 141.098,76.84 C141,80 141,80 140,81 C139.633,82.492 139.305,83.994 139,85.5 C138.111,89.889 138.111,89.889 137,91 C136.876,92.134 136.753,93.269 136.625,94.438 C136.419,95.613 136.212,96.789 136,98 C135.01,98.66 134.02,99.32 133,100 C133.282,98.04 133.576,96.082 133.875,94.125 C134.037,93.034 134.2,91.944 134.367,90.82 C135,88 135,88 137,86 C139.072,79.42 139.565,72.862 140,66 Z"/>
  <path fill="#C49122" d="M97,146 C97.33,146.66 97.66,147.32 98,148 C98.99,148 99.98,148 101,148 C101,148.99 101,149.98 101,151 C100.34,151 99.68,151 99,151 C99,151.99 99,152.98 99,154 C97.68,154.33 96.36,154.66 95,155 C95,154.34 95,153.68 95,153 C95.66,153 96.32,153 97,153 C97.33,151.68 97.66,150.36 98,149 C97.34,149 96.68,149 96,149 C96,149.66 96,150.32 96,151 C92.04,152.98 92.04,152.98 88,155 C88,154.01 88,153.02 88,152 C88.66,152 89.32,152 90,152 C90,151.34 90,150.68 90,150 C90.99,150 91.98,150 93,150 C93,149.34 93,148.68 93,148 C94.32,147.34 95.64,146.68 97,146 Z"/>
  <path fill="#BE8C24" d="M112,126 C112.99,126 113.98,126 115,126 C115.33,126.99 115.66,127.98 116,129 C116.66,128.34 117.32,127.68 118,127 C117.424,129.386 116.778,131.667 116,134 C115.01,134 114.02,134 113,134 C113,134.66 113,135.32 113,136 C112.34,135.67 111.68,135.34 111,135 C110.01,134.67 109.02,134.34 108,134 C108,134.99 108,135.98 108,137 C107.34,136.67 106.68,136.34 106,136 C106.33,135.01 106.66,134.02 107,133 C107.99,133 108.98,133 110,133 C110.66,130.69 111.32,128.38 112,126 Z"/>
  <path fill="#9C7238" d="M92,123 C92.66,123.33 93.32,123.66 94,124 C93.67,124.66 93.34,125.32 93,126 C92.34,126 91.68,126 91,126 C91,126.99 91,127.98 91,129 C89.102,130.605 89.102,130.605 86.625,132.188 C85.813,132.717 85.001,133.247 84.164,133.793 C82,135 82,135 80,135 C80.33,133.68 80.66,132.36 81,131 C81.66,131 82.32,131 83,131 C83,130.34 83,129.68 83,129 C89.75,125 89.75,125 92,125 C92,124.34 92,123.68 92,123 Z"/>
  <path fill="#8F7059" d="M51,144 C48.776,146.557 47.25,147.242 44,148 C43.67,148.66 43.34,149.32 43,150 C40.351,150.594 37.708,150.742 35,151 C37.234,147.604 38.586,146.158 42.438,144.688 C45.429,144.11 47.974,143.817 51,144 Z"/>
  <path fill="#A08573" d="M150,22 C150.66,22 151.32,22 152,22 C153.05,25.149 153.101,27.388 153.062,30.688 C153.053,31.681 153.044,32.675 153.035,33.699 C153.024,34.458 153.012,35.218 153,36 C151.02,36.99 151.02,36.99 149,38 C149.33,32.72 149.66,27.44 150,22 Z"/>
  <path fill="#B58F48" d="M102,103 C102.99,103.33 103.98,103.66 105,104 C105,105.65 105,107.3 105,109 C103.68,109 102.36,109 101,109 C101,110.65 101,112.3 101,114 C99.68,114.33 98.36,114.66 97,115 C97.794,111.03 99.102,105.898 102,103 Z"/>
  <path fill="#967C70" d="M162,62 C162.66,62 163.32,62 164,62 C165.901,69.13 166.224,75.637 166,83 C163.237,80.237 163.382,78.029 162.875,74.188 C162.707,72.964 162.54,71.741 162.367,70.48 C162.064,67.611 161.923,64.879 162,62 Z"/>
  <path fill="#8A6247" d="M109,181 C108.67,181.99 108.34,182.98 108,184 C106.866,184.124 105.731,184.247 104.562,184.375 C102.799,184.684 102.799,184.684 101,185 C100.67,185.66 100.34,186.32 100,187 C97.438,187.625 97.438,187.625 95,188 C96.485,188.99 96.485,188.99 98,190 C96.68,190.33 95.36,190.66 94,191 C94,189.35 94,187.7 94,186 C94.99,186 95.98,186 97,186 C97.33,185.01 97.66,184.02 98,183 C101.879,181.61 104.865,181 109,181 Z"/>
  <path fill="#B78F3E" d="M147,25 C147.33,25 147.66,25 148,25 C148,29.29 148,33.58 148,38 C148.99,38 149.98,38 151,38 C151,38.99 151,39.98 151,41 C151.99,41.33 152.98,41.66 154,42 C154,42.66 154,43.32 154,44 C153.01,44 152.02,44 151,44 C151.66,44.99 152.32,45.98 153,47 C152.625,49.188 152.625,49.188 152,51 C151.494,49.564 150.996,48.126 150.5,46.688 C150.082,45.487 150.082,45.487 149.656,44.262 C149,42 149,42 149,39 C148.34,39 147.68,39 147,39 C147,34.38 147,29.76 147,25 Z"/>
  <path fill="#A1795C" d="M34,178 C36.97,178.495 36.97,178.495 40,179 C40,179.66 40,180.32 40,181 C40.99,181 41.98,181 43,181 C43,181.66 43,182.32 43,183 C43.99,183.33 44.98,183.66 46,184 C46,184.33 46,184.66 46,185 C39.641,185.489 39.641,185.489 36.625,183.188 C35,181 35,181 34,178 Z"/>
  <path fill="#A17532" d="M96,149 C96.66,149 97.32,149 98,149 C97.67,150.32 97.34,151.64 97,153 C96.34,153 95.68,153 95,153 C95,153.66 95,154.32 95,155 C91.633,157.432 90.266,158 86,158 C87.451,154.174 89.358,152.777 93,151 C93.99,151 94.98,151 96,151 C96,150.34 96,149.68 96,149 Z"/>
  <path fill="#967C6E" d="M154,43 C157.295,45.957 159.011,48.693 160.75,52.75 C161.178,53.735 161.606,54.72 162.047,55.734 C162.519,56.856 162.519,56.856 163,58 C162.01,58 161.02,58 160,58 C159.185,56.397 158.373,54.793 157.562,53.188 C157.11,52.294 156.658,51.401 156.191,50.48 C155,48 155,48 154,45 C153.01,44.67 152.02,44.34 151,44 C151.99,43.67 152.98,43.34 154,43 Z"/>
  <path fill="#A9803B" d="M33.438,155.812 C36,156 36,156 38,158 C38.195,160.383 38.195,160.383 38.125,163.125 C38.107,164.035 38.089,164.945 38.07,165.883 C38.047,166.581 38.024,167.28 38,168 C37.67,168 37.34,168 37,168 C37,165.03 37,162.06 37,159 C34.03,159.66 31.06,160.32 28,161 C30.48,156.04 30.48,156.04 33.438,155.812 Z"/>
  <path fill="#926A3F" d="M157,108 C157.33,108 157.66,108 158,108 C158.223,110.082 158.428,112.166 158.625,114.25 C158.741,115.41 158.857,116.57 158.977,117.766 C159,120.939 158.697,122.383 157,125 C156.34,125 155.68,125 155,125 C155.142,122.916 155.288,120.833 155.438,118.75 C155.519,117.59 155.6,116.43 155.684,115.234 C155.932,112.69 156.281,110.44 157,108 Z"/>
  <path fill="#9D7235" d="M136,67 C136.99,67 137.98,67 139,67 C139.236,72.778 138.868,77.513 137,83 C136.67,83 136.34,83 136,83 C136,77.72 136,72.44 136,67 Z"/>
  <path fill="#B1822B" d="M56,188 C62.152,187.902 62.152,187.902 64,188 C64.33,188.33 64.66,188.66 65,189 C66.486,189.157 67.979,189.251 69.473,189.316 C70.821,189.379 70.821,189.379 72.197,189.443 C73.616,189.502 73.616,189.502 75.062,189.562 C76.012,189.606 76.961,189.649 77.939,189.693 C80.293,189.8 82.646,189.902 85,190 C85,190.33 85,190.66 85,191 C81.292,191.058 77.584,191.094 73.875,191.125 C72.305,191.15 72.305,191.15 70.703,191.176 C65.407,191.209 60.943,191.172 56,189 C56,188.67 56,188.34 56,188 Z"/>
  <path fill="#D19D1D" d="M155,110 C155.66,110 156.32,110 157,110 C156.34,115.94 155.68,121.88 155,128 C154.01,127.67 153.02,127.34 152,127 C152,125.02 152,123.04 152,121 C152.66,121 153.32,121 154,121 C154.33,117.37 154.66,113.74 155,110 Z"/>
  <path fill="#A07433" d="M111,132 C111.33,132.99 111.66,133.98 112,135 C110.785,137.262 110.785,137.262 109.062,139.688 C108.214,140.9 108.214,140.9 107.348,142.137 C106.903,142.752 106.458,143.366 106,144 C105.01,143.67 104.02,143.34 103,143 C104,141 105,139 106,137 C106.66,137 107.32,137 108,137 C108,136.01 108,135.02 108,134 C108.99,134 109.98,134 111,134 C111,133.34 111,132.68 111,132 Z"/>
  <path fill="#856556" d="M159,57 C160.32,57.33 161.64,57.66 163,58 C162.979,59.299 162.959,60.599 162.938,61.938 C162.93,66.694 163.401,71.284 164,76 C161.029,72.703 160.581,70.322 160.375,65.938 C160.204,62.653 160.043,60.13 159,57 Z"/>
  <path fill="#E2AF25" d="M100,114 C100.33,114.99 100.66,115.98 101,117 C100.01,117.495 100.01,117.495 99,118 C97.952,119.975 96.948,121.975 96,124 C95.34,123.67 94.68,123.34 94,123 C93.875,117.25 93.875,117.25 95,115 C97.562,114.375 97.562,114.375 100,114 Z"/>
  <path fill="#A17532" d="M125,108 C125.66,108 126.32,108 127,108 C127,109.65 127,111.3 127,113 C126.34,113 125.68,113 125,113 C124.897,113.784 124.794,114.567 124.688,115.375 C124,118 124,118 121,120 C121.463,115.275 122.099,111.829 125,108 Z"/>
  <path fill="#93653B" d="M124,60 C124.99,60.33 125.98,60.66 127,61 C125.675,64.974 124.037,67.153 121,70 C120.34,70.99 119.68,71.98 119,73 C119,71.35 119,69.7 119,68 C119.66,68 120.32,68 121,68 C121,67.01 121,66.02 121,65 C120.34,65 119.68,65 119,65 C119.33,64.01 119.66,63.02 120,62 C120.33,62.66 120.66,63.32 121,64 C121.99,64 122.98,64 124,64 C124,62.68 124,61.36 124,60 Z"/>
  <path fill="#C79420" d="M139,148 C139.99,148 140.98,148 142,148 C139.724,154.127 137.34,158.103 132,162 C133.152,159.532 134.048,157.952 136,156 C136.648,153.429 136.648,153.429 137,151 C137.66,151 138.32,151 139,151 C139,150.01 139,149.02 139,148 Z"/>
  <path fill="#C39122" d="M55.438,146.312 C56.211,146.653 56.211,146.653 57,147 C56.67,147.66 56.34,148.32 56,149 C54.071,149.266 52.141,149.523 50.203,149.715 C48.083,149.989 46.169,150.448 44.125,151.062 C41,152 41,152 39,152 C39,151.34 39,150.68 39,150 C40.011,149.897 41.021,149.794 42.062,149.688 C45.156,149.147 46.967,148.665 49.688,147.375 C53,146 53,146 55.438,146.312 Z"/>
  <path fill="#DCA416" d="M134,66 C134.33,66 134.66,66 135,66 C135.207,74.627 135.215,82.596 133,91 C132.67,91 132.34,91 132,91 C132,87.04 132,83.08 132,79 C132.66,79 133.32,79 134,79 C134,74.71 134,70.42 134,66 Z"/>
  <path fill="#DFAD24" d="M103,101 C104.32,101.33 105.64,101.66 107,102 C107.99,102 108.98,102 110,102 C109.67,102.66 109.34,103.32 109,104 C108.01,104 107.02,104 106,104 C106,105.98 106,107.96 106,110 C105.01,110.33 104.02,110.66 103,111 C103,111.99 103,112.98 103,114 C102.34,114 101.68,114 101,114 C101,112.35 101,110.7 101,109 C102.32,109 103.64,109 105,109 C104.34,106.36 103.68,103.72 103,101 Z"/>
  <path fill="#8D7063" d="M127,168 C127.99,168 128.98,168 130,168 C128.442,171.824 126.084,174.292 123,177 C122.01,177 121.02,177 120,177 C120,175 120,175 122.375,172.375 C125,170 125,170 127,170 C127,169.34 127,168.68 127,168 Z"/>
  <path fill="#927058" d="M88,192 C84.89,193.83 82.818,194.206 79.234,193.977 C78.345,193.925 77.455,193.873 76.539,193.82 C75.619,193.756 74.698,193.691 73.75,193.625 C72.814,193.568 71.878,193.512 70.914,193.453 C68.609,193.312 66.304,193.161 64,193 C64,192.67 64,192.34 64,192 C67.437,191.803 70.875,191.619 74.312,191.438 C75.289,191.381 76.265,191.325 77.271,191.268 C78.678,191.195 78.678,191.195 80.113,191.121 C80.977,191.074 81.841,191.027 82.732,190.978 C85,191 85,191 88,192 Z"/>
  <path fill="#936649" d="M92,118 C92.99,118 93.98,118 95,118 C95,119.65 95,121.3 95,123 C94.01,123 93.02,123 92,123 C92,123.66 92,124.32 92,125 C91.01,125.33 90.02,125.66 89,126 C89,124 89,124 90,123 C90,122.01 90,121.02 90,120 C90.66,119.34 91.32,118.68 92,118 Z"/>
  <path fill="#B2842F" d="M120,171 C120,174.106 119.461,175.353 118,178 C116.35,178 114.7,178 113,178 C112.67,179.32 112.34,180.64 112,182 C111.75,179.707 111.75,179.707 112,177 C113.75,175.199 113.75,175.199 116,173.688 C116.743,173.176 117.485,172.664 118.25,172.137 C118.827,171.762 119.405,171.386 120,171 Z"/>
  <path fill="#9A6F36" d="M65.562,168.938 C66.697,168.958 67.831,168.979 69,169 C63.976,171.512 60.52,172.126 54.875,172.062 C54.121,172.058 53.367,172.053 52.59,172.049 C50.727,172.037 48.863,172.019 47,172 C47,171.67 47,171.34 47,171 C47.999,170.939 48.998,170.879 50.027,170.816 C51.318,170.733 52.608,170.649 53.938,170.562 C55.225,170.481 56.513,170.4 57.84,170.316 C61.636,169.936 61.604,169.007 65.562,168.938 Z"/>
  <path fill="#BB9958" d="M151,133 C151.66,133.33 152.32,133.66 153,134 C153.125,139.75 153.125,139.75 152,142 C151.34,142 150.68,142 150,142 C150,141.01 150,140.02 150,139 C149.01,139.33 148.02,139.66 147,140 C147.33,139.01 147.66,138.02 148,137 C148.66,136.67 149.32,136.34 150,136 C150.33,135.01 150.66,134.02 151,133 Z"/>
  <path fill="#CE991D" d="M127,162 C128.65,162 130.3,162 132,162 C132,162.66 132,163.32 132,164 C131.031,164.268 130.061,164.536 129.062,164.812 C128.052,165.204 127.041,165.596 126,166 C125.67,166.99 125.34,167.98 125,169 C124.34,169 123.68,169 123,169 C123,169.66 123,170.32 123,171 C122.34,170.67 121.68,170.34 121,170 C121.33,169.34 121.66,168.68 122,168 C122.66,168 123.32,168 124,168 C124,167.01 124,166.02 124,165 C124.99,165 125.98,165 127,165 C127,164.01 127,163.02 127,162 Z"/>
  <path fill="#D9A217" d="M129,108 C129.66,108 130.32,108 131,108 C130.387,110.962 129.746,112.381 128,115 C127.34,115 126.68,115 126,115 C125.67,116.32 125.34,117.64 125,119 C124.34,118.67 123.68,118.34 123,118 C123.66,116.35 124.32,114.7 125,113 C125.66,113 126.32,113 127,113 C127.66,111.35 128.32,109.7 129,108 Z"/>
  <path fill="#C89420" d="M132,49 C132.33,49 132.66,49 133,49 C133,50.65 133,52.3 133,54 C132.34,54 131.68,54 131,54 C131,55.65 131,57.3 131,59 C130.01,59.33 129.02,59.66 128,60 C128,60.99 128,61.98 128,63 C127.34,62.67 126.68,62.34 126,62 C127.199,58.917 128.477,55.937 130,53 C130.66,53 131.32,53 132,53 C132,51.68 132,50.36 132,49 Z"/>
  <path fill="#FDC521" d="M69,185 C72.375,184.875 72.375,184.875 76,185 C76.66,185.66 77.32,186.32 78,187 C77,188 77,188 75.152,188.098 C73.102,188.065 71.051,188.033 69,188 C69,187.01 69,186.02 69,185 Z"/>
  <path fill="#9B7035" d="M86,160 C84.688,161.5 84.688,161.5 83,163 C82.01,163 81.02,163 80,163 C80,163.66 80,164.32 80,165 C78.35,165 76.7,165 75,165 C81.169,158.39 81.169,158.39 86,160 Z"/>
  <path fill="#D39D1A" d="M118,77 C118.625,78.812 118.625,78.812 119,81 C118.01,82.485 118.01,82.485 117,84 C116.549,86.049 116.549,86.049 116.375,88.188 C116.251,89.446 116.128,90.704 116,92 C115.01,92 114.02,92 113,92 C114.029,86.554 115.246,81.882 118,77 Z"/>
  <path fill="#AC7E2D" d="M137,24 C140.3,24 143.6,24 147,24 C147,24.33 147,24.66 147,25 C144.69,25.33 142.38,25.66 140,26 C140,26.99 140,27.98 140,29 C139.01,29 138.02,29 137,29 C137,27.35 137,25.7 137,24 Z"/>
  <path fill="#8F683E" d="M55,145 C52.325,147.675 49.507,148.646 46,150 C45.01,150 44.02,150 43,150 C43.33,149.01 43.66,148.02 44,147 C47.759,145.377 50.921,144.76 55,145 Z"/>
  <path fill="#946C3E" d="M151,45 C151.99,45 152.98,45 154,45 C156.023,48.035 156.321,49.194 156.625,52.688 C156.7,53.496 156.775,54.304 156.852,55.137 C156.925,56.059 156.925,56.059 157,57 C156.34,56.67 155.68,56.34 155,56 C155,54.35 155,52.7 155,51 C154.34,51 153.68,51 153,51 C152.34,49.02 151.68,47.04 151,45 Z"/>
  <path fill="#9E7234" d="M131,97 C131.33,97 131.66,97 132,97 C132.25,99.75 132.25,99.75 132,103 C130,105.375 130,105.375 128,107 C127.635,102.744 128.525,100.464 131,97 Z"/>
  <path fill="#8C6B57" d="M109,89 C109.66,89 110.32,89 111,89 C110.355,92.485 108.899,95.028 107,98 C106.34,97.34 105.68,96.68 105,96 C106.32,93.69 107.64,91.38 109,89 Z"/>
  <path fill="#8C663F" d="M53,189 C55.64,189 58.28,189 61,189 C61.33,189.66 61.66,190.32 62,191 C60.188,192.062 60.188,192.062 58,193 C55,192 55,192 53,189 Z"/>
  <path fill="#956B3A" d="M109,181 C108.67,181.99 108.34,182.98 108,184 C104.37,184.33 100.74,184.66 97,185 C98,183 98,183 101.312,181.875 C105,181 105,181 109,181 Z"/>
  <path fill="#DFA714" d="M93,148 C93.66,148 94.32,148 95,148 C93.547,151.829 91.571,153.12 88,155 C88,154.01 88,153.02 88,152 C88.66,152 89.32,152 90,152 C90,151.34 90,150.68 90,150 C90.99,150 91.98,150 93,150 C93,149.34 93,148.68 93,148 Z"/>
  <path fill="#8B6A55" d="M113,79 C113.33,79 113.66,79 114,79 C114,81.31 114,83.62 114,86 C112.68,86.33 111.36,86.66 110,87 C110.33,85.35 110.66,83.7 111,82 C111.66,82 112.32,82 113,82 C113,81.01 113,80.02 113,79 Z"/>
  <path fill="#A28C7B" d="M84,193 C84,193.66 84,194.32 84,195 C81.36,195.33 78.72,195.66 76,196 C75.67,195.34 75.34,194.68 75,194 C77.957,192.522 80.742,192.94 84,193 Z"/>
  <path fill="#A5896A" d="M58,192 C60.97,192.33 63.94,192.66 67,193 C66.67,193.66 66.34,194.32 66,195 C63.03,194.67 60.06,194.34 57,194 C57.33,193.34 57.66,192.68 58,192 Z"/>
  <path fill="#8A6444" d="M37,179 C37.99,179 38.98,179 40,179 C40,179.66 40,180.32 40,181 C40.99,181 41.98,181 43,181 C43,181.66 43,182.32 43,183 C43.99,183.33 44.98,183.66 46,184 C44.188,184.688 44.188,184.688 42,185 C40.25,183.688 40.25,183.688 39,182 C39,181.34 39,180.68 39,180 C38.34,179.67 37.68,179.34 37,179 Z"/>
  <path fill="#877062" d="M143,155 C141.75,158.653 141.329,159.781 138,162 C138,158 138,158 139.375,156.25 C141,155 141,155 143,155 Z"/>
  <path fill="#997346" d="M110,98 C110,98.99 110,99.98 110,101 C108.125,102.062 108.125,102.062 106,103 C105.34,102.67 104.68,102.34 104,102 C104,101.01 104,100.02 104,99 C106.076,98.447 107.844,98 110,98 Z"/>
  <path fill="#89664F" d="M119,178 C118.67,178.99 118.34,179.98 118,181 C116.35,181 114.7,181 113,181 C113,180.01 113,179.02 113,178 C116,177 116,177 119,178 Z"/>
  <path fill="#DFB749" d="M29,169 C32.64,171.427 32.712,172.963 34,177 C34.66,177.33 35.32,177.66 36,178 C35.01,178 34.02,178 33,178 C29,172.857 29,172.857 29,169 Z"/>
  <path fill="#A77A30" d="M73,164 C75.97,164.495 75.97,164.495 79,165 C76.64,167.098 75.454,167.969 72.25,168.188 C71.136,168.095 71.136,168.095 70,168 C70.33,167.34 70.66,166.68 71,166 C71.66,166 72.32,166 73,166 C73,165.34 73,164.68 73,164 Z"/>
  <path fill="#835F45" d="M115,72 C116.98,72.495 116.98,72.495 119,73 C118.34,74.98 117.68,76.96 117,79 C115.438,77.75 115.438,77.75 114,76 C114.312,73.812 114.312,73.812 115,72 Z"/>
</svg>
