<?xml version="1.0" encoding="UTF-8"?>
<svg version="1.1" xmlns="http://www.w3.org/2000/svg" width="160" height="172">
<path d="M0 0 C0.82435547 -0.03738281 1.64871094 -0.07476563 2.49804688 -0.11328125 C6.71579583 -0.17396829 9.53739306 -0.01114101 12.89453125 2.69140625 C15.71846609 5.67150338 17.63295989 8.72848119 19.4375 12.375 C19.98083984 13.42494141 19.98083984 13.42494141 20.53515625 14.49609375 C22.04308651 17.44169228 23.38874957 20.2287487 24.4375 23.375 C25.0975 23.705 25.7575 24.035 26.4375 24.375 C26.83227539 26.29272461 26.83227539 26.29272461 27.03515625 28.77734375 C27.11443359 29.66744141 27.19371094 30.55753906 27.27539062 31.47460938 C27.34951172 32.41111328 27.42363281 33.34761719 27.5 34.3125 C27.65409233 36.1552405 27.81148609 37.9977088 27.97265625 39.83984375 C28.07139038 41.07142212 28.07139038 41.07142212 28.17211914 42.32788086 C28.33155163 44.43686532 28.33155163 44.43686532 29.4375 46.375 C29.50685891 47.70669109 29.5220585 49.04168637 29.5 50.375 C29.49097656 51.07625 29.48195313 51.7775 29.47265625 52.5 C29.46105469 53.11875 29.44945313 53.7375 29.4375 54.375 C29.4375 55.035 29.4375 55.695 29.4375 56.375 C30.035625 56.065625 30.63375 55.75625 31.25 55.4375 C36.51996491 52.87780276 41.61608296 52.74801843 47.25 54 C62.14961118 60.42728326 62.14961118 60.42728326 66.4375 66.375 C67.13977851 68.5254553 67.58361644 70.62223172 67.96875 72.8515625 C68.47966014 75.60196208 69.25271703 78.19821741 70.0625 80.875 C73.32931523 93.14671526 69.7452403 103.17895727 63.953125 114.19921875 C62.44085258 116.37018714 61.20997003 117.52489109 59 118.9375 C56.8449482 120.37871913 55.16185014 121.65064986 53.3125 123.5 C46.85040067 129.96209933 37.5817579 131.52528836 28.75 131.8125 C19.51170006 131.53950059 14.47299916 128.05889971 8.203125 121.48046875 C5.79823946 118.61269595 4.10914174 115.71828348 2.4375 112.375 C2.47230469 113.00148438 2.50710937 113.62796875 2.54296875 114.2734375 C2.57003906 115.09070313 2.59710938 115.90796875 2.625 116.75 C2.67720703 117.96816406 2.67720703 117.96816406 2.73046875 119.2109375 C2.63378906 119.92507812 2.53710938 120.63921875 2.4375 121.375 C-1.2594074 123.83960494 -3.46615862 123.70056513 -7.875 123.875 C-12.87738481 124.07409989 -16.85508786 124.71432961 -21.5625 126.375 C-24.01171875 126.7109375 -24.01171875 126.7109375 -26.25 126.75 C-26.99636719 126.77835937 -27.74273437 126.80671875 -28.51171875 126.8359375 C-30.5625 126.375 -30.5625 126.375 -31.8828125 124.3671875 C-33.4940365 121.99477696 -33.4940365 121.99477696 -36.91796875 121.984375 C-38.18253906 122.03078125 -39.44710937 122.0771875 -40.75 122.125 C-42.02230469 122.16109375 -43.29460938 122.1971875 -44.60546875 122.234375 C-45.58128906 122.28078125 -46.55710937 122.3271875 -47.5625 122.375 C-48.5625 119.375 -48.5625 119.375 -47.625 117 C-45.2395554 113.96397959 -42.8289585 112.4647815 -39.5 110.5859375 C-37.55340362 109.36931476 -36.11607125 108.05479891 -34.5625 106.375 C-36.109375 106.0965625 -36.109375 106.0965625 -37.6875 105.8125 C-42.44808351 104.42479954 -44.99567773 101.51655986 -47.5625 97.375 C-48.4790338 95.1514093 -49.18557611 92.94421652 -49.84765625 90.6328125 C-50.56854984 88.35589176 -51.49953517 86.41501671 -52.625 84.3125 C-56.10632703 77.54992221 -57.85767805 69.97769517 -56.5625 62.375 C-54.25 59.5625 -54.25 59.5625 -52.8671875 58.1796875 C-49.38274644 53.35989178 -48.94294381 46.13860129 -48.1484375 40.3671875 C-47.20117675 33.69921477 -45.34220363 29.23263358 -40.5625 24.375 C-39.9025 24.045 -39.2425 23.715 -38.5625 23.375 C-38.0984375 22.446875 -38.0984375 22.446875 -37.625 21.5 C-36.5195824 19.28916481 -35.29363805 18.10613805 -33.5625 16.375 C-32.38675289 14.27510348 -32.38675289 14.27510348 -31.5625 12.375 C-30.9025 12.375 -30.2425 12.375 -29.5625 12.375 C-29.33949219 11.79105469 -29.11648437 11.20710938 -28.88671875 10.60546875 C-27.16308565 7.70224014 -25.21560752 6.49373458 -22.375 4.6875 C-21.45332031 4.08550781 -20.53164063 3.48351562 -19.58203125 2.86328125 C-13.50622048 -0.13139392 -6.65978859 0.11509454 0 0 Z M0.4375 108.375 C1.4375 110.375 1.4375 110.375 1.4375 110.375 Z " fill="#984201" transform="translate(83.5625,21.625)"/>
<path d="M0 0 C10.40427933 -0.41617117 18.88139521 4.13493107 27.0625 10.3125 C29.29660307 13.41141716 29.88922169 15.76020633 30.53125 19.4765625 C31.04216014 22.22696208 31.81521703 24.82321741 32.625 27.5 C35.89181523 39.77171526 32.3077403 49.80395727 26.515625 60.82421875 C25.00335258 62.99518714 23.77247003 64.14989109 21.5625 65.5625 C19.4074482 67.00371913 17.72435014 68.27564986 15.875 70.125 C9.41290067 76.58709933 0.1442579 78.15028836 -8.6875 78.4375 C-17.92579994 78.16450059 -22.96450084 74.68389971 -29.234375 68.10546875 C-31.63926054 65.23769595 -33.32835826 62.34328348 -35 59 C-34.94779297 59.93972656 -34.94779297 59.93972656 -34.89453125 60.8984375 C-34.86746094 61.71570313 -34.84039062 62.53296875 -34.8125 63.375 C-34.76029297 64.59316406 -34.76029297 64.59316406 -34.70703125 65.8359375 C-34.80371094 66.55007812 -34.90039062 67.26421875 -35 68 C-38.6969074 70.46460494 -40.90365862 70.32556513 -45.3125 70.5 C-50.31488481 70.69909989 -54.29258786 71.33932961 -59 73 C-61.44921875 73.3359375 -61.44921875 73.3359375 -63.6875 73.375 C-64.43386719 73.40335937 -65.18023437 73.43171875 -65.94921875 73.4609375 C-68 73 -68 73 -69.3203125 70.9921875 C-70.9315365 68.61977696 -70.9315365 68.61977696 -74.35546875 68.609375 C-75.62003906 68.65578125 -76.88460937 68.7021875 -78.1875 68.75 C-79.45980469 68.78609375 -80.73210937 68.8221875 -82.04296875 68.859375 C-83.01878906 68.90578125 -83.99460938 68.9521875 -85 69 C-86 66 -86 66 -85.0625 63.625 C-82.25753753 60.05504777 -78.89146058 58.23602069 -75 56 C-74.01 55.34 -73.02 54.68 -72 54 C-70.68 54 -69.36 54 -68 54 C-67.7525 53.175 -67.505 52.35 -67.25 51.5 C-63.19206753 40.13778908 -63.19206753 40.13778908 -56.74609375 37.07421875 C-53.59193164 35.13373871 -51.99884217 32.05705273 -50 29 C-49.67 29 -49.34 29 -49 29 C-48.938125 29.78375 -48.87625 30.5675 -48.8125 31.375 C-48.544375 32.24125 -48.27625 33.1075 -48 34 C-45.52363988 35.37466625 -45.52363988 35.37466625 -43 36 C-42.896875 37.051875 -42.79375 38.10375 -42.6875 39.1875 C-42.01750713 42.90291502 -41.03743581 44.89955421 -39 48 C-39 48.66 -39 49.32 -39 50 C-38.34 50 -37.68 50 -37 50 C-37.01160156 49.34773438 -37.02320313 48.69546875 -37.03515625 48.0234375 C-37.08470994 43.2238086 -36.99413751 38.72215315 -36 34 C-35.34 34 -34.68 34 -34 34 C-34.01160156 33.21496094 -34.02320313 32.42992187 -34.03515625 31.62109375 C-34.16187595 16.86730063 -34.16187595 16.86730063 -31.25 12.1875 C-28.02176759 9.04894071 -25.48369502 8 -21 8 C-21 8.66 -21 9.32 -21 10 C-24.465 11.98 -24.465 11.98 -28 14 C-28 22.25 -28 30.5 -28 39 C-29.32 38.67 -30.64 38.34 -32 38 C-33.40053506 40.80107012 -33.2075504 43.18891681 -33.25 46.3125 C-33.28867188 48.00826172 -33.28867188 48.00826172 -33.328125 49.73828125 C-32.96877336 53.3104077 -31.93647457 55.0392323 -30 58 C-30 58.99 -30 59.98 -30 61 C-29.34 61 -28.68 61 -28 61 C-27.5875 61.70125 -27.175 62.4025 -26.75 63.125 C-24.06130352 67.54214422 -20.97970044 71.34009985 -16 73 C-14.59175107 73.08021999 -13.18002769 73.10765977 -11.76953125 73.09765625 C-10.96708984 73.09443359 -10.16464844 73.09121094 -9.33789062 73.08789062 C-8.50451172 73.07951172 -7.67113281 73.07113281 -6.8125 73.0625 C-5.5450293 73.05573242 -5.5450293 73.05573242 -4.25195312 73.04882812 C-2.16793845 73.03705403 -0.08396023 73.0191189 2 73 C2 72.34 2 71.68 2 71 C3.670625 70.690625 3.670625 70.690625 5.375 70.375 C10.07201761 69.22795648 13.76023805 66.93416427 17.80078125 64.33984375 C20 63 20 63 23 62 C23.73456678 60.02719591 23.73456678 60.02719591 24.0625 57.6875 C24.62591884 54.44113432 25.40454683 51.89300015 27 49 C26.2575 49.495 25.515 49.99 24.75 50.5 C22 52 22 52 18 52 C18 52.99 18 53.98 18 55 C6.19481629 56.88882939 -5.28483464 56.17956565 -17 54 C-17 53.34 -17 52.68 -17 52 C-18.98 51.505 -18.98 51.505 -21 51 C-21 50.34 -21 49.68 -21 49 C-21.66 49 -22.32 49 -23 49 C-23.33 47.35 -23.66 45.7 -24 44 C-22.68 44 -21.36 44 -20 44 C-20.99 41.03 -20.99 41.03 -22 38 C-22.66 38 -23.32 38 -24 38 C-26.68186728 35.48047336 -26.99662911 34.04224843 -27.29296875 30.328125 C-27.27316751 28.96843965 -27.23759202 27.6089066 -27.1875 26.25 C-27.16719727 25.20392578 -27.16719727 25.20392578 -27.14648438 24.13671875 C-27.1112945 22.42414459 -27.05749155 20.71197059 -27 19 C-26.34 19 -25.68 19 -25 19 C-24.938125 18.071875 -24.87625 17.14375 -24.8125 16.1875 C-24 13 -24 13 -21.84375 11.34375 C-18.64378347 9.8316779 -16.20880257 9.50597816 -12.6875 9.3125 C-11.61886719 9.24675781 -10.55023438 9.18101563 -9.44921875 9.11328125 C-8.23685547 9.05720703 -8.23685547 9.05720703 -7 9 C-7 8.34 -7 7.68 -7 7 C-5.68 7 -4.36 7 -3 7 C-3 6.34 -3 5.68 -3 5 C0.96 5 4.92 5 9 5 C9 5.66 9 6.32 9 7 C9.66 6.67 10.32 6.34 11 6 C11 5.34 11 4.68 11 4 C7.04 3.67 3.08 3.34 -1 3 C-0.67 2.01 -0.34 1.02 0 0 Z M-37 55 C-36 57 -36 57 -36 57 Z " fill="#7F5640" transform="translate(121,75)"/>
<path d="M0 0 C0.98484375 0.00902344 1.9696875 0.01804687 2.984375 0.02734375 C4.10585937 0.04474609 4.10585937 0.04474609 5.25 0.0625 C6.85725635 3.27701269 6.30748185 6.49862536 6.25 10.0625 C5.59 10.0625 4.93 10.0625 4.25 10.0625 C3.92 11.7125 3.59 13.3625 3.25 15.0625 C4.24 15.0625 5.23 15.0625 6.25 15.0625 C6.435625 14.0415625 6.435625 14.0415625 6.625 13 C7.34100877 9.6347588 8.27945125 6.36236575 9.25 3.0625 C17.17373906 3.24874173 17.17373906 3.24874173 20.8125 6 C22.86100788 10.36421244 22.58141661 14.32140123 22.25 19.0625 C20.93 19.0625 19.61 19.0625 18.25 19.0625 C18.25 23.3525 18.25 27.6425 18.25 32.0625 C19.57 31.7325 20.89 31.4025 22.25 31.0625 C22.91 28.7525 23.57 26.4425 24.25 24.0625 C24.58 24.0625 24.91 24.0625 25.25 24.0625 C25.375 31.6875 25.375 31.6875 24.25 35.0625 C23.59 35.0625 22.93 35.0625 22.25 35.0625 C22.023125 35.64 21.79625 36.2175 21.5625 36.8125 C19.86295453 39.72600652 18.07092802 41.22561664 15.25 43.0625 C12.4375 43.3125 12.4375 43.3125 10.25 43.0625 C10.25 41.0825 10.25 39.1025 10.25 37.0625 C10.91 37.0625 11.57 37.0625 12.25 37.0625 C12.91 33.4325 13.57 29.8025 14.25 26.0625 C14.58 26.0625 14.91 26.0625 15.25 26.0625 C15.27694851 28.02075873 15.29637218 29.97912226 15.3125 31.9375 C15.32410156 33.02804688 15.33570313 34.11859375 15.34765625 35.2421875 C15.25 38.0625 15.25 38.0625 14.25 40.0625 C14.91 40.0625 15.57 40.0625 16.25 40.0625 C16.25 34.7825 16.25 29.5025 16.25 24.0625 C13.94 23.4025 11.63 22.7425 9.25 22.0625 C9.745 25.0325 9.745 25.0325 10.25 28.0625 C10.91 28.0625 11.57 28.0625 12.25 28.0625 C12.59734012 32.2305815 11.89652221 33.88667335 9.25 37.0625 C8.92 38.0525 8.59 39.0425 8.25 40.0625 C7.59 40.0625 6.93 40.0625 6.25 40.0625 C6.25 41.3825 6.25 42.7025 6.25 44.0625 C-14.75762536 44.60736636 -14.75762536 44.60736636 -19.91796875 40.21875 C-24.75 34.89483533 -24.75 34.89483533 -24.75 32.0625 C-25.41 32.0625 -26.07 32.0625 -26.75 32.0625 C-29.43186728 29.54297336 -29.74662911 28.10474843 -30.04296875 24.390625 C-30.02316751 23.03093965 -29.98759202 21.6714066 -29.9375 20.3125 C-29.92396484 19.61511719 -29.91042969 18.91773437 -29.89648438 18.19921875 C-29.8612945 16.48664459 -29.80749155 14.77447059 -29.75 13.0625 C-29.09 13.0625 -28.43 13.0625 -27.75 13.0625 C-27.6571875 11.6703125 -27.6571875 11.6703125 -27.5625 10.25 C-26.75 7.0625 -26.75 7.0625 -24.59375 5.40625 C-21.39378347 3.8941779 -18.95880257 3.56847816 -15.4375 3.375 C-14.36886719 3.30925781 -13.30023438 3.24351563 -12.19921875 3.17578125 C-10.98685547 3.11970703 -10.98685547 3.11970703 -9.75 3.0625 C-9.75 2.4025 -9.75 1.7425 -9.75 1.0625 C-6.43929162 0.06140485 -3.44915231 -0.04106134 0 0 Z " fill="#E9AE81" transform="translate(123.75,80.9375)"/>
<path d="M0 0 C0.82435547 -0.03738281 1.64871094 -0.07476563 2.49804688 -0.11328125 C6.71579583 -0.17396829 9.53739306 -0.01114101 12.89453125 2.69140625 C15.71846609 5.67150338 17.63295989 8.72848119 19.4375 12.375 C19.98083984 13.42494141 19.98083984 13.42494141 20.53515625 14.49609375 C22.04308651 17.44169228 23.38874957 20.2287487 24.4375 23.375 C25.0975 23.705 25.7575 24.035 26.4375 24.375 C26.83227539 26.29272461 26.83227539 26.29272461 27.03515625 28.77734375 C27.11443359 29.66744141 27.19371094 30.55753906 27.27539062 31.47460938 C27.34951172 32.41111328 27.42363281 33.34761719 27.5 34.3125 C27.65409233 36.1552405 27.81148609 37.9977088 27.97265625 39.83984375 C28.07139038 41.07142212 28.07139038 41.07142212 28.17211914 42.32788086 C28.33155163 44.43686532 28.33155163 44.43686532 29.4375 46.375 C29.50685891 47.70669109 29.5220585 49.04168637 29.5 50.375 C29.49097656 51.07625 29.48195313 51.7775 29.47265625 52.5 C29.46105469 53.11875 29.44945313 53.7375 29.4375 54.375 C29.4375 55.035 29.4375 55.695 29.4375 56.375 C30.015 56.065625 30.5925 55.75625 31.1875 55.4375 C33.28044184 54.44916636 35.18285275 53.8581387 37.4375 53.375 C37.4375 54.035 37.4375 54.695 37.4375 55.375 C41.0675 56.035 44.6975 56.695 48.4375 57.375 C48.7675 58.365 49.0975 59.355 49.4375 60.375 C48.4475 60.375 47.4575 60.375 46.4375 60.375 C46.4375 59.715 46.4375 59.055 46.4375 58.375 C42.4775 58.375 38.5175 58.375 34.4375 58.375 C34.4375 59.035 34.4375 59.695 34.4375 60.375 C33.1175 60.375 31.7975 60.375 30.4375 60.375 C30.4375 61.035 30.4375 61.695 30.4375 62.375 C29.62925781 62.49617188 28.82101563 62.61734375 27.98828125 62.7421875 C26.38533203 62.99355469 26.38533203 62.99355469 24.75 63.25 C23.69425781 63.41242188 22.63851562 63.57484375 21.55078125 63.7421875 C18.5943889 64.34311041 16.11251426 64.97934038 13.4375 66.375 C12.53919161 69.42772465 12.53919161 69.42772465 12.4375 72.375 C11.7775 72.375 11.1175 72.375 10.4375 72.375 C10.55176509 74.79260876 10.67849661 77.20847218 10.8125 79.625 C10.8434375 80.30691406 10.874375 80.98882812 10.90625 81.69140625 C11.12009374 85.36239038 11.44827055 88.23751616 13.4375 91.375 C14.0975 91.375 14.7575 91.375 15.4375 91.375 C17.4375 94.375 17.4375 94.375 17.4375 97.375 C16.1175 97.375 14.7975 97.375 13.4375 97.375 C13.7675 99.025 14.0975 100.675 14.4375 102.375 C15.0975 102.375 15.7575 102.375 16.4375 102.375 C16.4375 103.035 16.4375 103.695 16.4375 104.375 C17.7575 104.705 19.0775 105.035 20.4375 105.375 C20.4375 106.035 20.4375 106.695 20.4375 107.375 C32.09708771 108.60695644 43.72829561 108.47747722 55.4375 108.375 C55.4375 107.385 55.4375 106.395 55.4375 105.375 C58.4075 104.385 61.3775 103.395 64.4375 102.375 C63.9425 104.355 63.9425 104.355 63.4375 106.375 C63.26992187 107.09558594 63.10234375 107.81617188 62.9296875 108.55859375 C61.516612 113.71900238 60.00673814 116.51251986 55.3984375 119.3125 C54.75132812 119.663125 54.10421875 120.01375 53.4375 120.375 C52.76976562 120.766875 52.10203125 121.15875 51.4140625 121.5625 C47.28380405 123.84126328 44.26320848 124.85757085 39.4375 124.375 C39.4375 125.035 39.4375 125.695 39.4375 126.375 C35.42021467 127.26773007 31.47600523 127.52386547 27.375 127.625 C26.37339844 127.65078125 25.37179688 127.6765625 24.33984375 127.703125 C19.31933917 127.13553094 16.11951766 124.34667767 12.625 120.875 C12.02042969 120.2871875 11.41585937 119.699375 10.79296875 119.09375 C9.4375 117.375 9.4375 117.375 9.4375 114.375 C8.7775 114.375 8.1175 114.375 7.4375 114.375 C3.20552394 107.63028815 2.23409092 101.30015346 3.4375 93.375 C4.96484375 91.48828125 4.96484375 91.48828125 6.4375 90.375 C6.4375 91.035 6.4375 91.695 6.4375 92.375 C7.4275 92.375 8.4175 92.375 9.4375 92.375 C9.27886475 91.81490234 9.12022949 91.25480469 8.95678711 90.67773438 C8.00577726 86.46056236 8.08474254 82.18225884 8 77.875 C7.95423828 76.92496094 7.90847656 75.97492188 7.86132812 74.99609375 C7.81813278 72.32549454 7.85015976 69.9818564 8.4375 67.375 C12.80808824 63.375 12.80808824 63.375 16.4375 63.375 C16.4375 62.715 16.4375 62.055 16.4375 61.375 C15.4475 61.045 14.4575 60.715 13.4375 60.375 C14.7575 60.375 16.0775 60.375 17.4375 60.375 C17.4375 59.715 17.4375 59.055 17.4375 58.375 C20.0775 58.375 22.7175 58.375 25.4375 58.375 C25.32921875 57.19357422 25.32921875 57.19357422 25.21875 55.98828125 C24.5462229 48.09542846 24.32084745 40.29441214 24.4375 32.375 C23.7775 32.375 23.1175 32.375 22.4375 32.375 C22.31375 31.405625 22.19 30.43625 22.0625 29.4375 C21.85625 28.426875 21.65 27.41625 21.4375 26.375 C20.7775 26.045 20.1175 25.715 19.4375 25.375 C19.4375 22.405 19.4375 19.435 19.4375 16.375 C18.7775 16.375 18.1175 16.375 17.4375 16.375 C17.19 15.59125 16.9425 14.8075 16.6875 14 C15.22969136 10.93860186 14.35756527 10.78793481 11.4375 9.375 C10.81640625 7.31640625 10.81640625 7.31640625 10.4375 5.375 C6.37513598 5.28770953 2.31301411 5.23451008 -1.75 5.1875 C-2.90048828 5.16236328 -4.05097656 5.13722656 -5.23632812 5.11132812 C-6.34814453 5.10166016 -7.45996094 5.09199219 -8.60546875 5.08203125 C-9.62664795 5.0663208 -10.64782715 5.05061035 -11.69995117 5.03442383 C-15.03185177 5.43084185 -16.82181196 6.48259962 -19.5625 8.375 C-20.614375 9.035 -21.66625 9.695 -22.75 10.375 C-25.73317202 12.24466769 -25.73317202 12.24466769 -27.5625 15.375 C-28.2225 15.375 -28.8825 15.375 -29.5625 15.375 C-29.5625 16.365 -29.5625 17.355 -29.5625 18.375 C-30.490625 18.49875 -30.490625 18.49875 -31.4375 18.625 C-33.74687567 19.18758459 -33.74687567 19.18758459 -34.8125 21.4375 C-35.06 22.076875 -35.3075 22.71625 -35.5625 23.375 C-36.2225 23.375 -36.8825 23.375 -37.5625 23.375 C-36.98485003 20.0246302 -35.97673154 18.69266228 -33.5625 16.375 C-32.38675289 14.27510348 -32.38675289 14.27510348 -31.5625 12.375 C-30.9025 12.375 -30.2425 12.375 -29.5625 12.375 C-29.33949219 11.79105469 -29.11648437 11.20710938 -28.88671875 10.60546875 C-27.16308565 7.70224014 -25.21560752 6.49373458 -22.375 4.6875 C-21.45332031 4.08550781 -20.53164063 3.48351562 -19.58203125 2.86328125 C-13.50622048 -0.13139392 -6.65978859 0.11509454 0 0 Z " fill="#974303" transform="translate(83.5625,21.625)"/>
<path d="M0 0 C0.33 0 0.66 0 1 0 C1.12375 0.804375 1.2475 1.60875 1.375 2.4375 C1.58125 3.283125 1.7875 4.12875 2 5 C2.66 5.33 3.32 5.66 4 6 C4.4140625 8.50390625 4.4140625 8.50390625 4.625 11.5625 C4.69976562 12.57441406 4.77453125 13.58632812 4.8515625 14.62890625 C4.90054688 15.41136719 4.94953125 16.19382812 5 17 C5.66 17 6.32 17 7 17 C9.39312197 21.24235259 10.60010023 25.11482984 11.47265625 29.8515625 C12.02906809 32.11842554 12.88569592 33.95633858 14 36 C13.34 36.99 12.68 37.98 12 39 C9.46109544 39.19996146 7.15400383 39.23024154 4.625 39.125 C-1.54015673 38.97955269 -7.50451241 39.19291794 -13.64453125 39.87890625 C-16 40 -16 40 -19 39 C-19 38.01 -19 37.02 -19 36 C-22.63 36 -26.26 36 -30 36 C-28 32 -28 32 -25.4375 31.0625 C-24.633125 30.711875 -23.82875 30.36125 -23 30 C-22.10613836 27.45224694 -22.10613836 27.45224694 -22 25 C-20.68 25 -19.36 25 -18 25 C-17.7525 24.175 -17.505 23.35 -17.25 22.5 C-13.19206753 11.13778908 -13.19206753 11.13778908 -6.74609375 8.07421875 C-3.59193164 6.13373871 -1.99884217 3.05705273 0 0 Z " fill="#F8C39B" transform="translate(71,104)"/>
<path d="M0 0 C2 3 2 3 2 5 C1.34 5 0.68 5 0 5 C0 5.99 0 6.98 0 8 C0.99 8 1.98 8 3 8 C3 8.66 3 9.32 3 10 C2.01 10.33 1.02 10.66 0 11 C0 13.97 0 16.94 0 20 C1.65614657 20.38218767 3.32457024 20.71395102 5 21 C6.23267348 19.99163938 6.23267348 19.99163938 6.09765625 17.93359375 C6.08605469 17.10988281 6.07445313 16.28617188 6.0625 15.4375 C6.05347656 14.61121094 6.04445313 13.78492187 6.03515625 12.93359375 C6.02355469 12.29550781 6.01195313 11.65742187 6 11 C7.32 11 8.64 11 10 11 C10.10824843 12.6026782 10.18570645 14.20745748 10.25 15.8125 C10.29640625 16.70582031 10.3428125 17.59914063 10.390625 18.51953125 C10 21 10 21 8.046875 22.63671875 C7.37140625 23.08660156 6.6959375 23.53648438 6 24 C5.67 24.99 5.34 25.98 5 27 C8.96 26.505 8.96 26.505 13 26 C13.33 23.03 13.66 20.06 14 17 C14.99 17.66 15.98 18.32 17 19 C16.67 20.65 16.34 22.3 16 24 C17.98 23.34 19.96 22.68 22 22 C22 20.35 22 18.7 22 17 C25.96 16.34 29.92 15.68 34 15 C34 13.68 34 12.36 34 11 C40.625 9.875 40.625 9.875 44 11 C44 15.29 44 19.58 44 24 C45.32 23.67 46.64 23.34 48 23 C48.66 20.69 49.32 18.38 50 16 C50.33 16 50.66 16 51 16 C51.125 23.625 51.125 23.625 50 27 C49.34 27 48.68 27 48 27 C47.773125 27.5775 47.54625 28.155 47.3125 28.75 C45.61295453 31.66350652 43.82092802 33.16311664 41 35 C38.1875 35.25 38.1875 35.25 36 35 C36 33.02 36 31.04 36 29 C36.66 29 37.32 29 38 29 C38.66 25.37 39.32 21.74 40 18 C40.33 18 40.66 18 41 18 C41.02694851 19.95825873 41.04637218 21.91662226 41.0625 23.875 C41.07410156 24.96554688 41.08570313 26.05609375 41.09765625 27.1796875 C41 30 41 30 40 32 C40.66 32 41.32 32 42 32 C42 26.72 42 21.44 42 16 C39.69 15.34 37.38 14.68 35 14 C35.495 16.97 35.495 16.97 36 20 C36.66 20 37.32 20 38 20 C38.34734012 24.1680815 37.64652221 25.82417335 35 29 C34.505 30.485 34.505 30.485 34 32 C33.34 32 32.68 32 32 32 C32 33.32 32 34.64 32 36 C10.99237464 36.54486636 10.99237464 36.54486636 5.83203125 32.15625 C1 26.83233533 1 26.83233533 1 24 C0.34 24 -0.32 24 -1 24 C-3.68186728 21.48047336 -3.99662911 20.04224843 -4.29296875 16.328125 C-4.27316751 14.96843965 -4.23759202 13.6089066 -4.1875 12.25 C-4.17396484 11.55261719 -4.16042969 10.85523437 -4.14648438 10.13671875 C-4.1112945 8.42414459 -4.05749155 6.71197059 -4 5 C-3.34 5 -2.68 5 -2 5 C-1.7834375 4.0409375 -1.7834375 4.0409375 -1.5625 3.0625 C-1 1 -1 1 0 0 Z " fill="#E3A677" transform="translate(98,89)"/>
<path d="M0 0 C0 0.66 0 1.32 0 2 C-3.465 3.98 -3.465 3.98 -7 6 C-7 14.25 -7 22.5 -7 31 C-8.32 30.67 -9.64 30.34 -11 30 C-12.40053506 32.80107012 -12.2075504 35.18891681 -12.25 38.3125 C-12.28867188 40.00826172 -12.28867188 40.00826172 -12.328125 41.73828125 C-11.96877336 45.3104077 -10.93647457 47.0392323 -9 50 C-9 50.99 -9 51.98 -9 53 C-8.34 53 -7.68 53 -7 53 C-6.5875 53.70125 -6.175 54.4025 -5.75 55.125 C-3.06130352 59.54214422 0.02029956 63.34009985 5 65 C7.39490986 65.06970052 9.79167691 65.08448003 12.1875 65.0625 C13.45980469 65.05347656 14.73210937 65.04445313 16.04296875 65.03515625 C17.01878906 65.02355469 17.99460937 65.01195312 19 65 C18.505 66.485 18.505 66.485 18 68 C18.33 68.66 18.66 69.32 19 70 C9.59467283 70.516146 3.17164329 70.39065848 -4.12109375 64.19921875 C-8.36546633 60.18848136 -11.39305411 56.21389178 -14 51 C-13.94779297 51.93972656 -13.94779297 51.93972656 -13.89453125 52.8984375 C-13.86746094 53.71570313 -13.84039062 54.53296875 -13.8125 55.375 C-13.76029297 56.59316406 -13.76029297 56.59316406 -13.70703125 57.8359375 C-13.80371094 58.55007812 -13.90039062 59.26421875 -14 60 C-17.6969074 62.46460494 -19.90365862 62.32556513 -24.3125 62.5 C-29.31488481 62.69909989 -33.29258786 63.33932961 -38 65 C-40.44921875 65.3359375 -40.44921875 65.3359375 -42.6875 65.375 C-43.43386719 65.40335937 -44.18023437 65.43171875 -44.94921875 65.4609375 C-47 65 -47 65 -48.3203125 62.9921875 C-49.9315365 60.61977696 -49.9315365 60.61977696 -53.35546875 60.609375 C-55.25232422 60.67898437 -55.25232422 60.67898437 -57.1875 60.75 C-59.09595703 60.80414063 -59.09595703 60.80414063 -61.04296875 60.859375 C-62.01878906 60.90578125 -62.99460938 60.9521875 -64 61 C-65 58 -65 58 -64.0625 55.625 C-61.2985878 52.10729356 -57.9873801 49.98945716 -54 48 C-53.34 48 -52.68 48 -52 48 C-52 48.99 -52 49.98 -52 51 C-53.96722008 52.38123963 -55.96868328 53.71488126 -58 55 C-58.33 55.66 -58.66 56.32 -59 57 C-55.37 57 -51.74 57 -48 57 C-48 57.99 -48 58.98 -48 60 C-46.62511713 60.02749766 -45.25006609 60.0466164 -43.875 60.0625 C-43.10929687 60.07410156 -42.34359375 60.08570313 -41.5546875 60.09765625 C-38.94874027 60.05740182 -38.94874027 60.05740182 -36.21875 59.5 C-32.31800871 58.89405961 -28.5634808 58.89120683 -24.625 58.9375 C-23.88894531 58.94201172 -23.15289062 58.94652344 -22.39453125 58.95117188 C-20.59631842 58.96284858 -18.79814803 58.98077989 -17 59 C-16.67 58.01 -16.34 57.02 -16 56 C-16.433125 55.29875 -16.86625 54.5975 -17.3125 53.875 C-19.55010876 50.06277768 -20.15488083 46.29474195 -21 42 C-21.32524328 40.66467019 -21.65602801 39.33062848 -22 38 C-22.66 38 -23.32 38 -24 38 C-25.60725635 34.78548731 -25.05748185 31.56387464 -25 28 C-24.01 28 -23.02 28 -22 28 C-21.8453125 29.5778125 -21.8453125 29.5778125 -21.6875 31.1875 C-21.01750713 34.90291502 -20.03743581 36.89955421 -18 40 C-18 40.66 -18 41.32 -18 42 C-17.34 42 -16.68 42 -16 42 C-16.01160156 41.34773438 -16.02320313 40.69546875 -16.03515625 40.0234375 C-16.08470994 35.2238086 -15.99413751 30.72215315 -15 26 C-14.34 26 -13.68 26 -13 26 C-13.01160156 25.21496094 -13.02320313 24.42992188 -13.03515625 23.62109375 C-13.16187595 8.86730063 -13.16187595 8.86730063 -10.25 4.1875 C-7.02176759 1.04894071 -4.48369502 0 0 0 Z M-16 47 C-15 49 -15 49 -15 49 Z " fill="#80543F" transform="translate(100,83)"/>
<path d="M0 0 C-0.25 1.875 -0.25 1.875 -1 4 C-1.65838867 4.27956543 -2.31677734 4.55913086 -2.99511719 4.84716797 C-5.19815048 5.81113674 -5.19815048 5.81113674 -5.63769531 8.06298828 C-5.73195801 9.30411377 -5.73195801 9.30411377 -5.828125 10.5703125 C-5.90546875 11.46621094 -5.9828125 12.36210938 -6.0625 13.28515625 C-6.124375 14.22230469 -6.18625 15.15945312 -6.25 16.125 C-6.32734375 17.06988281 -6.4046875 18.01476562 -6.484375 18.98828125 C-6.67317929 21.32473437 -6.84428742 23.66114637 -7 26 C-7.66 26 -8.32 26 -9 26 C-9.33 28.31 -9.66 30.62 -10 33 C-10.99 33 -11.98 33 -13 33 C-16.39517673 41.27574327 -15.78715802 51.57279108 -13 60 C-11.67799627 60.68886018 -10.34491296 61.35701372 -9 62 C-8.4609375 64.12890625 -8.4609375 64.12890625 -8.375 66.5625 C-8.31475263 68.93592047 -8.31475263 68.93592047 -8 71 C-7.34 71.33 -6.68 71.66 -6 72 C-6 72.99 -6 73.98 -6 75 C-4.68 75.33 -3.36 75.66 -2 76 C-2 76.66 -2 77.32 -2 78 C0.64 78.33 3.28 78.66 6 79 C6.66 75.7 7.32 72.4 8 69 C8.66 69 9.32 69 10 69 C10 68.34 10 67.68 10 67 C16.625 63 16.625 63 20 63 C20.33 61.35 20.66 59.7 21 58 C23.475 57.505 23.475 57.505 26 57 C26.66 59.31 27.32 61.62 28 64 C27.01 63.67 26.02 63.34 25 63 C24.3125 60.9375 24.3125 60.9375 24 59 C23.443125 59.9075 22.88625 60.815 22.3125 61.75 C19.40389409 65.83777047 16.78495698 68.40501434 12 70 C10.3025965 73.00770784 10.3025965 73.00770784 8.8125 76.5625 C8.01779297 78.35880859 8.01779297 78.35880859 7.20703125 80.19140625 C6.80871094 81.11824219 6.41039063 82.04507813 6 83 C0.25507111 82.24443112 -4.22841685 80.99773043 -8.5078125 76.96484375 C-10.87613289 73.84634858 -11.92904211 70.44474413 -13.09765625 66.73828125 C-13.91768066 64.24980891 -14.88644654 62.11267072 -16.125 59.8125 C-19.5820501 53.1025563 -21.28382918 45.53607729 -20 38 C-17.6875 35.1875 -17.6875 35.1875 -16.3046875 33.8046875 C-12.82024644 28.98489178 -12.38044381 21.76360129 -11.5859375 15.9921875 C-10.55621562 8.74375307 -8.5194505 0 0 0 Z " fill="#825540" transform="translate(47,46)"/>
<path d="M0 0 C0.82435547 -0.03738281 1.64871094 -0.07476563 2.49804688 -0.11328125 C6.71579583 -0.17396829 9.53739306 -0.01114101 12.89453125 2.69140625 C15.71846609 5.67150338 17.63295989 8.72848119 19.4375 12.375 C19.98083984 13.42494141 19.98083984 13.42494141 20.53515625 14.49609375 C22.04308651 17.44169228 23.38874957 20.2287487 24.4375 23.375 C25.0975 23.705 25.7575 24.035 26.4375 24.375 C26.83227539 26.29272461 26.83227539 26.29272461 27.03515625 28.77734375 C27.11443359 29.66744141 27.19371094 30.55753906 27.27539062 31.47460938 C27.34951172 32.41111328 27.42363281 33.34761719 27.5 34.3125 C27.65409233 36.1552405 27.81148609 37.9977088 27.97265625 39.83984375 C28.07139038 41.07142212 28.07139038 41.07142212 28.17211914 42.32788086 C28.33155163 44.43686532 28.33155163 44.43686532 29.4375 46.375 C29.5703125 48.25 29.5703125 48.25 29.5625 50.375 C29.56636719 51.426875 29.56636719 51.426875 29.5703125 52.5 C29.4375 54.375 29.4375 54.375 28.4375 56.375 C28.7675 57.365 29.0975 58.355 29.4375 59.375 C25.60760894 61.17730168 22.65628192 61.57122241 18.4375 61.375 C18.9325 60.385 18.9325 60.385 19.4375 59.375 C21.4175 59.375 23.3975 59.375 25.4375 59.375 C25.32921875 58.08529297 25.32921875 58.08529297 25.21875 56.76953125 C24.57864331 48.61706133 24.31526659 40.55105706 24.4375 32.375 C23.7775 32.375 23.1175 32.375 22.4375 32.375 C22.31375 31.405625 22.19 30.43625 22.0625 29.4375 C21.85625 28.426875 21.65 27.41625 21.4375 26.375 C20.7775 26.045 20.1175 25.715 19.4375 25.375 C19.4375 22.405 19.4375 19.435 19.4375 16.375 C18.7775 16.375 18.1175 16.375 17.4375 16.375 C17.19 15.59125 16.9425 14.8075 16.6875 14 C15.22969136 10.93860186 14.35756527 10.78793481 11.4375 9.375 C10.81640625 7.31640625 10.81640625 7.31640625 10.4375 5.375 C6.37513598 5.28770953 2.31301411 5.23451008 -1.75 5.1875 C-2.90048828 5.16236328 -4.05097656 5.13722656 -5.23632812 5.11132812 C-6.34814453 5.10166016 -7.45996094 5.09199219 -8.60546875 5.08203125 C-9.62664795 5.0663208 -10.64782715 5.05061035 -11.69995117 5.03442383 C-15.03185177 5.43084185 -16.82181196 6.48259962 -19.5625 8.375 C-20.614375 9.035 -21.66625 9.695 -22.75 10.375 C-25.73317202 12.24466769 -25.73317202 12.24466769 -27.5625 15.375 C-28.2225 15.375 -28.8825 15.375 -29.5625 15.375 C-29.5625 16.365 -29.5625 17.355 -29.5625 18.375 C-30.490625 18.49875 -30.490625 18.49875 -31.4375 18.625 C-33.74687567 19.18758459 -33.74687567 19.18758459 -34.8125 21.4375 C-35.06 22.076875 -35.3075 22.71625 -35.5625 23.375 C-36.2225 23.375 -36.8825 23.375 -37.5625 23.375 C-36.98485003 20.0246302 -35.97673154 18.69266228 -33.5625 16.375 C-32.38675289 14.27510348 -32.38675289 14.27510348 -31.5625 12.375 C-30.9025 12.375 -30.2425 12.375 -29.5625 12.375 C-29.33949219 11.79105469 -29.11648437 11.20710938 -28.88671875 10.60546875 C-27.16308565 7.70224014 -25.21560752 6.49373458 -22.375 4.6875 C-21.45332031 4.08550781 -20.53164063 3.48351562 -19.58203125 2.86328125 C-13.50622048 -0.13139392 -6.65978859 0.11509454 0 0 Z " fill="#785444" transform="translate(83.5625,21.625)"/>
<path d="M0 0 C6.875 0.875 6.875 0.875 8 2 C8.09932392 4.31074168 8.12969618 6.62462942 8.125 8.9375 C8.12886719 10.83822266 8.12886719 10.83822266 8.1328125 12.77734375 C8 16 8 16 7 18 C6.34 18 5.68 18 5 18 C5 16.02 5 14.04 5 12 C4.34 12.99 3.68 13.98 3 15 C2.34 15 1.68 15 1 15 C1 16.98 1 18.96 1 21 C5.50289035 19.74337944 8.5433334 18.16038089 12 15 C12.33 14.34 12.66 13.68 13 13 C13.66 13 14.32 13 15 13 C15 12.01 15 11.02 15 10 C15.66 10 16.32 10 17 10 C17 7.69 17 5.38 17 3 C17.33 3 17.66 3 18 3 C18.495 7.455 18.495 7.455 19 12 C18.01 12.66 17.02 13.32 16 14 C15.54625 14.763125 15.0925 15.52625 14.625 16.3125 C12.76708656 19.385203 10.66703307 21.60650878 8 24 C7.34 24 6.68 24 6 24 C6 24.99 6 25.98 6 27 C-5.80518371 28.88882939 -17.28483464 28.17956565 -29 26 C-29 25.34 -29 24.68 -29 24 C-30.32 23.67 -31.64 23.34 -33 23 C-33 22.34 -33 21.68 -33 21 C-33.66 21 -34.32 21 -35 21 C-35.33 19.35 -35.66 17.7 -36 16 C-34.68 16 -33.36 16 -32 16 C-31.67 15.34 -31.34 14.68 -31 14 C-30.54625 14.78375 -30.0925 15.5675 -29.625 16.375 C-23.26029725 22.73970275 -11.4715317 21.53614092 -3 22 C-3.33 20.35 -3.66 18.7 -4 17 C-3.01 17.33 -2.02 17.66 -1 18 C-0.814375 16.824375 -0.814375 16.824375 -0.625 15.625 C0 13 0 13 2 11 C2.64767793 8.42938689 2.64767793 8.42938689 3 6 C2.01 6.33 1.02 6.66 0 7 C0 4.69 0 2.38 0 0 Z " fill="#964508" transform="translate(133,103)"/>
<path d="M0 0 C3.39965292 1.48734815 3.58918546 2.08778106 5 5.3125 C5.680625 5.621875 6.36125 5.93125 7.0625 6.25 C7.701875 6.600625 8.34125 6.95125 9 7.3125 C10.08214887 11.15936468 10.19510468 14.95758965 10.25 18.9375 C10.28867188 20.62746094 10.28867188 20.62746094 10.328125 22.3515625 C10 25.3125 10 25.3125 8.68359375 27.19921875 C6.16270056 28.86616668 3.93951228 28.50846749 1 28.3125 C1.3125 26.4375 1.3125 26.4375 2 24.3125 C2.99 23.6525 3.98 22.9925 5 22.3125 C5.58189266 19.88728506 5.58189266 19.88728506 5.6875 17.1875 C5.75324219 16.27742188 5.81898437 15.36734375 5.88671875 14.4296875 C5.92410156 13.73101562 5.96148437 13.03234375 6 12.3125 C4.68 12.3125 3.36 12.3125 2 12.3125 C2.33 12.9725 2.66 13.6325 3 14.3125 C3.1875 17.8125 3.1875 17.8125 3 21.3125 C2.34 21.9725 1.68 22.6325 1 23.3125 C-3.55555556 22.75694444 -3.55555556 22.75694444 -5 21.3125 C-5.07179964 19.79321962 -5.08392007 18.27082518 -5.0625 16.75 C-5.05347656 15.92371094 -5.04445313 15.09742187 -5.03515625 14.24609375 C-5.02355469 13.60800781 -5.01195313 12.96992187 -5 12.3125 C-3.68 11.9825 -2.36 11.6525 -1 11.3125 C-1 10.6525 -1 9.9925 -1 9.3125 C-1.99 9.3125 -2.98 9.3125 -4 9.3125 C-4 8.3225 -4 7.3325 -4 6.3125 C-3.34 6.3125 -2.68 6.3125 -2 6.3125 C-2.7425 5.384375 -2.7425 5.384375 -3.5 4.4375 C-5 2.3125 -5 2.3125 -5 0.3125 C-3 -0.6875 -3 -0.6875 0 0 Z " fill="#BB7038" transform="translate(102,87.6875)"/>
<path d="M0 0 C3.63 0 7.26 0 11 0 C12.60725635 3.21451269 12.05748185 6.43612536 12 10 C11.34 10 10.68 10 10 10 C9.67 11.65 9.34 13.3 9 15 C9.99 15 10.98 15 12 15 C12.12375 14.319375 12.2475 13.63875 12.375 12.9375 C13.09100877 9.5722588 14.02945125 6.29986575 15 3 C22.92373906 3.18624173 22.92373906 3.18624173 26.5625 5.9375 C28.61100788 10.30171244 28.33141661 14.25890123 28 19 C26.68 18.67 25.36 18.34 24 18 C24.33 17.34 24.66 16.68 25 16 C24.34 15.67 23.68 15.34 23 15 C23.99 14.67 24.98 14.34 26 14 C26 12.68 26 11.36 26 10 C23.25002779 8.5268006 21.10380501 7.77595125 18 7 C17.01 9.97 16.02 12.94 15 16 C14.34 16 13.68 16 13 16 C13 16.66 13 17.32 13 18 C8.15758367 19.33583899 4.06562383 20.25328119 -1 20 C-1.33 19.34 -1.66 18.68 -2 18 C-1.67 17.34 -1.34 16.68 -1 16 C2.0625 15.375 2.0625 15.375 5 15 C5.33 13.68 5.66 12.36 6 11 C6.66 11 7.32 11 8 11 C8 9.35 8 7.7 8 6 C7.34 6 6.68 6 6 6 C6 4.68 6 3.36 6 2 C5.34 2 4.68 2 4 2 C4.10699219 2.60328125 4.21398437 3.2065625 4.32421875 3.828125 C4.44410156 4.62734375 4.56398438 5.4265625 4.6875 6.25 C4.81511719 7.03890625 4.94273438 7.8278125 5.07421875 8.640625 C5 11 5 11 2 15 C2 11.37 2 7.74 2 4 C0.68 3.34 -0.64 2.68 -2 2 C-1.34 2 -0.68 2 0 2 C0 1.34 0 0.68 0 0 Z " fill="#F7C198" transform="translate(118,81)"/>
<path d="M0 0 C9.59504326 -0.38380173 18.40564435 3.37805381 25.8203125 9.50390625 C26.93260159 10.61937331 27.97773837 11.80148636 29 13 C28.67 13.99 28.34 14.98 28 16 C27.67 16 27.34 16 27 16 C26.81430199 21.85753542 26.81430199 21.85753542 27.625 27.625 C28.16805114 31.06432388 27.08512057 33.7446383 26 37 C23.525 37.495 23.525 37.495 21 38 C21 33.71 21 29.42 21 25 C22.32 25 23.64 25 25 25 C24.91231752 23.4156683 24.80412671 21.83246433 24.6875 20.25 C24.62949219 19.36828125 24.57148438 18.4865625 24.51171875 17.578125 C23.9152166 14.57284697 23.16239915 13.16239915 21 11 C18.74842467 10.09956172 18.74842467 10.09956172 16.3125 9.75 C15.10013672 9.52570313 15.10013672 9.52570313 13.86328125 9.296875 C13.24839844 9.19890625 12.63351563 9.1009375 12 9 C11.87625 10.051875 11.7525 11.10375 11.625 12.1875 C11.08859218 15.45958771 10.36119965 18.00536076 9 21 C8.01 21 7.02 21 6 21 C6.33 19.35 6.66 17.7 7 16 C7.66 16 8.32 16 9 16 C8.67 12.7 8.34 9.4 8 6 C4.37 6 0.74 6 -3 6 C-3 5.67 -3 5.34 -3 5 C0.96 5 4.92 5 9 5 C9 5.66 9 6.32 9 7 C9.66 6.67 10.32 6.34 11 6 C11 5.34 11 4.68 11 4 C7.04 3.67 3.08 3.34 -1 3 C-0.67 2.01 -0.34 1.02 0 0 Z " fill="#7D523C" transform="translate(121,75)"/>
<path d="M0 0 C2.74578369 2.12798236 4.75917101 3.75284989 5.4375 7.265625 C5.49875785 9.63936651 5.54565479 11.68551425 5 14 C1.3030926 16.46460494 -0.90365862 16.32556513 -5.3125 16.5 C-10.31488481 16.69909989 -14.29258786 17.33932961 -19 19 C-21.44921875 19.3359375 -21.44921875 19.3359375 -23.6875 19.375 C-24.80705078 19.41753906 -24.80705078 19.41753906 -25.94921875 19.4609375 C-28 19 -28 19 -29.3203125 16.9921875 C-30.9315365 14.61977696 -30.9315365 14.61977696 -34.35546875 14.609375 C-35.62003906 14.65578125 -36.88460937 14.7021875 -38.1875 14.75 C-39.45980469 14.78609375 -40.73210938 14.8221875 -42.04296875 14.859375 C-43.50669922 14.92898437 -43.50669922 14.92898437 -45 15 C-46 12 -46 12 -45.0625 9.625 C-42.2985878 6.10729356 -38.9873801 3.98945716 -35 2 C-34.34 2 -33.68 2 -33 2 C-33 2.99 -33 3.98 -33 5 C-34.96722008 6.38123963 -36.96868328 7.71488126 -39 9 C-39.33 9.66 -39.66 10.32 -40 11 C-36.37 11 -32.74 11 -29 11 C-29 11.99 -29 12.98 -29 14 C-27.62511713 14.02749766 -26.25006609 14.0466164 -24.875 14.0625 C-24.10929687 14.07410156 -23.34359375 14.08570313 -22.5546875 14.09765625 C-19.94874027 14.05740182 -19.94874027 14.05740182 -17.21875 13.5 C-13.31800871 12.89405961 -9.5634808 12.89120683 -5.625 12.9375 C-4.88894531 12.94201172 -4.15289062 12.94652344 -3.39453125 12.95117188 C-1.59631842 12.96284858 0.20185197 12.98077989 2 13 C2.33 12.01 2.66 11.02 3 10 C2.525625 9.21625 2.05125 8.4325 1.5625 7.625 C-0.14700024 4.75303959 -0.28042368 3.27160958 0 0 Z " fill="#836051" transform="translate(81,129)"/>
<path d="M0 0 C3.37462715 0.54723683 5.08235 1.0549 8 3 C8 4.32 8 5.64 8 7 C7.01 7.495 7.01 7.495 6 8 C6 9.32 6 10.64 6 12 C2.7 12 -0.6 12 -4 12 C-4 13.32 -4 14.64 -4 16 C-7.65079826 17.61064629 -11.0507432 18.44894091 -15 19 C-15.33 20.65 -15.66 22.3 -16 24 C-17.98 24.33 -19.96 24.66 -22 25 C-22 20.71 -22 16.42 -22 12 C-20.02 12.0309375 -20.02 12.0309375 -18 12.0625 C-13.58020178 12.06950443 -9.37085646 11.63576094 -5 11 C-5 10.34 -5 9.68 -5 9 C-4.34 9 -3.68 9 -3 9 C-2.87625 8.443125 -2.7525 7.88625 -2.625 7.3125 C-1.94023145 4.77885636 -1.00866237 2.42078968 0 0 Z " fill="#A65415" transform="translate(136,88)"/>
<path d="M0 0 C0.87462891 0.00451172 1.74925781 0.00902344 2.65039062 0.01367188 C4.78779047 0.02535166 6.92515463 0.04328311 9.0625 0.0625 C9.7225 1.3825 10.3825 2.7025 11.0625 4.0625 C10.42223877 4.05202637 9.78197754 4.04155273 9.12231445 4.03076172 C6.20658329 3.98905185 3.29091505 3.96312637 0.375 3.9375 C-0.63240234 3.92074219 -1.63980469 3.90398438 -2.67773438 3.88671875 C-3.65419922 3.88027344 -4.63066406 3.87382812 -5.63671875 3.8671875 C-6.53221436 3.85671387 -7.42770996 3.84624023 -8.3503418 3.83544922 C-13.17189079 4.25859167 -17.02496482 6.56230889 -21.125 9 C-21.98480469 9.50402344 -22.84460938 10.00804687 -23.73046875 10.52734375 C-26.18227437 12.03282238 -26.18227437 12.03282238 -27.9375 15.0625 C-28.5975 15.0625 -29.2575 15.0625 -29.9375 15.0625 C-29.9375 16.0525 -29.9375 17.0425 -29.9375 18.0625 C-30.865625 18.18625 -30.865625 18.18625 -31.8125 18.3125 C-34.12187567 18.87508459 -34.12187567 18.87508459 -35.1875 21.125 C-35.435 21.764375 -35.6825 22.40375 -35.9375 23.0625 C-36.5975 23.0625 -37.2575 23.0625 -37.9375 23.0625 C-37.35985003 19.7121302 -36.35173154 18.38016228 -33.9375 16.0625 C-32.76175289 13.96260348 -32.76175289 13.96260348 -31.9375 12.0625 C-31.2775 12.0625 -30.6175 12.0625 -29.9375 12.0625 C-29.71449219 11.47855469 -29.49148437 10.89460938 -29.26171875 10.29296875 C-27.53808565 7.38974014 -25.59060752 6.18123458 -22.75 4.375 C-21.82832031 3.77300781 -20.90664063 3.17101562 -19.95703125 2.55078125 C-13.6757132 -0.54518534 -6.84765731 -0.06769547 0 0 Z " fill="#7C533E" transform="translate(83.9375,21.9375)"/>
<path d="M0 0 C0 4.29 0 8.58 0 13 C1.32 12.67 2.64 12.34 4 12 C4.66 9.69 5.32 7.38 6 5 C6.33 5 6.66 5 7 5 C7.125 12.625 7.125 12.625 6 16 C5.34 16 4.68 16 4 16 C3.773125 16.5775 3.54625 17.155 3.3125 17.75 C1.61295453 20.66350652 -0.17907198 22.16311664 -3 24 C-5.8125 24.25 -5.8125 24.25 -8 24 C-8 22.02 -8 20.04 -8 18 C-7.34 18 -6.68 18 -6 18 C-5.34 14.37 -4.68 10.74 -4 7 C-3.67 7 -3.34 7 -3 7 C-2.97305149 8.95825873 -2.95362782 10.91662226 -2.9375 12.875 C-2.92589844 13.96554688 -2.91429687 15.05609375 -2.90234375 16.1796875 C-3 19 -3 19 -4 21 C-3.34 21 -2.68 21 -2 21 C-2 15.72 -2 10.44 -2 5 C-4.31 4.34 -6.62 3.68 -9 3 C-9.12375 4.11375 -9.2475 5.2275 -9.375 6.375 C-10 10 -10 10 -12 12 C-13.125 6.25 -13.125 6.25 -12 4 C-11.34 4 -10.68 4 -10 4 C-10 2.68 -10 1.36 -10 0 C-6.04369799 -1.36948916 -4.66750453 -0.77791742 0 0 Z " fill="#EFB68A" transform="translate(142,100)"/>
<path d="M0 0 C2 3 2 3 2 5 C1.34 5 0.68 5 0 5 C0 5.99 0 6.98 0 8 C0.99 8 1.98 8 3 8 C3 8.66 3 9.32 3 10 C2.01 10.33 1.02 10.66 0 11 C0 13.97 0 16.94 0 20 C1.65614657 20.38218767 3.32457024 20.71395102 5 21 C6.23267348 19.99163938 6.23267348 19.99163938 6.09765625 17.93359375 C6.08605469 17.10988281 6.07445313 16.28617188 6.0625 15.4375 C6.05347656 14.61121094 6.04445313 13.78492187 6.03515625 12.93359375 C6.02355469 12.29550781 6.01195313 11.65742187 6 11 C7.32 11 8.64 11 10 11 C10.10824843 12.6026782 10.18570645 14.20745748 10.25 15.8125 C10.29640625 16.70582031 10.3428125 17.59914063 10.390625 18.51953125 C10 21 10 21 8.03125 22.6875 C7.3609375 23.120625 6.690625 23.55375 6 24 C5.20376178 26.09415804 5.20376178 26.09415804 5 28 C6.98 28 8.96 28 11 28 C11.33 29.65 11.66 31.3 12 33 C7.32197941 32.72482232 5.25361247 30.66806114 2.13671875 27.47265625 C1 26 1 26 1 24 C0.34 24 -0.32 24 -1 24 C-3.68186728 21.48047336 -3.99662911 20.04224843 -4.29296875 16.328125 C-4.27316751 14.96843965 -4.23759202 13.6089066 -4.1875 12.25 C-4.17396484 11.55261719 -4.16042969 10.85523437 -4.14648438 10.13671875 C-4.1112945 8.42414459 -4.05749155 6.71197059 -4 5 C-3.34 5 -2.68 5 -2 5 C-1.7834375 4.0409375 -1.7834375 4.0409375 -1.5625 3.0625 C-1 1 -1 1 0 0 Z " fill="#E0A373" transform="translate(98,89)"/>
<path d="M0 0 C0.99 0.33 1.98 0.66 3 1 C3.33 4.63 3.66 8.26 4 12 C4.66 12 5.32 12 6 12 C8.75702189 16.79482068 9.53328373 20.58609132 10 26 C8.68 26.33 7.36 26.66 6 27 C6 26.01 6 25.02 6 24 C6.66 24 7.32 24 8 24 C8 22.68 8 21.36 8 20 C7.34 20 6.68 20 6 20 C5.67 20.99 5.34 21.98 5 23 C4.34 23 3.68 23 3 23 C3 22.01 3 21.02 3 20 C1.68 19.67 0.36 19.34 -1 19 C-1.33 20.32 -1.66 21.64 -2 23 C-3.32 22.67 -4.64 22.34 -6 22 C-6 23.32 -6 24.64 -6 26 C-6.99 26 -7.98 26 -9 26 C-8.74438677 23.6568787 -8.40729228 21.32156597 -8 19 C-7.34 18.67 -6.68 18.34 -6 18 C-6 17.34 -6 16.68 -6 16 C-4.35 15.67 -2.7 15.34 -1 15 C-0.67 13.68 -0.34 12.36 0 11 C0.66 11 1.32 11 2 11 C2 8.03 2 5.06 2 2 C1.34 2 0.68 2 0 2 C0 1.34 0 0.68 0 0 Z " fill="#F2BC92" transform="translate(72,109)"/>
<path d="M0 0 C0.495 2.97 0.495 2.97 1 6 C0.01 5.67 -0.98 5.34 -2 5 C-2.6875 2.9375 -2.6875 2.9375 -3 1 C-3.556875 1.9075 -4.11375 2.815 -4.6875 3.75 C-7.59610591 7.83777047 -10.21504302 10.40501434 -15 12 C-16.6974035 15.00770784 -16.6974035 15.00770784 -18.1875 18.5625 C-18.71730469 19.76003906 -19.24710938 20.95757812 -19.79296875 22.19140625 C-20.19128906 23.11824219 -20.58960937 24.04507813 -21 25 C-26.96237522 24.21583274 -31.31177174 22.82326192 -35.7578125 18.6640625 C-37 17 -37 17 -37.4375 13.625 C-37.293125 12.75875 -37.14875 11.8925 -37 11 C-35 12.3125 -35 12.3125 -33 14 C-33 14.99 -33 15.98 -33 17 C-31.68 17.33 -30.36 17.66 -29 18 C-29 18.66 -29 19.32 -29 20 C-26.36 20.33 -23.72 20.66 -21 21 C-20.34 17.7 -19.68 14.4 -19 11 C-18.34 11 -17.68 11 -17 11 C-17 10.34 -17 9.68 -17 9 C-10.375 5 -10.375 5 -7 5 C-6.87625 4.195625 -6.7525 3.39125 -6.625 2.5625 C-6.315625 1.2940625 -6.315625 1.2940625 -6 0 C-3.50907189 -1.24546405 -2.58919267 -0.7767578 0 0 Z " fill="#8C5F49" transform="translate(74,104)"/>
<path d="M0 0 C6.875 0.875 6.875 0.875 8 2 C8.09932392 4.31074168 8.12969618 6.62462942 8.125 8.9375 C8.12886719 10.83822266 8.12886719 10.83822266 8.1328125 12.77734375 C8 16 8 16 7 18 C6.34 18 5.68 18 5 18 C5 16.02 5 14.04 5 12 C4.01 13.485 4.01 13.485 3 15 C2.34 15 1.68 15 1 15 C1.185625 16.134375 1.37125 17.26875 1.5625 18.4375 C1.706875 19.613125 1.85125 20.78875 2 22 C1 23 1 23 -0.76586914 23.11352539 C-1.51473389 23.10828857 -2.26359863 23.10305176 -3.03515625 23.09765625 C-3.84404297 23.09443359 -4.65292969 23.09121094 -5.48632812 23.08789062 C-6.33646484 23.07951172 -7.18660156 23.07113281 -8.0625 23.0625 C-8.91650391 23.05798828 -9.77050781 23.05347656 -10.65039062 23.04882812 C-12.76695663 23.03700373 -14.88348685 23.01906769 -17 23 C-17 22.67 -17 22.34 -17 22 C-12.38 22 -7.76 22 -3 22 C-3.33 20.35 -3.66 18.7 -4 17 C-3.01 17.33 -2.02 17.66 -1 18 C-0.87625 17.21625 -0.7525 16.4325 -0.625 15.625 C0 13 0 13 2 11 C2.64767793 8.42938689 2.64767793 8.42938689 3 6 C2.01 6.33 1.02 6.66 0 7 C0 4.69 0 2.38 0 0 Z " fill="#B76B31" transform="translate(133,103)"/>
<path d="M0 0 C0.99 0 1.98 0 3 0 C3 0.66 3 1.32 3 2 C3.99 2.33 4.98 2.66 6 3 C6 3.66 6 4.32 6 5 C7.175625 5.4640625 7.175625 5.4640625 8.375 5.9375 C11 7 11 7 13 8 C15.10528933 8.08543895 17.21331157 8.10714725 19.3203125 8.09765625 C21.20556641 8.09282227 21.20556641 8.09282227 23.12890625 8.08789062 C24.44761719 8.07951172 25.76632813 8.07113281 27.125 8.0625 C28.46484211 8.05748489 29.804686 8.05292201 31.14453125 8.04882812 C34.42973206 8.03701086 37.71484397 8.02053617 41 8 C41 8.99 41 9.98 41 11 C29.64756502 13.16236857 18.27593817 12.09784896 7 10 C7 9.34 7 8.68 7 8 C5.68 7.67 4.36 7.34 3 7 C3 6.34 3 5.68 3 5 C2.34 5 1.68 5 1 5 C0.67 3.35 0.34 1.7 0 0 Z " fill="#7D513B" transform="translate(97,119)"/>
<path d="M0 0 C6.89016211 2.7068494 9.14229376 9.13273822 11.94921875 15.4765625 C13 18 13 18 14 21 C14.66 21.33 15.32 21.66 16 22 C16 22.66 16 23.32 16 24 C15.34 24 14.68 24 14 24 C14 25.98 14 27.96 14 30 C13.34 30 12.68 30 12 30 C11.87625 29.030625 11.7525 28.06125 11.625 27.0625 C11.41875 26.051875 11.2125 25.04125 11 24 C10.34 23.67 9.68 23.34 9 23 C9 20.03 9 17.06 9 14 C8.34 14 7.68 14 7 14 C6.7525 13.21625 6.505 12.4325 6.25 11.625 C4.79219136 8.56360186 3.92006527 8.41293481 1 7 C0.67 5.68 0.34 4.36 0 3 C-6.93 2.67 -13.86 2.34 -21 2 C-21 1.67 -21 1.34 -21 1 C-14.07 1 -7.14 1 0 1 C0 0.67 0 0.34 0 0 Z " fill="#825339" transform="translate(94,24)"/>
<path d="M0 0 C0 0.99 0 1.98 0 3 C-1.96722008 4.38123963 -3.96868328 5.71488126 -6 7 C-6.33 7.66 -6.66 8.32 -7 9 C-3.37 9 0.26 9 4 9 C4 9.99 4 10.98 4 12 C8.62 12 13.24 12 18 12 C14.49947109 14.33368594 13.00385663 14.24221979 8.875 14.1875 C7.79992187 14.18105469 6.72484375 14.17460937 5.6171875 14.16796875 C3 14 3 14 2 13 C-0.35313555 12.92728259 -2.70833668 12.91629132 -5.0625 12.9375 C-6.35285156 12.94652344 -7.64320312 12.95554688 -8.97265625 12.96484375 C-9.97167969 12.97644531 -10.97070312 12.98804688 -12 13 C-13 10 -13 10 -12.0625 7.625 C-9.28201446 4.08620022 -4.74442755 0 0 0 Z " fill="#8E6A58" transform="translate(48,131)"/>
<path d="M0 0 C2.5625 1.25 2.5625 1.25 5 3 C5.33 3.99 5.66 4.98 6 6 C6.66 6.33 7.32 6.66 8 7 C6.68 7 5.36 7 4 7 C4.33 7.66 4.66 8.32 5 9 C5.1875 12.5 5.1875 12.5 5 16 C4.34 16.66 3.68 17.32 3 18 C-1.55555556 17.44444444 -1.55555556 17.44444444 -3 16 C-3.07179964 14.48071962 -3.08392007 12.95832518 -3.0625 11.4375 C-3.05347656 10.61121094 -3.04445313 9.78492187 -3.03515625 8.93359375 C-3.02355469 8.29550781 -3.01195313 7.65742187 -3 7 C-1.68 6.67 -0.36 6.34 1 6 C1 5.34 1 4.68 1 4 C0.01 4 -0.98 4 -2 4 C-2 3.01 -2 2.02 -2 1 C-1.34 0.67 -0.68 0.34 0 0 Z " fill="#C07740" transform="translate(100,93)"/>
<path d="M0 0 C4.18379423 4.04433443 4.79471262 7.94523566 5.60546875 13.4765625 C5.94680041 16.11688279 5.94680041 16.11688279 7 19 C7.06740865 20.56118428 7.08514456 22.1250252 7.0625 23.6875 C7.05347656 24.49574219 7.04445312 25.30398437 7.03515625 26.13671875 C7.02355469 26.75160156 7.01195312 27.36648437 7 28 C6.34 28 5.68 28 5 28 C4.67 28.99 4.34 29.98 4 31 C3.67 28.03 3.34 25.06 3 22 C2.34 22.66 1.68 23.32 1 24 C-2.34328358 4.68656716 -2.34328358 4.68656716 0 0 Z " fill="#955C38" transform="translate(148,89)"/>
<path d="M0 0 C3.37462715 0.54723683 5.08235 1.0549 8 3 C8 4.32 8 5.64 8 7 C7.01 7.495 7.01 7.495 6 8 C6 9.32 6 10.64 6 12 C2.7 12 -0.6 12 -4 12 C-4 13.32 -4 14.64 -4 16 C-4.66 15.67 -5.32 15.34 -6 15 C-5.67 14.01 -5.34 13.02 -5 12 C-5.66 11.67 -6.32 11.34 -7 11 C-6.34 11 -5.68 11 -5 11 C-5 10.34 -5 9.68 -5 9 C-4.34 9 -3.68 9 -3 9 C-2.814375 8.1646875 -2.814375 8.1646875 -2.625 7.3125 C-1.94023145 4.77885636 -1.00866237 2.42078968 0 0 Z " fill="#BB7037" transform="translate(136,88)"/>
<path d="M0 0 C0.66 0 1.32 0 2 0 C2 1.32 2 2.64 2 4 C2.66 4 3.32 4 4 4 C4 5.65 4 7.3 4 9 C3.34 9 2.68 9 2 9 C1.67 10.65 1.34 12.3 1 14 C-2.04303131 14.72926676 -4.86690878 15.2148106 -8 15 C-10.60243211 13.28287014 -11.36778187 11.79056648 -13 9 C-13 7.68 -13 6.36 -13 5 C-10 6 -10 6 -8.9375 8 C-8.628125 8.66 -8.31875 9.32 -8 10 C-7.34 10.33 -6.68 10.66 -6 11 C-6 10.01 -6 9.02 -6 8 C-6.66 8 -7.32 8 -8 8 C-8 7.01 -8 6.02 -8 5 C-7.01 5.33 -6.02 5.66 -5 6 C-4.34 5.01 -3.68 4.02 -3 3 C-1.03177114 4.96822886 -1.33751619 8.34808709 -1 11 C-0.30710631 7.27569643 0.11144596 3.78916254 0 0 Z " fill="#B3652A" transform="translate(122,83)"/>
<path d="M0 0 C1.98 0 3.96 0 6 0 C6 0.99 6 1.98 6 3 C5.01 3 4.02 3 3 3 C3.061875 3.928125 3.12375 4.85625 3.1875 5.8125 C3 9 3 9 1.75 10.8125 C-2.23399567 13.51592564 -6.30187698 13.09034852 -11 13 C-11.33 11.68 -11.66 10.36 -12 9 C-10.68 9 -9.36 9 -8 9 C-8 8.34 -8 7.68 -8 7 C-6.02 6.67 -4.04 6.34 -2 6 C-1.855625 5.38125 -1.71125 4.7625 -1.5625 4.125 C-1 2 -1 2 0 0 Z " fill="#B5682D" transform="translate(123,109)"/>
<path d="M0 0 C0.66 0 1.32 0 2 0 C2.66 0.66 3.32 1.32 4 2 C3.62880421 6.39772645 2.32743904 10.23549986 0.6875 14.3125 C0.27886719 15.36050781 -0.12976563 16.40851563 -0.55078125 17.48828125 C-2 20 -2 20 -4.16796875 20.85546875 C-4.77253906 20.90316406 -5.37710938 20.95085937 -6 21 C-4 12.42857143 -4 12.42857143 -2 9 C-2.78375 9.495 -3.5675 9.99 -4.375 10.5 C-7 12 -7 12 -9 12 C-7.97895872 9.53248357 -7.2325011 8.17250081 -5.0625 6.5625 C-2.60549516 4.70113269 -1.56046385 2.62441648 0 0 Z " fill="#7F513C" transform="translate(150,115)"/>
<path d="M0 0 C0.33 0.66 0.66 1.32 1 2 C3.57951874 2.69093896 3.57951874 2.69093896 6.5625 3.125 C7.57441406 3.29257813 8.58632812 3.46015625 9.62890625 3.6328125 C10.41136719 3.75398438 11.19382813 3.87515625 12 4 C12.495 5.485 12.495 5.485 13 7 C12.01 7 11.02 7 10 7 C10 6.34 10 5.68 10 5 C6.04 5 2.08 5 -2 5 C-2 5.66 -2 6.32 -2 7 C-3.32 7 -4.64 7 -6 7 C-6 7.66 -6 8.32 -6 9 C-10.67201205 10.20568053 -15.21496292 10.09382426 -20 10 C-20 9.34 -20 8.68 -20 8 C-20.99 7.67 -21.98 7.34 -23 7 C-21.68 7 -20.36 7 -19 7 C-19 6.34 -19 5.68 -19 5 C-16.36 5 -13.72 5 -11 5 C-11 5.33 -11 5.66 -11 6 C-12.98 6.33 -14.96 6.66 -17 7 C-15.54052295 6.93993922 -14.08220728 6.8511311 -12.625 6.75 C-11.81289062 6.70359375 -11.00078125 6.6571875 -10.1640625 6.609375 C-9.44992188 6.40828125 -8.73578125 6.2071875 -8 6 C-6.87915644 4.04998521 -6.87915644 4.04998521 -6 2 C-2.875 0.75 -2.875 0.75 0 0 Z " fill="#964E1B" transform="translate(120,75)"/>
<path d="M0 0 C0.66 0 1.32 0 2 0 C2.06058594 0.73605469 2.12117187 1.47210938 2.18359375 2.23046875 C2.26738281 3.20628906 2.35117188 4.18210937 2.4375 5.1875 C2.51871094 6.15042969 2.59992188 7.11335938 2.68359375 8.10546875 C2.9416771 10.97255791 2.9416771 10.97255791 3.59375 13.625 C4.18302964 17.07001945 3.08831107 19.7350668 2 23 C0.35 23.33 -1.3 23.66 -3 24 C-3 19.71 -3 15.42 -3 11 C-1.68 11 -0.36 11 1 11 C0.67 7.37 0.34 3.74 0 0 Z " fill="#CA8654" transform="translate(145,89)"/>
<path d="M0 0 C7.92373906 0.18624173 7.92373906 0.18624173 11.5625 2.9375 C13.61100788 7.30171244 13.33141661 11.25890123 13 16 C11.68 15.67 10.36 15.34 9 15 C9.33 14.34 9.66 13.68 10 13 C9.34 12.67 8.68 12.34 8 12 C8.99 11.67 9.98 11.34 11 11 C11 9.68 11 8.36 11 7 C8.36095629 5.58622659 5.92879371 4.62759865 3 4 C2.67 5.65 2.34 7.3 2 9 C1.01 8.34 0.02 7.68 -1 7 C-0.67 4.69 -0.34 2.38 0 0 Z " fill="#F2BB91" transform="translate(133,84)"/>
<path d="M0 0 C0 0.66 0 1.32 0 2 C-2.31 3.32 -4.62 4.64 -7 6 C-7 14.25 -7 22.5 -7 31 C-8.65 30.67 -10.3 30.34 -12 30 C-11.67257813 29.48953125 -11.34515625 28.9790625 -11.0078125 28.453125 C-9.64351616 25.13227963 -9.8087727 22.32627432 -9.875 18.75 C-9.89304687 17.48671875 -9.91109375 16.2234375 -9.9296875 14.921875 C-9.95289062 13.95765625 -9.97609375 12.9934375 -10 12 C-10.66 13.32 -11.32 14.64 -12 16 C-13.59385496 12.81229009 -12.75129635 10.40972958 -12 7 C-8.94792451 2.09487867 -5.80740475 0 0 0 Z " fill="#814E31" transform="translate(100,83)"/>
<path d="M0 0 C1.32 0.33 2.64 0.66 4 1 C4.34734012 5.1680815 3.64652221 6.82417335 1 10 C0.67 10.99 0.34 11.98 0 13 C-0.66 13 -1.32 13 -2 13 C-2 14.32 -2 15.64 -2 17 C-6.62 17 -11.24 17 -16 17 C-16 16.67 -16 16.34 -16 16 C-12.04 16 -8.08 16 -4 16 C-4.3403125 14.39125 -4.3403125 14.39125 -4.6875 12.75 C-5 9 -5 9 -3.6875 6.875 C-3.130625 6.25625 -2.57375 5.6375 -2 5 C-1.28837557 3.35202764 -0.60968047 1.68834592 0 0 Z " fill="#C9844F" transform="translate(132,108)"/>
<path d="M0 0 C0.88365234 0.00902344 1.76730469 0.01804687 2.67773438 0.02734375 C4.84777359 0.05080363 7.01767247 0.08667135 9.1875 0.125 C9.8475 1.445 10.5075 2.765 11.1875 4.125 C1.6175 4.125 -7.9525 4.125 -17.8125 4.125 C-11.77151519 0.0976768 -7.08409945 -0.13735018 0 0 Z " fill="#826154" transform="translate(83.8125,21.875)"/>
<path d="M0 0 C0.33 0.66 0.66 1.32 1 2 C1.99 2 2.98 2 4 2 C4 2.99 4 3.98 4 5 C4.680625 4.2575 4.680625 4.2575 5.375 3.5 C7 2 7 2 9 2 C9 3.32 9 4.64 9 6 C8.34 6 7.68 6 7 6 C7 6.99 7 7.98 7 9 C8.32 8.67 9.64 8.34 11 8 C11.99 9.65 12.98 11.3 14 13 C11.36 13.33 8.72 13.66 6 14 C6 11.69 6 9.38 6 7 C5.1028125 7.309375 5.1028125 7.309375 4.1875 7.625 C2 8 2 8 -1 6 C-1.25 3.4375 -1.25 3.4375 -1 1 C-0.67 0.67 -0.34 0.34 0 0 Z " fill="#FBC79F" transform="translate(71,127)"/>
<path d="M0 0 C0.33 0 0.66 0 1 0 C1 5.61 1 11.22 1 17 C0.34 17 -0.32 17 -1 17 C-1.33 18.32 -1.66 19.64 -2 21 C-2.66 21 -3.32 21 -4 21 C-3.91262287 18.43593328 -3.80570881 15.87517784 -3.6875 13.3125 C-3.66494141 12.59126953 -3.64238281 11.87003906 -3.61914062 11.12695312 C-3.39468163 6.65817859 -2.81529424 3.66929095 0 0 Z " fill="#7B523F" transform="translate(90,94)"/>
<path d="M0 0 C3.96 0 7.92 0 12 0 C12 0.66 12 1.32 12 2 C14.97 2.33 17.94 2.66 21 3 C20.67 3.66 20.34 4.32 20 5 C17.525 4.505 17.525 4.505 15 4 C14.87625 5.051875 14.7525 6.10375 14.625 7.1875 C14.08859218 10.45958771 13.36119965 13.00536076 12 16 C11.01 16 10.02 16 9 16 C9.33 14.35 9.66 12.7 10 11 C10.66 11 11.32 11 12 11 C11.67 7.7 11.34 4.4 11 1 C7.37 1 3.74 1 0 1 C0 0.67 0 0.34 0 0 Z " fill="#C47E49" transform="translate(118,80)"/>
<path d="M0 0 C2.31 0 4.62 0 7 0 C7.33 1.98 7.66 3.96 8 6 C9.98 6 11.96 6 14 6 C13.67 6.99 13.34 7.98 13 9 C7.39 9 1.78 9 -4 9 C-4 8.34 -4 7.68 -4 7 C-0.7 6.67 2.6 6.34 6 6 C5.67 4.68 5.34 3.36 5 2 C4.38125 2.495 3.7625 2.99 3.125 3.5 C1 5 1 5 -1 5 C-0.67 3.35 -0.34 1.7 0 0 Z " fill="#E1AC86" transform="translate(70,134)"/>
<path d="M0 0 C0.66 0 1.32 0 2 0 C1.67 2.97 1.34 5.94 1 9 C1.66 9 2.32 9 3 9 C3 7.02 3 5.04 3 3 C3.33 3 3.66 3 4 3 C4.36180905 10.35678392 4.36180905 10.35678392 2.875 13 C0.21065116 14.42098605 -2.03491085 14.19767261 -5 14 C-4.6875 12.125 -4.6875 12.125 -4 10 C-3.01 9.34 -2.02 8.68 -1 8 C-0.42251197 6.03638136 -0.42251197 6.03638136 -0.3125 3.875 C-0.209375 2.59625 -0.10625 1.3175 0 0 Z " fill="#B26429" transform="translate(108,102)"/>
<path d="M0 0 C0.99 0 1.98 0 3 0 C2.67 0.515625 2.34 1.03125 2 1.5625 C0.55718425 4.64025424 0.55718425 4.64025424 1 11 C-3.62 11 -8.24 11 -13 11 C-13 10.67 -13 10.34 -13 10 C-10.69 10 -8.38 10 -6 10 C-6 9.34 -6 8.68 -6 8 C-5.34 8 -4.68 8 -4 8 C-3.67 7.01 -3.34 6.02 -3 5 C-2.34 5 -1.68 5 -1 5 C-0.67 3.35 -0.34 1.7 0 0 Z " fill="#F6C096" transform="translate(127,113)"/>
<path d="M0 0 C0.99 0 1.98 0 3 0 C3.26554687 0.63808594 3.53109375 1.27617188 3.8046875 1.93359375 C4.15789062 2.75988281 4.51109375 3.58617187 4.875 4.4375 C5.39707031 5.67306641 5.39707031 5.67306641 5.9296875 6.93359375 C6.8244937 9.15746715 6.8244937 9.15746715 9 10 C9 10.66 9 11.32 9 12 C8.34 12 7.68 12 7 12 C7 13.98 7 15.96 7 18 C6.34 18 5.68 18 5 18 C4.87625 17.030625 4.7525 16.06125 4.625 15.0625 C4.315625 13.5465625 4.315625 13.5465625 4 12 C3.34 11.67 2.68 11.34 2 11 C2 8.03 2 5.06 2 2 C1.34 2 0.68 2 0 2 C0 1.34 0 0.68 0 0 Z " fill="#91542C" transform="translate(101,36)"/>
<path d="M0 0 C0.66 0.66 1.32 1.32 2 2 C1.625 5.625 1.625 5.625 1 9 C2.32 9 3.64 9 5 9 C4.67 9.99 4.34 10.98 4 12 C4 11.34 4 10.68 4 10 C0.37 10 -3.26 10 -7 10 C-5 6 -5 6 -2.375 4.75 C-1.59125 4.5025 -0.8075 4.255 0 4 C0 2.68 0 1.36 0 0 Z " fill="#D6A685" transform="translate(48,130)"/>
<path d="M0 0 C0.99 0 1.98 0 3 0 C3.103125 1.051875 3.20625 2.10375 3.3125 3.1875 C3.98578743 6.92118483 4.9310594 8.8965891 7 12 C7.33 12.99 7.66 13.98 8 15 C7.01 15.33 6.02 15.66 5 16 C4.34 14.02 3.68 12.04 3 10 C2.34 10 1.68 10 1 10 C-0.60725635 6.78548731 -0.05748185 3.56387464 0 0 Z " fill="#996F5A" transform="translate(75,111)"/>
<path d="M0 0 C0 0.99 0 1.98 0 3 C-2.64 3 -5.28 3 -8 3 C-8.12375 4.11375 -8.2475 5.2275 -8.375 6.375 C-9 10 -9 10 -11 12 C-12.125 6.25 -12.125 6.25 -11 4 C-10.34 4 -9.68 4 -9 4 C-9 2.68 -9 1.36 -9 0 C-5.67465243 -1.10844919 -3.37817425 -0.84454356 0 0 Z " fill="#F0B78B" transform="translate(141,100)"/>
<path d="M0 0 C2.475 0.495 2.475 0.495 5 1 C5.02692484 3.29160319 5.04636124 5.58329546 5.0625 7.875 C5.07410156 9.15117188 5.08570313 10.42734375 5.09765625 11.7421875 C5 15 5 15 4 17 C3.34 17 2.68 17 2 17 C2 15.02 2 13.04 2 11 C1.67 11 1.34 11 1 11 C0.67 7.37 0.34 3.74 0 0 Z " fill="#C27A42" transform="translate(136,104)"/>
<path d="M0 0 C2.31 0.33 4.62 0.66 7 1 C7 2.65 7 4.3 7 6 C6.67 4.68 6.34 3.36 6 2 C5.34 2 4.68 2 4 2 C4.10699219 2.60328125 4.21398437 3.2065625 4.32421875 3.828125 C4.44410156 4.62734375 4.56398438 5.4265625 4.6875 6.25 C4.81511719 7.03890625 4.94273438 7.8278125 5.07421875 8.640625 C5 11 5 11 2 15 C2 11.37 2 7.74 2 4 C0.68 3.34 -0.64 2.68 -2 2 C-1.34 2 -0.68 2 0 2 C0 1.34 0 0.68 0 0 Z " fill="#F0B88D" transform="translate(118,81)"/>
<path d="M0 0 C0.33 0.66 0.66 1.32 1 2 C2.65 2 4.3 2 6 2 C4.68 2.33 3.36 2.66 2 3 C2.33 3.99 2.66 4.98 3 6 C5.97 6 8.94 6 12 6 C12 6.66 12 7.32 12 8 C9.89807303 8.24887295 7.79326036 8.4734719 5.6875 8.6875 C4.51574219 8.81511719 3.34398438 8.94273438 2.13671875 9.07421875 C-1 9 -1 9 -2.91796875 7.51953125 C-3.27503906 7.01808594 -3.63210937 6.51664062 -4 6 C-2.35 6.33 -0.7 6.66 1 7 C0.67 5.35 0.34 3.7 0 2 C-1.98 2 -3.96 2 -6 2 C-6 1.67 -6 1.34 -6 1 C-4.02 0.67 -2.04 0.34 0 0 Z " fill="#DD9E6E" transform="translate(109,115)"/>
<path d="M0 0 C0.33 0 0.66 0 1 0 C1.33 2.97 1.66 5.94 2 9 C1.01 9.66 0.02 10.32 -1 11 C-1.61875 12.2375 -1.61875 12.2375 -2.25 13.5 C-4.64747541 16.92496486 -7.01245699 17.17239673 -11 18 C-10.21625 17.236875 -9.4325 16.47375 -8.625 15.6875 C-5.92742283 13.09108195 -5.92742283 13.09108195 -4 10 C-3.34 10 -2.68 10 -2 10 C-2 9.01 -2 8.02 -2 7 C-1.34 7 -0.68 7 0 7 C0 4.69 0 2.38 0 0 Z " fill="#A0541C" transform="translate(150,106)"/>
<path d="M0 0 C2 3 2 3 2 5 C1.34 5 0.68 5 0 5 C0 5.99 0 6.98 0 8 C0.99 8 1.98 8 3 8 C3 8.66 3 9.32 3 10 C2.360625 10.20625 1.72125 10.4125 1.0625 10.625 C-1.34925077 11.89538209 -1.34925077 11.89538209 -1.75 15.125 C-1.8325 16.07375 -1.915 17.0225 -2 18 C-2.33 18 -2.66 18 -3 18 C-3.08150744 15.93816367 -3.1394194 13.87538651 -3.1875 11.8125 C-3.22230469 10.66394531 -3.25710937 9.51539062 -3.29296875 8.33203125 C-2.97622579 4.72960801 -2.08533398 2.90633161 0 0 Z " fill="#EFB68B" transform="translate(98,89)"/>
<path d="M0 0 C0.66 0 1.32 0 2 0 C2 1.32 2 2.64 2 4 C2.66 4 3.32 4 4 4 C4 5.65 4 7.3 4 9 C3.34 9 2.68 9 2 9 C1.67 10.65 1.34 12.3 1 14 C-0.98 14 -2.96 14 -5 14 C-4.34 13.67 -3.68 13.34 -3 13 C-3 11.35 -3 9.7 -3 8 C-2.01 9.485 -2.01 9.485 -1 11 C-0.30710631 7.27569643 0.11144596 3.78916254 0 0 Z " fill="#C17942" transform="translate(122,83)"/>
<path d="M0 0 C2.34545328 2.34545328 2.95508888 3.95985838 3.09765625 7.26171875 C3.08605469 8.06222656 3.07445312 8.86273438 3.0625 9.6875 C3.05347656 10.49574219 3.04445312 11.30398437 3.03515625 12.13671875 C3.02355469 12.75160156 3.01195312 13.36648437 3 14 C2.34 14 1.68 14 1 14 C0.67 14.99 0.34 15.98 0 17 C-0.19436491 14.54203147 -0.3807742 12.08390706 -0.5625 9.625 C-0.61857422 8.92632812 -0.67464844 8.22765625 -0.73242188 7.5078125 C-1.11328125 2.2265625 -1.11328125 2.2265625 0 0 Z " fill="#785749" transform="translate(152,103)"/>
<path d="M0 0 C0.33 0 0.66 0 1 0 C1 4.29 1 8.58 1 13 C2.32 12.67 3.64 12.34 5 12 C5.66 9.69 6.32 7.38 7 5 C7.33 5 7.66 5 8 5 C8.25 12.625 8.25 12.625 6 16 C6 15.34 6 14.68 6 14 C4.35 14 2.7 14 1 14 C0.67 14.99 0.34 15.98 0 17 C-0.03867188 15.73542969 -0.03867188 15.73542969 -0.078125 14.4453125 C-0.16320312 12.80175781 -0.16320312 12.80175781 -0.25 11.125 C-0.29640625 10.03445312 -0.3428125 8.94390625 -0.390625 7.8203125 C-0.68846128 4.8667935 -0.68846128 4.8667935 -3.046875 3.6171875 C-3.69140625 3.41351563 -4.3359375 3.20984375 -5 3 C-3.35 3 -1.7 3 0 3 C0 2.01 0 1.02 0 0 Z " fill="#E3A678" transform="translate(141,100)"/>
<path d="M0 0 C0.66 0 1.32 0 2 0 C2.33 0.66 2.66 1.32 3 2 C5.02463255 2.65213292 5.02463255 2.65213292 7 3 C6.67 4.65 6.34 6.3 6 8 C4.02 8.33 2.04 8.66 0 9 C0 6.03 0 3.06 0 0 Z " fill="#BC7239" transform="translate(114,104)"/>
<path d="M0 0 C1.52634923 3.05269846 0.83794444 5.75845689 0.5625 9.125 C0.46066406 10.40632813 0.35882813 11.68765625 0.25390625 13.0078125 C0.17011719 13.99523437 0.08632813 14.98265625 0 16 C-0.66 16 -1.32 16 -2 16 C-2.33 18.31 -2.66 20.62 -3 23 C-4.32 22.67 -5.64 22.34 -7 22 C-6.67 20.68 -6.34 19.36 -6 18 C-6 18.99 -6 19.98 -6 21 C-5.71125 20.030625 -5.4225 19.06125 -5.125 18.0625 C-4 15 -4 15 -2 14 C-1.56848028 10.98688185 -1.56848028 10.98688185 -1.4375 7.5 C-1.09644087 1.09644087 -1.09644087 1.09644087 0 0 Z " fill="#854E2D" transform="translate(40,56)"/>
<path d="M0 0 C0.99 0 1.98 0 3 0 C3 0.66 3 1.32 3 2 C3.99 2.33 4.98 2.66 6 3 C6 3.66 6 4.32 6 5 C6.99 5.33 7.98 5.66 9 6 C8.67 6.99 8.34 7.98 8 9 C9.32 9.33 10.64 9.66 12 10 C11.01 10.495 11.01 10.495 10 11 C9.01 10.67 8.02 10.34 7 10 C7 9.34 7 8.68 7 8 C5.68 7.67 4.36 7.34 3 7 C3 6.34 3 5.68 3 5 C2.34 5 1.68 5 1 5 C0.67 3.35 0.34 1.7 0 0 Z " fill="#844C2B" transform="translate(97,119)"/>
<path d="M0 0 C4.82029598 3.73572939 4.82029598 3.73572939 5.33203125 7.3359375 C5.31436669 9.5758033 5.21850902 11.77120799 5 14 C3.02 14.99 3.02 14.99 1 16 C1 13 1 13 3 10 C2.2575 8.9171875 2.2575 8.9171875 1.5 7.8125 C-0.07919285 4.85151341 -0.28178312 3.28746971 0 0 Z " fill="#946C59" transform="translate(81,129)"/>
<path d="M0 0 C2.125 -0.375 2.125 -0.375 5 0 C7.23913252 1.79340357 9.12454539 3.83452663 11 6 C10.67 6.99 10.34 7.98 10 9 C9.34 9 8.68 9 8 9 C8 8.34 8 7.68 8 7 C7.4225 6.71125 6.845 6.4225 6.25 6.125 C4.16666667 5.08333333 2.08333333 4.04166667 0 3 C0 2.01 0 1.02 0 0 Z " fill="#835842" transform="translate(139,82)"/>
<path d="M0 0 C0 1.33333333 0 2.66666667 0 4 C-4.29 4 -8.58 4 -13 4 C-12.67 2.68 -12.34 1.36 -12 0 C-10.37585622 -0.19477739 -8.75063577 -0.38059458 -7.125 -0.5625 C-6.22007813 -0.66691406 -5.31515625 -0.77132812 -4.3828125 -0.87890625 C-2 -1 -2 -1 0 0 Z " fill="#835130" transform="translate(119,149)"/>
<path d="M0 0 C3.53790403 3.69172595 3.59115883 7.09390595 4 12 C2.68 12.33 1.36 12.66 0 13 C0 12.01 0 11.02 0 10 C0.66 10 1.32 10 2 10 C2 8.68 2 7.36 2 6 C0.68 5.67 -0.64 5.34 -2 5 C-2 4.01 -2 3.02 -2 2 C-1.34 2 -0.68 2 0 2 C0 1.34 0 0.68 0 0 Z M-3 6 C-2.01 6 -1.02 6 0 6 C-0.33 6.99 -0.66 7.98 -1 9 C-1.66 9 -2.32 9 -3 9 C-3 8.01 -3 7.02 -3 6 Z " fill="#E8B28A" transform="translate(78,123)"/>
<path d="M0 0 C2.64 0 5.28 0 8 0 C8 0.33 8 0.66 8 1 C6.02 1.33 4.04 1.66 2 2 C5.3 1.67 8.6 1.34 12 1 C12.33 1.99 12.66 2.98 13 4 C8.32798795 5.20568053 3.78503708 5.09382426 -1 5 C-1 4.34 -1 3.68 -1 3 C-1.99 2.67 -2.98 2.34 -4 2 C-2.68 2 -1.36 2 0 2 C0 1.34 0 0.68 0 0 Z " fill="#874B25" transform="translate(101,80)"/>
<path d="M0 0 C1.65 0.33 3.3 0.66 5 1 C5.33 2.65 5.66 4.3 6 6 C4.1875 6.625 4.1875 6.625 2 7 C1.01 6.34 0.02 5.68 -1 5 C-0.67 3.35 -0.34 1.7 0 0 Z " fill="#8C6C5D" transform="translate(44,144)"/>
<path d="M0 0 C1.4800841 0.11362262 2.95910074 0.24122908 4.4375 0.375 C5.26121094 0.44460937 6.08492187 0.51421875 6.93359375 0.5859375 C7.95646484 0.79089844 7.95646484 0.79089844 9 1 C9.33 1.66 9.66 2.32 10 3 C7.69 3.33 5.38 3.66 3 4 C2.67 5.65 2.34 7.3 2 9 C1.01 8.34 0.02 7.68 -1 7 C-0.67 4.69 -0.34 2.38 0 0 Z " fill="#ECB388" transform="translate(133,84)"/>
<path d="M0 0 C0.33 0 0.66 0 1 0 C1.04898438 0.67546875 1.09796875 1.3509375 1.1484375 2.046875 C1.22320312 2.93890625 1.29796875 3.8309375 1.375 4.75 C1.44460937 5.63171875 1.51421875 6.5134375 1.5859375 7.421875 C1.99850055 9.99066382 2.71160957 11.75841015 4 14 C0.17010894 15.80230168 -2.78121808 16.19622241 -7 16 C-6.67 15.34 -6.34 14.68 -6 14 C-4.02 14 -2.04 14 0 14 C0 9.38 0 4.76 0 0 Z " fill="#865539" transform="translate(109,67)"/>
<path d="M0 0 C0 0.99 0 1.98 0 3 C-2.64 3.33 -5.28 3.66 -8 4 C-8 3.34 -8 2.68 -8 2 C-12.29 2 -16.58 2 -21 2 C-21 1.67 -21 1.34 -21 1 C-18.62515638 0.83079995 -16.25016522 0.66457137 -13.875 0.5 C-13.20984375 0.45230469 -12.5446875 0.40460938 -11.859375 0.35546875 C-7.89764586 0.08358538 -3.97061445 -0.04947806 0 0 Z " fill="#824D2F" transform="translate(138,127)"/>
<path d="M0 0 C0.4125 0.42152344 0.825 0.84304687 1.25 1.27734375 C5.79817661 5.59202022 8.73902584 6.7803167 15 7 C15 7.33 15 7.66 15 8 C6.37757848 9.72107623 6.37757848 9.72107623 3 7.953125 C1.375 6.5625 1.375 6.5625 -1 4 C-0.67 2.68 -0.34 1.36 0 0 Z " fill="#A05116" transform="translate(101,117)"/>
<path d="M0 0 C0.66 0.66 1.32 1.32 2 2 C1.45730469 2.39832031 0.91460937 2.79664063 0.35546875 3.20703125 C-0.71767578 4.00173828 -0.71767578 4.00173828 -1.8125 4.8125 C-2.87404297 5.59560547 -2.87404297 5.59560547 -3.95703125 6.39453125 C-5.78531393 7.83128877 -7.39896688 9.31815763 -9 11 C-9.66 10.34 -10.32 9.68 -11 9 C-7.56638098 5.36440339 -4.2026393 2.63886654 0 0 Z " fill="#8E5E49" transform="translate(145,135)"/>
<path d="M0 0 C3.11094474 -0.1446951 5.4521201 -0.23376209 8.34375 1 C11.3534385 2.1330592 13.61084756 2.20214825 16.8125 2.125 C17.78832031 2.10695312 18.76414062 2.08890625 19.76953125 2.0703125 C20.50558594 2.04710937 21.24164063 2.02390625 22 2 C16.99044469 5.33970354 10.46998026 4.67086285 4.65625 3.546875 C3.08417312 3.09586934 1.53702397 2.55891781 0 2 C0 1.34 0 0.68 0 0 Z " fill="#B08C77" transform="translate(44,141)"/>
<path d="M0 0 C1.9375 0.625 1.9375 0.625 4 2 C5.34762437 6.33164977 5.01299665 8.97400671 3 13 C2.67 13 2.34 13 2 13 C1.01 9.7 0.02 6.4 -1 3 C-0.34 3 0.32 3 1 3 C0.67 2.01 0.34 1.02 0 0 Z " fill="#81533A" transform="translate(34,106)"/>
<path d="M0 0 C1.32 0.33 2.64 0.66 4 1 C3.67 1.66 3.34 2.32 3 3 C2.34 2.67 1.68 2.34 1 2 C1 4.97 1 7.94 1 11 C1.66 11 2.32 11 3 11 C3.33 8.69 3.66 6.38 4 4 C4.66 4.33 5.32 4.66 6 5 C5.67 6.98 5.34 8.96 5 11 C3.35 11.33 1.7 11.66 0 12 C0 8.04 0 4.08 0 0 Z " fill="#B4672C" transform="translate(142,101)"/>
<path d="M0 0 C0.33 0 0.66 0 1 0 C1.33 7.59 1.66 15.18 2 23 C0.35 22.67 -1.3 22.34 -3 22 C-2.67854004 21.42926758 -2.35708008 20.85853516 -2.02587891 20.27050781 C-0.95230161 17.89443242 -0.69680791 16.25885128 -0.5859375 13.671875 C-0.54726562 12.87265625 -0.50859375 12.0734375 -0.46875 11.25 C-0.4378125 10.425 -0.406875 9.6 -0.375 8.75 C-0.33632812 7.90953125 -0.29765625 7.0690625 -0.2578125 6.203125 C-0.16384164 4.13576618 -0.08084436 2.06791373 0 0 Z " fill="#864B25" transform="translate(91,91)"/>
<path d="M0 0 C3.90722957 1.7973256 5.18923126 3.64339326 7.125 7.4375 C6.795 8.4275 6.465 9.4175 6.125 10.4375 C1.25 5.8125 1.25 5.8125 0.125 2.4375 C-1.525 2.4375 -3.175 2.4375 -4.875 2.4375 C-4.875 1.7775 -4.875 1.1175 -4.875 0.4375 C-2.875 -0.5625 -2.875 -0.5625 0 0 Z " fill="#C57E47" transform="translate(101.875,87.5625)"/>
<path d="M0 0 C0.99 0 1.98 0 3 0 C3.22417836 2.7648665 3.32233508 4.46277487 1.875 6.875 C-0.92151052 8.55290631 -2.93690532 7.74875648 -6 7 C-6 6.34 -6 5.68 -6 5 C-4.34467377 3.98133771 -2.67739862 2.98189187 -1 2 C-0.67 1.34 -0.34 0.68 0 0 Z " fill="#CB8550" transform="translate(123,113)"/>
<path d="M0 0 C0.99 0.33 1.98 0.66 3 1 C2.67 1.99 2.34 2.98 2 4 C-1.3 4 -4.6 4 -8 4 C-8 5.32 -8 6.64 -8 8 C-8.66 7.67 -9.32 7.34 -10 7 C-9.67 6.01 -9.34 5.02 -9 4 C-9.66 3.67 -10.32 3.34 -11 3 C-10.34 3 -9.68 3 -9 3 C-9 2.34 -9 1.68 -9 1 C-7.700625 1.020625 -6.40125 1.04125 -5.0625 1.0625 C-3.70834367 1.08399454 -2.35243917 1.07148199 -1 1 C-0.67 0.67 -0.34 0.34 0 0 Z " fill="#D3905E" transform="translate(140,96)"/>
<path d="M0 0 C-0.66 0 -1.32 0 -2 0 C-2 0.66 -2 1.32 -2 2 C-0.68 2.33 0.64 2.66 2 3 C-0.95664519 4.4783226 -3.74229737 4.06032783 -7 4 C-7.33 2.68 -7.66 1.36 -8 0 C-4.94736336 -0.98120464 -3.05263664 -0.98120464 0 0 Z " fill="#B4662B" transform="translate(119,118)"/>
<path d="M0 0 C0.33 0 0.66 0 1 0 C1.05534912 0.55985596 1.11069824 1.11971191 1.16772461 1.6965332 C1.4207582 4.23555805 1.6790698 6.774019 1.9375 9.3125 C2.02451172 10.19357422 2.11152344 11.07464844 2.20117188 11.98242188 C2.28818359 12.82998047 2.37519531 13.67753906 2.46484375 14.55078125 C2.543396 15.33106689 2.62194824 16.11135254 2.70288086 16.9152832 C2.96337997 19.18882001 2.96337997 19.18882001 4 22 C2.68 22.33 1.36 22.66 0 23 C0 15.41 0 7.82 0 0 Z " fill="#854C30" transform="translate(85,109)"/>
<path d="M0 0 C0.33 0 0.66 0 1 0 C0.50269348 4.97306516 -0.55302334 8.63799813 -3 13 C-3.66 13 -4.32 13 -5 13 C-4.39254603 8.14036821 -2.27241033 4.2594482 0 0 Z " fill="#7F5E51" transform="translate(151,121)"/>
<path d="M0 0 C0.33 0.66 0.66 1.32 1 2 C2.98 2 4.96 2 7 2 C7.33 3.65 7.66 5.3 8 7 C5.25851328 6.62952882 3.41406801 6.31412056 1.1875 4.625 C0 3 0 3 0 0 Z " fill="#FAC59C" transform="translate(102,115)"/>
<path d="M0 0 C1.65 0 3.3 0 5 0 C3.52307692 4.67692308 3.52307692 4.67692308 0.875 6.3125 C-0.053125 6.6528125 -0.053125 6.6528125 -1 7 C-0.67 4.69 -0.34 2.38 0 0 Z " fill="#F7C097" transform="translate(142,114)"/>
<path d="M0 0 C0.33 0.99 0.66 1.98 1 3 C1.66 3 2.32 3 3 3 C3.66 5.64 4.32 8.28 5 11 C1.125 9.25 1.125 9.25 0 7 C-0.04022391 4.6670134 -0.04320247 2.33293334 0 0 Z " fill="#805F4F" transform="translate(30,98)"/>
<path d="M0 0 C1.875 0.25 1.875 0.25 4 1 C5.25 3.0625 5.25 3.0625 6 5 C5.01 5.99 4.02 6.98 3 8 C2.01 7.34 1.02 6.68 0 6 C-0.1875 2.875 -0.1875 2.875 0 0 Z " fill="#D59360" transform="translate(114,82)"/>
<path d="M0 0 C2 0 2 0 3.625 1.5 C4.07875 1.995 4.5325 2.49 5 3 C5.33 2.34 5.66 1.68 6 1 C9 5.75 9 5.75 9 8 C7.68 7.67 6.36 7.34 5 7 C5 6.34 5 5.68 5 5 C4.360625 4.731875 3.72125 4.46375 3.0625 4.1875 C1 3 1 3 0 0 Z " fill="#7B4B32" transform="translate(94,28)"/>
<path d="M0 0 C-0.66 0.66 -1.32 1.32 -2 2 C-2.99 3.485 -2.99 3.485 -4 5 C-7.125 6.1875 -7.125 6.1875 -10 7 C-10 6.34 -10 5.68 -10 5 C-8.68 4.67 -7.36 4.34 -6 4 C-6.66 3.67 -7.32 3.34 -8 3 C-8 2.34 -8 1.68 -8 1 C-4.93251126 -0.86240388 -3.40254489 -1.2151946 0 0 Z " fill="#84482F" transform="translate(71,24)"/>
<path d="M0 0 C1.32 0.33 2.64 0.66 4 1 C4 2.98 4 4.96 4 7 C2.68 6.67 1.36 6.34 0 6 C0 4.02 0 2.04 0 0 Z " fill="#F1B98E" transform="translate(99,102)"/>
<path d="M0 0 C2.31 0.66 4.62 1.32 7 2 C6.67 2.66 6.34 3.32 6 4 C4.68 3.67 3.36 3.34 2 3 C2 4.32 2 5.64 2 7 C1.01 7 0.02 7 -1 7 C-0.67 4.69 -0.34 2.38 0 0 Z " fill="#EEB589" transform="translate(64,128)"/>
<path d="M0 0 C0 0.66 0 1.32 0 2 C-6.0546875 2.9765625 -6.0546875 2.9765625 -8 3 C-8.66 2.34 -9.32 1.68 -10 1 C-6.1496895 -1.56687367 -4.41430237 -0.83288724 0 0 Z " fill="#915C43" transform="translate(126,149)"/>
<path d="M0 0 C2.64 0 5.28 0 8 0 C8.33 0.99 8.66 1.98 9 3 C2.25 3.125 2.25 3.125 0 2 C0 1.34 0 0.68 0 0 Z " fill="#92450C" transform="translate(108,125)"/>
<path d="M0 0 C0.99 0 1.98 0 3 0 C3.12375 1.0725 3.2475 2.145 3.375 3.25 C3.89643936 6.37863615 4.40088254 8.33480424 6 11 C4.078125 10.2890625 4.078125 10.2890625 2 9 C1.171875 6.8359375 1.171875 6.8359375 0.75 4.375 C0.60046875 3.55773437 0.4509375 2.74046875 0.296875 1.8984375 C0.19890625 1.27195312 0.1009375 0.64546875 0 0 Z " fill="#84553D" transform="translate(75,111)"/>
<path d="M0 0 C0.33 0 0.66 0 1 0 C1.34734012 4.1680815 0.64652221 5.82417335 -2 9 C-2.33 9.99 -2.66 10.98 -3 12 C-3.66 12 -4.32 12 -5 12 C-5 10.68 -5 9.36 -5 8 C-4.34 8 -3.68 8 -3 8 C-2.690625 7.05125 -2.38125 6.1025 -2.0625 5.125 C-1 2 -1 2 0 0 Z " fill="#E7AB7D" transform="translate(135,109)"/>
<path d="M0 0 C0.33 0.99 0.66 1.98 1 3 C3.01508358 3.73323796 3.01508358 3.73323796 5 4 C4.67 4.66 4.34 5.32 4 6 C2.02 6 0.04 6 -2 6 C-2.33 5.01 -2.66 4.02 -3 3 C-2.01 3 -1.02 3 0 3 C0 2.01 0 1.02 0 0 Z " fill="#79584B" transform="translate(38,138)"/>
<path d="M0 0 C0.33 0 0.66 0 1 0 C1 1.65 1 3.3 1 5 C1.66 5 2.32 5 3 5 C3.33 3.68 3.66 2.36 4 1 C4 1.66 4 2.32 4 3 C4.66 3 5.32 3 6 3 C6.33 2.34 6.66 1.68 7 1 C7.33 1.99 7.66 2.98 8 4 C4.77208445 6.1519437 3.71599191 6.20086443 0 6 C0 4.02 0 2.04 0 0 Z " fill="#DD9F6E" transform="translate(134,118)"/>
<path d="M0 0 C0 1.98 0 3.96 0 6 C-1.65 6 -3.3 6 -5 6 C-5 3 -5 3 -3.625 1.3125 C-2 0 -2 0 0 0 Z " fill="#EEB589" transform="translate(65,118)"/>
<path d="M0 0 C2.64 0 5.28 0 8 0 C8 0.66 8 1.32 8 2 C3.545 2.495 3.545 2.495 -1 3 C-0.67 2.01 -0.34 1.02 0 0 Z " fill="#F6C096" transform="translate(111,114)"/>
<path d="M0 0 C3 1 3 1 4.0625 2.9375 C4.371875 3.618125 4.68125 4.29875 5 5 C5.66 5.66 6.32 6.32 7 7 C6.01 7.33 5.02 7.66 4 8 C2 6.25 2 6.25 0 4 C0 2.68 0 1.36 0 0 Z " fill="#BF763E" transform="translate(109,88)"/>
<path d="M0 0 C1.32 1.32 2.64 2.64 4 4 C-0.75 7 -0.75 7 -3 7 C-1.125 1.125 -1.125 1.125 0 0 Z " fill="#E8AC7E" transform="translate(138,90)"/>
<path d="M0 0 C0.99 0 1.98 0 3 0 C3 1.98 3 3.96 3 6 C2.34 6 1.68 6 1 6 C0.67 6.99 0.34 7.98 0 9 C0 6.03 0 3.06 0 0 Z " fill="#A16A4D" transform="translate(152,111)"/>
<path d="M0 0 C0.66 0 1.32 0 2 0 C1.67 3.63 1.34 7.26 1 11 C0.34 11 -0.32 11 -1 11 C-1.125 3.375 -1.125 3.375 0 0 Z " fill="#946040" transform="translate(35,66)"/>
<path d="M0 0 C0 0.99 0 1.98 0 3 C-0.66 3 -1.32 3 -2 3 C-2 4.65 -2 6.3 -2 8 C-3.32 7.67 -4.64 7.34 -6 7 C-2.25 1.125 -2.25 1.125 0 0 Z " fill="#845E4D" transform="translate(43,48)"/>
<path d="M0 0 C0 0.99 0 1.98 0 3 C-3.465 4.485 -3.465 4.485 -7 6 C-7 5.01 -7 4.02 -7 3 C-4.66785852 1.79371992 -2.50357861 0.8345262 0 0 Z " fill="#894C19" transform="translate(120,75)"/>
<path d="M0 0 C1.65 0.33 3.3 0.66 5 1 C5.33 1.99 5.66 2.98 6 4 C3.69 4 1.38 4 -1 4 C-0.67 2.68 -0.34 1.36 0 0 Z " fill="#C99A7B" transform="translate(44,144)"/>
<path d="M0 0 C0.99 0.33 1.98 0.66 3 1 C3 2.98 3 4.96 3 7 C1.02 7.99 1.02 7.99 -1 9 C-1 6 -1 6 1 3 C0.67 2.01 0.34 1.02 0 0 Z " fill="#A4806D" transform="translate(83,136)"/>
<path d="M0 0 C1.67542976 0.28604898 3.34385343 0.61781233 5 1 C5 1.99 5 2.98 5 4 C3.35 4 1.7 4 0 4 C-0.33 3.01 -0.66 2.02 -1 1 C-0.67 0.67 -0.34 0.34 0 0 Z " fill="#FAC59B" transform="translate(136,99)"/>
<path d="M0 0 C0.33 0 0.66 0 1 0 C1 1.65 1 3.3 1 5 C1.66 5 2.32 5 3 5 C3 5.99 3 6.98 3 8 C1.0625 7.25 1.0625 7.25 -1 6 C-1.875 4 -1.875 4 -2 2 C-1.34 1.34 -0.68 0.68 0 0 Z " fill="#E3A576" transform="translate(113,86)"/>
<path d="M0 0 C0 0.66 0 1.32 0 2 C-1.32 2.33 -2.64 2.66 -4 3 C-4 3.66 -4 4.32 -4 5 C-5.32 5.33 -6.64 5.66 -8 6 C-4.61538462 0 -4.61538462 0 0 0 Z " fill="#7D5C4E" transform="translate(65,26)"/>
<path d="M0 0 C0.66 0.33 1.32 0.66 2 1 C0.9375 2.5 0.9375 2.5 -1 4 C-4.6875 4.1875 -4.6875 4.1875 -8 4 C-5.31143836 2.20762558 -3.0466145 1.01553817 0 0 Z " fill="#A0694B" transform="translate(74,22)"/>
<path d="M0 0 C0.33 0.99 0.66 1.98 1 3 C3.01508358 3.73323796 3.01508358 3.73323796 5 4 C5 4.66 5 5.32 5 6 C6.65 6 8.3 6 10 6 C10 6.33 10 6.66 10 7 C6.70985003 7.22432841 4.57722754 7.30380397 1.625 5.75 C0 4 0 4 0 0 Z " fill="#815034" transform="translate(40,118)"/>
<path d="M0 0 C0.66 0.66 1.32 1.32 2 2 C0.35 3.65 -1.3 5.3 -3 7 C-4.32 6.34 -5.64 5.68 -7 5 C-5.02 4.67 -3.04 4.34 -1 4 C-0.67 2.68 -0.34 1.36 0 0 Z " fill="#BE743C" transform="translate(122,111)"/>
<path d="M0 0 C0.33 0 0.66 0 1 0 C1.25 2.3125 1.25 2.3125 1 5 C-1 6.8125 -1 6.8125 -3 8 C-3.66 7.67 -4.32 7.34 -5 7 C-4.19152271 5.83054208 -3.37810888 4.66449539 -2.5625 3.5 C-2.11003906 2.8503125 -1.65757813 2.200625 -1.19140625 1.53125 C-0.79824219 1.0259375 -0.40507813 0.520625 0 0 Z " fill="#DFAE8A" transform="translate(71,104)"/>
<path d="M0 0 C2.86724686 0.57344937 3.8614515 0.8614515 6 3 C5.67 3.99 5.34 4.98 5 6 C4.34 6 3.68 6 3 6 C3 5.34 3 4.68 3 4 C2.34 3.67 1.68 3.34 1 3 C0.67 2.01 0.34 1.02 0 0 Z " fill="#845D4F" transform="translate(144,85)"/>
<path d="M0 0 C2.75 0.25 2.75 0.25 5 1 C3.68 1.33 2.36 1.66 1 2 C1 2.66 1 3.32 1 4 C-0.65 4 -2.3 4 -4 4 C-2.3125 1.9375 -2.3125 1.9375 0 0 Z " fill="#974507" transform="translate(117,78)"/>
<path d="M0 0 C0.99 0 1.98 0 3 0 C2.625 2.9375 2.625 2.9375 2 6 C1.01 6.495 1.01 6.495 0 7 C0 4.69 0 2.38 0 0 Z " fill="#AD5C1F" transform="translate(133,103)"/>
<path d="M0 0 C0 0.66 0 1.32 0 2 C-2.3125 2.625 -2.3125 2.625 -5 3 C-5.99 2.34 -6.98 1.68 -8 1 C-2.25 -1.125 -2.25 -1.125 0 0 Z " fill="#9F5722" transform="translate(114,82)"/>
</svg>
