<svg xmlns="http://www.w3.org/2000/svg" version="1.1" width="160" height="172">
  <defs/>
  <path fill="#984201" d="M83.562,21.625 C84.387,21.588 85.211,21.55 86.061,21.512 C90.278,21.451 93.1,21.614 96.457,24.316 C99.281,27.297 101.195,30.353 103,34 C103.543,35.05 103.543,35.05 104.098,36.121 C105.606,39.067 106.951,41.854 108,45 C108.66,45.33 109.32,45.66 110,46 C110.395,47.918 110.395,47.918 110.598,50.402 C110.677,51.292 110.756,52.183 110.838,53.1 C110.912,54.036 110.986,54.973 111.062,55.938 C111.217,57.78 111.374,59.623 111.535,61.465 C111.634,62.696 111.634,62.696 111.735,63.953 C111.894,66.062 111.894,66.062 113,68 C113.069,69.332 113.085,70.667 113.062,72 C113.053,72.701 113.044,73.402 113.035,74.125 C113.024,74.744 113.012,75.363 113,76 C113,76.66 113,77.32 113,78 C113.598,77.691 114.196,77.381 114.812,77.062 C120.082,74.503 125.179,74.373 130.812,75.625 C145.712,82.052 145.712,82.052 150,88 C150.702,90.15 151.146,92.247 151.531,94.477 C152.042,97.227 152.815,99.823 153.625,102.5 C156.892,114.772 153.308,124.804 147.516,135.824 C146.003,137.995 144.772,139.15 142.562,140.562 C140.407,142.004 138.724,143.276 136.875,145.125 C130.413,151.587 121.144,153.15 112.312,153.438 C103.074,153.165 98.035,149.684 91.766,143.105 C89.361,140.238 87.672,137.343 86,134 C86.035,134.626 86.07,135.253 86.105,135.898 C86.133,136.716 86.16,137.533 86.188,138.375 C86.24,139.593 86.24,139.593 86.293,140.836 C86.196,141.55 86.1,142.264 86,143 C82.303,145.465 80.096,145.326 75.688,145.5 C70.685,145.699 66.707,146.339 62,148 C59.551,148.336 59.551,148.336 57.312,148.375 C56.566,148.403 55.82,148.432 55.051,148.461 C53,148 53,148 51.68,145.992 C50.068,143.62 50.068,143.62 46.645,143.609 C45.38,143.656 44.115,143.702 42.812,143.75 C41.54,143.786 40.268,143.822 38.957,143.859 C37.981,143.906 37.005,143.952 36,144 C35,141 35,141 35.938,138.625 C38.323,135.589 40.734,134.09 44.062,132.211 C46.009,130.994 47.446,129.68 49,128 C47.453,127.722 47.453,127.722 45.875,127.438 C41.114,126.05 38.567,123.142 36,119 C35.083,116.776 34.377,114.569 33.715,112.258 C32.994,109.981 32.063,108.04 30.938,105.938 C27.456,99.175 25.705,91.603 27,84 C29.312,81.188 29.312,81.188 30.695,79.805 C34.18,74.985 34.62,67.764 35.414,61.992 C36.361,55.324 38.22,50.858 43,46 C43.66,45.67 44.32,45.34 45,45 C45.464,44.072 45.464,44.072 45.938,43.125 C47.043,40.914 48.269,39.731 50,38 C51.176,35.9 51.176,35.9 52,34 C52.66,34 53.32,34 54,34 C54.223,33.416 54.446,32.832 54.676,32.23 C56.399,29.327 58.347,28.119 61.188,26.312 C62.109,25.711 63.031,25.109 63.98,24.488 C70.056,21.494 76.903,21.74 83.562,21.625 Z"/>
  <path fill="#7F5640" d="M121,75 C131.404,74.584 139.881,79.135 148.062,85.312 C150.297,88.411 150.889,90.76 151.531,94.477 C152.042,97.227 152.815,99.823 153.625,102.5 C156.892,114.772 153.308,124.804 147.516,135.824 C146.003,137.995 144.772,139.15 142.562,140.562 C140.407,142.004 138.724,143.276 136.875,145.125 C130.413,151.587 121.144,153.15 112.312,153.438 C103.074,153.164 98.035,149.684 91.766,143.105 C89.361,140.238 87.672,137.343 86,134 C86.052,134.94 86.052,134.94 86.105,135.898 C86.133,136.716 86.16,137.533 86.188,138.375 C86.24,139.593 86.24,139.593 86.293,140.836 C86.196,141.55 86.1,142.264 86,143 C82.303,145.465 80.096,145.326 75.688,145.5 C70.685,145.699 66.707,146.339 62,148 C59.551,148.336 59.551,148.336 57.312,148.375 C56.566,148.403 55.82,148.432 55.051,148.461 C53,148 53,148 51.68,145.992 C50.068,143.62 50.068,143.62 46.645,143.609 C45.38,143.656 44.115,143.702 42.812,143.75 C41.54,143.786 40.268,143.822 38.957,143.859 C37.981,143.906 37.005,143.952 36,144 C35,141 35,141 35.938,138.625 C38.742,135.055 42.109,133.236 46,131 C46.99,130.34 47.98,129.68 49,129 C50.32,129 51.64,129 53,129 C53.247,128.175 53.495,127.35 53.75,126.5 C57.808,115.138 57.808,115.138 64.254,112.074 C67.408,110.134 69.001,107.057 71,104 C71.33,104 71.66,104 72,104 C72.062,104.784 72.124,105.567 72.188,106.375 C72.456,107.241 72.724,108.107 73,109 C75.476,110.375 75.476,110.375 78,111 C78.103,112.052 78.206,113.104 78.312,114.188 C78.982,117.903 79.963,119.9 82,123 C82,123.66 82,124.32 82,125 C82.66,125 83.32,125 84,125 C83.988,124.348 83.977,123.695 83.965,123.023 C83.915,118.224 84.006,113.722 85,109 C85.66,109 86.32,109 87,109 C86.988,108.215 86.977,107.43 86.965,106.621 C86.838,91.867 86.838,91.867 89.75,87.188 C92.978,84.049 95.516,83 100,83 C100,83.66 100,84.32 100,85 C96.535,86.98 96.535,86.98 93,89 C93,97.25 93,105.5 93,114 C91.68,113.67 90.36,113.34 89,113 C87.599,115.801 87.792,118.189 87.75,121.312 C87.711,123.008 87.711,123.008 87.672,124.738 C88.031,128.31 89.064,130.039 91,133 C91,133.99 91,134.98 91,136 C91.66,136 92.32,136 93,136 C93.412,136.701 93.825,137.402 94.25,138.125 C96.939,142.542 100.02,146.34 105,148 C106.408,148.08 107.82,148.108 109.23,148.098 C110.033,148.094 110.835,148.091 111.662,148.088 C112.495,148.08 113.329,148.071 114.188,148.062 C115.455,148.056 115.455,148.056 116.748,148.049 C118.832,148.037 120.916,148.019 123,148 C123,147.34 123,146.68 123,146 C124.671,145.691 124.671,145.691 126.375,145.375 C131.072,144.228 134.76,141.934 138.801,139.34 C141,138 141,138 144,137 C144.735,135.027 144.735,135.027 145.062,132.688 C145.626,129.441 146.405,126.893 148,124 C147.258,124.495 146.515,124.99 145.75,125.5 C143,127 143,127 139,127 C139,127.99 139,128.98 139,130 C127.195,131.889 115.715,131.18 104,129 C104,128.34 104,127.68 104,127 C102.02,126.505 102.02,126.505 100,126 C100,125.34 100,124.68 100,124 C99.34,124 98.68,124 98,124 C97.67,122.35 97.34,120.7 97,119 C98.32,119 99.64,119 101,119 C100.01,116.03 100.01,116.03 99,113 C98.34,113 97.68,113 97,113 C94.318,110.48 94.003,109.042 93.707,105.328 C93.727,103.968 93.762,102.609 93.812,101.25 C93.833,100.204 93.833,100.204 93.854,99.137 C93.889,97.424 93.943,95.712 94,94 C94.66,94 95.32,94 96,94 C96.062,93.072 96.124,92.144 96.188,91.188 C97,88 97,88 99.156,86.344 C102.356,84.832 104.791,84.506 108.312,84.312 C109.381,84.247 110.45,84.181 111.551,84.113 C112.763,84.057 112.763,84.057 114,84 C114,83.34 114,82.68 114,82 C115.32,82 116.64,82 118,82 C118,81.34 118,80.68 118,80 C121.96,80 125.92,80 130,80 C130,80.66 130,81.32 130,82 C130.66,81.67 131.32,81.34 132,81 C132,80.34 132,79.68 132,79 C128.04,78.67 124.08,78.34 120,78 C120.33,77.01 120.66,76.02 121,75 Z"/>
  <path fill="#E9AE81" d="M123.75,80.938 C124.735,80.947 125.72,80.956 126.734,80.965 C127.856,80.982 127.856,80.982 129,81 C130.607,84.215 130.057,87.436 130,91 C129.34,91 128.68,91 128,91 C127.67,92.65 127.34,94.3 127,96 C127.99,96 128.98,96 130,96 C130.186,94.979 130.186,94.979 130.375,93.938 C131.091,90.572 132.029,87.3 133,84 C140.924,84.186 140.924,84.186 144.562,86.938 C146.611,91.302 146.331,95.259 146,100 C144.68,100 143.36,100 142,100 C142,104.29 142,108.58 142,113 C143.32,112.67 144.64,112.34 146,112 C146.66,109.69 147.32,107.38 148,105 C148.33,105 148.66,105 149,105 C149.125,112.625 149.125,112.625 148,116 C147.34,116 146.68,116 146,116 C145.773,116.577 145.546,117.155 145.312,117.75 C143.613,120.664 141.821,122.163 139,124 C136.188,124.25 136.188,124.25 134,124 C134,122.02 134,120.04 134,118 C134.66,118 135.32,118 136,118 C136.66,114.37 137.32,110.74 138,107 C138.33,107 138.66,107 139,107 C139.027,108.958 139.046,110.917 139.062,112.875 C139.074,113.966 139.086,115.056 139.098,116.18 C139,119 139,119 138,121 C138.66,121 139.32,121 140,121 C140,115.72 140,110.44 140,105 C137.69,104.34 135.38,103.68 133,103 C133.495,105.97 133.495,105.97 134,109 C134.66,109 135.32,109 136,109 C136.347,113.168 135.647,114.824 133,118 C132.67,118.99 132.34,119.98 132,121 C131.34,121 130.68,121 130,121 C130,122.32 130,123.64 130,125 C108.992,125.545 108.992,125.545 103.832,121.156 C99,115.832 99,115.832 99,113 C98.34,113 97.68,113 97,113 C94.318,110.48 94.003,109.042 93.707,105.328 C93.727,103.968 93.762,102.609 93.812,101.25 C93.826,100.553 93.84,99.855 93.854,99.137 C93.889,97.424 93.943,95.712 94,94 C94.66,94 95.32,94 96,94 C96.093,92.608 96.093,92.608 96.188,91.188 C97,88 97,88 99.156,86.344 C102.356,84.832 104.791,84.506 108.312,84.312 C109.381,84.247 110.45,84.181 111.551,84.113 C112.763,84.057 112.763,84.057 114,84 C114,83.34 114,82.68 114,82 C117.311,80.999 120.301,80.896 123.75,80.938 Z"/>
  <path fill="#974303" d="M83.562,21.625 C84.387,21.588 85.211,21.55 86.061,21.512 C90.278,21.451 93.1,21.614 96.457,24.316 C99.281,27.297 101.195,30.353 103,34 C103.543,35.05 103.543,35.05 104.098,36.121 C105.606,39.067 106.951,41.854 108,45 C108.66,45.33 109.32,45.66 110,46 C110.395,47.918 110.395,47.918 110.598,50.402 C110.677,51.292 110.756,52.183 110.838,53.1 C110.912,54.036 110.986,54.973 111.062,55.938 C111.217,57.78 111.374,59.623 111.535,61.465 C111.634,62.696 111.634,62.696 111.735,63.953 C111.894,66.062 111.894,66.062 113,68 C113.069,69.332 113.085,70.667 113.062,72 C113.053,72.701 113.044,73.402 113.035,74.125 C113.024,74.744 113.012,75.363 113,76 C113,76.66 113,77.32 113,78 C113.577,77.691 114.155,77.381 114.75,77.062 C116.843,76.074 118.745,75.483 121,75 C121,75.66 121,76.32 121,77 C124.63,77.66 128.26,78.32 132,79 C132.33,79.99 132.66,80.98 133,82 C132.01,82 131.02,82 130,82 C130,81.34 130,80.68 130,80 C126.04,80 122.08,80 118,80 C118,80.66 118,81.32 118,82 C116.68,82 115.36,82 114,82 C114,82.66 114,83.32 114,84 C113.192,84.121 112.384,84.242 111.551,84.367 C109.948,84.619 109.948,84.619 108.312,84.875 C107.257,85.037 106.201,85.2 105.113,85.367 C102.157,85.968 99.675,86.604 97,88 C96.102,91.053 96.102,91.053 96,94 C95.34,94 94.68,94 94,94 C94.114,96.418 94.241,98.833 94.375,101.25 C94.406,101.932 94.437,102.614 94.469,103.316 C94.683,106.987 95.011,109.863 97,113 C97.66,113 98.32,113 99,113 C101,116 101,116 101,119 C99.68,119 98.36,119 97,119 C97.33,120.65 97.66,122.3 98,124 C98.66,124 99.32,124 100,124 C100,124.66 100,125.32 100,126 C101.32,126.33 102.64,126.66 104,127 C104,127.66 104,128.32 104,129 C115.66,130.232 127.291,130.102 139,130 C139,129.01 139,128.02 139,127 C141.97,126.01 144.94,125.02 148,124 C147.505,125.98 147.505,125.98 147,128 C146.832,128.721 146.665,129.441 146.492,130.184 C145.079,135.344 143.569,138.138 138.961,140.938 C138.314,141.288 137.667,141.639 137,142 C136.332,142.392 135.665,142.784 134.977,143.188 C130.846,145.466 127.826,146.483 123,146 C123,146.66 123,147.32 123,148 C118.983,148.893 115.039,149.149 110.938,149.25 C109.936,149.276 108.934,149.302 107.902,149.328 C102.882,148.761 99.682,145.972 96.188,142.5 C95.583,141.912 94.978,141.324 94.355,140.719 C93,139 93,139 93,136 C92.34,136 91.68,136 91,136 C86.768,129.255 85.797,122.925 87,115 C88.527,113.113 88.527,113.113 90,112 C90,112.66 90,113.32 90,114 C90.99,114 91.98,114 93,114 C92.841,113.44 92.683,112.88 92.519,112.303 C91.568,108.086 91.647,103.807 91.562,99.5 C91.517,98.55 91.471,97.6 91.424,96.621 C91.381,93.95 91.413,91.607 92,89 C96.371,85 96.371,85 100,85 C100,84.34 100,83.68 100,83 C99.01,82.67 98.02,82.34 97,82 C98.32,82 99.64,82 101,82 C101,81.34 101,80.68 101,80 C103.64,80 106.28,80 109,80 C108.892,78.819 108.892,78.819 108.781,77.613 C108.109,69.72 107.883,61.919 108,54 C107.34,54 106.68,54 106,54 C105.876,53.031 105.753,52.061 105.625,51.062 C105.419,50.052 105.213,49.041 105,48 C104.34,47.67 103.68,47.34 103,47 C103,44.03 103,41.06 103,38 C102.34,38 101.68,38 101,38 C100.753,37.216 100.505,36.432 100.25,35.625 C98.792,32.564 97.92,32.413 95,31 C94.379,28.941 94.379,28.941 94,27 C89.938,26.913 85.876,26.86 81.812,26.812 C80.662,26.787 79.512,26.762 78.326,26.736 C77.214,26.727 76.103,26.717 74.957,26.707 C73.936,26.691 72.915,26.676 71.863,26.659 C68.531,27.056 66.741,28.108 64,30 C62.948,30.66 61.896,31.32 60.812,32 C57.829,33.87 57.829,33.87 56,37 C55.34,37 54.68,37 54,37 C54,37.99 54,38.98 54,40 C53.072,40.124 53.072,40.124 52.125,40.25 C49.816,40.813 49.816,40.813 48.75,43.062 C48.502,43.702 48.255,44.341 48,45 C47.34,45 46.68,45 46,45 C46.578,41.65 47.586,40.318 50,38 C51.176,35.9 51.176,35.9 52,34 C52.66,34 53.32,34 54,34 C54.223,33.416 54.446,32.832 54.676,32.23 C56.399,29.327 58.347,28.119 61.188,26.312 C62.109,25.711 63.031,25.109 63.98,24.488 C70.056,21.494 76.903,21.74 83.562,21.625 Z"/>
  <path fill="#F8C39B" d="M71,104 C71.33,104 71.66,104 72,104 C72.124,104.804 72.247,105.609 72.375,106.438 C72.581,107.283 72.787,108.129 73,109 C73.66,109.33 74.32,109.66 75,110 C75.414,112.504 75.414,112.504 75.625,115.562 C75.7,116.574 75.775,117.586 75.852,118.629 C75.901,119.411 75.95,120.194 76,121 C76.66,121 77.32,121 78,121 C80.393,125.242 81.6,129.115 82.473,133.852 C83.029,136.118 83.886,137.956 85,140 C84.34,140.99 83.68,141.98 83,143 C80.461,143.2 78.154,143.23 75.625,143.125 C69.46,142.98 63.495,143.193 57.355,143.879 C55,144 55,144 52,143 C52,142.01 52,141.02 52,140 C48.37,140 44.74,140 41,140 C43,136 43,136 45.562,135.062 C46.367,134.712 47.171,134.361 48,134 C48.894,131.452 48.894,131.452 49,129 C50.32,129 51.64,129 53,129 C53.247,128.175 53.495,127.35 53.75,126.5 C57.808,115.138 57.808,115.138 64.254,112.074 C67.408,110.134 69.001,107.057 71,104 Z"/>
  <path fill="#E3A677" d="M98,89 C100,92 100,92 100,94 C99.34,94 98.68,94 98,94 C98,94.99 98,95.98 98,97 C98.99,97 99.98,97 101,97 C101,97.66 101,98.32 101,99 C100.01,99.33 99.02,99.66 98,100 C98,102.97 98,105.94 98,109 C99.656,109.382 101.325,109.714 103,110 C104.233,108.992 104.233,108.992 104.098,106.934 C104.086,106.11 104.074,105.286 104.062,104.438 C104.053,103.611 104.044,102.785 104.035,101.934 C104.024,101.296 104.012,100.657 104,100 C105.32,100 106.64,100 108,100 C108.108,101.603 108.186,103.207 108.25,104.812 C108.296,105.706 108.343,106.599 108.391,107.52 C108,110 108,110 106.047,111.637 C105.371,112.087 104.696,112.536 104,113 C103.67,113.99 103.34,114.98 103,116 C106.96,115.505 106.96,115.505 111,115 C111.33,112.03 111.66,109.06 112,106 C112.99,106.66 113.98,107.32 115,108 C114.67,109.65 114.34,111.3 114,113 C115.98,112.34 117.96,111.68 120,111 C120,109.35 120,107.7 120,106 C123.96,105.34 127.92,104.68 132,104 C132,102.68 132,101.36 132,100 C138.625,98.875 138.625,98.875 142,100 C142,104.29 142,108.58 142,113 C143.32,112.67 144.64,112.34 146,112 C146.66,109.69 147.32,107.38 148,105 C148.33,105 148.66,105 149,105 C149.125,112.625 149.125,112.625 148,116 C147.34,116 146.68,116 146,116 C145.773,116.577 145.546,117.155 145.312,117.75 C143.613,120.664 141.821,122.163 139,124 C136.188,124.25 136.188,124.25 134,124 C134,122.02 134,120.04 134,118 C134.66,118 135.32,118 136,118 C136.66,114.37 137.32,110.74 138,107 C138.33,107 138.66,107 139,107 C139.027,108.958 139.046,110.917 139.062,112.875 C139.074,113.966 139.086,115.056 139.098,116.18 C139,119 139,119 138,121 C138.66,121 139.32,121 140,121 C140,115.72 140,110.44 140,105 C137.69,104.34 135.38,103.68 133,103 C133.495,105.97 133.495,105.97 134,109 C134.66,109 135.32,109 136,109 C136.347,113.168 135.647,114.824 133,118 C132.505,119.485 132.505,119.485 132,121 C131.34,121 130.68,121 130,121 C130,122.32 130,123.64 130,125 C108.992,125.545 108.992,125.545 103.832,121.156 C99,115.832 99,115.832 99,113 C98.34,113 97.68,113 97,113 C94.318,110.48 94.003,109.042 93.707,105.328 C93.727,103.968 93.762,102.609 93.812,101.25 C93.826,100.553 93.84,99.855 93.854,99.137 C93.889,97.424 93.943,95.712 94,94 C94.66,94 95.32,94 96,94 C96.217,93.041 96.217,93.041 96.438,92.062 C97,90 97,90 98,89 Z"/>
  <path fill="#80543F" d="M100,83 C100,83.66 100,84.32 100,85 C96.535,86.98 96.535,86.98 93,89 C93,97.25 93,105.5 93,114 C91.68,113.67 90.36,113.34 89,113 C87.599,115.801 87.792,118.189 87.75,121.312 C87.711,123.008 87.711,123.008 87.672,124.738 C88.031,128.31 89.064,130.039 91,133 C91,133.99 91,134.98 91,136 C91.66,136 92.32,136 93,136 C93.412,136.701 93.825,137.402 94.25,138.125 C96.939,142.542 100.02,146.34 105,148 C107.395,148.07 109.792,148.084 112.188,148.062 C113.46,148.053 114.732,148.044 116.043,148.035 C117.019,148.024 117.995,148.012 119,148 C118.505,149.485 118.505,149.485 118,151 C118.33,151.66 118.66,152.32 119,153 C109.595,153.516 103.172,153.391 95.879,147.199 C91.635,143.188 88.607,139.214 86,134 C86.052,134.94 86.052,134.94 86.105,135.898 C86.133,136.716 86.16,137.533 86.188,138.375 C86.24,139.593 86.24,139.593 86.293,140.836 C86.196,141.55 86.1,142.264 86,143 C82.303,145.465 80.096,145.326 75.688,145.5 C70.685,145.699 66.707,146.339 62,148 C59.551,148.336 59.551,148.336 57.312,148.375 C56.566,148.403 55.82,148.432 55.051,148.461 C53,148 53,148 51.68,145.992 C50.068,143.62 50.068,143.62 46.645,143.609 C44.748,143.679 44.748,143.679 42.812,143.75 C40.904,143.804 40.904,143.804 38.957,143.859 C37.981,143.906 37.005,143.952 36,144 C35,141 35,141 35.938,138.625 C38.701,135.107 42.013,132.989 46,131 C46.66,131 47.32,131 48,131 C48,131.99 48,132.98 48,134 C46.033,135.381 44.031,136.715 42,138 C41.67,138.66 41.34,139.32 41,140 C44.63,140 48.26,140 52,140 C52,140.99 52,141.98 52,143 C53.375,143.027 54.75,143.047 56.125,143.062 C56.891,143.074 57.656,143.086 58.445,143.098 C61.051,143.057 61.051,143.057 63.781,142.5 C67.682,141.894 71.437,141.891 75.375,141.938 C76.111,141.942 76.847,141.947 77.605,141.951 C79.404,141.963 81.202,141.981 83,142 C83.33,141.01 83.66,140.02 84,139 C83.567,138.299 83.134,137.598 82.688,136.875 C80.45,133.063 79.845,129.295 79,125 C78.675,123.665 78.344,122.331 78,121 C77.34,121 76.68,121 76,121 C74.393,117.785 74.943,114.564 75,111 C75.99,111 76.98,111 78,111 C78.155,112.578 78.155,112.578 78.312,114.188 C78.982,117.903 79.963,119.9 82,123 C82,123.66 82,124.32 82,125 C82.66,125 83.32,125 84,125 C83.988,124.348 83.977,123.695 83.965,123.023 C83.915,118.224 84.006,113.722 85,109 C85.66,109 86.32,109 87,109 C86.988,108.215 86.977,107.43 86.965,106.621 C86.838,91.867 86.838,91.867 89.75,87.188 C92.978,84.049 95.516,83 100,83 Z"/>
  <path fill="#825540" d="M47,46 C46.75,47.875 46.75,47.875 46,50 C45.342,50.28 44.683,50.559 44.005,50.847 C41.802,51.811 41.802,51.811 41.362,54.063 C41.268,55.304 41.268,55.304 41.172,56.57 C41.095,57.466 41.017,58.362 40.938,59.285 C40.876,60.222 40.814,61.159 40.75,62.125 C40.673,63.07 40.595,64.015 40.516,64.988 C40.327,67.325 40.156,69.661 40,72 C39.34,72 38.68,72 38,72 C37.67,74.31 37.34,76.62 37,79 C36.01,79 35.02,79 34,79 C30.605,87.276 31.213,97.573 34,106 C35.322,106.689 36.655,107.357 38,108 C38.539,110.129 38.539,110.129 38.625,112.562 C38.685,114.936 38.685,114.936 39,117 C39.66,117.33 40.32,117.66 41,118 C41,118.99 41,119.98 41,121 C42.32,121.33 43.64,121.66 45,122 C45,122.66 45,123.32 45,124 C47.64,124.33 50.28,124.66 53,125 C53.66,121.7 54.32,118.4 55,115 C55.66,115 56.32,115 57,115 C57,114.34 57,113.68 57,113 C63.625,109 63.625,109 67,109 C67.33,107.35 67.66,105.7 68,104 C70.475,103.505 70.475,103.505 73,103 C73.66,105.31 74.32,107.62 75,110 C74.01,109.67 73.02,109.34 72,109 C71.312,106.938 71.312,106.938 71,105 C70.443,105.908 69.886,106.815 69.312,107.75 C66.404,111.838 63.785,114.405 59,116 C57.303,119.008 57.303,119.008 55.812,122.562 C55.018,124.359 55.018,124.359 54.207,126.191 C53.809,127.118 53.41,128.045 53,129 C47.255,128.244 42.772,126.998 38.492,122.965 C36.124,119.846 35.071,116.445 33.902,112.738 C33.082,110.25 32.114,108.113 30.875,105.812 C27.418,99.103 25.716,91.536 27,84 C29.312,81.188 29.312,81.188 30.695,79.805 C34.18,74.985 34.62,67.764 35.414,61.992 C36.444,54.744 38.481,46 47,46 Z"/>
  <path fill="#785444" d="M83.562,21.625 C84.387,21.588 85.211,21.55 86.061,21.512 C90.278,21.451 93.1,21.614 96.457,24.316 C99.281,27.297 101.195,30.353 103,34 C103.543,35.05 103.543,35.05 104.098,36.121 C105.606,39.067 106.951,41.854 108,45 C108.66,45.33 109.32,45.66 110,46 C110.395,47.918 110.395,47.918 110.598,50.402 C110.677,51.292 110.756,52.183 110.838,53.1 C110.912,54.036 110.986,54.973 111.062,55.938 C111.217,57.78 111.374,59.623 111.535,61.465 C111.634,62.696 111.634,62.696 111.735,63.953 C111.894,66.062 111.894,66.062 113,68 C113.133,69.875 113.133,69.875 113.125,72 C113.129,73.052 113.129,73.052 113.133,74.125 C113,76 113,76 112,78 C112.33,78.99 112.66,79.98 113,81 C109.17,82.802 106.219,83.196 102,83 C102.495,82.01 102.495,82.01 103,81 C104.98,81 106.96,81 109,81 C108.892,79.71 108.892,79.71 108.781,78.395 C108.141,70.242 107.878,62.176 108,54 C107.34,54 106.68,54 106,54 C105.876,53.031 105.753,52.061 105.625,51.062 C105.419,50.052 105.213,49.041 105,48 C104.34,47.67 103.68,47.34 103,47 C103,44.03 103,41.06 103,38 C102.34,38 101.68,38 101,38 C100.753,37.216 100.505,36.432 100.25,35.625 C98.792,32.564 97.92,32.413 95,31 C94.379,28.941 94.379,28.941 94,27 C89.938,26.913 85.876,26.86 81.812,26.812 C80.662,26.787 79.512,26.762 78.326,26.736 C77.214,26.727 76.103,26.717 74.957,26.707 C73.936,26.691 72.915,26.676 71.863,26.659 C68.531,27.056 66.741,28.108 64,30 C62.948,30.66 61.896,31.32 60.812,32 C57.829,33.87 57.829,33.87 56,37 C55.34,37 54.68,37 54,37 C54,37.99 54,38.98 54,40 C53.072,40.124 53.072,40.124 52.125,40.25 C49.816,40.813 49.816,40.813 48.75,43.062 C48.502,43.702 48.255,44.341 48,45 C47.34,45 46.68,45 46,45 C46.578,41.65 47.586,40.318 50,38 C51.176,35.9 51.176,35.9 52,34 C52.66,34 53.32,34 54,34 C54.223,33.416 54.446,32.832 54.676,32.23 C56.399,29.327 58.347,28.119 61.188,26.312 C62.109,25.711 63.031,25.109 63.98,24.488 C70.056,21.494 76.903,21.74 83.562,21.625 Z"/>
  <path fill="#964508" d="M133,103 C139.875,103.875 139.875,103.875 141,105 C141.099,107.311 141.13,109.625 141.125,111.938 C141.129,113.838 141.129,113.838 141.133,115.777 C141,119 141,119 140,121 C139.34,121 138.68,121 138,121 C138,119.02 138,117.04 138,115 C137.34,115.99 136.68,116.98 136,118 C135.34,118 134.68,118 134,118 C134,119.98 134,121.96 134,124 C138.503,122.743 141.543,121.16 145,118 C145.33,117.34 145.66,116.68 146,116 C146.66,116 147.32,116 148,116 C148,115.01 148,114.02 148,113 C148.66,113 149.32,113 150,113 C150,110.69 150,108.38 150,106 C150.33,106 150.66,106 151,106 C151.495,110.455 151.495,110.455 152,115 C151.01,115.66 150.02,116.32 149,117 C148.546,117.763 148.092,118.526 147.625,119.312 C145.767,122.385 143.667,124.607 141,127 C140.34,127 139.68,127 139,127 C139,127.99 139,128.98 139,130 C127.195,131.889 115.715,131.18 104,129 C104,128.34 104,127.68 104,127 C102.68,126.67 101.36,126.34 100,126 C100,125.34 100,124.68 100,124 C99.34,124 98.68,124 98,124 C97.67,122.35 97.34,120.7 97,119 C98.32,119 99.64,119 101,119 C101.33,118.34 101.66,117.68 102,117 C102.454,117.784 102.908,118.567 103.375,119.375 C109.74,125.74 121.528,124.536 130,125 C129.67,123.35 129.34,121.7 129,120 C129.99,120.33 130.98,120.66 132,121 C132.186,119.824 132.186,119.824 132.375,118.625 C133,116 133,116 135,114 C135.648,111.429 135.648,111.429 136,109 C135.01,109.33 134.02,109.66 133,110 C133,107.69 133,105.38 133,103 Z"/>
  <path fill="#BB7038" d="M102,87.688 C105.4,89.175 105.589,89.775 107,93 C107.681,93.309 108.361,93.619 109.062,93.938 C109.702,94.288 110.341,94.639 111,95 C112.082,98.847 112.195,102.645 112.25,106.625 C112.289,108.315 112.289,108.315 112.328,110.039 C112,113 112,113 110.684,114.887 C108.163,116.554 105.94,116.196 103,116 C103.312,114.125 103.312,114.125 104,112 C104.99,111.34 105.98,110.68 107,110 C107.582,107.575 107.582,107.575 107.688,104.875 C107.753,103.965 107.819,103.055 107.887,102.117 C107.924,101.419 107.961,100.72 108,100 C106.68,100 105.36,100 104,100 C104.33,100.66 104.66,101.32 105,102 C105.188,105.5 105.188,105.5 105,109 C104.34,109.66 103.68,110.32 103,111 C98.444,110.444 98.444,110.444 97,109 C96.928,107.481 96.916,105.958 96.938,104.438 C96.947,103.611 96.956,102.785 96.965,101.934 C96.976,101.296 96.988,100.657 97,100 C98.32,99.67 99.64,99.34 101,99 C101,98.34 101,97.68 101,97 C100.01,97 99.02,97 98,97 C98,96.01 98,95.02 98,94 C98.66,94 99.32,94 100,94 C99.257,93.072 99.257,93.072 98.5,92.125 C97,90 97,90 97,88 C99,87 99,87 102,87.688 Z"/>
  <path fill="#F7C198" d="M118,81 C121.63,81 125.26,81 129,81 C130.607,84.215 130.057,87.436 130,91 C129.34,91 128.68,91 128,91 C127.67,92.65 127.34,94.3 127,96 C127.99,96 128.98,96 130,96 C130.124,95.319 130.247,94.639 130.375,93.938 C131.091,90.572 132.029,87.3 133,84 C140.924,84.186 140.924,84.186 144.562,86.938 C146.611,91.302 146.331,95.259 146,100 C144.68,99.67 143.36,99.34 142,99 C142.33,98.34 142.66,97.68 143,97 C142.34,96.67 141.68,96.34 141,96 C141.99,95.67 142.98,95.34 144,95 C144,93.68 144,92.36 144,91 C141.25,89.527 139.104,88.776 136,88 C135.01,90.97 134.02,93.94 133,97 C132.34,97 131.68,97 131,97 C131,97.66 131,98.32 131,99 C126.158,100.336 122.066,101.253 117,101 C116.67,100.34 116.34,99.68 116,99 C116.33,98.34 116.66,97.68 117,97 C120.062,96.375 120.062,96.375 123,96 C123.33,94.68 123.66,93.36 124,92 C124.66,92 125.32,92 126,92 C126,90.35 126,88.7 126,87 C125.34,87 124.68,87 124,87 C124,85.68 124,84.36 124,83 C123.34,83 122.68,83 122,83 C122.107,83.603 122.214,84.207 122.324,84.828 C122.444,85.627 122.564,86.427 122.688,87.25 C122.815,88.039 122.943,88.828 123.074,89.641 C123,92 123,92 120,96 C120,92.37 120,88.74 120,85 C118.68,84.34 117.36,83.68 116,83 C116.66,83 117.32,83 118,83 C118,82.34 118,81.68 118,81 Z"/>
  <path fill="#7D523C" d="M121,75 C130.595,74.616 139.406,78.378 146.82,84.504 C147.933,85.619 148.978,86.801 150,88 C149.67,88.99 149.34,89.98 149,91 C148.67,91 148.34,91 148,91 C147.814,96.858 147.814,96.858 148.625,102.625 C149.168,106.064 148.085,108.745 147,112 C144.525,112.495 144.525,112.495 142,113 C142,108.71 142,104.42 142,100 C143.32,100 144.64,100 146,100 C145.912,98.416 145.804,96.832 145.688,95.25 C145.629,94.368 145.571,93.487 145.512,92.578 C144.915,89.573 144.162,88.162 142,86 C139.748,85.1 139.748,85.1 137.312,84.75 C136.1,84.526 136.1,84.526 134.863,84.297 C134.248,84.199 133.634,84.101 133,84 C132.876,85.052 132.753,86.104 132.625,87.188 C132.089,90.46 131.361,93.005 130,96 C129.01,96 128.02,96 127,96 C127.33,94.35 127.66,92.7 128,91 C128.66,91 129.32,91 130,91 C129.67,87.7 129.34,84.4 129,81 C125.37,81 121.74,81 118,81 C118,80.67 118,80.34 118,80 C121.96,80 125.92,80 130,80 C130,80.66 130,81.32 130,82 C130.66,81.67 131.32,81.34 132,81 C132,80.34 132,79.68 132,79 C128.04,78.67 124.08,78.34 120,78 C120.33,77.01 120.66,76.02 121,75 Z"/>
  <path fill="#836051" d="M81,129 C83.746,131.128 85.759,132.753 86.438,136.266 C86.499,138.639 86.546,140.686 86,143 C82.303,145.465 80.096,145.326 75.688,145.5 C70.685,145.699 66.707,146.339 62,148 C59.551,148.336 59.551,148.336 57.312,148.375 C56.193,148.418 56.193,148.418 55.051,148.461 C53,148 53,148 51.68,145.992 C50.068,143.62 50.068,143.62 46.645,143.609 C45.38,143.656 44.115,143.702 42.812,143.75 C41.54,143.786 40.268,143.822 38.957,143.859 C37.493,143.929 37.493,143.929 36,144 C35,141 35,141 35.938,138.625 C38.701,135.107 42.013,132.989 46,131 C46.66,131 47.32,131 48,131 C48,131.99 48,132.98 48,134 C46.033,135.381 44.031,136.715 42,138 C41.67,138.66 41.34,139.32 41,140 C44.63,140 48.26,140 52,140 C52,140.99 52,141.98 52,143 C53.375,143.027 54.75,143.047 56.125,143.062 C56.891,143.074 57.656,143.086 58.445,143.098 C61.051,143.057 61.051,143.057 63.781,142.5 C67.682,141.894 71.437,141.891 75.375,141.938 C76.111,141.942 76.847,141.947 77.605,141.951 C79.404,141.963 81.202,141.981 83,142 C83.33,141.01 83.66,140.02 84,139 C83.526,138.216 83.051,137.432 82.562,136.625 C80.853,133.753 80.72,132.272 81,129 Z"/>
  <path fill="#A65415" d="M136,88 C139.375,88.547 141.082,89.055 144,91 C144,92.32 144,93.64 144,95 C143.01,95.495 143.01,95.495 142,96 C142,97.32 142,98.64 142,100 C138.7,100 135.4,100 132,100 C132,101.32 132,102.64 132,104 C128.349,105.611 124.949,106.449 121,107 C120.67,108.65 120.34,110.3 120,112 C118.02,112.33 116.04,112.66 114,113 C114,108.71 114,104.42 114,100 C115.98,100.031 115.98,100.031 118,100.062 C122.42,100.07 126.629,99.636 131,99 C131,98.34 131,97.68 131,97 C131.66,97 132.32,97 133,97 C133.124,96.443 133.247,95.886 133.375,95.312 C134.06,92.779 134.991,90.421 136,88 Z"/>
  <path fill="#7C533E" d="M83.938,21.938 C84.812,21.942 85.687,21.947 86.588,21.951 C88.725,21.963 90.863,21.981 93,22 C93.66,23.32 94.32,24.64 95,26 C94.36,25.99 93.719,25.979 93.06,25.968 C90.144,25.927 87.228,25.901 84.312,25.875 C83.305,25.858 82.298,25.841 81.26,25.824 C80.283,25.818 79.307,25.811 78.301,25.805 C77.405,25.794 76.51,25.784 75.587,25.773 C70.766,26.196 66.913,28.5 62.812,30.938 C61.953,31.442 61.093,31.946 60.207,32.465 C57.755,33.97 57.755,33.97 56,37 C55.34,37 54.68,37 54,37 C54,37.99 54,38.98 54,40 C53.072,40.124 53.072,40.124 52.125,40.25 C49.816,40.813 49.816,40.813 48.75,43.062 C48.502,43.702 48.255,44.341 48,45 C47.34,45 46.68,45 46,45 C46.578,41.65 47.586,40.318 50,38 C51.176,35.9 51.176,35.9 52,34 C52.66,34 53.32,34 54,34 C54.223,33.416 54.446,32.832 54.676,32.23 C56.399,29.327 58.347,28.119 61.188,26.312 C62.109,25.711 63.031,25.109 63.98,24.488 C70.262,21.392 77.09,21.87 83.938,21.938 Z"/>
  <path fill="#EFB68A" d="M142,100 C142,104.29 142,108.58 142,113 C143.32,112.67 144.64,112.34 146,112 C146.66,109.69 147.32,107.38 148,105 C148.33,105 148.66,105 149,105 C149.125,112.625 149.125,112.625 148,116 C147.34,116 146.68,116 146,116 C145.773,116.577 145.546,117.155 145.312,117.75 C143.613,120.664 141.821,122.163 139,124 C136.188,124.25 136.188,124.25 134,124 C134,122.02 134,120.04 134,118 C134.66,118 135.32,118 136,118 C136.66,114.37 137.32,110.74 138,107 C138.33,107 138.66,107 139,107 C139.027,108.958 139.046,110.917 139.062,112.875 C139.074,113.966 139.086,115.056 139.098,116.18 C139,119 139,119 138,121 C138.66,121 139.32,121 140,121 C140,115.72 140,110.44 140,105 C137.69,104.34 135.38,103.68 133,103 C132.876,104.114 132.753,105.228 132.625,106.375 C132,110 132,110 130,112 C128.875,106.25 128.875,106.25 130,104 C130.66,104 131.32,104 132,104 C132,102.68 132,101.36 132,100 C135.956,98.631 137.332,99.222 142,100 Z"/>
  <path fill="#E0A373" d="M98,89 C100,92 100,92 100,94 C99.34,94 98.68,94 98,94 C98,94.99 98,95.98 98,97 C98.99,97 99.98,97 101,97 C101,97.66 101,98.32 101,99 C100.01,99.33 99.02,99.66 98,100 C98,102.97 98,105.94 98,109 C99.656,109.382 101.325,109.714 103,110 C104.233,108.992 104.233,108.992 104.098,106.934 C104.086,106.11 104.074,105.286 104.062,104.438 C104.053,103.611 104.044,102.785 104.035,101.934 C104.024,101.296 104.012,100.657 104,100 C105.32,100 106.64,100 108,100 C108.108,101.603 108.186,103.207 108.25,104.812 C108.296,105.706 108.343,106.599 108.391,107.52 C108,110 108,110 106.031,111.688 C105.361,112.121 104.691,112.554 104,113 C103.204,115.094 103.204,115.094 103,117 C104.98,117 106.96,117 109,117 C109.33,118.65 109.66,120.3 110,122 C105.322,121.725 103.254,119.668 100.137,116.473 C99,115 99,115 99,113 C98.34,113 97.68,113 97,113 C94.318,110.48 94.003,109.042 93.707,105.328 C93.727,103.968 93.762,102.609 93.812,101.25 C93.826,100.553 93.84,99.855 93.854,99.137 C93.889,97.424 93.943,95.712 94,94 C94.66,94 95.32,94 96,94 C96.217,93.041 96.217,93.041 96.438,92.062 C97,90 97,90 98,89 Z"/>
  <path fill="#F2BC92" d="M72,109 C72.99,109.33 73.98,109.66 75,110 C75.33,113.63 75.66,117.26 76,121 C76.66,121 77.32,121 78,121 C80.757,125.795 81.533,129.586 82,135 C80.68,135.33 79.36,135.66 78,136 C78,135.01 78,134.02 78,133 C78.66,133 79.32,133 80,133 C80,131.68 80,130.36 80,129 C79.34,129 78.68,129 78,129 C77.67,129.99 77.34,130.98 77,132 C76.34,132 75.68,132 75,132 C75,131.01 75,130.02 75,129 C73.68,128.67 72.36,128.34 71,128 C70.67,129.32 70.34,130.64 70,132 C68.68,131.67 67.36,131.34 66,131 C66,132.32 66,133.64 66,135 C65.01,135 64.02,135 63,135 C63.256,132.657 63.593,130.322 64,128 C64.66,127.67 65.32,127.34 66,127 C66,126.34 66,125.68 66,125 C67.65,124.67 69.3,124.34 71,124 C71.33,122.68 71.66,121.36 72,120 C72.66,120 73.32,120 74,120 C74,117.03 74,114.06 74,111 C73.34,111 72.68,111 72,111 C72,110.34 72,109.68 72,109 Z"/>
  <path fill="#8C5F49" d="M74,104 C74.495,106.97 74.495,106.97 75,110 C74.01,109.67 73.02,109.34 72,109 C71.312,106.938 71.312,106.938 71,105 C70.443,105.908 69.886,106.815 69.312,107.75 C66.404,111.838 63.785,114.405 59,116 C57.303,119.008 57.303,119.008 55.812,122.562 C55.283,123.76 54.753,124.958 54.207,126.191 C53.809,127.118 53.41,128.045 53,129 C47.038,128.216 42.688,126.823 38.242,122.664 C37,121 37,121 36.562,117.625 C36.707,116.759 36.851,115.893 37,115 C39,116.312 39,116.312 41,118 C41,118.99 41,119.98 41,121 C42.32,121.33 43.64,121.66 45,122 C45,122.66 45,123.32 45,124 C47.64,124.33 50.28,124.66 53,125 C53.66,121.7 54.32,118.4 55,115 C55.66,115 56.32,115 57,115 C57,114.34 57,113.68 57,113 C63.625,109 63.625,109 67,109 C67.124,108.196 67.247,107.391 67.375,106.562 C67.684,105.294 67.684,105.294 68,104 C70.491,102.755 71.411,103.223 74,104 Z"/>
  <path fill="#B76B31" d="M133,103 C139.875,103.875 139.875,103.875 141,105 C141.099,107.311 141.13,109.625 141.125,111.938 C141.129,113.838 141.129,113.838 141.133,115.777 C141,119 141,119 140,121 C139.34,121 138.68,121 138,121 C138,119.02 138,117.04 138,115 C137.01,116.485 137.01,116.485 136,118 C135.34,118 134.68,118 134,118 C134.186,119.134 134.371,120.269 134.562,121.438 C134.707,122.613 134.851,123.789 135,125 C134,126 134,126 132.234,126.114 C131.485,126.108 130.736,126.103 129.965,126.098 C129.156,126.094 128.347,126.091 127.514,126.088 C126.664,126.08 125.813,126.071 124.938,126.062 C124.083,126.058 123.229,126.053 122.35,126.049 C120.233,126.037 118.117,126.019 116,126 C116,125.67 116,125.34 116,125 C120.62,125 125.24,125 130,125 C129.67,123.35 129.34,121.7 129,120 C129.99,120.33 130.98,120.66 132,121 C132.124,120.216 132.247,119.433 132.375,118.625 C133,116 133,116 135,114 C135.648,111.429 135.648,111.429 136,109 C135.01,109.33 134.02,109.66 133,110 C133,107.69 133,105.38 133,103 Z"/>
  <path fill="#7D513B" d="M97,119 C97.99,119 98.98,119 100,119 C100,119.66 100,120.32 100,121 C100.99,121.33 101.98,121.66 103,122 C103,122.66 103,123.32 103,124 C104.176,124.464 104.176,124.464 105.375,124.938 C108,126 108,126 110,127 C112.105,127.085 114.213,127.107 116.32,127.098 C118.206,127.093 118.206,127.093 120.129,127.088 C121.448,127.08 122.766,127.071 124.125,127.062 C125.465,127.057 126.805,127.053 128.145,127.049 C131.43,127.037 134.715,127.021 138,127 C138,127.99 138,128.98 138,130 C126.648,132.162 115.276,131.098 104,129 C104,128.34 104,127.68 104,127 C102.68,126.67 101.36,126.34 100,126 C100,125.34 100,124.68 100,124 C99.34,124 98.68,124 98,124 C97.67,122.35 97.34,120.7 97,119 Z"/>
  <path fill="#825339" d="M94,24 C100.89,26.707 103.142,33.133 105.949,39.477 C107,42 107,42 108,45 C108.66,45.33 109.32,45.66 110,46 C110,46.66 110,47.32 110,48 C109.34,48 108.68,48 108,48 C108,49.98 108,51.96 108,54 C107.34,54 106.68,54 106,54 C105.876,53.031 105.753,52.061 105.625,51.062 C105.419,50.052 105.213,49.041 105,48 C104.34,47.67 103.68,47.34 103,47 C103,44.03 103,41.06 103,38 C102.34,38 101.68,38 101,38 C100.753,37.216 100.505,36.432 100.25,35.625 C98.792,32.564 97.92,32.413 95,31 C94.67,29.68 94.34,28.36 94,27 C87.07,26.67 80.14,26.34 73,26 C73,25.67 73,25.34 73,25 C79.93,25 86.86,25 94,25 C94,24.67 94,24.34 94,24 Z"/>
  <path fill="#8E6A58" d="M48,131 C48,131.99 48,132.98 48,134 C46.033,135.381 44.031,136.715 42,138 C41.67,138.66 41.34,139.32 41,140 C44.63,140 48.26,140 52,140 C52,140.99 52,141.98 52,143 C56.62,143 61.24,143 66,143 C62.499,145.334 61.004,145.242 56.875,145.188 C55.8,145.181 54.725,145.175 53.617,145.168 C51,145 51,145 50,144 C47.647,143.927 45.292,143.916 42.938,143.938 C41.647,143.947 40.357,143.956 39.027,143.965 C38.028,143.976 37.029,143.988 36,144 C35,141 35,141 35.938,138.625 C38.718,135.086 43.256,131 48,131 Z"/>
  <path fill="#C07740" d="M100,93 C102.562,94.25 102.562,94.25 105,96 C105.33,96.99 105.66,97.98 106,99 C106.66,99.33 107.32,99.66 108,100 C106.68,100 105.36,100 104,100 C104.33,100.66 104.66,101.32 105,102 C105.188,105.5 105.188,105.5 105,109 C104.34,109.66 103.68,110.32 103,111 C98.444,110.444 98.444,110.444 97,109 C96.928,107.481 96.916,105.958 96.938,104.438 C96.947,103.611 96.956,102.785 96.965,101.934 C96.976,101.296 96.988,100.657 97,100 C98.32,99.67 99.64,99.34 101,99 C101,98.34 101,97.68 101,97 C100.01,97 99.02,97 98,97 C98,96.01 98,95.02 98,94 C98.66,93.67 99.32,93.34 100,93 Z"/>
  <path fill="#955C38" d="M148,89 C152.184,93.044 152.795,96.945 153.605,102.477 C153.947,105.117 153.947,105.117 155,108 C155.067,109.561 155.085,111.125 155.062,112.688 C155.053,113.496 155.044,114.304 155.035,115.137 C155.024,115.752 155.012,116.366 155,117 C154.34,117 153.68,117 153,117 C152.67,117.99 152.34,118.98 152,120 C151.67,117.03 151.34,114.06 151,111 C150.34,111.66 149.68,112.32 149,113 C145.657,93.687 145.657,93.687 148,89 Z"/>
  <path fill="#BB7037" d="M136,88 C139.375,88.547 141.082,89.055 144,91 C144,92.32 144,93.64 144,95 C143.01,95.495 143.01,95.495 142,96 C142,97.32 142,98.64 142,100 C138.7,100 135.4,100 132,100 C132,101.32 132,102.64 132,104 C131.34,103.67 130.68,103.34 130,103 C130.33,102.01 130.66,101.02 131,100 C130.34,99.67 129.68,99.34 129,99 C129.66,99 130.32,99 131,99 C131,98.34 131,97.68 131,97 C131.66,97 132.32,97 133,97 C133.186,96.165 133.186,96.165 133.375,95.312 C134.06,92.779 134.991,90.421 136,88 Z"/>
  <path fill="#B3652A" d="M122,83 C122.66,83 123.32,83 124,83 C124,84.32 124,85.64 124,87 C124.66,87 125.32,87 126,87 C126,88.65 126,90.3 126,92 C125.34,92 124.68,92 124,92 C123.67,93.65 123.34,95.3 123,97 C119.957,97.729 117.133,98.215 114,98 C111.398,96.283 110.632,94.791 109,92 C109,90.68 109,89.36 109,88 C112,89 112,89 113.062,91 C113.372,91.66 113.681,92.32 114,93 C114.66,93.33 115.32,93.66 116,94 C116,93.01 116,92.02 116,91 C115.34,91 114.68,91 114,91 C114,90.01 114,89.02 114,88 C114.99,88.33 115.98,88.66 117,89 C117.66,88.01 118.32,87.02 119,86 C120.968,87.968 120.662,91.348 121,94 C121.693,90.276 122.111,86.789 122,83 Z"/>
  <path fill="#B5682D" d="M123,109 C124.98,109 126.96,109 129,109 C129,109.99 129,110.98 129,112 C128.01,112 127.02,112 126,112 C126.062,112.928 126.124,113.856 126.188,114.812 C126,118 126,118 124.75,119.812 C120.766,122.516 116.698,122.09 112,122 C111.67,120.68 111.34,119.36 111,118 C112.32,118 113.64,118 115,118 C115,117.34 115,116.68 115,116 C116.98,115.67 118.96,115.34 121,115 C121.144,114.381 121.289,113.762 121.438,113.125 C122,111 122,111 123,109 Z"/>
  <path fill="#7F513C" d="M150,115 C150.66,115 151.32,115 152,115 C152.66,115.66 153.32,116.32 154,117 C153.629,121.398 152.327,125.236 150.688,129.312 C150.279,130.361 149.87,131.409 149.449,132.488 C148,135 148,135 145.832,135.855 C145.227,135.903 144.623,135.951 144,136 C146,127.429 146,127.429 148,124 C147.216,124.495 146.432,124.99 145.625,125.5 C143,127 143,127 141,127 C142.021,124.532 142.768,123.173 144.938,121.562 C147.395,119.701 148.44,117.624 150,115 Z"/>
  <path fill="#964E1B" d="M120,75 C120.33,75.66 120.66,76.32 121,77 C123.58,77.691 123.58,77.691 126.562,78.125 C127.574,78.293 128.586,78.46 129.629,78.633 C130.411,78.754 131.194,78.875 132,79 C132.495,80.485 132.495,80.485 133,82 C132.01,82 131.02,82 130,82 C130,81.34 130,80.68 130,80 C126.04,80 122.08,80 118,80 C118,80.66 118,81.32 118,82 C116.68,82 115.36,82 114,82 C114,82.66 114,83.32 114,84 C109.328,85.206 104.785,85.094 100,85 C100,84.34 100,83.68 100,83 C99.01,82.67 98.02,82.34 97,82 C98.32,82 99.64,82 101,82 C101,81.34 101,80.68 101,80 C103.64,80 106.28,80 109,80 C109,80.33 109,80.66 109,81 C107.02,81.33 105.04,81.66 103,82 C104.459,81.94 105.918,81.851 107.375,81.75 C108.187,81.704 108.999,81.657 109.836,81.609 C110.55,81.408 111.264,81.207 112,81 C113.121,79.05 113.121,79.05 114,77 C117.125,75.75 117.125,75.75 120,75 Z"/>
  <path fill="#CA8654" d="M145,89 C145.66,89 146.32,89 147,89 C147.061,89.736 147.121,90.472 147.184,91.23 C147.267,92.206 147.351,93.182 147.438,94.188 C147.519,95.15 147.6,96.113 147.684,97.105 C147.942,99.973 147.942,99.973 148.594,102.625 C149.183,106.07 148.088,108.735 147,112 C145.35,112.33 143.7,112.66 142,113 C142,108.71 142,104.42 142,100 C143.32,100 144.64,100 146,100 C145.67,96.37 145.34,92.74 145,89 Z"/>
  <path fill="#F2BB91" d="M133,84 C140.924,84.186 140.924,84.186 144.562,86.938 C146.611,91.302 146.331,95.259 146,100 C144.68,99.67 143.36,99.34 142,99 C142.33,98.34 142.66,97.68 143,97 C142.34,96.67 141.68,96.34 141,96 C141.99,95.67 142.98,95.34 144,95 C144,93.68 144,92.36 144,91 C141.361,89.586 138.929,88.628 136,88 C135.67,89.65 135.34,91.3 135,93 C134.01,92.34 133.02,91.68 132,91 C132.33,88.69 132.66,86.38 133,84 Z"/>
  <path fill="#814E31" d="M100,83 C100,83.66 100,84.32 100,85 C97.69,86.32 95.38,87.64 93,89 C93,97.25 93,105.5 93,114 C91.35,113.67 89.7,113.34 88,113 C88.327,112.49 88.655,111.979 88.992,111.453 C90.356,108.132 90.191,105.326 90.125,101.75 C90.107,100.487 90.089,99.223 90.07,97.922 C90.047,96.958 90.024,95.993 90,95 C89.34,96.32 88.68,97.64 88,99 C86.406,95.812 87.249,93.41 88,90 C91.052,85.095 94.193,83 100,83 Z"/>
  <path fill="#C9844F" d="M132,108 C133.32,108.33 134.64,108.66 136,109 C136.347,113.168 135.647,114.824 133,118 C132.67,118.99 132.34,119.98 132,121 C131.34,121 130.68,121 130,121 C130,122.32 130,123.64 130,125 C125.38,125 120.76,125 116,125 C116,124.67 116,124.34 116,124 C119.96,124 123.92,124 128,124 C127.66,122.391 127.66,122.391 127.312,120.75 C127,117 127,117 128.312,114.875 C128.869,114.256 129.426,113.637 130,113 C130.712,111.352 131.39,109.688 132,108 Z"/>
  <path fill="#826154" d="M83.812,21.875 C84.696,21.884 85.58,21.893 86.49,21.902 C88.66,21.926 90.83,21.962 93,22 C93.66,23.32 94.32,24.64 95,26 C85.43,26 75.86,26 66,26 C72.041,21.973 76.728,21.738 83.812,21.875 Z"/>
  <path fill="#FBC79F" d="M71,127 C71.33,127.66 71.66,128.32 72,129 C72.99,129 73.98,129 75,129 C75,129.99 75,130.98 75,132 C75.681,131.258 75.681,131.258 76.375,130.5 C78,129 78,129 80,129 C80,130.32 80,131.64 80,133 C79.34,133 78.68,133 78,133 C78,133.99 78,134.98 78,136 C79.32,135.67 80.64,135.34 82,135 C82.99,136.65 83.98,138.3 85,140 C82.36,140.33 79.72,140.66 77,141 C77,138.69 77,136.38 77,134 C76.103,134.309 76.103,134.309 75.188,134.625 C73,135 73,135 70,133 C69.75,130.438 69.75,130.438 70,128 C70.33,127.67 70.66,127.34 71,127 Z"/>
  <path fill="#7B523F" d="M90,94 C90.33,94 90.66,94 91,94 C91,99.61 91,105.22 91,111 C90.34,111 89.68,111 89,111 C88.67,112.32 88.34,113.64 88,115 C87.34,115 86.68,115 86,115 C86.087,112.436 86.194,109.875 86.312,107.312 C86.335,106.591 86.358,105.87 86.381,105.127 C86.605,100.658 87.185,97.669 90,94 Z"/>
  <path fill="#C47E49" d="M118,80 C121.96,80 125.92,80 130,80 C130,80.66 130,81.32 130,82 C132.97,82.33 135.94,82.66 139,83 C138.67,83.66 138.34,84.32 138,85 C135.525,84.505 135.525,84.505 133,84 C132.876,85.052 132.753,86.104 132.625,87.188 C132.089,90.46 131.361,93.005 130,96 C129.01,96 128.02,96 127,96 C127.33,94.35 127.66,92.7 128,91 C128.66,91 129.32,91 130,91 C129.67,87.7 129.34,84.4 129,81 C125.37,81 121.74,81 118,81 C118,80.67 118,80.34 118,80 Z"/>
  <path fill="#E1AC86" d="M70,134 C72.31,134 74.62,134 77,134 C77.33,135.98 77.66,137.96 78,140 C79.98,140 81.96,140 84,140 C83.67,140.99 83.34,141.98 83,143 C77.39,143 71.78,143 66,143 C66,142.34 66,141.68 66,141 C69.3,140.67 72.6,140.34 76,140 C75.67,138.68 75.34,137.36 75,136 C74.381,136.495 73.762,136.99 73.125,137.5 C71,139 71,139 69,139 C69.33,137.35 69.66,135.7 70,134 Z"/>
  <path fill="#B26429" d="M108,102 C108.66,102 109.32,102 110,102 C109.67,104.97 109.34,107.94 109,111 C109.66,111 110.32,111 111,111 C111,109.02 111,107.04 111,105 C111.33,105 111.66,105 112,105 C112.362,112.357 112.362,112.357 110.875,115 C108.211,116.421 105.965,116.198 103,116 C103.312,114.125 103.312,114.125 104,112 C104.99,111.34 105.98,110.68 107,110 C107.577,108.036 107.577,108.036 107.688,105.875 C107.791,104.596 107.894,103.317 108,102 Z"/>
  <path fill="#F6C096" d="M127,113 C127.99,113 128.98,113 130,113 C129.67,113.516 129.34,114.031 129,114.562 C127.557,117.64 127.557,117.64 128,124 C123.38,124 118.76,124 114,124 C114,123.67 114,123.34 114,123 C116.31,123 118.62,123 121,123 C121,122.34 121,121.68 121,121 C121.66,121 122.32,121 123,121 C123.33,120.01 123.66,119.02 124,118 C124.66,118 125.32,118 126,118 C126.33,116.35 126.66,114.7 127,113 Z"/>
  <path fill="#91542C" d="M101,36 C101.99,36 102.98,36 104,36 C104.266,36.638 104.531,37.276 104.805,37.934 C105.158,38.76 105.511,39.586 105.875,40.438 C106.397,41.673 106.397,41.673 106.93,42.934 C107.824,45.157 107.824,45.157 110,46 C110,46.66 110,47.32 110,48 C109.34,48 108.68,48 108,48 C108,49.98 108,51.96 108,54 C107.34,54 106.68,54 106,54 C105.876,53.031 105.753,52.061 105.625,51.062 C105.316,49.547 105.316,49.547 105,48 C104.34,47.67 103.68,47.34 103,47 C103,44.03 103,41.06 103,38 C102.34,38 101.68,38 101,38 C101,37.34 101,36.68 101,36 Z"/>
  <path fill="#D6A685" d="M48,130 C48.66,130.66 49.32,131.32 50,132 C49.625,135.625 49.625,135.625 49,139 C50.32,139 51.64,139 53,139 C52.67,139.99 52.34,140.98 52,142 C52,141.34 52,140.68 52,140 C48.37,140 44.74,140 41,140 C43,136 43,136 45.625,134.75 C46.409,134.503 47.193,134.255 48,134 C48,132.68 48,131.36 48,130 Z"/>
  <path fill="#996F5A" d="M75,111 C75.99,111 76.98,111 78,111 C78.103,112.052 78.206,113.104 78.312,114.188 C78.986,117.921 79.931,119.897 82,123 C82.33,123.99 82.66,124.98 83,126 C82.01,126.33 81.02,126.66 80,127 C79.34,125.02 78.68,123.04 78,121 C77.34,121 76.68,121 76,121 C74.393,117.785 74.943,114.564 75,111 Z"/>
  <path fill="#F0B78B" d="M141,100 C141,100.99 141,101.98 141,103 C138.36,103 135.72,103 133,103 C132.876,104.114 132.753,105.228 132.625,106.375 C132,110 132,110 130,112 C128.875,106.25 128.875,106.25 130,104 C130.66,104 131.32,104 132,104 C132,102.68 132,101.36 132,100 C135.325,98.892 137.622,99.155 141,100 Z"/>
  <path fill="#C27A42" d="M136,104 C138.475,104.495 138.475,104.495 141,105 C141.027,107.292 141.046,109.583 141.062,111.875 C141.074,113.151 141.086,114.427 141.098,115.742 C141,119 141,119 140,121 C139.34,121 138.68,121 138,121 C138,119.02 138,117.04 138,115 C137.67,115 137.34,115 137,115 C136.67,111.37 136.34,107.74 136,104 Z"/>
  <path fill="#F0B88D" d="M118,81 C120.31,81.33 122.62,81.66 125,82 C125,83.65 125,85.3 125,87 C124.67,85.68 124.34,84.36 124,83 C123.34,83 122.68,83 122,83 C122.107,83.603 122.214,84.207 122.324,84.828 C122.444,85.627 122.564,86.427 122.688,87.25 C122.815,88.039 122.943,88.828 123.074,89.641 C123,92 123,92 120,96 C120,92.37 120,88.74 120,85 C118.68,84.34 117.36,83.68 116,83 C116.66,83 117.32,83 118,83 C118,82.34 118,81.68 118,81 Z"/>
  <path fill="#DD9E6E" d="M109,115 C109.33,115.66 109.66,116.32 110,117 C111.65,117 113.3,117 115,117 C113.68,117.33 112.36,117.66 111,118 C111.33,118.99 111.66,119.98 112,121 C114.97,121 117.94,121 121,121 C121,121.66 121,122.32 121,123 C118.898,123.249 116.793,123.473 114.688,123.688 C113.516,123.815 112.344,123.943 111.137,124.074 C108,124 108,124 106.082,122.52 C105.725,122.018 105.368,121.517 105,121 C106.65,121.33 108.3,121.66 110,122 C109.67,120.35 109.34,118.7 109,117 C107.02,117 105.04,117 103,117 C103,116.67 103,116.34 103,116 C104.98,115.67 106.96,115.34 109,115 Z"/>
  <path fill="#A0541C" d="M150,106 C150.33,106 150.66,106 151,106 C151.33,108.97 151.66,111.94 152,115 C151.01,115.66 150.02,116.32 149,117 C148.381,118.238 148.381,118.238 147.75,119.5 C145.353,122.925 142.988,123.172 139,124 C139.784,123.237 140.568,122.474 141.375,121.688 C144.073,119.091 144.073,119.091 146,116 C146.66,116 147.32,116 148,116 C148,115.01 148,114.02 148,113 C148.66,113 149.32,113 150,113 C150,110.69 150,108.38 150,106 Z"/>
  <path fill="#EFB68B" d="M98,89 C100,92 100,92 100,94 C99.34,94 98.68,94 98,94 C98,94.99 98,95.98 98,97 C98.99,97 99.98,97 101,97 C101,97.66 101,98.32 101,99 C100.361,99.206 99.721,99.412 99.062,99.625 C96.651,100.895 96.651,100.895 96.25,104.125 C96.168,105.074 96.085,106.022 96,107 C95.67,107 95.34,107 95,107 C94.918,104.938 94.861,102.875 94.812,100.812 C94.778,99.664 94.743,98.515 94.707,97.332 C95.024,93.73 95.915,91.906 98,89 Z"/>
  <path fill="#C17942" d="M122,83 C122.66,83 123.32,83 124,83 C124,84.32 124,85.64 124,87 C124.66,87 125.32,87 126,87 C126,88.65 126,90.3 126,92 C125.34,92 124.68,92 124,92 C123.67,93.65 123.34,95.3 123,97 C121.02,97 119.04,97 117,97 C117.66,96.67 118.32,96.34 119,96 C119,94.35 119,92.7 119,91 C119.99,92.485 119.99,92.485 121,94 C121.693,90.276 122.111,86.789 122,83 Z"/>
  <path fill="#785749" d="M152,103 C154.345,105.345 154.955,106.96 155.098,110.262 C155.086,111.062 155.074,111.863 155.062,112.688 C155.053,113.496 155.044,114.304 155.035,115.137 C155.024,115.752 155.012,116.366 155,117 C154.34,117 153.68,117 153,117 C152.67,117.99 152.34,118.98 152,120 C151.806,117.542 151.619,115.084 151.438,112.625 C151.381,111.926 151.325,111.228 151.268,110.508 C150.887,105.227 150.887,105.227 152,103 Z"/>
  <path fill="#E3A678" d="M141,100 C141.33,100 141.66,100 142,100 C142,104.29 142,108.58 142,113 C143.32,112.67 144.64,112.34 146,112 C146.66,109.69 147.32,107.38 148,105 C148.33,105 148.66,105 149,105 C149.25,112.625 149.25,112.625 147,116 C147,115.34 147,114.68 147,114 C145.35,114 143.7,114 142,114 C141.67,114.99 141.34,115.98 141,117 C140.961,115.735 140.961,115.735 140.922,114.445 C140.837,112.802 140.837,112.802 140.75,111.125 C140.704,110.034 140.657,108.944 140.609,107.82 C140.312,104.867 140.312,104.867 137.953,103.617 C137.309,103.414 136.664,103.21 136,103 C137.65,103 139.3,103 141,103 C141,102.01 141,101.02 141,100 Z"/>
  <path fill="#BC7239" d="M114,104 C114.66,104 115.32,104 116,104 C116.33,104.66 116.66,105.32 117,106 C119.025,106.652 119.025,106.652 121,107 C120.67,108.65 120.34,110.3 120,112 C118.02,112.33 116.04,112.66 114,113 C114,110.03 114,107.06 114,104 Z"/>
  <path fill="#854E2D" d="M40,56 C41.526,59.053 40.838,61.758 40.562,65.125 C40.461,66.406 40.359,67.688 40.254,69.008 C40.17,69.995 40.086,70.983 40,72 C39.34,72 38.68,72 38,72 C37.67,74.31 37.34,76.62 37,79 C35.68,78.67 34.36,78.34 33,78 C33.33,76.68 33.66,75.36 34,74 C34,74.99 34,75.98 34,77 C34.289,76.031 34.577,75.061 34.875,74.062 C36,71 36,71 38,70 C38.432,66.987 38.432,66.987 38.562,63.5 C38.904,57.096 38.904,57.096 40,56 Z"/>
  <path fill="#844C2B" d="M97,119 C97.99,119 98.98,119 100,119 C100,119.66 100,120.32 100,121 C100.99,121.33 101.98,121.66 103,122 C103,122.66 103,123.32 103,124 C103.99,124.33 104.98,124.66 106,125 C105.67,125.99 105.34,126.98 105,128 C106.32,128.33 107.64,128.66 109,129 C108.01,129.495 108.01,129.495 107,130 C106.01,129.67 105.02,129.34 104,129 C104,128.34 104,127.68 104,127 C102.68,126.67 101.36,126.34 100,126 C100,125.34 100,124.68 100,124 C99.34,124 98.68,124 98,124 C97.67,122.35 97.34,120.7 97,119 Z"/>
  <path fill="#946C59" d="M81,129 C85.82,132.736 85.82,132.736 86.332,136.336 C86.314,138.576 86.219,140.771 86,143 C84.02,143.99 84.02,143.99 82,145 C82,142 82,142 84,139 C83.257,137.917 83.257,137.917 82.5,136.812 C80.921,133.852 80.718,132.287 81,129 Z"/>
  <path fill="#835842" d="M139,82 C141.125,81.625 141.125,81.625 144,82 C146.239,83.793 148.125,85.835 150,88 C149.67,88.99 149.34,89.98 149,91 C148.34,91 147.68,91 147,91 C147,90.34 147,89.68 147,89 C146.423,88.711 145.845,88.423 145.25,88.125 C143.167,87.083 141.083,86.042 139,85 C139,84.01 139,83.02 139,82 Z"/>
  <path fill="#835130" d="M119,149 C119,150.333 119,151.667 119,153 C114.71,153 110.42,153 106,153 C106.33,151.68 106.66,150.36 107,149 C108.624,148.805 110.249,148.619 111.875,148.438 C112.78,148.333 113.685,148.229 114.617,148.121 C117,148 117,148 119,149 Z"/>
  <path fill="#E8B28A" d="M78,123 C81.538,126.692 81.591,130.094 82,135 C80.68,135.33 79.36,135.66 78,136 C78,135.01 78,134.02 78,133 C78.66,133 79.32,133 80,133 C80,131.68 80,130.36 80,129 C78.68,128.67 77.36,128.34 76,128 C76,127.01 76,126.02 76,125 C76.66,125 77.32,125 78,125 C78,124.34 78,123.68 78,123 Z M75,129 C75.99,129 76.98,129 78,129 C77.67,129.99 77.34,130.98 77,132 C76.34,132 75.68,132 75,132 C75,131.01 75,130.02 75,129 Z"/>
  <path fill="#874B25" d="M101,80 C103.64,80 106.28,80 109,80 C109,80.33 109,80.66 109,81 C107.02,81.33 105.04,81.66 103,82 C106.3,81.67 109.6,81.34 113,81 C113.33,81.99 113.66,82.98 114,84 C109.328,85.206 104.785,85.094 100,85 C100,84.34 100,83.68 100,83 C99.01,82.67 98.02,82.34 97,82 C98.32,82 99.64,82 101,82 C101,81.34 101,80.68 101,80 Z"/>
  <path fill="#8C6C5D" d="M44,144 C45.65,144.33 47.3,144.66 49,145 C49.33,146.65 49.66,148.3 50,150 C48.188,150.625 48.188,150.625 46,151 C45.01,150.34 44.02,149.68 43,149 C43.33,147.35 43.66,145.7 44,144 Z"/>
  <path fill="#ECB388" d="M133,84 C134.48,84.114 135.959,84.241 137.438,84.375 C138.261,84.445 139.085,84.514 139.934,84.586 C140.956,84.791 140.956,84.791 142,85 C142.33,85.66 142.66,86.32 143,87 C140.69,87.33 138.38,87.66 136,88 C135.67,89.65 135.34,91.3 135,93 C134.01,92.34 133.02,91.68 132,91 C132.33,88.69 132.66,86.38 133,84 Z"/>
  <path fill="#865539" d="M109,67 C109.33,67 109.66,67 110,67 C110.049,67.675 110.098,68.351 110.148,69.047 C110.223,69.939 110.298,70.831 110.375,71.75 C110.445,72.632 110.514,73.513 110.586,74.422 C110.998,76.991 111.712,78.758 113,81 C109.17,82.802 106.219,83.196 102,83 C102.33,82.34 102.66,81.68 103,81 C104.98,81 106.96,81 109,81 C109,76.38 109,71.76 109,67 Z"/>
  <path fill="#824D2F" d="M138,127 C138,127.99 138,128.98 138,130 C135.36,130.33 132.72,130.66 130,131 C130,130.34 130,129.68 130,129 C125.71,129 121.42,129 117,129 C117,128.67 117,128.34 117,128 C119.375,127.831 121.75,127.665 124.125,127.5 C124.79,127.452 125.455,127.405 126.141,127.355 C130.102,127.084 134.029,126.951 138,127 Z"/>
  <path fill="#A05116" d="M101,117 C101.412,117.422 101.825,117.843 102.25,118.277 C106.798,122.592 109.739,123.78 116,124 C116,124.33 116,124.66 116,125 C107.378,126.721 107.378,126.721 104,124.953 C102.375,123.562 102.375,123.562 100,121 C100.33,119.68 100.66,118.36 101,117 Z"/>
  <path fill="#8E5E49" d="M145,135 C145.66,135.66 146.32,136.32 147,137 C146.457,137.398 145.915,137.797 145.355,138.207 C144.282,139.002 144.282,139.002 143.188,139.812 C142.126,140.596 142.126,140.596 141.043,141.395 C139.215,142.831 137.601,144.318 136,146 C135.34,145.34 134.68,144.68 134,144 C137.434,140.364 140.797,137.639 145,135 Z"/>
  <path fill="#B08C77" d="M44,141 C47.111,140.855 49.452,140.766 52.344,142 C55.353,143.133 57.611,143.202 60.812,143.125 C61.788,143.107 62.764,143.089 63.77,143.07 C64.506,143.047 65.242,143.024 66,143 C60.99,146.34 54.47,145.671 48.656,144.547 C47.084,144.096 45.537,143.559 44,143 C44,142.34 44,141.68 44,141 Z"/>
  <path fill="#81533A" d="M34,106 C35.938,106.625 35.938,106.625 38,108 C39.348,112.332 39.013,114.974 37,119 C36.67,119 36.34,119 36,119 C35.01,115.7 34.02,112.4 33,109 C33.66,109 34.32,109 35,109 C34.67,108.01 34.34,107.02 34,106 Z"/>
  <path fill="#B4672C" d="M142,101 C143.32,101.33 144.64,101.66 146,102 C145.67,102.66 145.34,103.32 145,104 C144.34,103.67 143.68,103.34 143,103 C143,105.97 143,108.94 143,112 C143.66,112 144.32,112 145,112 C145.33,109.69 145.66,107.38 146,105 C146.66,105.33 147.32,105.66 148,106 C147.67,107.98 147.34,109.96 147,112 C145.35,112.33 143.7,112.66 142,113 C142,109.04 142,105.08 142,101 Z"/>
  <path fill="#864B25" d="M91,91 C91.33,91 91.66,91 92,91 C92.33,98.59 92.66,106.18 93,114 C91.35,113.67 89.7,113.34 88,113 C88.321,112.429 88.643,111.859 88.974,111.271 C90.048,108.894 90.303,107.259 90.414,104.672 C90.453,103.873 90.491,103.073 90.531,102.25 C90.562,101.425 90.593,100.6 90.625,99.75 C90.664,98.91 90.702,98.069 90.742,97.203 C90.836,95.136 90.919,93.068 91,91 Z"/>
  <path fill="#C57E47" d="M101.875,87.562 C105.782,89.36 107.064,91.206 109,95 C108.67,95.99 108.34,96.98 108,98 C103.125,93.375 103.125,93.375 102,90 C100.35,90 98.7,90 97,90 C97,89.34 97,88.68 97,88 C99,87 99,87 101.875,87.562 Z"/>
  <path fill="#CB8550" d="M123,113 C123.99,113 124.98,113 126,113 C126.224,115.765 126.322,117.463 124.875,119.875 C122.078,121.553 120.063,120.749 117,120 C117,119.34 117,118.68 117,118 C118.655,116.981 120.323,115.982 122,115 C122.33,114.34 122.66,113.68 123,113 Z"/>
  <path fill="#D3905E" d="M140,96 C140.99,96.33 141.98,96.66 143,97 C142.67,97.99 142.34,98.98 142,100 C138.7,100 135.4,100 132,100 C132,101.32 132,102.64 132,104 C131.34,103.67 130.68,103.34 130,103 C130.33,102.01 130.66,101.02 131,100 C130.34,99.67 129.68,99.34 129,99 C129.66,99 130.32,99 131,99 C131,98.34 131,97.68 131,97 C132.299,97.021 133.599,97.041 134.938,97.062 C136.292,97.084 137.648,97.071 139,97 C139.33,96.67 139.66,96.34 140,96 Z"/>
  <path fill="#B4662B" d="M119,118 C118.34,118 117.68,118 117,118 C117,118.66 117,119.32 117,120 C118.32,120.33 119.64,120.66 121,121 C118.043,122.478 115.258,122.06 112,122 C111.67,120.68 111.34,119.36 111,118 C114.053,117.019 115.947,117.019 119,118 Z"/>
  <path fill="#854C30" d="M85,109 C85.33,109 85.66,109 86,109 C86.055,109.56 86.111,110.12 86.168,110.697 C86.421,113.236 86.679,115.774 86.938,118.312 C87.025,119.194 87.112,120.075 87.201,120.982 C87.288,121.83 87.375,122.678 87.465,123.551 C87.543,124.331 87.622,125.111 87.703,125.915 C87.963,128.189 87.963,128.189 89,131 C87.68,131.33 86.36,131.66 85,132 C85,124.41 85,116.82 85,109 Z"/>
  <path fill="#7F5E51" d="M151,121 C151.33,121 151.66,121 152,121 C151.503,125.973 150.447,129.638 148,134 C147.34,134 146.68,134 146,134 C146.607,129.14 148.728,125.259 151,121 Z"/>
  <path fill="#FAC59C" d="M102,115 C102.33,115.66 102.66,116.32 103,117 C104.98,117 106.96,117 109,117 C109.33,118.65 109.66,120.3 110,122 C107.259,121.63 105.414,121.314 103.188,119.625 C102,118 102,118 102,115 Z"/>
  <path fill="#F7C097" d="M142,114 C143.65,114 145.3,114 147,114 C145.523,118.677 145.523,118.677 142.875,120.312 C141.947,120.653 141.947,120.653 141,121 C141.33,118.69 141.66,116.38 142,114 Z"/>
  <path fill="#805F4F" d="M30,98 C30.33,98.99 30.66,99.98 31,101 C31.66,101 32.32,101 33,101 C33.66,103.64 34.32,106.28 35,109 C31.125,107.25 31.125,107.25 30,105 C29.96,102.667 29.957,100.333 30,98 Z"/>
  <path fill="#D59360" d="M114,82 C115.875,82.25 115.875,82.25 118,83 C119.25,85.062 119.25,85.062 120,87 C119.01,87.99 118.02,88.98 117,90 C116.01,89.34 115.02,88.68 114,88 C113.812,84.875 113.812,84.875 114,82 Z"/>
  <path fill="#7B4B32" d="M94,28 C96,28 96,28 97.625,29.5 C98.079,29.995 98.533,30.49 99,31 C99.33,30.34 99.66,29.68 100,29 C103,33.75 103,33.75 103,36 C101.68,35.67 100.36,35.34 99,35 C99,34.34 99,33.68 99,33 C98.361,32.732 97.721,32.464 97.062,32.188 C95,31 95,31 94,28 Z"/>
  <path fill="#84482F" d="M71,24 C70.34,24.66 69.68,25.32 69,26 C68.01,27.485 68.01,27.485 67,29 C63.875,30.188 63.875,30.188 61,31 C61,30.34 61,29.68 61,29 C62.32,28.67 63.64,28.34 65,28 C64.34,27.67 63.68,27.34 63,27 C63,26.34 63,25.68 63,25 C66.067,23.138 67.597,22.785 71,24 Z"/>
  <path fill="#F1B98E" d="M99,102 C100.32,102.33 101.64,102.66 103,103 C103,104.98 103,106.96 103,109 C101.68,108.67 100.36,108.34 99,108 C99,106.02 99,104.04 99,102 Z"/>
  <path fill="#EEB589" d="M64,128 C66.31,128.66 68.62,129.32 71,130 C70.67,130.66 70.34,131.32 70,132 C68.68,131.67 67.36,131.34 66,131 C66,132.32 66,133.64 66,135 C65.01,135 64.02,135 63,135 C63.33,132.69 63.66,130.38 64,128 Z"/>
  <path fill="#915C43" d="M126,149 C126,149.66 126,150.32 126,151 C119.945,151.977 119.945,151.977 118,152 C117.34,151.34 116.68,150.68 116,150 C119.85,147.433 121.586,148.167 126,149 Z"/>
  <path fill="#92450C" d="M108,125 C110.64,125 113.28,125 116,125 C116.33,125.99 116.66,126.98 117,128 C110.25,128.125 110.25,128.125 108,127 C108,126.34 108,125.68 108,125 Z"/>
  <path fill="#84553D" d="M75,111 C75.99,111 76.98,111 78,111 C78.124,112.073 78.247,113.145 78.375,114.25 C78.896,117.379 79.401,119.335 81,122 C79.078,121.289 79.078,121.289 77,120 C76.172,117.836 76.172,117.836 75.75,115.375 C75.6,114.558 75.451,113.74 75.297,112.898 C75.199,112.272 75.101,111.645 75,111 Z"/>
  <path fill="#E7AB7D" d="M135,109 C135.33,109 135.66,109 136,109 C136.347,113.168 135.647,114.824 133,118 C132.67,118.99 132.34,119.98 132,121 C131.34,121 130.68,121 130,121 C130,119.68 130,118.36 130,117 C130.66,117 131.32,117 132,117 C132.309,116.051 132.619,115.103 132.938,114.125 C134,111 134,111 135,109 Z"/>
  <path fill="#79584B" d="M38,138 C38.33,138.99 38.66,139.98 39,141 C41.015,141.733 41.015,141.733 43,142 C42.67,142.66 42.34,143.32 42,144 C40.02,144 38.04,144 36,144 C35.67,143.01 35.34,142.02 35,141 C35.99,141 36.98,141 38,141 C38,140.01 38,139.02 38,138 Z"/>
  <path fill="#DD9F6E" d="M134,118 C134.33,118 134.66,118 135,118 C135,119.65 135,121.3 135,123 C135.66,123 136.32,123 137,123 C137.33,121.68 137.66,120.36 138,119 C138,119.66 138,120.32 138,121 C138.66,121 139.32,121 140,121 C140.33,120.34 140.66,119.68 141,119 C141.33,119.99 141.66,120.98 142,122 C138.772,124.152 137.716,124.201 134,124 C134,122.02 134,120.04 134,118 Z"/>
  <path fill="#EEB589" d="M65,118 C65,119.98 65,121.96 65,124 C63.35,124 61.7,124 60,124 C60,121 60,121 61.375,119.312 C63,118 63,118 65,118 Z"/>
  <path fill="#F6C096" d="M111,114 C113.64,114 116.28,114 119,114 C119,114.66 119,115.32 119,116 C114.545,116.495 114.545,116.495 110,117 C110.33,116.01 110.66,115.02 111,114 Z"/>
  <path fill="#BF763E" d="M109,88 C112,89 112,89 113.062,90.938 C113.372,91.618 113.681,92.299 114,93 C114.66,93.66 115.32,94.32 116,95 C115.01,95.33 114.02,95.66 113,96 C111,94.25 111,94.25 109,92 C109,90.68 109,89.36 109,88 Z"/>
  <path fill="#E8AC7E" d="M138,90 C139.32,91.32 140.64,92.64 142,94 C137.25,97 137.25,97 135,97 C136.875,91.125 136.875,91.125 138,90 Z"/>
  <path fill="#A16A4D" d="M152,111 C152.99,111 153.98,111 155,111 C155,112.98 155,114.96 155,117 C154.34,117 153.68,117 153,117 C152.67,117.99 152.34,118.98 152,120 C152,117.03 152,114.06 152,111 Z"/>
  <path fill="#946040" d="M35,66 C35.66,66 36.32,66 37,66 C36.67,69.63 36.34,73.26 36,77 C35.34,77 34.68,77 34,77 C33.875,69.375 33.875,69.375 35,66 Z"/>
  <path fill="#845E4D" d="M43,48 C43,48.99 43,49.98 43,51 C42.34,51 41.68,51 41,51 C41,52.65 41,54.3 41,56 C39.68,55.67 38.36,55.34 37,55 C40.75,49.125 40.75,49.125 43,48 Z"/>
  <path fill="#894C19" d="M120,75 C120,75.99 120,76.98 120,78 C116.535,79.485 116.535,79.485 113,81 C113,80.01 113,79.02 113,78 C115.332,76.794 117.496,75.835 120,75 Z"/>
  <path fill="#C99A7B" d="M44,144 C45.65,144.33 47.3,144.66 49,145 C49.33,145.99 49.66,146.98 50,148 C47.69,148 45.38,148 43,148 C43.33,146.68 43.66,145.36 44,144 Z"/>
  <path fill="#A4806D" d="M83,136 C83.99,136.33 84.98,136.66 86,137 C86,138.98 86,140.96 86,143 C84.02,143.99 84.02,143.99 82,145 C82,142 82,142 84,139 C83.67,138.01 83.34,137.02 83,136 Z"/>
  <path fill="#FAC59B" d="M136,99 C137.675,99.286 139.344,99.618 141,100 C141,100.99 141,101.98 141,103 C139.35,103 137.7,103 136,103 C135.67,102.01 135.34,101.02 135,100 C135.33,99.67 135.66,99.34 136,99 Z"/>
  <path fill="#E3A576" d="M113,86 C113.33,86 113.66,86 114,86 C114,87.65 114,89.3 114,91 C114.66,91 115.32,91 116,91 C116,91.99 116,92.98 116,94 C114.062,93.25 114.062,93.25 112,92 C111.125,90 111.125,90 111,88 C111.66,87.34 112.32,86.68 113,86 Z"/>
  <path fill="#7D5C4E" d="M65,26 C65,26.66 65,27.32 65,28 C63.68,28.33 62.36,28.66 61,29 C61,29.66 61,30.32 61,31 C59.68,31.33 58.36,31.66 57,32 C60.385,26 60.385,26 65,26 Z"/>
  <path fill="#A0694B" d="M74,22 C74.66,22.33 75.32,22.66 76,23 C74.938,24.5 74.938,24.5 73,26 C69.312,26.188 69.312,26.188 66,26 C68.689,24.208 70.953,23.016 74,22 Z"/>
  <path fill="#815034" d="M40,118 C40.33,118.99 40.66,119.98 41,121 C43.015,121.733 43.015,121.733 45,122 C45,122.66 45,123.32 45,124 C46.65,124 48.3,124 50,124 C50,124.33 50,124.66 50,125 C46.71,125.224 44.577,125.304 41.625,123.75 C40,122 40,122 40,118 Z"/>
  <path fill="#BE743C" d="M122,111 C122.66,111.66 123.32,112.32 124,113 C122.35,114.65 120.7,116.3 119,118 C117.68,117.34 116.36,116.68 115,116 C116.98,115.67 118.96,115.34 121,115 C121.33,113.68 121.66,112.36 122,111 Z"/>
  <path fill="#DFAE8A" d="M71,104 C71.33,104 71.66,104 72,104 C72.25,106.312 72.25,106.312 72,109 C70,110.812 70,110.812 68,112 C67.34,111.67 66.68,111.34 66,111 C66.808,109.831 67.622,108.664 68.438,107.5 C68.89,106.85 69.342,106.201 69.809,105.531 C70.202,105.026 70.595,104.521 71,104 Z"/>
  <path fill="#845D4F" d="M144,85 C146.867,85.573 147.861,85.861 150,88 C149.67,88.99 149.34,89.98 149,91 C148.34,91 147.68,91 147,91 C147,90.34 147,89.68 147,89 C146.34,88.67 145.68,88.34 145,88 C144.67,87.01 144.34,86.02 144,85 Z"/>
  <path fill="#974507" d="M117,78 C119.75,78.25 119.75,78.25 122,79 C120.68,79.33 119.36,79.66 118,80 C118,80.66 118,81.32 118,82 C116.35,82 114.7,82 113,82 C114.688,79.938 114.688,79.938 117,78 Z"/>
  <path fill="#AD5C1F" d="M133,103 C133.99,103 134.98,103 136,103 C135.625,105.938 135.625,105.938 135,109 C134.01,109.495 134.01,109.495 133,110 C133,107.69 133,105.38 133,103 Z"/>
  <path fill="#9F5722" d="M114,82 C114,82.66 114,83.32 114,84 C111.688,84.625 111.688,84.625 109,85 C108.01,84.34 107.02,83.68 106,83 C111.75,80.875 111.75,80.875 114,82 Z"/>
</svg>
