<?xml version="1.0" encoding="UTF-8"?>
<svg version="1.1" xmlns="http://www.w3.org/2000/svg" width="228" height="220">
<path d="M0 0 C4.22103621 3.50256196 6.34246174 6.75112884 8 12 C7.71043127 18.94964955 4.56175687 24.8890015 0 30 C-2.26355561 31.90573074 -4.64051927 33.61484995 -7.0625 35.3125 C-7.68705078 35.76689453 -8.31160156 36.22128906 -8.95507812 36.68945312 C-13.61971335 40 -13.61971335 40 -17 40 C-17 40.66 -17 41.32 -17 42 C-19.20716463 43.27289905 -21.41567485 44.5433605 -23.625 45.8125 C-24.24246094 46.16892578 -24.85992187 46.52535156 -25.49609375 46.89257812 C-29.27265506 49.05913172 -33.08447772 51.0904299 -37 53 C-36.88541307 54.43836751 -36.75790884 55.87570966 -36.625 57.3125 C-36.52058594 58.51326172 -36.52058594 58.51326172 -36.4140625 59.73828125 C-36.10435574 62.27224441 -36.10435574 62.27224441 -34 65 C-33.60612212 67.32387947 -33.26513915 69.65793749 -33 72 C-28.85784349 72.31524377 -26.76205673 71.57609342 -23.3125 69.3125 C-19.82527911 67.12127613 -16.34140115 65.02830075 -12.6875 63.125 C-11.90761719 62.71507813 -11.12773437 62.30515625 -10.32421875 61.8828125 C-7.666538 60.87334048 -5.82058926 60.68557366 -3 61 C0.35694833 63.53636096 1.84664231 64.90458789 2.4375 69.125 C2 72 2 72 0 75 C-0.66 75 -1.32 75 -2 75 C-2 75.66 -2 76.32 -2 77 C-8.56369825 81.75302287 -15.54884251 85.5667611 -23.171875 88.30859375 C-24.99012129 88.85303932 -24.99012129 88.85303932 -26 90 C-26.29386153 93.72224599 -26.14809171 94.77786243 -24 98 C-23.49223452 99.88319614 -23.03983984 101.78167698 -22.625 103.6875 C-21.73445475 107.45310502 -20.80301323 110.73378822 -18.9375 114.125 C-16.58048672 118.52720379 -15.13416822 122.97707708 -15 128 C-16.5 131.5625 -16.5 131.5625 -19 134 C-22.42479065 135.23875407 -24.18082483 135.27305839 -27.625 134.125 C-32.93423885 129.3746284 -34.48623445 121.84513117 -36.2890625 115.1640625 C-36.97696694 112.74497414 -36.97696694 112.74497414 -39 110 C-40.83259417 105.52032537 -41.19295257 101.82381437 -41 97 C-46.32403138 98.21425277 -50.97930617 99.80915178 -56 102 C-58.33010909 102.67784992 -60.66359824 103.34416793 -63 104 C-64.2744919 104.49059939 -65.54522309 104.99105345 -66.8125 105.5 C-71.4428884 107.2699168 -76.12120095 108.18813142 -81 109 C-81.77730469 109.14824219 -82.55460937 109.29648438 -83.35546875 109.44921875 C-88.71126177 110.30651436 -93.37519418 110.07380387 -98 107 C-101.39459667 103.74766244 -103.26178279 101.65437046 -103.59375 96.90625 C-103.58849392 95.43717699 -103.55675867 93.96798555 -103.5 92.5 C-103.50257812 91.76652344 -103.50515625 91.03304687 -103.5078125 90.27734375 C-103.35969087 81.99734459 -99.24020245 75.50292157 -93.6875 69.5 C-92.800625 68.675 -91.91375 67.85 -91 67 C-90.52046875 66.55011719 -90.0409375 66.10023437 -89.546875 65.63671875 C-79.95070779 56.99550993 -68.51155903 50.70248526 -57 45 C-57.23976563 43.37191406 -57.23976563 43.37191406 -57.484375 41.7109375 C-58.14930387 36.35142216 -58.22175277 31.02022148 -58.25 25.625 C-58.270625 24.64789063 -58.29125 23.67078125 -58.3125 22.6640625 C-58.36442887 12.90143542 -56.78016061 4.80356881 -49.88671875 -2.37890625 C-47.11976957 -4.75630565 -44.46625761 -5.90539234 -41 -7 C-39.1746875 -7.5878125 -39.1746875 -7.5878125 -37.3125 -8.1875 C-23.75681231 -11.27547519 -11.15469504 -7.92729684 0 0 Z M-41 13 C-41.96088383 15.88265149 -42.11670941 17.67662271 -42.09765625 20.66796875 C-42.09443359 21.56064453 -42.09121094 22.45332031 -42.08789062 23.37304688 C-42.07951172 24.30181641 -42.07113281 25.23058594 -42.0625 26.1875 C-42.05798828 27.12787109 -42.05347656 28.06824219 -42.04882812 29.03710938 C-42.03704626 31.35813712 -42.02059558 33.67903644 -42 36 C-38.48691567 35.20034176 -35.77440134 33.89819235 -32.625 32.125 C-28.78779468 29.98808244 -24.94896055 27.92111594 -21 26 C-21 25.34 -21 24.68 -21 24 C-20.21625 23.690625 -19.4325 23.38125 -18.625 23.0625 C-16.07669872 22.07124962 -16.07669872 22.07124962 -14 21 C-14 20.34 -14 19.68 -14 19 C-13.360625 18.7525 -12.72125 18.505 -12.0625 18.25 C-9.80696091 17.19716567 -9.80696091 17.19716567 -9.37109375 14.921875 C-9.18740234 13.97054687 -9.18740234 13.97054687 -9 13 C-14.55472957 8.56887669 -19.76232054 7.46448224 -26.6875 7.375 C-27.41187256 7.35244141 -28.13624512 7.32988281 -28.88256836 7.30664062 C-34.5237271 7.38426235 -37.09796293 8.93612729 -41 13 Z M-61.625 65.875 C-64.189955 67.75713421 -65.95690751 68.98563584 -69 70 C-69 70.66 -69 71.32 -69 72 C-69.53625 72.2475 -70.0725 72.495 -70.625 72.75 C-77.48906616 76.3626664 -82.87526679 80.75053358 -86.375 87.75 C-87.13382193 90.09256017 -87.13382193 90.09256017 -87 93 C-77.5426644 93.74663176 -67.91566001 89.11881897 -59.375 85.4375 C-56 84 -56 84 -52.6875 82.9375 C-49.89034231 82.18017502 -49.89034231 82.18017502 -48 80 C-48.12748978 78.00426495 -48.12748978 78.00426495 -48.75 75.8125 C-49.04777344 74.61753906 -49.04777344 74.61753906 -49.3515625 73.3984375 C-50.20161411 70.2542707 -51.07014464 67.12165729 -52 64 C-56.35022067 62.66265301 -58.01545422 63.18334559 -61.625 65.875 Z " fill="#785549" transform="translate(158,54)"/>
<path d="M0 0 C5.27727972 3.75039951 8.19414804 7.30946359 10.16015625 13.53515625 C9.92715896 16.62237041 9.53768447 18.78009981 8.16015625 21.53515625 C7.17015625 21.20515625 6.18015625 20.87515625 5.16015625 20.53515625 C5.09957031 19.77589844 5.03898437 19.01664063 4.9765625 18.234375 C4.89277344 17.24050781 4.80898437 16.24664062 4.72265625 15.22265625 C4.64144531 14.23652344 4.56023437 13.25039062 4.4765625 12.234375 C4.24203066 9.44140026 4.24203066 9.44140026 3.16015625 6.53515625 C2.50015625 6.53515625 1.84015625 6.53515625 1.16015625 6.53515625 C1.16015625 5.87515625 1.16015625 5.21515625 1.16015625 4.53515625 C0.37640625 4.22578125 -0.40734375 3.91640625 -1.21484375 3.59765625 C-3.83984375 2.53515625 -3.83984375 2.53515625 -5.83984375 1.53515625 C-5.83984375 0.87515625 -5.83984375 0.21515625 -5.83984375 -0.46484375 C-6.64421875 -0.44421875 -7.44859375 -0.42359375 -8.27734375 -0.40234375 C-10.83984375 -0.46484375 -10.83984375 -0.46484375 -11.83984375 -1.46484375 C-14.53382832 -1.73275382 -17.20145887 -1.93537767 -19.90234375 -2.08984375 C-20.64162109 -2.14140625 -21.38089844 -2.19296875 -22.14257812 -2.24609375 C-27.18947902 -2.54634682 -31.84795587 -2.29960761 -36.83984375 -1.46484375 C-37.16984375 -1.13484375 -37.49984375 -0.80484375 -37.83984375 -0.46484375 C-39.83942739 -0.42403592 -41.84029629 -0.42230019 -43.83984375 -0.46484375 C-40.08984375 -3.46484375 -40.08984375 -3.46484375 -37.83984375 -3.46484375 C-37.83984375 -4.12484375 -37.83984375 -4.78484375 -37.83984375 -5.46484375 C-24.81979958 -10.19940527 -11.40212496 -7.35446095 0 0 Z " fill="#87665C" transform="translate(155.83984375,52.46484375)"/>
<path d="M0 0 C0.33 0 0.66 0 1 0 C1.04254356 1.99954746 1.04080783 4.00041636 1 6 C0.67 6.33 0.34 6.66 0 7 C-0.23192865 8.51469448 -0.41215238 10.03754562 -0.5625 11.5625 C-0.64628906 12.38878906 -0.73007812 13.21507812 -0.81640625 14.06640625 C-0.87699219 14.70449219 -0.93757813 15.34257812 -1 16 C-0.34 16 0.32 16 1 16 C1 17.65 1 19.3 1 21 C5.47608901 22.49202967 9.87259014 22.26618753 14.5625 22.3125 C15.99045898 22.35600586 15.99045898 22.35600586 17.44726562 22.40039062 C24.48281621 22.46265213 29.66460353 20.95171108 36 18 C39.91256274 16.2960047 42.70752638 15.80035006 47 16 C47 16.66 47 17.32 47 18 C43.66385446 20.22409702 40.85576511 20.92544251 37 22 C35.72503005 22.48935569 34.45423843 22.98971468 33.1875 23.5 C28.5571116 25.2699168 23.87879905 26.18813142 19 27 C17.83404297 27.22236328 17.83404297 27.22236328 16.64453125 27.44921875 C11.28107989 28.30774022 6.66349971 28.01579639 2 25 C-1.05071684 22.12746662 -2.24474372 20.01218948 -2.4609375 15.8984375 C-2.45302807 14.39037366 -2.42387126 12.88229251 -2.375 11.375 C-2.37371094 10.611875 -2.37242188 9.84875 -2.37109375 9.0625 C-2.31037275 5.21683669 -2.17483583 3.26225374 0 0 Z " fill="#846559" transform="translate(58,136)"/>
<path d="M0 0 C-0.99 0.495 -0.99 0.495 -2 1 C-2 1.66 -2 2.32 -2 3 C-8.53164393 7.72981112 -15.42513503 11.54689473 -23.07421875 14.11328125 C-25.34983725 14.95732347 -25.34983725 14.95732347 -27 18 C-27.02749478 20.06910593 -27.02749478 20.06910593 -26.625 22.1875 C-26.41875 23.445625 -26.2125 24.70375 -26 26 C-26.66 26 -27.32 26 -28 26 C-29.35439668 23.29120665 -29.06501451 20.99066732 -29 18 C-29.66 18 -30.32 18 -31 18 C-31 16.68 -31 15.36 -31 14 C-25.25 11 -25.25 11 -23 11 C-23 10.34 -23 9.68 -23 9 C-21.35 9 -19.7 9 -18 9 C-18 8.34 -18 7.68 -18 7 C-16.35 6.67 -14.7 6.34 -13 6 C-13 5.34 -13 4.68 -13 4 C-11.68 4 -10.36 4 -9 4 C-8.67 3.01 -8.34 2.02 -8 1 C-5.04059045 -1.0409721 -3.36242374 -1.20086562 0 0 Z " fill="#82675C" transform="translate(158,128)"/>
<path d="M0 0 C0.99 0.33 1.98 0.66 3 1 C3 1.99 3 2.98 3 4 C2.01 4 1.02 4 0 4 C0 4.66 0 5.32 0 6 C-1.32 6 -2.64 6 -4 6 C-4.33 6.99 -4.66 7.98 -5 9 C-7 10.33333333 -9 11.66666667 -11 13 C-11.33 13.99 -11.66 14.98 -12 16 C-12.99 16 -13.98 16 -15 16 C-15 16.66 -15 17.32 -15 18 C-15.66 18 -16.32 18 -17 18 C-17 18.99 -17 19.98 -17 21 C-17.66 21 -18.32 21 -19 21 C-19.33 22.32 -19.66 23.64 -20 25 C-20.66 25 -21.32 25 -22 25 C-20.39407542 19.00715951 -18.87692591 15.10105134 -14 11 C-13.46117188 10.51917969 -12.92234375 10.03835937 -12.3671875 9.54296875 C-8.43991392 6.06477802 -4.43195248 2.81258523 0 0 Z " fill="#80665C" transform="translate(81,110)"/>
<path d="M0 0 C0 0.66 0 1.32 0 2 C-0.99 2 -1.98 2 -3 2 C-3 2.66 -3 3.32 -3 4 C-5.5614657 6.29648649 -6.47967572 7 -10 7 C-10 7.66 -10 8.32 -10 9 C-10.79664063 9.38671875 -11.59328125 9.7734375 -12.4140625 10.171875 C-19.18695992 13.42730064 -19.18695992 13.42730064 -25.5625 17.375 C-28 19 -28 19 -31 19 C-31 18.34 -31 17.68 -31 17 C-30.01 16.67 -29.02 16.34 -28 16 C-27.40316406 15.39671875 -26.80632812 14.7934375 -26.19140625 14.171875 C-23.6510212 11.65413152 -21.02848676 10.04254251 -17.9375 8.25 C-16.89464844 7.63640625 -15.85179687 7.0228125 -14.77734375 6.390625 C-12 5 -12 5 -9 5 C-9 4.34 -9 3.68 -9 3 C-5.63316085 0.56839395 -4.26649636 0 0 0 Z " fill="#7F6158" transform="translate(146,75)"/>
<path d="M0 0 C0 9.57 0 19.14 0 29 C-0.99 28.67 -1.98 28.34 -3 28 C-4.58510826 23.24467523 -4.22583902 18.41768152 -4.25 13.4375 C-4.270625 12.37080078 -4.29125 11.30410156 -4.3125 10.20507812 C-4.31765625 9.18736328 -4.3228125 8.16964844 -4.328125 7.12109375 C-4.34214355 5.72008423 -4.34214355 5.72008423 -4.35644531 4.29077148 C-4.23881836 3.53481689 -4.12119141 2.7788623 -4 2 C-1 0 -1 0 0 0 Z " fill="#8B6D62" transform="translate(104,66)"/>
<path d="M0 0 C0.66 0 1.32 0 2 0 C1.57842965 4.91832078 -0.44843132 6.72162891 -4 10 C-6.07700016 11.63918833 -8.18180204 13.24374436 -10.3125 14.8125 C-10.86228516 15.21919922 -11.41207031 15.62589844 -11.97851562 16.04492188 C-13.31625547 17.03368611 -14.65773623 18.01738585 -16 19 C-16.66 18.67 -17.32 18.34 -18 18 C-18 17.01 -18 16.02 -18 15 C-17.01 15 -16.02 15 -15 15 C-15 14.34 -15 13.68 -15 13 C-10.61538462 10 -10.61538462 10 -8 10 C-8 9.34 -8 8.68 -8 8 C-6.625 6.375 -6.625 6.375 -5 5 C-4.34 5 -3.68 5 -3 5 C-3 4.34 -3 3.68 -3 3 C-2.34 3 -1.68 3 -1 3 C-0.67 2.01 -0.34 1.02 0 0 Z " fill="#7C6056" transform="translate(160,75)"/>
<path d="M0 0 C1.05960938 0.00676758 1.05960938 0.00676758 2.140625 0.01367188 C3.88545275 0.02546125 5.630237 0.04339676 7.375 0.0625 C7.375 0.3925 7.375 0.7225 7.375 1.0625 C6.57835937 1.14886719 5.78171875 1.23523437 4.9609375 1.32421875 C-1.88025589 2.2313843 -5.73776961 3.17526961 -10.625 8.0625 C-11.285 8.0625 -11.945 8.0625 -12.625 8.0625 C-12.625 14.0025 -12.625 19.9425 -12.625 26.0625 C-12.955 26.0625 -13.285 26.0625 -13.625 26.0625 C-15.85550973 8.01252899 -15.85550973 8.01252899 -11.6875 2.5 C-7.78429639 -0.22041464 -4.62017682 -0.05540802 0 0 Z " fill="#7F6459" transform="translate(127.625,59.9375)"/>
<path d="M0 0 C2.8125 2.125 2.8125 2.125 5 5 C5.3125 8.3125 5.3125 8.3125 5 11 C3.68 10.67 2.36 10.34 1 10 C0.67 8.02 0.34 6.04 0 4 C-4.8485083 4.47534395 -7.90304204 5.42476928 -12 8 C-12.66 7.67 -13.32 7.34 -14 7 C-12.87720538 6.01830524 -11.75168527 5.03972702 -10.625 4.0625 C-9.68527344 3.24458984 -9.68527344 3.24458984 -8.7265625 2.41015625 C-5.77860195 0.00243281 -3.78052992 -0.5275158 0 0 Z " fill="#8F6960" transform="translate(155,115)"/>
<path d="M0 0 C0.66 0.33 1.32 0.66 2 1 C1.67515625 1.92232422 1.67515625 1.92232422 1.34375 2.86328125 C1.0653125 3.67152344 0.786875 4.47976562 0.5 5.3125 C0.2215625 6.11300781 -0.056875 6.91351563 -0.34375 7.73828125 C-1.13933107 10.08769422 -1.13933107 10.08769422 -1 13 C4.57830016 13.12469099 4.57830016 13.12469099 10 12 C8.8828125 13.484375 8.8828125 13.484375 7 15 C4.1171875 15.328125 4.1171875 15.328125 0.875 15.25 C-0.20007813 15.23453125 -1.27515625 15.2190625 -2.3828125 15.203125 C-5 15 -5 15 -6 14 C-6.04063832 12.33382885 -6.042721 10.66611905 -6 9 C-5.01 8.67 -4.02 8.34 -3 8 C-3 6.35 -3 4.7 -3 3 C-2.34 3 -1.68 3 -1 3 C-0.67 2.01 -0.34 1.02 0 0 Z " fill="#84675B" transform="translate(73,134)"/>
<path d="M0 0 C0.66 0.66 1.32 1.32 2 2 C1.01 3.485 1.01 3.485 0 5 C-1.32 5 -2.64 5 -4 5 C-4 5.66 -4 6.32 -4 7 C-7.36683915 9.43160605 -8.73350364 10 -13 10 C-13 10.66 -13 11.32 -13 12 C-13.99 11.67 -14.98 11.34 -16 11 C-14.69651992 7.08955976 -13.28330719 6.79969948 -9.6875 4.9375 C-8.72199219 4.43089844 -7.75648437 3.92429687 -6.76171875 3.40234375 C-4.51181853 2.25989088 -2.26014945 1.12202194 0 0 Z " fill="#7D635A" transform="translate(101,99)"/>
<path d="M0 0 C0 0.66 0 1.32 0 2 C2.475 2.495 2.475 2.495 5 3 C5 3.33 5 3.66 5 4 C-2.59 4 -10.18 4 -18 4 C-18 3.34 -18 2.68 -18 2 C-11.92972642 -0.1583195 -6.40629424 -0.20852314 0 0 Z " fill="#8E786C" transform="translate(136,45)"/>
<path d="M0 0 C0.33 0.66 0.66 1.32 1 2 C0.175 2.45375 -0.65 2.9075 -1.5 3.375 C-2.325 3.91125 -3.15 4.4475 -4 5 C-4 5.66 -4 6.32 -4 7 C-4.8971875 7.309375 -4.8971875 7.309375 -5.8125 7.625 C-8.81018767 9.50926082 -9.61361776 11.81132084 -11 15 C-11.66 15 -12.32 15 -13 15 C-12.93170839 11.58541958 -12.80324393 8.95912954 -10.55078125 6.26953125 C-7.29603149 3.41015239 -4.19585213 1.27147034 0 0 Z " fill="#7E5D54" transform="translate(117,47)"/>
<path d="M0 0 C0.33 0 0.66 0 1 0 C1.04898438 1.12019531 1.09796875 2.24039063 1.1484375 3.39453125 C1.22347856 4.86721203 1.29902582 6.33986707 1.375 7.8125 C1.4059375 8.55048828 1.436875 9.28847656 1.46875 10.04882812 C1.67346148 13.81893115 1.86433827 15.79650741 4 19 C4.25760279 21.69452521 4.08900053 24.28548375 4 27 C3.01 26.67 2.02 26.34 1 26 C-0.01973129 22.94080612 -0.11533602 20.87581975 -0.09765625 17.67578125 C-0.09443359 16.64775391 -0.09121094 15.61972656 -0.08789062 14.56054688 C-0.07951172 13.48869141 -0.07113281 12.41683594 -0.0625 11.3125 C-0.05798828 10.22904297 -0.05347656 9.14558594 -0.04882812 8.02929688 C-0.03703743 5.35280915 -0.02058063 2.67643223 0 0 Z " fill="#846156" transform="translate(100,68)"/>
<path d="M0 0 C0.33 0.66 0.66 1.32 1 2 C-1.33109197 3.00556908 -3.66456019 4.00464623 -6 5 C-6.9075 5.391875 -7.815 5.78375 -8.75 6.1875 C-12.62443244 7.5866006 -16.9053944 7 -21 7 C-21 6.67 -21 6.34 -21 6 C-19.98679687 5.73445312 -18.97359375 5.46890625 -17.9296875 5.1953125 C-16.57809823 4.83864311 -15.22653722 4.48186657 -13.875 4.125 C-13.20984375 3.95097656 -12.5446875 3.77695313 -11.859375 3.59765625 C-7.85202336 2.5368867 -3.92047101 1.35567689 0 0 Z " fill="#6B5046" transform="translate(93,141)"/>
<path d="M0 0 C-1.41468311 0.96125903 -2.8318364 1.91888325 -4.25 2.875 C-5.03890625 3.40867187 -5.8278125 3.94234375 -6.640625 4.4921875 C-12.12953368 8 -12.12953368 8 -16 8 C-16 7.34 -16 6.68 -16 6 C-15.01 5.67 -14.02 5.34 -13 5 C-12.4225 4.360625 -11.845 3.72125 -11.25 3.0625 C-8.18389884 0.25190727 -3.9926681 -1.99633405 0 0 Z " fill="#90635A" transform="translate(131,86)"/>
<path d="M0 0 C1.32 0.33 2.64 0.66 4 1 C1.4449161 3.98093122 -1.38281401 5.52359755 -5 7 C-7.375 6.6875 -7.375 6.6875 -9 6 C-4.5 2 -4.5 2 0 2 C0 1.34 0 0.68 0 0 Z " fill="#816457" transform="translate(129,98)"/>
<path d="M0 0 C1.953125 0.6796875 1.953125 0.6796875 4 2 C4.609375 4.3828125 4.609375 4.3828125 4.75 7.125 C4.80671875 8.03507813 4.8634375 8.94515625 4.921875 9.8828125 C4.94765625 10.58148438 4.9734375 11.28015625 5 12 C4.01 12.495 4.01 12.495 3 13 C1.64560332 10.29120665 1.93498549 7.99066732 2 5 C1.34 5 0.68 5 0 5 C0 3.35 0 1.7 0 0 Z " fill="#7E5E53" transform="translate(132,156)"/>
<path d="M0 0 C0.99 0.33 1.98 0.66 3 1 C3 1.66 3 2.32 3 3 C-0.72965139 5.03435531 -2.66905042 6 -7 6 C-7 6.66 -7 7.32 -7 8 C-8.65 8 -10.3 8 -12 8 C-12.33 7.01 -12.66 6.02 -13 5 C-11.7625 4.855625 -10.525 4.71125 -9.25 4.5625 C-5.0417673 4.12558842 -5.0417673 4.12558842 -1 3 C-0.67 2.01 -0.34 1.02 0 0 Z " fill="#86685D" transform="translate(136,123)"/>
<path d="M0 0 C5.28 0 10.56 0 16 0 C13 3 13 3 10.1171875 3.14453125 C9.04726562 3.03496094 7.97734375 2.92539063 6.875 2.8125 C5.79992187 2.71582031 4.72484375 2.61914062 3.6171875 2.51953125 C2.75351563 2.34808594 1.88984375 2.17664063 1 2 C0.67 1.34 0.34 0.68 0 0 Z " fill="#92736A" transform="translate(64,160)"/>
<path d="M0 0 C1.98 0 3.96 0 6 0 C6 1.32 6 2.64 6 4 C2.37 4 -1.26 4 -5 4 C-5 3.34 -5 2.68 -5 2 C-3.35 2 -1.7 2 0 2 C0 1.34 0 0.68 0 0 Z " fill="#886B60" transform="translate(112,147)"/>
<path d="M0 0 C1.32 0.99 2.64 1.98 4 3 C2.375 8.75 2.375 8.75 -1 11 C-1.66 10.34 -2.32 9.68 -3 9 C-2.67 8.34 -2.34 7.68 -2 7 C-1.34 7 -0.68 7 0 7 C0 4.69 0 2.38 0 0 Z " fill="#98685F" transform="translate(139,177)"/>
<path d="M0 0 C0.66 0 1.32 0 2 0 C3.29925791 4.33085971 4.343621 8.51474352 5 13 C4.67 12.34 4.34 11.68 4 11 C3.01 11 2.02 11 1 11 C-1.125 3.375 -1.125 3.375 0 0 Z " fill="#84665D" transform="translate(119,155)"/>
<path d="M0 0 C0.33 0 0.66 0 1 0 C1.04254356 1.99954746 1.04080783 4.00041636 1 6 C0.67 6.33 0.34 6.66 0 7 C-0.23192865 8.51469448 -0.41215238 10.03754562 -0.5625 11.5625 C-0.64628906 12.38878906 -0.73007812 13.21507812 -0.81640625 14.06640625 C-0.87699219 14.70449219 -0.93757813 15.34257812 -1 16 C-0.34 16 0.32 16 1 16 C1 17.65 1 19.3 1 21 C-2.35451951 17.46846099 -2.377649 14.70339962 -2.3125 9.9375 C-2.30863281 8.70902344 -2.30476563 7.48054687 -2.30078125 6.21484375 C-2 3 -2 3 0 0 Z " fill="#856A61" transform="translate(58,136)"/>
<path d="M0 0 C0.66 0 1.32 0 2 0 C1.9375 2.1875 1.9375 2.1875 1 5 C-1.56685645 7.38627358 -4.38918448 10 -8 10 C-8 8 -8 8 -6.625 6.375 C-5 5 -5 5 -3 5 C-3 4.34 -3 3.68 -3 3 C-2.34 3 -1.68 3 -1 3 C-0.67 2.01 -0.34 1.02 0 0 Z " fill="#85685E" transform="translate(160,75)"/>
<path d="M0 0 C0.99 0.66 1.98 1.32 3 2 C2.67 2.66 2.34 3.32 2 4 C1.34 3.67 0.68 3.34 0 3 C-2.9157691 2.58297878 -2.9157691 2.58297878 -6 3 C-8.14589423 4.89586384 -8.14589423 4.89586384 -10 7 C-12.25 7.75 -12.25 7.75 -14 8 C-9.88584328 2.74302197 -7.15924457 -0.73428149 0 0 Z " fill="#86635A" transform="translate(155,115)"/>
<path d="M0 0 C0.66 0.33 1.32 0.66 2 1 C1.55090939 2.48199902 1.09043436 3.96055236 0.625 5.4375 C0.36976562 6.26121094 0.11453125 7.08492187 -0.1484375 7.93359375 C-1 10 -1 10 -3 11 C-3 10.34 -3 9.68 -3 9 C-3.66 8.67 -4.32 8.34 -5 8 C-4.34 8 -3.68 8 -3 8 C-3 6.35 -3 4.7 -3 3 C-2.34 3 -1.68 3 -1 3 C-0.67 2.01 -0.34 1.02 0 0 Z " fill="#7D6157" transform="translate(73,134)"/>
<path d="M0 0 C0.33 0.66 0.66 1.32 1 2 C-2.06117568 4.62386487 -2.73173127 5 -7 5 C-7 5.66 -7 6.32 -7 7 C-7.99 6.67 -8.98 6.34 -10 6 C-9.67 5.01 -9.34 4.02 -9 3 C-6.93359375 2.05078125 -6.93359375 2.05078125 -4.4375 1.3125 C-3.61121094 1.06113281 -2.78492187 0.80976562 -1.93359375 0.55078125 C-1.29550781 0.36902344 -0.65742187 0.18726562 0 0 Z " fill="#85685E" transform="translate(95,104)"/>
<path d="M0 0 C1.65 0 3.3 0 5 0 C4.67 0.99 4.34 1.98 4 3 C0.24092359 4.62323754 -2.92086213 5.23994929 -7 5 C-5.75 3.5 -5.75 3.5 -4 2 C-2.68 2 -1.36 2 0 2 C0 1.34 0 0.68 0 0 Z " fill="#836458" transform="translate(94,141)"/>
<path d="M0 0 C2 2 2 2 2 6 C1.34 6 0.68 6 0 6 C0 6.66 0 7.32 0 8 C-1.65 8.33 -3.3 8.66 -5 9 C-4.54625 8.2575 -4.0925 7.515 -3.625 6.75 C-2.31359204 4.53069422 -1.11719197 2.32032178 0 0 Z " fill="#87685B" transform="translate(111,130)"/>
<path d="M0 0 C-0.99 0.495 -0.99 0.495 -2 1 C-2 1.66 -2 2.32 -2 3 C-4.31 3.33 -6.62 3.66 -9 4 C-8 1 -8 1 -6.1875 -0.25 C-3.66056586 -1.11637742 -2.47778006 -0.88492145 0 0 Z " fill="#8A6C62" transform="translate(158,128)"/>
<path d="M0 0 C1.32 1.65 2.64 3.3 4 5 C5.98 4.67 7.96 4.34 10 4 C10.33 4.99 10.66 5.98 11 7 C7.81744196 8.00023253 6.38560417 8.15774716 3.25 6.875 C1 5 1 5 0.1875 2.3125 C0.0946875 1.1678125 0.0946875 1.1678125 0 0 Z " fill="#6A564D" transform="translate(127,181)"/>
<path d="M0 0 C0.99 0.33 1.98 0.66 3 1 C3.72870472 3.31470912 4.39239518 5.6505947 5 8 C5.99 9.485 5.99 9.485 7 11 C5.0625 10.25 5.0625 10.25 3 9 C2.63837971 7.67405895 2.30271961 6.34061543 2 5 C1.01 4.67 0.02 4.34 -1 4 C-0.67 2.68 -0.34 1.36 0 0 Z " fill="#83685E" transform="translate(126,176)"/>
<path d="M0 0 C1.67542976 0.28604898 3.34385343 0.61781233 5 1 C5 2.98 5 4.96 5 7 C4.67 6.34 4.34 5.68 4 5 C3.34 4.855625 2.68 4.71125 2 4.5625 C1.34 4.376875 0.68 4.19125 0 4 C-0.33 3.01 -0.66 2.02 -1 1 C-0.67 0.67 -0.34 0.34 0 0 Z " fill="#856B61" transform="translate(104,113)"/>
<path d="M0 0 C0.66 0.99 1.32 1.98 2 3 C-0.31 4.32 -2.62 5.64 -5 7 C-5.33 5.68 -5.66 4.36 -6 3 C-5.01 3 -4.02 3 -3 3 C-3 2.34 -3 1.68 -3 1 C-2.01 0.67 -1.02 0.34 0 0 Z " fill="#826156" transform="translate(101,114)"/>
<path d="M0 0 C1.98 0 3.96 0 6 0 C6 0.66 6 1.32 6 2 C2.77208445 4.1519437 1.71599191 4.20086443 -2 4 C-1.34 2.68 -0.68 1.36 0 0 Z " fill="#80675A" transform="translate(99,152)"/>
<path d="M0 0 C0 0.99 0 1.98 0 3 C-0.99 3.66 -1.98 4.32 -3 5 C-2.67 5.66 -2.34 6.32 -2 7 C-3.98 7 -5.96 7 -8 7 C-8 6.34 -8 5.68 -8 5 C-6.25 3.7109375 -6.25 3.7109375 -4 2.375 C-3.2575 1.92898437 -2.515 1.48296875 -1.75 1.0234375 C-1.1725 0.68570313 -0.595 0.34796875 0 0 Z " fill="#664A42" transform="translate(145,117)"/>
<path d="M0 0 C0.99 0 1.98 0 3 0 C3 2.31 3 4.62 3 7 C2.01 7 1.02 7 0 7 C0 4.69 0 2.38 0 0 Z " fill="#86685C" transform="translate(117,105)"/>
<path d="M0 0 C1.65 0.33 3.3 0.66 5 1 C4.01 2.485 4.01 2.485 3 4 C0.375 4.1875 0.375 4.1875 -2 4 C-2 3.34 -2 2.68 -2 2 C-1.34 2 -0.68 2 0 2 C0 1.34 0 0.68 0 0 Z " fill="#7C5F56" transform="translate(82,125)"/>
<path d="M0 0 C0 0.66 0 1.32 0 2 C-3.3 2.33 -6.6 2.66 -10 3 C-5.78492722 -0.16130459 -4.93928888 -0.3367697 0 0 Z " fill="#887269" transform="translate(91,157)"/>
<path d="M0 0 C1.32 0 2.64 0 4 0 C3 3 3 3 1.125 4.1875 C-1 5 -1 5 -4 5 C-4 4.34 -4 3.68 -4 3 C-3.01 2.67 -2.02 2.34 -1 2 C-0.67 1.34 -0.34 0.68 0 0 Z " fill="#856A5F" transform="translate(119,89)"/>
<path d="M0 0 C0.33 0 0.66 0 1 0 C2.125 5.625 2.125 5.625 1 9 C0.34 9 -0.32 9 -1 9 C-1.125 2.25 -1.125 2.25 0 0 Z " fill="#7B5E54" transform="translate(118,149)"/>
</svg>
