<?xml version="1.0" encoding="UTF-8"?>
<svg version="1.1" xmlns="http://www.w3.org/2000/svg" width="225" height="252">
<path d="M0 0 C3.1875 1.875 3.1875 1.875 4.1875 3.875 C4.81803238 8.37880269 4.42302306 11.03635578 1.75 14.625 C0.57713859 16.05380958 -0.61248345 17.46892 -1.8125 18.875 C-3.43869427 20.87402906 -5.06365919 22.87405872 -6.6875 24.875 C-8.06088116 26.54300089 -9.43531599 28.21013755 -10.8125 29.875 C-9.61625 29.71 -8.42 29.545 -7.1875 29.375 C-2.95802894 28.91775989 1.24682181 28.71388565 5.5 28.625 C6.67175781 28.59921875 7.84351563 28.5734375 9.05078125 28.546875 C12.46365306 28.90388774 13.80412852 29.45181086 16.1875 31.875 C17.20555969 35.22005326 17.35892227 37.24645167 16.4375 40.625 C15.1875 42.875 15.1875 42.875 12.1875 44.875 C10.06201172 45.17797852 10.06201172 45.17797852 7.6171875 45.25390625 C6.72 45.28806641 5.8228125 45.32222656 4.8984375 45.35742188 C3.49464844 45.39706055 3.49464844 45.39706055 2.0625 45.4375 C-4.61580939 45.65916705 -11.17846052 46.05422415 -17.8125 46.875 C-17.1525 47.65875 -16.4925 48.4425 -15.8125 49.25 C-13.8125 51.875 -13.8125 51.875 -13.8125 53.875 C-13.1525 53.875 -12.4925 53.875 -11.8125 53.875 C-9.49230703 57.06526533 -7.46606922 60.29226669 -5.8125 63.875 C-5.1525 63.875 -4.4925 63.875 -3.8125 63.875 C-0.79236577 69.19043624 -0.79236577 69.19043624 -0.875 72 C-2.22538112 74.70076225 -3.33260569 76.09456306 -5.8125 77.875 C-9.209688 78.5544376 -10.62422117 78.82568678 -13.8125 77.875 C-19.39064721 73.8219642 -24.18802807 67.72357971 -27.8125 61.875 C-27.8125 61.215 -27.8125 60.555 -27.8125 59.875 C-28.4725 59.875 -29.1325 59.875 -29.8125 59.875 C-30.4725 58.885 -31.1325 57.895 -31.8125 56.875 C-35.03045463 58.26616816 -36.92615936 59.8352277 -39.1875 62.5 C-39.78691406 63.20382813 -40.38632813 63.90765625 -41.00390625 64.6328125 C-43.2995441 67.47880845 -45.4503534 70.41385964 -47.55078125 73.40625 C-47.96714844 73.8909375 -48.38351563 74.375625 -48.8125 74.875 C-49.4725 74.875 -50.1325 74.875 -50.8125 74.875 C-51.1425 75.865 -51.4725 76.855 -51.8125 77.875 C-52.4725 77.875 -53.1325 77.875 -53.8125 77.875 C-53.8125 78.535 -53.8125 79.195 -53.8125 79.875 C-57.54505448 82.36336965 -59.39690935 82.41726552 -63.8125 81.875 C-66.69926002 79.35833742 -67.69583081 77.8319495 -68.16015625 74.0234375 C-67.72105002 70.04681257 -66.44785981 68.59868303 -63.8125 65.625 C-62.99910156 64.68527344 -62.18570313 63.74554688 -61.34765625 62.77734375 C-60.51105469 61.81957031 -59.67445312 60.86179688 -58.8125 59.875 C-57.28167087 57.98722877 -55.76004398 56.0919383 -54.25 54.1875 C-53.10443922 52.74978279 -51.95865302 51.31224512 -50.8125 49.875 C-51.54887695 49.90118408 -52.28525391 49.92736816 -53.04394531 49.9543457 C-56.38324616 50.05833686 -59.72220655 50.1233341 -63.0625 50.1875 C-64.22136719 50.22939453 -65.38023438 50.27128906 -66.57421875 50.31445312 C-75.14474155 50.43830461 -75.14474155 50.43830461 -78.609375 47.515625 C-79.8125 44.875 -79.8125 44.875 -79.8125 42.3125 C-78.56540268 39.27270027 -77.43358029 37.87529812 -74.8125 35.875 C-69.61898655 34.08749537 -64.80443692 33.48843822 -59.375 33.25 C-58.64345703 33.21132812 -57.91191406 33.17265625 -57.15820312 33.1328125 C-55.37666468 33.03966016 -53.59461878 32.95629714 -51.8125 32.875 C-53.22814607 30.97839726 -54.64498455 29.08270483 -56.0625 27.1875 C-56.85140625 26.13175781 -57.6403125 25.07601562 -58.453125 23.98828125 C-59.93891293 22.02772995 -61.47399098 20.10268928 -63.07421875 18.234375 C-65.84614037 14.47203645 -65.46697455 12.45632186 -64.8125 7.875 C-62.6875 5.3125 -62.6875 5.3125 -59.8125 3.875 C-56.35851037 3.5679787 -54.58565817 4.25016197 -51.8984375 6.421875 C-47.00151924 11.14863007 -42.90300335 16.45433296 -38.8125 21.875 C-35.55576076 26.30818459 -35.55576076 26.30818459 -30.8125 28.875 C-30.54179688 28.28460938 -30.27109375 27.69421875 -29.9921875 27.0859375 C-28.82178233 24.89239669 -27.60547085 23.3339381 -25.9375 21.5 C-23.53803581 18.83392867 -21.18731938 16.14066471 -18.89453125 13.3828125 C-18.37681152 12.7645459 -17.8590918 12.1462793 -17.32568359 11.50927734 C-16.29554478 10.27738838 -15.27087711 9.04089811 -14.25244141 7.79931641 C-6.15793565 -1.81709576 -6.15793565 -1.81709576 0 0 Z " fill="#785548" transform="translate(144.8125,35.125)"/>
<path d="M0 0 C-0.62759865 2.92879371 -1.58622659 5.36095629 -3 8 C-3.66 8 -4.32 8 -5 8 C-5 8.99 -5 9.98 -5 11 C-5.99 11 -6.98 11 -8 11 C-8.66 12.65 -9.32 14.3 -10 16 C-10.66 16 -11.32 16 -12 16 C-12.33 16.99 -12.66 17.98 -13 19 C-13.66 19 -14.32 19 -15 19 C-15.33 20.32 -15.66 21.64 -16 23 C-16.66 23 -17.32 23 -18 23 C-18 23.99 -18 24.98 -18 26 C-18.66 26 -19.32 26 -20 26 C-20.33 26.66 -20.66 27.32 -21 28 C-21.34186579 24.3709632 -21.38407072 22.55563973 -19.27734375 19.5078125 C-18.50519531 18.72148438 -17.73304687 17.93515625 -16.9375 17.125 C-16.12023437 16.27421875 -15.30296875 15.4234375 -14.4609375 14.546875 C-13.64882812 13.70640625 -12.83671875 12.8659375 -12 12 C-10.1177335 9.81459695 -8.26000786 7.61126236 -6.41015625 5.3984375 C-5 4 -5 4 -3 4 C-3.33 3.34 -3.66 2.68 -4 2 C-6.32156597 1.59270772 -8.6568787 1.25561323 -11 1 C-11 0.67 -11 0.34 -11 0 C-3.57142857 -1.28571429 -3.57142857 -1.28571429 0 0 Z " fill="#7C5D53" transform="translate(99,82)"/>
<path d="M0 0 C6.74193548 2.48387097 6.74193548 2.48387097 8 5 C8.23333333 11.53333333 8.23333333 11.53333333 7 14 C4.9375 14.625 4.9375 14.625 3 15 C3.62759865 12.07120629 4.58622659 9.63904371 6 7 C5.34 7 4.68 7 4 7 C4 6.34 4 5.68 4 5 C1.69 5 -0.62 5 -3 5 C-3 5.66 -3 6.32 -3 7 C-3.66 7 -4.32 7 -5 7 C-5 7.66 -5 8.32 -5 9 C-5.66 9 -6.32 9 -7 9 C-7.33 9.99 -7.66 10.98 -8 12 C-8.66 12 -9.32 12 -10 12 C-10 12.99 -10 13.98 -10 15 C-10.66 15 -11.32 15 -12 15 C-12 15.66 -12 16.32 -12 17 C-12.66 16.67 -13.32 16.34 -14 16 C-11.04750657 8.98782811 -6.97172354 3.48586177 0 0 Z " fill="#866255" transform="translate(141,34)"/>
<path d="M0 0 C7.77730248 3.04992254 13.27638093 11.10924473 17.1875 18.25 C17.1875 18.91 17.1875 19.57 17.1875 20.25 C16.1975 19.92 15.2075 19.59 14.1875 19.25 C14.1875 18.59 14.1875 17.93 14.1875 17.25 C13.5275 17.25 12.8675 17.25 12.1875 17.25 C8.78859749 14.19970288 6.47493414 11.17131566 4.1875 7.25 C3.5275 6.92 2.8675 6.59 2.1875 6.25 C2.1875 5.59 2.1875 4.93 2.1875 4.25 C-3.22037385 5.34786425 -3.22037385 5.34786425 -6.8125 9.25 C-7.1425 7.6 -7.4725 5.95 -7.8125 4.25 C-5.21548725 1.72936997 -3.66260996 0.32556533 0 0 Z " fill="#7F6258" transform="translate(87.8125,38.75)"/>
<path d="M0 0 C2.08268593 -0.08126087 4.16628658 -0.13930839 6.25 -0.1875 C7.99023438 -0.23970703 7.99023438 -0.23970703 9.765625 -0.29296875 C13.25919912 0.02347818 14.5831803 0.5078358 17 3 C18.38666667 8.22666667 18.38666667 8.22666667 17 11 C16.34 11 15.68 11 15 11 C15 9.02 15 7.04 15 5 C5.43 4.67 -4.14 4.34 -14 4 C-14 3.67 -14 3.34 -14 3 C-9.38 2.67 -4.76 2.34 0 2 C0 1.34 0 0.68 0 0 Z " fill="#816057" transform="translate(144,64)"/>
<path d="M0 0 C0 3 0 3 -1 6 C-1.99 6 -2.98 6 -4 6 C-4 6.99 -4 7.98 -4 9 C-6.375 11.6875 -6.375 11.6875 -9 14 C-9.66 14 -10.32 14 -11 14 C-11 14.66 -11 15.32 -11 16 C-12.32 16 -13.64 16 -15 16 C-15 15.34 -15 14.68 -15 14 C-15.99 13.67 -16.98 13.34 -18 13 C-18 12.34 -18 11.68 -18 11 C-18.66 11 -19.32 11 -20 11 C-20 10.01 -20 9.02 -20 8 C-18.68 8 -17.36 8 -16 8 C-15.01 9.485 -15.01 9.485 -14 11 C-13.01 11.33 -12.02 11.66 -11 12 C-10.773125 11.46375 -10.54625 10.9275 -10.3125 10.375 C-7.83569656 5.8931652 -4.92548944 1.82425535 0 0 Z " fill="#83675C" transform="translate(125,52)"/>
<path d="M0 0 C0.7734375 0.495 0.7734375 0.495 1.5625 1 C-2.25780913 2.74743769 -5.50504534 3.32041211 -9.6875 3.5625 C-13.37853119 3.47246008 -13.37853119 3.47246008 -16.4375 5 C-16.80510731 7.32817964 -17.13991581 9.6618385 -17.4375 12 C-18.0975 11.67 -18.7575 11.34 -19.4375 11 C-19.4375 10.01 -19.4375 9.02 -19.4375 8 C-20.0975 8 -20.7575 8 -21.4375 8 C-20.18773244 4.34683329 -19.76651247 3.21934164 -16.4375 1 C-10.94797309 -0.90022085 -5.55971987 -2.28091072 0 0 Z " fill="#8E6F63" transform="translate(86.4375,70)"/>
<path d="M0 0 C1.32 0 2.64 0 4 0 C4 0.66 4 1.32 4 2 C4.66 2 5.32 2 6 2 C6.66 3.65 7.32 5.3 8 7 C8.66 7 9.32 7 10 7 C10.33 8.32 10.66 9.64 11 11 C10.01 11 9.02 11 8 11 C7.67 10.01 7.34 9.02 7 8 C6.34 8 5.68 8 5 8 C4.34 7.01 3.68 6.02 3 5 C0.43717258 4.27034634 0.43717258 4.27034634 -2 4 C-2 3.34 -2 2.68 -2 2 C-1.34 2 -0.68 2 0 2 C0 1.34 0 0.68 0 0 Z " fill="#7C5F54" transform="translate(110,87)"/>
<path d="M0 0 C0.66 0 1.32 0 2 0 C3.6875 2.25 3.6875 2.25 5 5 C4.58203125 7.171875 4.58203125 7.171875 4 9 C-4.42857143 11.28571429 -4.42857143 11.28571429 -9 11 C-8.01 10.34 -7.02 9.68 -6 9 C-6.66 8.34 -7.32 7.68 -8 7 C-4.7 6.67 -1.4 6.34 2 6 C1.34 4.02 0.68 2.04 0 0 Z " fill="#7D6259" transform="translate(92,62)"/>
<path d="M0 0 C1.3303125 0.37125 1.3303125 0.37125 2.6875 0.75 C3.0175 2.07 3.3475 3.39 3.6875 4.75 C2.429375 4.6675 1.17125 4.585 -0.125 4.5 C-2.30047348 4.43311857 -2.30047348 4.43311857 -4.3125 4.75 C-6.36520463 6.59188612 -6.36520463 6.59188612 -7.3125 8.75 C-7.6425 7.1 -7.9725 5.45 -8.3125 3.75 C-4.12788462 -0.31153846 -4.12788462 -0.31153846 0 0 Z " fill="#8A6F63" transform="translate(88.3125,39.25)"/>
<path d="M0 0 C0.71929687 0.23847656 1.43859375 0.47695313 2.1796875 0.72265625 C2.1796875 1.05265625 2.1796875 1.38265625 2.1796875 1.72265625 C1.2103125 1.84640625 0.2409375 1.97015625 -0.7578125 2.09765625 C-1.7684375 2.30390625 -2.7790625 2.51015625 -3.8203125 2.72265625 C-4.1503125 3.38265625 -4.4803125 4.04265625 -4.8203125 4.72265625 C-5.4803125 4.72265625 -6.1403125 4.72265625 -6.8203125 4.72265625 C-6.8203125 5.38265625 -6.8203125 6.04265625 -6.8203125 6.72265625 C-7.4803125 6.72265625 -8.1403125 6.72265625 -8.8203125 6.72265625 C-9.1503125 7.71265625 -9.4803125 8.70265625 -9.8203125 9.72265625 C-10.4803125 9.72265625 -11.1403125 9.72265625 -11.8203125 9.72265625 C-11.8203125 10.71265625 -11.8203125 11.70265625 -11.8203125 12.72265625 C-12.4803125 12.72265625 -13.1403125 12.72265625 -13.8203125 12.72265625 C-13.8203125 13.38265625 -13.8203125 14.04265625 -13.8203125 14.72265625 C-14.4803125 14.39265625 -15.1403125 14.06265625 -15.8203125 13.72265625 C-13.6489685 7.51881626 -7.05392901 -0.69366892 0 0 Z " fill="#8C6F64" transform="translate(142.8203125,36.27734375)"/>
<path d="M0 0 C-0.62759865 2.92879371 -1.58622659 5.36095629 -3 8 C-3.66 8 -4.32 8 -5 8 C-5 8.99 -5 9.98 -5 11 C-5.99 11 -6.98 11 -8 11 C-7.690625 10.401875 -7.38125 9.80375 -7.0625 9.1875 C-5.89790296 6.91043228 -5.89790296 6.91043228 -5 4 C-4.34 4 -3.68 4 -3 4 C-3.33 3.34 -3.66 2.68 -4 2 C-6.32156597 1.59270772 -8.6568787 1.25561323 -11 1 C-11 0.67 -11 0.34 -11 0 C-3.57142857 -1.28571429 -3.57142857 -1.28571429 0 0 Z " fill="#87685E" transform="translate(99,82)"/>
<path d="M0 0 C1.97986082 0.11347619 3.95891598 0.2410935 5.9375 0.375 C7.59072266 0.47941406 7.59072266 0.47941406 9.27734375 0.5859375 C10.17582031 0.72257812 11.07429688 0.85921875 12 1 C12.33 1.66 12.66 2.32 13 3 C3.96278689 3.94242818 -4.92551747 4.11157151 -14 4 C-14 3.67 -14 3.34 -14 3 C-9.38 2.67 -4.76 2.34 0 2 C0 1.34 0 0.68 0 0 Z " fill="#8D746B" transform="translate(144,64)"/>
<path d="M0 0 C0.66 0.33 1.32 0.66 2 1 C0.68 3.64 -0.64 6.28 -2 9 C-2.66 9 -3.32 9 -4 9 C-4 9.66 -4 10.32 -4 11 C-5.32 11 -6.64 11 -8 11 C-8 8 -8 8 -5.625 5.3125 C-3 3 -3 3 -1 3 C-0.67 2.01 -0.34 1.02 0 0 Z " fill="#7F6257" transform="translate(98,101)"/>
<path d="M0 0 C0.99 0 1.98 0 3 0 C2.70985788 3.48170548 2.27243676 4.74228955 -0.3125 7.1875 C-2.50691124 8.66745177 -4.58698372 9.92754832 -7 11 C-6 9 -5 7 -4 5 C-3.34 5 -2.68 5 -2 5 C-1.34 3.35 -0.68 1.7 0 0 Z " fill="#7E5E54" transform="translate(139,52)"/>
<path d="M0 0 C2.64 0 5.28 0 8 0 C8 0.66 8 1.32 8 2 C6.68 2.33 5.36 2.66 4 3 C4 4.32 4 5.64 4 7 C3.01 6.67 2.02 6.34 1 6 C1 5.34 1 4.68 1 4 C0.34 4 -0.32 4 -1 4 C-0.67 2.68 -0.34 1.36 0 0 Z " fill="#7F6258" transform="translate(123,79)"/>
<path d="M0 0 C2.01822917 0.26041667 4.03645833 0.52083333 6.0546875 0.78125 C8.00498344 1.0372485 8.00498344 1.0372485 10 1 C9.67 2.32 9.34 3.64 9 5 C5.625 5.125 5.625 5.125 2 5 C1.34 4.34 0.68 3.68 0 3 C0 2.01 0 1.02 0 0 Z " fill="#816358" transform="translate(79,112)"/>
<path d="M0 0 C2 3 2 3 1.8125 5 C0.90059285 7.24469451 -0.18533754 8.42203265 -2 10 C-3.16909807 6.49270578 -2.85056945 4.55692677 -2 1 C-1.34 0.67 -0.68 0.34 0 0 Z " fill="#886F64" transform="translate(142,102)"/>
<path d="M0 0 C0.66 0 1.32 0 2 0 C2.66 1.65 3.32 3.3 4 5 C4.66 5 5.32 5 6 5 C6.33 6.32 6.66 7.64 7 9 C1.39130435 6.56143667 1.39130435 6.56143667 -0.4375 3.9375 C-1 2 -1 2 0 0 Z " fill="#7C6055" transform="translate(122,99)"/>
<path d="M0 0 C1.9375 0.8125 1.9375 0.8125 4 2 C4.33 2.99 4.66 3.98 5 5 C5.66 5 6.32 5 7 5 C8.32 7.31 9.64 9.62 11 12 C7.3571729 10.52513858 5.59170887 8.55477485 3.25 5.4375 C2.63640625 4.63183594 2.0228125 3.82617188 1.390625 2.99609375 C0 1 0 1 0 0 Z " fill="#6A4D45" transform="translate(126,84)"/>
<path d="M0 0 C0.99 0 1.98 0 3 0 C3 0.66 3 1.32 3 2 C6.96 1.34 10.92 0.68 15 0 C15 0.66 15 1.32 15 2 C10.05 2.66 5.1 3.32 0 4 C0 2.68 0 1.36 0 0 Z " fill="#896153" transform="translate(129,64)"/>
<path d="M0 0 C0.33 0.99 0.66 1.98 1 3 C0.01 3.33 -0.98 3.66 -2 4 C-2 4.99 -2 5.98 -2 7 C-2.66 7 -3.32 7 -4 7 C-4.33 7.66 -4.66 8.32 -5 9 C-4.5206753 4.68607774 -3.2542015 2.83430453 0 0 Z " fill="#80655B" transform="translate(83,101)"/>
<path d="M0 0 C0.66 0.99 1.32 1.98 2 3 C1 4 1 4 -2.0625 4.0625 C-3.031875 4.041875 -4.00125 4.02125 -5 4 C-5.33 3.34 -5.66 2.68 -6 2 C-4.02 1.34 -2.04 0.68 0 0 Z " fill="#816056" transform="translate(138,109)"/>
<path d="M0 0 C2.97 0.33 5.94 0.66 9 1 C8.34 1.66 7.68 2.32 7 3 C3.375 2.625 3.375 2.625 0 2 C0 1.34 0 0.68 0 0 Z " fill="#887167" transform="translate(79,69)"/>
<path d="M0 0 C1 2 1 2 0.375 4.5625 C-1 7 -1 7 -3.625 7.8125 C-4.40875 7.874375 -5.1925 7.93625 -6 8 C-4.02 5.36 -2.04 2.72 0 0 Z " fill="#755C52" transform="translate(128,46)"/>
<path d="M0 0 C0.66 0.33 1.32 0.66 2 1 C0.35 2.65 -1.3 4.3 -3 6 C-3.33 5.01 -3.66 4.02 -4 3 C-3 1 -3 1 0 0 Z " fill="#644A42" transform="translate(145,48)"/>
</svg>
