<?xml version="1.0" encoding="UTF-8"?>
<svg version="1.1" xmlns="http://www.w3.org/2000/svg" width="220" height="222">
<path d="M0 0 C2.37481211 1.93806505 3.60041533 3.62965356 4 6.69140625 C4.02305771 11.74873058 4.03667938 15.3076002 0.69921875 19.38671875 C0.24546875 19.94359375 -0.20828125 20.50046875 -0.67578125 21.07421875 C-4.02820465 23.78194534 -6.48982522 24.44464418 -10.80078125 24.13671875 C-16.88135357 22.83373897 -19.66653386 21.57850074 -23.30078125 16.38671875 C-24.94119117 13.10589891 -24.95526014 9.918435 -24.30078125 6.38671875 C-22.21420397 2.38161069 -19.72006505 -0.73987584 -15.86328125 -3.11328125 C-9.26205179 -4.40132602 -5.52666317 -3.61567551 0 0 Z " fill="#775549" transform="translate(127.30078125,141.61328125)"/>
<path d="M0 0 C2.84069699 1.74315497 4.04465058 2.86825182 5.75 5.6875 C6.47568194 10.46134885 6.35555288 15.10633413 4.625 19.625 C1.25700442 23.32979513 -1.90543645 25.32734905 -6.75 26.625 C-11.54096205 26.71055289 -14.36309652 25.18400965 -18.0625 22.25 C-21.27036426 18.02912598 -20.81316519 11.70839532 -20.25 6.6875 C-18.43837697 2.85522052 -16.91125786 1.14303319 -13.4375 -1.25 C-8.39919134 -2.92943622 -4.83235112 -1.95152641 0 0 Z " fill="#77564A" transform="translate(120.25,60.3125)"/>
<path d="M0 0 C72.6 0 145.2 0 220 0 C220 0.66 220 1.32 220 2 C147.4 2 74.8 2 0 2 C0 1.34 0 0.68 0 0 Z " fill="#AA9590" transform="translate(0,5)"/>
<path d="M0 0 C32.34 0 64.68 0 98 0 C94.03545607 2.64302929 90.62973181 2.26514283 86.03051758 2.22705078 C85.11324387 2.22734283 84.19597015 2.22763489 83.25090027 2.22793579 C80.2153481 2.22654111 77.1800406 2.21097333 74.14453125 2.1953125 C72.04131708 2.19158286 69.93810117 2.18873566 67.83488464 2.18673706 C62.29626681 2.17909673 56.75775368 2.15944475 51.21917725 2.1373291 C45.56865862 2.11687932 39.91812309 2.1077372 34.26757812 2.09765625 C23.17833938 2.07619928 12.0891784 2.04205847 1 2 C0.67 1.34 0.34 0.68 0 0 Z " fill="#A08B80" transform="translate(0,66)"/>
<path d="M0 0 C30.36 0 60.72 0 92 0 C92 0.66 92 1.32 92 2 C61.97 2 31.94 2 1 2 C0.67 1.34 0.34 0.68 0 0 Z " fill="#A2867B" transform="translate(128,66)"/>
<path d="M0 0 C2.5 1.5 2.5 1.5 5 4 C5.68582594 9.40087926 5.40504755 12.58604947 2 17 C-0.29096898 19.81164375 -2.49520158 21.04414589 -6 22 C-11.62447969 21.59825145 -15.98014797 20.64777403 -20.375 17.0625 C-22.79878687 12.49459397 -22.32972119 7.94465183 -21 3 C-20.01 2.34 -19.02 1.68 -18 1 C-18 5.29 -18 9.58 -18 14 C-17.34 14 -16.68 14 -16 14 C-16 14.66 -16 15.32 -16 16 C-15.34 16 -14.68 16 -14 16 C-14 16.66 -14 17.32 -14 18 C-12.22880197 17.85866501 -10.45804713 17.71176792 -8.6875 17.5625 C-7.70136719 17.48128906 -6.71523437 17.40007812 -5.69921875 17.31640625 C-2.90624401 17.08187441 -2.90624401 17.08187441 0 16 C0 14.68 0 13.36 0 12 C0.66 12 1.32 12 2 12 C1.85831863 10.56208484 1.71148957 9.1246763 1.5625 7.6875 C1.48128906 6.88699219 1.40007812 6.08648437 1.31640625 5.26171875 C1.04734307 2.83912821 1.04734307 2.83912821 0 0 Z " fill="#826156" transform="translate(126,144)"/>
<path d="M0 0 C1.4208274 -0.0006776 2.84165468 -0.00165136 4.26248169 -0.00289917 C7.22219968 -0.00435958 10.18188717 -0.00227894 13.14160156 0.00244141 C16.85345804 0.00808605 20.56524193 0.00479594 24.27709579 -0.00101089 C41.79451277 -0.02407064 59.25826246 0.23643837 76.7578125 1.1328125 C76.7578125 1.4628125 76.7578125 1.7928125 76.7578125 2.1328125 C41.4478125 2.1328125 6.1378125 2.1328125 -30.2421875 2.1328125 C-30.2421875 1.8028125 -30.2421875 1.4728125 -30.2421875 1.1328125 C-20.14284295 0.34528344 -10.13425616 -0.01566322 0 0 Z " fill="#B8A290" transform="translate(30.2421875,164.8671875)"/>
<path d="M0 0 C3.40413626 -0.04496635 6.80807706 -0.07634092 10.21240234 -0.10253906 C11.20751831 -0.11740356 12.20263428 -0.13226807 13.22790527 -0.14758301 C14.12577759 -0.15140991 15.0236499 -0.15523682 15.94873047 -0.15917969 C16.72414185 -0.16647095 17.49955322 -0.17376221 18.29846191 -0.18127441 C20.18115234 0.05371094 20.18115234 0.05371094 22.18115234 2.05371094 C-8.17884766 2.05371094 -38.53884766 2.05371094 -69.81884766 2.05371094 C-69.81884766 1.72371094 -69.81884766 1.39371094 -69.81884766 1.05371094 C-61.62804847 0.92105778 -53.43721866 0.79055601 -45.24634552 0.66255951 C-41.44009258 0.60301778 -37.63385264 0.5428239 -33.82763672 0.48095703 C-24.48564634 0.32950548 -15.14360727 0.19311172 -5.80108643 0.07873535 C-3.86736694 0.05432346 -1.93368233 0.02719666 0 0 Z " fill="#AA968F" transform="translate(197.81884765625,164.9462890625)"/>
<path d="M0 0 C4.3177458 0.50797009 8.03302114 1.19682779 12 3 C12.33 5.31 12.66 7.62 13 10 C12.34 10 11.68 10 11 10 C11 9.01 11 8.02 11 7 C10.34 7 9.68 7 9 7 C9 6.34 9 5.68 9 5 C5.04 5 1.08 5 -3 5 C-3 5.66 -3 6.32 -3 7 C-3.66 7 -4.32 7 -5 7 C-5 7.66 -5 8.32 -5 9 C-5.66 9 -6.32 9 -7 9 C-6.67 7.68 -6.34 6.36 -6 5 C-5.38125 4.9175 -4.7625 4.835 -4.125 4.75 C-1.81562433 4.18741541 -1.81562433 4.18741541 -0.75 1.9375 C-0.5025 1.298125 -0.255 0.65875 0 0 Z " fill="#8A685B" transform="translate(110,58)"/>
<path d="M0 0 C1.32630565 4.14470514 1.98384711 9.03230578 0 13 C0.89163577 15.11683841 0.89163577 15.11683841 2 17 C0.0625 16.3125 0.0625 16.3125 -2 15 C-3.65371774 10.67489205 -2.80129987 6.44357198 -2 2 C-1.34 1.34 -0.68 0.68 0 0 Z " fill="#7C5F55" transform="translate(107,145)"/>
<path d="M0 0 C1.6744239 0.6469365 3.34302621 1.30959426 5 2 C5 2.33 5 2.66 5 3 C1.04 3 -2.92 3 -7 3 C-6.67 2.01 -6.34 1.02 -6 0 C-3.43417606 -1.28291197 -2.6963913 -0.84743727 0 0 Z " fill="#85675D" transform="translate(118,139)"/>
<path d="M0 0 C0.33 0.66 0.66 1.32 1 2 C-0.32 2.33 -1.64 2.66 -3 3 C-3.33 5.31 -3.66 7.62 -4 10 C-4.99 9.67 -5.98 9.34 -7 9 C-5.87548273 6.0280615 -4.77706209 3.66559313 -3 1 C-2.01 0.67 -1.02 0.34 0 0 Z " fill="#735045" transform="translate(107,60)"/>
<path d="M0 0 C0.99 0.495 0.99 0.495 2 1 C2 1.66 2 2.32 2 3 C2.66 3 3.32 3 4 3 C4 3.66 4 4.32 4 5 C4.66 5 5.32 5 6 5 C6 5.66 6 6.32 6 7 C4.68 7.33 3.36 7.66 2 8 C0.74335022 5.09399739 0 3.20395416 0 0 Z " fill="#83685E" transform="translate(106,155)"/>
<path d="M0 0 C0.99 0 1.98 0 3 0 C3 2.31 3 4.62 3 7 C2.01 6.67 1.02 6.34 0 6 C0 4.02 0 2.04 0 0 Z " fill="#88675B" transform="translate(100,70)"/>
</svg>
