<?xml version="1.0" encoding="UTF-8"?>
<svg version="1.1" xmlns="http://www.w3.org/2000/svg" width="208" height="217">
<path d="M0 0 C4.85407923 0.04412799 7.6457012 0.8069272 11.4375 3.79296875 C15.99979418 8.81397185 16.5716618 13.15221481 16.421875 19.7578125 C14.26080613 34.05173946 3.9964457 45.0981485 -7.125 53.375 C-7.82496094 53.93574219 -8.52492188 54.49648437 -9.24609375 55.07421875 C-12.04440757 57.01151294 -13.80254867 56.91744103 -17.125 56.375 C-19.792303 54.2411576 -21.59445026 52.43609947 -23.125 49.375 C-23.125 46.38712916 -21.88370171 44.71993562 -20.125 42.375 C-19.465 42.375 -18.805 42.375 -18.125 42.375 C-18.125 41.715 -18.125 41.055 -18.125 40.375 C-16.7520644 39.23675425 -15.32495619 38.16335572 -13.875 37.125 C-9.97561456 34.17278389 -7.31646765 31.75793531 -5.125 27.375 C-5.455 26.385 -5.785 25.395 -6.125 24.375 C-6.764375 24.106875 -7.40375 23.83875 -8.0625 23.5625 C-10.125 22.375 -10.125 22.375 -11.4375 19.875 C-12.35780788 15.18979624 -12.35280196 11.00821493 -11.125 6.375 C-8.625 3.3125 -8.625 3.3125 -6.125 1.375 C-4.42365915 -0.32634085 -2.32730597 0.08243863 0 0 Z " fill="#765447" transform="translate(108.125,131.625)"/>
<path d="M0 0 C0.66 0 1.32 0 2 0 C2 3.3 2 6.6 2 10 C2.66 10.33 3.32 10.66 4 11 C3.1875 12.9375 3.1875 12.9375 2 15 C1.01 15.33 0.02 15.66 -1 16 C-0.67 10.72 -0.34 5.44 0 0 Z " fill="#7D5D50" transform="translate(120,144)"/>
<path d="M0 0 C0 0.99 0 1.98 0 3 C-0.66 2.67 -1.32 2.34 -2 2 C-1.34 1.34 -0.68 0.68 0 0 Z M-3 3 C-2.67 3.66 -2.34 4.32 -2 5 C-2.66 4.67 -3.32 4.34 -4 4 C-3.67 3.67 -3.34 3.34 -3 3 Z M-4 5 C-4.33 5.99 -4.66 6.98 -5 8 C-5.66 8 -6.32 8 -7 8 C-7 8.66 -7 9.32 -7 10 C-8.65 10.66 -10.3 11.32 -12 12 C-10.4365884 7.43002763 -9.27390657 5 -4 5 Z " fill="#7C5C4E" transform="translate(103,163)"/>
<path d="M0 0 C0.66 0 1.32 0 2 0 C1.34 1.98 0.68 3.96 0 6 C-1.65 6.33 -3.3 6.66 -5 7 C-5 6.34 -5 5.68 -5 5 C-4.34 5 -3.68 5 -3 5 C-2.67 4.01 -2.34 3.02 -2 2 C-1.34 2 -0.68 2 0 2 C0 1.34 0 0.68 0 0 Z " fill="#7F6157" transform="translate(107,174)"/>
</svg>
